G75*
%MOIN*%
%OFA0B0*%
%FSLAX25Y25*%
%IPPOS*%
%LPD*%
%AMOC8*
5,1,8,0,0,1.08239X$1,22.5*
%
%ADD10C,0.00000*%
D10*
X0073305Y0075805D02*
X0073307Y0075904D01*
X0073313Y0076004D01*
X0073323Y0076103D01*
X0073337Y0076201D01*
X0073354Y0076299D01*
X0073376Y0076396D01*
X0073401Y0076492D01*
X0073430Y0076587D01*
X0073463Y0076681D01*
X0073500Y0076773D01*
X0073540Y0076864D01*
X0073584Y0076953D01*
X0073632Y0077041D01*
X0073683Y0077126D01*
X0073737Y0077209D01*
X0073794Y0077291D01*
X0073855Y0077369D01*
X0073919Y0077446D01*
X0073985Y0077519D01*
X0074055Y0077590D01*
X0074127Y0077658D01*
X0074202Y0077724D01*
X0074280Y0077786D01*
X0074360Y0077845D01*
X0074442Y0077901D01*
X0074526Y0077953D01*
X0074613Y0078002D01*
X0074701Y0078048D01*
X0074791Y0078090D01*
X0074883Y0078129D01*
X0074976Y0078164D01*
X0075070Y0078195D01*
X0075166Y0078222D01*
X0075263Y0078245D01*
X0075360Y0078265D01*
X0075458Y0078281D01*
X0075557Y0078293D01*
X0075656Y0078301D01*
X0075755Y0078305D01*
X0075855Y0078305D01*
X0075954Y0078301D01*
X0076053Y0078293D01*
X0076152Y0078281D01*
X0076250Y0078265D01*
X0076347Y0078245D01*
X0076444Y0078222D01*
X0076540Y0078195D01*
X0076634Y0078164D01*
X0076727Y0078129D01*
X0076819Y0078090D01*
X0076909Y0078048D01*
X0076997Y0078002D01*
X0077084Y0077953D01*
X0077168Y0077901D01*
X0077250Y0077845D01*
X0077330Y0077786D01*
X0077408Y0077724D01*
X0077483Y0077658D01*
X0077555Y0077590D01*
X0077625Y0077519D01*
X0077691Y0077446D01*
X0077755Y0077369D01*
X0077816Y0077291D01*
X0077873Y0077209D01*
X0077927Y0077126D01*
X0077978Y0077041D01*
X0078026Y0076953D01*
X0078070Y0076864D01*
X0078110Y0076773D01*
X0078147Y0076681D01*
X0078180Y0076587D01*
X0078209Y0076492D01*
X0078234Y0076396D01*
X0078256Y0076299D01*
X0078273Y0076201D01*
X0078287Y0076103D01*
X0078297Y0076004D01*
X0078303Y0075904D01*
X0078305Y0075805D01*
X0078303Y0075706D01*
X0078297Y0075606D01*
X0078287Y0075507D01*
X0078273Y0075409D01*
X0078256Y0075311D01*
X0078234Y0075214D01*
X0078209Y0075118D01*
X0078180Y0075023D01*
X0078147Y0074929D01*
X0078110Y0074837D01*
X0078070Y0074746D01*
X0078026Y0074657D01*
X0077978Y0074569D01*
X0077927Y0074484D01*
X0077873Y0074401D01*
X0077816Y0074319D01*
X0077755Y0074241D01*
X0077691Y0074164D01*
X0077625Y0074091D01*
X0077555Y0074020D01*
X0077483Y0073952D01*
X0077408Y0073886D01*
X0077330Y0073824D01*
X0077250Y0073765D01*
X0077168Y0073709D01*
X0077084Y0073657D01*
X0076997Y0073608D01*
X0076909Y0073562D01*
X0076819Y0073520D01*
X0076727Y0073481D01*
X0076634Y0073446D01*
X0076540Y0073415D01*
X0076444Y0073388D01*
X0076347Y0073365D01*
X0076250Y0073345D01*
X0076152Y0073329D01*
X0076053Y0073317D01*
X0075954Y0073309D01*
X0075855Y0073305D01*
X0075755Y0073305D01*
X0075656Y0073309D01*
X0075557Y0073317D01*
X0075458Y0073329D01*
X0075360Y0073345D01*
X0075263Y0073365D01*
X0075166Y0073388D01*
X0075070Y0073415D01*
X0074976Y0073446D01*
X0074883Y0073481D01*
X0074791Y0073520D01*
X0074701Y0073562D01*
X0074613Y0073608D01*
X0074526Y0073657D01*
X0074442Y0073709D01*
X0074360Y0073765D01*
X0074280Y0073824D01*
X0074202Y0073886D01*
X0074127Y0073952D01*
X0074055Y0074020D01*
X0073985Y0074091D01*
X0073919Y0074164D01*
X0073855Y0074241D01*
X0073794Y0074319D01*
X0073737Y0074401D01*
X0073683Y0074484D01*
X0073632Y0074569D01*
X0073584Y0074657D01*
X0073540Y0074746D01*
X0073500Y0074837D01*
X0073463Y0074929D01*
X0073430Y0075023D01*
X0073401Y0075118D01*
X0073376Y0075214D01*
X0073354Y0075311D01*
X0073337Y0075409D01*
X0073323Y0075507D01*
X0073313Y0075606D01*
X0073307Y0075706D01*
X0073305Y0075805D01*
M02*
