<?xml version="1.0" encoding="utf-8" ?>
<svg baseProfile="full" height="40mm" version="1.1" viewBox="-20 -20 40 40" width="40mm" xmlns="http://www.w3.org/2000/svg" xmlns:ev="http://www.w3.org/2001/xml-events" xmlns:xlink="http://www.w3.org/1999/xlink"><defs /><g id="elems" stroke="black" stroke-width="0.3048"><polyline fill="white" points="-18.35,2.2472268764353934e-15 -18.249476780007818,-1.918097300961442 -17.949008473465337,-3.815179526505879 -17.45188707401607,-5.670461846780283 -16.763559147741727,-7.463617400440935 -15.891566159444453,-9.174999999999995 -14.845461846780289,-10.785859379566881 -13.636707547510191,-12.278546626685044 -12.278546626685054,-13.63670754751018 -10.785859379566885,-14.845461846780285 -9.17500000000001,-15.891566159444446 -7.463617400440946,-16.76355914774172 -5.670461846780288,-17.451887074016067 -3.8151795265058923,-17.949008473465334 -1.9180973009614553,-18.249476780007818 -3.37084031465309e-15,-18.35 1.9180973009614324,-18.249476780007818 3.81517952650587,-17.949008473465337 5.670461846780282,-17.45188707401607 7.463617400440926,-16.76355914774173 9.174999999999988,-15.891566159444457 10.78585937956688,-14.845461846780289 12.278546626685042,-13.636707547510191 13.636707547510175,-12.27854662668506 14.845461846780285,-10.785859379566887 15.891566159444446,-9.17500000000001 16.76355914774172,-7.463617400440947 17.451887074016067,-5.670461846780289 17.949008473465334,-3.815179526505894 18.249476780007818,-1.9180973009614566 18.35,-4.494453752870787e-15" stroke="black" stroke-width="0.5" /><polyline fill="white" points="18.35,0.0 18.249476780007818,1.918097300961441 17.949008473465337,3.815179526505884 17.451887074016067,5.670461846780285 16.763559147741727,7.463617400440933 15.891566159444452,9.174999999999999 14.845461846780287,10.785859379566883 13.636707547510188,12.278546626685047 12.27854662668505,13.636707547510184 10.785859379566883,14.845461846780287 9.175000000000002,15.89156615944445 7.4636174004409375,16.763559147741727 5.670461846780286,17.451887074016067 3.815179526505886,17.949008473465334 1.9180973009614453,18.249476780007818 1.1236134382176967e-15,18.35 -1.9180973009614388,18.249476780007818 -3.8151795265058803,17.949008473465337 -5.6704618467802845,17.45188707401607 -7.463617400440931,16.76355914774173 -9.174999999999997,15.891566159444452 -10.785859379566881,14.845461846780287 -12.278546626685044,13.63670754751019 -13.63670754751018,12.278546626685051 -14.845461846780285,10.785859379566885 -15.891566159444448,9.175000000000006 -16.763559147741724,7.463617400440938 -17.451887074016067,5.670461846780287 -17.949008473465334,3.8151795265058914 -18.249476780007818,1.9180973009614461 -18.35,2.2472268764353934e-15" stroke="black" stroke-width="0.5" /><line stroke="black" stroke-width="1.0" x1="1.1236134382176967e-15" x2="1.0337243631602809e-15" y1="18.35" y2="16.882" /><line stroke="black" stroke-width="1.0" x1="9.174999999999999" x2="8.440999999999999" y1="15.891566159444452" y2="14.620240866688896" /><line stroke="black" stroke-width="1.0" x1="15.89156615944445" x2="14.620240866688894" y1="9.175000000000002" y2="8.441000000000003" /><line stroke="black" stroke-width="1.0" x1="18.35" x2="16.882" y1="4.074518500374325e-15" y2="3.748557020344379e-15" /><line stroke="black" stroke-width="1.0" x1="15.891566159444453" x2="14.620240866688897" y1="-9.174999999999997" y2="-8.440999999999997" /><line stroke="black" stroke-width="1.0" x1="9.175000000000006" x2="8.441000000000006" y1="-15.891566159444448" y2="-14.620240866688892" /><line stroke="black" stroke-width="1.0" x1="9.272650438966347e-15" x2="8.530838403849038e-15" y1="-18.35" y2="-16.882" /><line stroke="black" stroke-width="1.0" x1="-9.17499999999999" x2="-8.44099999999999" y1="-15.891566159444455" y2="-14.6202408666889" /><line stroke="black" stroke-width="1.0" x1="-15.891566159444443" x2="-14.620240866688889" y1="-9.175000000000015" y2="-8.441000000000013" /><line stroke="black" stroke-width="1.0" x1="-18.35" x2="-16.882" y1="-1.8545300877932693e-14" y2="-1.7061676807698077e-14" /><line stroke="black" stroke-width="1.0" x1="-15.891566159444462" x2="-14.620240866688905" y1="9.174999999999983" y2="8.440999999999985" /><line stroke="black" stroke-width="1.0" x1="-9.175000000000024" x2="-8.441000000000022" y1="15.891566159444437" y2="14.620240866688883" /><line stroke="black" stroke-width="1.0" x1="-1.9668914316150387e-14" x2="-1.8095401170858356e-14" y1="18.35" y2="16.882" /><line stroke="black" stroke-width="0.3048" x1="1.1236134382176967e-15" x2="1.0594069560338284e-15" y1="18.35" y2="17.301428571428573" /><line stroke="black" stroke-width="0.3048" x1="1.1236134382176967e-15" x2="1.0337243631602809e-15" y1="18.35" y2="16.882" /><line stroke="black" stroke-width="0.3048" x1="1.918097300961441" x2="1.7646495168845258" y1="18.249476780007818" y2="16.78951863760719" /><line stroke="black" stroke-width="0.3048" x1="3.815179526505882" x2="3.5099651643854117" y1="17.949008473465337" y2="16.51308779558811" /><line stroke="black" stroke-width="0.3048" x1="5.670461846780283" x2="5.216824899037861" y1="17.45188707401607" y2="16.055736108094784" /><line stroke="black" stroke-width="0.3048" x1="7.46361740044093" x2="6.866528008405656" y1="16.76355914774173" y2="15.422474415922391" /><line stroke="black" stroke-width="0.3048" x1="9.174999999999995" x2="8.440999999999995" y1="15.891566159444453" y2="14.620240866688897" /><line stroke="black" stroke-width="0.3048" x1="10.78585937956688" x2="9.922990629201529" y1="14.845461846780289" y2="13.657824899037866" /><line stroke="black" stroke-width="0.3048" x1="12.278546626685046" x2="11.296262896550243" y1="13.63670754751019" y2="12.545770943709375" /><line stroke="black" stroke-width="0.3048" x1="13.636707547510184" x2="12.54577094370937" y1="12.278546626685051" y2="11.296262896550248" /><line stroke="black" stroke-width="0.3048" x1="14.845461846780285" x2="13.657824899037863" y1="10.785859379566885" y2="9.922990629201534" /><line stroke="black" stroke-width="0.3048" x1="15.89156615944445" x2="14.620240866688894" y1="9.175000000000002" y2="8.441000000000003" /><line stroke="black" stroke-width="0.3048" x1="16.763559147741727" x2="15.42247441592239" y1="7.4636174004409375" y2="6.866528008405663" /><line stroke="black" stroke-width="0.3048" x1="17.451887074016067" x2="16.055736108094784" y1="5.670461846780289" y2="5.216824899037866" /><line stroke="black" stroke-width="0.3048" x1="17.949008473465334" x2="16.513087795588106" y1="3.8151795265058883" y2="3.509965164385417" /><line stroke="black" stroke-width="0.3048" x1="18.249476780007818" x2="16.78951863760719" y1="1.9180973009614457" y2="1.76464951688453" /><line stroke="black" stroke-width="0.3048" x1="18.35" x2="16.882" y1="4.583833312921115e-15" y2="4.217126647887426e-15" /><line stroke="black" stroke-width="0.3048" x1="18.249476780007818" x2="16.789518637607195" y1="-1.9180973009614368" y2="-1.7646495168845218" /><line stroke="black" stroke-width="0.3048" x1="17.949008473465337" x2="16.51308779558811" y1="-3.815179526505879" y2="-3.5099651643854086" /><line stroke="black" stroke-width="0.3048" x1="17.45188707401607" x2="16.055736108094784" y1="-5.670461846780281" y2="-5.216824899037858" /><line stroke="black" stroke-width="0.3048" x1="16.76355914774173" x2="15.422474415922391" y1="-7.4636174004409295" y2="-6.866528008405655" /><line stroke="black" stroke-width="0.3048" x1="15.891566159444453" x2="14.620240866688897" y1="-9.174999999999997" y2="-8.440999999999997" /><line stroke="black" stroke-width="0.3048" x1="14.845461846780289" x2="13.657824899037866" y1="-10.78585937956688" y2="-9.922990629201529" /><line stroke="black" stroke-width="0.3048" x1="13.636707547510188" x2="12.545770943709373" y1="-12.278546626685046" y2="-11.296262896550243" /><line stroke="black" stroke-width="0.3048" x1="12.278546626685051" x2="11.296262896550248" y1="-13.636707547510184" y2="-12.54577094370937" /><line stroke="black" stroke-width="0.3048" x1="10.785859379566885" x2="9.922990629201534" y1="-14.845461846780285" y2="-13.657824899037863" /><line stroke="black" stroke-width="0.3048" x1="9.175000000000002" x2="8.441000000000003" y1="-15.89156615944445" y2="-14.620240866688894" /><line stroke="black" stroke-width="0.3048" x1="7.4636174004409375" x2="6.866528008405663" y1="-16.763559147741727" y2="-15.42247441592239" /><line stroke="black" stroke-width="0.3048" x1="5.67046184678029" x2="5.216824899037867" y1="-17.451887074016067" y2="-16.055736108094784" /><line stroke="black" stroke-width="0.3048" x1="3.8151795265058905" x2="3.5099651643854193" y1="-17.949008473465334" y2="-16.513087795588106" /><line stroke="black" stroke-width="0.3048" x1="1.9180973009614493" x2="1.7646495168845333" y1="-18.249476780007818" y2="-16.78951863760719" /><line stroke="black" stroke-width="0.3048" x1="9.272650438966347e-15" x2="8.530838403849038e-15" y1="-18.35" y2="-16.882" /><line stroke="black" stroke-width="0.3048" x1="-1.9180973009614306" x2="-1.7646495168845162" y1="-18.249476780007818" y2="-16.789518637607195" /><line stroke="black" stroke-width="0.3048" x1="-3.815179526505872" x2="-3.5099651643854024" y1="-17.949008473465337" y2="-16.51308779558811" /><line stroke="black" stroke-width="0.3048" x1="-5.670461846780273" x2="-5.216824899037851" y1="-17.451887074016074" y2="-16.055736108094788" /><line stroke="black" stroke-width="0.3048" x1="-7.4636174004409215" x2="-6.8665280084056475" y1="-16.763559147741734" y2="-15.422474415922395" /><line stroke="black" stroke-width="0.3048" x1="-9.17499999999999" x2="-8.44099999999999" y1="-15.891566159444455" y2="-14.6202408666889" /><line stroke="black" stroke-width="0.3048" x1="-10.785859379566874" x2="-9.922990629201525" y1="-14.845461846780292" y2="-13.65782489903787" /><line stroke="black" stroke-width="0.3048" x1="-12.278546626685044" x2="-11.29626289655024" y1="-13.63670754751019" y2="-12.545770943709375" /><line stroke="black" stroke-width="0.3048" x1="-13.63670754751018" x2="-12.545770943709368" y1="-12.278546626685051" y2="-11.296262896550248" /><line stroke="black" stroke-width="0.3048" x1="-14.845461846780285" x2="-13.657824899037863" y1="-10.785859379566885" y2="-9.922990629201534" /><line stroke="black" stroke-width="0.3048" x1="-15.891566159444452" x2="-14.620240866688896" y1="-9.174999999999999" y2="-8.440999999999999" /><line stroke="black" stroke-width="0.3048" x1="-16.76355914774173" x2="-15.422474415922391" y1="-7.463617400440931" y2="-6.866528008405657" /><line stroke="black" stroke-width="0.3048" x1="-17.45188707401607" x2="-16.055736108094784" y1="-5.67046184678028" y2="-5.216824899037857" /><line stroke="black" stroke-width="0.3048" x1="-17.949008473465337" x2="-16.51308779558811" y1="-3.8151795265058754" y2="-3.5099651643854055" /><line stroke="black" stroke-width="0.3048" x1="-18.249476780007818" x2="-16.789518637607195" y1="-1.91809730096143" y2="-1.7646495168845155" /><line stroke="black" stroke-width="0.3048" x1="-18.35" x2="-16.882" y1="1.4050847125061906e-14" y2="1.2926779355056953e-14" /><line stroke="black" stroke-width="0.3048" x1="-18.249476780007818" x2="-16.78951863760719" y1="1.918097300961458" y2="1.7646495168845413" /><line stroke="black" stroke-width="0.3048" x1="-17.94900847346533" x2="-16.513087795588106" y1="3.815179526505903" y2="3.509965164385431" /><line stroke="black" stroke-width="0.3048" x1="-17.451887074016064" x2="-16.055736108094777" y1="5.670461846780307" y2="5.216824899037882" /><line stroke="black" stroke-width="0.3048" x1="-16.763559147741717" x2="-15.42247441592238" y1="7.463617400440957" y2="6.86652800840568" /><line stroke="black" stroke-width="0.3048" x1="-15.891566159444437" x2="-14.620240866688883" y1="9.175000000000026" y2="8.441000000000024" /><line stroke="black" stroke-width="0.3048" x1="-14.84546184678027" x2="-13.657824899037847" y1="10.785859379566908" y2="9.922990629201555" /><line stroke="black" stroke-width="0.3048" x1="-13.636707547510163" x2="-12.54577094370935" y1="12.278546626685074" y2="11.296262896550267" /><line stroke="black" stroke-width="0.3048" x1="-12.278546626685023" x2="-11.296262896550221" y1="13.636707547510207" y2="12.54577094370939" /><line stroke="black" stroke-width="0.3048" x1="-10.785859379566858" x2="-9.922990629201509" y1="14.845461846780303" y2="13.657824899037879" /><line stroke="black" stroke-width="0.3048" x1="-9.17499999999998" x2="-8.440999999999981" y1="15.891566159444462" y2="14.620240866688905" /><line stroke="black" stroke-width="0.3048" x1="-7.463617400440917" x2="-6.866528008405644" y1="16.763559147741734" y2="15.422474415922396" /><line stroke="black" stroke-width="0.3048" x1="-5.670461846780273" x2="-5.216824899037851" y1="17.451887074016074" y2="16.055736108094788" /><line stroke="black" stroke-width="0.3048" x1="-3.8151795265058768" x2="-3.5099651643854064" y1="17.949008473465337" y2="16.51308779558811" /><line stroke="black" stroke-width="0.3048" x1="-1.9180973009614393" x2="-1.7646495168845242" y1="18.249476780007818" y2="16.789518637607195" /><polyline fill="white" points="-17.4325,2.1348655326136235e-15 -17.337002941007427,-1.8221924359133697 -17.051558049792067,-3.6244205501805853 -16.579292720315266,-5.386938754441269 -15.92538119035464,-7.090436530418888 -15.09698785147223,-8.716249999999995 -14.103188754441275,-10.246566410588537 -12.954872170134681,-11.664619295350791 -11.6646192953508,-12.954872170134673 -10.24656641058854,-14.10318875444127 -8.716250000000008,-15.096987851472223 -7.090436530418899,-15.925381190354635 -5.386938754441274,-16.579292720315266 -3.6244205501805977,-17.051558049792067 -1.8221924359133825,-17.337002941007427 -3.202298298920435e-15,-17.4325 1.8221924359133608,-17.337002941007427 3.6244205501805764,-17.05155804979207 5.3869387544412675,-16.579292720315266 7.09043653041888,-15.925381190354644 8.716249999999988,-15.096987851472235 10.246566410588535,-14.103188754441275 11.66461929535079,-12.954872170134681 12.954872170134665,-11.664619295350807 14.10318875444127,-10.246566410588542 15.096987851472223,-8.716250000000008 15.925381190354635,-7.0904365304189 16.579292720315266,-5.386938754441275 17.051558049792067,-3.624420550180599 17.337002941007427,-1.8221924359133836 17.4325,-4.269731065227247e-15" stroke="black" stroke-width="0.5" /><polyline fill="white" points="17.4325,0.0 17.337002941007427,1.822192435913369 17.051558049792067,3.6244205501805893 16.579292720315266,5.386938754441271 15.92538119035464,7.090436530418887 15.096987851472228,8.716249999999999 14.103188754441272,10.246566410588539 12.954872170134678,11.664619295350795 11.664619295350796,12.954872170134674 10.246566410588539,14.103188754441272 8.716250000000002,15.096987851472226 7.0904365304188905,15.92538119035464 5.386938754441272,16.579292720315266 3.624420550180592,17.051558049792067 1.8221924359133728,17.337002941007427 1.0674327663068118e-15,17.4325 -1.8221924359133668,17.337002941007427 -3.624420550180586,17.051558049792067 -5.38693875444127,16.579292720315266 -7.090436530418884,15.925381190354642 -8.716249999999997,15.096987851472228 -10.246566410588537,14.103188754441272 -11.664619295350791,12.95487217013468 -12.954872170134673,11.664619295350798 -14.10318875444127,10.24656641058854 -15.096987851472225,8.716250000000006 -15.925381190354639,7.090436530418891 -16.579292720315266,5.386938754441273 -17.051558049792067,3.624420550180597 -17.337002941007427,1.8221924359133739 -17.4325,2.1348655326136235e-15" stroke="black" stroke-width="0.5" /><line stroke="black" stroke-width="0.5" x1="1.0674327663068118e-15" x2="1.0674327663068118e-15" y1="17.4325" y2="17.4325" /><line stroke="black" stroke-width="0.3048" x1="1.0674327663068118e-15" x2="1.0674327663068118e-15" y1="17.4325" y2="17.4325" /><line stroke="black" stroke-width="0.3048" x1="1.0674327663068118e-15" x2="1.0674327663068118e-15" y1="17.4325" y2="17.4325" /><polyline fill="white" points="-5.242857142857143,10.0 -5.214136222859375,9.451972199725303 -5.12828813527581,8.909948706712607 -4.986253449718877,8.379868043777062 -4.789588327926207,7.8675378855883045 -4.540447474126986,7.37857142857143 -4.241560527651511,6.918325891552319 -3.896202156431483,6.49184382094713 -3.508156179052872,6.10379784356852 -3.081674108447681,5.75843947234849 -2.6214285714285737,5.459552525873016 -2.132462114411699,5.2104116720737945 -1.6201319562229393,5.013746550281124 -1.0900512932873978,4.87171186472419 -0.5480278002747014,4.785863777140625 -9.630972327580255e-16,4.757142857142857 0.5480278002746949,4.785863777140624 1.0900512932873914,4.8717118647241895 1.6201319562229377,5.013746550281123 2.132462114411693,5.210411672073792 2.621428571428568,5.459552525873012 3.0816741084476793,5.758439472348489 3.5081561790528686,6.1037978435685165 3.896202156431478,6.4918438209471265 4.24156052765151,6.918325891552318 4.540447474126984,7.378571428571426 4.7895883279262055,7.867537885588301 4.986253449718876,8.37986804377706 5.12828813527581,8.909948706712601 5.214136222859375,9.451972199725297 5.242857142857143,9.999999999999998" stroke="black" stroke-width="0.3048" /><polyline fill="white" points="5.242857142857143,10.0 5.214136222859375,10.548027800274697 5.12828813527581,11.090051293287395 4.986253449718876,11.620131956222938 4.789588327926207,12.132462114411695 4.540447474126986,12.62142857142857 4.24156052765151,13.08167410844768 3.8962021564314817,13.50815617905287 3.5081561790528712,13.896202156431482 3.0816741084476806,14.24156052765151 2.621428571428572,14.540447474126985 2.1324621144116964,14.789588327926207 1.6201319562229388,14.986253449718877 1.090051293287396,15.12828813527581 0.5480278002746986,15.214136222859375 3.2103241091934187e-16,15.242857142857144 -0.5480278002746968,15.214136222859377 -1.0900512932873943,15.12828813527581 -1.6201319562229382,14.986253449718877 -2.1324621144116946,14.789588327926207 -2.62142857142857,14.540447474126985 -3.08167410844768,14.24156052765151 -3.5081561790528695,13.896202156431482 -3.89620215643148,13.508156179052872 -4.24156052765151,13.08167410844768 -4.540447474126984,12.621428571428574 -4.789588327926207,12.132462114411696 -4.986253449718876,11.62013195622294 -5.12828813527581,11.090051293287397 -5.214136222859375,10.5480278002747 -5.242857142857143,10.0" stroke="black" stroke-width="0.3048" /><line stroke="black" stroke-width="0.5" x1="3.2103241091934187e-16" x2="2.568259287354735e-16" y1="15.242857142857144" y2="14.194285714285714" /><line stroke="black" stroke-width="0.5" x1="2.621428571428571" x2="2.0971428571428565" y1="14.540447474126985" y2="13.632357979301588" /><line stroke="black" stroke-width="0.5" x1="4.540447474126985" x2="3.632357979301588" y1="12.621428571428572" y2="12.097142857142858" /><line stroke="black" stroke-width="0.5" x1="5.242857142857143" x2="4.194285714285714" y1="10.000000000000002" y2="10.000000000000002" /><line stroke="black" stroke-width="0.5" x1="4.540447474126986" x2="3.632357979301589" y1="7.37857142857143" y2="7.902857142857144" /><line stroke="black" stroke-width="0.5" x1="2.621428571428573" x2="2.0971428571428583" y1="5.459552525873016" y2="6.367642020698413" /><line stroke="black" stroke-width="0.5" x1="2.6493286968475275e-15" x2="2.1194629574780217e-15" y1="4.757142857142857" y2="5.805714285714286" /><line stroke="black" stroke-width="0.5" x1="-2.6214285714285683" x2="-2.0971428571428543" y1="5.459552525873013" y2="6.36764202069841" /><line stroke="black" stroke-width="0.5" x1="-4.540447474126983" x2="-3.6323579793015863" y1="7.378571428571425" y2="7.90285714285714" /><line stroke="black" stroke-width="0.5" x1="-5.242857142857143" x2="-4.194285714285714" y1="9.999999999999995" y2="9.999999999999996" /><line stroke="black" stroke-width="0.5" x1="-4.540447474126989" x2="-3.6323579793015908" y1="12.621428571428567" y2="12.097142857142853" /><line stroke="black" stroke-width="0.5" x1="-2.6214285714285777" x2="-2.0971428571428623" y1="14.540447474126982" y2="13.632357979301585" /><line stroke="black" stroke-width="0.5" x1="-5.6196898046143966e-15" x2="-4.495751843691517e-15" y1="15.242857142857144" y2="14.194285714285714" /><line stroke="black" stroke-width="0.3048" x1="3.2103241091934187e-16" x2="2.8892916982740773e-16" y1="15.242857142857144" y2="14.71857142857143" /><line stroke="black" stroke-width="0.3048" x1="0.5480278002746974" x2="0.4932250202472277" y1="15.214136222859375" y2="14.69272260057344" /><line stroke="black" stroke-width="0.3048" x1="1.090051293287395" x2="0.9810461639586554" y1="15.12828813527581" y2="14.61545932174823" /><line stroke="black" stroke-width="0.3048" x1="1.620131956222938" x2="1.4581187606006443" y1="14.986253449718877" y2="14.487628104746989" /><line stroke="black" stroke-width="0.3048" x1="2.132462114411694" x2="1.919215902970525" y1="14.789588327926207" y2="14.310629495133586" /><line stroke="black" stroke-width="0.3048" x1="2.62142857142857" x2="2.359285714285713" y1="14.540447474126985" y2="14.086402726714288" /><line stroke="black" stroke-width="0.3048" x1="3.0816741084476793" x2="2.7735066976029117" y1="14.241560527651512" y2="13.81740447488636" /><line stroke="black" stroke-width="0.3048" x1="3.50815617905287" x2="3.157340561147583" y1="13.896202156431482" y2="13.506581940788335" /><line stroke="black" stroke-width="0.3048" x1="3.896202156431481" x2="3.5065819407883327" y1="13.508156179052872" y2="13.157340561147585" /><line stroke="black" stroke-width="0.3048" x1="4.24156052765151" x2="3.817404474886359" y1="13.08167410844768" y2="12.773506697602913" /><line stroke="black" stroke-width="0.3048" x1="4.540447474126985" x2="4.086402726714287" y1="12.621428571428572" y2="12.359285714285715" /><line stroke="black" stroke-width="0.3048" x1="4.789588327926207" x2="4.310629495133587" y1="12.132462114411696" y2="11.919215902970526" /><line stroke="black" stroke-width="0.3048" x1="4.986253449718876" x2="4.487628104746989" y1="11.62013195622294" y2="11.458118760600646" /><line stroke="black" stroke-width="0.3048" x1="5.12828813527581" x2="4.6154593217482285" y1="11.090051293287397" y2="10.981046163958657" /><line stroke="black" stroke-width="0.3048" x1="5.214136222859375" x2="4.692722600573439" y1="10.5480278002747" y2="10.493225020247229" /><line stroke="black" stroke-width="0.3048" x1="5.242857142857143" x2="4.718571428571429" y1="10.000000000000002" y2="10.000000000000002" /><line stroke="black" stroke-width="0.3048" x1="5.214136222859376" x2="4.692722600573439" y1="9.451972199725304" y2="9.506774979752773" /><line stroke="black" stroke-width="0.3048" x1="5.12828813527581" x2="4.615459321748229" y1="8.909948706712607" y2="9.018953836041346" /><line stroke="black" stroke-width="0.3048" x1="4.986253449718877" x2="4.48762810474699" y1="8.379868043777062" y2="8.541881239399356" /><line stroke="black" stroke-width="0.3048" x1="4.789588327926208" x2="4.310629495133587" y1="7.867537885588306" y2="8.080784097029476" /><line stroke="black" stroke-width="0.3048" x1="4.540447474126986" x2="4.086402726714288" y1="7.37857142857143" y2="7.640714285714287" /><line stroke="black" stroke-width="0.3048" x1="4.241560527651511" x2="3.81740447488636" y1="6.918325891552321" y2="7.226493302397088" /><line stroke="black" stroke-width="0.3048" x1="3.8962021564314817" x2="3.506581940788334" y1="6.49184382094713" y2="6.842659438852417" /><line stroke="black" stroke-width="0.3048" x1="3.5081561790528717" x2="3.157340561147585" y1="6.103797843568519" y2="6.493418059211667" /><line stroke="black" stroke-width="0.3048" x1="3.081674108447681" x2="2.773506697602913" y1="5.75843947234849" y2="6.182595525113641" /><line stroke="black" stroke-width="0.3048" x1="2.621428571428572" x2="2.359285714285715" y1="5.459552525873015" y2="5.913597273285713" /><line stroke="black" stroke-width="0.3048" x1="2.1324621144116964" x2="1.9192159029705267" y1="5.210411672073793" y2="5.689370504866413" /><line stroke="black" stroke-width="0.3048" x1="1.62013195622294" x2="1.458118760600646" y1="5.013746550281124" y2="5.512371895253011" /><line stroke="black" stroke-width="0.3048" x1="1.0900512932873971" x2="0.9810461639586575" y1="4.87171186472419" y2="5.3845406782517715" /><line stroke="black" stroke-width="0.3048" x1="0.5480278002746998" x2="0.4932250202472298" y1="4.785863777140625" y2="5.307277399426561" /><line stroke="black" stroke-width="0.3048" x1="2.6493286968475275e-15" x2="2.3843958271627748e-15" y1="4.757142857142857" y2="5.281428571428571" /><line stroke="black" stroke-width="0.3048" x1="-0.5480278002746944" x2="-0.49322502024722503" y1="4.785863777140624" y2="5.307277399426561" /><line stroke="black" stroke-width="0.3048" x1="-1.090051293287392" x2="-0.9810461639586527" y1="4.8717118647241895" y2="5.384540678251771" /><line stroke="black" stroke-width="0.3048" x1="-1.620131956222935" x2="-1.4581187606006416" y1="5.013746550281122" y2="5.51237189525301" /><line stroke="black" stroke-width="0.3048" x1="-2.1324621144116915" x2="-1.9192159029705225" y1="5.210411672073791" y2="5.689370504866411" /><line stroke="black" stroke-width="0.3048" x1="-2.6214285714285683" x2="-2.3592857142857118" y1="5.459552525873013" y2="5.913597273285712" /><line stroke="black" stroke-width="0.3048" x1="-3.0816741084476784" x2="-2.773506697602911" y1="5.758439472348488" y2="6.182595525113639" /><line stroke="black" stroke-width="0.3048" x1="-3.5081561790528695" x2="-3.1573405611475827" y1="6.103797843568517" y2="6.493418059211665" /><line stroke="black" stroke-width="0.3048" x1="-3.89620215643148" x2="-3.5065819407883323" y1="6.491843820947128" y2="6.842659438852415" /><line stroke="black" stroke-width="0.3048" x1="-4.24156052765151" x2="-3.817404474886359" y1="6.918325891552319" y2="7.2264933023970865" /><line stroke="black" stroke-width="0.3048" x1="-4.540447474126986" x2="-4.0864027267142875" y1="7.378571428571429" y2="7.640714285714286" /><line stroke="black" stroke-width="0.3048" x1="-4.789588327926208" x2="-4.310629495133587" y1="7.867537885588305" y2="8.080784097029476" /><line stroke="black" stroke-width="0.3048" x1="-4.986253449718877" x2="-4.48762810474699" y1="8.379868043777062" y2="8.541881239399357" /><line stroke="black" stroke-width="0.3048" x1="-5.12828813527581" x2="-4.615459321748229" y1="8.909948706712607" y2="9.018953836041346" /><line stroke="black" stroke-width="0.3048" x1="-5.214136222859376" x2="-4.692722600573439" y1="9.451972199725306" y2="9.506774979752775" /><line stroke="black" stroke-width="0.3048" x1="-5.242857142857143" x2="-4.718571428571429" y1="10.000000000000004" y2="10.000000000000004" /><line stroke="black" stroke-width="0.3048" x1="-5.214136222859375" x2="-4.692722600573439" y1="10.548027800274703" y2="10.493225020247232" /><line stroke="black" stroke-width="0.3048" x1="-5.128288135275809" x2="-4.6154593217482285" y1="11.0900512932874" y2="10.981046163958661" /><line stroke="black" stroke-width="0.3048" x1="-4.986253449718875" x2="-4.487628104746987" y1="11.620131956222945" y2="11.45811876060065" /><line stroke="black" stroke-width="0.3048" x1="-4.789588327926205" x2="-4.310629495133584" y1="12.132462114411702" y2="11.919215902970532" /><line stroke="black" stroke-width="0.3048" x1="-4.540447474126982" x2="-4.086402726714284" y1="12.621428571428579" y2="12.35928571428572" /><line stroke="black" stroke-width="0.3048" x1="-4.241560527651505" x2="-3.817404474886355" y1="13.081674108447688" y2="12.773506697602919" /><line stroke="black" stroke-width="0.3048" x1="-3.896202156431475" x2="-3.5065819407883274" y1="13.508156179052879" y2="13.15734056114759" /><line stroke="black" stroke-width="0.3048" x1="-3.5081561790528637" x2="-3.1573405611475773" y1="13.896202156431487" y2="13.506581940788339" /><line stroke="black" stroke-width="0.3048" x1="-3.0816741084476735" x2="-2.7735066976029064" y1="14.241560527651515" y2="13.817404474886363" /><line stroke="black" stroke-width="0.3048" x1="-2.6214285714285652" x2="-2.359285714285709" y1="14.540447474126989" y2="14.08640272671429" /><line stroke="black" stroke-width="0.3048" x1="-2.1324621144116906" x2="-1.9192159029705216" y1="14.78958832792621" y2="14.31062949513359" /><line stroke="black" stroke-width="0.3048" x1="-1.620131956222935" x2="-1.4581187606006416" y1="14.986253449718877" y2="14.487628104746989" /><line stroke="black" stroke-width="0.3048" x1="-1.0900512932873931" x2="-0.981046163958654" y1="15.12828813527581" y2="14.61545932174823" /><line stroke="black" stroke-width="0.3048" x1="-0.5480278002746969" x2="-0.49322502024722725" y1="15.214136222859377" y2="14.69272260057344" /></g><text fill="rgb(15%,15%,15%)" stroke="none" style="font-size:4px; font-family:GFS Artemisia; font-weight:bold" text-anchor="middle" x="8.988907505741574e-16" y="-13.180000000000001">12</text><text fill="rgb(15%,15%,15%)" stroke="none" style="font-size:4px; font-family:GFS Artemisia; font-weight:bold" text-anchor="middle" x="7.339999999999999" y="-11.213252927555562">1</text><text fill="rgb(15%,15%,15%)" stroke="none" style="font-size:4px; font-family:GFS Artemisia; font-weight:bold" text-anchor="middle" x="12.71325292755556" y="-5.8400000000000025">2</text><text fill="rgb(15%,15%,15%)" stroke="none" style="font-size:4px; font-family:GFS Artemisia; font-weight:bold" text-anchor="middle" x="14.680000000000001" y="1.4999999999999967">3</text><text fill="rgb(15%,15%,15%)" stroke="none" style="font-size:4px; font-family:GFS Artemisia; font-weight:bold" text-anchor="middle" x="12.713252927555564" y="8.839999999999996">4</text><text fill="rgb(15%,15%,15%)" stroke="none" style="font-size:4px; font-family:GFS Artemisia; font-weight:bold" text-anchor="middle" x="7.340000000000006" y="14.213252927555558">5</text><text fill="rgb(15%,15%,15%)" stroke="none" style="font-size:4px; font-family:GFS Artemisia; font-weight:bold" text-anchor="middle" x="7.418120351173078e-15" y="16.18" /><text fill="rgb(15%,15%,15%)" stroke="none" style="font-size:4px; font-family:GFS Artemisia; font-weight:bold" text-anchor="middle" x="-7.339999999999992" y="14.213252927555565">7</text><text fill="rgb(15%,15%,15%)" stroke="none" style="font-size:4px; font-family:GFS Artemisia; font-weight:bold" text-anchor="middle" x="-12.713252927555555" y="8.840000000000012">8</text><text fill="rgb(15%,15%,15%)" stroke="none" style="font-size:4px; font-family:GFS Artemisia; font-weight:bold" text-anchor="middle" x="-14.680000000000001" y="1.5000000000000149">9</text><text fill="rgb(15%,15%,15%)" stroke="none" style="font-size:4px; font-family:GFS Artemisia; font-weight:bold" text-anchor="middle" x="-12.713252927555569" y="-5.839999999999986">10</text><text fill="rgb(15%,15%,15%)" stroke="none" style="font-size:4px; font-family:GFS Artemisia; font-weight:bold" text-anchor="middle" x="-7.3400000000000185" y="-11.21325292755555">11</text><text fill="rgb(15%,15%,15%)" stroke="none" style="font-size:3px; font-family:EB Garamond; font-weight:bold" text-anchor="middle" x="8.806320322031197e-16" y="-13.8818125" /><text fill="rgb(15%,15%,15%)" stroke="none" style="font-size:1.0px; font-family:GFS Artemisia; font-weight:bold" text-anchor="middle" x="2.0867106709757223e-16" y="6.892142857142857">60</text><text fill="rgb(15%,15%,15%)" stroke="none" style="font-size:1.0px; font-family:GFS Artemisia; font-weight:bold" text-anchor="middle" x="1.703928571428571" y="7.3487091418174595" /><text fill="rgb(15%,15%,15%)" stroke="none" style="font-size:1.0px; font-family:GFS Artemisia; font-weight:bold" text-anchor="middle" x="2.9512908581825403" y="8.59607142857143">10</text><text fill="rgb(15%,15%,15%)" stroke="none" style="font-size:1.0px; font-family:GFS Artemisia; font-weight:bold" text-anchor="middle" x="3.407857142857143" y="10.3" /><text fill="rgb(15%,15%,15%)" stroke="none" style="font-size:1.0px; font-family:GFS Artemisia; font-weight:bold" text-anchor="middle" x="2.951290858182541" y="12.003928571428572">20</text><text fill="rgb(15%,15%,15%)" stroke="none" style="font-size:1.0px; font-family:GFS Artemisia; font-weight:bold" text-anchor="middle" x="1.7039285714285726" y="13.251290858182541" /><text fill="rgb(15%,15%,15%)" stroke="none" style="font-size:1.0px; font-family:GFS Artemisia; font-weight:bold" text-anchor="middle" x="1.7220636529508927e-15" y="13.707857142857144">30</text><text fill="rgb(15%,15%,15%)" stroke="none" style="font-size:1.0px; font-family:GFS Artemisia; font-weight:bold" text-anchor="middle" x="-1.7039285714285695" y="13.251290858182543" /><text fill="rgb(15%,15%,15%)" stroke="none" style="font-size:1.0px; font-family:GFS Artemisia; font-weight:bold" text-anchor="middle" x="-2.9512908581825394" y="12.003928571428574">40</text><text fill="rgb(15%,15%,15%)" stroke="none" style="font-size:1.0px; font-family:GFS Artemisia; font-weight:bold" text-anchor="middle" x="-3.407857142857143" y="10.300000000000004" /><text fill="rgb(15%,15%,15%)" stroke="none" style="font-size:1.0px; font-family:GFS Artemisia; font-weight:bold" text-anchor="middle" x="-2.9512908581825426" y="8.596071428571433">50</text></svg>