<?xml version="1.0" encoding="utf-8" ?>
<svg baseProfile="full" height="30mm" version="1.1" viewBox="-20 -20 40 40" width="30mm" xmlns="http://www.w3.org/2000/svg" xmlns:ev="http://www.w3.org/2001/xml-events" xmlns:xlink="http://www.w3.org/1999/xlink"><defs /><g id="outer_ticks" stroke="black" stroke-width="0.1524"><line stroke="black" stroke-width="0.1524" x1="18.5" x2="17.76" y1="0.0" y2="0.0" /><line stroke="black" stroke-width="0.25" x1="18.5" x2="16.4444444444" y1="0.0" y2="0.0" /><line stroke="black" stroke-width="0.25" x1="14.3375" x2="10.2263888889" y1="0.0" y2="0.0" /><line stroke="black" stroke-width="0.25" x1="8.325" x2="0.925" y1="0.0" y2="0.0" /><line stroke="black" stroke-width="0.1524" x1="18.4971823604" x2="18.1272387132" y1="-0.32286951909" y2="-0.316412128708" /><line stroke="black" stroke-width="0.1524" x1="18.4887302999" x2="18.1189556939" y1="-0.645640688996" y2="-0.632727875216" /><line stroke="black" stroke-width="0.1524" x1="18.474646393" x2="18.1051534651" y1="-0.968215190494" y2="-0.948850886685" /><line stroke="black" stroke-width="0.1524" x1="18.4549349298" x2="18.0858362312" y1="-1.29049476427" y2="-1.26468486898" /><line stroke="black" stroke-width="0.1524" x1="18.4296019147" x2="17.9381458636" y1="-1.61238124083" y2="-1.56938440774" /><line stroke="black" stroke-width="0.1524" x1="15.0508415637" x2="15.6651616275" y1="-1.31677801335" y2="-1.37052405471" /><line stroke="black" stroke-width="0.1524" x1="8.90764092544" x2="9.52196098926" y1="-0.779317599735" y2="-0.833063641096" /><line stroke="black" stroke-width="0.1524" x1="18.3986550643" x2="18.030681963" y1="-1.93377657045" y2="-1.89510103904" /><line stroke="black" stroke-width="0.1524" x1="18.3621038054" x2="17.9948617293" y1="-2.254582853" y2="-2.20949119594" /><line stroke="black" stroke-width="0.1524" x1="18.3199592717" x2="17.9535600863" y1="-2.57470236776" y2="-2.52320832041" /><line stroke="black" stroke-width="0.1524" x1="18.272234301" x2="17.906789615" y1="-2.89403760324" y2="-2.83615685118" /><line stroke="black" stroke-width="0.1524" x1="18.2189434307" x2="17.4901856935" y1="-3.21249128684" y2="-3.08399163536" /><line stroke="black" stroke-width="0.1524" x1="14.8788038018" x2="15.4861019161" y1="-2.62353455092" y2="-2.73061759381" /><line stroke="black" stroke-width="0.1524" x1="8.80582265818" x2="9.41312077254" y1="-1.55270412197" y2="-1.65978716487" /><line stroke="black" stroke-width="0.1524" x1="3.03649057179" x2="3.64378868615" y1="-0.535415214473" y2="-0.642498257368" /><line stroke="black" stroke-width="0.1524" x1="18.1601028938" x2="17.7969008359" y1="-3.52996641447" y2="-3.45936708618" /><line stroke="black" stroke-width="0.1524" x1="18.0957306136" x2="17.7338160013" y1="-3.84636628013" y2="-3.76943895453" /><line stroke="black" stroke-width="0.1524" x1="18.0258461985" x2="17.6653292746" y1="-4.16159450536" y2="-4.07836261525" /><line stroke="black" stroke-width="0.1524" x1="17.9504709361" x2="17.5914615174" y1="-4.47555506859" y2="-4.38604396722" /><line stroke="black" stroke-width="0.1524" x1="17.8696277863" x2="17.3931043787" y1="-4.7881523344" y2="-4.66046827215" /><line stroke="black" stroke-width="0.1524" x1="14.5935293589" x2="15.1891836184" y1="-3.91032440642" y2="-4.06992948424" /><line stroke="black" stroke-width="0.1524" x1="8.6369867634" x2="9.23264102295" y1="-2.31427362829" y2="-2.4738787061" /><line stroke="black" stroke-width="0.1524" x1="4.05083093587" x2="3.89122585806" y1="-0.766206722316" y2="-1.36186098186" /><line stroke="black" stroke-width="0.1524" x1="5.04358803511" x2="4.8839829573" y1="-1.03221518534" y2="-1.62786944488" /><line stroke="black" stroke-width="0.1524" x1="7.0291022336" x2="6.86949715578" y1="-1.56423211138" y2="-2.15988637093" /><line stroke="black" stroke-width="0.1524" x1="8.02185933284" x2="7.86225425503" y1="-1.8302405744" y2="-2.42589483395" /><line stroke="black" stroke-width="0.1524" x1="9.01461643208" x2="8.85501135427" y1="-2.09624903743" y2="-2.69190329697" /><line stroke="black" stroke-width="0.1524" x1="10.0073735313" x2="9.84776845351" y1="-2.36225750045" y2="-2.95791175999" /><line stroke="black" stroke-width="0.1524" x1="11.0001306306" x2="10.8405255528" y1="-2.62826596347" y2="-3.22392022301" /><line stroke="black" stroke-width="0.1524" x1="12.985644829" x2="12.8260397512" y1="-3.16028288951" y2="-3.75593714906" /><line stroke="black" stroke-width="0.1524" x1="13.9784019283" x2="13.8187968505" y1="-3.42629135254" y2="-4.02194561208" /><line stroke="black" stroke-width="0.1524" x1="14.9711590275" x2="14.8115539497" y1="-3.69229981556" y2="-4.2879540751" /><line stroke="black" stroke-width="0.1524" x1="15.9639161268" x2="15.804311049" y1="-3.95830827858" y2="-4.55396253813" /><line stroke="black" stroke-width="0.1524" x1="16.956673226" x2="16.7970681482" y1="-4.2243167416" y2="-4.81997100115" /><line stroke="black" stroke-width="0.1524" x1="17.7833413749" x2="17.4276745474" y1="-5.09929108261" y2="-4.99730526096" /><line stroke="black" stroke-width="0.1524" x1="17.6916379853" x2="17.3378052256" y1="-5.40887653737" y2="-5.30069900662" /><line stroke="black" stroke-width="0.1524" x1="17.5945455515" x2="17.2426546404" y1="-5.71681439594" y2="-5.60247810802" /><line stroke="black" stroke-width="0.1524" x1="17.4920936486" x2="17.1422517756" y1="-6.02301085746" y2="-5.90255064031" /><line stroke="black" stroke-width="0.1524" x1="17.3843134845" x2="16.6889409452" y1="-6.32737265152" y2="-6.07427774546" /><line stroke="black" stroke-width="0.1524" x1="14.1971893457" x2="14.7766664619" y1="-5.16735433208" y2="-5.3782667538" /><line stroke="black" stroke-width="0.1524" x1="8.40241818419" x2="8.98189530035" y1="-3.0582301149" y2="-3.26914253662" /><line stroke="black" stroke-width="0.1524" x1="2.89738558076" x2="3.47686269691" y1="-1.05456210859" y2="-1.2654745303" /><line stroke="black" stroke-width="0.1524" x1="17.2712378902" x2="16.9258131324" y1="-6.62980706659" y2="-6.49721092526" /><line stroke="black" stroke-width="0.1524" x1="17.1529013095" x2="16.8098432833" y1="-6.93022197819" y2="-6.79161753863" /><line stroke="black" stroke-width="0.1524" x1="17.0293397889" x2="16.6887529931" y1="-7.22852587705" y2="-7.08395535951" /><line stroke="black" stroke-width="0.1524" x1="16.9005909664" x2="16.5625791471" y1="-7.5246278969" y2="-7.37413533896" /><line stroke="black" stroke-width="0.1524" x1="16.7666940602" x2="16.3195822186" y1="-7.8184378422" y2="-7.60994616641" /><line stroke="black" stroke-width="0.1524" x1="13.6928001491" x2="14.2516899512" y1="-6.38505757113" y2="-6.64567216587" /><line stroke="black" stroke-width="0.1524" x1="8.10390212909" x2="8.66279193109" y1="-3.77891162373" y2="-4.03952621847" /><line stroke="black" stroke-width="0.1524" x1="16.6276898565" x2="16.2951360594" y1="-8.1098662156" y2="-7.94766889129" /><line stroke="black" stroke-width="0.1524" x1="16.4836206975" x2="16.1539482835" y1="-8.39882424518" y2="-8.23084776028" /><line stroke="black" stroke-width="0.1524" x1="16.3345304679" x2="16.0078398585" y1="-8.68522391154" y2="-8.51151943331" /><line stroke="black" stroke-width="0.1524" x1="16.1804645821" x2="15.8568552904" y1="-8.96897797456" y2="-8.78959841507" /><line stroke="black" stroke-width="0.1524" x1="16.02146997" x2="15.3806111712" y1="-9.25" y2="-8.88" /><line stroke="black" stroke-width="0.25" x1="16.02146997" x2="14.24130664" y1="-9.25" y2="-8.22222222222" /><line stroke="black" stroke-width="0.25" x1="12.4166392268" x2="8.85631256676" y1="-7.16875" y2="-5.11319444444" /><line stroke="black" stroke-width="0.25" x1="7.20966148651" x2="0.801073498501" y1="-4.1625" y2="-0.4625" /><line stroke="black" stroke-width="0.1524" x1="15.857595063" x2="15.5404431617" y1="-9.52820438584" y2="-9.33764029812" /><line stroke="black" stroke-width="0.1524" x1="15.6888897789" x2="15.3751119833" y1="-9.80350638831" y2="-9.60743626055" /><line stroke="black" stroke-width="0.1524" x1="15.515405507" x2="15.2050973969" y1="-10.0758221478" y2="-9.87430570482" /><line stroke="black" stroke-width="0.1524" x1="15.3371950923" x2="15.0304511904" y1="-10.3450687142" y2="-10.1381673399" /><line stroke="black" stroke-width="0.1524" x1="15.1543128193" x2="14.7501978108" y1="-10.6111640725" y2="-10.3281996972" /><line stroke="black" stroke-width="0.1524" x1="12.3760221358" x2="12.8811658964" y1="-8.66578399254" y2="-9.01948946162" /><line stroke="black" stroke-width="0.1524" x1="7.32458452935" x2="7.82972829" y1="-5.12872930171" y2="-5.48243477079" /><line stroke="black" stroke-width="0.1524" x1="14.9668143959" x2="14.667478108" y1="-10.8740271674" y2="-10.6565466241" /><line stroke="black" stroke-width="0.1524" x1="14.7747569359" x2="14.4792617972" y1="-11.1335779283" y2="-10.9109063697" /><line stroke="black" stroke-width="0.1524" x1="14.5781989417" x2="14.2866349629" y1="-11.3897372935" y2="-11.1619425477" /><line stroke="black" stroke-width="0.1524" x1="14.377200287" x2="14.0896562812" y1="-11.6424272344" y2="-11.4095786897" /><line stroke="black" stroke-width="0.1524" x1="14.1718221977" x2="13.6049493098" y1="-11.8915707792" y2="-11.415907948" /><line stroke="black" stroke-width="0.1524" x1="11.5736547948" x2="12.046048868" y1="-9.71144946968" y2="-10.1078351623" /><line stroke="black" stroke-width="0.1524" x1="6.84971406222" x2="7.32210813548" y1="-5.74759254328" y2="-6.14397823592" /><line stroke="black" stroke-width="0.1524" x1="2.36197036628" x2="2.83436443954" y1="-1.9819284632" y2="-2.37831415584" /><line stroke="black" stroke-width="0.1524" x1="13.9621272341" x2="13.6828846894" y1="-12.1370920363" y2="-11.8943501956" /><line stroke="black" stroke-width="0.1524" x1="13.7481792713" x2="13.4732156859" y1="-12.3789162176" y2="-12.1313378933" /><line stroke="black" stroke-width="0.1524" x1="13.53004348" x2="13.2594426104" y1="-12.6169696612" y2="-12.3646302679" /><line stroke="black" stroke-width="0.1524" x1="13.3077863063" x2="13.0416305801" y1="-12.8511798535" y2="-12.5941562564" /><line stroke="black" stroke-width="0.1524" x1="13.081475452" x2="12.7326361066" y1="-13.081475452" y2="-12.7326361066" /><line stroke="black" stroke-width="0.1524" x1="10.6832049524" x2="11.1192541342" y1="-10.6832049524" y2="-11.1192541342" /><line stroke="black" stroke-width="0.1524" x1="6.32271313511" x2="6.75876231684" y1="-6.32271313511" y2="-6.75876231684" /><line stroke="black" stroke-width="0.1524" x1="3.12501913574" x2="2.68896995401" y1="-2.68896995401" y2="-3.12501913574" /><line stroke="black" stroke-width="0.1524" x1="3.85176777196" x2="3.41571859023" y1="-3.41571859023" y2="-3.85176777196" /><line stroke="black" stroke-width="0.1524" x1="5.3052650444" x2="4.86921586267" y1="-4.86921586267" y2="-5.3052650444" /><line stroke="black" stroke-width="0.1524" x1="6.03201368062" x2="5.59596449889" y1="-5.59596449889" y2="-6.03201368062" /><line stroke="black" stroke-width="0.1524" x1="6.75876231684" x2="6.32271313511" y1="-6.32271313511" y2="-6.75876231684" /><line stroke="black" stroke-width="0.1524" x1="7.48551095306" x2="7.04946177133" y1="-7.04946177133" y2="-7.48551095306" /><line stroke="black" stroke-width="0.1524" x1="8.21225958928" x2="7.77621040755" y1="-7.77621040755" y2="-8.21225958928" /><line stroke="black" stroke-width="0.1524" x1="9.66575686172" x2="9.22970767999" y1="-9.22970767999" y2="-9.66575686172" /><line stroke="black" stroke-width="0.1524" x1="10.3925054979" x2="9.95645631621" y1="-9.95645631621" y2="-10.3925054979" /><line stroke="black" stroke-width="0.1524" x1="11.1192541342" x2="10.6832049524" y1="-10.6832049524" y2="-11.1192541342" /><line stroke="black" stroke-width="0.1524" x1="11.8460027704" x2="11.4099535886" y1="-11.4099535886" y2="-11.8460027704" /><line stroke="black" stroke-width="0.1524" x1="12.5727514066" x2="12.1367022249" y1="-12.1367022249" y2="-12.5727514066" /><line stroke="black" stroke-width="0.1524" x1="12.8511798535" x2="12.5941562564" y1="-13.3077863063" y2="-13.0416305801" /><line stroke="black" stroke-width="0.1524" x1="12.6169696612" x2="12.3646302679" y1="-13.53004348" y2="-13.2594426104" /><line stroke="black" stroke-width="0.1524" x1="12.3789162176" x2="12.1313378933" y1="-13.7481792713" y2="-13.4732156859" /><line stroke="black" stroke-width="0.1524" x1="12.1370920363" x2="11.8943501956" y1="-13.9621272341" y2="-13.6828846894" /><line stroke="black" stroke-width="0.1524" x1="11.8915707792" x2="11.415907948" y1="-14.1718221977" y2="-13.6049493098" /><line stroke="black" stroke-width="0.1524" x1="9.71144946968" x2="10.1078351623" y1="-11.5736547948" y2="-12.046048868" /><line stroke="black" stroke-width="0.1524" x1="5.74759254328" x2="6.14397823592" y1="-6.84971406222" y2="-7.32210813548" /><line stroke="black" stroke-width="0.1524" x1="1.9819284632" x2="2.37831415584" y1="-2.36197036628" y2="-2.83436443954" /><line stroke="black" stroke-width="0.1524" x1="11.6424272344" x2="11.4095786897" y1="-14.377200287" y2="-14.0896562812" /><line stroke="black" stroke-width="0.1524" x1="11.3897372935" x2="11.1619425477" y1="-14.5781989417" y2="-14.2866349629" /><line stroke="black" stroke-width="0.1524" x1="11.1335779283" x2="10.9109063697" y1="-14.7747569359" y2="-14.4792617972" /><line stroke="black" stroke-width="0.1524" x1="10.8740271674" x2="10.6565466241" y1="-14.9668143959" y2="-14.667478108" /><line stroke="black" stroke-width="0.1524" x1="10.6111640725" x2="10.3281996972" y1="-15.1543128193" y2="-14.7501978108" /><line stroke="black" stroke-width="0.1524" x1="8.66578399254" x2="9.01948946162" y1="-12.3760221358" y2="-12.8811658964" /><line stroke="black" stroke-width="0.1524" x1="5.12872930171" x2="5.48243477079" y1="-7.32458452935" y2="-7.82972829" /><line stroke="black" stroke-width="0.1524" x1="10.3450687142" x2="10.1381673399" y1="-15.3371950923" y2="-15.0304511904" /><line stroke="black" stroke-width="0.1524" x1="10.0758221478" x2="9.87430570482" y1="-15.515405507" y2="-15.2050973969" /><line stroke="black" stroke-width="0.1524" x1="9.80350638831" x2="9.60743626055" y1="-15.6888897789" y2="-15.3751119833" /><line stroke="black" stroke-width="0.1524" x1="9.52820438584" x2="9.33764029812" y1="-15.857595063" y2="-15.5404431617" /><line stroke="black" stroke-width="0.1524" x1="9.25" x2="8.88" y1="-16.02146997" y2="-15.3806111712" /><line stroke="black" stroke-width="0.25" x1="9.25" x2="8.22222222222" y1="-16.02146997" y2="-14.24130664" /><line stroke="black" stroke-width="0.25" x1="7.16875" x2="5.11319444444" y1="-12.4166392268" y2="-8.85631256676" /><line stroke="black" stroke-width="0.25" x1="4.1625" x2="0.4625" y1="-7.20966148651" y2="-0.801073498501" /><line stroke="black" stroke-width="0.1524" x1="8.96897797456" x2="8.78959841507" y1="-16.1804645821" y2="-15.8568552904" /><line stroke="black" stroke-width="0.1524" x1="8.68522391154" x2="8.51151943331" y1="-16.3345304679" y2="-16.0078398585" /><line stroke="black" stroke-width="0.1524" x1="8.39882424518" x2="8.23084776028" y1="-16.4836206975" y2="-16.1539482835" /><line stroke="black" stroke-width="0.1524" x1="8.1098662156" x2="7.94766889129" y1="-16.6276898565" y2="-16.2951360594" /><line stroke="black" stroke-width="0.1524" x1="7.8184378422" x2="7.60994616641" y1="-16.7666940602" y2="-16.3195822186" /><line stroke="black" stroke-width="0.1524" x1="6.38505757113" x2="6.64567216587" y1="-13.6928001491" y2="-14.2516899512" /><line stroke="black" stroke-width="0.1524" x1="3.77891162373" x2="4.03952621847" y1="-8.10390212909" y2="-8.66279193109" /><line stroke="black" stroke-width="0.1524" x1="7.5246278969" x2="7.37413533896" y1="-16.9005909664" y2="-16.5625791471" /><line stroke="black" stroke-width="0.1524" x1="7.22852587705" x2="7.08395535951" y1="-17.0293397889" y2="-16.6887529931" /><line stroke="black" stroke-width="0.1524" x1="6.93022197819" x2="6.79161753863" y1="-17.1529013095" y2="-16.8098432833" /><line stroke="black" stroke-width="0.1524" x1="6.62980706659" x2="6.49721092526" y1="-17.2712378902" y2="-16.9258131324" /><line stroke="black" stroke-width="0.1524" x1="6.32737265152" x2="6.07427774546" y1="-17.3843134845" y2="-16.6889409452" /><line stroke="black" stroke-width="0.1524" x1="5.16735433208" x2="5.3782667538" y1="-14.1971893457" y2="-14.7766664619" /><line stroke="black" stroke-width="0.1524" x1="3.0582301149" x2="3.26914253662" y1="-8.40241818419" y2="-8.98189530035" /><line stroke="black" stroke-width="0.1524" x1="1.05456210859" x2="1.2654745303" y1="-2.89738558076" y2="-3.47686269691" /><line stroke="black" stroke-width="0.1524" x1="6.02301085746" x2="5.90255064031" y1="-17.4920936486" y2="-17.1422517756" /><line stroke="black" stroke-width="0.1524" x1="5.71681439594" x2="5.60247810802" y1="-17.5945455515" y2="-17.2426546404" /><line stroke="black" stroke-width="0.1524" x1="5.40887653737" x2="5.30069900662" y1="-17.6916379853" y2="-17.3378052256" /><line stroke="black" stroke-width="0.1524" x1="5.09929108261" x2="4.99730526096" y1="-17.7833413749" y2="-17.4276745474" /><line stroke="black" stroke-width="0.1524" x1="4.7881523344" x2="4.66046827215" y1="-17.8696277863" y2="-17.3931043787" /><line stroke="black" stroke-width="0.1524" x1="3.91032440642" x2="4.06992948424" y1="-14.5935293589" y2="-15.1891836184" /><line stroke="black" stroke-width="0.1524" x1="2.31427362829" x2="2.4738787061" y1="-8.6369867634" y2="-9.23264102295" /><line stroke="black" stroke-width="0.1524" x1="1.36186098186" x2="0.766206722316" y1="-3.89122585806" y2="-4.05083093587" /><line stroke="black" stroke-width="0.1524" x1="1.62786944488" x2="1.03221518534" y1="-4.8839829573" y2="-5.04358803511" /><line stroke="black" stroke-width="0.1524" x1="2.15988637093" x2="1.56423211138" y1="-6.86949715578" y2="-7.0291022336" /><line stroke="black" stroke-width="0.1524" x1="2.42589483395" x2="1.8302405744" y1="-7.86225425503" y2="-8.02185933284" /><line stroke="black" stroke-width="0.1524" x1="2.69190329697" x2="2.09624903743" y1="-8.85501135427" y2="-9.01461643208" /><line stroke="black" stroke-width="0.1524" x1="2.95791175999" x2="2.36225750045" y1="-9.84776845351" y2="-10.0073735313" /><line stroke="black" stroke-width="0.1524" x1="3.22392022301" x2="2.62826596347" y1="-10.8405255528" y2="-11.0001306306" /><line stroke="black" stroke-width="0.1524" x1="3.75593714906" x2="3.16028288951" y1="-12.8260397512" y2="-12.985644829" /><line stroke="black" stroke-width="0.1524" x1="4.02194561208" x2="3.42629135254" y1="-13.8187968505" y2="-13.9784019283" /><line stroke="black" stroke-width="0.1524" x1="4.2879540751" x2="3.69229981556" y1="-14.8115539497" y2="-14.9711590275" /><line stroke="black" stroke-width="0.1524" x1="4.55396253813" x2="3.95830827858" y1="-15.804311049" y2="-15.9639161268" /><line stroke="black" stroke-width="0.1524" x1="4.81997100115" x2="4.2243167416" y1="-16.7970681482" y2="-16.956673226" /><line stroke="black" stroke-width="0.1524" x1="4.47555506859" x2="4.38604396722" y1="-17.9504709361" y2="-17.5914615174" /><line stroke="black" stroke-width="0.1524" x1="4.16159450536" x2="4.07836261525" y1="-18.0258461985" y2="-17.6653292746" /><line stroke="black" stroke-width="0.1524" x1="3.84636628013" x2="3.76943895453" y1="-18.0957306136" y2="-17.7338160013" /><line stroke="black" stroke-width="0.1524" x1="3.52996641447" x2="3.45936708618" y1="-18.1601028938" y2="-17.7969008359" /><line stroke="black" stroke-width="0.1524" x1="3.21249128684" x2="3.08399163536" y1="-18.2189434307" y2="-17.4901856935" /><line stroke="black" stroke-width="0.1524" x1="2.62353455092" x2="2.73061759381" y1="-14.8788038018" y2="-15.4861019161" /><line stroke="black" stroke-width="0.1524" x1="1.55270412197" x2="1.65978716487" y1="-8.80582265818" y2="-9.41312077254" /><line stroke="black" stroke-width="0.1524" x1="0.535415214473" x2="0.642498257368" y1="-3.03649057179" y2="-3.64378868615" /><line stroke="black" stroke-width="0.1524" x1="2.89403760324" x2="2.83615685118" y1="-18.272234301" y2="-17.906789615" /><line stroke="black" stroke-width="0.1524" x1="2.57470236776" x2="2.52320832041" y1="-18.3199592717" y2="-17.9535600863" /><line stroke="black" stroke-width="0.1524" x1="2.254582853" x2="2.20949119594" y1="-18.3621038054" y2="-17.9948617293" /><line stroke="black" stroke-width="0.1524" x1="1.93377657045" x2="1.89510103904" y1="-18.3986550643" y2="-18.030681963" /><line stroke="black" stroke-width="0.1524" x1="1.61238124083" x2="1.56938440774" y1="-18.4296019147" y2="-17.9381458636" /><line stroke="black" stroke-width="0.1524" x1="1.31677801335" x2="1.37052405471" y1="-15.0508415637" y2="-15.6651616275" /><line stroke="black" stroke-width="0.1524" x1="0.779317599735" x2="0.833063641096" y1="-8.90764092544" y2="-9.52196098926" /><line stroke="black" stroke-width="0.1524" x1="1.29049476427" x2="1.26468486898" y1="-18.4549349298" y2="-18.0858362312" /><line stroke="black" stroke-width="0.1524" x1="0.968215190494" x2="0.948850886685" y1="-18.474646393" y2="-18.1051534651" /><line stroke="black" stroke-width="0.1524" x1="0.645640688996" x2="0.632727875216" y1="-18.4887302999" y2="-18.1189556939" /><line stroke="black" stroke-width="0.1524" x1="0.32286951909" x2="0.316412128708" y1="-18.4971823604" y2="-18.1272387132" /><line stroke="black" stroke-width="0.1524" x1="1.13279828921e-15" x2="1.08748635764e-15" y1="-18.5" y2="-17.76" /><line stroke="black" stroke-width="0.25" x1="1.13279828921e-15" x2="1.00693181263e-15" y1="-18.5" y2="-16.4444444444" /><line stroke="black" stroke-width="0.25" x1="8.77918674139e-16" x2="6.26185720981e-16" y1="-14.3375" y2="-10.2263888889" /><line stroke="black" stroke-width="0.25" x1="5.09759230145e-16" x2="5.66399144606e-17" y1="-8.325" y2="-0.925" /><line stroke="black" stroke-width="0.1524" x1="-0.32286951909" x2="-0.316412128708" y1="-18.4971823604" y2="-18.1272387132" /><line stroke="black" stroke-width="0.1524" x1="-0.645640688996" x2="-0.632727875216" y1="-18.4887302999" y2="-18.1189556939" /><line stroke="black" stroke-width="0.1524" x1="-0.968215190494" x2="-0.948850886685" y1="-18.474646393" y2="-18.1051534651" /><line stroke="black" stroke-width="0.1524" x1="-1.29049476427" x2="-1.26468486898" y1="-18.4549349298" y2="-18.0858362312" /><line stroke="black" stroke-width="0.1524" x1="-1.61238124083" x2="-1.56938440774" y1="-18.4296019147" y2="-17.9381458636" /><line stroke="black" stroke-width="0.1524" x1="-1.31677801335" x2="-1.37052405471" y1="-15.0508415637" y2="-15.6651616275" /><line stroke="black" stroke-width="0.1524" x1="-0.779317599735" x2="-0.833063641096" y1="-8.90764092544" y2="-9.52196098926" /><line stroke="black" stroke-width="0.1524" x1="-1.93377657045" x2="-1.89510103904" y1="-18.3986550643" y2="-18.030681963" /><line stroke="black" stroke-width="0.1524" x1="-2.254582853" x2="-2.20949119594" y1="-18.3621038054" y2="-17.9948617293" /><line stroke="black" stroke-width="0.1524" x1="-2.57470236776" x2="-2.52320832041" y1="-18.3199592717" y2="-17.9535600863" /><line stroke="black" stroke-width="0.1524" x1="-2.89403760324" x2="-2.83615685118" y1="-18.272234301" y2="-17.906789615" /><line stroke="black" stroke-width="0.1524" x1="-3.21249128684" x2="-3.08399163536" y1="-18.2189434307" y2="-17.4901856935" /><line stroke="black" stroke-width="0.1524" x1="-2.62353455092" x2="-2.73061759381" y1="-14.8788038018" y2="-15.4861019161" /><line stroke="black" stroke-width="0.1524" x1="-1.55270412197" x2="-1.65978716487" y1="-8.80582265818" y2="-9.41312077254" /><line stroke="black" stroke-width="0.1524" x1="-0.535415214473" x2="-0.642498257368" y1="-3.03649057179" y2="-3.64378868615" /><line stroke="black" stroke-width="0.1524" x1="-3.52996641447" x2="-3.45936708618" y1="-18.1601028938" y2="-17.7969008359" /><line stroke="black" stroke-width="0.1524" x1="-3.84636628013" x2="-3.76943895453" y1="-18.0957306136" y2="-17.7338160013" /><line stroke="black" stroke-width="0.1524" x1="-4.16159450536" x2="-4.07836261525" y1="-18.0258461985" y2="-17.6653292746" /><line stroke="black" stroke-width="0.1524" x1="-4.47555506859" x2="-4.38604396722" y1="-17.9504709361" y2="-17.5914615174" /><line stroke="black" stroke-width="0.1524" x1="-4.7881523344" x2="-4.66046827215" y1="-17.8696277863" y2="-17.3931043787" /><line stroke="black" stroke-width="0.1524" x1="-3.91032440642" x2="-4.06992948424" y1="-14.5935293589" y2="-15.1891836184" /><line stroke="black" stroke-width="0.1524" x1="-2.31427362829" x2="-2.4738787061" y1="-8.6369867634" y2="-9.23264102295" /><line stroke="black" stroke-width="0.1524" x1="-0.766206722316" x2="-1.36186098186" y1="-4.05083093587" y2="-3.89122585806" /><line stroke="black" stroke-width="0.1524" x1="-1.03221518534" x2="-1.62786944488" y1="-5.04358803511" y2="-4.8839829573" /><line stroke="black" stroke-width="0.1524" x1="-1.56423211138" x2="-2.15988637093" y1="-7.0291022336" y2="-6.86949715578" /><line stroke="black" stroke-width="0.1524" x1="-1.8302405744" x2="-2.42589483395" y1="-8.02185933284" y2="-7.86225425503" /><line stroke="black" stroke-width="0.1524" x1="-2.09624903743" x2="-2.69190329697" y1="-9.01461643208" y2="-8.85501135427" /><line stroke="black" stroke-width="0.1524" x1="-2.36225750045" x2="-2.95791175999" y1="-10.0073735313" y2="-9.84776845351" /><line stroke="black" stroke-width="0.1524" x1="-2.62826596347" x2="-3.22392022301" y1="-11.0001306306" y2="-10.8405255528" /><line stroke="black" stroke-width="0.1524" x1="-3.16028288951" x2="-3.75593714906" y1="-12.985644829" y2="-12.8260397512" /><line stroke="black" stroke-width="0.1524" x1="-3.42629135254" x2="-4.02194561208" y1="-13.9784019283" y2="-13.8187968505" /><line stroke="black" stroke-width="0.1524" x1="-3.69229981556" x2="-4.2879540751" y1="-14.9711590275" y2="-14.8115539497" /><line stroke="black" stroke-width="0.1524" x1="-3.95830827858" x2="-4.55396253813" y1="-15.9639161268" y2="-15.804311049" /><line stroke="black" stroke-width="0.1524" x1="-4.2243167416" x2="-4.81997100115" y1="-16.956673226" y2="-16.7970681482" /><line stroke="black" stroke-width="0.1524" x1="-5.09929108261" x2="-4.99730526096" y1="-17.7833413749" y2="-17.4276745474" /><line stroke="black" stroke-width="0.1524" x1="-5.40887653737" x2="-5.30069900662" y1="-17.6916379853" y2="-17.3378052256" /><line stroke="black" stroke-width="0.1524" x1="-5.71681439594" x2="-5.60247810802" y1="-17.5945455515" y2="-17.2426546404" /><line stroke="black" stroke-width="0.1524" x1="-6.02301085746" x2="-5.90255064031" y1="-17.4920936486" y2="-17.1422517756" /><line stroke="black" stroke-width="0.1524" x1="-6.32737265152" x2="-6.07427774546" y1="-17.3843134845" y2="-16.6889409452" /><line stroke="black" stroke-width="0.1524" x1="-5.16735433208" x2="-5.3782667538" y1="-14.1971893457" y2="-14.7766664619" /><line stroke="black" stroke-width="0.1524" x1="-3.0582301149" x2="-3.26914253662" y1="-8.40241818419" y2="-8.98189530035" /><line stroke="black" stroke-width="0.1524" x1="-1.05456210859" x2="-1.2654745303" y1="-2.89738558076" y2="-3.47686269691" /><line stroke="black" stroke-width="0.1524" x1="-6.62980706659" x2="-6.49721092526" y1="-17.2712378902" y2="-16.9258131324" /><line stroke="black" stroke-width="0.1524" x1="-6.93022197819" x2="-6.79161753863" y1="-17.1529013095" y2="-16.8098432833" /><line stroke="black" stroke-width="0.1524" x1="-7.22852587705" x2="-7.08395535951" y1="-17.0293397889" y2="-16.6887529931" /><line stroke="black" stroke-width="0.1524" x1="-7.5246278969" x2="-7.37413533896" y1="-16.9005909664" y2="-16.5625791471" /><line stroke="black" stroke-width="0.1524" x1="-7.8184378422" x2="-7.60994616641" y1="-16.7666940602" y2="-16.3195822186" /><line stroke="black" stroke-width="0.1524" x1="-6.38505757113" x2="-6.64567216587" y1="-13.6928001491" y2="-14.2516899512" /><line stroke="black" stroke-width="0.1524" x1="-3.77891162373" x2="-4.03952621847" y1="-8.10390212909" y2="-8.66279193109" /><line stroke="black" stroke-width="0.1524" x1="-8.1098662156" x2="-7.94766889129" y1="-16.6276898565" y2="-16.2951360594" /><line stroke="black" stroke-width="0.1524" x1="-8.39882424518" x2="-8.23084776028" y1="-16.4836206975" y2="-16.1539482835" /><line stroke="black" stroke-width="0.1524" x1="-8.68522391154" x2="-8.51151943331" y1="-16.3345304679" y2="-16.0078398585" /><line stroke="black" stroke-width="0.1524" x1="-8.96897797456" x2="-8.78959841507" y1="-16.1804645821" y2="-15.8568552904" /><line stroke="black" stroke-width="0.1524" x1="-9.25" x2="-8.88" y1="-16.02146997" y2="-15.3806111712" /><line stroke="black" stroke-width="0.25" x1="-9.25" x2="-8.22222222222" y1="-16.02146997" y2="-14.24130664" /><line stroke="black" stroke-width="0.25" x1="-7.16875" x2="-5.11319444444" y1="-12.4166392268" y2="-8.85631256676" /><line stroke="black" stroke-width="0.25" x1="-4.1625" x2="-0.4625" y1="-7.20966148651" y2="-0.801073498501" /><line stroke="black" stroke-width="0.1524" x1="-9.52820438584" x2="-9.33764029812" y1="-15.857595063" y2="-15.5404431617" /><line stroke="black" stroke-width="0.1524" x1="-9.80350638831" x2="-9.60743626055" y1="-15.6888897789" y2="-15.3751119833" /><line stroke="black" stroke-width="0.1524" x1="-10.0758221478" x2="-9.87430570482" y1="-15.515405507" y2="-15.2050973969" /><line stroke="black" stroke-width="0.1524" x1="-10.3450687142" x2="-10.1381673399" y1="-15.3371950923" y2="-15.0304511904" /><line stroke="black" stroke-width="0.1524" x1="-10.6111640725" x2="-10.3281996972" y1="-15.1543128193" y2="-14.7501978108" /><line stroke="black" stroke-width="0.1524" x1="-8.66578399254" x2="-9.01948946162" y1="-12.3760221358" y2="-12.8811658964" /><line stroke="black" stroke-width="0.1524" x1="-5.12872930171" x2="-5.48243477079" y1="-7.32458452935" y2="-7.82972829" /><line stroke="black" stroke-width="0.1524" x1="-10.8740271674" x2="-10.6565466241" y1="-14.9668143959" y2="-14.667478108" /><line stroke="black" stroke-width="0.1524" x1="-11.1335779283" x2="-10.9109063697" y1="-14.7747569359" y2="-14.4792617972" /><line stroke="black" stroke-width="0.1524" x1="-11.3897372935" x2="-11.1619425477" y1="-14.5781989417" y2="-14.2866349629" /><line stroke="black" stroke-width="0.1524" x1="-11.6424272344" x2="-11.4095786897" y1="-14.377200287" y2="-14.0896562812" /><line stroke="black" stroke-width="0.1524" x1="-11.8915707792" x2="-11.415907948" y1="-14.1718221977" y2="-13.6049493098" /><line stroke="black" stroke-width="0.1524" x1="-9.71144946968" x2="-10.1078351623" y1="-11.5736547948" y2="-12.046048868" /><line stroke="black" stroke-width="0.1524" x1="-5.74759254328" x2="-6.14397823592" y1="-6.84971406222" y2="-7.32210813548" /><line stroke="black" stroke-width="0.1524" x1="-1.9819284632" x2="-2.37831415584" y1="-2.36197036628" y2="-2.83436443954" /><line stroke="black" stroke-width="0.1524" x1="-12.1370920363" x2="-11.8943501956" y1="-13.9621272341" y2="-13.6828846894" /><line stroke="black" stroke-width="0.1524" x1="-12.3789162176" x2="-12.1313378933" y1="-13.7481792713" y2="-13.4732156859" /><line stroke="black" stroke-width="0.1524" x1="-12.6169696612" x2="-12.3646302679" y1="-13.53004348" y2="-13.2594426104" /><line stroke="black" stroke-width="0.1524" x1="-12.8511798535" x2="-12.5941562564" y1="-13.3077863063" y2="-13.0416305801" /><line stroke="black" stroke-width="0.1524" x1="-13.081475452" x2="-12.7326361066" y1="-13.081475452" y2="-12.7326361066" /><line stroke="black" stroke-width="0.1524" x1="-10.6832049524" x2="-11.1192541342" y1="-10.6832049524" y2="-11.1192541342" /><line stroke="black" stroke-width="0.1524" x1="-6.32271313511" x2="-6.75876231684" y1="-6.32271313511" y2="-6.75876231684" /><line stroke="black" stroke-width="0.1524" x1="-2.68896995401" x2="-3.12501913574" y1="-3.12501913574" y2="-2.68896995401" /><line stroke="black" stroke-width="0.1524" x1="-3.41571859023" x2="-3.85176777196" y1="-3.85176777196" y2="-3.41571859023" /><line stroke="black" stroke-width="0.1524" x1="-4.86921586267" x2="-5.3052650444" y1="-5.3052650444" y2="-4.86921586267" /><line stroke="black" stroke-width="0.1524" x1="-5.59596449889" x2="-6.03201368062" y1="-6.03201368062" y2="-5.59596449889" /><line stroke="black" stroke-width="0.1524" x1="-6.32271313511" x2="-6.75876231684" y1="-6.75876231684" y2="-6.32271313511" /><line stroke="black" stroke-width="0.1524" x1="-7.04946177133" x2="-7.48551095306" y1="-7.48551095306" y2="-7.04946177133" /><line stroke="black" stroke-width="0.1524" x1="-7.77621040755" x2="-8.21225958928" y1="-8.21225958928" y2="-7.77621040755" /><line stroke="black" stroke-width="0.1524" x1="-9.22970767999" x2="-9.66575686172" y1="-9.66575686172" y2="-9.22970767999" /><line stroke="black" stroke-width="0.1524" x1="-9.95645631621" x2="-10.3925054979" y1="-10.3925054979" y2="-9.95645631621" /><line stroke="black" stroke-width="0.1524" x1="-10.6832049524" x2="-11.1192541342" y1="-11.1192541342" y2="-10.6832049524" /><line stroke="black" stroke-width="0.1524" x1="-11.4099535886" x2="-11.8460027704" y1="-11.8460027704" y2="-11.4099535886" /><line stroke="black" stroke-width="0.1524" x1="-12.1367022249" x2="-12.5727514066" y1="-12.5727514066" y2="-12.1367022249" /><line stroke="black" stroke-width="0.1524" x1="-13.3077863063" x2="-13.0416305801" y1="-12.8511798535" y2="-12.5941562564" /><line stroke="black" stroke-width="0.1524" x1="-13.53004348" x2="-13.2594426104" y1="-12.6169696612" y2="-12.3646302679" /><line stroke="black" stroke-width="0.1524" x1="-13.7481792713" x2="-13.4732156859" y1="-12.3789162176" y2="-12.1313378933" /><line stroke="black" stroke-width="0.1524" x1="-13.9621272341" x2="-13.6828846894" y1="-12.1370920363" y2="-11.8943501956" /><line stroke="black" stroke-width="0.1524" x1="-14.1718221977" x2="-13.6049493098" y1="-11.8915707792" y2="-11.415907948" /><line stroke="black" stroke-width="0.1524" x1="-11.5736547948" x2="-12.046048868" y1="-9.71144946968" y2="-10.1078351623" /><line stroke="black" stroke-width="0.1524" x1="-6.84971406222" x2="-7.32210813548" y1="-5.74759254328" y2="-6.14397823592" /><line stroke="black" stroke-width="0.1524" x1="-2.36197036628" x2="-2.83436443954" y1="-1.9819284632" y2="-2.37831415584" /><line stroke="black" stroke-width="0.1524" x1="-14.377200287" x2="-14.0896562812" y1="-11.6424272344" y2="-11.4095786897" /><line stroke="black" stroke-width="0.1524" x1="-14.5781989417" x2="-14.2866349629" y1="-11.3897372935" y2="-11.1619425477" /><line stroke="black" stroke-width="0.1524" x1="-14.7747569359" x2="-14.4792617972" y1="-11.1335779283" y2="-10.9109063697" /><line stroke="black" stroke-width="0.1524" x1="-14.9668143959" x2="-14.667478108" y1="-10.8740271674" y2="-10.6565466241" /><line stroke="black" stroke-width="0.1524" x1="-15.1543128193" x2="-14.7501978108" y1="-10.6111640725" y2="-10.3281996972" /><line stroke="black" stroke-width="0.1524" x1="-12.3760221358" x2="-12.8811658964" y1="-8.66578399254" y2="-9.01948946162" /><line stroke="black" stroke-width="0.1524" x1="-7.32458452935" x2="-7.82972829" y1="-5.12872930171" y2="-5.48243477079" /><line stroke="black" stroke-width="0.1524" x1="-15.3371950923" x2="-15.0304511904" y1="-10.3450687142" y2="-10.1381673399" /><line stroke="black" stroke-width="0.1524" x1="-15.515405507" x2="-15.2050973969" y1="-10.0758221478" y2="-9.87430570482" /><line stroke="black" stroke-width="0.1524" x1="-15.6888897789" x2="-15.3751119833" y1="-9.80350638831" y2="-9.60743626055" /><line stroke="black" stroke-width="0.1524" x1="-15.857595063" x2="-15.5404431617" y1="-9.52820438584" y2="-9.33764029812" /><line stroke="black" stroke-width="0.1524" x1="-16.02146997" x2="-15.3806111712" y1="-9.25" y2="-8.88" /><line stroke="black" stroke-width="0.25" x1="-16.02146997" x2="-14.24130664" y1="-9.25" y2="-8.22222222222" /><line stroke="black" stroke-width="0.25" x1="-12.4166392268" x2="-8.85631256676" y1="-7.16875" y2="-5.11319444444" /><line stroke="black" stroke-width="0.25" x1="-7.20966148651" x2="-0.801073498501" y1="-4.1625" y2="-0.4625" /><line stroke="black" stroke-width="0.1524" x1="-16.1804645821" x2="-15.8568552904" y1="-8.96897797456" y2="-8.78959841507" /><line stroke="black" stroke-width="0.1524" x1="-16.3345304679" x2="-16.0078398585" y1="-8.68522391154" y2="-8.51151943331" /><line stroke="black" stroke-width="0.1524" x1="-16.4836206975" x2="-16.1539482835" y1="-8.39882424518" y2="-8.23084776028" /><line stroke="black" stroke-width="0.1524" x1="-16.6276898565" x2="-16.2951360594" y1="-8.1098662156" y2="-7.94766889129" /><line stroke="black" stroke-width="0.1524" x1="-16.7666940602" x2="-16.3195822186" y1="-7.8184378422" y2="-7.60994616641" /><line stroke="black" stroke-width="0.1524" x1="-13.6928001491" x2="-14.2516899512" y1="-6.38505757113" y2="-6.64567216587" /><line stroke="black" stroke-width="0.1524" x1="-8.10390212909" x2="-8.66279193109" y1="-3.77891162373" y2="-4.03952621847" /><line stroke="black" stroke-width="0.1524" x1="-16.9005909664" x2="-16.5625791471" y1="-7.5246278969" y2="-7.37413533896" /><line stroke="black" stroke-width="0.1524" x1="-17.0293397889" x2="-16.6887529931" y1="-7.22852587705" y2="-7.08395535951" /><line stroke="black" stroke-width="0.1524" x1="-17.1529013095" x2="-16.8098432833" y1="-6.93022197819" y2="-6.79161753863" /><line stroke="black" stroke-width="0.1524" x1="-17.2712378902" x2="-16.9258131324" y1="-6.62980706659" y2="-6.49721092526" /><line stroke="black" stroke-width="0.1524" x1="-17.3843134845" x2="-16.6889409452" y1="-6.32737265152" y2="-6.07427774546" /><line stroke="black" stroke-width="0.1524" x1="-14.1971893457" x2="-14.7766664619" y1="-5.16735433208" y2="-5.3782667538" /><line stroke="black" stroke-width="0.1524" x1="-8.40241818419" x2="-8.98189530035" y1="-3.0582301149" y2="-3.26914253662" /><line stroke="black" stroke-width="0.1524" x1="-2.89738558076" x2="-3.47686269691" y1="-1.05456210859" y2="-1.2654745303" /><line stroke="black" stroke-width="0.1524" x1="-17.4920936486" x2="-17.1422517756" y1="-6.02301085746" y2="-5.90255064031" /><line stroke="black" stroke-width="0.1524" x1="-17.5945455515" x2="-17.2426546404" y1="-5.71681439594" y2="-5.60247810802" /><line stroke="black" stroke-width="0.1524" x1="-17.6916379853" x2="-17.3378052256" y1="-5.40887653737" y2="-5.30069900662" /><line stroke="black" stroke-width="0.1524" x1="-17.7833413749" x2="-17.4276745474" y1="-5.09929108261" y2="-4.99730526096" /><line stroke="black" stroke-width="0.1524" x1="-17.8696277863" x2="-17.3931043787" y1="-4.7881523344" y2="-4.66046827215" /><line stroke="black" stroke-width="0.1524" x1="-14.5935293589" x2="-15.1891836184" y1="-3.91032440642" y2="-4.06992948424" /><line stroke="black" stroke-width="0.1524" x1="-8.6369867634" x2="-9.23264102295" y1="-2.31427362829" y2="-2.4738787061" /><line stroke="black" stroke-width="0.1524" x1="-3.89122585806" x2="-4.05083093587" y1="-1.36186098186" y2="-0.766206722316" /><line stroke="black" stroke-width="0.1524" x1="-4.8839829573" x2="-5.04358803511" y1="-1.62786944488" y2="-1.03221518534" /><line stroke="black" stroke-width="0.1524" x1="-6.86949715578" x2="-7.0291022336" y1="-2.15988637093" y2="-1.56423211138" /><line stroke="black" stroke-width="0.1524" x1="-7.86225425503" x2="-8.02185933284" y1="-2.42589483395" y2="-1.8302405744" /><line stroke="black" stroke-width="0.1524" x1="-8.85501135427" x2="-9.01461643208" y1="-2.69190329697" y2="-2.09624903743" /><line stroke="black" stroke-width="0.1524" x1="-9.84776845351" x2="-10.0073735313" y1="-2.95791175999" y2="-2.36225750045" /><line stroke="black" stroke-width="0.1524" x1="-10.8405255528" x2="-11.0001306306" y1="-3.22392022301" y2="-2.62826596347" /><line stroke="black" stroke-width="0.1524" x1="-12.8260397512" x2="-12.985644829" y1="-3.75593714906" y2="-3.16028288951" /><line stroke="black" stroke-width="0.1524" x1="-13.8187968505" x2="-13.9784019283" y1="-4.02194561208" y2="-3.42629135254" /><line stroke="black" stroke-width="0.1524" x1="-14.8115539497" x2="-14.9711590275" y1="-4.2879540751" y2="-3.69229981556" /><line stroke="black" stroke-width="0.1524" x1="-15.804311049" x2="-15.9639161268" y1="-4.55396253813" y2="-3.95830827858" /><line stroke="black" stroke-width="0.1524" x1="-16.7970681482" x2="-16.956673226" y1="-4.81997100115" y2="-4.2243167416" /><line stroke="black" stroke-width="0.1524" x1="-17.9504709361" x2="-17.5914615174" y1="-4.47555506859" y2="-4.38604396722" /><line stroke="black" stroke-width="0.1524" x1="-18.0258461985" x2="-17.6653292746" y1="-4.16159450536" y2="-4.07836261525" /><line stroke="black" stroke-width="0.1524" x1="-18.0957306136" x2="-17.7338160013" y1="-3.84636628013" y2="-3.76943895453" /><line stroke="black" stroke-width="0.1524" x1="-18.1601028938" x2="-17.7969008359" y1="-3.52996641447" y2="-3.45936708618" /><line stroke="black" stroke-width="0.1524" x1="-18.2189434307" x2="-17.4901856935" y1="-3.21249128684" y2="-3.08399163536" /><line stroke="black" stroke-width="0.1524" x1="-14.8788038018" x2="-15.4861019161" y1="-2.62353455092" y2="-2.73061759381" /><line stroke="black" stroke-width="0.1524" x1="-8.80582265818" x2="-9.41312077254" y1="-1.55270412197" y2="-1.65978716487" /><line stroke="black" stroke-width="0.1524" x1="-3.03649057179" x2="-3.64378868615" y1="-0.535415214473" y2="-0.642498257368" /><line stroke="black" stroke-width="0.1524" x1="-18.272234301" x2="-17.906789615" y1="-2.89403760324" y2="-2.83615685118" /><line stroke="black" stroke-width="0.1524" x1="-18.3199592717" x2="-17.9535600863" y1="-2.57470236776" y2="-2.52320832041" /><line stroke="black" stroke-width="0.1524" x1="-18.3621038054" x2="-17.9948617293" y1="-2.254582853" y2="-2.20949119594" /><line stroke="black" stroke-width="0.1524" x1="-18.3986550643" x2="-18.030681963" y1="-1.93377657045" y2="-1.89510103904" /><line stroke="black" stroke-width="0.1524" x1="-18.4296019147" x2="-17.9381458636" y1="-1.61238124083" y2="-1.56938440774" /><line stroke="black" stroke-width="0.1524" x1="-15.0508415637" x2="-15.6651616275" y1="-1.31677801335" y2="-1.37052405471" /><line stroke="black" stroke-width="0.1524" x1="-8.90764092544" x2="-9.52196098926" y1="-0.779317599735" y2="-0.833063641096" /><line stroke="black" stroke-width="0.1524" x1="-18.4549349298" x2="-18.0858362312" y1="-1.29049476427" y2="-1.26468486898" /><line stroke="black" stroke-width="0.1524" x1="-18.474646393" x2="-18.1051534651" y1="-0.968215190494" y2="-0.948850886685" /><line stroke="black" stroke-width="0.1524" x1="-18.4887302999" x2="-18.1189556939" y1="-0.645640688996" y2="-0.632727875216" /><line stroke="black" stroke-width="0.1524" x1="-18.4971823604" x2="-18.1272387132" y1="-0.32286951909" y2="-0.316412128708" /><line stroke="black" stroke-width="0.1524" x1="-18.5" x2="-17.76" y1="-2.26559657842e-15" y2="-2.17497271529e-15" /><line stroke="black" stroke-width="0.25" x1="-18.5" x2="-16.4444444444" y1="-2.26559657842e-15" y2="-2.01386362526e-15" /><line stroke="black" stroke-width="0.25" x1="-14.3375" x2="-10.2263888889" y1="-1.75583734828e-15" y2="-1.25237144196e-15" /><line stroke="black" stroke-width="0.25" x1="-8.325" x2="-0.925" y1="-1.01951846029e-15" y2="-1.13279828921e-16" /><line stroke="white" stroke-width="0.1524" x1="-18.4971823604" x2="-18.1272387132" y1="0.32286951909" y2="0.316412128708" /><line stroke="white" stroke-width="0.1524" x1="-18.4887302999" x2="-18.1189556939" y1="0.645640688996" y2="0.632727875216" /><line stroke="white" stroke-width="0.1524" x1="-18.474646393" x2="-18.1051534651" y1="0.968215190494" y2="0.948850886685" /><line stroke="white" stroke-width="0.1524" x1="-18.4549349298" x2="-18.0858362312" y1="1.29049476427" y2="1.26468486898" /><line stroke="white" stroke-width="0.1524" x1="-18.4296019147" x2="-17.9381458636" y1="1.61238124083" y2="1.56938440774" /><line stroke="white" stroke-width="0.1524" x1="-15.0508415637" x2="-15.6651616275" y1="1.31677801335" y2="1.37052405471" /><line stroke="white" stroke-width="0.1524" x1="-8.90764092544" x2="-9.52196098926" y1="0.779317599735" y2="0.833063641096" /><line stroke="white" stroke-width="0.1524" x1="-18.3986550643" x2="-18.030681963" y1="1.93377657045" y2="1.89510103904" /><line stroke="white" stroke-width="0.1524" x1="-18.3621038054" x2="-17.9948617293" y1="2.254582853" y2="2.20949119594" /><line stroke="white" stroke-width="0.1524" x1="-18.3199592717" x2="-17.9535600863" y1="2.57470236776" y2="2.52320832041" /><line stroke="white" stroke-width="0.1524" x1="-18.272234301" x2="-17.906789615" y1="2.89403760324" y2="2.83615685118" /><line stroke="white" stroke-width="0.1524" x1="-18.2189434307" x2="-17.4901856935" y1="3.21249128684" y2="3.08399163536" /><line stroke="white" stroke-width="0.1524" x1="-14.8788038018" x2="-15.4861019161" y1="2.62353455092" y2="2.73061759381" /><line stroke="white" stroke-width="0.1524" x1="-8.80582265818" x2="-9.41312077254" y1="1.55270412197" y2="1.65978716487" /><line stroke="white" stroke-width="0.1524" x1="-3.03649057179" x2="-3.64378868615" y1="0.535415214473" y2="0.642498257368" /><line stroke="white" stroke-width="0.1524" x1="-18.1601028938" x2="-17.7969008359" y1="3.52996641447" y2="3.45936708618" /><line stroke="white" stroke-width="0.1524" x1="-18.0957306136" x2="-17.7338160013" y1="3.84636628013" y2="3.76943895453" /><line stroke="white" stroke-width="0.1524" x1="-18.0258461985" x2="-17.6653292746" y1="4.16159450536" y2="4.07836261525" /><line stroke="white" stroke-width="0.1524" x1="-17.9504709361" x2="-17.5914615174" y1="4.47555506859" y2="4.38604396722" /><line stroke="white" stroke-width="0.1524" x1="-17.8696277863" x2="-17.3931043787" y1="4.7881523344" y2="4.66046827215" /><line stroke="white" stroke-width="0.1524" x1="-14.5935293589" x2="-15.1891836184" y1="3.91032440642" y2="4.06992948424" /><line stroke="white" stroke-width="0.1524" x1="-8.6369867634" x2="-9.23264102295" y1="2.31427362829" y2="2.4738787061" /><line stroke="white" stroke-width="0.1524" x1="-4.05083093587" x2="-3.89122585806" y1="0.766206722316" y2="1.36186098186" /><line stroke="white" stroke-width="0.1524" x1="-5.04358803511" x2="-4.8839829573" y1="1.03221518534" y2="1.62786944488" /><line stroke="white" stroke-width="0.1524" x1="-7.0291022336" x2="-6.86949715578" y1="1.56423211138" y2="2.15988637093" /><line stroke="white" stroke-width="0.1524" x1="-8.02185933284" x2="-7.86225425503" y1="1.8302405744" y2="2.42589483395" /><line stroke="white" stroke-width="0.1524" x1="-9.01461643208" x2="-8.85501135427" y1="2.09624903743" y2="2.69190329697" /><line stroke="white" stroke-width="0.1524" x1="-10.0073735313" x2="-9.84776845351" y1="2.36225750045" y2="2.95791175999" /><line stroke="white" stroke-width="0.1524" x1="-11.0001306306" x2="-10.8405255528" y1="2.62826596347" y2="3.22392022301" /><line stroke="white" stroke-width="0.1524" x1="-12.985644829" x2="-12.8260397512" y1="3.16028288951" y2="3.75593714906" /><line stroke="white" stroke-width="0.1524" x1="-13.9784019283" x2="-13.8187968505" y1="3.42629135254" y2="4.02194561208" /><line stroke="white" stroke-width="0.1524" x1="-14.9711590275" x2="-14.8115539497" y1="3.69229981556" y2="4.2879540751" /><line stroke="white" stroke-width="0.1524" x1="-15.9639161268" x2="-15.804311049" y1="3.95830827858" y2="4.55396253813" /><line stroke="white" stroke-width="0.1524" x1="-16.956673226" x2="-16.7970681482" y1="4.2243167416" y2="4.81997100115" /><line stroke="white" stroke-width="0.1524" x1="-17.7833413749" x2="-17.4276745474" y1="5.09929108261" y2="4.99730526096" /><line stroke="white" stroke-width="0.1524" x1="-17.6916379853" x2="-17.3378052256" y1="5.40887653737" y2="5.30069900662" /><line stroke="white" stroke-width="0.1524" x1="-17.5945455515" x2="-17.2426546404" y1="5.71681439594" y2="5.60247810802" /><line stroke="white" stroke-width="0.1524" x1="-17.4920936486" x2="-17.1422517756" y1="6.02301085746" y2="5.90255064031" /><line stroke="white" stroke-width="0.1524" x1="-17.3843134845" x2="-16.6889409452" y1="6.32737265152" y2="6.07427774546" /><line stroke="white" stroke-width="0.1524" x1="-14.1971893457" x2="-14.7766664619" y1="5.16735433208" y2="5.3782667538" /><line stroke="white" stroke-width="0.1524" x1="-8.40241818419" x2="-8.98189530035" y1="3.0582301149" y2="3.26914253662" /><line stroke="white" stroke-width="0.1524" x1="-2.89738558076" x2="-3.47686269691" y1="1.05456210859" y2="1.2654745303" /><line stroke="white" stroke-width="0.1524" x1="-17.2712378902" x2="-16.9258131324" y1="6.62980706659" y2="6.49721092526" /><line stroke="white" stroke-width="0.1524" x1="-17.1529013095" x2="-16.8098432833" y1="6.93022197819" y2="6.79161753863" /><line stroke="white" stroke-width="0.1524" x1="-17.0293397889" x2="-16.6887529931" y1="7.22852587705" y2="7.08395535951" /><line stroke="white" stroke-width="0.1524" x1="-16.9005909664" x2="-16.5625791471" y1="7.5246278969" y2="7.37413533896" /><line stroke="white" stroke-width="0.1524" x1="-16.7666940602" x2="-16.3195822186" y1="7.8184378422" y2="7.60994616641" /><line stroke="white" stroke-width="0.1524" x1="-13.6928001491" x2="-14.2516899512" y1="6.38505757113" y2="6.64567216587" /><line stroke="white" stroke-width="0.1524" x1="-8.10390212909" x2="-8.66279193109" y1="3.77891162373" y2="4.03952621847" /><line stroke="white" stroke-width="0.1524" x1="-16.6276898565" x2="-16.2951360594" y1="8.1098662156" y2="7.94766889129" /><line stroke="white" stroke-width="0.1524" x1="-16.4836206975" x2="-16.1539482835" y1="8.39882424518" y2="8.23084776028" /><line stroke="white" stroke-width="0.1524" x1="-16.3345304679" x2="-16.0078398585" y1="8.68522391154" y2="8.51151943331" /><line stroke="white" stroke-width="0.1524" x1="-16.1804645821" x2="-15.8568552904" y1="8.96897797456" y2="8.78959841507" /><line stroke="white" stroke-width="0.1524" x1="-16.02146997" x2="-15.3806111712" y1="9.25" y2="8.88" /><line stroke="white" stroke-width="0.25" x1="-16.02146997" x2="-14.24130664" y1="9.25" y2="8.22222222222" /><line stroke="white" stroke-width="0.25" x1="-12.4166392268" x2="-8.85631256676" y1="7.16875" y2="5.11319444444" /><line stroke="white" stroke-width="0.25" x1="-7.20966148651" x2="-0.801073498501" y1="4.1625" y2="0.4625" /><line stroke="white" stroke-width="0.1524" x1="-15.857595063" x2="-15.5404431617" y1="9.52820438584" y2="9.33764029812" /><line stroke="white" stroke-width="0.1524" x1="-15.6888897789" x2="-15.3751119833" y1="9.80350638831" y2="9.60743626055" /><line stroke="white" stroke-width="0.1524" x1="-15.515405507" x2="-15.2050973969" y1="10.0758221478" y2="9.87430570482" /><line stroke="white" stroke-width="0.1524" x1="-15.3371950923" x2="-15.0304511904" y1="10.3450687142" y2="10.1381673399" /><line stroke="white" stroke-width="0.1524" x1="-15.1543128193" x2="-14.7501978108" y1="10.6111640725" y2="10.3281996972" /><line stroke="white" stroke-width="0.1524" x1="-12.3760221358" x2="-12.8811658964" y1="8.66578399254" y2="9.01948946162" /><line stroke="white" stroke-width="0.1524" x1="-7.32458452935" x2="-7.82972829" y1="5.12872930171" y2="5.48243477079" /><line stroke="white" stroke-width="0.1524" x1="-14.9668143959" x2="-14.667478108" y1="10.8740271674" y2="10.6565466241" /><line stroke="white" stroke-width="0.1524" x1="-14.7747569359" x2="-14.4792617972" y1="11.1335779283" y2="10.9109063697" /><line stroke="white" stroke-width="0.1524" x1="-14.5781989417" x2="-14.2866349629" y1="11.3897372935" y2="11.1619425477" /><line stroke="white" stroke-width="0.1524" x1="-14.377200287" x2="-14.0896562812" y1="11.6424272344" y2="11.4095786897" /><line stroke="white" stroke-width="0.1524" x1="-14.1718221977" x2="-13.6049493098" y1="11.8915707792" y2="11.415907948" /><line stroke="white" stroke-width="0.1524" x1="-11.5736547948" x2="-12.046048868" y1="9.71144946968" y2="10.1078351623" /><line stroke="white" stroke-width="0.1524" x1="-6.84971406222" x2="-7.32210813548" y1="5.74759254328" y2="6.14397823592" /><line stroke="white" stroke-width="0.1524" x1="-2.36197036628" x2="-2.83436443954" y1="1.9819284632" y2="2.37831415584" /><line stroke="white" stroke-width="0.1524" x1="-13.9621272341" x2="-13.6828846894" y1="12.1370920363" y2="11.8943501956" /><line stroke="white" stroke-width="0.1524" x1="-13.7481792713" x2="-13.4732156859" y1="12.3789162176" y2="12.1313378933" /><line stroke="white" stroke-width="0.1524" x1="-13.53004348" x2="-13.2594426104" y1="12.6169696612" y2="12.3646302679" /><line stroke="white" stroke-width="0.1524" x1="-13.3077863063" x2="-13.0416305801" y1="12.8511798535" y2="12.5941562564" /><line stroke="white" stroke-width="0.1524" x1="-13.081475452" x2="-12.7326361066" y1="13.081475452" y2="12.7326361066" /><line stroke="white" stroke-width="0.1524" x1="-10.6832049524" x2="-11.1192541342" y1="10.6832049524" y2="11.1192541342" /><line stroke="white" stroke-width="0.1524" x1="-6.32271313511" x2="-6.75876231684" y1="6.32271313511" y2="6.75876231684" /><line stroke="white" stroke-width="0.1524" x1="-3.12501913574" x2="-2.68896995401" y1="2.68896995401" y2="3.12501913574" /><line stroke="white" stroke-width="0.1524" x1="-3.85176777196" x2="-3.41571859023" y1="3.41571859023" y2="3.85176777196" /><line stroke="white" stroke-width="0.1524" x1="-5.3052650444" x2="-4.86921586267" y1="4.86921586267" y2="5.3052650444" /><line stroke="white" stroke-width="0.1524" x1="-6.03201368062" x2="-5.59596449889" y1="5.59596449889" y2="6.03201368062" /><line stroke="white" stroke-width="0.1524" x1="-6.75876231684" x2="-6.32271313511" y1="6.32271313511" y2="6.75876231684" /><line stroke="white" stroke-width="0.1524" x1="-7.48551095306" x2="-7.04946177133" y1="7.04946177133" y2="7.48551095306" /><line stroke="white" stroke-width="0.1524" x1="-8.21225958928" x2="-7.77621040755" y1="7.77621040755" y2="8.21225958928" /><line stroke="white" stroke-width="0.1524" x1="-9.66575686172" x2="-9.22970767999" y1="9.22970767999" y2="9.66575686172" /><line stroke="white" stroke-width="0.1524" x1="-10.3925054979" x2="-9.95645631621" y1="9.95645631621" y2="10.3925054979" /><line stroke="white" stroke-width="0.1524" x1="-11.1192541342" x2="-10.6832049524" y1="10.6832049524" y2="11.1192541342" /><line stroke="white" stroke-width="0.1524" x1="-11.8460027704" x2="-11.4099535886" y1="11.4099535886" y2="11.8460027704" /><line stroke="white" stroke-width="0.1524" x1="-12.5727514066" x2="-12.1367022249" y1="12.1367022249" y2="12.5727514066" /><line stroke="white" stroke-width="0.1524" x1="-12.8511798535" x2="-12.5941562564" y1="13.3077863063" y2="13.0416305801" /><line stroke="white" stroke-width="0.1524" x1="-12.6169696612" x2="-12.3646302679" y1="13.53004348" y2="13.2594426104" /><line stroke="white" stroke-width="0.1524" x1="-12.3789162176" x2="-12.1313378933" y1="13.7481792713" y2="13.4732156859" /><line stroke="white" stroke-width="0.1524" x1="-12.1370920363" x2="-11.8943501956" y1="13.9621272341" y2="13.6828846894" /><line stroke="white" stroke-width="0.1524" x1="-11.8915707792" x2="-11.415907948" y1="14.1718221977" y2="13.6049493098" /><line stroke="white" stroke-width="0.1524" x1="-9.71144946968" x2="-10.1078351623" y1="11.5736547948" y2="12.046048868" /><line stroke="white" stroke-width="0.1524" x1="-5.74759254328" x2="-6.14397823592" y1="6.84971406222" y2="7.32210813548" /><line stroke="white" stroke-width="0.1524" x1="-1.9819284632" x2="-2.37831415584" y1="2.36197036628" y2="2.83436443954" /><line stroke="white" stroke-width="0.1524" x1="-11.6424272344" x2="-11.4095786897" y1="14.377200287" y2="14.0896562812" /><line stroke="white" stroke-width="0.1524" x1="-11.3897372935" x2="-11.1619425477" y1="14.5781989417" y2="14.2866349629" /><line stroke="white" stroke-width="0.1524" x1="-11.1335779283" x2="-10.9109063697" y1="14.7747569359" y2="14.4792617972" /><line stroke="white" stroke-width="0.1524" x1="-10.8740271674" x2="-10.6565466241" y1="14.9668143959" y2="14.667478108" /><line stroke="white" stroke-width="0.1524" x1="-10.6111640725" x2="-10.3281996972" y1="15.1543128193" y2="14.7501978108" /><line stroke="white" stroke-width="0.1524" x1="-8.66578399254" x2="-9.01948946162" y1="12.3760221358" y2="12.8811658964" /><line stroke="white" stroke-width="0.1524" x1="-5.12872930171" x2="-5.48243477079" y1="7.32458452935" y2="7.82972829" /><line stroke="white" stroke-width="0.1524" x1="-10.3450687142" x2="-10.1381673399" y1="15.3371950923" y2="15.0304511904" /><line stroke="white" stroke-width="0.1524" x1="-10.0758221478" x2="-9.87430570482" y1="15.515405507" y2="15.2050973969" /><line stroke="white" stroke-width="0.1524" x1="-9.80350638831" x2="-9.60743626055" y1="15.6888897789" y2="15.3751119833" /><line stroke="white" stroke-width="0.1524" x1="-9.52820438584" x2="-9.33764029812" y1="15.857595063" y2="15.5404431617" /><line stroke="white" stroke-width="0.1524" x1="-9.25" x2="-8.88" y1="16.02146997" y2="15.3806111712" /><line stroke="white" stroke-width="0.25" x1="-9.25" x2="-8.22222222222" y1="16.02146997" y2="14.24130664" /><line stroke="white" stroke-width="0.25" x1="-7.16875" x2="-5.11319444444" y1="12.4166392268" y2="8.85631256676" /><line stroke="white" stroke-width="0.25" x1="-4.1625" x2="-0.4625" y1="7.20966148651" y2="0.801073498501" /><line stroke="white" stroke-width="0.1524" x1="-8.96897797456" x2="-8.78959841507" y1="16.1804645821" y2="15.8568552904" /><line stroke="white" stroke-width="0.1524" x1="-8.68522391154" x2="-8.51151943331" y1="16.3345304679" y2="16.0078398585" /><line stroke="white" stroke-width="0.1524" x1="-8.39882424518" x2="-8.23084776028" y1="16.4836206975" y2="16.1539482835" /><line stroke="white" stroke-width="0.1524" x1="-8.1098662156" x2="-7.94766889129" y1="16.6276898565" y2="16.2951360594" /><line stroke="white" stroke-width="0.1524" x1="-7.8184378422" x2="-7.60994616641" y1="16.7666940602" y2="16.3195822186" /><line stroke="white" stroke-width="0.1524" x1="-6.38505757113" x2="-6.64567216587" y1="13.6928001491" y2="14.2516899512" /><line stroke="white" stroke-width="0.1524" x1="-3.77891162373" x2="-4.03952621847" y1="8.10390212909" y2="8.66279193109" /><line stroke="white" stroke-width="0.1524" x1="-7.5246278969" x2="-7.37413533896" y1="16.9005909664" y2="16.5625791471" /><line stroke="white" stroke-width="0.1524" x1="-7.22852587705" x2="-7.08395535951" y1="17.0293397889" y2="16.6887529931" /><line stroke="white" stroke-width="0.1524" x1="-6.93022197819" x2="-6.79161753863" y1="17.1529013095" y2="16.8098432833" /><line stroke="white" stroke-width="0.1524" x1="-6.62980706659" x2="-6.49721092526" y1="17.2712378902" y2="16.9258131324" /><line stroke="white" stroke-width="0.1524" x1="-6.32737265152" x2="-6.07427774546" y1="17.3843134845" y2="16.6889409452" /><line stroke="white" stroke-width="0.1524" x1="-5.16735433208" x2="-5.3782667538" y1="14.1971893457" y2="14.7766664619" /><line stroke="white" stroke-width="0.1524" x1="-3.0582301149" x2="-3.26914253662" y1="8.40241818419" y2="8.98189530035" /><line stroke="white" stroke-width="0.1524" x1="-1.05456210859" x2="-1.2654745303" y1="2.89738558076" y2="3.47686269691" /><line stroke="white" stroke-width="0.1524" x1="-6.02301085746" x2="-5.90255064031" y1="17.4920936486" y2="17.1422517756" /><line stroke="white" stroke-width="0.1524" x1="-5.71681439594" x2="-5.60247810802" y1="17.5945455515" y2="17.2426546404" /><line stroke="white" stroke-width="0.1524" x1="-5.40887653737" x2="-5.30069900662" y1="17.6916379853" y2="17.3378052256" /><line stroke="white" stroke-width="0.1524" x1="-5.09929108261" x2="-4.99730526096" y1="17.7833413749" y2="17.4276745474" /><line stroke="white" stroke-width="0.1524" x1="-4.7881523344" x2="-4.66046827215" y1="17.8696277863" y2="17.3931043787" /><line stroke="white" stroke-width="0.1524" x1="-3.91032440642" x2="-4.06992948424" y1="14.5935293589" y2="15.1891836184" /><line stroke="white" stroke-width="0.1524" x1="-2.31427362829" x2="-2.4738787061" y1="8.6369867634" y2="9.23264102295" /><line stroke="white" stroke-width="0.1524" x1="-1.36186098186" x2="-0.766206722316" y1="3.89122585806" y2="4.05083093587" /><line stroke="white" stroke-width="0.1524" x1="-1.62786944488" x2="-1.03221518534" y1="4.8839829573" y2="5.04358803511" /><line stroke="white" stroke-width="0.1524" x1="-2.15988637093" x2="-1.56423211138" y1="6.86949715578" y2="7.0291022336" /><line stroke="white" stroke-width="0.1524" x1="-2.42589483395" x2="-1.8302405744" y1="7.86225425503" y2="8.02185933284" /><line stroke="white" stroke-width="0.1524" x1="-2.69190329697" x2="-2.09624903743" y1="8.85501135427" y2="9.01461643208" /><line stroke="white" stroke-width="0.1524" x1="-2.95791175999" x2="-2.36225750045" y1="9.84776845351" y2="10.0073735313" /><line stroke="white" stroke-width="0.1524" x1="-3.22392022301" x2="-2.62826596347" y1="10.8405255528" y2="11.0001306306" /><line stroke="white" stroke-width="0.1524" x1="-3.75593714906" x2="-3.16028288951" y1="12.8260397512" y2="12.985644829" /><line stroke="white" stroke-width="0.1524" x1="-4.02194561208" x2="-3.42629135254" y1="13.8187968505" y2="13.9784019283" /><line stroke="white" stroke-width="0.1524" x1="-4.2879540751" x2="-3.69229981556" y1="14.8115539497" y2="14.9711590275" /><line stroke="white" stroke-width="0.1524" x1="-4.55396253813" x2="-3.95830827858" y1="15.804311049" y2="15.9639161268" /><line stroke="white" stroke-width="0.1524" x1="-4.81997100115" x2="-4.2243167416" y1="16.7970681482" y2="16.956673226" /><line stroke="white" stroke-width="0.1524" x1="-4.47555506859" x2="-4.38604396722" y1="17.9504709361" y2="17.5914615174" /><line stroke="white" stroke-width="0.1524" x1="-4.16159450536" x2="-4.07836261525" y1="18.0258461985" y2="17.6653292746" /><line stroke="white" stroke-width="0.1524" x1="-3.84636628013" x2="-3.76943895453" y1="18.0957306136" y2="17.7338160013" /><line stroke="white" stroke-width="0.1524" x1="-3.52996641447" x2="-3.45936708618" y1="18.1601028938" y2="17.7969008359" /><line stroke="white" stroke-width="0.1524" x1="-3.21249128684" x2="-3.08399163536" y1="18.2189434307" y2="17.4901856935" /><line stroke="white" stroke-width="0.1524" x1="-2.62353455092" x2="-2.73061759381" y1="14.8788038018" y2="15.4861019161" /><line stroke="white" stroke-width="0.1524" x1="-1.55270412197" x2="-1.65978716487" y1="8.80582265818" y2="9.41312077254" /><line stroke="white" stroke-width="0.1524" x1="-0.535415214473" x2="-0.642498257368" y1="3.03649057179" y2="3.64378868615" /><line stroke="white" stroke-width="0.1524" x1="-2.89403760324" x2="-2.83615685118" y1="18.272234301" y2="17.906789615" /><line stroke="white" stroke-width="0.1524" x1="-2.57470236776" x2="-2.52320832041" y1="18.3199592717" y2="17.9535600863" /><line stroke="white" stroke-width="0.1524" x1="-2.254582853" x2="-2.20949119594" y1="18.3621038054" y2="17.9948617293" /><line stroke="white" stroke-width="0.1524" x1="-1.93377657045" x2="-1.89510103904" y1="18.3986550643" y2="18.030681963" /><line stroke="white" stroke-width="0.1524" x1="-1.61238124083" x2="-1.56938440774" y1="18.4296019147" y2="17.9381458636" /><line stroke="white" stroke-width="0.1524" x1="-1.31677801335" x2="-1.37052405471" y1="15.0508415637" y2="15.6651616275" /><line stroke="white" stroke-width="0.1524" x1="-0.779317599735" x2="-0.833063641096" y1="8.90764092544" y2="9.52196098926" /><line stroke="white" stroke-width="0.1524" x1="-1.29049476427" x2="-1.26468486898" y1="18.4549349298" y2="18.0858362312" /><line stroke="white" stroke-width="0.1524" x1="-0.968215190494" x2="-0.948850886685" y1="18.474646393" y2="18.1051534651" /><line stroke="white" stroke-width="0.1524" x1="-0.645640688996" x2="-0.632727875216" y1="18.4887302999" y2="18.1189556939" /><line stroke="white" stroke-width="0.1524" x1="-0.32286951909" x2="-0.316412128708" y1="18.4971823604" y2="18.1272387132" /><line stroke="white" stroke-width="0.1524" x1="-3.39839486763e-15" x2="-3.26245907293e-15" y1="18.5" y2="17.76" /><line stroke="white" stroke-width="0.25" x1="-3.39839486763e-15" x2="-3.0207954379e-15" y1="18.5" y2="16.4444444444" /><line stroke="white" stroke-width="0.25" x1="-2.63375602242e-15" x2="-1.87855716294e-15" y1="14.3375" y2="10.2263888889" /><line stroke="white" stroke-width="0.25" x1="-1.52927769044e-15" x2="-1.69919743382e-16" y1="8.325" y2="0.925" /><line stroke="white" stroke-width="0.1524" x1="0.32286951909" x2="0.316412128708" y1="18.4971823604" y2="18.1272387132" /><line stroke="white" stroke-width="0.1524" x1="0.645640688996" x2="0.632727875216" y1="18.4887302999" y2="18.1189556939" /><line stroke="white" stroke-width="0.1524" x1="0.968215190494" x2="0.948850886685" y1="18.474646393" y2="18.1051534651" /><line stroke="white" stroke-width="0.1524" x1="1.29049476427" x2="1.26468486898" y1="18.4549349298" y2="18.0858362312" /><line stroke="white" stroke-width="0.1524" x1="1.61238124083" x2="1.56938440774" y1="18.4296019147" y2="17.9381458636" /><line stroke="white" stroke-width="0.1524" x1="1.31677801335" x2="1.37052405471" y1="15.0508415637" y2="15.6651616275" /><line stroke="white" stroke-width="0.1524" x1="0.779317599735" x2="0.833063641096" y1="8.90764092544" y2="9.52196098926" /><line stroke="white" stroke-width="0.1524" x1="1.93377657045" x2="1.89510103904" y1="18.3986550643" y2="18.030681963" /><line stroke="white" stroke-width="0.1524" x1="2.254582853" x2="2.20949119594" y1="18.3621038054" y2="17.9948617293" /><line stroke="white" stroke-width="0.1524" x1="2.57470236776" x2="2.52320832041" y1="18.3199592717" y2="17.9535600863" /><line stroke="white" stroke-width="0.1524" x1="2.89403760324" x2="2.83615685118" y1="18.272234301" y2="17.906789615" /><line stroke="white" stroke-width="0.1524" x1="3.21249128684" x2="3.08399163536" y1="18.2189434307" y2="17.4901856935" /><line stroke="white" stroke-width="0.1524" x1="2.62353455092" x2="2.73061759381" y1="14.8788038018" y2="15.4861019161" /><line stroke="white" stroke-width="0.1524" x1="1.55270412197" x2="1.65978716487" y1="8.80582265818" y2="9.41312077254" /><line stroke="white" stroke-width="0.1524" x1="0.535415214473" x2="0.642498257368" y1="3.03649057179" y2="3.64378868615" /><line stroke="white" stroke-width="0.1524" x1="3.52996641447" x2="3.45936708618" y1="18.1601028938" y2="17.7969008359" /><line stroke="white" stroke-width="0.1524" x1="3.84636628013" x2="3.76943895453" y1="18.0957306136" y2="17.7338160013" /><line stroke="white" stroke-width="0.1524" x1="4.16159450536" x2="4.07836261525" y1="18.0258461985" y2="17.6653292746" /><line stroke="white" stroke-width="0.1524" x1="4.47555506859" x2="4.38604396722" y1="17.9504709361" y2="17.5914615174" /><line stroke="white" stroke-width="0.1524" x1="4.7881523344" x2="4.66046827215" y1="17.8696277863" y2="17.3931043787" /><line stroke="white" stroke-width="0.1524" x1="3.91032440642" x2="4.06992948424" y1="14.5935293589" y2="15.1891836184" /><line stroke="white" stroke-width="0.1524" x1="2.31427362829" x2="2.4738787061" y1="8.6369867634" y2="9.23264102295" /><line stroke="white" stroke-width="0.1524" x1="0.766206722316" x2="1.36186098186" y1="4.05083093587" y2="3.89122585806" /><line stroke="white" stroke-width="0.1524" x1="1.03221518534" x2="1.62786944488" y1="5.04358803511" y2="4.8839829573" /><line stroke="white" stroke-width="0.1524" x1="1.56423211138" x2="2.15988637093" y1="7.0291022336" y2="6.86949715578" /><line stroke="white" stroke-width="0.1524" x1="1.8302405744" x2="2.42589483395" y1="8.02185933284" y2="7.86225425503" /><line stroke="white" stroke-width="0.1524" x1="2.09624903743" x2="2.69190329697" y1="9.01461643208" y2="8.85501135427" /><line stroke="white" stroke-width="0.1524" x1="2.36225750045" x2="2.95791175999" y1="10.0073735313" y2="9.84776845351" /><line stroke="white" stroke-width="0.1524" x1="2.62826596347" x2="3.22392022301" y1="11.0001306306" y2="10.8405255528" /><line stroke="white" stroke-width="0.1524" x1="3.16028288951" x2="3.75593714906" y1="12.985644829" y2="12.8260397512" /><line stroke="white" stroke-width="0.1524" x1="3.42629135254" x2="4.02194561208" y1="13.9784019283" y2="13.8187968505" /><line stroke="white" stroke-width="0.1524" x1="3.69229981556" x2="4.2879540751" y1="14.9711590275" y2="14.8115539497" /><line stroke="white" stroke-width="0.1524" x1="3.95830827858" x2="4.55396253813" y1="15.9639161268" y2="15.804311049" /><line stroke="white" stroke-width="0.1524" x1="4.2243167416" x2="4.81997100115" y1="16.956673226" y2="16.7970681482" /><line stroke="white" stroke-width="0.1524" x1="5.09929108261" x2="4.99730526096" y1="17.7833413749" y2="17.4276745474" /><line stroke="white" stroke-width="0.1524" x1="5.40887653737" x2="5.30069900662" y1="17.6916379853" y2="17.3378052256" /><line stroke="white" stroke-width="0.1524" x1="5.71681439594" x2="5.60247810802" y1="17.5945455515" y2="17.2426546404" /><line stroke="white" stroke-width="0.1524" x1="6.02301085746" x2="5.90255064031" y1="17.4920936486" y2="17.1422517756" /><line stroke="white" stroke-width="0.1524" x1="6.32737265152" x2="6.07427774546" y1="17.3843134845" y2="16.6889409452" /><line stroke="white" stroke-width="0.1524" x1="5.16735433208" x2="5.3782667538" y1="14.1971893457" y2="14.7766664619" /><line stroke="white" stroke-width="0.1524" x1="3.0582301149" x2="3.26914253662" y1="8.40241818419" y2="8.98189530035" /><line stroke="white" stroke-width="0.1524" x1="1.05456210859" x2="1.2654745303" y1="2.89738558076" y2="3.47686269691" /><line stroke="white" stroke-width="0.1524" x1="6.62980706659" x2="6.49721092526" y1="17.2712378902" y2="16.9258131324" /><line stroke="white" stroke-width="0.1524" x1="6.93022197819" x2="6.79161753863" y1="17.1529013095" y2="16.8098432833" /><line stroke="white" stroke-width="0.1524" x1="7.22852587705" x2="7.08395535951" y1="17.0293397889" y2="16.6887529931" /><line stroke="white" stroke-width="0.1524" x1="7.5246278969" x2="7.37413533896" y1="16.9005909664" y2="16.5625791471" /><line stroke="white" stroke-width="0.1524" x1="7.8184378422" x2="7.60994616641" y1="16.7666940602" y2="16.3195822186" /><line stroke="white" stroke-width="0.1524" x1="6.38505757113" x2="6.64567216587" y1="13.6928001491" y2="14.2516899512" /><line stroke="white" stroke-width="0.1524" x1="3.77891162373" x2="4.03952621847" y1="8.10390212909" y2="8.66279193109" /><line stroke="white" stroke-width="0.1524" x1="8.1098662156" x2="7.94766889129" y1="16.6276898565" y2="16.2951360594" /><line stroke="white" stroke-width="0.1524" x1="8.39882424518" x2="8.23084776028" y1="16.4836206975" y2="16.1539482835" /><line stroke="white" stroke-width="0.1524" x1="8.68522391154" x2="8.51151943331" y1="16.3345304679" y2="16.0078398585" /><line stroke="white" stroke-width="0.1524" x1="8.96897797456" x2="8.78959841507" y1="16.1804645821" y2="15.8568552904" /><line stroke="white" stroke-width="0.1524" x1="9.25" x2="8.88" y1="16.02146997" y2="15.3806111712" /><line stroke="white" stroke-width="0.25" x1="9.25" x2="8.22222222222" y1="16.02146997" y2="14.24130664" /><line stroke="white" stroke-width="0.25" x1="7.16875" x2="5.11319444444" y1="12.4166392268" y2="8.85631256676" /><line stroke="white" stroke-width="0.25" x1="4.1625" x2="0.4625" y1="7.20966148651" y2="0.801073498501" /><line stroke="white" stroke-width="0.1524" x1="9.52820438584" x2="9.33764029812" y1="15.857595063" y2="15.5404431617" /><line stroke="white" stroke-width="0.1524" x1="9.80350638831" x2="9.60743626055" y1="15.6888897789" y2="15.3751119833" /><line stroke="white" stroke-width="0.1524" x1="10.0758221478" x2="9.87430570482" y1="15.515405507" y2="15.2050973969" /><line stroke="white" stroke-width="0.1524" x1="10.3450687142" x2="10.1381673399" y1="15.3371950923" y2="15.0304511904" /><line stroke="white" stroke-width="0.1524" x1="10.6111640725" x2="10.3281996972" y1="15.1543128193" y2="14.7501978108" /><line stroke="white" stroke-width="0.1524" x1="8.66578399254" x2="9.01948946162" y1="12.3760221358" y2="12.8811658964" /><line stroke="white" stroke-width="0.1524" x1="5.12872930171" x2="5.48243477079" y1="7.32458452935" y2="7.82972829" /><line stroke="white" stroke-width="0.1524" x1="10.8740271674" x2="10.6565466241" y1="14.9668143959" y2="14.667478108" /><line stroke="white" stroke-width="0.1524" x1="11.1335779283" x2="10.9109063697" y1="14.7747569359" y2="14.4792617972" /><line stroke="white" stroke-width="0.1524" x1="11.3897372935" x2="11.1619425477" y1="14.5781989417" y2="14.2866349629" /><line stroke="white" stroke-width="0.1524" x1="11.6424272344" x2="11.4095786897" y1="14.377200287" y2="14.0896562812" /><line stroke="white" stroke-width="0.1524" x1="11.8915707792" x2="11.415907948" y1="14.1718221977" y2="13.6049493098" /><line stroke="white" stroke-width="0.1524" x1="9.71144946968" x2="10.1078351623" y1="11.5736547948" y2="12.046048868" /><line stroke="white" stroke-width="0.1524" x1="5.74759254328" x2="6.14397823592" y1="6.84971406222" y2="7.32210813548" /><line stroke="white" stroke-width="0.1524" x1="1.9819284632" x2="2.37831415584" y1="2.36197036628" y2="2.83436443954" /><line stroke="white" stroke-width="0.1524" x1="12.1370920363" x2="11.8943501956" y1="13.9621272341" y2="13.6828846894" /><line stroke="white" stroke-width="0.1524" x1="12.3789162176" x2="12.1313378933" y1="13.7481792713" y2="13.4732156859" /><line stroke="white" stroke-width="0.1524" x1="12.6169696612" x2="12.3646302679" y1="13.53004348" y2="13.2594426104" /><line stroke="white" stroke-width="0.1524" x1="12.8511798535" x2="12.5941562564" y1="13.3077863063" y2="13.0416305801" /><line stroke="white" stroke-width="0.1524" x1="13.081475452" x2="12.7326361066" y1="13.081475452" y2="12.7326361066" /><line stroke="white" stroke-width="0.1524" x1="10.6832049524" x2="11.1192541342" y1="10.6832049524" y2="11.1192541342" /><line stroke="white" stroke-width="0.1524" x1="6.32271313511" x2="6.75876231684" y1="6.32271313511" y2="6.75876231684" /><line stroke="white" stroke-width="0.1524" x1="2.68896995401" x2="3.12501913574" y1="3.12501913574" y2="2.68896995401" /><line stroke="white" stroke-width="0.1524" x1="3.41571859023" x2="3.85176777196" y1="3.85176777196" y2="3.41571859023" /><line stroke="white" stroke-width="0.1524" x1="4.86921586267" x2="5.3052650444" y1="5.3052650444" y2="4.86921586267" /><line stroke="white" stroke-width="0.1524" x1="5.59596449889" x2="6.03201368062" y1="6.03201368062" y2="5.59596449889" /><line stroke="white" stroke-width="0.1524" x1="6.32271313511" x2="6.75876231684" y1="6.75876231684" y2="6.32271313511" /><line stroke="white" stroke-width="0.1524" x1="7.04946177133" x2="7.48551095306" y1="7.48551095306" y2="7.04946177133" /><line stroke="white" stroke-width="0.1524" x1="7.77621040755" x2="8.21225958928" y1="8.21225958928" y2="7.77621040755" /><line stroke="white" stroke-width="0.1524" x1="9.22970767999" x2="9.66575686172" y1="9.66575686172" y2="9.22970767999" /><line stroke="white" stroke-width="0.1524" x1="9.95645631621" x2="10.3925054979" y1="10.3925054979" y2="9.95645631621" /><line stroke="white" stroke-width="0.1524" x1="10.6832049524" x2="11.1192541342" y1="11.1192541342" y2="10.6832049524" /><line stroke="white" stroke-width="0.1524" x1="11.4099535886" x2="11.8460027704" y1="11.8460027704" y2="11.4099535886" /><line stroke="white" stroke-width="0.1524" x1="12.1367022249" x2="12.5727514066" y1="12.5727514066" y2="12.1367022249" /><line stroke="white" stroke-width="0.1524" x1="13.3077863063" x2="13.0416305801" y1="12.8511798535" y2="12.5941562564" /><line stroke="white" stroke-width="0.1524" x1="13.53004348" x2="13.2594426104" y1="12.6169696612" y2="12.3646302679" /><line stroke="white" stroke-width="0.1524" x1="13.7481792713" x2="13.4732156859" y1="12.3789162176" y2="12.1313378933" /><line stroke="white" stroke-width="0.1524" x1="13.9621272341" x2="13.6828846894" y1="12.1370920363" y2="11.8943501956" /><line stroke="white" stroke-width="0.1524" x1="14.1718221977" x2="13.6049493098" y1="11.8915707792" y2="11.415907948" /><line stroke="white" stroke-width="0.1524" x1="11.5736547948" x2="12.046048868" y1="9.71144946968" y2="10.1078351623" /><line stroke="white" stroke-width="0.1524" x1="6.84971406222" x2="7.32210813548" y1="5.74759254328" y2="6.14397823592" /><line stroke="white" stroke-width="0.1524" x1="2.36197036628" x2="2.83436443954" y1="1.9819284632" y2="2.37831415584" /><line stroke="white" stroke-width="0.1524" x1="14.377200287" x2="14.0896562812" y1="11.6424272344" y2="11.4095786897" /><line stroke="white" stroke-width="0.1524" x1="14.5781989417" x2="14.2866349629" y1="11.3897372935" y2="11.1619425477" /><line stroke="white" stroke-width="0.1524" x1="14.7747569359" x2="14.4792617972" y1="11.1335779283" y2="10.9109063697" /><line stroke="white" stroke-width="0.1524" x1="14.9668143959" x2="14.667478108" y1="10.8740271674" y2="10.6565466241" /><line stroke="white" stroke-width="0.1524" x1="15.1543128193" x2="14.7501978108" y1="10.6111640725" y2="10.3281996972" /><line stroke="white" stroke-width="0.1524" x1="12.3760221358" x2="12.8811658964" y1="8.66578399254" y2="9.01948946162" /><line stroke="white" stroke-width="0.1524" x1="7.32458452935" x2="7.82972829" y1="5.12872930171" y2="5.48243477079" /><line stroke="white" stroke-width="0.1524" x1="15.3371950923" x2="15.0304511904" y1="10.3450687142" y2="10.1381673399" /><line stroke="white" stroke-width="0.1524" x1="15.515405507" x2="15.2050973969" y1="10.0758221478" y2="9.87430570482" /><line stroke="white" stroke-width="0.1524" x1="15.6888897789" x2="15.3751119833" y1="9.80350638831" y2="9.60743626055" /><line stroke="white" stroke-width="0.1524" x1="15.857595063" x2="15.5404431617" y1="9.52820438584" y2="9.33764029812" /><line stroke="white" stroke-width="0.1524" x1="16.02146997" x2="15.3806111712" y1="9.25" y2="8.88" /><line stroke="white" stroke-width="0.25" x1="16.02146997" x2="14.24130664" y1="9.25" y2="8.22222222222" /><line stroke="white" stroke-width="0.25" x1="12.4166392268" x2="8.85631256676" y1="7.16875" y2="5.11319444444" /><line stroke="white" stroke-width="0.25" x1="7.20966148651" x2="0.801073498501" y1="4.1625" y2="0.4625" /><line stroke="white" stroke-width="0.1524" x1="16.1804645821" x2="15.8568552904" y1="8.96897797456" y2="8.78959841507" /><line stroke="white" stroke-width="0.1524" x1="16.3345304679" x2="16.0078398585" y1="8.68522391154" y2="8.51151943331" /><line stroke="white" stroke-width="0.1524" x1="16.4836206975" x2="16.1539482835" y1="8.39882424518" y2="8.23084776028" /><line stroke="white" stroke-width="0.1524" x1="16.6276898565" x2="16.2951360594" y1="8.1098662156" y2="7.94766889129" /><line stroke="white" stroke-width="0.1524" x1="16.7666940602" x2="16.3195822186" y1="7.8184378422" y2="7.60994616641" /><line stroke="white" stroke-width="0.1524" x1="13.6928001491" x2="14.2516899512" y1="6.38505757113" y2="6.64567216587" /><line stroke="white" stroke-width="0.1524" x1="8.10390212909" x2="8.66279193109" y1="3.77891162373" y2="4.03952621847" /><line stroke="white" stroke-width="0.1524" x1="16.9005909664" x2="16.5625791471" y1="7.5246278969" y2="7.37413533896" /><line stroke="white" stroke-width="0.1524" x1="17.0293397889" x2="16.6887529931" y1="7.22852587705" y2="7.08395535951" /><line stroke="white" stroke-width="0.1524" x1="17.1529013095" x2="16.8098432833" y1="6.93022197819" y2="6.79161753863" /><line stroke="white" stroke-width="0.1524" x1="17.2712378902" x2="16.9258131324" y1="6.62980706659" y2="6.49721092526" /><line stroke="white" stroke-width="0.1524" x1="17.3843134845" x2="16.6889409452" y1="6.32737265152" y2="6.07427774546" /><line stroke="white" stroke-width="0.1524" x1="14.1971893457" x2="14.7766664619" y1="5.16735433208" y2="5.3782667538" /><line stroke="white" stroke-width="0.1524" x1="8.40241818419" x2="8.98189530035" y1="3.0582301149" y2="3.26914253662" /><line stroke="white" stroke-width="0.1524" x1="2.89738558076" x2="3.47686269691" y1="1.05456210859" y2="1.2654745303" /><line stroke="white" stroke-width="0.1524" x1="17.4920936486" x2="17.1422517756" y1="6.02301085746" y2="5.90255064031" /><line stroke="white" stroke-width="0.1524" x1="17.5945455515" x2="17.2426546404" y1="5.71681439594" y2="5.60247810802" /><line stroke="white" stroke-width="0.1524" x1="17.6916379853" x2="17.3378052256" y1="5.40887653737" y2="5.30069900662" /><line stroke="white" stroke-width="0.1524" x1="17.7833413749" x2="17.4276745474" y1="5.09929108261" y2="4.99730526096" /><line stroke="white" stroke-width="0.1524" x1="17.8696277863" x2="17.3931043787" y1="4.7881523344" y2="4.66046827215" /><line stroke="white" stroke-width="0.1524" x1="14.5935293589" x2="15.1891836184" y1="3.91032440642" y2="4.06992948424" /><line stroke="white" stroke-width="0.1524" x1="8.6369867634" x2="9.23264102295" y1="2.31427362829" y2="2.4738787061" /><line stroke="white" stroke-width="0.1524" x1="3.89122585806" x2="4.05083093587" y1="1.36186098186" y2="0.766206722316" /><line stroke="white" stroke-width="0.1524" x1="4.8839829573" x2="5.04358803511" y1="1.62786944488" y2="1.03221518534" /><line stroke="white" stroke-width="0.1524" x1="6.86949715578" x2="7.0291022336" y1="2.15988637093" y2="1.56423211138" /><line stroke="white" stroke-width="0.1524" x1="7.86225425503" x2="8.02185933284" y1="2.42589483395" y2="1.8302405744" /><line stroke="white" stroke-width="0.1524" x1="8.85501135427" x2="9.01461643208" y1="2.69190329697" y2="2.09624903743" /><line stroke="white" stroke-width="0.1524" x1="9.84776845351" x2="10.0073735313" y1="2.95791175999" y2="2.36225750045" /><line stroke="white" stroke-width="0.1524" x1="10.8405255528" x2="11.0001306306" y1="3.22392022301" y2="2.62826596347" /><line stroke="white" stroke-width="0.1524" x1="12.8260397512" x2="12.985644829" y1="3.75593714906" y2="3.16028288951" /><line stroke="white" stroke-width="0.1524" x1="13.8187968505" x2="13.9784019283" y1="4.02194561208" y2="3.42629135254" /><line stroke="white" stroke-width="0.1524" x1="14.8115539497" x2="14.9711590275" y1="4.2879540751" y2="3.69229981556" /><line stroke="white" stroke-width="0.1524" x1="15.804311049" x2="15.9639161268" y1="4.55396253813" y2="3.95830827858" /><line stroke="white" stroke-width="0.1524" x1="16.7970681482" x2="16.956673226" y1="4.81997100115" y2="4.2243167416" /><line stroke="white" stroke-width="0.1524" x1="17.9504709361" x2="17.5914615174" y1="4.47555506859" y2="4.38604396722" /><line stroke="white" stroke-width="0.1524" x1="18.0258461985" x2="17.6653292746" y1="4.16159450536" y2="4.07836261525" /><line stroke="white" stroke-width="0.1524" x1="18.0957306136" x2="17.7338160013" y1="3.84636628013" y2="3.76943895453" /><line stroke="white" stroke-width="0.1524" x1="18.1601028938" x2="17.7969008359" y1="3.52996641447" y2="3.45936708618" /><line stroke="white" stroke-width="0.1524" x1="18.2189434307" x2="17.4901856935" y1="3.21249128684" y2="3.08399163536" /><line stroke="white" stroke-width="0.1524" x1="14.8788038018" x2="15.4861019161" y1="2.62353455092" y2="2.73061759381" /><line stroke="white" stroke-width="0.1524" x1="8.80582265818" x2="9.41312077254" y1="1.55270412197" y2="1.65978716487" /><line stroke="white" stroke-width="0.1524" x1="3.03649057179" x2="3.64378868615" y1="0.535415214473" y2="0.642498257368" /><line stroke="white" stroke-width="0.1524" x1="18.272234301" x2="17.906789615" y1="2.89403760324" y2="2.83615685118" /><line stroke="white" stroke-width="0.1524" x1="18.3199592717" x2="17.9535600863" y1="2.57470236776" y2="2.52320832041" /><line stroke="white" stroke-width="0.1524" x1="18.3621038054" x2="17.9948617293" y1="2.254582853" y2="2.20949119594" /><line stroke="white" stroke-width="0.1524" x1="18.3986550643" x2="18.030681963" y1="1.93377657045" y2="1.89510103904" /><line stroke="white" stroke-width="0.1524" x1="18.4296019147" x2="17.9381458636" y1="1.61238124083" y2="1.56938440774" /><line stroke="white" stroke-width="0.1524" x1="15.0508415637" x2="15.6651616275" y1="1.31677801335" y2="1.37052405471" /><line stroke="white" stroke-width="0.1524" x1="8.90764092544" x2="9.52196098926" y1="0.779317599735" y2="0.833063641096" /><line stroke="white" stroke-width="0.1524" x1="18.4549349298" x2="18.0858362312" y1="1.29049476427" y2="1.26468486898" /><line stroke="white" stroke-width="0.1524" x1="18.474646393" x2="18.1051534651" y1="0.968215190494" y2="0.948850886685" /><line stroke="white" stroke-width="0.1524" x1="18.4887302999" x2="18.1189556939" y1="0.645640688996" y2="0.632727875216" /><line stroke="white" stroke-width="0.1524" x1="18.4971823604" x2="18.1272387132" y1="0.32286951909" y2="0.316412128708" /><polyline fill="none" points="-18.5,2.26559657842e-15 -18.4634944759,-1.16162461129 -18.3541219743,-2.31866482094 -18.1723141385,-3.46655431984 -17.9187884809,-4.60076291255 -17.5945455515,-5.71681439594 -17.2008649889,-6.81030422467 -16.7393004706,-7.87691689395 -16.2116735808,-8.91244297088 -15.6200666218,-9.91279570711 -14.9668143959,-10.8740271674 -14.2544949914,-11.7923438104 -13.4859196073,-12.6641214597 -12.6641214597,-13.4859196073 -11.7923438104,-14.2544949914 -10.8740271674,-14.9668143959 -9.91279570711,-15.6200666218 -8.91244297088,-16.2116735808 -7.87691689395,-16.7393004706 -6.81030422467,-17.2008649889 -5.71681439594,-17.5945455515 -4.60076291255,-17.9187884809 -3.46655431984,-18.1723141385 -2.31866482094,-18.3541219743 -1.16162461129,-18.4634944759 -3.39839486763e-15,-18.5 1.16162461129,-18.4634944759 2.31866482094,-18.3541219743 3.46655431984,-18.1723141385 4.60076291255,-17.9187884809 5.71681439594,-17.5945455515 6.81030422467,-17.2008649889 7.87691689395,-16.7393004706 8.91244297088,-16.2116735808 9.91279570711,-15.6200666218 10.8740271674,-14.9668143959 11.7923438104,-14.2544949914 12.6641214597,-13.4859196073 13.4859196073,-12.6641214597 14.2544949914,-11.7923438104 14.9668143959,-10.8740271674 15.6200666218,-9.91279570711 16.2116735808,-8.91244297088 16.7393004706,-7.87691689395 17.2008649889,-6.81030422467 17.5945455515,-5.71681439594 17.9187884809,-4.60076291255 18.1723141385,-3.46655431984 18.3541219743,-2.31866482094 18.4634944759,-1.16162461129 18.5,-4.53119315685e-15" stroke="black" stroke-width="0.1524" /><polyline fill="none" points="18.5,0.0 18.4634944759,1.16162461129 18.3541219743,2.31866482094 18.1723141385,3.46655431984 17.9187884809,4.60076291255 17.5945455515,5.71681439594 17.2008649889,6.81030422467 16.7393004706,7.87691689395 16.2116735808,8.91244297088 15.6200666218,9.91279570711 14.9668143959,10.8740271674 14.2544949914,11.7923438104 13.4859196073,12.6641214597 12.6641214597,13.4859196073 11.7923438104,14.2544949914 10.8740271674,14.9668143959 9.91279570711,15.6200666218 8.91244297088,16.2116735808 7.87691689395,16.7393004706 6.81030422467,17.2008649889 5.71681439594,17.5945455515 4.60076291255,17.9187884809 3.46655431984,18.1723141385 2.31866482094,18.3541219743 1.16162461129,18.4634944759 -2.9750269019e-15,18.5 -1.16162461129,18.4634944759 -2.31866482094,18.3541219743 -3.46655431984,18.1723141385 -4.60076291255,17.9187884809 -5.71681439594,17.5945455515 -6.81030422467,17.2008649889 -7.87691689395,16.7393004706 -8.91244297088,16.2116735808 -9.91279570711,15.6200666218 -10.8740271674,14.9668143959 -11.7923438104,14.2544949914 -12.6641214597,13.4859196073 -13.4859196073,12.6641214597 -14.2544949914,11.7923438104 -14.9668143959,10.8740271674 -15.6200666218,9.91279570711 -16.2116735808,8.91244297088 -16.7393004706,7.87691689395 -17.2008649889,6.81030422467 -17.5945455515,5.71681439594 -17.9187884809,4.60076291255 -18.1723141385,3.46655431984 -18.3541219743,2.31866482094 -18.4634944759,1.16162461129 -18.5,-5.9500538038e-15" stroke="white" stroke-width="0.1524" /><polyline fill="none" points="-12.3333333333,1.51039771895e-15 -12.2657700429,-1.2891843803 -12.0638204091,-2.56424418675 -11.7296970343,-3.81120959729 -11.2670606443,-5.01641859793 -10.68097998,-6.16666666667 -9.97787626396,-7.24935144494 -9.16545284755,-8.25261081176 -8.25261081176,-9.16545284755 -7.24935144494,-9.97787626396 -6.16666666667,-10.68097998 -5.01641859793,-11.2670606443 -3.81120959729,-11.7296970343 -2.56424418675,-12.0638204091 -1.2891843803,-12.2657700429 -2.26559657842e-15,-12.3333333333 1.2891843803,-12.2657700429 2.56424418675,-12.0638204091 3.81120959729,-11.7296970343 5.01641859793,-11.2670606443 6.16666666667,-10.68097998 7.24935144494,-9.97787626396 8.25261081176,-9.16545284755 9.16545284755,-8.25261081176 9.97787626396,-7.24935144494 10.68097998,-6.16666666667 11.2670606443,-5.01641859793 11.7296970343,-3.81120959729 12.0638204091,-2.56424418675 12.2657700429,-1.2891843803 12.3333333333,-3.0207954379e-15" stroke="black" stroke-width="0.25" /><polyline fill="none" points="12.3333333333,0.0 12.2657700429,1.2891843803 12.0638204091,2.56424418675 11.7296970343,3.81120959729 11.2670606443,5.01641859793 10.68097998,6.16666666667 9.97787626396,7.24935144494 9.16545284755,8.25261081176 8.25261081176,9.16545284755 7.24935144494,9.97787626396 6.16666666667,10.68097998 5.01641859793,11.2670606443 3.81120959729,11.7296970343 2.56424418675,12.0638204091 1.2891843803,12.2657700429 7.55198859474e-16,12.3333333333 -1.2891843803,12.2657700429 -2.56424418675,12.0638204091 -3.81120959729,11.7296970343 -5.01641859793,11.2670606443 -6.16666666667,10.68097998 -7.24935144494,9.97787626396 -8.25261081176,9.16545284755 -9.16545284755,8.25261081176 -9.97787626396,7.24935144494 -10.68097998,6.16666666667 -11.2670606443,5.01641859793 -11.7296970343,3.81120959729 -12.0638204091,2.56424418675 -12.2657700429,1.2891843803 -12.3333333333,1.51039771895e-15" stroke="white" stroke-width="0.25" /><polyline fill="none" points="-6.16666666667,7.55198859474e-16 -6.13288502144,-0.644592190151 -6.03191020453,-1.28212209338 -5.86484851715,-1.90560479865 -5.63353032213,-2.50820929897 -5.34048999,-3.08333333333 -4.98893813198,-3.62467572247 -4.58272642378,-4.12630540588 -4.12630540588,-4.58272642378 -3.62467572247,-4.98893813198 -3.08333333333,-5.34048999 -2.50820929897,-5.63353032213 -1.90560479865,-5.86484851715 -1.28212209338,-6.03191020453 -0.644592190151,-6.13288502144 -1.13279828921e-15,-6.16666666667 0.644592190151,-6.13288502144 1.28212209338,-6.03191020453 1.90560479865,-5.86484851715 2.50820929897,-5.63353032213 3.08333333333,-5.34048999 3.62467572247,-4.98893813198 4.12630540588,-4.58272642378 4.58272642378,-4.12630540588 4.98893813198,-3.62467572247 5.34048999,-3.08333333333 5.63353032213,-2.50820929897 5.86484851715,-1.90560479865 6.03191020453,-1.28212209338 6.13288502144,-0.644592190151 6.16666666667,-1.51039771895e-15" stroke="black" stroke-width="0.25" /><polyline fill="none" points="6.16666666667,0.0 6.13288502144,0.644592190151 6.03191020453,1.28212209338 5.86484851715,1.90560479865 5.63353032213,2.50820929897 5.34048999,3.08333333333 4.98893813198,3.62467572247 4.58272642378,4.12630540588 4.12630540588,4.58272642378 3.62467572247,4.98893813198 3.08333333333,5.34048999 2.50820929897,5.63353032213 1.90560479865,5.86484851715 1.28212209338,6.03191020453 0.644592190151,6.13288502144 3.77599429737e-16,6.16666666667 -0.644592190151,6.13288502144 -1.28212209338,6.03191020453 -1.90560479865,5.86484851715 -2.50820929897,5.63353032213 -3.08333333333,5.34048999 -3.62467572247,4.98893813198 -4.12630540588,4.58272642378 -4.58272642378,4.12630540588 -4.98893813198,3.62467572247 -5.34048999,3.08333333333 -5.63353032213,2.50820929897 -5.86484851715,1.90560479865 -6.03191020453,1.28212209338 -6.13288502144,0.644592190151 -6.16666666667,7.55198859474e-16" stroke="white" stroke-width="0.25" /><polyline fill="none" points="-1.02777777778,1.25866476579e-16 -1.02214750357,-0.107432031692 -1.00531836742,-0.213687015563 -0.977474752859,-0.317600799774 -0.938921720355,-0.418034883161 -0.890081665001,-0.513888888889 -0.831489688663,-0.604112620412 -0.763787737296,-0.687717567647 -0.687717567647,-0.763787737296 -0.604112620412,-0.831489688663 -0.513888888889,-0.890081665001 -0.418034883161,-0.938921720355 -0.317600799774,-0.977474752859 -0.213687015563,-1.00531836742 -0.107432031692,-1.02214750357 -1.88799714869e-16,-1.02777777778 0.107432031692,-1.02214750357 0.213687015563,-1.00531836742 0.317600799774,-0.977474752859 0.418034883161,-0.938921720355 0.513888888889,-0.890081665001 0.604112620412,-0.831489688663 0.687717567647,-0.763787737296 0.763787737296,-0.687717567647 0.831489688663,-0.604112620412 0.890081665001,-0.513888888889 0.938921720355,-0.418034883161 0.977474752859,-0.317600799774 1.00531836742,-0.213687015563 1.02214750357,-0.107432031692 1.02777777778,-2.51732953158e-16" stroke="black" stroke-width="0.25" /><polyline fill="none" points="1.02777777778,0.0 1.02214750357,0.107432031692 1.00531836742,0.213687015563 0.977474752859,0.317600799774 0.938921720355,0.418034883161 0.890081665001,0.513888888889 0.831489688663,0.604112620412 0.763787737296,0.687717567647 0.687717567647,0.763787737296 0.604112620412,0.831489688663 0.513888888889,0.890081665001 0.418034883161,0.938921720355 0.317600799774,0.977474752859 0.213687015563,1.00531836742 0.107432031692,1.02214750357 6.29332382895e-17,1.02777777778 -0.107432031692,1.02214750357 -0.213687015563,1.00531836742 -0.317600799774,0.977474752859 -0.418034883161,0.938921720355 -0.513888888889,0.890081665001 -0.604112620412,0.831489688663 -0.687717567647,0.763787737296 -0.763787737296,0.687717567647 -0.831489688663,0.604112620412 -0.890081665001,0.513888888889 -0.938921720355,0.418034883161 -0.977474752859,0.317600799774 -1.00531836742,0.213687015563 -1.02214750357,0.107432031692 -1.02777777778,1.25866476579e-16" stroke="white" stroke-width="0.25" /><polyline fill="none" points="-2.05555555556,2.51732953158e-16 -2.04429500715,-0.214864063384 -2.01063673484,-0.427374031125 -1.95494950572,-0.635201599549 -1.87784344071,-0.836069766322 -1.78016333,-1.02777777778 -1.66297937733,-1.20822524082 -1.52757547459,-1.37543513529 -1.37543513529,-1.52757547459 -1.20822524082,-1.66297937733 -1.02777777778,-1.78016333 -0.836069766322,-1.87784344071 -0.635201599549,-1.95494950572 -0.427374031125,-2.01063673484 -0.214864063384,-2.04429500715 -3.77599429737e-16,-2.05555555556 0.214864063384,-2.04429500715 0.427374031125,-2.01063673484 0.635201599549,-1.95494950572 0.836069766322,-1.87784344071 1.02777777778,-1.78016333 1.20822524082,-1.66297937733 1.37543513529,-1.52757547459 1.52757547459,-1.37543513529 1.66297937733,-1.20822524082 1.78016333,-1.02777777778 1.87784344071,-0.836069766322 1.95494950572,-0.635201599549 2.01063673484,-0.427374031125 2.04429500715,-0.214864063384 2.05555555556,-5.03465906316e-16" stroke="black" stroke-width="0.25" /><polyline fill="none" points="2.05555555556,0.0 2.04429500715,0.214864063384 2.01063673484,0.427374031125 1.95494950572,0.635201599549 1.87784344071,0.836069766322 1.78016333,1.02777777778 1.66297937733,1.20822524082 1.52757547459,1.37543513529 1.37543513529,1.52757547459 1.20822524082,1.66297937733 1.02777777778,1.78016333 0.836069766322,1.87784344071 0.635201599549,1.95494950572 0.427374031125,2.01063673484 0.214864063384,2.04429500715 1.25866476579e-16,2.05555555556 -0.214864063384,2.04429500715 -0.427374031125,2.01063673484 -0.635201599549,1.95494950572 -0.836069766322,1.87784344071 -1.02777777778,1.78016333 -1.20822524082,1.66297937733 -1.37543513529,1.52757547459 -1.52757547459,1.37543513529 -1.66297937733,1.20822524082 -1.78016333,1.02777777778 -1.87784344071,0.836069766322 -1.95494950572,0.635201599549 -2.01063673484,0.427374031125 -2.04429500715,0.214864063384 -2.05555555556,2.51732953158e-16" stroke="white" stroke-width="0.25" /><polyline fill="none" points="-3.08333333333,3.77599429737e-16 -3.06644251072,-0.322296095075 -3.01595510226,-0.641061046688 -2.93242425858,-0.952802399323 -2.81676516106,-1.25410464948 -2.670244995,-1.54166666667 -2.49446906599,-1.81233786124 -2.29136321189,-2.06315270294 -2.06315270294,-2.29136321189 -1.81233786124,-2.49446906599 -1.54166666667,-2.670244995 -1.25410464948,-2.81676516106 -0.952802399323,-2.93242425858 -0.641061046688,-3.01595510226 -0.322296095075,-3.06644251072 -5.66399144606e-16,-3.08333333333 0.322296095075,-3.06644251072 0.641061046688,-3.01595510226 0.952802399323,-2.93242425858 1.25410464948,-2.81676516106 1.54166666667,-2.670244995 1.81233786124,-2.49446906599 2.06315270294,-2.29136321189 2.29136321189,-2.06315270294 2.49446906599,-1.81233786124 2.670244995,-1.54166666667 2.81676516106,-1.25410464948 2.93242425858,-0.952802399323 3.01595510226,-0.641061046688 3.06644251072,-0.322296095075 3.08333333333,-7.55198859474e-16" stroke="black" stroke-width="0.25" /><polyline fill="none" points="3.08333333333,0.0 3.06644251072,0.322296095075 3.01595510226,0.641061046688 2.93242425858,0.952802399323 2.81676516106,1.25410464948 2.670244995,1.54166666667 2.49446906599,1.81233786124 2.29136321189,2.06315270294 2.06315270294,2.29136321189 1.81233786124,2.49446906599 1.54166666667,2.670244995 1.25410464948,2.81676516106 0.952802399323,2.93242425858 0.641061046688,3.01595510226 0.322296095075,3.06644251072 1.88799714869e-16,3.08333333333 -0.322296095075,3.06644251072 -0.641061046688,3.01595510226 -0.952802399323,2.93242425858 -1.25410464948,2.81676516106 -1.54166666667,2.670244995 -1.81233786124,2.49446906599 -2.06315270294,2.29136321189 -2.29136321189,2.06315270294 -2.49446906599,1.81233786124 -2.670244995,1.54166666667 -2.81676516106,1.25410464948 -2.93242425858,0.952802399323 -3.01595510226,0.641061046688 -3.06644251072,0.322296095075 -3.08333333333,3.77599429737e-16" stroke="white" stroke-width="0.25" /></g><g id="radials" stroke="black" stroke-width="0.25" /></svg>