<?xml version="1.0" encoding="utf-8" ?>
<svg baseProfile="full" height="40mm" version="1.1" viewBox="-20 -20 40 40" width="40mm" xmlns="http://www.w3.org/2000/svg" xmlns:ev="http://www.w3.org/2001/xml-events" xmlns:xlink="http://www.w3.org/1999/xlink"><defs /><g id="outer_ticks" stroke="black" stroke-width="0.1524"><line stroke="black" stroke-width="0.1524" x1="18.35" x2="17.616" y1="0.0" y2="0.0" /><line stroke="black" stroke-width="0.25" x1="18.35" x2="16.3111111111" y1="0.0" y2="0.0" /><line stroke="black" stroke-width="0.25" x1="14.22125" x2="10.1434722222" y1="0.0" y2="0.0" /><line stroke="black" stroke-width="0.25" x1="8.2575" x2="0.9175" y1="0.0" y2="0.0" /><line stroke="black" stroke-width="0.1524" x1="18.3472052061" x2="17.980261102" y1="-0.320251658124" y2="-0.313846624962" /><line stroke="black" stroke-width="0.1524" x1="18.3388216758" x2="17.9720452423" y1="-0.640405764491" y2="-0.627597649201" /><line stroke="black" stroke-width="0.1524" x1="18.3248519627" x2="17.9583549235" y1="-0.960364797058" y2="-0.941157501117" /><line stroke="black" stroke-width="0.1524" x1="18.3053003223" x2="17.9391943158" y1="-1.2800312932" y2="-1.25443066734" /><line stroke="black" stroke-width="0.1524" x1="18.28017271" x2="17.7927014377" y1="-1.59930787942" y2="-1.5566596693" /><line stroke="black" stroke-width="0.1524" x1="14.9288077132" x2="15.5381468035" y1="-1.30610143486" y2="-1.35941169751" /><line stroke="black" stroke-width="0.1524" x1="8.83541680983" x2="9.44475590016" y1="-0.772998808386" y2="-0.826309071033" /><line stroke="black" stroke-width="0.1524" x1="18.24947678" x2="17.8844872444" y1="-1.91809730096" y2="-1.87973535494" /><line stroke="black" stroke-width="0.1524" x1="18.2132218826" x2="17.848957445" y1="-2.23630245148" y2="-2.19157640245" /><line stroke="black" stroke-width="0.1524" x1="18.1714190614" x2="17.8079906802" y1="-2.55382640262" y2="-2.50274987456" /><line stroke="black" stroke-width="0.1524" x1="18.1240810499" x2="17.7615994289" y1="-2.87057243349" y2="-2.81316098482" /><line stroke="black" stroke-width="0.1524" x1="18.0712222678" x2="17.3483733771" y1="-3.18644406019" y2="-3.05898629778" /><line stroke="black" stroke-width="0.1524" x1="14.758164852" x2="15.3605389276" y1="-2.60226264915" y2="-2.70847745116" /><line stroke="black" stroke-width="0.1524" x1="8.73442409609" x2="9.33679817168" y1="-1.54011462909" y2="-1.6463294311" /><line stroke="black" stroke-width="0.1524" x1="3.01187037796" x2="3.61424445355" y1="-0.531074010031" y2="-0.637288812038" /><line stroke="black" stroke-width="0.1524" x1="18.0128588163" x2="17.6526016399" y1="-3.50134506516" y2="-3.43131816386" /><line stroke="black" stroke-width="0.1524" x1="17.9490084735" x2="17.590028304" y1="-3.81517952651" y2="-3.73887593598" /><line stroke="black" stroke-width="0.1524" x1="17.8796906888" x2="17.522096875" y1="-4.12785184721" y2="-4.04529481027" /><line stroke="black" stroke-width="0.1524" x1="17.8049265772" x2="17.4488280456" y1="-4.43926678425" y2="-4.35048144857" /><line stroke="black" stroke-width="0.1524" x1="17.7247389124" x2="17.2520792081" y1="-4.74932947763" y2="-4.62268069156" /><line stroke="black" stroke-width="0.1524" x1="14.4752034451" x2="15.0660280755" y1="-3.8786190734" y2="-4.03693005599" /><line stroke="black" stroke-width="0.1524" x1="8.566957141" x2="9.15778177141" y1="-2.29550924752" y2="-2.45382023011" /><line stroke="black" stroke-width="0.1524" x1="4.01798636072" x2="3.85967537813" y1="-0.759994235378" y2="-1.35081886579" /><line stroke="black" stroke-width="0.1524" x1="5.00269407807" x2="4.84438309549" y1="-1.02384587302" y2="-1.61467050344" /><line stroke="black" stroke-width="0.1524" x1="6.97210951278" x2="6.8137985302" y1="-1.55154914832" y2="-2.14237377873" /><line stroke="black" stroke-width="0.1524" x1="7.95681723014" x2="7.79850624755" y1="-1.81540078596" y2="-2.40622541638" /><line stroke="black" stroke-width="0.1524" x1="8.9415249475" x2="8.78321396491" y1="-2.07925242361" y2="-2.67007705402" /><line stroke="black" stroke-width="0.1524" x1="9.92623266485" x2="9.76792168226" y1="-2.34310406126" y2="-2.93392869167" /><line stroke="black" stroke-width="0.1524" x1="10.9109403822" x2="10.7526293996" y1="-2.6069556989" y2="-3.19778032931" /><line stroke="black" stroke-width="0.1524" x1="12.8803558169" x2="12.7220448343" y1="-3.13465897419" y2="-3.72548360461" /><line stroke="black" stroke-width="0.1524" x1="13.8650635343" x2="13.7067525517" y1="-3.39851061184" y2="-3.98933524225" /><line stroke="black" stroke-width="0.1524" x1="14.8497712516" x2="14.691460269" y1="-3.66236224949" y2="-4.2531868799" /><line stroke="black" stroke-width="0.1524" x1="15.834478969" x2="15.6761679864" y1="-3.92621388713" y2="-4.51703851755" /><line stroke="black" stroke-width="0.1524" x1="16.8191866863" x2="16.6608757038" y1="-4.19006552478" y2="-4.78089015519" /><line stroke="black" stroke-width="0.1524" x1="17.6391521205" x2="17.2863690781" y1="-5.05794547924" y2="-4.95678656966" /><line stroke="black" stroke-width="0.1524" x1="17.5481922719" x2="17.1972284265" y1="-5.36502078166" y2="-5.25772036603" /><line stroke="black" stroke-width="0.1524" x1="17.451887074" x2="17.1028493325" y1="-5.67046184678" y2="-5.55705260984" /><line stroke="black" stroke-width="0.1524" x1="17.3502658622" x2="17.003260545" y1="-5.97417563429" y2="-5.8546921216" /><line stroke="black" stroke-width="0.1524" x1="17.2433595914" x2="16.5536252078" y1="-6.27606963003" y2="-6.02502684482" /><line stroke="black" stroke-width="0.1524" x1="14.0820769997" x2="14.6568556527" y1="-5.12545686452" y2="-5.33465918552" /><line stroke="black" stroke-width="0.1524" x1="8.33429046919" x2="8.90906912223" y1="-3.03343365451" y2="-3.24263597551" /><line stroke="black" stroke-width="0.1524" x1="2.87389326524" x2="3.44867191828" y1="-1.046011605" y2="-1.25521392601" /><line stroke="black" stroke-width="0.1524" x1="17.1312008262" x2="16.7885768097" y1="-6.57605187416" y2="-6.44453083667" /><line stroke="black" stroke-width="0.1524" x1="17.0138237313" x2="16.6735472567" y1="-6.87403098918" y2="-6.7365503694" /><line stroke="black" stroke-width="0.1524" x1="16.8912640609" x2="16.5534387796" y1="-7.16991620778" y2="-7.02651788362" /><line stroke="black" stroke-width="0.1524" x1="16.7635591477" x2="16.4282879648" y1="-7.46361740044" y2="-7.31434505243" /><line stroke="black" stroke-width="0.1524" x1="16.6307478921" x2="16.1872612817" y1="-7.75504510294" y2="-7.5482439002" /><line stroke="black" stroke-width="0.1524" x1="13.5817774452" x2="14.1361357083" y1="-6.33328683407" y2="-6.5917883375" /><line stroke="black" stroke-width="0.1524" x1="8.03819481453" x2="8.5925530776" y1="-3.74827179976" y2="-4.00677330319" /><line stroke="black" stroke-width="0.1524" x1="16.4928707496" x2="16.1630133346" y1="-8.04411054358" y2="-7.88322833271" /><line stroke="black" stroke-width="0.1524" x1="16.3499697189" x2="16.0229703245" y1="-8.33072567022" y2="-8.16411115682" /><line stroke="black" stroke-width="0.1524" x1="16.202088329" x2="15.8780465624" y1="-8.61480317712" y2="-8.44250711358" /><line stroke="black" stroke-width="0.1524" x1="16.049271626" x2="15.7282861935" y1="-8.89625653152" y2="-8.71833140089" /><line stroke="black" stroke-width="0.1524" x1="15.8915661594" x2="15.2559035131" y1="-9.175" y2="-8.808" /><line stroke="black" stroke-width="0.25" x1="15.8915661594" x2="14.1258365862" y1="-9.175" y2="-8.15555555556" /><line stroke="black" stroke-width="0.25" x1="12.3159637736" x2="8.78450462703" y1="-7.110625" y2="-5.07173611111" /><line stroke="black" stroke-width="0.25" x1="7.15120477175" x2="0.794578307972" y1="-4.12875" y2="-0.45875" /><line stroke="black" stroke-width="0.1524" x1="15.7290199679" x2="15.4144395685" y1="-9.4509486746" y2="-9.26192970111" /><line stroke="black" stroke-width="0.1524" x1="15.5616825645" x2="15.2504489132" y1="-9.72401849868" y2="-9.52953812871" /><line stroke="black" stroke-width="0.1524" x1="15.3896049218" x2="15.0818128234" y1="-9.99412629253" y2="-9.79424376668" /><line stroke="black" stroke-width="0.1524" x1="15.2128394564" x2="14.9085826673" y1="-10.2611897787" y2="-10.0559659831" /><line stroke="black" stroke-width="0.1524" x1="15.0314400127" x2="14.6306016124" y1="-10.525127607" y2="-10.2444575375" /><line stroke="black" stroke-width="0.1524" x1="12.2756760104" x2="12.7767240108" y1="-8.59552087908" y2="-8.94635846599" /><line stroke="black" stroke-width="0.1524" x1="7.26519600614" x2="7.76624400656" y1="-5.08714501007" y2="-5.43798259697" /><line stroke="black" stroke-width="0.1524" x1="14.8454618468" x2="14.5485526098" y1="-10.7858593796" y2="-10.570142192" /><line stroke="black" stroke-width="0.1524" x1="14.6549616094" x2="14.3618623772" y1="-11.0433056748" y2="-10.8224395613" /><line stroke="black" stroke-width="0.1524" x1="14.4599973287" x2="14.1707973821" y1="-11.2973880722" y2="-11.0714403108" /><line stroke="black" stroke-width="0.1524" x1="14.2606283927" x2="13.9754158249" y1="-11.5480291758" y2="-11.3170685922" /><line stroke="black" stroke-width="0.1524" x1="14.0569155312" x2="13.49463891" y1="-11.7951526377" y2="-11.3233465322" /><line stroke="black" stroke-width="0.1524" x1="11.4798143505" x2="11.9483782015" y1="-9.63270798749" y2="-10.0258797421" /><line stroke="black" stroke-width="0.1524" x1="6.7941758401" x2="7.26273969114" y1="-5.70099044158" y2="-6.09416219617" /><line stroke="black" stroke-width="0.1524" x1="2.34281925521" x2="2.81138310625" y1="-1.96585877296" y2="-2.35903052755" /><line stroke="black" stroke-width="0.1524" x1="13.8489207971" x2="13.5719423811" y1="-12.038683182" y2="-11.7979095183" /><line stroke="black" stroke-width="0.1524" x1="13.6367075475" x2="13.3639733966" y1="-12.2785466267" y2="-12.0329756942" /><line stroke="black" stroke-width="0.1524" x1="13.4203404247" x2="13.1519336162" y1="-12.5146699071" y2="-12.264376509" /><line stroke="black" stroke-width="0.1524" x1="13.1998853362" x2="12.9358876295" y1="-12.7469810979" y2="-12.492041476" /><line stroke="black" stroke-width="0.1524" x1="12.9754094348" x2="12.6293985165" y1="-12.9754094348" y2="-12.6293985165" /><line stroke="black" stroke-width="0.1524" x1="10.5965843717" x2="11.0290980196" y1="-10.5965843717" y2="-11.0290980196" /><line stroke="black" stroke-width="0.1524" x1="6.27144789347" x2="6.7039615413" y1="-6.27144789347" y2="-6.7039615413" /><line stroke="black" stroke-width="0.1524" x1="3.09968114275" x2="2.66716749493" y1="-2.66716749493" y2="-3.09968114275" /><line stroke="black" stroke-width="0.1524" x1="3.82053722246" x2="3.38802357464" y1="-3.38802357464" y2="-3.82053722246" /><line stroke="black" stroke-width="0.1524" x1="5.26224938188" x2="4.82973573405" y1="-4.82973573405" y2="-5.26224938188" /><line stroke="black" stroke-width="0.1524" x1="5.98310546159" x2="5.55059181376" y1="-5.55059181376" y2="-5.98310546159" /><line stroke="black" stroke-width="0.1524" x1="6.7039615413" x2="6.27144789347" y1="-6.27144789347" y2="-6.7039615413" /><line stroke="black" stroke-width="0.1524" x1="7.42481762101" x2="6.99230397318" y1="-6.99230397318" y2="-7.42481762101" /><line stroke="black" stroke-width="0.1524" x1="8.14567370072" x2="7.71316005289" y1="-7.71316005289" y2="-8.14567370072" /><line stroke="black" stroke-width="0.1524" x1="9.58738586014" x2="9.15487221231" y1="-9.15487221231" y2="-9.58738586014" /><line stroke="black" stroke-width="0.1524" x1="10.3082419398" x2="9.87572829202" y1="-9.87572829202" y2="-10.3082419398" /><line stroke="black" stroke-width="0.1524" x1="11.0290980196" x2="10.5965843717" y1="-10.5965843717" y2="-11.0290980196" /><line stroke="black" stroke-width="0.1524" x1="11.7499540993" x2="11.3174404514" y1="-11.3174404514" y2="-11.7499540993" /><line stroke="black" stroke-width="0.1524" x1="12.470810179" x2="12.0382965312" y1="-12.0382965312" y2="-12.470810179" /><line stroke="black" stroke-width="0.1524" x1="12.7469810979" x2="12.492041476" y1="-13.1998853362" y2="-12.9358876295" /><line stroke="black" stroke-width="0.1524" x1="12.5146699071" x2="12.264376509" y1="-13.4203404247" y2="-13.1519336162" /><line stroke="black" stroke-width="0.1524" x1="12.2785466267" x2="12.0329756942" y1="-13.6367075475" y2="-13.3639733966" /><line stroke="black" stroke-width="0.1524" x1="12.038683182" x2="11.7979095183" y1="-13.8489207971" y2="-13.5719423811" /><line stroke="black" stroke-width="0.1524" x1="11.7951526377" x2="11.3233465322" y1="-14.0569155312" y2="-13.49463891" /><line stroke="black" stroke-width="0.1524" x1="9.63270798749" x2="10.0258797421" y1="-11.4798143505" y2="-11.9483782015" /><line stroke="black" stroke-width="0.1524" x1="5.70099044158" x2="6.09416219617" y1="-6.7941758401" y2="-7.26273969114" /><line stroke="black" stroke-width="0.1524" x1="1.96585877296" x2="2.35903052755" y1="-2.34281925521" y2="-2.81138310625" /><line stroke="black" stroke-width="0.1524" x1="11.5480291758" x2="11.3170685922" y1="-14.2606283927" y2="-13.9754158249" /><line stroke="black" stroke-width="0.1524" x1="11.2973880722" x2="11.0714403108" y1="-14.4599973287" y2="-14.1707973821" /><line stroke="black" stroke-width="0.1524" x1="11.0433056748" x2="10.8224395613" y1="-14.6549616094" y2="-14.3618623772" /><line stroke="black" stroke-width="0.1524" x1="10.7858593796" x2="10.570142192" y1="-14.8454618468" y2="-14.5485526098" /><line stroke="black" stroke-width="0.1524" x1="10.525127607" x2="10.2444575375" y1="-15.0314400127" y2="-14.6306016124" /><line stroke="black" stroke-width="0.1524" x1="8.59552087908" x2="8.94635846599" y1="-12.2756760104" y2="-12.7767240108" /><line stroke="black" stroke-width="0.1524" x1="5.08714501007" x2="5.43798259697" y1="-7.26519600614" y2="-7.76624400656" /><line stroke="black" stroke-width="0.1524" x1="10.2611897787" x2="10.0559659831" y1="-15.2128394564" y2="-14.9085826673" /><line stroke="black" stroke-width="0.1524" x1="9.99412629253" x2="9.79424376668" y1="-15.3896049218" y2="-15.0818128234" /><line stroke="black" stroke-width="0.1524" x1="9.72401849868" x2="9.52953812871" y1="-15.5616825645" y2="-15.2504489132" /><line stroke="black" stroke-width="0.1524" x1="9.4509486746" x2="9.26192970111" y1="-15.7290199679" y2="-15.4144395685" /><line stroke="black" stroke-width="0.1524" x1="9.175" x2="8.808" y1="-15.8915661594" y2="-15.2559035131" /><line stroke="black" stroke-width="0.25" x1="9.175" x2="8.15555555556" y1="-15.8915661594" y2="-14.1258365862" /><line stroke="black" stroke-width="0.25" x1="7.110625" x2="5.07173611111" y1="-12.3159637736" y2="-8.78450462703" /><line stroke="black" stroke-width="0.25" x1="4.12875" x2="0.45875" y1="-7.15120477175" y2="-0.794578307972" /><line stroke="black" stroke-width="0.1524" x1="8.89625653152" x2="8.71833140089" y1="-16.049271626" y2="-15.7282861935" /><line stroke="black" stroke-width="0.1524" x1="8.61480317712" x2="8.44250711358" y1="-16.202088329" y2="-15.8780465624" /><line stroke="black" stroke-width="0.1524" x1="8.33072567022" x2="8.16411115682" y1="-16.3499697189" y2="-16.0229703245" /><line stroke="black" stroke-width="0.1524" x1="8.04411054358" x2="7.88322833271" y1="-16.4928707496" y2="-16.1630133346" /><line stroke="black" stroke-width="0.1524" x1="7.75504510294" x2="7.5482439002" y1="-16.6307478921" y2="-16.1872612817" /><line stroke="black" stroke-width="0.1524" x1="6.33328683407" x2="6.5917883375" y1="-13.5817774452" y2="-14.1361357083" /><line stroke="black" stroke-width="0.1524" x1="3.74827179976" x2="4.00677330319" y1="-8.03819481453" y2="-8.5925530776" /><line stroke="black" stroke-width="0.1524" x1="7.46361740044" x2="7.31434505243" y1="-16.7635591477" y2="-16.4282879648" /><line stroke="black" stroke-width="0.1524" x1="7.16991620778" x2="7.02651788362" y1="-16.8912640609" y2="-16.5534387796" /><line stroke="black" stroke-width="0.1524" x1="6.87403098918" x2="6.7365503694" y1="-17.0138237313" y2="-16.6735472567" /><line stroke="black" stroke-width="0.1524" x1="6.57605187416" x2="6.44453083667" y1="-17.1312008262" y2="-16.7885768097" /><line stroke="black" stroke-width="0.1524" x1="6.27606963003" x2="6.02502684482" y1="-17.2433595914" y2="-16.5536252078" /><line stroke="black" stroke-width="0.1524" x1="5.12545686452" x2="5.33465918552" y1="-14.0820769997" y2="-14.6568556527" /><line stroke="black" stroke-width="0.1524" x1="3.03343365451" x2="3.24263597551" y1="-8.33429046919" y2="-8.90906912223" /><line stroke="black" stroke-width="0.1524" x1="1.046011605" x2="1.25521392601" y1="-2.87389326524" y2="-3.44867191828" /><line stroke="black" stroke-width="0.1524" x1="5.97417563429" x2="5.8546921216" y1="-17.3502658622" y2="-17.003260545" /><line stroke="black" stroke-width="0.1524" x1="5.67046184678" x2="5.55705260984" y1="-17.451887074" y2="-17.1028493325" /><line stroke="black" stroke-width="0.1524" x1="5.36502078166" x2="5.25772036603" y1="-17.5481922719" y2="-17.1972284265" /><line stroke="black" stroke-width="0.1524" x1="5.05794547924" x2="4.95678656966" y1="-17.6391521205" y2="-17.2863690781" /><line stroke="black" stroke-width="0.1524" x1="4.74932947763" x2="4.62268069156" y1="-17.7247389124" y2="-17.2520792081" /><line stroke="black" stroke-width="0.1524" x1="3.8786190734" x2="4.03693005599" y1="-14.4752034451" y2="-15.0660280755" /><line stroke="black" stroke-width="0.1524" x1="2.29550924752" x2="2.45382023011" y1="-8.566957141" y2="-9.15778177141" /><line stroke="black" stroke-width="0.1524" x1="1.35081886579" x2="0.759994235378" y1="-3.85967537813" y2="-4.01798636072" /><line stroke="black" stroke-width="0.1524" x1="1.61467050344" x2="1.02384587302" y1="-4.84438309549" y2="-5.00269407807" /><line stroke="black" stroke-width="0.1524" x1="2.14237377873" x2="1.55154914832" y1="-6.8137985302" y2="-6.97210951278" /><line stroke="black" stroke-width="0.1524" x1="2.40622541638" x2="1.81540078596" y1="-7.79850624755" y2="-7.95681723014" /><line stroke="black" stroke-width="0.1524" x1="2.67007705402" x2="2.07925242361" y1="-8.78321396491" y2="-8.9415249475" /><line stroke="black" stroke-width="0.1524" x1="2.93392869167" x2="2.34310406126" y1="-9.76792168226" y2="-9.92623266485" /><line stroke="black" stroke-width="0.1524" x1="3.19778032931" x2="2.6069556989" y1="-10.7526293996" y2="-10.9109403822" /><line stroke="black" stroke-width="0.1524" x1="3.72548360461" x2="3.13465897419" y1="-12.7220448343" y2="-12.8803558169" /><line stroke="black" stroke-width="0.1524" x1="3.98933524225" x2="3.39851061184" y1="-13.7067525517" y2="-13.8650635343" /><line stroke="black" stroke-width="0.1524" x1="4.2531868799" x2="3.66236224949" y1="-14.691460269" y2="-14.8497712516" /><line stroke="black" stroke-width="0.1524" x1="4.51703851755" x2="3.92621388713" y1="-15.6761679864" y2="-15.834478969" /><line stroke="black" stroke-width="0.1524" x1="4.78089015519" x2="4.19006552478" y1="-16.6608757038" y2="-16.8191866863" /><line stroke="black" stroke-width="0.1524" x1="4.43926678425" x2="4.35048144857" y1="-17.8049265772" y2="-17.4488280456" /><line stroke="black" stroke-width="0.1524" x1="4.12785184721" x2="4.04529481027" y1="-17.8796906888" y2="-17.522096875" /><line stroke="black" stroke-width="0.1524" x1="3.81517952651" x2="3.73887593598" y1="-17.9490084735" y2="-17.590028304" /><line stroke="black" stroke-width="0.1524" x1="3.50134506516" x2="3.43131816386" y1="-18.0128588163" y2="-17.6526016399" /><line stroke="black" stroke-width="0.1524" x1="3.18644406019" x2="3.05898629778" y1="-18.0712222678" y2="-17.3483733771" /><line stroke="black" stroke-width="0.1524" x1="2.60226264915" x2="2.70847745116" y1="-14.758164852" y2="-15.3605389276" /><line stroke="black" stroke-width="0.1524" x1="1.54011462909" x2="1.6463294311" y1="-8.73442409609" y2="-9.33679817168" /><line stroke="black" stroke-width="0.1524" x1="0.531074010031" x2="0.637288812038" y1="-3.01187037796" y2="-3.61424445355" /><line stroke="black" stroke-width="0.1524" x1="2.87057243349" x2="2.81316098482" y1="-18.1240810499" y2="-17.7615994289" /><line stroke="black" stroke-width="0.1524" x1="2.55382640262" x2="2.50274987456" y1="-18.1714190614" y2="-17.8079906802" /><line stroke="black" stroke-width="0.1524" x1="2.23630245148" x2="2.19157640245" y1="-18.2132218826" y2="-17.848957445" /><line stroke="black" stroke-width="0.1524" x1="1.91809730096" x2="1.87973535494" y1="-18.24947678" y2="-17.8844872444" /><line stroke="black" stroke-width="0.1524" x1="1.59930787942" x2="1.5566596693" y1="-18.28017271" y2="-17.7927014377" /><line stroke="black" stroke-width="0.1524" x1="1.30610143486" x2="1.35941169751" y1="-14.9288077132" y2="-15.5381468035" /><line stroke="black" stroke-width="0.1524" x1="0.772998808386" x2="0.826309071033" y1="-8.83541680983" y2="-9.44475590016" /><line stroke="black" stroke-width="0.1524" x1="1.2800312932" x2="1.25443066734" y1="-18.3053003223" y2="-17.9391943158" /><line stroke="black" stroke-width="0.1524" x1="0.960364797058" x2="0.941157501117" y1="-18.3248519627" y2="-17.9583549235" /><line stroke="black" stroke-width="0.1524" x1="0.640405764491" x2="0.627597649201" y1="-18.3388216758" y2="-17.9720452423" /><line stroke="black" stroke-width="0.1524" x1="0.320251658124" x2="0.313846624962" y1="-18.3472052061" y2="-17.980261102" /><line stroke="black" stroke-width="0.1524" x1="1.12361343822e-15" x2="1.07866890069e-15" y1="-18.35" y2="-17.616" /><line stroke="black" stroke-width="0.25" x1="1.12361343822e-15" x2="9.98767500638e-16" y1="-18.35" y2="-16.3111111111" /><line stroke="black" stroke-width="0.25" x1="8.70800414619e-16" x2="6.21108539459e-16" y1="-14.22125" y2="-10.1434722222" /><line stroke="black" stroke-width="0.25" x1="5.05626047198e-16" x2="5.61806719109e-17" y1="-8.2575" y2="-0.9175" /><line stroke="black" stroke-width="0.1524" x1="-0.320251658124" x2="-0.313846624962" y1="-18.3472052061" y2="-17.980261102" /><line stroke="black" stroke-width="0.1524" x1="-0.640405764491" x2="-0.627597649201" y1="-18.3388216758" y2="-17.9720452423" /><line stroke="black" stroke-width="0.1524" x1="-0.960364797058" x2="-0.941157501117" y1="-18.3248519627" y2="-17.9583549235" /><line stroke="black" stroke-width="0.1524" x1="-1.2800312932" x2="-1.25443066734" y1="-18.3053003223" y2="-17.9391943158" /><line stroke="black" stroke-width="0.1524" x1="-1.59930787942" x2="-1.5566596693" y1="-18.28017271" y2="-17.7927014377" /><line stroke="black" stroke-width="0.1524" x1="-1.30610143486" x2="-1.35941169751" y1="-14.9288077132" y2="-15.5381468035" /><line stroke="black" stroke-width="0.1524" x1="-0.772998808386" x2="-0.826309071033" y1="-8.83541680983" y2="-9.44475590016" /><line stroke="black" stroke-width="0.1524" x1="-1.91809730096" x2="-1.87973535494" y1="-18.24947678" y2="-17.8844872444" /><line stroke="black" stroke-width="0.1524" x1="-2.23630245148" x2="-2.19157640245" y1="-18.2132218826" y2="-17.848957445" /><line stroke="black" stroke-width="0.1524" x1="-2.55382640262" x2="-2.50274987456" y1="-18.1714190614" y2="-17.8079906802" /><line stroke="black" stroke-width="0.1524" x1="-2.87057243349" x2="-2.81316098482" y1="-18.1240810499" y2="-17.7615994289" /><line stroke="black" stroke-width="0.1524" x1="-3.18644406019" x2="-3.05898629778" y1="-18.0712222678" y2="-17.3483733771" /><line stroke="black" stroke-width="0.1524" x1="-2.60226264915" x2="-2.70847745116" y1="-14.758164852" y2="-15.3605389276" /><line stroke="black" stroke-width="0.1524" x1="-1.54011462909" x2="-1.6463294311" y1="-8.73442409609" y2="-9.33679817168" /><line stroke="black" stroke-width="0.1524" x1="-0.531074010031" x2="-0.637288812038" y1="-3.01187037796" y2="-3.61424445355" /><line stroke="black" stroke-width="0.1524" x1="-3.50134506516" x2="-3.43131816386" y1="-18.0128588163" y2="-17.6526016399" /><line stroke="black" stroke-width="0.1524" x1="-3.81517952651" x2="-3.73887593598" y1="-17.9490084735" y2="-17.590028304" /><line stroke="black" stroke-width="0.1524" x1="-4.12785184721" x2="-4.04529481027" y1="-17.8796906888" y2="-17.522096875" /><line stroke="black" stroke-width="0.1524" x1="-4.43926678425" x2="-4.35048144857" y1="-17.8049265772" y2="-17.4488280456" /><line stroke="black" stroke-width="0.1524" x1="-4.74932947763" x2="-4.62268069156" y1="-17.7247389124" y2="-17.2520792081" /><line stroke="black" stroke-width="0.1524" x1="-3.8786190734" x2="-4.03693005599" y1="-14.4752034451" y2="-15.0660280755" /><line stroke="black" stroke-width="0.1524" x1="-2.29550924752" x2="-2.45382023011" y1="-8.566957141" y2="-9.15778177141" /><line stroke="black" stroke-width="0.1524" x1="-0.759994235378" x2="-1.35081886579" y1="-4.01798636072" y2="-3.85967537813" /><line stroke="black" stroke-width="0.1524" x1="-1.02384587302" x2="-1.61467050344" y1="-5.00269407807" y2="-4.84438309549" /><line stroke="black" stroke-width="0.1524" x1="-1.55154914832" x2="-2.14237377873" y1="-6.97210951278" y2="-6.8137985302" /><line stroke="black" stroke-width="0.1524" x1="-1.81540078596" x2="-2.40622541638" y1="-7.95681723014" y2="-7.79850624755" /><line stroke="black" stroke-width="0.1524" x1="-2.07925242361" x2="-2.67007705402" y1="-8.9415249475" y2="-8.78321396491" /><line stroke="black" stroke-width="0.1524" x1="-2.34310406126" x2="-2.93392869167" y1="-9.92623266485" y2="-9.76792168226" /><line stroke="black" stroke-width="0.1524" x1="-2.6069556989" x2="-3.19778032931" y1="-10.9109403822" y2="-10.7526293996" /><line stroke="black" stroke-width="0.1524" x1="-3.13465897419" x2="-3.72548360461" y1="-12.8803558169" y2="-12.7220448343" /><line stroke="black" stroke-width="0.1524" x1="-3.39851061184" x2="-3.98933524225" y1="-13.8650635343" y2="-13.7067525517" /><line stroke="black" stroke-width="0.1524" x1="-3.66236224949" x2="-4.2531868799" y1="-14.8497712516" y2="-14.691460269" /><line stroke="black" stroke-width="0.1524" x1="-3.92621388713" x2="-4.51703851755" y1="-15.834478969" y2="-15.6761679864" /><line stroke="black" stroke-width="0.1524" x1="-4.19006552478" x2="-4.78089015519" y1="-16.8191866863" y2="-16.6608757038" /><line stroke="black" stroke-width="0.1524" x1="-5.05794547924" x2="-4.95678656966" y1="-17.6391521205" y2="-17.2863690781" /><line stroke="black" stroke-width="0.1524" x1="-5.36502078166" x2="-5.25772036603" y1="-17.5481922719" y2="-17.1972284265" /><line stroke="black" stroke-width="0.1524" x1="-5.67046184678" x2="-5.55705260984" y1="-17.451887074" y2="-17.1028493325" /><line stroke="black" stroke-width="0.1524" x1="-5.97417563429" x2="-5.8546921216" y1="-17.3502658622" y2="-17.003260545" /><line stroke="black" stroke-width="0.1524" x1="-6.27606963003" x2="-6.02502684482" y1="-17.2433595914" y2="-16.5536252078" /><line stroke="black" stroke-width="0.1524" x1="-5.12545686452" x2="-5.33465918552" y1="-14.0820769997" y2="-14.6568556527" /><line stroke="black" stroke-width="0.1524" x1="-3.03343365451" x2="-3.24263597551" y1="-8.33429046919" y2="-8.90906912223" /><line stroke="black" stroke-width="0.1524" x1="-1.046011605" x2="-1.25521392601" y1="-2.87389326524" y2="-3.44867191828" /><line stroke="black" stroke-width="0.1524" x1="-6.57605187416" x2="-6.44453083667" y1="-17.1312008262" y2="-16.7885768097" /><line stroke="black" stroke-width="0.1524" x1="-6.87403098918" x2="-6.7365503694" y1="-17.0138237313" y2="-16.6735472567" /><line stroke="black" stroke-width="0.1524" x1="-7.16991620778" x2="-7.02651788362" y1="-16.8912640609" y2="-16.5534387796" /><line stroke="black" stroke-width="0.1524" x1="-7.46361740044" x2="-7.31434505243" y1="-16.7635591477" y2="-16.4282879648" /><line stroke="black" stroke-width="0.1524" x1="-7.75504510294" x2="-7.5482439002" y1="-16.6307478921" y2="-16.1872612817" /><line stroke="black" stroke-width="0.1524" x1="-6.33328683407" x2="-6.5917883375" y1="-13.5817774452" y2="-14.1361357083" /><line stroke="black" stroke-width="0.1524" x1="-3.74827179976" x2="-4.00677330319" y1="-8.03819481453" y2="-8.5925530776" /><line stroke="black" stroke-width="0.1524" x1="-8.04411054358" x2="-7.88322833271" y1="-16.4928707496" y2="-16.1630133346" /><line stroke="black" stroke-width="0.1524" x1="-8.33072567022" x2="-8.16411115682" y1="-16.3499697189" y2="-16.0229703245" /><line stroke="black" stroke-width="0.1524" x1="-8.61480317712" x2="-8.44250711358" y1="-16.202088329" y2="-15.8780465624" /><line stroke="black" stroke-width="0.1524" x1="-8.89625653152" x2="-8.71833140089" y1="-16.049271626" y2="-15.7282861935" /><line stroke="black" stroke-width="0.1524" x1="-9.175" x2="-8.808" y1="-15.8915661594" y2="-15.2559035131" /><line stroke="black" stroke-width="0.25" x1="-9.175" x2="-8.15555555556" y1="-15.8915661594" y2="-14.1258365862" /><line stroke="black" stroke-width="0.25" x1="-7.110625" x2="-5.07173611111" y1="-12.3159637736" y2="-8.78450462703" /><line stroke="black" stroke-width="0.25" x1="-4.12875" x2="-0.45875" y1="-7.15120477175" y2="-0.794578307972" /><line stroke="black" stroke-width="0.1524" x1="-9.4509486746" x2="-9.26192970111" y1="-15.7290199679" y2="-15.4144395685" /><line stroke="black" stroke-width="0.1524" x1="-9.72401849868" x2="-9.52953812871" y1="-15.5616825645" y2="-15.2504489132" /><line stroke="black" stroke-width="0.1524" x1="-9.99412629253" x2="-9.79424376668" y1="-15.3896049218" y2="-15.0818128234" /><line stroke="black" stroke-width="0.1524" x1="-10.2611897787" x2="-10.0559659831" y1="-15.2128394564" y2="-14.9085826673" /><line stroke="black" stroke-width="0.1524" x1="-10.525127607" x2="-10.2444575375" y1="-15.0314400127" y2="-14.6306016124" /><line stroke="black" stroke-width="0.1524" x1="-8.59552087908" x2="-8.94635846599" y1="-12.2756760104" y2="-12.7767240108" /><line stroke="black" stroke-width="0.1524" x1="-5.08714501007" x2="-5.43798259697" y1="-7.26519600614" y2="-7.76624400656" /><line stroke="black" stroke-width="0.1524" x1="-10.7858593796" x2="-10.570142192" y1="-14.8454618468" y2="-14.5485526098" /><line stroke="black" stroke-width="0.1524" x1="-11.0433056748" x2="-10.8224395613" y1="-14.6549616094" y2="-14.3618623772" /><line stroke="black" stroke-width="0.1524" x1="-11.2973880722" x2="-11.0714403108" y1="-14.4599973287" y2="-14.1707973821" /><line stroke="black" stroke-width="0.1524" x1="-11.5480291758" x2="-11.3170685922" y1="-14.2606283927" y2="-13.9754158249" /><line stroke="black" stroke-width="0.1524" x1="-11.7951526377" x2="-11.3233465322" y1="-14.0569155312" y2="-13.49463891" /><line stroke="black" stroke-width="0.1524" x1="-9.63270798749" x2="-10.0258797421" y1="-11.4798143505" y2="-11.9483782015" /><line stroke="black" stroke-width="0.1524" x1="-5.70099044158" x2="-6.09416219617" y1="-6.7941758401" y2="-7.26273969114" /><line stroke="black" stroke-width="0.1524" x1="-1.96585877296" x2="-2.35903052755" y1="-2.34281925521" y2="-2.81138310625" /><line stroke="black" stroke-width="0.1524" x1="-12.038683182" x2="-11.7979095183" y1="-13.8489207971" y2="-13.5719423811" /><line stroke="black" stroke-width="0.1524" x1="-12.2785466267" x2="-12.0329756942" y1="-13.6367075475" y2="-13.3639733966" /><line stroke="black" stroke-width="0.1524" x1="-12.5146699071" x2="-12.264376509" y1="-13.4203404247" y2="-13.1519336162" /><line stroke="black" stroke-width="0.1524" x1="-12.7469810979" x2="-12.492041476" y1="-13.1998853362" y2="-12.9358876295" /><line stroke="black" stroke-width="0.1524" x1="-12.9754094348" x2="-12.6293985165" y1="-12.9754094348" y2="-12.6293985165" /><line stroke="black" stroke-width="0.1524" x1="-10.5965843717" x2="-11.0290980196" y1="-10.5965843717" y2="-11.0290980196" /><line stroke="black" stroke-width="0.1524" x1="-6.27144789347" x2="-6.7039615413" y1="-6.27144789347" y2="-6.7039615413" /><line stroke="black" stroke-width="0.1524" x1="-2.66716749493" x2="-3.09968114275" y1="-3.09968114275" y2="-2.66716749493" /><line stroke="black" stroke-width="0.1524" x1="-3.38802357464" x2="-3.82053722246" y1="-3.82053722246" y2="-3.38802357464" /><line stroke="black" stroke-width="0.1524" x1="-4.82973573405" x2="-5.26224938188" y1="-5.26224938188" y2="-4.82973573405" /><line stroke="black" stroke-width="0.1524" x1="-5.55059181376" x2="-5.98310546159" y1="-5.98310546159" y2="-5.55059181376" /><line stroke="black" stroke-width="0.1524" x1="-6.27144789347" x2="-6.7039615413" y1="-6.7039615413" y2="-6.27144789347" /><line stroke="black" stroke-width="0.1524" x1="-6.99230397318" x2="-7.42481762101" y1="-7.42481762101" y2="-6.99230397318" /><line stroke="black" stroke-width="0.1524" x1="-7.71316005289" x2="-8.14567370072" y1="-8.14567370072" y2="-7.71316005289" /><line stroke="black" stroke-width="0.1524" x1="-9.15487221231" x2="-9.58738586014" y1="-9.58738586014" y2="-9.15487221231" /><line stroke="black" stroke-width="0.1524" x1="-9.87572829202" x2="-10.3082419398" y1="-10.3082419398" y2="-9.87572829202" /><line stroke="black" stroke-width="0.1524" x1="-10.5965843717" x2="-11.0290980196" y1="-11.0290980196" y2="-10.5965843717" /><line stroke="black" stroke-width="0.1524" x1="-11.3174404514" x2="-11.7499540993" y1="-11.7499540993" y2="-11.3174404514" /><line stroke="black" stroke-width="0.1524" x1="-12.0382965312" x2="-12.470810179" y1="-12.470810179" y2="-12.0382965312" /><line stroke="black" stroke-width="0.1524" x1="-13.1998853362" x2="-12.9358876295" y1="-12.7469810979" y2="-12.492041476" /><line stroke="black" stroke-width="0.1524" x1="-13.4203404247" x2="-13.1519336162" y1="-12.5146699071" y2="-12.264376509" /><line stroke="black" stroke-width="0.1524" x1="-13.6367075475" x2="-13.3639733966" y1="-12.2785466267" y2="-12.0329756942" /><line stroke="black" stroke-width="0.1524" x1="-13.8489207971" x2="-13.5719423811" y1="-12.038683182" y2="-11.7979095183" /><line stroke="black" stroke-width="0.1524" x1="-14.0569155312" x2="-13.49463891" y1="-11.7951526377" y2="-11.3233465322" /><line stroke="black" stroke-width="0.1524" x1="-11.4798143505" x2="-11.9483782015" y1="-9.63270798749" y2="-10.0258797421" /><line stroke="black" stroke-width="0.1524" x1="-6.7941758401" x2="-7.26273969114" y1="-5.70099044158" y2="-6.09416219617" /><line stroke="black" stroke-width="0.1524" x1="-2.34281925521" x2="-2.81138310625" y1="-1.96585877296" y2="-2.35903052755" /><line stroke="black" stroke-width="0.1524" x1="-14.2606283927" x2="-13.9754158249" y1="-11.5480291758" y2="-11.3170685922" /><line stroke="black" stroke-width="0.1524" x1="-14.4599973287" x2="-14.1707973821" y1="-11.2973880722" y2="-11.0714403108" /><line stroke="black" stroke-width="0.1524" x1="-14.6549616094" x2="-14.3618623772" y1="-11.0433056748" y2="-10.8224395613" /><line stroke="black" stroke-width="0.1524" x1="-14.8454618468" x2="-14.5485526098" y1="-10.7858593796" y2="-10.570142192" /><line stroke="black" stroke-width="0.1524" x1="-15.0314400127" x2="-14.6306016124" y1="-10.525127607" y2="-10.2444575375" /><line stroke="black" stroke-width="0.1524" x1="-12.2756760104" x2="-12.7767240108" y1="-8.59552087908" y2="-8.94635846599" /><line stroke="black" stroke-width="0.1524" x1="-7.26519600614" x2="-7.76624400656" y1="-5.08714501007" y2="-5.43798259697" /><line stroke="black" stroke-width="0.1524" x1="-15.2128394564" x2="-14.9085826673" y1="-10.2611897787" y2="-10.0559659831" /><line stroke="black" stroke-width="0.1524" x1="-15.3896049218" x2="-15.0818128234" y1="-9.99412629253" y2="-9.79424376668" /><line stroke="black" stroke-width="0.1524" x1="-15.5616825645" x2="-15.2504489132" y1="-9.72401849868" y2="-9.52953812871" /><line stroke="black" stroke-width="0.1524" x1="-15.7290199679" x2="-15.4144395685" y1="-9.4509486746" y2="-9.26192970111" /><line stroke="black" stroke-width="0.1524" x1="-15.8915661594" x2="-15.2559035131" y1="-9.175" y2="-8.808" /><line stroke="black" stroke-width="0.25" x1="-15.8915661594" x2="-14.1258365862" y1="-9.175" y2="-8.15555555556" /><line stroke="black" stroke-width="0.25" x1="-12.3159637736" x2="-8.78450462703" y1="-7.110625" y2="-5.07173611111" /><line stroke="black" stroke-width="0.25" x1="-7.15120477175" x2="-0.794578307972" y1="-4.12875" y2="-0.45875" /><line stroke="black" stroke-width="0.1524" x1="-16.049271626" x2="-15.7282861935" y1="-8.89625653152" y2="-8.71833140089" /><line stroke="black" stroke-width="0.1524" x1="-16.202088329" x2="-15.8780465624" y1="-8.61480317712" y2="-8.44250711358" /><line stroke="black" stroke-width="0.1524" x1="-16.3499697189" x2="-16.0229703245" y1="-8.33072567022" y2="-8.16411115682" /><line stroke="black" stroke-width="0.1524" x1="-16.4928707496" x2="-16.1630133346" y1="-8.04411054358" y2="-7.88322833271" /><line stroke="black" stroke-width="0.1524" x1="-16.6307478921" x2="-16.1872612817" y1="-7.75504510294" y2="-7.5482439002" /><line stroke="black" stroke-width="0.1524" x1="-13.5817774452" x2="-14.1361357083" y1="-6.33328683407" y2="-6.5917883375" /><line stroke="black" stroke-width="0.1524" x1="-8.03819481453" x2="-8.5925530776" y1="-3.74827179976" y2="-4.00677330319" /><line stroke="black" stroke-width="0.1524" x1="-16.7635591477" x2="-16.4282879648" y1="-7.46361740044" y2="-7.31434505243" /><line stroke="black" stroke-width="0.1524" x1="-16.8912640609" x2="-16.5534387796" y1="-7.16991620778" y2="-7.02651788362" /><line stroke="black" stroke-width="0.1524" x1="-17.0138237313" x2="-16.6735472567" y1="-6.87403098918" y2="-6.7365503694" /><line stroke="black" stroke-width="0.1524" x1="-17.1312008262" x2="-16.7885768097" y1="-6.57605187416" y2="-6.44453083667" /><line stroke="black" stroke-width="0.1524" x1="-17.2433595914" x2="-16.5536252078" y1="-6.27606963003" y2="-6.02502684482" /><line stroke="black" stroke-width="0.1524" x1="-14.0820769997" x2="-14.6568556527" y1="-5.12545686452" y2="-5.33465918552" /><line stroke="black" stroke-width="0.1524" x1="-8.33429046919" x2="-8.90906912223" y1="-3.03343365451" y2="-3.24263597551" /><line stroke="black" stroke-width="0.1524" x1="-2.87389326524" x2="-3.44867191828" y1="-1.046011605" y2="-1.25521392601" /><line stroke="black" stroke-width="0.1524" x1="-17.3502658622" x2="-17.003260545" y1="-5.97417563429" y2="-5.8546921216" /><line stroke="black" stroke-width="0.1524" x1="-17.451887074" x2="-17.1028493325" y1="-5.67046184678" y2="-5.55705260984" /><line stroke="black" stroke-width="0.1524" x1="-17.5481922719" x2="-17.1972284265" y1="-5.36502078166" y2="-5.25772036603" /><line stroke="black" stroke-width="0.1524" x1="-17.6391521205" x2="-17.2863690781" y1="-5.05794547924" y2="-4.95678656966" /><line stroke="black" stroke-width="0.1524" x1="-17.7247389124" x2="-17.2520792081" y1="-4.74932947763" y2="-4.62268069156" /><line stroke="black" stroke-width="0.1524" x1="-14.4752034451" x2="-15.0660280755" y1="-3.8786190734" y2="-4.03693005599" /><line stroke="black" stroke-width="0.1524" x1="-8.566957141" x2="-9.15778177141" y1="-2.29550924752" y2="-2.45382023011" /><line stroke="black" stroke-width="0.1524" x1="-3.85967537813" x2="-4.01798636072" y1="-1.35081886579" y2="-0.759994235378" /><line stroke="black" stroke-width="0.1524" x1="-4.84438309549" x2="-5.00269407807" y1="-1.61467050344" y2="-1.02384587302" /><line stroke="black" stroke-width="0.1524" x1="-6.8137985302" x2="-6.97210951278" y1="-2.14237377873" y2="-1.55154914832" /><line stroke="black" stroke-width="0.1524" x1="-7.79850624755" x2="-7.95681723014" y1="-2.40622541638" y2="-1.81540078596" /><line stroke="black" stroke-width="0.1524" x1="-8.78321396491" x2="-8.9415249475" y1="-2.67007705402" y2="-2.07925242361" /><line stroke="black" stroke-width="0.1524" x1="-9.76792168226" x2="-9.92623266485" y1="-2.93392869167" y2="-2.34310406126" /><line stroke="black" stroke-width="0.1524" x1="-10.7526293996" x2="-10.9109403822" y1="-3.19778032931" y2="-2.6069556989" /><line stroke="black" stroke-width="0.1524" x1="-12.7220448343" x2="-12.8803558169" y1="-3.72548360461" y2="-3.13465897419" /><line stroke="black" stroke-width="0.1524" x1="-13.7067525517" x2="-13.8650635343" y1="-3.98933524225" y2="-3.39851061184" /><line stroke="black" stroke-width="0.1524" x1="-14.691460269" x2="-14.8497712516" y1="-4.2531868799" y2="-3.66236224949" /><line stroke="black" stroke-width="0.1524" x1="-15.6761679864" x2="-15.834478969" y1="-4.51703851755" y2="-3.92621388713" /><line stroke="black" stroke-width="0.1524" x1="-16.6608757038" x2="-16.8191866863" y1="-4.78089015519" y2="-4.19006552478" /><line stroke="black" stroke-width="0.1524" x1="-17.8049265772" x2="-17.4488280456" y1="-4.43926678425" y2="-4.35048144857" /><line stroke="black" stroke-width="0.1524" x1="-17.8796906888" x2="-17.522096875" y1="-4.12785184721" y2="-4.04529481027" /><line stroke="black" stroke-width="0.1524" x1="-17.9490084735" x2="-17.590028304" y1="-3.81517952651" y2="-3.73887593598" /><line stroke="black" stroke-width="0.1524" x1="-18.0128588163" x2="-17.6526016399" y1="-3.50134506516" y2="-3.43131816386" /><line stroke="black" stroke-width="0.1524" x1="-18.0712222678" x2="-17.3483733771" y1="-3.18644406019" y2="-3.05898629778" /><line stroke="black" stroke-width="0.1524" x1="-14.758164852" x2="-15.3605389276" y1="-2.60226264915" y2="-2.70847745116" /><line stroke="black" stroke-width="0.1524" x1="-8.73442409609" x2="-9.33679817168" y1="-1.54011462909" y2="-1.6463294311" /><line stroke="black" stroke-width="0.1524" x1="-3.01187037796" x2="-3.61424445355" y1="-0.531074010031" y2="-0.637288812038" /><line stroke="black" stroke-width="0.1524" x1="-18.1240810499" x2="-17.7615994289" y1="-2.87057243349" y2="-2.81316098482" /><line stroke="black" stroke-width="0.1524" x1="-18.1714190614" x2="-17.8079906802" y1="-2.55382640262" y2="-2.50274987456" /><line stroke="black" stroke-width="0.1524" x1="-18.2132218826" x2="-17.848957445" y1="-2.23630245148" y2="-2.19157640245" /><line stroke="black" stroke-width="0.1524" x1="-18.24947678" x2="-17.8844872444" y1="-1.91809730096" y2="-1.87973535494" /><line stroke="black" stroke-width="0.1524" x1="-18.28017271" x2="-17.7927014377" y1="-1.59930787942" y2="-1.5566596693" /><line stroke="black" stroke-width="0.1524" x1="-14.9288077132" x2="-15.5381468035" y1="-1.30610143486" y2="-1.35941169751" /><line stroke="black" stroke-width="0.1524" x1="-8.83541680983" x2="-9.44475590016" y1="-0.772998808386" y2="-0.826309071033" /><line stroke="black" stroke-width="0.1524" x1="-18.3053003223" x2="-17.9391943158" y1="-1.2800312932" y2="-1.25443066734" /><line stroke="black" stroke-width="0.1524" x1="-18.3248519627" x2="-17.9583549235" y1="-0.960364797058" y2="-0.941157501117" /><line stroke="black" stroke-width="0.1524" x1="-18.3388216758" x2="-17.9720452423" y1="-0.640405764491" y2="-0.627597649201" /><line stroke="black" stroke-width="0.1524" x1="-18.3472052061" x2="-17.980261102" y1="-0.320251658124" y2="-0.313846624962" /><line stroke="black" stroke-width="0.1524" x1="-18.35" x2="-17.616" y1="-2.24722687644e-15" y2="-2.15733780138e-15" /><line stroke="black" stroke-width="0.25" x1="-18.35" x2="-16.3111111111" y1="-2.24722687644e-15" y2="-1.99753500128e-15" /><line stroke="black" stroke-width="0.25" x1="-14.22125" x2="-10.1434722222" y1="-1.74160082924e-15" y2="-1.24221707892e-15" /><line stroke="black" stroke-width="0.25" x1="-8.2575" x2="-0.9175" y1="-1.0112520944e-15" y2="-1.12361343822e-16" /><line stroke="black" stroke-width="0.1524" x1="-18.3472052061" x2="-17.980261102" y1="0.320251658124" y2="0.313846624962" /><line stroke="black" stroke-width="0.1524" x1="-18.3388216758" x2="-17.9720452423" y1="0.640405764491" y2="0.627597649201" /><line stroke="black" stroke-width="0.1524" x1="-18.3248519627" x2="-17.9583549235" y1="0.960364797058" y2="0.941157501117" /><line stroke="black" stroke-width="0.1524" x1="-18.3053003223" x2="-17.9391943158" y1="1.2800312932" y2="1.25443066734" /><line stroke="black" stroke-width="0.1524" x1="-18.28017271" x2="-17.7927014377" y1="1.59930787942" y2="1.5566596693" /><line stroke="black" stroke-width="0.1524" x1="-14.9288077132" x2="-15.5381468035" y1="1.30610143486" y2="1.35941169751" /><line stroke="black" stroke-width="0.1524" x1="-8.83541680983" x2="-9.44475590016" y1="0.772998808386" y2="0.826309071033" /><line stroke="black" stroke-width="0.1524" x1="-18.24947678" x2="-17.8844872444" y1="1.91809730096" y2="1.87973535494" /><line stroke="black" stroke-width="0.1524" x1="-18.2132218826" x2="-17.848957445" y1="2.23630245148" y2="2.19157640245" /><line stroke="black" stroke-width="0.1524" x1="-18.1714190614" x2="-17.8079906802" y1="2.55382640262" y2="2.50274987456" /><line stroke="black" stroke-width="0.1524" x1="-18.1240810499" x2="-17.7615994289" y1="2.87057243349" y2="2.81316098482" /><line stroke="black" stroke-width="0.1524" x1="-18.0712222678" x2="-17.3483733771" y1="3.18644406019" y2="3.05898629778" /><line stroke="black" stroke-width="0.1524" x1="-14.758164852" x2="-15.3605389276" y1="2.60226264915" y2="2.70847745116" /><line stroke="black" stroke-width="0.1524" x1="-8.73442409609" x2="-9.33679817168" y1="1.54011462909" y2="1.6463294311" /><line stroke="black" stroke-width="0.1524" x1="-3.01187037796" x2="-3.61424445355" y1="0.531074010031" y2="0.637288812038" /><line stroke="black" stroke-width="0.1524" x1="-18.0128588163" x2="-17.6526016399" y1="3.50134506516" y2="3.43131816386" /><line stroke="black" stroke-width="0.1524" x1="-17.9490084735" x2="-17.590028304" y1="3.81517952651" y2="3.73887593598" /><line stroke="black" stroke-width="0.1524" x1="-17.8796906888" x2="-17.522096875" y1="4.12785184721" y2="4.04529481027" /><line stroke="black" stroke-width="0.1524" x1="-17.8049265772" x2="-17.4488280456" y1="4.43926678425" y2="4.35048144857" /><line stroke="black" stroke-width="0.1524" x1="-17.7247389124" x2="-17.2520792081" y1="4.74932947763" y2="4.62268069156" /><line stroke="black" stroke-width="0.1524" x1="-14.4752034451" x2="-15.0660280755" y1="3.8786190734" y2="4.03693005599" /><line stroke="black" stroke-width="0.1524" x1="-8.566957141" x2="-9.15778177141" y1="2.29550924752" y2="2.45382023011" /><line stroke="black" stroke-width="0.1524" x1="-4.01798636072" x2="-3.85967537813" y1="0.759994235378" y2="1.35081886579" /><line stroke="black" stroke-width="0.1524" x1="-5.00269407807" x2="-4.84438309549" y1="1.02384587302" y2="1.61467050344" /><line stroke="black" stroke-width="0.1524" x1="-6.97210951278" x2="-6.8137985302" y1="1.55154914832" y2="2.14237377873" /><line stroke="black" stroke-width="0.1524" x1="-7.95681723014" x2="-7.79850624755" y1="1.81540078596" y2="2.40622541638" /><line stroke="black" stroke-width="0.1524" x1="-8.9415249475" x2="-8.78321396491" y1="2.07925242361" y2="2.67007705402" /><line stroke="black" stroke-width="0.1524" x1="-9.92623266485" x2="-9.76792168226" y1="2.34310406126" y2="2.93392869167" /><line stroke="black" stroke-width="0.1524" x1="-10.9109403822" x2="-10.7526293996" y1="2.6069556989" y2="3.19778032931" /><line stroke="black" stroke-width="0.1524" x1="-12.8803558169" x2="-12.7220448343" y1="3.13465897419" y2="3.72548360461" /><line stroke="black" stroke-width="0.1524" x1="-13.8650635343" x2="-13.7067525517" y1="3.39851061184" y2="3.98933524225" /><line stroke="black" stroke-width="0.1524" x1="-14.8497712516" x2="-14.691460269" y1="3.66236224949" y2="4.2531868799" /><line stroke="black" stroke-width="0.1524" x1="-15.834478969" x2="-15.6761679864" y1="3.92621388713" y2="4.51703851755" /><line stroke="black" stroke-width="0.1524" x1="-16.8191866863" x2="-16.6608757038" y1="4.19006552478" y2="4.78089015519" /><line stroke="black" stroke-width="0.1524" x1="-17.6391521205" x2="-17.2863690781" y1="5.05794547924" y2="4.95678656966" /><line stroke="black" stroke-width="0.1524" x1="-17.5481922719" x2="-17.1972284265" y1="5.36502078166" y2="5.25772036603" /><line stroke="black" stroke-width="0.1524" x1="-17.451887074" x2="-17.1028493325" y1="5.67046184678" y2="5.55705260984" /><line stroke="black" stroke-width="0.1524" x1="-17.3502658622" x2="-17.003260545" y1="5.97417563429" y2="5.8546921216" /><line stroke="black" stroke-width="0.1524" x1="-17.2433595914" x2="-16.5536252078" y1="6.27606963003" y2="6.02502684482" /><line stroke="black" stroke-width="0.1524" x1="-14.0820769997" x2="-14.6568556527" y1="5.12545686452" y2="5.33465918552" /><line stroke="black" stroke-width="0.1524" x1="-8.33429046919" x2="-8.90906912223" y1="3.03343365451" y2="3.24263597551" /><line stroke="black" stroke-width="0.1524" x1="-2.87389326524" x2="-3.44867191828" y1="1.046011605" y2="1.25521392601" /><line stroke="black" stroke-width="0.1524" x1="-17.1312008262" x2="-16.7885768097" y1="6.57605187416" y2="6.44453083667" /><line stroke="black" stroke-width="0.1524" x1="-17.0138237313" x2="-16.6735472567" y1="6.87403098918" y2="6.7365503694" /><line stroke="black" stroke-width="0.1524" x1="-16.8912640609" x2="-16.5534387796" y1="7.16991620778" y2="7.02651788362" /><line stroke="black" stroke-width="0.1524" x1="-16.7635591477" x2="-16.4282879648" y1="7.46361740044" y2="7.31434505243" /><line stroke="black" stroke-width="0.1524" x1="-16.6307478921" x2="-16.1872612817" y1="7.75504510294" y2="7.5482439002" /><line stroke="black" stroke-width="0.1524" x1="-13.5817774452" x2="-14.1361357083" y1="6.33328683407" y2="6.5917883375" /><line stroke="black" stroke-width="0.1524" x1="-8.03819481453" x2="-8.5925530776" y1="3.74827179976" y2="4.00677330319" /><line stroke="black" stroke-width="0.1524" x1="-16.4928707496" x2="-16.1630133346" y1="8.04411054358" y2="7.88322833271" /><line stroke="black" stroke-width="0.1524" x1="-16.3499697189" x2="-16.0229703245" y1="8.33072567022" y2="8.16411115682" /><line stroke="black" stroke-width="0.1524" x1="-16.202088329" x2="-15.8780465624" y1="8.61480317712" y2="8.44250711358" /><line stroke="black" stroke-width="0.1524" x1="-16.049271626" x2="-15.7282861935" y1="8.89625653152" y2="8.71833140089" /><line stroke="black" stroke-width="0.1524" x1="-15.8915661594" x2="-15.2559035131" y1="9.175" y2="8.808" /><line stroke="black" stroke-width="0.25" x1="-15.8915661594" x2="-14.1258365862" y1="9.175" y2="8.15555555556" /><line stroke="black" stroke-width="0.25" x1="-12.3159637736" x2="-8.78450462703" y1="7.110625" y2="5.07173611111" /><line stroke="black" stroke-width="0.25" x1="-7.15120477175" x2="-0.794578307972" y1="4.12875" y2="0.45875" /><line stroke="black" stroke-width="0.1524" x1="-15.7290199679" x2="-15.4144395685" y1="9.4509486746" y2="9.26192970111" /><line stroke="black" stroke-width="0.1524" x1="-15.5616825645" x2="-15.2504489132" y1="9.72401849868" y2="9.52953812871" /><line stroke="black" stroke-width="0.1524" x1="-15.3896049218" x2="-15.0818128234" y1="9.99412629253" y2="9.79424376668" /><line stroke="black" stroke-width="0.1524" x1="-15.2128394564" x2="-14.9085826673" y1="10.2611897787" y2="10.0559659831" /><line stroke="black" stroke-width="0.1524" x1="-15.0314400127" x2="-14.6306016124" y1="10.525127607" y2="10.2444575375" /><line stroke="black" stroke-width="0.1524" x1="-12.2756760104" x2="-12.7767240108" y1="8.59552087908" y2="8.94635846599" /><line stroke="black" stroke-width="0.1524" x1="-7.26519600614" x2="-7.76624400656" y1="5.08714501007" y2="5.43798259697" /><line stroke="black" stroke-width="0.1524" x1="-14.8454618468" x2="-14.5485526098" y1="10.7858593796" y2="10.570142192" /><line stroke="black" stroke-width="0.1524" x1="-14.6549616094" x2="-14.3618623772" y1="11.0433056748" y2="10.8224395613" /><line stroke="black" stroke-width="0.1524" x1="-14.4599973287" x2="-14.1707973821" y1="11.2973880722" y2="11.0714403108" /><line stroke="black" stroke-width="0.1524" x1="-14.2606283927" x2="-13.9754158249" y1="11.5480291758" y2="11.3170685922" /><line stroke="black" stroke-width="0.1524" x1="-14.0569155312" x2="-13.49463891" y1="11.7951526377" y2="11.3233465322" /><line stroke="black" stroke-width="0.1524" x1="-11.4798143505" x2="-11.9483782015" y1="9.63270798749" y2="10.0258797421" /><line stroke="black" stroke-width="0.1524" x1="-6.7941758401" x2="-7.26273969114" y1="5.70099044158" y2="6.09416219617" /><line stroke="black" stroke-width="0.1524" x1="-2.34281925521" x2="-2.81138310625" y1="1.96585877296" y2="2.35903052755" /><line stroke="black" stroke-width="0.1524" x1="-13.8489207971" x2="-13.5719423811" y1="12.038683182" y2="11.7979095183" /><line stroke="black" stroke-width="0.1524" x1="-13.6367075475" x2="-13.3639733966" y1="12.2785466267" y2="12.0329756942" /><line stroke="black" stroke-width="0.1524" x1="-13.4203404247" x2="-13.1519336162" y1="12.5146699071" y2="12.264376509" /><line stroke="black" stroke-width="0.1524" x1="-13.1998853362" x2="-12.9358876295" y1="12.7469810979" y2="12.492041476" /><line stroke="black" stroke-width="0.1524" x1="-12.9754094348" x2="-12.6293985165" y1="12.9754094348" y2="12.6293985165" /><line stroke="black" stroke-width="0.1524" x1="-10.5965843717" x2="-11.0290980196" y1="10.5965843717" y2="11.0290980196" /><line stroke="black" stroke-width="0.1524" x1="-6.27144789347" x2="-6.7039615413" y1="6.27144789347" y2="6.7039615413" /><line stroke="black" stroke-width="0.1524" x1="-3.09968114275" x2="-2.66716749493" y1="2.66716749493" y2="3.09968114275" /><line stroke="black" stroke-width="0.1524" x1="-3.82053722246" x2="-3.38802357464" y1="3.38802357464" y2="3.82053722246" /><line stroke="black" stroke-width="0.1524" x1="-5.26224938188" x2="-4.82973573405" y1="4.82973573405" y2="5.26224938188" /><line stroke="black" stroke-width="0.1524" x1="-5.98310546159" x2="-5.55059181376" y1="5.55059181376" y2="5.98310546159" /><line stroke="black" stroke-width="0.1524" x1="-6.7039615413" x2="-6.27144789347" y1="6.27144789347" y2="6.7039615413" /><line stroke="black" stroke-width="0.1524" x1="-7.42481762101" x2="-6.99230397318" y1="6.99230397318" y2="7.42481762101" /><line stroke="black" stroke-width="0.1524" x1="-8.14567370072" x2="-7.71316005289" y1="7.71316005289" y2="8.14567370072" /><line stroke="black" stroke-width="0.1524" x1="-9.58738586014" x2="-9.15487221231" y1="9.15487221231" y2="9.58738586014" /><line stroke="black" stroke-width="0.1524" x1="-10.3082419398" x2="-9.87572829202" y1="9.87572829202" y2="10.3082419398" /><line stroke="black" stroke-width="0.1524" x1="-11.0290980196" x2="-10.5965843717" y1="10.5965843717" y2="11.0290980196" /><line stroke="black" stroke-width="0.1524" x1="-11.7499540993" x2="-11.3174404514" y1="11.3174404514" y2="11.7499540993" /><line stroke="black" stroke-width="0.1524" x1="-12.470810179" x2="-12.0382965312" y1="12.0382965312" y2="12.470810179" /><line stroke="black" stroke-width="0.1524" x1="-12.7469810979" x2="-12.492041476" y1="13.1998853362" y2="12.9358876295" /><line stroke="black" stroke-width="0.1524" x1="-12.5146699071" x2="-12.264376509" y1="13.4203404247" y2="13.1519336162" /><line stroke="black" stroke-width="0.1524" x1="-12.2785466267" x2="-12.0329756942" y1="13.6367075475" y2="13.3639733966" /><line stroke="black" stroke-width="0.1524" x1="-12.038683182" x2="-11.7979095183" y1="13.8489207971" y2="13.5719423811" /><line stroke="black" stroke-width="0.1524" x1="-11.7951526377" x2="-11.3233465322" y1="14.0569155312" y2="13.49463891" /><line stroke="black" stroke-width="0.1524" x1="-9.63270798749" x2="-10.0258797421" y1="11.4798143505" y2="11.9483782015" /><line stroke="black" stroke-width="0.1524" x1="-5.70099044158" x2="-6.09416219617" y1="6.7941758401" y2="7.26273969114" /><line stroke="black" stroke-width="0.1524" x1="-1.96585877296" x2="-2.35903052755" y1="2.34281925521" y2="2.81138310625" /><line stroke="black" stroke-width="0.1524" x1="-11.5480291758" x2="-11.3170685922" y1="14.2606283927" y2="13.9754158249" /><line stroke="black" stroke-width="0.1524" x1="-11.2973880722" x2="-11.0714403108" y1="14.4599973287" y2="14.1707973821" /><line stroke="black" stroke-width="0.1524" x1="-11.0433056748" x2="-10.8224395613" y1="14.6549616094" y2="14.3618623772" /><line stroke="black" stroke-width="0.1524" x1="-10.7858593796" x2="-10.570142192" y1="14.8454618468" y2="14.5485526098" /><line stroke="black" stroke-width="0.1524" x1="-10.525127607" x2="-10.2444575375" y1="15.0314400127" y2="14.6306016124" /><line stroke="black" stroke-width="0.1524" x1="-8.59552087908" x2="-8.94635846599" y1="12.2756760104" y2="12.7767240108" /><line stroke="black" stroke-width="0.1524" x1="-5.08714501007" x2="-5.43798259697" y1="7.26519600614" y2="7.76624400656" /><line stroke="black" stroke-width="0.1524" x1="-10.2611897787" x2="-10.0559659831" y1="15.2128394564" y2="14.9085826673" /><line stroke="black" stroke-width="0.1524" x1="-9.99412629253" x2="-9.79424376668" y1="15.3896049218" y2="15.0818128234" /><line stroke="black" stroke-width="0.1524" x1="-9.72401849868" x2="-9.52953812871" y1="15.5616825645" y2="15.2504489132" /><line stroke="black" stroke-width="0.1524" x1="-9.4509486746" x2="-9.26192970111" y1="15.7290199679" y2="15.4144395685" /><line stroke="black" stroke-width="0.1524" x1="-9.175" x2="-8.808" y1="15.8915661594" y2="15.2559035131" /><line stroke="black" stroke-width="0.25" x1="-9.175" x2="-8.15555555556" y1="15.8915661594" y2="14.1258365862" /><line stroke="black" stroke-width="0.25" x1="-7.110625" x2="-5.07173611111" y1="12.3159637736" y2="8.78450462703" /><line stroke="black" stroke-width="0.25" x1="-4.12875" x2="-0.45875" y1="7.15120477175" y2="0.794578307972" /><line stroke="black" stroke-width="0.1524" x1="-8.89625653152" x2="-8.71833140089" y1="16.049271626" y2="15.7282861935" /><line stroke="black" stroke-width="0.1524" x1="-8.61480317712" x2="-8.44250711358" y1="16.202088329" y2="15.8780465624" /><line stroke="black" stroke-width="0.1524" x1="-8.33072567022" x2="-8.16411115682" y1="16.3499697189" y2="16.0229703245" /><line stroke="black" stroke-width="0.1524" x1="-8.04411054358" x2="-7.88322833271" y1="16.4928707496" y2="16.1630133346" /><line stroke="black" stroke-width="0.1524" x1="-7.75504510294" x2="-7.5482439002" y1="16.6307478921" y2="16.1872612817" /><line stroke="black" stroke-width="0.1524" x1="-6.33328683407" x2="-6.5917883375" y1="13.5817774452" y2="14.1361357083" /><line stroke="black" stroke-width="0.1524" x1="-3.74827179976" x2="-4.00677330319" y1="8.03819481453" y2="8.5925530776" /><line stroke="black" stroke-width="0.1524" x1="-7.46361740044" x2="-7.31434505243" y1="16.7635591477" y2="16.4282879648" /><line stroke="black" stroke-width="0.1524" x1="-7.16991620778" x2="-7.02651788362" y1="16.8912640609" y2="16.5534387796" /><line stroke="black" stroke-width="0.1524" x1="-6.87403098918" x2="-6.7365503694" y1="17.0138237313" y2="16.6735472567" /><line stroke="black" stroke-width="0.1524" x1="-6.57605187416" x2="-6.44453083667" y1="17.1312008262" y2="16.7885768097" /><line stroke="black" stroke-width="0.1524" x1="-6.27606963003" x2="-6.02502684482" y1="17.2433595914" y2="16.5536252078" /><line stroke="black" stroke-width="0.1524" x1="-5.12545686452" x2="-5.33465918552" y1="14.0820769997" y2="14.6568556527" /><line stroke="black" stroke-width="0.1524" x1="-3.03343365451" x2="-3.24263597551" y1="8.33429046919" y2="8.90906912223" /><line stroke="black" stroke-width="0.1524" x1="-1.046011605" x2="-1.25521392601" y1="2.87389326524" y2="3.44867191828" /><line stroke="black" stroke-width="0.1524" x1="-5.97417563429" x2="-5.8546921216" y1="17.3502658622" y2="17.003260545" /><line stroke="black" stroke-width="0.1524" x1="-5.67046184678" x2="-5.55705260984" y1="17.451887074" y2="17.1028493325" /><line stroke="black" stroke-width="0.1524" x1="-5.36502078166" x2="-5.25772036603" y1="17.5481922719" y2="17.1972284265" /><line stroke="black" stroke-width="0.1524" x1="-5.05794547924" x2="-4.95678656966" y1="17.6391521205" y2="17.2863690781" /><line stroke="black" stroke-width="0.1524" x1="-4.74932947763" x2="-4.62268069156" y1="17.7247389124" y2="17.2520792081" /><line stroke="black" stroke-width="0.1524" x1="-3.8786190734" x2="-4.03693005599" y1="14.4752034451" y2="15.0660280755" /><line stroke="black" stroke-width="0.1524" x1="-2.29550924752" x2="-2.45382023011" y1="8.566957141" y2="9.15778177141" /><line stroke="black" stroke-width="0.1524" x1="-1.35081886579" x2="-0.759994235378" y1="3.85967537813" y2="4.01798636072" /><line stroke="black" stroke-width="0.1524" x1="-1.61467050344" x2="-1.02384587302" y1="4.84438309549" y2="5.00269407807" /><line stroke="black" stroke-width="0.1524" x1="-2.14237377873" x2="-1.55154914832" y1="6.8137985302" y2="6.97210951278" /><line stroke="black" stroke-width="0.1524" x1="-2.40622541638" x2="-1.81540078596" y1="7.79850624755" y2="7.95681723014" /><line stroke="black" stroke-width="0.1524" x1="-2.67007705402" x2="-2.07925242361" y1="8.78321396491" y2="8.9415249475" /><line stroke="black" stroke-width="0.1524" x1="-2.93392869167" x2="-2.34310406126" y1="9.76792168226" y2="9.92623266485" /><line stroke="black" stroke-width="0.1524" x1="-3.19778032931" x2="-2.6069556989" y1="10.7526293996" y2="10.9109403822" /><line stroke="black" stroke-width="0.1524" x1="-3.72548360461" x2="-3.13465897419" y1="12.7220448343" y2="12.8803558169" /><line stroke="black" stroke-width="0.1524" x1="-3.98933524225" x2="-3.39851061184" y1="13.7067525517" y2="13.8650635343" /><line stroke="black" stroke-width="0.1524" x1="-4.2531868799" x2="-3.66236224949" y1="14.691460269" y2="14.8497712516" /><line stroke="black" stroke-width="0.1524" x1="-4.51703851755" x2="-3.92621388713" y1="15.6761679864" y2="15.834478969" /><line stroke="black" stroke-width="0.1524" x1="-4.78089015519" x2="-4.19006552478" y1="16.6608757038" y2="16.8191866863" /><line stroke="black" stroke-width="0.1524" x1="-4.43926678425" x2="-4.35048144857" y1="17.8049265772" y2="17.4488280456" /><line stroke="black" stroke-width="0.1524" x1="-4.12785184721" x2="-4.04529481027" y1="17.8796906888" y2="17.522096875" /><line stroke="black" stroke-width="0.1524" x1="-3.81517952651" x2="-3.73887593598" y1="17.9490084735" y2="17.590028304" /><line stroke="black" stroke-width="0.1524" x1="-3.50134506516" x2="-3.43131816386" y1="18.0128588163" y2="17.6526016399" /><line stroke="black" stroke-width="0.1524" x1="-3.18644406019" x2="-3.05898629778" y1="18.0712222678" y2="17.3483733771" /><line stroke="black" stroke-width="0.1524" x1="-2.60226264915" x2="-2.70847745116" y1="14.758164852" y2="15.3605389276" /><line stroke="black" stroke-width="0.1524" x1="-1.54011462909" x2="-1.6463294311" y1="8.73442409609" y2="9.33679817168" /><line stroke="black" stroke-width="0.1524" x1="-0.531074010031" x2="-0.637288812038" y1="3.01187037796" y2="3.61424445355" /><line stroke="black" stroke-width="0.1524" x1="-2.87057243349" x2="-2.81316098482" y1="18.1240810499" y2="17.7615994289" /><line stroke="black" stroke-width="0.1524" x1="-2.55382640262" x2="-2.50274987456" y1="18.1714190614" y2="17.8079906802" /><line stroke="black" stroke-width="0.1524" x1="-2.23630245148" x2="-2.19157640245" y1="18.2132218826" y2="17.848957445" /><line stroke="black" stroke-width="0.1524" x1="-1.91809730096" x2="-1.87973535494" y1="18.24947678" y2="17.8844872444" /><line stroke="black" stroke-width="0.1524" x1="-1.59930787942" x2="-1.5566596693" y1="18.28017271" y2="17.7927014377" /><line stroke="black" stroke-width="0.1524" x1="-1.30610143486" x2="-1.35941169751" y1="14.9288077132" y2="15.5381468035" /><line stroke="black" stroke-width="0.1524" x1="-0.772998808386" x2="-0.826309071033" y1="8.83541680983" y2="9.44475590016" /><line stroke="black" stroke-width="0.1524" x1="-1.2800312932" x2="-1.25443066734" y1="18.3053003223" y2="17.9391943158" /><line stroke="black" stroke-width="0.1524" x1="-0.960364797058" x2="-0.941157501117" y1="18.3248519627" y2="17.9583549235" /><line stroke="black" stroke-width="0.1524" x1="-0.640405764491" x2="-0.627597649201" y1="18.3388216758" y2="17.9720452423" /><line stroke="black" stroke-width="0.1524" x1="-0.320251658124" x2="-0.313846624962" y1="18.3472052061" y2="17.980261102" /><line stroke="black" stroke-width="0.1524" x1="-3.37084031465e-15" x2="-3.23600670207e-15" y1="18.35" y2="17.616" /><line stroke="black" stroke-width="0.25" x1="-3.37084031465e-15" x2="-2.99630250191e-15" y1="18.35" y2="16.3111111111" /><line stroke="black" stroke-width="0.25" x1="-2.61240124386e-15" x2="-1.86332561838e-15" y1="14.22125" y2="10.1434722222" /><line stroke="black" stroke-width="0.25" x1="-1.51687814159e-15" x2="-1.68542015733e-16" y1="8.2575" y2="0.9175" /><line stroke="black" stroke-width="0.1524" x1="0.320251658124" x2="0.313846624962" y1="18.3472052061" y2="17.980261102" /><line stroke="black" stroke-width="0.1524" x1="0.640405764491" x2="0.627597649201" y1="18.3388216758" y2="17.9720452423" /><line stroke="black" stroke-width="0.1524" x1="0.960364797058" x2="0.941157501117" y1="18.3248519627" y2="17.9583549235" /><line stroke="black" stroke-width="0.1524" x1="1.2800312932" x2="1.25443066734" y1="18.3053003223" y2="17.9391943158" /><line stroke="black" stroke-width="0.1524" x1="1.59930787942" x2="1.5566596693" y1="18.28017271" y2="17.7927014377" /><line stroke="black" stroke-width="0.1524" x1="1.30610143486" x2="1.35941169751" y1="14.9288077132" y2="15.5381468035" /><line stroke="black" stroke-width="0.1524" x1="0.772998808386" x2="0.826309071033" y1="8.83541680983" y2="9.44475590016" /><line stroke="black" stroke-width="0.1524" x1="1.91809730096" x2="1.87973535494" y1="18.24947678" y2="17.8844872444" /><line stroke="black" stroke-width="0.1524" x1="2.23630245148" x2="2.19157640245" y1="18.2132218826" y2="17.848957445" /><line stroke="black" stroke-width="0.1524" x1="2.55382640262" x2="2.50274987456" y1="18.1714190614" y2="17.8079906802" /><line stroke="black" stroke-width="0.1524" x1="2.87057243349" x2="2.81316098482" y1="18.1240810499" y2="17.7615994289" /><line stroke="black" stroke-width="0.1524" x1="3.18644406019" x2="3.05898629778" y1="18.0712222678" y2="17.3483733771" /><line stroke="black" stroke-width="0.1524" x1="2.60226264915" x2="2.70847745116" y1="14.758164852" y2="15.3605389276" /><line stroke="black" stroke-width="0.1524" x1="1.54011462909" x2="1.6463294311" y1="8.73442409609" y2="9.33679817168" /><line stroke="black" stroke-width="0.1524" x1="0.531074010031" x2="0.637288812038" y1="3.01187037796" y2="3.61424445355" /><line stroke="black" stroke-width="0.1524" x1="3.50134506516" x2="3.43131816386" y1="18.0128588163" y2="17.6526016399" /><line stroke="black" stroke-width="0.1524" x1="3.81517952651" x2="3.73887593598" y1="17.9490084735" y2="17.590028304" /><line stroke="black" stroke-width="0.1524" x1="4.12785184721" x2="4.04529481027" y1="17.8796906888" y2="17.522096875" /><line stroke="black" stroke-width="0.1524" x1="4.43926678425" x2="4.35048144857" y1="17.8049265772" y2="17.4488280456" /><line stroke="black" stroke-width="0.1524" x1="4.74932947763" x2="4.62268069156" y1="17.7247389124" y2="17.2520792081" /><line stroke="black" stroke-width="0.1524" x1="3.8786190734" x2="4.03693005599" y1="14.4752034451" y2="15.0660280755" /><line stroke="black" stroke-width="0.1524" x1="2.29550924752" x2="2.45382023011" y1="8.566957141" y2="9.15778177141" /><line stroke="black" stroke-width="0.1524" x1="0.759994235378" x2="1.35081886579" y1="4.01798636072" y2="3.85967537813" /><line stroke="black" stroke-width="0.1524" x1="1.02384587302" x2="1.61467050344" y1="5.00269407807" y2="4.84438309549" /><line stroke="black" stroke-width="0.1524" x1="1.55154914832" x2="2.14237377873" y1="6.97210951278" y2="6.8137985302" /><line stroke="black" stroke-width="0.1524" x1="1.81540078596" x2="2.40622541638" y1="7.95681723014" y2="7.79850624755" /><line stroke="black" stroke-width="0.1524" x1="2.07925242361" x2="2.67007705402" y1="8.9415249475" y2="8.78321396491" /><line stroke="black" stroke-width="0.1524" x1="2.34310406126" x2="2.93392869167" y1="9.92623266485" y2="9.76792168226" /><line stroke="black" stroke-width="0.1524" x1="2.6069556989" x2="3.19778032931" y1="10.9109403822" y2="10.7526293996" /><line stroke="black" stroke-width="0.1524" x1="3.13465897419" x2="3.72548360461" y1="12.8803558169" y2="12.7220448343" /><line stroke="black" stroke-width="0.1524" x1="3.39851061184" x2="3.98933524225" y1="13.8650635343" y2="13.7067525517" /><line stroke="black" stroke-width="0.1524" x1="3.66236224949" x2="4.2531868799" y1="14.8497712516" y2="14.691460269" /><line stroke="black" stroke-width="0.1524" x1="3.92621388713" x2="4.51703851755" y1="15.834478969" y2="15.6761679864" /><line stroke="black" stroke-width="0.1524" x1="4.19006552478" x2="4.78089015519" y1="16.8191866863" y2="16.6608757038" /><line stroke="black" stroke-width="0.1524" x1="5.05794547924" x2="4.95678656966" y1="17.6391521205" y2="17.2863690781" /><line stroke="black" stroke-width="0.1524" x1="5.36502078166" x2="5.25772036603" y1="17.5481922719" y2="17.1972284265" /><line stroke="black" stroke-width="0.1524" x1="5.67046184678" x2="5.55705260984" y1="17.451887074" y2="17.1028493325" /><line stroke="black" stroke-width="0.1524" x1="5.97417563429" x2="5.8546921216" y1="17.3502658622" y2="17.003260545" /><line stroke="black" stroke-width="0.1524" x1="6.27606963003" x2="6.02502684482" y1="17.2433595914" y2="16.5536252078" /><line stroke="black" stroke-width="0.1524" x1="5.12545686452" x2="5.33465918552" y1="14.0820769997" y2="14.6568556527" /><line stroke="black" stroke-width="0.1524" x1="3.03343365451" x2="3.24263597551" y1="8.33429046919" y2="8.90906912223" /><line stroke="black" stroke-width="0.1524" x1="1.046011605" x2="1.25521392601" y1="2.87389326524" y2="3.44867191828" /><line stroke="black" stroke-width="0.1524" x1="6.57605187416" x2="6.44453083667" y1="17.1312008262" y2="16.7885768097" /><line stroke="black" stroke-width="0.1524" x1="6.87403098918" x2="6.7365503694" y1="17.0138237313" y2="16.6735472567" /><line stroke="black" stroke-width="0.1524" x1="7.16991620778" x2="7.02651788362" y1="16.8912640609" y2="16.5534387796" /><line stroke="black" stroke-width="0.1524" x1="7.46361740044" x2="7.31434505243" y1="16.7635591477" y2="16.4282879648" /><line stroke="black" stroke-width="0.1524" x1="7.75504510294" x2="7.5482439002" y1="16.6307478921" y2="16.1872612817" /><line stroke="black" stroke-width="0.1524" x1="6.33328683407" x2="6.5917883375" y1="13.5817774452" y2="14.1361357083" /><line stroke="black" stroke-width="0.1524" x1="3.74827179976" x2="4.00677330319" y1="8.03819481453" y2="8.5925530776" /><line stroke="black" stroke-width="0.1524" x1="8.04411054358" x2="7.88322833271" y1="16.4928707496" y2="16.1630133346" /><line stroke="black" stroke-width="0.1524" x1="8.33072567022" x2="8.16411115682" y1="16.3499697189" y2="16.0229703245" /><line stroke="black" stroke-width="0.1524" x1="8.61480317712" x2="8.44250711358" y1="16.202088329" y2="15.8780465624" /><line stroke="black" stroke-width="0.1524" x1="8.89625653152" x2="8.71833140089" y1="16.049271626" y2="15.7282861935" /><line stroke="black" stroke-width="0.1524" x1="9.175" x2="8.808" y1="15.8915661594" y2="15.2559035131" /><line stroke="black" stroke-width="0.25" x1="9.175" x2="8.15555555556" y1="15.8915661594" y2="14.1258365862" /><line stroke="black" stroke-width="0.25" x1="7.110625" x2="5.07173611111" y1="12.3159637736" y2="8.78450462703" /><line stroke="black" stroke-width="0.25" x1="4.12875" x2="0.45875" y1="7.15120477175" y2="0.794578307972" /><line stroke="black" stroke-width="0.1524" x1="9.4509486746" x2="9.26192970111" y1="15.7290199679" y2="15.4144395685" /><line stroke="black" stroke-width="0.1524" x1="9.72401849868" x2="9.52953812871" y1="15.5616825645" y2="15.2504489132" /><line stroke="black" stroke-width="0.1524" x1="9.99412629253" x2="9.79424376668" y1="15.3896049218" y2="15.0818128234" /><line stroke="black" stroke-width="0.1524" x1="10.2611897787" x2="10.0559659831" y1="15.2128394564" y2="14.9085826673" /><line stroke="black" stroke-width="0.1524" x1="10.525127607" x2="10.2444575375" y1="15.0314400127" y2="14.6306016124" /><line stroke="black" stroke-width="0.1524" x1="8.59552087908" x2="8.94635846599" y1="12.2756760104" y2="12.7767240108" /><line stroke="black" stroke-width="0.1524" x1="5.08714501007" x2="5.43798259697" y1="7.26519600614" y2="7.76624400656" /><line stroke="black" stroke-width="0.1524" x1="10.7858593796" x2="10.570142192" y1="14.8454618468" y2="14.5485526098" /><line stroke="black" stroke-width="0.1524" x1="11.0433056748" x2="10.8224395613" y1="14.6549616094" y2="14.3618623772" /><line stroke="black" stroke-width="0.1524" x1="11.2973880722" x2="11.0714403108" y1="14.4599973287" y2="14.1707973821" /><line stroke="black" stroke-width="0.1524" x1="11.5480291758" x2="11.3170685922" y1="14.2606283927" y2="13.9754158249" /><line stroke="black" stroke-width="0.1524" x1="11.7951526377" x2="11.3233465322" y1="14.0569155312" y2="13.49463891" /><line stroke="black" stroke-width="0.1524" x1="9.63270798749" x2="10.0258797421" y1="11.4798143505" y2="11.9483782015" /><line stroke="black" stroke-width="0.1524" x1="5.70099044158" x2="6.09416219617" y1="6.7941758401" y2="7.26273969114" /><line stroke="black" stroke-width="0.1524" x1="1.96585877296" x2="2.35903052755" y1="2.34281925521" y2="2.81138310625" /><line stroke="black" stroke-width="0.1524" x1="12.038683182" x2="11.7979095183" y1="13.8489207971" y2="13.5719423811" /><line stroke="black" stroke-width="0.1524" x1="12.2785466267" x2="12.0329756942" y1="13.6367075475" y2="13.3639733966" /><line stroke="black" stroke-width="0.1524" x1="12.5146699071" x2="12.264376509" y1="13.4203404247" y2="13.1519336162" /><line stroke="black" stroke-width="0.1524" x1="12.7469810979" x2="12.492041476" y1="13.1998853362" y2="12.9358876295" /><line stroke="black" stroke-width="0.1524" x1="12.9754094348" x2="12.6293985165" y1="12.9754094348" y2="12.6293985165" /><line stroke="black" stroke-width="0.1524" x1="10.5965843717" x2="11.0290980196" y1="10.5965843717" y2="11.0290980196" /><line stroke="black" stroke-width="0.1524" x1="6.27144789347" x2="6.7039615413" y1="6.27144789347" y2="6.7039615413" /><line stroke="black" stroke-width="0.1524" x1="2.66716749493" x2="3.09968114275" y1="3.09968114275" y2="2.66716749493" /><line stroke="black" stroke-width="0.1524" x1="3.38802357464" x2="3.82053722246" y1="3.82053722246" y2="3.38802357464" /><line stroke="black" stroke-width="0.1524" x1="4.82973573405" x2="5.26224938188" y1="5.26224938188" y2="4.82973573405" /><line stroke="black" stroke-width="0.1524" x1="5.55059181376" x2="5.98310546159" y1="5.98310546159" y2="5.55059181376" /><line stroke="black" stroke-width="0.1524" x1="6.27144789347" x2="6.7039615413" y1="6.7039615413" y2="6.27144789347" /><line stroke="black" stroke-width="0.1524" x1="6.99230397318" x2="7.42481762101" y1="7.42481762101" y2="6.99230397318" /><line stroke="black" stroke-width="0.1524" x1="7.71316005289" x2="8.14567370072" y1="8.14567370072" y2="7.71316005289" /><line stroke="black" stroke-width="0.1524" x1="9.15487221231" x2="9.58738586014" y1="9.58738586014" y2="9.15487221231" /><line stroke="black" stroke-width="0.1524" x1="9.87572829202" x2="10.3082419398" y1="10.3082419398" y2="9.87572829202" /><line stroke="black" stroke-width="0.1524" x1="10.5965843717" x2="11.0290980196" y1="11.0290980196" y2="10.5965843717" /><line stroke="black" stroke-width="0.1524" x1="11.3174404514" x2="11.7499540993" y1="11.7499540993" y2="11.3174404514" /><line stroke="black" stroke-width="0.1524" x1="12.0382965312" x2="12.470810179" y1="12.470810179" y2="12.0382965312" /><line stroke="black" stroke-width="0.1524" x1="13.1998853362" x2="12.9358876295" y1="12.7469810979" y2="12.492041476" /><line stroke="black" stroke-width="0.1524" x1="13.4203404247" x2="13.1519336162" y1="12.5146699071" y2="12.264376509" /><line stroke="black" stroke-width="0.1524" x1="13.6367075475" x2="13.3639733966" y1="12.2785466267" y2="12.0329756942" /><line stroke="black" stroke-width="0.1524" x1="13.8489207971" x2="13.5719423811" y1="12.038683182" y2="11.7979095183" /><line stroke="black" stroke-width="0.1524" x1="14.0569155312" x2="13.49463891" y1="11.7951526377" y2="11.3233465322" /><line stroke="black" stroke-width="0.1524" x1="11.4798143505" x2="11.9483782015" y1="9.63270798749" y2="10.0258797421" /><line stroke="black" stroke-width="0.1524" x1="6.7941758401" x2="7.26273969114" y1="5.70099044158" y2="6.09416219617" /><line stroke="black" stroke-width="0.1524" x1="2.34281925521" x2="2.81138310625" y1="1.96585877296" y2="2.35903052755" /><line stroke="black" stroke-width="0.1524" x1="14.2606283927" x2="13.9754158249" y1="11.5480291758" y2="11.3170685922" /><line stroke="black" stroke-width="0.1524" x1="14.4599973287" x2="14.1707973821" y1="11.2973880722" y2="11.0714403108" /><line stroke="black" stroke-width="0.1524" x1="14.6549616094" x2="14.3618623772" y1="11.0433056748" y2="10.8224395613" /><line stroke="black" stroke-width="0.1524" x1="14.8454618468" x2="14.5485526098" y1="10.7858593796" y2="10.570142192" /><line stroke="black" stroke-width="0.1524" x1="15.0314400127" x2="14.6306016124" y1="10.525127607" y2="10.2444575375" /><line stroke="black" stroke-width="0.1524" x1="12.2756760104" x2="12.7767240108" y1="8.59552087908" y2="8.94635846599" /><line stroke="black" stroke-width="0.1524" x1="7.26519600614" x2="7.76624400656" y1="5.08714501007" y2="5.43798259697" /><line stroke="black" stroke-width="0.1524" x1="15.2128394564" x2="14.9085826673" y1="10.2611897787" y2="10.0559659831" /><line stroke="black" stroke-width="0.1524" x1="15.3896049218" x2="15.0818128234" y1="9.99412629253" y2="9.79424376668" /><line stroke="black" stroke-width="0.1524" x1="15.5616825645" x2="15.2504489132" y1="9.72401849868" y2="9.52953812871" /><line stroke="black" stroke-width="0.1524" x1="15.7290199679" x2="15.4144395685" y1="9.4509486746" y2="9.26192970111" /><line stroke="black" stroke-width="0.1524" x1="15.8915661594" x2="15.2559035131" y1="9.175" y2="8.808" /><line stroke="black" stroke-width="0.25" x1="15.8915661594" x2="14.1258365862" y1="9.175" y2="8.15555555556" /><line stroke="black" stroke-width="0.25" x1="12.3159637736" x2="8.78450462703" y1="7.110625" y2="5.07173611111" /><line stroke="black" stroke-width="0.25" x1="7.15120477175" x2="0.794578307972" y1="4.12875" y2="0.45875" /><line stroke="black" stroke-width="0.1524" x1="16.049271626" x2="15.7282861935" y1="8.89625653152" y2="8.71833140089" /><line stroke="black" stroke-width="0.1524" x1="16.202088329" x2="15.8780465624" y1="8.61480317712" y2="8.44250711358" /><line stroke="black" stroke-width="0.1524" x1="16.3499697189" x2="16.0229703245" y1="8.33072567022" y2="8.16411115682" /><line stroke="black" stroke-width="0.1524" x1="16.4928707496" x2="16.1630133346" y1="8.04411054358" y2="7.88322833271" /><line stroke="black" stroke-width="0.1524" x1="16.6307478921" x2="16.1872612817" y1="7.75504510294" y2="7.5482439002" /><line stroke="black" stroke-width="0.1524" x1="13.5817774452" x2="14.1361357083" y1="6.33328683407" y2="6.5917883375" /><line stroke="black" stroke-width="0.1524" x1="8.03819481453" x2="8.5925530776" y1="3.74827179976" y2="4.00677330319" /><line stroke="black" stroke-width="0.1524" x1="16.7635591477" x2="16.4282879648" y1="7.46361740044" y2="7.31434505243" /><line stroke="black" stroke-width="0.1524" x1="16.8912640609" x2="16.5534387796" y1="7.16991620778" y2="7.02651788362" /><line stroke="black" stroke-width="0.1524" x1="17.0138237313" x2="16.6735472567" y1="6.87403098918" y2="6.7365503694" /><line stroke="black" stroke-width="0.1524" x1="17.1312008262" x2="16.7885768097" y1="6.57605187416" y2="6.44453083667" /><line stroke="black" stroke-width="0.1524" x1="17.2433595914" x2="16.5536252078" y1="6.27606963003" y2="6.02502684482" /><line stroke="black" stroke-width="0.1524" x1="14.0820769997" x2="14.6568556527" y1="5.12545686452" y2="5.33465918552" /><line stroke="black" stroke-width="0.1524" x1="8.33429046919" x2="8.90906912223" y1="3.03343365451" y2="3.24263597551" /><line stroke="black" stroke-width="0.1524" x1="2.87389326524" x2="3.44867191828" y1="1.046011605" y2="1.25521392601" /><line stroke="black" stroke-width="0.1524" x1="17.3502658622" x2="17.003260545" y1="5.97417563429" y2="5.8546921216" /><line stroke="black" stroke-width="0.1524" x1="17.451887074" x2="17.1028493325" y1="5.67046184678" y2="5.55705260984" /><line stroke="black" stroke-width="0.1524" x1="17.5481922719" x2="17.1972284265" y1="5.36502078166" y2="5.25772036603" /><line stroke="black" stroke-width="0.1524" x1="17.6391521205" x2="17.2863690781" y1="5.05794547924" y2="4.95678656966" /><line stroke="black" stroke-width="0.1524" x1="17.7247389124" x2="17.2520792081" y1="4.74932947763" y2="4.62268069156" /><line stroke="black" stroke-width="0.1524" x1="14.4752034451" x2="15.0660280755" y1="3.8786190734" y2="4.03693005599" /><line stroke="black" stroke-width="0.1524" x1="8.566957141" x2="9.15778177141" y1="2.29550924752" y2="2.45382023011" /><line stroke="black" stroke-width="0.1524" x1="3.85967537813" x2="4.01798636072" y1="1.35081886579" y2="0.759994235378" /><line stroke="black" stroke-width="0.1524" x1="4.84438309549" x2="5.00269407807" y1="1.61467050344" y2="1.02384587302" /><line stroke="black" stroke-width="0.1524" x1="6.8137985302" x2="6.97210951278" y1="2.14237377873" y2="1.55154914832" /><line stroke="black" stroke-width="0.1524" x1="7.79850624755" x2="7.95681723014" y1="2.40622541638" y2="1.81540078596" /><line stroke="black" stroke-width="0.1524" x1="8.78321396491" x2="8.9415249475" y1="2.67007705402" y2="2.07925242361" /><line stroke="black" stroke-width="0.1524" x1="9.76792168226" x2="9.92623266485" y1="2.93392869167" y2="2.34310406126" /><line stroke="black" stroke-width="0.1524" x1="10.7526293996" x2="10.9109403822" y1="3.19778032931" y2="2.6069556989" /><line stroke="black" stroke-width="0.1524" x1="12.7220448343" x2="12.8803558169" y1="3.72548360461" y2="3.13465897419" /><line stroke="black" stroke-width="0.1524" x1="13.7067525517" x2="13.8650635343" y1="3.98933524225" y2="3.39851061184" /><line stroke="black" stroke-width="0.1524" x1="14.691460269" x2="14.8497712516" y1="4.2531868799" y2="3.66236224949" /><line stroke="black" stroke-width="0.1524" x1="15.6761679864" x2="15.834478969" y1="4.51703851755" y2="3.92621388713" /><line stroke="black" stroke-width="0.1524" x1="16.6608757038" x2="16.8191866863" y1="4.78089015519" y2="4.19006552478" /><line stroke="black" stroke-width="0.1524" x1="17.8049265772" x2="17.4488280456" y1="4.43926678425" y2="4.35048144857" /><line stroke="black" stroke-width="0.1524" x1="17.8796906888" x2="17.522096875" y1="4.12785184721" y2="4.04529481027" /><line stroke="black" stroke-width="0.1524" x1="17.9490084735" x2="17.590028304" y1="3.81517952651" y2="3.73887593598" /><line stroke="black" stroke-width="0.1524" x1="18.0128588163" x2="17.6526016399" y1="3.50134506516" y2="3.43131816386" /><line stroke="black" stroke-width="0.1524" x1="18.0712222678" x2="17.3483733771" y1="3.18644406019" y2="3.05898629778" /><line stroke="black" stroke-width="0.1524" x1="14.758164852" x2="15.3605389276" y1="2.60226264915" y2="2.70847745116" /><line stroke="black" stroke-width="0.1524" x1="8.73442409609" x2="9.33679817168" y1="1.54011462909" y2="1.6463294311" /><line stroke="black" stroke-width="0.1524" x1="3.01187037796" x2="3.61424445355" y1="0.531074010031" y2="0.637288812038" /><line stroke="black" stroke-width="0.1524" x1="18.1240810499" x2="17.7615994289" y1="2.87057243349" y2="2.81316098482" /><line stroke="black" stroke-width="0.1524" x1="18.1714190614" x2="17.8079906802" y1="2.55382640262" y2="2.50274987456" /><line stroke="black" stroke-width="0.1524" x1="18.2132218826" x2="17.848957445" y1="2.23630245148" y2="2.19157640245" /><line stroke="black" stroke-width="0.1524" x1="18.24947678" x2="17.8844872444" y1="1.91809730096" y2="1.87973535494" /><line stroke="black" stroke-width="0.1524" x1="18.28017271" x2="17.7927014377" y1="1.59930787942" y2="1.5566596693" /><line stroke="black" stroke-width="0.1524" x1="14.9288077132" x2="15.5381468035" y1="1.30610143486" y2="1.35941169751" /><line stroke="black" stroke-width="0.1524" x1="8.83541680983" x2="9.44475590016" y1="0.772998808386" y2="0.826309071033" /><line stroke="black" stroke-width="0.1524" x1="18.3053003223" x2="17.9391943158" y1="1.2800312932" y2="1.25443066734" /><line stroke="black" stroke-width="0.1524" x1="18.3248519627" x2="17.9583549235" y1="0.960364797058" y2="0.941157501117" /><line stroke="black" stroke-width="0.1524" x1="18.3388216758" x2="17.9720452423" y1="0.640405764491" y2="0.627597649201" /><line stroke="black" stroke-width="0.1524" x1="18.3472052061" x2="17.980261102" y1="0.320251658124" y2="0.313846624962" /><polyline fill="none" points="-18.35,2.24722687644e-15 -18.3137904667,-1.15220603336 -18.2053047691,-2.2998648359 -18.0249710509,-3.43844712265 -17.7735010067,-4.56345942948 -17.451887074,-5.67046184678 -17.061398516,-6.75508554176 -16.6035764128,-7.81305000022 -16.0802275788,-8.84017991977 -15.493417433,-9.83242168786 -14.8454618468,-10.7858593796 -14.1389180049,-11.6967302119 -13.3765743132,-12.5614393938 -12.5614393938,-13.3765743132 -11.6967302119,-14.1389180049 -10.7858593796,-14.8454618468 -9.83242168786,-15.493417433 -8.84017991977,-16.0802275788 -7.81305000022,-16.6035764128 -6.75508554176,-17.061398516 -5.67046184678,-17.451887074 -4.56345942948,-17.7735010067 -3.43844712265,-18.0249710509 -2.2998648359,-18.2053047691 -1.15220603336,-18.3137904667 -3.37084031465e-15,-18.35 1.15220603336,-18.3137904667 2.2998648359,-18.2053047691 3.43844712265,-18.0249710509 4.56345942948,-17.7735010067 5.67046184678,-17.451887074 6.75508554176,-17.061398516 7.81305000022,-16.6035764128 8.84017991977,-16.0802275788 9.83242168786,-15.493417433 10.7858593796,-14.8454618468 11.6967302119,-14.1389180049 12.5614393938,-13.3765743132 13.3765743132,-12.5614393938 14.1389180049,-11.6967302119 14.8454618468,-10.7858593796 15.493417433,-9.83242168786 16.0802275788,-8.84017991977 16.6035764128,-7.81305000022 17.061398516,-6.75508554176 17.451887074,-5.67046184678 17.7735010067,-4.56345942948 18.0249710509,-3.43844712265 18.2053047691,-2.2998648359 18.3137904667,-1.15220603336 18.35,-4.49445375287e-15" stroke="black" stroke-width="0.1524" /><polyline fill="none" points="18.35,0.0 18.3137904667,1.15220603336 18.2053047691,2.2998648359 18.0249710509,3.43844712265 17.7735010067,4.56345942948 17.451887074,5.67046184678 17.061398516,6.75508554176 16.6035764128,7.81305000022 16.0802275788,8.84017991977 15.493417433,9.83242168786 14.8454618468,10.7858593796 14.1389180049,11.6967302119 13.3765743132,12.5614393938 12.5614393938,13.3765743132 11.6967302119,14.1389180049 10.7858593796,14.8454618468 9.83242168786,15.493417433 8.84017991977,16.0802275788 7.81305000022,16.6035764128 6.75508554176,17.061398516 5.67046184678,17.451887074 4.56345942948,17.7735010067 3.43844712265,18.0249710509 2.2998648359,18.2053047691 1.15220603336,18.3137904667 -2.95090506216e-15,18.35 -1.15220603336,18.3137904667 -2.2998648359,18.2053047691 -3.43844712265,18.0249710509 -4.56345942948,17.7735010067 -5.67046184678,17.451887074 -6.75508554176,17.061398516 -7.81305000022,16.6035764128 -8.84017991977,16.0802275788 -9.83242168786,15.493417433 -10.7858593796,14.8454618468 -11.6967302119,14.1389180049 -12.5614393938,13.3765743132 -13.3765743132,12.5614393938 -14.1389180049,11.6967302119 -14.8454618468,10.7858593796 -15.493417433,9.83242168786 -16.0802275788,8.84017991977 -16.6035764128,7.81305000022 -17.061398516,6.75508554176 -17.451887074,5.67046184678 -17.7735010067,4.56345942948 -18.0249710509,3.43844712265 -18.2053047691,2.2998648359 -18.3137904667,1.15220603336 -18.35,-5.90181012431e-15" stroke="black" stroke-width="0.1524" /><polyline fill="none" points="-12.2333333333,1.49815125096e-15 -12.1663178533,-1.27873153397 -11.966005649,-2.54345301767 -11.6345913827,-3.78030789785 -11.1757060985,-4.97574493363 -10.5943774396,-6.11666666667 -9.89697456452,-7.19057291971 -9.09113836501,-8.18569775112 -8.18569775112,-9.09113836501 -7.19057291971,-9.89697456452 -6.11666666667,-10.5943774396 -4.97574493363,-11.1757060985 -3.78030789785,-11.6345913827 -2.54345301767,-11.966005649 -1.27873153397,-12.1663178533 -2.24722687644e-15,-12.2333333333 1.27873153397,-12.1663178533 2.54345301767,-11.966005649 3.78030789785,-11.6345913827 4.97574493363,-11.1757060985 6.11666666667,-10.5943774396 7.19057291971,-9.89697456452 8.18569775112,-9.09113836501 9.09113836501,-8.18569775112 9.89697456452,-7.19057291971 10.5943774396,-6.11666666667 11.1757060985,-4.97574493363 11.6345913827,-3.78030789785 11.966005649,-2.54345301767 12.1663178533,-1.27873153397 12.2333333333,-2.99630250191e-15" stroke="black" stroke-width="0.25" /><polyline fill="none" points="12.2333333333,0.0 12.1663178533,1.27873153397 11.966005649,2.54345301767 11.6345913827,3.78030789785 11.1757060985,4.97574493363 10.5943774396,6.11666666667 9.89697456452,7.19057291971 9.09113836501,8.18569775112 8.18569775112,9.09113836501 7.19057291971,9.89697456452 6.11666666667,10.5943774396 4.97574493363,11.1757060985 3.78030789785,11.6345913827 2.54345301767,11.966005649 1.27873153397,12.1663178533 7.49075625478e-16,12.2333333333 -1.27873153397,12.1663178533 -2.54345301767,11.966005649 -3.78030789785,11.6345913827 -4.97574493363,11.1757060985 -6.11666666667,10.5943774396 -7.19057291971,9.89697456452 -8.18569775112,9.09113836501 -9.09113836501,8.18569775112 -9.89697456452,7.19057291971 -10.5943774396,6.11666666667 -11.1757060985,4.97574493363 -11.6345913827,3.78030789785 -11.966005649,2.54345301767 -12.1663178533,1.27873153397 -12.2333333333,1.49815125096e-15" stroke="black" stroke-width="0.25" /><polyline fill="none" points="-6.11666666667,7.49075625478e-16 -6.08315892667,-0.639365766987 -5.98300282449,-1.27172650884 -5.81729569134,-1.89015394893 -5.58785304925,-2.48787246681 -5.29718871981,-3.05833333333 -4.94848728226,-3.59528645986 -4.5455691825,-4.09284887556 -4.09284887556,-4.5455691825 -3.59528645986,-4.94848728226 -3.05833333333,-5.29718871981 -2.48787246681,-5.58785304925 -1.89015394893,-5.81729569134 -1.27172650884,-5.98300282449 -0.639365766987,-6.08315892667 -1.12361343822e-15,-6.11666666667 0.639365766987,-6.08315892667 1.27172650884,-5.98300282449 1.89015394893,-5.81729569134 2.48787246681,-5.58785304925 3.05833333333,-5.29718871981 3.59528645986,-4.94848728226 4.09284887556,-4.5455691825 4.5455691825,-4.09284887556 4.94848728226,-3.59528645986 5.29718871981,-3.05833333333 5.58785304925,-2.48787246681 5.81729569134,-1.89015394893 5.98300282449,-1.27172650884 6.08315892667,-0.639365766987 6.11666666667,-1.49815125096e-15" stroke="black" stroke-width="0.25" /><polyline fill="none" points="6.11666666667,0.0 6.08315892667,0.639365766987 5.98300282449,1.27172650884 5.81729569134,1.89015394893 5.58785304925,2.48787246681 5.29718871981,3.05833333333 4.94848728226,3.59528645986 4.5455691825,4.09284887556 4.09284887556,4.5455691825 3.59528645986,4.94848728226 3.05833333333,5.29718871981 2.48787246681,5.58785304925 1.89015394893,5.81729569134 1.27172650884,5.98300282449 0.639365766987,6.08315892667 3.74537812739e-16,6.11666666667 -0.639365766987,6.08315892667 -1.27172650884,5.98300282449 -1.89015394893,5.81729569134 -2.48787246681,5.58785304925 -3.05833333333,5.29718871981 -3.59528645986,4.94848728226 -4.09284887556,4.5455691825 -4.5455691825,4.09284887556 -4.94848728226,3.59528645986 -5.29718871981,3.05833333333 -5.58785304925,2.48787246681 -5.81729569134,1.89015394893 -5.98300282449,1.27172650884 -6.08315892667,0.639365766987 -6.11666666667,7.49075625478e-16" stroke="black" stroke-width="0.25" /><polyline fill="none" points="-1.01944444444,1.2484593758e-16 -1.01385982111,-0.106560961165 -0.997167137415,-0.211954418139 -0.96954928189,-0.315025658154 -0.931308841541,-0.414645411136 -0.882864786636,-0.509722222222 -0.824747880377,-0.599214409976 -0.757594863751,-0.68214147926 -0.68214147926,-0.757594863751 -0.599214409976,-0.824747880377 -0.509722222222,-0.882864786636 -0.414645411136,-0.931308841541 -0.315025658154,-0.96954928189 -0.211954418139,-0.997167137415 -0.106560961165,-1.01385982111 -1.8726890637e-16,-1.01944444444 0.106560961165,-1.01385982111 0.211954418139,-0.997167137415 0.315025658154,-0.96954928189 0.414645411136,-0.931308841541 0.509722222222,-0.882864786636 0.599214409976,-0.824747880377 0.68214147926,-0.757594863751 0.757594863751,-0.68214147926 0.824747880377,-0.599214409976 0.882864786636,-0.509722222222 0.931308841541,-0.414645411136 0.96954928189,-0.315025658154 0.997167137415,-0.211954418139 1.01385982111,-0.106560961165 1.01944444444,-2.49691875159e-16" stroke="black" stroke-width="0.25" /><polyline fill="none" points="1.01944444444,0.0 1.01385982111,0.106560961165 0.997167137415,0.211954418139 0.96954928189,0.315025658154 0.931308841541,0.414645411136 0.882864786636,0.509722222222 0.824747880377,0.599214409976 0.757594863751,0.68214147926 0.68214147926,0.757594863751 0.599214409976,0.824747880377 0.509722222222,0.882864786636 0.414645411136,0.931308841541 0.315025658154,0.96954928189 0.211954418139,0.997167137415 0.106560961165,1.01385982111 6.24229687899e-17,1.01944444444 -0.106560961165,1.01385982111 -0.211954418139,0.997167137415 -0.315025658154,0.96954928189 -0.414645411136,0.931308841541 -0.509722222222,0.882864786636 -0.599214409976,0.824747880377 -0.68214147926,0.757594863751 -0.757594863751,0.68214147926 -0.824747880377,0.599214409976 -0.882864786636,0.509722222222 -0.931308841541,0.414645411136 -0.96954928189,0.315025658154 -0.997167137415,0.211954418139 -1.01385982111,0.106560961165 -1.01944444444,1.2484593758e-16" stroke="black" stroke-width="0.25" /><polyline fill="none" points="-2.03888888889,2.49691875159e-16 -2.02771964222,-0.213121922329 -1.99433427483,-0.423908836278 -1.93909856378,-0.630051316309 -1.86261768308,-0.829290822271 -1.76572957327,-1.01944444444 -1.64949576075,-1.19842881995 -1.5151897275,-1.36428295852 -1.36428295852,-1.5151897275 -1.19842881995,-1.64949576075 -1.01944444444,-1.76572957327 -0.829290822271,-1.86261768308 -0.630051316309,-1.93909856378 -0.423908836278,-1.99433427483 -0.213121922329,-2.02771964222 -3.74537812739e-16,-2.03888888889 0.213121922329,-2.02771964222 0.423908836278,-1.99433427483 0.630051316309,-1.93909856378 0.829290822271,-1.86261768308 1.01944444444,-1.76572957327 1.19842881995,-1.64949576075 1.36428295852,-1.5151897275 1.5151897275,-1.36428295852 1.64949576075,-1.19842881995 1.76572957327,-1.01944444444 1.86261768308,-0.829290822271 1.93909856378,-0.630051316309 1.99433427483,-0.423908836278 2.02771964222,-0.213121922329 2.03888888889,-4.99383750319e-16" stroke="black" stroke-width="0.25" /><polyline fill="none" points="2.03888888889,0.0 2.02771964222,0.213121922329 1.99433427483,0.423908836278 1.93909856378,0.630051316309 1.86261768308,0.829290822271 1.76572957327,1.01944444444 1.64949576075,1.19842881995 1.5151897275,1.36428295852 1.36428295852,1.5151897275 1.19842881995,1.64949576075 1.01944444444,1.76572957327 0.829290822271,1.86261768308 0.630051316309,1.93909856378 0.423908836278,1.99433427483 0.213121922329,2.02771964222 1.2484593758e-16,2.03888888889 -0.213121922329,2.02771964222 -0.423908836278,1.99433427483 -0.630051316309,1.93909856378 -0.829290822271,1.86261768308 -1.01944444444,1.76572957327 -1.19842881995,1.64949576075 -1.36428295852,1.5151897275 -1.5151897275,1.36428295852 -1.64949576075,1.19842881995 -1.76572957327,1.01944444444 -1.86261768308,0.829290822271 -1.93909856378,0.630051316309 -1.99433427483,0.423908836278 -2.02771964222,0.213121922329 -2.03888888889,2.49691875159e-16" stroke="black" stroke-width="0.25" /><polyline fill="none" points="-3.05833333333,3.74537812739e-16 -3.04157946333,-0.319682883494 -2.99150141224,-0.635863254418 -2.90864784567,-0.945076974463 -2.79392652462,-1.24393623341 -2.64859435991,-1.52916666667 -2.47424364113,-1.79764322993 -2.27278459125,-2.04642443778 -2.04642443778,-2.27278459125 -1.79764322993,-2.47424364113 -1.52916666667,-2.64859435991 -1.24393623341,-2.79392652462 -0.945076974463,-2.90864784567 -0.635863254418,-2.99150141224 -0.319682883494,-3.04157946333 -5.61806719109e-16,-3.05833333333 0.319682883494,-3.04157946333 0.635863254418,-2.99150141224 0.945076974463,-2.90864784567 1.24393623341,-2.79392652462 1.52916666667,-2.64859435991 1.79764322993,-2.47424364113 2.04642443778,-2.27278459125 2.27278459125,-2.04642443778 2.47424364113,-1.79764322993 2.64859435991,-1.52916666667 2.79392652462,-1.24393623341 2.90864784567,-0.945076974463 2.99150141224,-0.635863254418 3.04157946333,-0.319682883494 3.05833333333,-7.49075625478e-16" stroke="black" stroke-width="0.25" /><polyline fill="none" points="3.05833333333,0.0 3.04157946333,0.319682883494 2.99150141224,0.635863254418 2.90864784567,0.945076974463 2.79392652462,1.24393623341 2.64859435991,1.52916666667 2.47424364113,1.79764322993 2.27278459125,2.04642443778 2.04642443778,2.27278459125 1.79764322993,2.47424364113 1.52916666667,2.64859435991 1.24393623341,2.79392652462 0.945076974463,2.90864784567 0.635863254418,2.99150141224 0.319682883494,3.04157946333 1.8726890637e-16,3.05833333333 -0.319682883494,3.04157946333 -0.635863254418,2.99150141224 -0.945076974463,2.90864784567 -1.24393623341,2.79392652462 -1.52916666667,2.64859435991 -1.79764322993,2.47424364113 -2.04642443778,2.27278459125 -2.27278459125,2.04642443778 -2.47424364113,1.79764322993 -2.64859435991,1.52916666667 -2.79392652462,1.24393623341 -2.90864784567,0.945076974463 -2.99150141224,0.635863254418 -3.04157946333,0.319682883494 -3.05833333333,3.74537812739e-16" stroke="black" stroke-width="0.25" /></g><g id="radials" stroke="black" stroke-width="0.25" /></svg>