  0
SECTION
  2
HEADER
  9
$ACADVER
  1
AC1014
  9
$HANDSEED
  5
FFFF
  9
$MEASUREMENT
 70
     1
  0
ENDSEC
  0
SECTION
  2
TABLES
  0
TABLE
  2
VPORT
  5
8
330
0
100
AcDbSymbolTable
 70
     4
  0
VPORT
  5
2E
330
8
100
AcDbSymbolTableRecord
100
AcDbViewportTableRecord
  2
*ACTIVE
 70
     0
 10
0.0
 20
0.0
 11
1.0
 21
1.0
 12
210.0
 22
148.5
 13
0.0
 23
0.0
 14
10.0
 24
10.0
 15
10.0
 25
10.0
 16
0.0
 26
0.0
 36
1.0
 17
0.0
 27
0.0
 37
0.0
 40
341.0
 41
1.24
 42
50.0
 43
0.0
 44
0.0
 50
0.0
 51
0.0
 71
     0
 72
   100
 73
     1
 74
     3
 75
     0
 76
     0
 77
     0
 78
     0
  0
ENDTAB
  0
TABLE
  2
LTYPE
  5
5
330
0
100
AcDbSymbolTable
 70
     1
  0
LTYPE
  5
14
330
5
100
AcDbSymbolTableRecord
100
AcDbLinetypeTableRecord
  2
BYBLOCK
 70
     0
  3

 72
    65
 73
     0
 40
0.0
  0
LTYPE
  5
15
330
5
100
AcDbSymbolTableRecord
100
AcDbLinetypeTableRecord
  2
BYLAYER
 70
     0
  3

 72
    65
 73
     0
 40
0.0
  0
LTYPE
  5
16
330
5
100
AcDbSymbolTableRecord
100
AcDbLinetypeTableRecord
  2
CONTINUOUS
 70
     0
  3
Solid line
 72
    65
 73
     0
 40
0.0
  0
ENDTAB
  0
TABLE
  2
LAYER
  5
2
100
AcDbSymbolTable
 70
1
  0
LAYER
  5
50
100
AcDbSymbolTableRecord
100
AcDbLayerTableRecord
  2
0
 70
0
  6
CONTINUOUS
  0
ENDTAB
  0
TABLE
  2
STYLE
  5
3
330
0
100
AcDbSymbolTable
 70
     1
  0
STYLE
  5
11
330
3
100
AcDbSymbolTableRecord
100
AcDbTextStyleTableRecord
  2
STANDARD
 70
     0
 40
0.0
 41
1.0
 50
0.0
 71
     0
 42
2.5
  3
txt
  4

  0
ENDTAB
  0
TABLE
  2
VIEW
  5
6
330
0
100
AcDbSymbolTable
 70
     0
  0
ENDTAB
  0
TABLE
  2
UCS
  5
7
330
0
100
AcDbSymbolTable
 70
     0
  0
ENDTAB
  0
TABLE
  2
APPID
  5
9
330
0
100
AcDbSymbolTable
 70
     2
  0
APPID
  5
12
330
9
100
AcDbSymbolTableRecord
100
AcDbRegAppTableRecord
  2
ACAD
 70
     0
  0
ENDTAB
  0
TABLE
  2
DIMSTYLE
  5
A
330
0
100
AcDbSymbolTable
 70
     1
  0
DIMSTYLE
105
27
330
A
100
AcDbSymbolTableRecord
100
AcDbDimStyleTableRecord
  2
ISO-25
 70
     0
  3

  4

  5

  6

  7

 40
1.0
 41
2.5
 42
0.625
 43
3.75
 44
1.25
 45
0.0
 46
0.0
 47
0.0
 48
0.0
140
2.5
141
2.5
142
0.0
143
0.03937007874016
144
1.0
145
0.0
146
1.0
147
0.625
 71
     0
 72
     0
 73
     0
 74
     0
 75
     0
 76
     0
 77
     1
 78
     8
170
     0
171
     3
172
     1
173
     0
174
     0
175
     0
176
     0
177
     0
178
     0
270
     2
271
     2
272
     2
273
     2
274
     3
340
11
275
     0
280
     0
281
     0
282
     0
283
     0
284
     8
285
     0
286
     0
287
     3
288
     0
  0
ENDTAB
  0
TABLE
  2
BLOCK_RECORD
  5
1
330
0
100
AcDbSymbolTable
 70
     1
  0
BLOCK_RECORD
  5
1F
330
1
100
AcDbSymbolTableRecord
100
AcDbBlockTableRecord
  2
*MODEL_SPACE
  0
BLOCK_RECORD
  5
1B
330
1
100
AcDbSymbolTableRecord
100
AcDbBlockTableRecord
  2
*PAPER_SPACE
  0
ENDTAB
  0
ENDSEC
  0
SECTION
  2
BLOCKS
  0
BLOCK
  5
20
330
1F
100
AcDbEntity
  8
0
100
AcDbBlockBegin
  2
*MODEL_SPACE
 70
     0
 10
0.0
 20
0.0
 30
0.0
  3
*MODEL_SPACE
  1

  0
ENDBLK
  5
21
330
1F
100
AcDbEntity
  8
0
100
AcDbBlockEnd
  0
BLOCK
  5
1C
330
1B
100
AcDbEntity
 67
     1
  8
0
100
AcDbBlockBegin
  2
*PAPER_SPACE
  1

  0
ENDBLK
  5
1D
330
1B
100
AcDbEntity
 67
     1
  8
0
100
AcDbBlockEnd
  0
ENDSEC
  0
SECTION
  2
ENTITIES
  0
LWPOLYLINE
  5
100
100
AcDbEntity
  8
0
 62
7
100
AcDbPolyline
 90
2
 70
0
 10
17.076162
 20
38.576235
 30
0.0
 10
16.336162
 20
38.576235
 30
0.0
  0
LWPOLYLINE
  5
101
100
AcDbEntity
  8
0
 62
7
100
AcDbPolyline
 90
2
 70
0
 10
17.076162
 20
38.576235
 30
0.0
 10
15.020607
 20
38.576235
 30
0.0
  0
LWPOLYLINE
  5
102
100
AcDbEntity
  8
0
 62
7
100
AcDbPolyline
 90
2
 70
0
 10
12.913662
 20
38.576235
 30
0.0
 10
8.802551
 20
38.576235
 30
0.0
  0
LWPOLYLINE
  5
103
100
AcDbEntity
  8
0
 62
7
100
AcDbPolyline
 90
2
 70
0
 10
6.901162
 20
38.576235
 30
0.0
 10
-0.498838
 20
38.576235
 30
0.0
  0
LWPOLYLINE
  5
104
100
AcDbEntity
  8
0
 62
7
100
AcDbPolyline
 90
2
 70
0
 10
17.073345
 20
38.899105
 30
0.0
 10
16.703401
 20
38.892648
 30
0.0
  0
LWPOLYLINE
  5
105
100
AcDbEntity
  8
0
 62
7
100
AcDbPolyline
 90
2
 70
0
 10
17.064891
 20
39.221876
 30
0.0
 10
16.695118
 20
39.208963
 30
0.0
  0
LWPOLYLINE
  5
106
100
AcDbEntity
  8
0
 62
7
100
AcDbPolyline
 90
2
 70
0
 10
17.050808
 20
39.544451
 30
0.0
 10
16.681316
 20
39.525086
 30
0.0
  0
LWPOLYLINE
  5
107
100
AcDbEntity
  8
0
 62
7
100
AcDbPolyline
 90
2
 70
0
 10
17.031097
 20
39.866730
 30
0.0
 10
16.661998
 20
39.840920
 30
0.0
  0
LWPOLYLINE
  5
108
100
AcDbEntity
  8
0
 62
7
100
AcDbPolyline
 90
2
 70
0
 10
17.005764
 20
40.188617
 30
0.0
 10
16.514309
 20
40.145620
 30
0.0
  0
LWPOLYLINE
  5
109
100
AcDbEntity
  8
0
 62
7
100
AcDbPolyline
 90
2
 70
0
 10
13.627003
 20
39.893014
 30
0.0
 10
14.241324
 20
39.946759
 30
0.0
  0
LWPOLYLINE
  5
10a
100
AcDbEntity
  8
0
 62
7
100
AcDbPolyline
 90
2
 70
0
 10
7.483803
 20
39.355553
 30
0.0
 10
8.098124
 20
39.409299
 30
0.0
  0
LWPOLYLINE
  5
10b
100
AcDbEntity
  8
0
 62
7
100
AcDbPolyline
 90
2
 70
0
 10
16.974817
 20
40.510012
 30
0.0
 10
16.606844
 20
40.471337
 30
0.0
  0
LWPOLYLINE
  5
10c
100
AcDbEntity
  8
0
 62
7
100
AcDbPolyline
 90
2
 70
0
 10
16.938266
 20
40.830818
 30
0.0
 10
16.571024
 20
40.785727
 30
0.0
  0
LWPOLYLINE
  5
10d
100
AcDbEntity
  8
0
 62
7
100
AcDbPolyline
 90
2
 70
0
 10
16.896122
 20
41.150938
 30
0.0
 10
16.529722
 20
41.099444
 30
0.0
  0
LWPOLYLINE
  5
10e
100
AcDbEntity
  8
0
 62
7
100
AcDbPolyline
 90
2
 70
0
 10
16.848396
 20
41.470273
 30
0.0
 10
16.482952
 20
41.412392
 30
0.0
  0
LWPOLYLINE
  5
10f
100
AcDbEntity
  8
0
 62
7
100
AcDbPolyline
 90
2
 70
0
 10
16.795105
 20
41.788727
 30
0.0
 10
16.066347
 20
41.660227
 30
0.0
  0
LWPOLYLINE
  5
110
100
AcDbEntity
  8
0
 62
7
100
AcDbPolyline
 90
2
 70
0
 10
13.454966
 20
41.199770
 30
0.0
 10
14.062264
 20
41.306853
 30
0.0
  0
LWPOLYLINE
  5
111
100
AcDbEntity
  8
0
 62
7
100
AcDbPolyline
 90
2
 70
0
 10
7.381985
 20
40.128940
 30
0.0
 10
7.989284
 20
40.236023
 30
0.0
  0
LWPOLYLINE
  5
112
100
AcDbEntity
  8
0
 62
7
100
AcDbPolyline
 90
2
 70
0
 10
1.612653
 20
39.111651
 30
0.0
 10
2.219951
 20
39.218734
 30
0.0
  0
LWPOLYLINE
  5
113
100
AcDbEntity
  8
0
 62
7
100
AcDbPolyline
 90
2
 70
0
 10
16.736265
 20
42.106202
 30
0.0
 10
16.373064
 20
42.035602
 30
0.0
  0
LWPOLYLINE
  5
114
100
AcDbEntity
  8
0
 62
7
100
AcDbPolyline
 90
2
 70
0
 10
16.671892
 20
42.422602
 30
0.0
 10
16.309978
 20
42.345674
 30
0.0
  0
LWPOLYLINE
  5
115
100
AcDbEntity
  8
0
 62
7
100
AcDbPolyline
 90
2
 70
0
 10
16.602008
 20
42.737830
 30
0.0
 10
16.241491
 20
42.654598
 30
0.0
  0
LWPOLYLINE
  5
116
100
AcDbEntity
  8
0
 62
7
100
AcDbPolyline
 90
2
 70
0
 10
16.526634
 20
43.051790
 30
0.0
 10
16.167623
 20
42.962279
 30
0.0
  0
LWPOLYLINE
  5
117
100
AcDbEntity
  8
0
 62
7
100
AcDbPolyline
 90
2
 70
0
 10
16.445789
 20
43.364388
 30
0.0
 10
15.969267
 20
43.236704
 30
0.0
  0
LWPOLYLINE
  5
118
100
AcDbEntity
  8
0
 62
7
100
AcDbPolyline
 90
2
 70
0
 10
13.169692
 20
42.486560
 30
0.0
 10
13.765345
 20
42.646165
 30
0.0
  0
LWPOLYLINE
  5
119
100
AcDbEntity
  8
0
 62
7
100
AcDbPolyline
 90
2
 70
0
 10
7.213149
 20
40.890509
 30
0.0
 10
7.808804
 20
41.050114
 30
0.0
  0
LWPOLYLINE
  5
11a
100
AcDbEntity
  8
0
 62
7
100
AcDbPolyline
 90
2
 70
0
 10
2.626993
 20
39.342442
 30
0.0
 10
2.467388
 20
39.938096
 30
0.0
  0
LWPOLYLINE
  5
11b
100
AcDbEntity
  8
0
 62
7
100
AcDbPolyline
 90
2
 70
0
 10
3.619751
 20
39.608451
 30
0.0
 10
3.460146
 20
40.204105
 30
0.0
  0
LWPOLYLINE
  5
11c
100
AcDbEntity
  8
0
 62
7
100
AcDbPolyline
 90
2
 70
0
 10
5.605265
 20
40.140468
 30
0.0
 10
5.445660
 20
40.736122
 30
0.0
  0
LWPOLYLINE
  5
11d
100
AcDbEntity
  8
0
 62
7
100
AcDbPolyline
 90
2
 70
0
 10
6.598022
 20
40.406476
 30
0.0
 10
6.438417
 20
41.002130
 30
0.0
  0
LWPOLYLINE
  5
11e
100
AcDbEntity
  8
0
 62
7
100
AcDbPolyline
 90
2
 70
0
 10
7.590778
 20
40.672485
 30
0.0
 10
7.431173
 20
41.268139
 30
0.0
  0
LWPOLYLINE
  5
11f
100
AcDbEntity
  8
0
 62
7
100
AcDbPolyline
 90
2
 70
0
 10
8.583536
 20
40.938493
 30
0.0
 10
8.423931
 20
41.534147
 30
0.0
  0
LWPOLYLINE
  5
120
100
AcDbEntity
  8
0
 62
7
100
AcDbPolyline
 90
2
 70
0
 10
9.576293
 20
41.204501
 30
0.0
 10
9.416688
 20
41.800156
 30
0.0
  0
LWPOLYLINE
  5
121
100
AcDbEntity
  8
0
 62
7
100
AcDbPolyline
 90
2
 70
0
 10
11.561807
 20
41.736518
 30
0.0
 10
11.402201
 20
42.332173
 30
0.0
  0
LWPOLYLINE
  5
122
100
AcDbEntity
  8
0
 62
7
100
AcDbPolyline
 90
2
 70
0
 10
12.554564
 20
42.002527
 30
0.0
 10
12.394959
 20
42.598181
 30
0.0
  0
LWPOLYLINE
  5
123
100
AcDbEntity
  8
0
 62
7
100
AcDbPolyline
 90
2
 70
0
 10
13.547321
 20
42.268535
 30
0.0
 10
13.387716
 20
42.864189
 30
0.0
  0
LWPOLYLINE
  5
124
100
AcDbEntity
  8
0
 62
7
100
AcDbPolyline
 90
2
 70
0
 10
14.540078
 20
42.534544
 30
0.0
 10
14.380473
 20
43.130198
 30
0.0
  0
LWPOLYLINE
  5
125
100
AcDbEntity
  8
0
 62
7
100
AcDbPolyline
 90
2
 70
0
 10
15.532835
 20
42.800552
 30
0.0
 10
15.373230
 20
43.396207
 30
0.0
  0
LWPOLYLINE
  5
126
100
AcDbEntity
  8
0
 62
7
100
AcDbPolyline
 90
2
 70
0
 10
16.359502
 20
43.675526
 30
0.0
 10
16.003837
 20
43.573541
 30
0.0
  0
LWPOLYLINE
  5
127
100
AcDbEntity
  8
0
 62
7
100
AcDbPolyline
 90
2
 70
0
 10
16.267799
 20
43.985112
 30
0.0
 10
15.913967
 20
43.876935
 30
0.0
  0
LWPOLYLINE
  5
128
100
AcDbEntity
  8
0
 62
7
100
AcDbPolyline
 90
2
 70
0
 10
16.170707
 20
44.293050
 30
0.0
 10
15.818817
 20
44.178713
 30
0.0
  0
LWPOLYLINE
  5
129
100
AcDbEntity
  8
0
 62
7
100
AcDbPolyline
 90
2
 70
0
 10
16.068256
 20
44.599246
 30
0.0
 10
15.718414
 20
44.478786
 30
0.0
  0
LWPOLYLINE
  5
12a
100
AcDbEntity
  8
0
 62
7
100
AcDbPolyline
 90
2
 70
0
 10
15.960476
 20
44.903608
 30
0.0
 10
15.265102
 20
44.650513
 30
0.0
  0
LWPOLYLINE
  5
12b
100
AcDbEntity
  8
0
 62
7
100
AcDbPolyline
 90
2
 70
0
 10
12.773351
 20
43.743590
 30
0.0
 10
13.352829
 20
43.954502
 30
0.0
  0
LWPOLYLINE
  5
12c
100
AcDbEntity
  8
0
 62
7
100
AcDbPolyline
 90
2
 70
0
 10
6.978581
 20
41.634466
 30
0.0
 10
7.558058
 20
41.845378
 30
0.0
  0
LWPOLYLINE
  5
12d
100
AcDbEntity
  8
0
 62
7
100
AcDbPolyline
 90
2
 70
0
 10
1.473548
 20
39.630798
 30
0.0
 10
2.053025
 20
39.841710
 30
0.0
  0
LWPOLYLINE
  5
12e
100
AcDbEntity
  8
0
 62
7
100
AcDbPolyline
 90
2
 70
0
 10
15.847400
 20
45.206042
 30
0.0
 10
15.501976
 20
45.073446
 30
0.0
  0
LWPOLYLINE
  5
12f
100
AcDbEntity
  8
0
 62
7
100
AcDbPolyline
 90
2
 70
0
 10
15.729063
 20
45.506457
 30
0.0
 10
15.386005
 20
45.367853
 30
0.0
  0
LWPOLYLINE
  5
130
100
AcDbEntity
  8
0
 62
7
100
AcDbPolyline
 90
2
 70
0
 10
15.605501
 20
45.804762
 30
0.0
 10
15.264915
 20
45.660191
 30
0.0
  0
LWPOLYLINE
  5
131
100
AcDbEntity
  8
0
 62
7
100
AcDbPolyline
 90
2
 70
0
 10
15.476753
 20
46.100863
 30
0.0
 10
15.138740
 20
45.950371
 30
0.0
  0
LWPOLYLINE
  5
132
100
AcDbEntity
  8
0
 62
7
100
AcDbPolyline
 90
2
 70
0
 10
15.342855
 20
46.394674
 30
0.0
 10
14.895744
 20
46.186182
 30
0.0
  0
LWPOLYLINE
  5
133
100
AcDbEntity
  8
0
 62
7
100
AcDbPolyline
 90
2
 70
0
 10
12.268963
 20
44.961293
 30
0.0
 10
12.827852
 20
45.221908
 30
0.0
  0
LWPOLYLINE
  5
134
100
AcDbEntity
  8
0
 62
7
100
AcDbPolyline
 90
2
 70
0
 10
6.680064
 20
42.355147
 30
0.0
 10
7.238955
 20
42.615761
 30
0.0
  0
LWPOLYLINE
  5
135
100
AcDbEntity
  8
0
 62
7
100
AcDbPolyline
 90
2
 70
0
 10
15.203851
 20
46.686102
 30
0.0
 10
14.871297
 20
46.523904
 30
0.0
  0
LWPOLYLINE
  5
136
100
AcDbEntity
  8
0
 62
7
100
AcDbPolyline
 90
2
 70
0
 10
15.059784
 20
46.975060
 30
0.0
 10
14.730110
 20
46.807083
 30
0.0
  0
LWPOLYLINE
  5
137
100
AcDbEntity
  8
0
 62
7
100
AcDbPolyline
 90
2
 70
0
 10
14.910692
 20
47.261459
 30
0.0
 10
14.584001
 20
47.087755
 30
0.0
  0
LWPOLYLINE
  5
138
100
AcDbEntity
  8
0
 62
7
100
AcDbPolyline
 90
2
 70
0
 10
14.756626
 20
47.545213
 30
0.0
 10
14.433017
 20
47.365834
 30
0.0
  0
LWPOLYLINE
  5
139
100
AcDbEntity
  8
0
 62
7
100
AcDbPolyline
 90
2
 70
0
 10
14.597631
 20
47.826235
 30
0.0
 10
13.956773
 20
47.456236
 30
0.0
  0
LWPOLYLINE
  5
13a
100
AcDbEntity
  8
0
 62
7
100
AcDbPolyline
 90
2
 70
0
 10
14.597631
 20
47.826235
 30
0.0
 10
12.817468
 20
46.798458
 30
0.0
  0
LWPOLYLINE
  5
13b
100
AcDbEntity
  8
0
 62
7
100
AcDbPolyline
 90
2
 70
0
 10
10.992801
 20
45.744985
 30
0.0
 10
7.432475
 20
43.689430
 30
0.0
  0
LWPOLYLINE
  5
13c
100
AcDbEntity
  8
0
 62
7
100
AcDbPolyline
 90
2
 70
0
 10
5.785824
 20
42.738735
 30
0.0
 10
-0.622764
 20
39.038735
 30
0.0
  0
LWPOLYLINE
  5
13d
100
AcDbEntity
  8
0
 62
7
100
AcDbPolyline
 90
2
 70
0
 10
14.433757
 20
48.104439
 30
0.0
 10
14.116605
 20
47.913876
 30
0.0
  0
LWPOLYLINE
  5
13e
100
AcDbEntity
  8
0
 62
7
100
AcDbPolyline
 90
2
 70
0
 10
14.265052
 20
48.379742
 30
0.0
 10
13.951274
 20
48.183672
 30
0.0
  0
LWPOLYLINE
  5
13f
100
AcDbEntity
  8
0
 62
7
100
AcDbPolyline
 90
2
 70
0
 10
14.091568
 20
48.652057
 30
0.0
 10
13.781259
 20
48.450541
 30
0.0
  0
LWPOLYLINE
  5
140
100
AcDbEntity
  8
0
 62
7
100
AcDbPolyline
 90
2
 70
0
 10
13.913357
 20
48.921304
 30
0.0
 10
13.606613
 20
48.714402
 30
0.0
  0
LWPOLYLINE
  5
141
100
AcDbEntity
  8
0
 62
7
100
AcDbPolyline
 90
2
 70
0
 10
13.730475
 20
49.187399
 30
0.0
 10
13.326359
 20
48.904434
 30
0.0
  0
LWPOLYLINE
  5
142
100
AcDbEntity
  8
0
 62
7
100
AcDbPolyline
 90
2
 70
0
 10
10.952184
 20
47.242019
 30
0.0
 10
11.457328
 20
47.595725
 30
0.0
  0
LWPOLYLINE
  5
143
100
AcDbEntity
  8
0
 62
7
100
AcDbPolyline
 90
2
 70
0
 10
5.900747
 20
43.704965
 30
0.0
 10
6.405891
 20
44.058670
 30
0.0
  0
LWPOLYLINE
  5
144
100
AcDbEntity
  8
0
 62
7
100
AcDbPolyline
 90
2
 70
0
 10
13.542976
 20
49.450262
 30
0.0
 10
13.243641
 20
49.232782
 30
0.0
  0
LWPOLYLINE
  5
145
100
AcDbEntity
  8
0
 62
7
100
AcDbPolyline
 90
2
 70
0
 10
13.350919
 20
49.709813
 30
0.0
 10
13.055423
 20
49.487142
 30
0.0
  0
LWPOLYLINE
  5
146
100
AcDbEntity
  8
0
 62
7
100
AcDbPolyline
 90
2
 70
0
 10
13.154361
 20
49.965972
 30
0.0
 10
12.862797
 20
49.738177
 30
0.0
  0
LWPOLYLINE
  5
147
100
AcDbEntity
  8
0
 62
7
100
AcDbPolyline
 90
2
 70
0
 10
12.953362
 20
50.218662
 30
0.0
 10
12.665818
 20
49.985813
 30
0.0
  0
LWPOLYLINE
  5
148
100
AcDbEntity
  8
0
 62
7
100
AcDbPolyline
 90
2
 70
0
 10
12.747985
 20
50.467806
 30
0.0
 10
12.181111
 20
49.992143
 30
0.0
  0
LWPOLYLINE
  5
149
100
AcDbEntity
  8
0
 62
7
100
AcDbPolyline
 90
2
 70
0
 10
10.149817
 20
48.287685
 30
0.0
 10
10.622211
 20
48.684070
 30
0.0
  0
LWPOLYLINE
  5
14a
100
AcDbEntity
  8
0
 62
7
100
AcDbPolyline
 90
2
 70
0
 10
5.425877
 20
44.323828
 30
0.0
 10
5.898271
 20
44.720214
 30
0.0
  0
LWPOLYLINE
  5
14b
100
AcDbEntity
  8
0
 62
7
100
AcDbPolyline
 90
2
 70
0
 10
0.938133
 20
40.558164
 30
0.0
 10
1.410527
 20
40.954550
 30
0.0
  0
LWPOLYLINE
  5
14c
100
AcDbEntity
  8
0
 62
7
100
AcDbPolyline
 90
2
 70
0
 10
12.538290
 20
50.713327
 30
0.0
 10
12.259046
 20
50.470585
 30
0.0
  0
LWPOLYLINE
  5
14d
100
AcDbEntity
  8
0
 62
7
100
AcDbPolyline
 90
2
 70
0
 10
12.324341
 20
50.955151
 30
0.0
 10
12.049378
 20
50.707573
 30
0.0
  0
LWPOLYLINE
  5
14e
100
AcDbEntity
  8
0
 62
7
100
AcDbPolyline
 90
2
 70
0
 10
12.106206
 20
51.193205
 30
0.0
 10
11.835604
 20
50.940866
 30
0.0
  0
LWPOLYLINE
  5
14f
100
AcDbEntity
  8
0
 62
7
100
AcDbPolyline
 90
2
 70
0
 10
11.883948
 20
51.427415
 30
0.0
 10
11.617793
 20
51.170391
 30
0.0
  0
LWPOLYLINE
  5
150
100
AcDbEntity
  8
0
 62
7
100
AcDbPolyline
 90
2
 70
0
 10
11.657637
 20
51.657710
 30
0.0
 10
11.308798
 20
51.308871
 30
0.0
  0
LWPOLYLINE
  5
151
100
AcDbEntity
  8
0
 62
7
100
AcDbPolyline
 90
2
 70
0
 10
9.259367
 20
49.259440
 30
0.0
 10
9.695416
 20
49.695489
 30
0.0
  0
LWPOLYLINE
  5
152
100
AcDbEntity
  8
0
 62
7
100
AcDbPolyline
 90
2
 70
0
 10
4.898875
 20
44.898948
 30
0.0
 10
5.334925
 20
45.334998
 30
0.0
  0
LWPOLYLINE
  5
153
100
AcDbEntity
  8
0
 62
7
100
AcDbPolyline
 90
2
 70
0
 10
1.701182
 20
41.265205
 30
0.0
 10
1.265132
 20
41.701255
 30
0.0
  0
LWPOLYLINE
  5
154
100
AcDbEntity
  8
0
 62
7
100
AcDbPolyline
 90
2
 70
0
 10
2.427930
 20
41.991954
 30
0.0
 10
1.991881
 20
42.428003
 30
0.0
  0
LWPOLYLINE
  5
155
100
AcDbEntity
  8
0
 62
7
100
AcDbPolyline
 90
2
 70
0
 10
3.881427
 20
43.445451
 30
0.0
 10
3.445378
 20
43.881500
 30
0.0
  0
LWPOLYLINE
  5
156
100
AcDbEntity
  8
0
 62
7
100
AcDbPolyline
 90
2
 70
0
 10
4.608176
 20
44.172200
 30
0.0
 10
4.172127
 20
44.608249
 30
0.0
  0
LWPOLYLINE
  5
157
100
AcDbEntity
  8
0
 62
7
100
AcDbPolyline
 90
2
 70
0
 10
5.334925
 20
44.898948
 30
0.0
 10
4.898875
 20
45.334998
 30
0.0
  0
LWPOLYLINE
  5
158
100
AcDbEntity
  8
0
 62
7
100
AcDbPolyline
 90
2
 70
0
 10
6.061673
 20
45.625697
 30
0.0
 10
5.625624
 20
46.061746
 30
0.0
  0
LWPOLYLINE
  5
159
100
AcDbEntity
  8
0
 62
7
100
AcDbPolyline
 90
2
 70
0
 10
6.788422
 20
46.352446
 30
0.0
 10
6.352373
 20
46.788495
 30
0.0
  0
LWPOLYLINE
  5
15a
100
AcDbEntity
  8
0
 62
7
100
AcDbPolyline
 90
2
 70
0
 10
8.241920
 20
47.805943
 30
0.0
 10
7.805870
 20
48.241993
 30
0.0
  0
LWPOLYLINE
  5
15b
100
AcDbEntity
  8
0
 62
7
100
AcDbPolyline
 90
2
 70
0
 10
8.968668
 20
48.532692
 30
0.0
 10
8.532619
 20
48.968741
 30
0.0
  0
LWPOLYLINE
  5
15c
100
AcDbEntity
  8
0
 62
7
100
AcDbPolyline
 90
2
 70
0
 10
9.695416
 20
49.259440
 30
0.0
 10
9.259367
 20
49.695489
 30
0.0
  0
LWPOLYLINE
  5
15d
100
AcDbEntity
  8
0
 62
7
100
AcDbPolyline
 90
2
 70
0
 10
10.422165
 20
49.986188
 30
0.0
 10
9.986115
 20
50.422238
 30
0.0
  0
LWPOLYLINE
  5
15e
100
AcDbEntity
  8
0
 62
7
100
AcDbPolyline
 90
2
 70
0
 10
11.148913
 20
50.712938
 30
0.0
 10
10.712865
 20
51.148986
 30
0.0
  0
LWPOLYLINE
  5
15f
100
AcDbEntity
  8
0
 62
7
100
AcDbPolyline
 90
2
 70
0
 10
11.427342
 20
51.884021
 30
0.0
 10
11.170318
 20
51.617866
 30
0.0
  0
LWPOLYLINE
  5
160
100
AcDbEntity
  8
0
 62
7
100
AcDbPolyline
 90
2
 70
0
 10
11.193132
 20
52.106279
 30
0.0
 10
10.940793
 20
51.835677
 30
0.0
  0
LWPOLYLINE
  5
161
100
AcDbEntity
  8
0
 62
7
100
AcDbPolyline
 90
2
 70
0
 10
10.955078
 20
52.324414
 30
0.0
 10
10.707500
 20
52.049451
 30
0.0
  0
LWPOLYLINE
  5
162
100
AcDbEntity
  8
0
 62
7
100
AcDbPolyline
 90
2
 70
0
 10
10.713254
 20
52.538363
 30
0.0
 10
10.470512
 20
52.259119
 30
0.0
  0
LWPOLYLINE
  5
163
100
AcDbEntity
  8
0
 62
7
100
AcDbPolyline
 90
2
 70
0
 10
10.467733
 20
52.748058
 30
0.0
 10
9.992070
 20
52.181184
 30
0.0
  0
LWPOLYLINE
  5
164
100
AcDbEntity
  8
0
 62
7
100
AcDbPolyline
 90
2
 70
0
 10
8.287612
 20
50.149890
 30
0.0
 10
8.683997
 20
50.622284
 30
0.0
  0
LWPOLYLINE
  5
165
100
AcDbEntity
  8
0
 62
7
100
AcDbPolyline
 90
2
 70
0
 10
4.323755
 20
45.425950
 30
0.0
 10
4.720141
 20
45.898344
 30
0.0
  0
LWPOLYLINE
  5
166
100
AcDbEntity
  8
0
 62
7
100
AcDbPolyline
 90
2
 70
0
 10
0.558091
 20
40.938206
 30
0.0
 10
0.954477
 20
41.410600
 30
0.0
  0
LWPOLYLINE
  5
167
100
AcDbEntity
  8
0
 62
7
100
AcDbPolyline
 90
2
 70
0
 10
10.218589
 20
52.953435
 30
0.0
 10
9.985740
 20
52.665891
 30
0.0
  0
LWPOLYLINE
  5
168
100
AcDbEntity
  8
0
 62
7
100
AcDbPolyline
 90
2
 70
0
 10
9.965899
 20
53.154434
 30
0.0
 10
9.738104
 20
52.862870
 30
0.0
  0
LWPOLYLINE
  5
169
100
AcDbEntity
  8
0
 62
7
100
AcDbPolyline
 90
2
 70
0
 10
9.709740
 20
53.350992
 30
0.0
 10
9.487069
 20
53.055496
 30
0.0
  0
LWPOLYLINE
  5
16a
100
AcDbEntity
  8
0
 62
7
100
AcDbPolyline
 90
2
 70
0
 10
9.450189
 20
53.543049
 30
0.0
 10
9.232709
 20
53.243714
 30
0.0
  0
LWPOLYLINE
  5
16b
100
AcDbEntity
  8
0
 62
7
100
AcDbPolyline
 90
2
 70
0
 10
9.187326
 20
53.730548
 30
0.0
 10
8.904361
 20
53.326432
 30
0.0
  0
LWPOLYLINE
  5
16c
100
AcDbEntity
  8
0
 62
7
100
AcDbPolyline
 90
2
 70
0
 10
7.241946
 20
50.952257
 30
0.0
 10
7.595652
 20
51.457401
 30
0.0
  0
LWPOLYLINE
  5
16d
100
AcDbEntity
  8
0
 62
7
100
AcDbPolyline
 90
2
 70
0
 10
3.704892
 20
45.900820
 30
0.0
 10
4.058597
 20
46.405964
 30
0.0
  0
LWPOLYLINE
  5
16e
100
AcDbEntity
  8
0
 62
7
100
AcDbPolyline
 90
2
 70
0
 10
8.921231
 20
53.913430
 30
0.0
 10
8.714329
 20
53.606686
 30
0.0
  0
LWPOLYLINE
  5
16f
100
AcDbEntity
  8
0
 62
7
100
AcDbPolyline
 90
2
 70
0
 10
8.651984
 20
54.091641
 30
0.0
 10
8.450468
 20
53.781332
 30
0.0
  0
LWPOLYLINE
  5
170
100
AcDbEntity
  8
0
 62
7
100
AcDbPolyline
 90
2
 70
0
 10
8.379669
 20
54.265125
 30
0.0
 10
8.183599
 20
53.951347
 30
0.0
  0
LWPOLYLINE
  5
171
100
AcDbEntity
  8
0
 62
7
100
AcDbPolyline
 90
2
 70
0
 10
8.104366
 20
54.433830
 30
0.0
 10
7.913803
 20
54.116678
 30
0.0
  0
LWPOLYLINE
  5
172
100
AcDbEntity
  8
0
 62
7
100
AcDbPolyline
 90
2
 70
0
 10
7.826162
 20
54.597704
 30
0.0
 10
7.456163
 20
53.956846
 30
0.0
  0
LWPOLYLINE
  5
173
100
AcDbEntity
  8
0
 62
7
100
AcDbPolyline
 90
2
 70
0
 10
7.826162
 20
54.597704
 30
0.0
 10
6.798385
 20
52.817541
 30
0.0
  0
LWPOLYLINE
  5
174
100
AcDbEntity
  8
0
 62
7
100
AcDbPolyline
 90
2
 70
0
 10
5.744912
 20
50.992874
 30
0.0
 10
3.689357
 20
47.432548
 30
0.0
  0
LWPOLYLINE
  5
175
100
AcDbEntity
  8
0
 62
7
100
AcDbPolyline
 90
2
 70
0
 10
2.738662
 20
45.785897
 30
0.0
 10
-0.961338
 20
39.377309
 30
0.0
  0
LWPOLYLINE
  5
176
100
AcDbEntity
  8
0
 62
7
100
AcDbPolyline
 90
2
 70
0
 10
7.545140
 20
54.756699
 30
0.0
 10
7.365761
 20
54.433090
 30
0.0
  0
LWPOLYLINE
  5
177
100
AcDbEntity
  8
0
 62
7
100
AcDbPolyline
 90
2
 70
0
 10
7.261386
 20
54.910765
 30
0.0
 10
7.087682
 20
54.584074
 30
0.0
  0
LWPOLYLINE
  5
178
100
AcDbEntity
  8
0
 62
7
100
AcDbPolyline
 90
2
 70
0
 10
6.974987
 20
55.059857
 30
0.0
 10
6.807010
 20
54.730183
 30
0.0
  0
LWPOLYLINE
  5
179
100
AcDbEntity
  8
0
 62
7
100
AcDbPolyline
 90
2
 70
0
 10
6.686029
 20
55.203924
 30
0.0
 10
6.523831
 20
54.871370
 30
0.0
  0
LWPOLYLINE
  5
17a
100
AcDbEntity
  8
0
 62
7
100
AcDbPolyline
 90
2
 70
0
 10
6.394601
 20
55.342928
 30
0.0
 10
6.186109
 20
54.895817
 30
0.0
  0
LWPOLYLINE
  5
17b
100
AcDbEntity
  8
0
 62
7
100
AcDbPolyline
 90
2
 70
0
 10
4.961220
 20
52.269036
 30
0.0
 10
5.221835
 20
52.827925
 30
0.0
  0
LWPOLYLINE
  5
17c
100
AcDbEntity
  8
0
 62
7
100
AcDbPolyline
 90
2
 70
0
 10
2.355074
 20
46.680137
 30
0.0
 10
2.615688
 20
47.239028
 30
0.0
  0
LWPOLYLINE
  5
17d
100
AcDbEntity
  8
0
 62
7
100
AcDbPolyline
 90
2
 70
0
 10
6.100790
 20
55.476826
 30
0.0
 10
5.950298
 20
55.138813
 30
0.0
  0
LWPOLYLINE
  5
17e
100
AcDbEntity
  8
0
 62
7
100
AcDbPolyline
 90
2
 70
0
 10
5.804689
 20
55.605574
 30
0.0
 10
5.660118
 20
55.264988
 30
0.0
  0
LWPOLYLINE
  5
17f
100
AcDbEntity
  8
0
 62
7
100
AcDbPolyline
 90
2
 70
0
 10
5.506384
 20
55.729136
 30
0.0
 10
5.367780
 20
55.386078
 30
0.0
  0
LWPOLYLINE
  5
180
100
AcDbEntity
  8
0
 62
7
100
AcDbPolyline
 90
2
 70
0
 10
5.205969
 20
55.847473
 30
0.0
 10
5.073373
 20
55.502049
 30
0.0
  0
LWPOLYLINE
  5
181
100
AcDbEntity
  8
0
 62
7
100
AcDbPolyline
 90
2
 70
0
 10
4.903535
 20
55.960549
 30
0.0
 10
4.650440
 20
55.265175
 30
0.0
  0
LWPOLYLINE
  5
182
100
AcDbEntity
  8
0
 62
7
100
AcDbPolyline
 90
2
 70
0
 10
3.743517
 20
52.773424
 30
0.0
 10
3.954429
 20
53.352902
 30
0.0
  0
LWPOLYLINE
  5
183
100
AcDbEntity
  8
0
 62
7
100
AcDbPolyline
 90
2
 70
0
 10
1.634393
 20
46.978654
 30
0.0
 10
1.845305
 20
47.558131
 30
0.0
  0
LWPOLYLINE
  5
184
100
AcDbEntity
  8
0
 62
7
100
AcDbPolyline
 90
2
 70
0
 10
-0.369276
 20
41.473621
 30
0.0
 10
-0.158363
 20
42.053098
 30
0.0
  0
LWPOLYLINE
  5
185
100
AcDbEntity
  8
0
 62
7
100
AcDbPolyline
 90
2
 70
0
 10
4.599173
 20
56.068329
 30
0.0
 10
4.478713
 20
55.718487
 30
0.0
  0
LWPOLYLINE
  5
186
100
AcDbEntity
  8
0
 62
7
100
AcDbPolyline
 90
2
 70
0
 10
4.292977
 20
56.170780
 30
0.0
 10
4.178640
 20
55.818890
 30
0.0
  0
LWPOLYLINE
  5
187
100
AcDbEntity
  8
0
 62
7
100
AcDbPolyline
 90
2
 70
0
 10
3.985039
 20
56.267872
 30
0.0
 10
3.876862
 20
55.914040
 30
0.0
  0
LWPOLYLINE
  5
188
100
AcDbEntity
  8
0
 62
7
100
AcDbPolyline
 90
2
 70
0
 10
3.675453
 20
56.359575
 30
0.0
 10
3.573468
 20
56.003910
 30
0.0
  0
LWPOLYLINE
  5
189
100
AcDbEntity
  8
0
 62
7
100
AcDbPolyline
 90
2
 70
0
 10
3.364315
 20
56.445862
 30
0.0
 10
3.236631
 20
55.969340
 30
0.0
  0
LWPOLYLINE
  5
18a
100
AcDbEntity
  8
0
 62
7
100
AcDbPolyline
 90
2
 70
0
 10
2.486487
 20
53.169765
 30
0.0
 10
2.646092
 20
53.765418
 30
0.0
  0
LWPOLYLINE
  5
18b
100
AcDbEntity
  8
0
 62
7
100
AcDbPolyline
 90
2
 70
0
 10
0.890436
 20
47.213222
 30
0.0
 10
1.050041
 20
47.808877
 30
0.0
  0
LWPOLYLINE
  5
18c
100
AcDbEntity
  8
0
 62
7
100
AcDbPolyline
 90
2
 70
0
 10
-0.061977
 20
42.467461
 30
0.0
 10
-0.657631
 20
42.627066
 30
0.0
  0
LWPOLYLINE
  5
18d
100
AcDbEntity
  8
0
 62
7
100
AcDbPolyline
 90
2
 70
0
 10
0.204032
 20
43.460219
 30
0.0
 10
-0.391622
 20
43.619824
 30
0.0
  0
LWPOLYLINE
  5
18e
100
AcDbEntity
  8
0
 62
7
100
AcDbPolyline
 90
2
 70
0
 10
0.736049
 20
45.445733
 30
0.0
 10
0.140395
 20
45.605338
 30
0.0
  0
LWPOLYLINE
  5
18f
100
AcDbEntity
  8
0
 62
7
100
AcDbPolyline
 90
2
 70
0
 10
1.002057
 20
46.438490
 30
0.0
 10
0.406403
 20
46.598095
 30
0.0
  0
LWPOLYLINE
  5
190
100
AcDbEntity
  8
0
 62
7
100
AcDbPolyline
 90
2
 70
0
 10
1.268066
 20
47.431246
 30
0.0
 10
0.672412
 20
47.590851
 30
0.0
  0
LWPOLYLINE
  5
191
100
AcDbEntity
  8
0
 62
7
100
AcDbPolyline
 90
2
 70
0
 10
1.534074
 20
48.424004
 30
0.0
 10
0.938420
 20
48.583609
 30
0.0
  0
LWPOLYLINE
  5
192
100
AcDbEntity
  8
0
 62
7
100
AcDbPolyline
 90
2
 70
0
 10
1.800083
 20
49.416761
 30
0.0
 10
1.204428
 20
49.576366
 30
0.0
  0
LWPOLYLINE
  5
193
100
AcDbEntity
  8
0
 62
7
100
AcDbPolyline
 90
2
 70
0
 10
2.332100
 20
51.402274
 30
0.0
 10
1.736445
 20
51.561880
 30
0.0
  0
LWPOLYLINE
  5
194
100
AcDbEntity
  8
0
 62
7
100
AcDbPolyline
 90
2
 70
0
 10
2.598108
 20
52.395032
 30
0.0
 10
2.002454
 20
52.554637
 30
0.0
  0
LWPOLYLINE
  5
195
100
AcDbEntity
  8
0
 62
7
100
AcDbPolyline
 90
2
 70
0
 10
2.864116
 20
53.387789
 30
0.0
 10
2.268462
 20
53.547394
 30
0.0
  0
LWPOLYLINE
  5
196
100
AcDbEntity
  8
0
 62
7
100
AcDbPolyline
 90
2
 70
0
 10
3.130125
 20
54.380546
 30
0.0
 10
2.534471
 20
54.540151
 30
0.0
  0
LWPOLYLINE
  5
197
100
AcDbEntity
  8
0
 62
7
100
AcDbPolyline
 90
2
 70
0
 10
3.396134
 20
55.373303
 30
0.0
 10
2.800479
 20
55.532908
 30
0.0
  0
LWPOLYLINE
  5
198
100
AcDbEntity
  8
0
 62
7
100
AcDbPolyline
 90
2
 70
0
 10
3.051717
 20
56.526707
 30
0.0
 10
2.962206
 20
56.167696
 30
0.0
  0
LWPOLYLINE
  5
199
100
AcDbEntity
  8
0
 62
7
100
AcDbPolyline
 90
2
 70
0
 10
2.737757
 20
56.602081
 30
0.0
 10
2.654525
 20
56.241564
 30
0.0
  0
LWPOLYLINE
  5
19a
100
AcDbEntity
  8
0
 62
7
100
AcDbPolyline
 90
2
 70
0
 10
2.422529
 20
56.671965
 30
0.0
 10
2.345601
 20
56.310051
 30
0.0
  0
LWPOLYLINE
  5
19b
100
AcDbEntity
  8
0
 62
7
100
AcDbPolyline
 90
2
 70
0
 10
2.106129
 20
56.736338
 30
0.0
 10
2.035529
 20
56.373137
 30
0.0
  0
LWPOLYLINE
  5
19c
100
AcDbEntity
  8
0
 62
7
100
AcDbPolyline
 90
2
 70
0
 10
1.788654
 20
56.795178
 30
0.0
 10
1.660154
 20
56.066420
 30
0.0
  0
LWPOLYLINE
  5
19d
100
AcDbEntity
  8
0
 62
7
100
AcDbPolyline
 90
2
 70
0
 10
1.199697
 20
53.455039
 30
0.0
 10
1.306780
 20
54.062337
 30
0.0
  0
LWPOLYLINE
  5
19e
100
AcDbEntity
  8
0
 62
7
100
AcDbPolyline
 90
2
 70
0
 10
0.128867
 20
47.382058
 30
0.0
 10
0.235950
 20
47.989357
 30
0.0
  0
LWPOLYLINE
  5
19f
100
AcDbEntity
  8
0
 62
7
100
AcDbPolyline
 90
2
 70
0
 10
-0.888422
 20
41.612726
 30
0.0
 10
-0.781339
 20
42.220024
 30
0.0
  0
LWPOLYLINE
  5
1a0
100
AcDbEntity
  8
0
 62
7
100
AcDbPolyline
 90
2
 70
0
 10
1.470200
 20
56.848469
 30
0.0
 10
1.412319
 20
56.483025
 30
0.0
  0
LWPOLYLINE
  5
1a1
100
AcDbEntity
  8
0
 62
7
100
AcDbPolyline
 90
2
 70
0
 10
1.150865
 20
56.896195
 30
0.0
 10
1.099371
 20
56.529795
 30
0.0
  0
LWPOLYLINE
  5
1a2
100
AcDbEntity
  8
0
 62
7
100
AcDbPolyline
 90
2
 70
0
 10
0.830745
 20
56.938339
 30
0.0
 10
0.785654
 20
56.571097
 30
0.0
  0
LWPOLYLINE
  5
1a3
100
AcDbEntity
  8
0
 62
7
100
AcDbPolyline
 90
2
 70
0
 10
0.509939
 20
56.974890
 30
0.0
 10
0.471264
 20
56.606917
 30
0.0
  0
LWPOLYLINE
  5
1a4
100
AcDbEntity
  8
0
 62
7
100
AcDbPolyline
 90
2
 70
0
 10
0.188544
 20
57.005837
 30
0.0
 10
0.145547
 20
56.514382
 30
0.0
  0
LWPOLYLINE
  5
1a5
100
AcDbEntity
  8
0
 62
7
100
AcDbPolyline
 90
2
 70
0
 10
-0.107060
 20
53.627076
 30
0.0
 10
-0.053314
 20
54.241397
 30
0.0
  0
LWPOLYLINE
  5
1a6
100
AcDbEntity
  8
0
 62
7
100
AcDbPolyline
 90
2
 70
0
 10
-0.644520
 20
47.483876
 30
0.0
 10
-0.590774
 20
48.098197
 30
0.0
  0
LWPOLYLINE
  5
1a7
100
AcDbEntity
  8
0
 62
7
100
AcDbPolyline
 90
2
 70
0
 10
-0.133343
 20
57.031170
 30
0.0
 10
-0.159153
 20
56.662071
 30
0.0
  0
LWPOLYLINE
  5
1a8
100
AcDbEntity
  8
0
 62
7
100
AcDbPolyline
 90
2
 70
0
 10
-0.455622
 20
57.050881
 30
0.0
 10
-0.474987
 20
56.681389
 30
0.0
  0
LWPOLYLINE
  5
1a9
100
AcDbEntity
  8
0
 62
7
100
AcDbPolyline
 90
2
 70
0
 10
-0.778197
 20
57.064964
 30
0.0
 10
-0.791110
 20
56.695191
 30
0.0
  0
LWPOLYLINE
  5
1aa
100
AcDbEntity
  8
0
 62
7
100
AcDbPolyline
 90
2
 70
0
 10
-1.100968
 20
57.073418
 30
0.0
 10
-1.107425
 20
56.703474
 30
0.0
  0
LWPOLYLINE
  5
1ab
100
AcDbEntity
  8
0
 62
7
100
AcDbPolyline
 90
2
 70
0
 10
-1.423838
 20
57.076235
 30
0.0
 10
-1.423838
 20
56.336235
 30
0.0
  0
LWPOLYLINE
  5
1ac
100
AcDbEntity
  8
0
 62
7
100
AcDbPolyline
 90
2
 70
0
 10
-1.423838
 20
57.076235
 30
0.0
 10
-1.423838
 20
55.020680
 30
0.0
  0
LWPOLYLINE
  5
1ad
100
AcDbEntity
  8
0
 62
7
100
AcDbPolyline
 90
2
 70
0
 10
-1.423838
 20
52.913735
 30
0.0
 10
-1.423838
 20
48.802624
 30
0.0
  0
LWPOLYLINE
  5
1ae
100
AcDbEntity
  8
0
 62
7
100
AcDbPolyline
 90
2
 70
0
 10
-1.423838
 20
46.901235
 30
0.0
 10
-1.423838
 20
39.501235
 30
0.0
  0
LWPOLYLINE
  5
1af
100
AcDbEntity
  8
0
 62
7
100
AcDbPolyline
 90
2
 70
0
 10
-1.746707
 20
57.073418
 30
0.0
 10
-1.740250
 20
56.703474
 30
0.0
  0
LWPOLYLINE
  5
1b0
100
AcDbEntity
  8
0
 62
7
100
AcDbPolyline
 90
2
 70
0
 10
-2.069478
 20
57.064964
 30
0.0
 10
-2.056565
 20
56.695191
 30
0.0
  0
LWPOLYLINE
  5
1b1
100
AcDbEntity
  8
0
 62
7
100
AcDbPolyline
 90
2
 70
0
 10
-2.392053
 20
57.050881
 30
0.0
 10
-2.372688
 20
56.681389
 30
0.0
  0
LWPOLYLINE
  5
1b2
100
AcDbEntity
  8
0
 62
7
100
AcDbPolyline
 90
2
 70
0
 10
-2.714332
 20
57.031170
 30
0.0
 10
-2.688523
 20
56.662071
 30
0.0
  0
LWPOLYLINE
  5
1b3
100
AcDbEntity
  8
0
 62
7
100
AcDbPolyline
 90
2
 70
0
 10
-3.036219
 20
57.005837
 30
0.0
 10
-2.993222
 20
56.514382
 30
0.0
  0
LWPOLYLINE
  5
1b4
100
AcDbEntity
  8
0
 62
7
100
AcDbPolyline
 90
2
 70
0
 10
-2.740616
 20
53.627076
 30
0.0
 10
-2.794362
 20
54.241397
 30
0.0
  0
LWPOLYLINE
  5
1b5
100
AcDbEntity
  8
0
 62
7
100
AcDbPolyline
 90
2
 70
0
 10
-2.203155
 20
47.483876
 30
0.0
 10
-2.256901
 20
48.098197
 30
0.0
  0
LWPOLYLINE
  5
1b6
100
AcDbEntity
  8
0
 62
7
100
AcDbPolyline
 90
2
 70
0
 10
-3.357614
 20
56.974890
 30
0.0
 10
-3.318939
 20
56.606917
 30
0.0
  0
LWPOLYLINE
  5
1b7
100
AcDbEntity
  8
0
 62
7
100
AcDbPolyline
 90
2
 70
0
 10
-3.678421
 20
56.938339
 30
0.0
 10
-3.633329
 20
56.571097
 30
0.0
  0
LWPOLYLINE
  5
1b8
100
AcDbEntity
  8
0
 62
7
100
AcDbPolyline
 90
2
 70
0
 10
-3.998540
 20
56.896195
 30
0.0
 10
-3.947046
 20
56.529795
 30
0.0
  0
LWPOLYLINE
  5
1b9
100
AcDbEntity
  8
0
 62
7
100
AcDbPolyline
 90
2
 70
0
 10
-4.317875
 20
56.848469
 30
0.0
 10
-4.259994
 20
56.483025
 30
0.0
  0
LWPOLYLINE
  5
1ba
100
AcDbEntity
  8
0
 62
7
100
AcDbPolyline
 90
2
 70
0
 10
-4.636329
 20
56.795178
 30
0.0
 10
-4.507829
 20
56.066420
 30
0.0
  0
LWPOLYLINE
  5
1bb
100
AcDbEntity
  8
0
 62
7
100
AcDbPolyline
 90
2
 70
0
 10
-4.047372
 20
53.455039
 30
0.0
 10
-4.154455
 20
54.062337
 30
0.0
  0
LWPOLYLINE
  5
1bc
100
AcDbEntity
  8
0
 62
7
100
AcDbPolyline
 90
2
 70
0
 10
-2.976542
 20
47.382058
 30
0.0
 10
-3.083625
 20
47.989357
 30
0.0
  0
LWPOLYLINE
  5
1bd
100
AcDbEntity
  8
0
 62
7
100
AcDbPolyline
 90
2
 70
0
 10
-1.959253
 20
41.612726
 30
0.0
 10
-2.066336
 20
42.220024
 30
0.0
  0
LWPOLYLINE
  5
1be
100
AcDbEntity
  8
0
 62
7
100
AcDbPolyline
 90
2
 70
0
 10
-4.953804
 20
56.736338
 30
0.0
 10
-4.883205
 20
56.373137
 30
0.0
  0
LWPOLYLINE
  5
1bf
100
AcDbEntity
  8
0
 62
7
100
AcDbPolyline
 90
2
 70
0
 10
-5.270204
 20
56.671965
 30
0.0
 10
-5.193277
 20
56.310051
 30
0.0
  0
LWPOLYLINE
  5
1c0
100
AcDbEntity
  8
0
 62
7
100
AcDbPolyline
 90
2
 70
0
 10
-5.585432
 20
56.602081
 30
0.0
 10
-5.502200
 20
56.241564
 30
0.0
  0
LWPOLYLINE
  5
1c1
100
AcDbEntity
  8
0
 62
7
100
AcDbPolyline
 90
2
 70
0
 10
-5.899393
 20
56.526707
 30
0.0
 10
-5.809882
 20
56.167696
 30
0.0
  0
LWPOLYLINE
  5
1c2
100
AcDbEntity
  8
0
 62
7
100
AcDbPolyline
 90
2
 70
0
 10
-6.211990
 20
56.445862
 30
0.0
 10
-6.084306
 20
55.969340
 30
0.0
  0
LWPOLYLINE
  5
1c3
100
AcDbEntity
  8
0
 62
7
100
AcDbPolyline
 90
2
 70
0
 10
-5.334162
 20
53.169765
 30
0.0
 10
-5.493767
 20
53.765418
 30
0.0
  0
LWPOLYLINE
  5
1c4
100
AcDbEntity
  8
0
 62
7
100
AcDbPolyline
 90
2
 70
0
 10
-3.738111
 20
47.213222
 30
0.0
 10
-3.897716
 20
47.808877
 30
0.0
  0
LWPOLYLINE
  5
1c5
100
AcDbEntity
  8
0
 62
7
100
AcDbPolyline
 90
2
 70
0
 10
-2.190044
 20
42.627066
 30
0.0
 10
-2.785699
 20
42.467461
 30
0.0
  0
LWPOLYLINE
  5
1c6
100
AcDbEntity
  8
0
 62
7
100
AcDbPolyline
 90
2
 70
0
 10
-2.456053
 20
43.619824
 30
0.0
 10
-3.051707
 20
43.460219
 30
0.0
  0
LWPOLYLINE
  5
1c7
100
AcDbEntity
  8
0
 62
7
100
AcDbPolyline
 90
2
 70
0
 10
-2.988070
 20
45.605338
 30
0.0
 10
-3.583724
 20
45.445733
 30
0.0
  0
LWPOLYLINE
  5
1c8
100
AcDbEntity
  8
0
 62
7
100
AcDbPolyline
 90
2
 70
0
 10
-3.254078
 20
46.598095
 30
0.0
 10
-3.849732
 20
46.438490
 30
0.0
  0
LWPOLYLINE
  5
1c9
100
AcDbEntity
  8
0
 62
7
100
AcDbPolyline
 90
2
 70
0
 10
-3.520087
 20
47.590851
 30
0.0
 10
-4.115741
 20
47.431246
 30
0.0
  0
LWPOLYLINE
  5
1ca
100
AcDbEntity
  8
0
 62
7
100
AcDbPolyline
 90
2
 70
0
 10
-3.786095
 20
48.583609
 30
0.0
 10
-4.381749
 20
48.424004
 30
0.0
  0
LWPOLYLINE
  5
1cb
100
AcDbEntity
  8
0
 62
7
100
AcDbPolyline
 90
2
 70
0
 10
-4.052104
 20
49.576366
 30
0.0
 10
-4.647758
 20
49.416761
 30
0.0
  0
LWPOLYLINE
  5
1cc
100
AcDbEntity
  8
0
 62
7
100
AcDbPolyline
 90
2
 70
0
 10
-4.584121
 20
51.561880
 30
0.0
 10
-5.179775
 20
51.402274
 30
0.0
  0
LWPOLYLINE
  5
1cd
100
AcDbEntity
  8
0
 62
7
100
AcDbPolyline
 90
2
 70
0
 10
-4.850129
 20
52.554637
 30
0.0
 10
-5.445783
 20
52.395032
 30
0.0
  0
LWPOLYLINE
  5
1ce
100
AcDbEntity
  8
0
 62
7
100
AcDbPolyline
 90
2
 70
0
 10
-5.116137
 20
53.547394
 30
0.0
 10
-5.711792
 20
53.387789
 30
0.0
  0
LWPOLYLINE
  5
1cf
100
AcDbEntity
  8
0
 62
7
100
AcDbPolyline
 90
2
 70
0
 10
-5.382146
 20
54.540151
 30
0.0
 10
-5.977800
 20
54.380546
 30
0.0
  0
LWPOLYLINE
  5
1d0
100
AcDbEntity
  8
0
 62
7
100
AcDbPolyline
 90
2
 70
0
 10
-5.648154
 20
55.532908
 30
0.0
 10
-6.243809
 20
55.373303
 30
0.0
  0
LWPOLYLINE
  5
1d1
100
AcDbEntity
  8
0
 62
7
100
AcDbPolyline
 90
2
 70
0
 10
-6.523128
 20
56.359575
 30
0.0
 10
-6.421143
 20
56.003910
 30
0.0
  0
LWPOLYLINE
  5
1d2
100
AcDbEntity
  8
0
 62
7
100
AcDbPolyline
 90
2
 70
0
 10
-6.832714
 20
56.267872
 30
0.0
 10
-6.724537
 20
55.914040
 30
0.0
  0
LWPOLYLINE
  5
1d3
100
AcDbEntity
  8
0
 62
7
100
AcDbPolyline
 90
2
 70
0
 10
-7.140652
 20
56.170780
 30
0.0
 10
-7.026316
 20
55.818890
 30
0.0
  0
LWPOLYLINE
  5
1d4
100
AcDbEntity
  8
0
 62
7
100
AcDbPolyline
 90
2
 70
0
 10
-7.446848
 20
56.068329
 30
0.0
 10
-7.326388
 20
55.718487
 30
0.0
  0
LWPOLYLINE
  5
1d5
100
AcDbEntity
  8
0
 62
7
100
AcDbPolyline
 90
2
 70
0
 10
-7.751210
 20
55.960549
 30
0.0
 10
-7.498116
 20
55.265175
 30
0.0
  0
LWPOLYLINE
  5
1d6
100
AcDbEntity
  8
0
 62
7
100
AcDbPolyline
 90
2
 70
0
 10
-6.591192
 20
52.773424
 30
0.0
 10
-6.802104
 20
53.352902
 30
0.0
  0
LWPOLYLINE
  5
1d7
100
AcDbEntity
  8
0
 62
7
100
AcDbPolyline
 90
2
 70
0
 10
-4.482068
 20
46.978654
 30
0.0
 10
-4.692980
 20
47.558131
 30
0.0
  0
LWPOLYLINE
  5
1d8
100
AcDbEntity
  8
0
 62
7
100
AcDbPolyline
 90
2
 70
0
 10
-2.478400
 20
41.473621
 30
0.0
 10
-2.689312
 20
42.053098
 30
0.0
  0
LWPOLYLINE
  5
1d9
100
AcDbEntity
  8
0
 62
7
100
AcDbPolyline
 90
2
 70
0
 10
-8.053645
 20
55.847473
 30
0.0
 10
-7.921049
 20
55.502049
 30
0.0
  0
LWPOLYLINE
  5
1da
100
AcDbEntity
  8
0
 62
7
100
AcDbPolyline
 90
2
 70
0
 10
-8.354060
 20
55.729136
 30
0.0
 10
-8.215455
 20
55.386078
 30
0.0
  0
LWPOLYLINE
  5
1db
100
AcDbEntity
  8
0
 62
7
100
AcDbPolyline
 90
2
 70
0
 10
-8.652364
 20
55.605574
 30
0.0
 10
-8.507793
 20
55.264988
 30
0.0
  0
LWPOLYLINE
  5
1dc
100
AcDbEntity
  8
0
 62
7
100
AcDbPolyline
 90
2
 70
0
 10
-8.948465
 20
55.476826
 30
0.0
 10
-8.797973
 20
55.138813
 30
0.0
  0
LWPOLYLINE
  5
1dd
100
AcDbEntity
  8
0
 62
7
100
AcDbPolyline
 90
2
 70
0
 10
-9.242276
 20
55.342928
 30
0.0
 10
-9.033784
 20
54.895817
 30
0.0
  0
LWPOLYLINE
  5
1de
100
AcDbEntity
  8
0
 62
7
100
AcDbPolyline
 90
2
 70
0
 10
-7.808895
 20
52.269036
 30
0.0
 10
-8.069510
 20
52.827925
 30
0.0
  0
LWPOLYLINE
  5
1df
100
AcDbEntity
  8
0
 62
7
100
AcDbPolyline
 90
2
 70
0
 10
-5.202749
 20
46.680137
 30
0.0
 10
-5.463364
 20
47.239028
 30
0.0
  0
LWPOLYLINE
  5
1e0
100
AcDbEntity
  8
0
 62
7
100
AcDbPolyline
 90
2
 70
0
 10
-9.533704
 20
55.203924
 30
0.0
 10
-9.371507
 20
54.871370
 30
0.0
  0
LWPOLYLINE
  5
1e1
100
AcDbEntity
  8
0
 62
7
100
AcDbPolyline
 90
2
 70
0
 10
-9.822662
 20
55.059857
 30
0.0
 10
-9.654685
 20
54.730183
 30
0.0
  0
LWPOLYLINE
  5
1e2
100
AcDbEntity
  8
0
 62
7
100
AcDbPolyline
 90
2
 70
0
 10
-10.109061
 20
54.910765
 30
0.0
 10
-9.935357
 20
54.584074
 30
0.0
  0
LWPOLYLINE
  5
1e3
100
AcDbEntity
  8
0
 62
7
100
AcDbPolyline
 90
2
 70
0
 10
-10.392816
 20
54.756699
 30
0.0
 10
-10.213436
 20
54.433090
 30
0.0
  0
LWPOLYLINE
  5
1e4
100
AcDbEntity
  8
0
 62
7
100
AcDbPolyline
 90
2
 70
0
 10
-10.673838
 20
54.597704
 30
0.0
 10
-10.303838
 20
53.956846
 30
0.0
  0
LWPOLYLINE
  5
1e5
100
AcDbEntity
  8
0
 62
7
100
AcDbPolyline
 90
2
 70
0
 10
-10.673838
 20
54.597704
 30
0.0
 10
-9.646060
 20
52.817541
 30
0.0
  0
LWPOLYLINE
  5
1e6
100
AcDbEntity
  8
0
 62
7
100
AcDbPolyline
 90
2
 70
0
 10
-8.592587
 20
50.992874
 30
0.0
 10
-6.537032
 20
47.432548
 30
0.0
  0
LWPOLYLINE
  5
1e7
100
AcDbEntity
  8
0
 62
7
100
AcDbPolyline
 90
2
 70
0
 10
-5.586338
 20
45.785897
 30
0.0
 10
-1.886338
 20
39.377309
 30
0.0
  0
LWPOLYLINE
  5
1e8
100
AcDbEntity
  8
0
 62
7
100
AcDbPolyline
 90
2
 70
0
 10
-10.952042
 20
54.433830
 30
0.0
 10
-10.761478
 20
54.116678
 30
0.0
  0
LWPOLYLINE
  5
1e9
100
AcDbEntity
  8
0
 62
7
100
AcDbPolyline
 90
2
 70
0
 10
-11.227345
 20
54.265125
 30
0.0
 10
-11.031274
 20
53.951347
 30
0.0
  0
LWPOLYLINE
  5
1ea
100
AcDbEntity
  8
0
 62
7
100
AcDbPolyline
 90
2
 70
0
 10
-11.499660
 20
54.091641
 30
0.0
 10
-11.298143
 20
53.781332
 30
0.0
  0
LWPOLYLINE
  5
1eb
100
AcDbEntity
  8
0
 62
7
100
AcDbPolyline
 90
2
 70
0
 10
-11.768907
 20
53.913430
 30
0.0
 10
-11.562005
 20
53.606686
 30
0.0
  0
LWPOLYLINE
  5
1ec
100
AcDbEntity
  8
0
 62
7
100
AcDbPolyline
 90
2
 70
0
 10
-12.035002
 20
53.730548
 30
0.0
 10
-11.752037
 20
53.326432
 30
0.0
  0
LWPOLYLINE
  5
1ed
100
AcDbEntity
  8
0
 62
7
100
AcDbPolyline
 90
2
 70
0
 10
-10.089622
 20
50.952257
 30
0.0
 10
-10.443327
 20
51.457401
 30
0.0
  0
LWPOLYLINE
  5
1ee
100
AcDbEntity
  8
0
 62
7
100
AcDbPolyline
 90
2
 70
0
 10
-6.552567
 20
45.900820
 30
0.0
 10
-6.906272
 20
46.405964
 30
0.0
  0
LWPOLYLINE
  5
1ef
100
AcDbEntity
  8
0
 62
7
100
AcDbPolyline
 90
2
 70
0
 10
-12.297865
 20
53.543049
 30
0.0
 10
-12.080385
 20
53.243714
 30
0.0
  0
LWPOLYLINE
  5
1f0
100
AcDbEntity
  8
0
 62
7
100
AcDbPolyline
 90
2
 70
0
 10
-12.557416
 20
53.350992
 30
0.0
 10
-12.334745
 20
53.055496
 30
0.0
  0
LWPOLYLINE
  5
1f1
100
AcDbEntity
  8
0
 62
7
100
AcDbPolyline
 90
2
 70
0
 10
-12.813575
 20
53.154434
 30
0.0
 10
-12.585780
 20
52.862870
 30
0.0
  0
LWPOLYLINE
  5
1f2
100
AcDbEntity
  8
0
 62
7
100
AcDbPolyline
 90
2
 70
0
 10
-13.066265
 20
52.953435
 30
0.0
 10
-12.833416
 20
52.665891
 30
0.0
  0
LWPOLYLINE
  5
1f3
100
AcDbEntity
  8
0
 62
7
100
AcDbPolyline
 90
2
 70
0
 10
-13.315409
 20
52.748058
 30
0.0
 10
-12.839746
 20
52.181184
 30
0.0
  0
LWPOLYLINE
  5
1f4
100
AcDbEntity
  8
0
 62
7
100
AcDbPolyline
 90
2
 70
0
 10
-11.135287
 20
50.149890
 30
0.0
 10
-11.531673
 20
50.622284
 30
0.0
  0
LWPOLYLINE
  5
1f5
100
AcDbEntity
  8
0
 62
7
100
AcDbPolyline
 90
2
 70
0
 10
-7.171430
 20
45.425950
 30
0.0
 10
-7.567816
 20
45.898344
 30
0.0
  0
LWPOLYLINE
  5
1f6
100
AcDbEntity
  8
0
 62
7
100
AcDbPolyline
 90
2
 70
0
 10
-3.405766
 20
40.938206
 30
0.0
 10
-3.802152
 20
41.410600
 30
0.0
  0
LWPOLYLINE
  5
1f7
100
AcDbEntity
  8
0
 62
7
100
AcDbPolyline
 90
2
 70
0
 10
-13.560930
 20
52.538363
 30
0.0
 10
-13.318188
 20
52.259119
 30
0.0
  0
LWPOLYLINE
  5
1f8
100
AcDbEntity
  8
0
 62
7
100
AcDbPolyline
 90
2
 70
0
 10
-13.802754
 20
52.324414
 30
0.0
 10
-13.555176
 20
52.049451
 30
0.0
  0
LWPOLYLINE
  5
1f9
100
AcDbEntity
  8
0
 62
7
100
AcDbPolyline
 90
2
 70
0
 10
-14.040808
 20
52.106279
 30
0.0
 10
-13.788469
 20
51.835677
 30
0.0
  0
LWPOLYLINE
  5
1fa
100
AcDbEntity
  8
0
 62
7
100
AcDbPolyline
 90
2
 70
0
 10
-14.275018
 20
51.884021
 30
0.0
 10
-14.017994
 20
51.617866
 30
0.0
  0
LWPOLYLINE
  5
1fb
100
AcDbEntity
  8
0
 62
7
100
AcDbPolyline
 90
2
 70
0
 10
-14.505313
 20
51.657710
 30
0.0
 10
-14.156474
 20
51.308871
 30
0.0
  0
LWPOLYLINE
  5
1fc
100
AcDbEntity
  8
0
 62
7
100
AcDbPolyline
 90
2
 70
0
 10
-12.107043
 20
49.259440
 30
0.0
 10
-12.543092
 20
49.695489
 30
0.0
  0
LWPOLYLINE
  5
1fd
100
AcDbEntity
  8
0
 62
7
100
AcDbPolyline
 90
2
 70
0
 10
-7.746551
 20
44.898948
 30
0.0
 10
-8.182600
 20
45.334998
 30
0.0
  0
LWPOLYLINE
  5
1fe
100
AcDbEntity
  8
0
 62
7
100
AcDbPolyline
 90
2
 70
0
 10
-4.112808
 20
41.701255
 30
0.0
 10
-4.548857
 20
41.265205
 30
0.0
  0
LWPOLYLINE
  5
1ff
100
AcDbEntity
  8
0
 62
7
100
AcDbPolyline
 90
2
 70
0
 10
-4.839556
 20
42.428003
 30
0.0
 10
-5.275605
 20
41.991954
 30
0.0
  0
LWPOLYLINE
  5
200
100
AcDbEntity
  8
0
 62
7
100
AcDbPolyline
 90
2
 70
0
 10
-6.293054
 20
43.881500
 30
0.0
 10
-6.729103
 20
43.445451
 30
0.0
  0
LWPOLYLINE
  5
201
100
AcDbEntity
  8
0
 62
7
100
AcDbPolyline
 90
2
 70
0
 10
-7.019802
 20
44.608249
 30
0.0
 10
-7.455852
 20
44.172200
 30
0.0
  0
LWPOLYLINE
  5
202
100
AcDbEntity
  8
0
 62
7
100
AcDbPolyline
 90
2
 70
0
 10
-7.746551
 20
45.334998
 30
0.0
 10
-8.182600
 20
44.898948
 30
0.0
  0
LWPOLYLINE
  5
203
100
AcDbEntity
  8
0
 62
7
100
AcDbPolyline
 90
2
 70
0
 10
-8.473299
 20
46.061746
 30
0.0
 10
-8.909348
 20
45.625697
 30
0.0
  0
LWPOLYLINE
  5
204
100
AcDbEntity
  8
0
 62
7
100
AcDbPolyline
 90
2
 70
0
 10
-9.200048
 20
46.788495
 30
0.0
 10
-9.636097
 20
46.352446
 30
0.0
  0
LWPOLYLINE
  5
205
100
AcDbEntity
  8
0
 62
7
100
AcDbPolyline
 90
2
 70
0
 10
-10.653545
 20
48.241993
 30
0.0
 10
-11.089595
 20
47.805943
 30
0.0
  0
LWPOLYLINE
  5
206
100
AcDbEntity
  8
0
 62
7
100
AcDbPolyline
 90
2
 70
0
 10
-11.380294
 20
48.968741
 30
0.0
 10
-11.816344
 20
48.532692
 30
0.0
  0
LWPOLYLINE
  5
207
100
AcDbEntity
  8
0
 62
7
100
AcDbPolyline
 90
2
 70
0
 10
-12.107043
 20
49.695489
 30
0.0
 10
-12.543092
 20
49.259440
 30
0.0
  0
LWPOLYLINE
  5
208
100
AcDbEntity
  8
0
 62
7
100
AcDbPolyline
 90
2
 70
0
 10
-12.833791
 20
50.422238
 30
0.0
 10
-13.269841
 20
49.986188
 30
0.0
  0
LWPOLYLINE
  5
209
100
AcDbEntity
  8
0
 62
7
100
AcDbPolyline
 90
2
 70
0
 10
-13.560541
 20
51.148986
 30
0.0
 10
-13.996589
 20
50.712938
 30
0.0
  0
LWPOLYLINE
  5
20a
100
AcDbEntity
  8
0
 62
7
100
AcDbPolyline
 90
2
 70
0
 10
-14.731624
 20
51.427415
 30
0.0
 10
-14.465469
 20
51.170391
 30
0.0
  0
LWPOLYLINE
  5
20b
100
AcDbEntity
  8
0
 62
7
100
AcDbPolyline
 90
2
 70
0
 10
-14.953882
 20
51.193205
 30
0.0
 10
-14.683280
 20
50.940866
 30
0.0
  0
LWPOLYLINE
  5
20c
100
AcDbEntity
  8
0
 62
7
100
AcDbPolyline
 90
2
 70
0
 10
-15.172017
 20
50.955151
 30
0.0
 10
-14.897054
 20
50.707573
 30
0.0
  0
LWPOLYLINE
  5
20d
100
AcDbEntity
  8
0
 62
7
100
AcDbPolyline
 90
2
 70
0
 10
-15.385966
 20
50.713327
 30
0.0
 10
-15.106722
 20
50.470585
 30
0.0
  0
LWPOLYLINE
  5
20e
100
AcDbEntity
  8
0
 62
7
100
AcDbPolyline
 90
2
 70
0
 10
-15.595661
 20
50.467806
 30
0.0
 10
-15.028787
 20
49.992143
 30
0.0
  0
LWPOLYLINE
  5
20f
100
AcDbEntity
  8
0
 62
7
100
AcDbPolyline
 90
2
 70
0
 10
-12.997493
 20
48.287685
 30
0.0
 10
-13.469887
 20
48.684070
 30
0.0
  0
LWPOLYLINE
  5
210
100
AcDbEntity
  8
0
 62
7
100
AcDbPolyline
 90
2
 70
0
 10
-8.273552
 20
44.323828
 30
0.0
 10
-8.745946
 20
44.720214
 30
0.0
  0
LWPOLYLINE
  5
211
100
AcDbEntity
  8
0
 62
7
100
AcDbPolyline
 90
2
 70
0
 10
-3.785808
 20
40.558164
 30
0.0
 10
-4.258202
 20
40.954550
 30
0.0
  0
LWPOLYLINE
  5
212
100
AcDbEntity
  8
0
 62
7
100
AcDbPolyline
 90
2
 70
0
 10
-15.801038
 20
50.218662
 30
0.0
 10
-15.513494
 20
49.985813
 30
0.0
  0
LWPOLYLINE
  5
213
100
AcDbEntity
  8
0
 62
7
100
AcDbPolyline
 90
2
 70
0
 10
-16.002037
 20
49.965972
 30
0.0
 10
-15.710473
 20
49.738177
 30
0.0
  0
LWPOLYLINE
  5
214
100
AcDbEntity
  8
0
 62
7
100
AcDbPolyline
 90
2
 70
0
 10
-16.198595
 20
49.709813
 30
0.0
 10
-15.903099
 20
49.487142
 30
0.0
  0
LWPOLYLINE
  5
215
100
AcDbEntity
  8
0
 62
7
100
AcDbPolyline
 90
2
 70
0
 10
-16.390652
 20
49.450262
 30
0.0
 10
-16.091317
 20
49.232782
 30
0.0
  0
LWPOLYLINE
  5
216
100
AcDbEntity
  8
0
 62
7
100
AcDbPolyline
 90
2
 70
0
 10
-16.578151
 20
49.187399
 30
0.0
 10
-16.174035
 20
48.904434
 30
0.0
  0
LWPOLYLINE
  5
217
100
AcDbEntity
  8
0
 62
7
100
AcDbPolyline
 90
2
 70
0
 10
-13.799860
 20
47.242019
 30
0.0
 10
-14.305004
 20
47.595725
 30
0.0
  0
LWPOLYLINE
  5
218
100
AcDbEntity
  8
0
 62
7
100
AcDbPolyline
 90
2
 70
0
 10
-8.748422
 20
43.704965
 30
0.0
 10
-9.253566
 20
44.058670
 30
0.0
  0
LWPOLYLINE
  5
219
100
AcDbEntity
  8
0
 62
7
100
AcDbPolyline
 90
2
 70
0
 10
-16.761033
 20
48.921304
 30
0.0
 10
-16.454289
 20
48.714402
 30
0.0
  0
LWPOLYLINE
  5
21a
100
AcDbEntity
  8
0
 62
7
100
AcDbPolyline
 90
2
 70
0
 10
-16.939244
 20
48.652057
 30
0.0
 10
-16.628935
 20
48.450541
 30
0.0
  0
LWPOLYLINE
  5
21b
100
AcDbEntity
  8
0
 62
7
100
AcDbPolyline
 90
2
 70
0
 10
-17.112728
 20
48.379742
 30
0.0
 10
-16.798950
 20
48.183672
 30
0.0
  0
LWPOLYLINE
  5
21c
100
AcDbEntity
  8
0
 62
7
100
AcDbPolyline
 90
2
 70
0
 10
-17.281433
 20
48.104439
 30
0.0
 10
-16.964281
 20
47.913876
 30
0.0
  0
LWPOLYLINE
  5
21d
100
AcDbEntity
  8
0
 62
7
100
AcDbPolyline
 90
2
 70
0
 10
-17.445307
 20
47.826235
 30
0.0
 10
-16.804449
 20
47.456236
 30
0.0
  0
LWPOLYLINE
  5
21e
100
AcDbEntity
  8
0
 62
7
100
AcDbPolyline
 90
2
 70
0
 10
-17.445307
 20
47.826235
 30
0.0
 10
-15.665144
 20
46.798458
 30
0.0
  0
LWPOLYLINE
  5
21f
100
AcDbEntity
  8
0
 62
7
100
AcDbPolyline
 90
2
 70
0
 10
-13.840477
 20
45.744985
 30
0.0
 10
-10.280150
 20
43.689430
 30
0.0
  0
LWPOLYLINE
  5
220
100
AcDbEntity
  8
0
 62
7
100
AcDbPolyline
 90
2
 70
0
 10
-8.633499
 20
42.738735
 30
0.0
 10
-2.224911
 20
39.038735
 30
0.0
  0
LWPOLYLINE
  5
221
100
AcDbEntity
  8
0
 62
7
100
AcDbPolyline
 90
2
 70
0
 10
-17.604302
 20
47.545213
 30
0.0
 10
-17.280693
 20
47.365834
 30
0.0
  0
LWPOLYLINE
  5
222
100
AcDbEntity
  8
0
 62
7
100
AcDbPolyline
 90
2
 70
0
 10
-17.758368
 20
47.261459
 30
0.0
 10
-17.431677
 20
47.087755
 30
0.0
  0
LWPOLYLINE
  5
223
100
AcDbEntity
  8
0
 62
7
100
AcDbPolyline
 90
2
 70
0
 10
-17.907460
 20
46.975060
 30
0.0
 10
-17.577786
 20
46.807083
 30
0.0
  0
LWPOLYLINE
  5
224
100
AcDbEntity
  8
0
 62
7
100
AcDbPolyline
 90
2
 70
0
 10
-18.051527
 20
46.686102
 30
0.0
 10
-17.718973
 20
46.523904
 30
0.0
  0
LWPOLYLINE
  5
225
100
AcDbEntity
  8
0
 62
7
100
AcDbPolyline
 90
2
 70
0
 10
-18.190531
 20
46.394674
 30
0.0
 10
-17.743420
 20
46.186182
 30
0.0
  0
LWPOLYLINE
  5
226
100
AcDbEntity
  8
0
 62
7
100
AcDbPolyline
 90
2
 70
0
 10
-15.116639
 20
44.961293
 30
0.0
 10
-15.675528
 20
45.221908
 30
0.0
  0
LWPOLYLINE
  5
227
100
AcDbEntity
  8
0
 62
7
100
AcDbPolyline
 90
2
 70
0
 10
-9.527740
 20
42.355147
 30
0.0
 10
-10.086630
 20
42.615761
 30
0.0
  0
LWPOLYLINE
  5
228
100
AcDbEntity
  8
0
 62
7
100
AcDbPolyline
 90
2
 70
0
 10
-18.324429
 20
46.100863
 30
0.0
 10
-17.986416
 20
45.950371
 30
0.0
  0
LWPOLYLINE
  5
229
100
AcDbEntity
  8
0
 62
7
100
AcDbPolyline
 90
2
 70
0
 10
-18.453177
 20
45.804762
 30
0.0
 10
-18.112591
 20
45.660191
 30
0.0
  0
LWPOLYLINE
  5
22a
100
AcDbEntity
  8
0
 62
7
100
AcDbPolyline
 90
2
 70
0
 10
-18.576739
 20
45.506457
 30
0.0
 10
-18.233681
 20
45.367853
 30
0.0
  0
LWPOLYLINE
  5
22b
100
AcDbEntity
  8
0
 62
7
100
AcDbPolyline
 90
2
 70
0
 10
-18.695076
 20
45.206042
 30
0.0
 10
-18.349652
 20
45.073446
 30
0.0
  0
LWPOLYLINE
  5
22c
100
AcDbEntity
  8
0
 62
7
100
AcDbPolyline
 90
2
 70
0
 10
-18.808152
 20
44.903608
 30
0.0
 10
-18.112778
 20
44.650513
 30
0.0
  0
LWPOLYLINE
  5
22d
100
AcDbEntity
  8
0
 62
7
100
AcDbPolyline
 90
2
 70
0
 10
-15.621027
 20
43.743590
 30
0.0
 10
-16.200505
 20
43.954502
 30
0.0
  0
LWPOLYLINE
  5
22e
100
AcDbEntity
  8
0
 62
7
100
AcDbPolyline
 90
2
 70
0
 10
-9.826256
 20
41.634466
 30
0.0
 10
-10.405733
 20
41.845378
 30
0.0
  0
LWPOLYLINE
  5
22f
100
AcDbEntity
  8
0
 62
7
100
AcDbPolyline
 90
2
 70
0
 10
-4.321223
 20
39.630798
 30
0.0
 10
-4.900700
 20
39.841710
 30
0.0
  0
LWPOLYLINE
  5
230
100
AcDbEntity
  8
0
 62
7
100
AcDbPolyline
 90
2
 70
0
 10
-18.915932
 20
44.599246
 30
0.0
 10
-18.566090
 20
44.478786
 30
0.0
  0
LWPOLYLINE
  5
231
100
AcDbEntity
  8
0
 62
7
100
AcDbPolyline
 90
2
 70
0
 10
-19.018383
 20
44.293050
 30
0.0
 10
-18.666493
 20
44.178713
 30
0.0
  0
LWPOLYLINE
  5
232
100
AcDbEntity
  8
0
 62
7
100
AcDbPolyline
 90
2
 70
0
 10
-19.115475
 20
43.985112
 30
0.0
 10
-18.761643
 20
43.876935
 30
0.0
  0
LWPOLYLINE
  5
233
100
AcDbEntity
  8
0
 62
7
100
AcDbPolyline
 90
2
 70
0
 10
-19.207178
 20
43.675526
 30
0.0
 10
-18.851513
 20
43.573541
 30
0.0
  0
LWPOLYLINE
  5
234
100
AcDbEntity
  8
0
 62
7
100
AcDbPolyline
 90
2
 70
0
 10
-19.293465
 20
43.364388
 30
0.0
 10
-18.816943
 20
43.236704
 30
0.0
  0
LWPOLYLINE
  5
235
100
AcDbEntity
  8
0
 62
7
100
AcDbPolyline
 90
2
 70
0
 10
-16.017368
 20
42.486560
 30
0.0
 10
-16.613021
 20
42.646165
 30
0.0
  0
LWPOLYLINE
  5
236
100
AcDbEntity
  8
0
 62
7
100
AcDbPolyline
 90
2
 70
0
 10
-10.060824
 20
40.890509
 30
0.0
 10
-10.656479
 20
41.050114
 30
0.0
  0
LWPOLYLINE
  5
237
100
AcDbEntity
  8
0
 62
7
100
AcDbPolyline
 90
2
 70
0
 10
-5.315063
 20
39.938096
 30
0.0
 10
-5.474668
 20
39.342442
 30
0.0
  0
LWPOLYLINE
  5
238
100
AcDbEntity
  8
0
 62
7
100
AcDbPolyline
 90
2
 70
0
 10
-6.307821
 20
40.204105
 30
0.0
 10
-6.467426
 20
39.608451
 30
0.0
  0
LWPOLYLINE
  5
239
100
AcDbEntity
  8
0
 62
7
100
AcDbPolyline
 90
2
 70
0
 10
-8.293335
 20
40.736122
 30
0.0
 10
-8.452940
 20
40.140468
 30
0.0
  0
LWPOLYLINE
  5
23a
100
AcDbEntity
  8
0
 62
7
100
AcDbPolyline
 90
2
 70
0
 10
-9.286092
 20
41.002130
 30
0.0
 10
-9.445697
 20
40.406476
 30
0.0
  0
LWPOLYLINE
  5
23b
100
AcDbEntity
  8
0
 62
7
100
AcDbPolyline
 90
2
 70
0
 10
-10.278849
 20
41.268139
 30
0.0
 10
-10.438454
 20
40.672485
 30
0.0
  0
LWPOLYLINE
  5
23c
100
AcDbEntity
  8
0
 62
7
100
AcDbPolyline
 90
2
 70
0
 10
-11.271606
 20
41.534147
 30
0.0
 10
-11.431212
 20
40.938493
 30
0.0
  0
LWPOLYLINE
  5
23d
100
AcDbEntity
  8
0
 62
7
100
AcDbPolyline
 90
2
 70
0
 10
-12.264364
 20
41.800156
 30
0.0
 10
-12.423969
 20
41.204501
 30
0.0
  0
LWPOLYLINE
  5
23e
100
AcDbEntity
  8
0
 62
7
100
AcDbPolyline
 90
2
 70
0
 10
-14.249877
 20
42.332173
 30
0.0
 10
-14.409483
 20
41.736518
 30
0.0
  0
LWPOLYLINE
  5
23f
100
AcDbEntity
  8
0
 62
7
100
AcDbPolyline
 90
2
 70
0
 10
-15.242635
 20
42.598181
 30
0.0
 10
-15.402240
 20
42.002527
 30
0.0
  0
LWPOLYLINE
  5
240
100
AcDbEntity
  8
0
 62
7
100
AcDbPolyline
 90
2
 70
0
 10
-16.235392
 20
42.864189
 30
0.0
 10
-16.394997
 20
42.268535
 30
0.0
  0
LWPOLYLINE
  5
241
100
AcDbEntity
  8
0
 62
7
100
AcDbPolyline
 90
2
 70
0
 10
-17.228149
 20
43.130198
 30
0.0
 10
-17.387754
 20
42.534544
 30
0.0
  0
LWPOLYLINE
  5
242
100
AcDbEntity
  8
0
 62
7
100
AcDbPolyline
 90
2
 70
0
 10
-18.220906
 20
43.396207
 30
0.0
 10
-18.380511
 20
42.800552
 30
0.0
  0
LWPOLYLINE
  5
243
100
AcDbEntity
  8
0
 62
7
100
AcDbPolyline
 90
2
 70
0
 10
-19.374310
 20
43.051790
 30
0.0
 10
-19.015299
 20
42.962279
 30
0.0
  0
LWPOLYLINE
  5
244
100
AcDbEntity
  8
0
 62
7
100
AcDbPolyline
 90
2
 70
0
 10
-19.449684
 20
42.737830
 30
0.0
 10
-19.089167
 20
42.654598
 30
0.0
  0
LWPOLYLINE
  5
245
100
AcDbEntity
  8
0
 62
7
100
AcDbPolyline
 90
2
 70
0
 10
-19.519568
 20
42.422602
 30
0.0
 10
-19.157654
 20
42.345674
 30
0.0
  0
LWPOLYLINE
  5
246
100
AcDbEntity
  8
0
 62
7
100
AcDbPolyline
 90
2
 70
0
 10
-19.583941
 20
42.106202
 30
0.0
 10
-19.220740
 20
42.035602
 30
0.0
  0
LWPOLYLINE
  5
247
100
AcDbEntity
  8
0
 62
7
100
AcDbPolyline
 90
2
 70
0
 10
-19.642781
 20
41.788727
 30
0.0
 10
-18.914023
 20
41.660227
 30
0.0
  0
LWPOLYLINE
  5
248
100
AcDbEntity
  8
0
 62
7
100
AcDbPolyline
 90
2
 70
0
 10
-16.302642
 20
41.199770
 30
0.0
 10
-16.909940
 20
41.306853
 30
0.0
  0
LWPOLYLINE
  5
249
100
AcDbEntity
  8
0
 62
7
100
AcDbPolyline
 90
2
 70
0
 10
-10.229660
 20
40.128940
 30
0.0
 10
-10.836959
 20
40.236023
 30
0.0
  0
LWPOLYLINE
  5
24a
100
AcDbEntity
  8
0
 62
7
100
AcDbPolyline
 90
2
 70
0
 10
-4.460328
 20
39.111651
 30
0.0
 10
-5.067626
 20
39.218734
 30
0.0
  0
LWPOLYLINE
  5
24b
100
AcDbEntity
  8
0
 62
7
100
AcDbPolyline
 90
2
 70
0
 10
-19.696072
 20
41.470273
 30
0.0
 10
-19.330628
 20
41.412392
 30
0.0
  0
LWPOLYLINE
  5
24c
100
AcDbEntity
  8
0
 62
7
100
AcDbPolyline
 90
2
 70
0
 10
-19.743798
 20
41.150938
 30
0.0
 10
-19.377398
 20
41.099444
 30
0.0
  0
LWPOLYLINE
  5
24d
100
AcDbEntity
  8
0
 62
7
100
AcDbPolyline
 90
2
 70
0
 10
-19.785942
 20
40.830818
 30
0.0
 10
-19.418700
 20
40.785727
 30
0.0
  0
LWPOLYLINE
  5
24e
100
AcDbEntity
  8
0
 62
7
100
AcDbPolyline
 90
2
 70
0
 10
-19.822493
 20
40.510012
 30
0.0
 10
-19.454520
 20
40.471337
 30
0.0
  0
LWPOLYLINE
  5
24f
100
AcDbEntity
  8
0
 62
7
100
AcDbPolyline
 90
2
 70
0
 10
-19.853440
 20
40.188617
 30
0.0
 10
-19.361985
 20
40.145620
 30
0.0
  0
LWPOLYLINE
  5
250
100
AcDbEntity
  8
0
 62
7
100
AcDbPolyline
 90
2
 70
0
 10
-16.474679
 20
39.893014
 30
0.0
 10
-17.089000
 20
39.946759
 30
0.0
  0
LWPOLYLINE
  5
251
100
AcDbEntity
  8
0
 62
7
100
AcDbPolyline
 90
2
 70
0
 10
-10.331478
 20
39.355553
 30
0.0
 10
-10.945799
 20
39.409299
 30
0.0
  0
LWPOLYLINE
  5
252
100
AcDbEntity
  8
0
 62
7
100
AcDbPolyline
 90
2
 70
0
 10
-19.878773
 20
39.866730
 30
0.0
 10
-19.509674
 20
39.840920
 30
0.0
  0
LWPOLYLINE
  5
253
100
AcDbEntity
  8
0
 62
7
100
AcDbPolyline
 90
2
 70
0
 10
-19.898484
 20
39.544451
 30
0.0
 10
-19.528992
 20
39.525086
 30
0.0
  0
LWPOLYLINE
  5
254
100
AcDbEntity
  8
0
 62
7
100
AcDbPolyline
 90
2
 70
0
 10
-19.912567
 20
39.221876
 30
0.0
 10
-19.542794
 20
39.208963
 30
0.0
  0
LWPOLYLINE
  5
255
100
AcDbEntity
  8
0
 62
7
100
AcDbPolyline
 90
2
 70
0
 10
-19.921021
 20
38.899105
 30
0.0
 10
-19.551077
 20
38.892648
 30
0.0
  0
LWPOLYLINE
  5
256
100
AcDbEntity
  8
0
 62
7
100
AcDbPolyline
 90
2
 70
0
 10
-19.923838
 20
38.576235
 30
0.0
 10
-19.183838
 20
38.576235
 30
0.0
  0
LWPOLYLINE
  5
257
100
AcDbEntity
  8
0
 62
7
100
AcDbPolyline
 90
2
 70
0
 10
-19.923838
 20
38.576235
 30
0.0
 10
-17.868283
 20
38.576235
 30
0.0
  0
LWPOLYLINE
  5
258
100
AcDbEntity
  8
0
 62
7
100
AcDbPolyline
 90
2
 70
0
 10
-15.761338
 20
38.576235
 30
0.0
 10
-11.650227
 20
38.576235
 30
0.0
  0
LWPOLYLINE
  5
259
100
AcDbEntity
  8
0
 62
7
100
AcDbPolyline
 90
2
 70
0
 10
-9.748837
 20
38.576235
 30
0.0
 10
-2.348838
 20
38.576235
 30
0.0
  0
LWPOLYLINE
  5
25a
100
AcDbEntity
  8
0
 62
7
100
AcDbPolyline
 90
2
 70
0
 10
-19.921021
 20
38.253366
 30
0.0
 10
-19.551077
 20
38.259823
 30
0.0
  0
LWPOLYLINE
  5
25b
100
AcDbEntity
  8
0
 62
7
100
AcDbPolyline
 90
2
 70
0
 10
-19.912567
 20
37.930595
 30
0.0
 10
-19.542794
 20
37.943508
 30
0.0
  0
LWPOLYLINE
  5
25c
100
AcDbEntity
  8
0
 62
7
100
AcDbPolyline
 90
2
 70
0
 10
-19.898484
 20
37.608020
 30
0.0
 10
-19.528992
 20
37.627385
 30
0.0
  0
LWPOLYLINE
  5
25d
100
AcDbEntity
  8
0
 62
7
100
AcDbPolyline
 90
2
 70
0
 10
-19.878773
 20
37.285741
 30
0.0
 10
-19.509674
 20
37.311551
 30
0.0
  0
LWPOLYLINE
  5
25e
100
AcDbEntity
  8
0
 62
7
100
AcDbPolyline
 90
2
 70
0
 10
-19.853440
 20
36.963854
 30
0.0
 10
-19.361985
 20
37.006851
 30
0.0
  0
LWPOLYLINE
  5
25f
100
AcDbEntity
  8
0
 62
7
100
AcDbPolyline
 90
2
 70
0
 10
-16.474679
 20
37.259457
 30
0.0
 10
-17.089000
 20
37.205711
 30
0.0
  0
LWPOLYLINE
  5
260
100
AcDbEntity
  8
0
 62
7
100
AcDbPolyline
 90
2
 70
0
 10
-10.331478
 20
37.796918
 30
0.0
 10
-10.945799
 20
37.743172
 30
0.0
  0
LWPOLYLINE
  5
261
100
AcDbEntity
  8
0
 62
7
100
AcDbPolyline
 90
2
 70
0
 10
-19.822493
 20
36.642459
 30
0.0
 10
-19.454520
 20
36.681134
 30
0.0
  0
LWPOLYLINE
  5
262
100
AcDbEntity
  8
0
 62
7
100
AcDbPolyline
 90
2
 70
0
 10
-19.785942
 20
36.321653
 30
0.0
 10
-19.418700
 20
36.366744
 30
0.0
  0
LWPOLYLINE
  5
263
100
AcDbEntity
  8
0
 62
7
100
AcDbPolyline
 90
2
 70
0
 10
-19.743798
 20
36.001533
 30
0.0
 10
-19.377398
 20
36.053027
 30
0.0
  0
LWPOLYLINE
  5
264
100
AcDbEntity
  8
0
 62
7
100
AcDbPolyline
 90
2
 70
0
 10
-19.696072
 20
35.682198
 30
0.0
 10
-19.330628
 20
35.740079
 30
0.0
  0
LWPOLYLINE
  5
265
100
AcDbEntity
  8
0
 62
7
100
AcDbPolyline
 90
2
 70
0
 10
-19.642781
 20
35.363744
 30
0.0
 10
-18.914023
 20
35.492244
 30
0.0
  0
LWPOLYLINE
  5
266
100
AcDbEntity
  8
0
 62
7
100
AcDbPolyline
 90
2
 70
0
 10
-16.302642
 20
35.952701
 30
0.0
 10
-16.909940
 20
35.845618
 30
0.0
  0
LWPOLYLINE
  5
267
100
AcDbEntity
  8
0
 62
7
100
AcDbPolyline
 90
2
 70
0
 10
-10.229660
 20
37.023531
 30
0.0
 10
-10.836959
 20
36.916448
 30
0.0
  0
LWPOLYLINE
  5
268
100
AcDbEntity
  8
0
 62
7
100
AcDbPolyline
 90
2
 70
0
 10
-4.460328
 20
38.040820
 30
0.0
 10
-5.067626
 20
37.933737
 30
0.0
  0
LWPOLYLINE
  5
269
100
AcDbEntity
  8
0
 62
7
100
AcDbPolyline
 90
2
 70
0
 10
-19.583941
 20
35.046269
 30
0.0
 10
-19.220740
 20
35.116868
 30
0.0
  0
LWPOLYLINE
  5
26a
100
AcDbEntity
  8
0
 62
7
100
AcDbPolyline
 90
2
 70
0
 10
-19.519568
 20
34.729869
 30
0.0
 10
-19.157654
 20
34.806796
 30
0.0
  0
LWPOLYLINE
  5
26b
100
AcDbEntity
  8
0
 62
7
100
AcDbPolyline
 90
2
 70
0
 10
-19.449684
 20
34.414641
 30
0.0
 10
-19.089167
 20
34.497873
 30
0.0
  0
LWPOLYLINE
  5
26c
100
AcDbEntity
  8
0
 62
7
100
AcDbPolyline
 90
2
 70
0
 10
-19.374310
 20
34.100681
 30
0.0
 10
-19.015299
 20
34.190191
 30
0.0
  0
LWPOLYLINE
  5
26d
100
AcDbEntity
  8
0
 62
7
100
AcDbPolyline
 90
2
 70
0
 10
-19.293465
 20
33.788083
 30
0.0
 10
-18.816943
 20
33.915767
 30
0.0
  0
LWPOLYLINE
  5
26e
100
AcDbEntity
  8
0
 62
7
100
AcDbPolyline
 90
2
 70
0
 10
-16.017368
 20
34.665911
 30
0.0
 10
-16.613021
 20
34.506306
 30
0.0
  0
LWPOLYLINE
  5
26f
100
AcDbEntity
  8
0
 62
7
100
AcDbPolyline
 90
2
 70
0
 10
-10.060824
 20
36.261962
 30
0.0
 10
-10.656479
 20
36.102357
 30
0.0
  0
LWPOLYLINE
  5
270
100
AcDbEntity
  8
0
 62
7
100
AcDbPolyline
 90
2
 70
0
 10
-5.474668
 20
37.810029
 30
0.0
 10
-5.315063
 20
37.214374
 30
0.0
  0
LWPOLYLINE
  5
271
100
AcDbEntity
  8
0
 62
7
100
AcDbPolyline
 90
2
 70
0
 10
-6.467426
 20
37.544020
 30
0.0
 10
-6.307821
 20
36.948366
 30
0.0
  0
LWPOLYLINE
  5
272
100
AcDbEntity
  8
0
 62
7
100
AcDbPolyline
 90
2
 70
0
 10
-8.452940
 20
37.012003
 30
0.0
 10
-8.293335
 20
36.416349
 30
0.0
  0
LWPOLYLINE
  5
273
100
AcDbEntity
  8
0
 62
7
100
AcDbPolyline
 90
2
 70
0
 10
-9.445697
 20
36.745995
 30
0.0
 10
-9.286092
 20
36.150341
 30
0.0
  0
LWPOLYLINE
  5
274
100
AcDbEntity
  8
0
 62
7
100
AcDbPolyline
 90
2
 70
0
 10
-10.438454
 20
36.479986
 30
0.0
 10
-10.278849
 20
35.884332
 30
0.0
  0
LWPOLYLINE
  5
275
100
AcDbEntity
  8
0
 62
7
100
AcDbPolyline
 90
2
 70
0
 10
-11.431212
 20
36.213978
 30
0.0
 10
-11.271606
 20
35.618324
 30
0.0
  0
LWPOLYLINE
  5
276
100
AcDbEntity
  8
0
 62
7
100
AcDbPolyline
 90
2
 70
0
 10
-12.423969
 20
35.947970
 30
0.0
 10
-12.264364
 20
35.352315
 30
0.0
  0
LWPOLYLINE
  5
277
100
AcDbEntity
  8
0
 62
7
100
AcDbPolyline
 90
2
 70
0
 10
-14.409483
 20
35.415953
 30
0.0
 10
-14.249877
 20
34.820298
 30
0.0
  0
LWPOLYLINE
  5
278
100
AcDbEntity
  8
0
 62
7
100
AcDbPolyline
 90
2
 70
0
 10
-15.402240
 20
35.149944
 30
0.0
 10
-15.242635
 20
34.554290
 30
0.0
  0
LWPOLYLINE
  5
279
100
AcDbEntity
  8
0
 62
7
100
AcDbPolyline
 90
2
 70
0
 10
-16.394997
 20
34.883936
 30
0.0
 10
-16.235392
 20
34.288282
 30
0.0
  0
LWPOLYLINE
  5
27a
100
AcDbEntity
  8
0
 62
7
100
AcDbPolyline
 90
2
 70
0
 10
-17.387754
 20
34.617927
 30
0.0
 10
-17.228149
 20
34.022273
 30
0.0
  0
LWPOLYLINE
  5
27b
100
AcDbEntity
  8
0
 62
7
100
AcDbPolyline
 90
2
 70
0
 10
-18.380511
 20
34.351919
 30
0.0
 10
-18.220906
 20
33.756264
 30
0.0
  0
LWPOLYLINE
  5
27c
100
AcDbEntity
  8
0
 62
7
100
AcDbPolyline
 90
2
 70
0
 10
-19.207178
 20
33.476945
 30
0.0
 10
-18.851513
 20
33.578930
 30
0.0
  0
LWPOLYLINE
  5
27d
100
AcDbEntity
  8
0
 62
7
100
AcDbPolyline
 90
2
 70
0
 10
-19.115475
 20
33.167359
 30
0.0
 10
-18.761643
 20
33.275536
 30
0.0
  0
LWPOLYLINE
  5
27e
100
AcDbEntity
  8
0
 62
7
100
AcDbPolyline
 90
2
 70
0
 10
-19.018383
 20
32.859421
 30
0.0
 10
-18.666493
 20
32.973757
 30
0.0
  0
LWPOLYLINE
  5
27f
100
AcDbEntity
  8
0
 62
7
100
AcDbPolyline
 90
2
 70
0
 10
-18.915932
 20
32.553225
 30
0.0
 10
-18.566090
 20
32.673685
 30
0.0
  0
LWPOLYLINE
  5
280
100
AcDbEntity
  8
0
 62
7
100
AcDbPolyline
 90
2
 70
0
 10
-18.808152
 20
32.248863
 30
0.0
 10
-18.112778
 20
32.501958
 30
0.0
  0
LWPOLYLINE
  5
281
100
AcDbEntity
  8
0
 62
7
100
AcDbPolyline
 90
2
 70
0
 10
-15.621027
 20
33.408881
 30
0.0
 10
-16.200505
 20
33.197969
 30
0.0
  0
LWPOLYLINE
  5
282
100
AcDbEntity
  8
0
 62
7
100
AcDbPolyline
 90
2
 70
0
 10
-9.826256
 20
35.518005
 30
0.0
 10
-10.405733
 20
35.307093
 30
0.0
  0
LWPOLYLINE
  5
283
100
AcDbEntity
  8
0
 62
7
100
AcDbPolyline
 90
2
 70
0
 10
-4.321223
 20
37.521673
 30
0.0
 10
-4.900700
 20
37.310761
 30
0.0
  0
LWPOLYLINE
  5
284
100
AcDbEntity
  8
0
 62
7
100
AcDbPolyline
 90
2
 70
0
 10
-18.695076
 20
31.946428
 30
0.0
 10
-18.349652
 20
32.079024
 30
0.0
  0
LWPOLYLINE
  5
285
100
AcDbEntity
  8
0
 62
7
100
AcDbPolyline
 90
2
 70
0
 10
-18.576739
 20
31.646013
 30
0.0
 10
-18.233681
 20
31.784618
 30
0.0
  0
LWPOLYLINE
  5
286
100
AcDbEntity
  8
0
 62
7
100
AcDbPolyline
 90
2
 70
0
 10
-18.453177
 20
31.347709
 30
0.0
 10
-18.112591
 20
31.492280
 30
0.0
  0
LWPOLYLINE
  5
287
100
AcDbEntity
  8
0
 62
7
100
AcDbPolyline
 90
2
 70
0
 10
-18.324429
 20
31.051608
 30
0.0
 10
-17.986416
 20
31.202100
 30
0.0
  0
LWPOLYLINE
  5
288
100
AcDbEntity
  8
0
 62
7
100
AcDbPolyline
 90
2
 70
0
 10
-18.190531
 20
30.757797
 30
0.0
 10
-17.743420
 20
30.966289
 30
0.0
  0
LWPOLYLINE
  5
289
100
AcDbEntity
  8
0
 62
7
100
AcDbPolyline
 90
2
 70
0
 10
-15.116639
 20
32.191178
 30
0.0
 10
-15.675528
 20
31.930563
 30
0.0
  0
LWPOLYLINE
  5
28a
100
AcDbEntity
  8
0
 62
7
100
AcDbPolyline
 90
2
 70
0
 10
-9.527740
 20
34.797324
 30
0.0
 10
-10.086630
 20
34.536709
 30
0.0
  0
LWPOLYLINE
  5
28b
100
AcDbEntity
  8
0
 62
7
100
AcDbPolyline
 90
2
 70
0
 10
-18.051527
 20
30.466369
 30
0.0
 10
-17.718973
 20
30.628566
 30
0.0
  0
LWPOLYLINE
  5
28c
100
AcDbEntity
  8
0
 62
7
100
AcDbPolyline
 90
2
 70
0
 10
-17.907460
 20
30.177411
 30
0.0
 10
-17.577786
 20
30.345388
 30
0.0
  0
LWPOLYLINE
  5
28d
100
AcDbEntity
  8
0
 62
7
100
AcDbPolyline
 90
2
 70
0
 10
-17.758368
 20
29.891012
 30
0.0
 10
-17.431677
 20
30.064716
 30
0.0
  0
LWPOLYLINE
  5
28e
100
AcDbEntity
  8
0
 62
7
100
AcDbPolyline
 90
2
 70
0
 10
-17.604302
 20
29.607258
 30
0.0
 10
-17.280693
 20
29.786637
 30
0.0
  0
LWPOLYLINE
  5
28f
100
AcDbEntity
  8
0
 62
7
100
AcDbPolyline
 90
2
 70
0
 10
-17.445307
 20
29.326235
 30
0.0
 10
-16.804449
 20
29.696235
 30
0.0
  0
LWPOLYLINE
  5
290
100
AcDbEntity
  8
0
 62
7
100
AcDbPolyline
 90
2
 70
0
 10
-17.445307
 20
29.326235
 30
0.0
 10
-15.665144
 20
30.354013
 30
0.0
  0
LWPOLYLINE
  5
291
100
AcDbEntity
  8
0
 62
7
100
AcDbPolyline
 90
2
 70
0
 10
-13.840477
 20
31.407486
 30
0.0
 10
-10.280150
 20
33.463041
 30
0.0
  0
LWPOLYLINE
  5
292
100
AcDbEntity
  8
0
 62
7
100
AcDbPolyline
 90
2
 70
0
 10
-8.633499
 20
34.413736
 30
0.0
 10
-2.224911
 20
38.113735
 30
0.0
  0
LWPOLYLINE
  5
293
100
AcDbEntity
  8
0
 62
7
100
AcDbPolyline
 90
2
 70
0
 10
-17.281433
 20
29.048031
 30
0.0
 10
-16.964281
 20
29.238595
 30
0.0
  0
LWPOLYLINE
  5
294
100
AcDbEntity
  8
0
 62
7
100
AcDbPolyline
 90
2
 70
0
 10
-17.112728
 20
28.772729
 30
0.0
 10
-16.798950
 20
28.968799
 30
0.0
  0
LWPOLYLINE
  5
295
100
AcDbEntity
  8
0
 62
7
100
AcDbPolyline
 90
2
 70
0
 10
-16.939244
 20
28.500413
 30
0.0
 10
-16.628935
 20
28.701930
 30
0.0
  0
LWPOLYLINE
  5
296
100
AcDbEntity
  8
0
 62
7
100
AcDbPolyline
 90
2
 70
0
 10
-16.761033
 20
28.231166
 30
0.0
 10
-16.454289
 20
28.438068
 30
0.0
  0
LWPOLYLINE
  5
297
100
AcDbEntity
  8
0
 62
7
100
AcDbPolyline
 90
2
 70
0
 10
-16.578151
 20
27.965071
 30
0.0
 10
-16.174035
 20
28.248036
 30
0.0
  0
LWPOLYLINE
  5
298
100
AcDbEntity
  8
0
 62
7
100
AcDbPolyline
 90
2
 70
0
 10
-13.799860
 20
29.910452
 30
0.0
 10
-14.305004
 20
29.556746
 30
0.0
  0
LWPOLYLINE
  5
299
100
AcDbEntity
  8
0
 62
7
100
AcDbPolyline
 90
2
 70
0
 10
-8.748422
 20
33.447506
 30
0.0
 10
-9.253566
 20
33.093801
 30
0.0
  0
LWPOLYLINE
  5
29a
100
AcDbEntity
  8
0
 62
7
100
AcDbPolyline
 90
2
 70
0
 10
-16.390652
 20
27.702208
 30
0.0
 10
-16.091317
 20
27.919688
 30
0.0
  0
LWPOLYLINE
  5
29b
100
AcDbEntity
  8
0
 62
7
100
AcDbPolyline
 90
2
 70
0
 10
-16.198595
 20
27.442657
 30
0.0
 10
-15.903099
 20
27.665328
 30
0.0
  0
LWPOLYLINE
  5
29c
100
AcDbEntity
  8
0
 62
7
100
AcDbPolyline
 90
2
 70
0
 10
-16.002037
 20
27.186498
 30
0.0
 10
-15.710473
 20
27.414293
 30
0.0
  0
LWPOLYLINE
  5
29d
100
AcDbEntity
  8
0
 62
7
100
AcDbPolyline
 90
2
 70
0
 10
-15.801038
 20
26.933808
 30
0.0
 10
-15.513494
 20
27.166657
 30
0.0
  0
LWPOLYLINE
  5
29e
100
AcDbEntity
  8
0
 62
7
100
AcDbPolyline
 90
2
 70
0
 10
-15.595661
 20
26.684664
 30
0.0
 10
-15.028787
 20
27.160327
 30
0.0
  0
LWPOLYLINE
  5
29f
100
AcDbEntity
  8
0
 62
7
100
AcDbPolyline
 90
2
 70
0
 10
-12.997493
 20
28.864786
 30
0.0
 10
-13.469887
 20
28.468400
 30
0.0
  0
LWPOLYLINE
  5
2a0
100
AcDbEntity
  8
0
 62
7
100
AcDbPolyline
 90
2
 70
0
 10
-8.273552
 20
32.828643
 30
0.0
 10
-8.745946
 20
32.432257
 30
0.0
  0
LWPOLYLINE
  5
2a1
100
AcDbEntity
  8
0
 62
7
100
AcDbPolyline
 90
2
 70
0
 10
-3.785808
 20
36.594307
 30
0.0
 10
-4.258202
 20
36.197921
 30
0.0
  0
LWPOLYLINE
  5
2a2
100
AcDbEntity
  8
0
 62
7
100
AcDbPolyline
 90
2
 70
0
 10
-15.385966
 20
26.439143
 30
0.0
 10
-15.106722
 20
26.681885
 30
0.0
  0
LWPOLYLINE
  5
2a3
100
AcDbEntity
  8
0
 62
7
100
AcDbPolyline
 90
2
 70
0
 10
-15.172017
 20
26.197319
 30
0.0
 10
-14.897054
 20
26.444897
 30
0.0
  0
LWPOLYLINE
  5
2a4
100
AcDbEntity
  8
0
 62
7
100
AcDbPolyline
 90
2
 70
0
 10
-14.953882
 20
25.959265
 30
0.0
 10
-14.683280
 20
26.211604
 30
0.0
  0
LWPOLYLINE
  5
2a5
100
AcDbEntity
  8
0
 62
7
100
AcDbPolyline
 90
2
 70
0
 10
-14.731624
 20
25.725055
 30
0.0
 10
-14.465469
 20
25.982079
 30
0.0
  0
LWPOLYLINE
  5
2a6
100
AcDbEntity
  8
0
 62
7
100
AcDbPolyline
 90
2
 70
0
 10
-14.505313
 20
25.494760
 30
0.0
 10
-14.156474
 20
25.843599
 30
0.0
  0
LWPOLYLINE
  5
2a7
100
AcDbEntity
  8
0
 62
7
100
AcDbPolyline
 90
2
 70
0
 10
-12.107043
 20
27.893030
 30
0.0
 10
-12.543092
 20
27.456981
 30
0.0
  0
LWPOLYLINE
  5
2a8
100
AcDbEntity
  8
0
 62
7
100
AcDbPolyline
 90
2
 70
0
 10
-7.746551
 20
32.253523
 30
0.0
 10
-8.182600
 20
31.817473
 30
0.0
  0
LWPOLYLINE
  5
2a9
100
AcDbEntity
  8
0
 62
7
100
AcDbPolyline
 90
2
 70
0
 10
-4.548857
 20
35.887266
 30
0.0
 10
-4.112808
 20
35.451216
 30
0.0
  0
LWPOLYLINE
  5
2aa
100
AcDbEntity
  8
0
 62
7
100
AcDbPolyline
 90
2
 70
0
 10
-5.275605
 20
35.160517
 30
0.0
 10
-4.839556
 20
34.724468
 30
0.0
  0
LWPOLYLINE
  5
2ab
100
AcDbEntity
  8
0
 62
7
100
AcDbPolyline
 90
2
 70
0
 10
-6.729103
 20
33.707019
 30
0.0
 10
-6.293054
 20
33.270971
 30
0.0
  0
LWPOLYLINE
  5
2ac
100
AcDbEntity
  8
0
 62
7
100
AcDbPolyline
 90
2
 70
0
 10
-7.455852
 20
32.980271
 30
0.0
 10
-7.019802
 20
32.544222
 30
0.0
  0
LWPOLYLINE
  5
2ad
100
AcDbEntity
  8
0
 62
7
100
AcDbPolyline
 90
2
 70
0
 10
-8.182600
 20
32.253523
 30
0.0
 10
-7.746551
 20
31.817473
 30
0.0
  0
LWPOLYLINE
  5
2ae
100
AcDbEntity
  8
0
 62
7
100
AcDbPolyline
 90
2
 70
0
 10
-8.909348
 20
31.526774
 30
0.0
 10
-8.473299
 20
31.090725
 30
0.0
  0
LWPOLYLINE
  5
2af
100
AcDbEntity
  8
0
 62
7
100
AcDbPolyline
 90
2
 70
0
 10
-9.636097
 20
30.800025
 30
0.0
 10
-9.200048
 20
30.363976
 30
0.0
  0
LWPOLYLINE
  5
2b0
100
AcDbEntity
  8
0
 62
7
100
AcDbPolyline
 90
2
 70
0
 10
-11.089595
 20
29.346528
 30
0.0
 10
-10.653545
 20
28.910478
 30
0.0
  0
LWPOLYLINE
  5
2b1
100
AcDbEntity
  8
0
 62
7
100
AcDbPolyline
 90
2
 70
0
 10
-11.816344
 20
28.619779
 30
0.0
 10
-11.380294
 20
28.183729
 30
0.0
  0
LWPOLYLINE
  5
2b2
100
AcDbEntity
  8
0
 62
7
100
AcDbPolyline
 90
2
 70
0
 10
-12.543092
 20
27.893030
 30
0.0
 10
-12.107043
 20
27.456981
 30
0.0
  0
LWPOLYLINE
  5
2b3
100
AcDbEntity
  8
0
 62
7
100
AcDbPolyline
 90
2
 70
0
 10
-13.269841
 20
27.166282
 30
0.0
 10
-12.833791
 20
26.730232
 30
0.0
  0
LWPOLYLINE
  5
2b4
100
AcDbEntity
  8
0
 62
7
100
AcDbPolyline
 90
2
 70
0
 10
-13.996589
 20
26.439532
 30
0.0
 10
-13.560541
 20
26.003484
 30
0.0
  0
LWPOLYLINE
  5
2b5
100
AcDbEntity
  8
0
 62
7
100
AcDbPolyline
 90
2
 70
0
 10
-14.275018
 20
25.268449
 30
0.0
 10
-14.017994
 20
25.534604
 30
0.0
  0
LWPOLYLINE
  5
2b6
100
AcDbEntity
  8
0
 62
7
100
AcDbPolyline
 90
2
 70
0
 10
-14.040808
 20
25.046191
 30
0.0
 10
-13.788469
 20
25.316793
 30
0.0
  0
LWPOLYLINE
  5
2b7
100
AcDbEntity
  8
0
 62
7
100
AcDbPolyline
 90
2
 70
0
 10
-13.802754
 20
24.828056
 30
0.0
 10
-13.555176
 20
25.103019
 30
0.0
  0
LWPOLYLINE
  5
2b8
100
AcDbEntity
  8
0
 62
7
100
AcDbPolyline
 90
2
 70
0
 10
-13.560930
 20
24.614107
 30
0.0
 10
-13.318188
 20
24.893351
 30
0.0
  0
LWPOLYLINE
  5
2b9
100
AcDbEntity
  8
0
 62
7
100
AcDbPolyline
 90
2
 70
0
 10
-13.315409
 20
24.404412
 30
0.0
 10
-12.839746
 20
24.971286
 30
0.0
  0
LWPOLYLINE
  5
2ba
100
AcDbEntity
  8
0
 62
7
100
AcDbPolyline
 90
2
 70
0
 10
-11.135287
 20
27.002580
 30
0.0
 10
-11.531673
 20
26.530186
 30
0.0
  0
LWPOLYLINE
  5
2bb
100
AcDbEntity
  8
0
 62
7
100
AcDbPolyline
 90
2
 70
0
 10
-7.171430
 20
31.726521
 30
0.0
 10
-7.567816
 20
31.254127
 30
0.0
  0
LWPOLYLINE
  5
2bc
100
AcDbEntity
  8
0
 62
7
100
AcDbPolyline
 90
2
 70
0
 10
-3.405766
 20
36.214265
 30
0.0
 10
-3.802152
 20
35.741871
 30
0.0
  0
LWPOLYLINE
  5
2bd
100
AcDbEntity
  8
0
 62
7
100
AcDbPolyline
 90
2
 70
0
 10
-13.066265
 20
24.199035
 30
0.0
 10
-12.833416
 20
24.486579
 30
0.0
  0
LWPOLYLINE
  5
2be
100
AcDbEntity
  8
0
 62
7
100
AcDbPolyline
 90
2
 70
0
 10
-12.813575
 20
23.998036
 30
0.0
 10
-12.585780
 20
24.289600
 30
0.0
  0
LWPOLYLINE
  5
2bf
100
AcDbEntity
  8
0
 62
7
100
AcDbPolyline
 90
2
 70
0
 10
-12.557416
 20
23.801478
 30
0.0
 10
-12.334745
 20
24.096974
 30
0.0
  0
LWPOLYLINE
  5
2c0
100
AcDbEntity
  8
0
 62
7
100
AcDbPolyline
 90
2
 70
0
 10
-12.297865
 20
23.609421
 30
0.0
 10
-12.080385
 20
23.908756
 30
0.0
  0
LWPOLYLINE
  5
2c1
100
AcDbEntity
  8
0
 62
7
100
AcDbPolyline
 90
2
 70
0
 10
-12.035002
 20
23.421922
 30
0.0
 10
-11.752037
 20
23.826038
 30
0.0
  0
LWPOLYLINE
  5
2c2
100
AcDbEntity
  8
0
 62
7
100
AcDbPolyline
 90
2
 70
0
 10
-10.089622
 20
26.200213
 30
0.0
 10
-10.443327
 20
25.695069
 30
0.0
  0
LWPOLYLINE
  5
2c3
100
AcDbEntity
  8
0
 62
7
100
AcDbPolyline
 90
2
 70
0
 10
-6.552567
 20
31.251651
 30
0.0
 10
-6.906272
 20
30.746507
 30
0.0
  0
LWPOLYLINE
  5
2c4
100
AcDbEntity
  8
0
 62
7
100
AcDbPolyline
 90
2
 70
0
 10
-11.768907
 20
23.239040
 30
0.0
 10
-11.562005
 20
23.545784
 30
0.0
  0
LWPOLYLINE
  5
2c5
100
AcDbEntity
  8
0
 62
7
100
AcDbPolyline
 90
2
 70
0
 10
-11.499660
 20
23.060829
 30
0.0
 10
-11.298143
 20
23.371138
 30
0.0
  0
LWPOLYLINE
  5
2c6
100
AcDbEntity
  8
0
 62
7
100
AcDbPolyline
 90
2
 70
0
 10
-11.227345
 20
22.887345
 30
0.0
 10
-11.031274
 20
23.201123
 30
0.0
  0
LWPOLYLINE
  5
2c7
100
AcDbEntity
  8
0
 62
7
100
AcDbPolyline
 90
2
 70
0
 10
-10.952042
 20
22.718640
 30
0.0
 10
-10.761478
 20
23.035792
 30
0.0
  0
LWPOLYLINE
  5
2c8
100
AcDbEntity
  8
0
 62
7
100
AcDbPolyline
 90
2
 70
0
 10
-10.673838
 20
22.554766
 30
0.0
 10
-10.303838
 20
23.195624
 30
0.0
  0
LWPOLYLINE
  5
2c9
100
AcDbEntity
  8
0
 62
7
100
AcDbPolyline
 90
2
 70
0
 10
-10.673838
 20
22.554766
 30
0.0
 10
-9.646060
 20
24.334929
 30
0.0
  0
LWPOLYLINE
  5
2ca
100
AcDbEntity
  8
0
 62
7
100
AcDbPolyline
 90
2
 70
0
 10
-8.592587
 20
26.159596
 30
0.0
 10
-6.537032
 20
29.719923
 30
0.0
  0
LWPOLYLINE
  5
2cb
100
AcDbEntity
  8
0
 62
7
100
AcDbPolyline
 90
2
 70
0
 10
-5.586338
 20
31.366574
 30
0.0
 10
-1.886338
 20
37.775162
 30
0.0
  0
LWPOLYLINE
  5
2cc
100
AcDbEntity
  8
0
 62
7
100
AcDbPolyline
 90
2
 70
0
 10
-10.392816
 20
22.395771
 30
0.0
 10
-10.213436
 20
22.719380
 30
0.0
  0
LWPOLYLINE
  5
2cd
100
AcDbEntity
  8
0
 62
7
100
AcDbPolyline
 90
2
 70
0
 10
-10.109061
 20
22.241705
 30
0.0
 10
-9.935357
 20
22.568396
 30
0.0
  0
LWPOLYLINE
  5
2ce
100
AcDbEntity
  8
0
 62
7
100
AcDbPolyline
 90
2
 70
0
 10
-9.822662
 20
22.092613
 30
0.0
 10
-9.654685
 20
22.422287
 30
0.0
  0
LWPOLYLINE
  5
2cf
100
AcDbEntity
  8
0
 62
7
100
AcDbPolyline
 90
2
 70
0
 10
-9.533704
 20
21.948546
 30
0.0
 10
-9.371507
 20
22.281100
 30
0.0
  0
LWPOLYLINE
  5
2d0
100
AcDbEntity
  8
0
 62
7
100
AcDbPolyline
 90
2
 70
0
 10
-9.242276
 20
21.809542
 30
0.0
 10
-9.033784
 20
22.256653
 30
0.0
  0
LWPOLYLINE
  5
2d1
100
AcDbEntity
  8
0
 62
7
100
AcDbPolyline
 90
2
 70
0
 10
-7.808895
 20
24.883434
 30
0.0
 10
-8.069510
 20
24.324545
 30
0.0
  0
LWPOLYLINE
  5
2d2
100
AcDbEntity
  8
0
 62
7
100
AcDbPolyline
 90
2
 70
0
 10
-5.202749
 20
30.472334
 30
0.0
 10
-5.463364
 20
29.913443
 30
0.0
  0
LWPOLYLINE
  5
2d3
100
AcDbEntity
  8
0
 62
7
100
AcDbPolyline
 90
2
 70
0
 10
-8.948465
 20
21.675644
 30
0.0
 10
-8.797973
 20
22.013657
 30
0.0
  0
LWPOLYLINE
  5
2d4
100
AcDbEntity
  8
0
 62
7
100
AcDbPolyline
 90
2
 70
0
 10
-8.652364
 20
21.546896
 30
0.0
 10
-8.507793
 20
21.887482
 30
0.0
  0
LWPOLYLINE
  5
2d5
100
AcDbEntity
  8
0
 62
7
100
AcDbPolyline
 90
2
 70
0
 10
-8.354060
 20
21.423334
 30
0.0
 10
-8.215455
 20
21.766392
 30
0.0
  0
LWPOLYLINE
  5
2d6
100
AcDbEntity
  8
0
 62
7
100
AcDbPolyline
 90
2
 70
0
 10
-8.053645
 20
21.304997
 30
0.0
 10
-7.921049
 20
21.650421
 30
0.0
  0
LWPOLYLINE
  5
2d7
100
AcDbEntity
  8
0
 62
7
100
AcDbPolyline
 90
2
 70
0
 10
-7.751210
 20
21.191921
 30
0.0
 10
-7.498116
 20
21.887295
 30
0.0
  0
LWPOLYLINE
  5
2d8
100
AcDbEntity
  8
0
 62
7
100
AcDbPolyline
 90
2
 70
0
 10
-6.591192
 20
24.379046
 30
0.0
 10
-6.802104
 20
23.799568
 30
0.0
  0
LWPOLYLINE
  5
2d9
100
AcDbEntity
  8
0
 62
7
100
AcDbPolyline
 90
2
 70
0
 10
-4.482068
 20
30.173817
 30
0.0
 10
-4.692980
 20
29.594340
 30
0.0
  0
LWPOLYLINE
  5
2da
100
AcDbEntity
  8
0
 62
7
100
AcDbPolyline
 90
2
 70
0
 10
-2.478400
 20
35.678850
 30
0.0
 10
-2.689312
 20
35.099373
 30
0.0
  0
LWPOLYLINE
  5
2db
100
AcDbEntity
  8
0
 62
7
100
AcDbPolyline
 90
2
 70
0
 10
-7.446848
 20
21.084141
 30
0.0
 10
-7.326388
 20
21.433983
 30
0.0
  0
LWPOLYLINE
  5
2dc
100
AcDbEntity
  8
0
 62
7
100
AcDbPolyline
 90
2
 70
0
 10
-7.140652
 20
20.981690
 30
0.0
 10
-7.026316
 20
21.333580
 30
0.0
  0
LWPOLYLINE
  5
2dd
100
AcDbEntity
  8
0
 62
7
100
AcDbPolyline
 90
2
 70
0
 10
-6.832714
 20
20.884598
 30
0.0
 10
-6.724537
 20
21.238430
 30
0.0
  0
LWPOLYLINE
  5
2de
100
AcDbEntity
  8
0
 62
7
100
AcDbPolyline
 90
2
 70
0
 10
-6.523128
 20
20.792895
 30
0.0
 10
-6.421143
 20
21.148560
 30
0.0
  0
LWPOLYLINE
  5
2df
100
AcDbEntity
  8
0
 62
7
100
AcDbPolyline
 90
2
 70
0
 10
-6.211990
 20
20.706608
 30
0.0
 10
-6.084306
 20
21.183130
 30
0.0
  0
LWPOLYLINE
  5
2e0
100
AcDbEntity
  8
0
 62
7
100
AcDbPolyline
 90
2
 70
0
 10
-5.334162
 20
23.982705
 30
0.0
 10
-5.493767
 20
23.387052
 30
0.0
  0
LWPOLYLINE
  5
2e1
100
AcDbEntity
  8
0
 62
7
100
AcDbPolyline
 90
2
 70
0
 10
-3.738111
 20
29.939249
 30
0.0
 10
-3.897716
 20
29.343594
 30
0.0
  0
LWPOLYLINE
  5
2e2
100
AcDbEntity
  8
0
 62
7
100
AcDbPolyline
 90
2
 70
0
 10
-2.785699
 20
34.685010
 30
0.0
 10
-2.190044
 20
34.525405
 30
0.0
  0
LWPOLYLINE
  5
2e3
100
AcDbEntity
  8
0
 62
7
100
AcDbPolyline
 90
2
 70
0
 10
-3.051707
 20
33.692252
 30
0.0
 10
-2.456053
 20
33.532647
 30
0.0
  0
LWPOLYLINE
  5
2e4
100
AcDbEntity
  8
0
 62
7
100
AcDbPolyline
 90
2
 70
0
 10
-3.583724
 20
31.706738
 30
0.0
 10
-2.988070
 20
31.547133
 30
0.0
  0
LWPOLYLINE
  5
2e5
100
AcDbEntity
  8
0
 62
7
100
AcDbPolyline
 90
2
 70
0
 10
-3.849732
 20
30.713981
 30
0.0
 10
-3.254078
 20
30.554376
 30
0.0
  0
LWPOLYLINE
  5
2e6
100
AcDbEntity
  8
0
 62
7
100
AcDbPolyline
 90
2
 70
0
 10
-4.115741
 20
29.721224
 30
0.0
 10
-3.520087
 20
29.561619
 30
0.0
  0
LWPOLYLINE
  5
2e7
100
AcDbEntity
  8
0
 62
7
100
AcDbPolyline
 90
2
 70
0
 10
-4.381749
 20
28.728467
 30
0.0
 10
-3.786095
 20
28.568861
 30
0.0
  0
LWPOLYLINE
  5
2e8
100
AcDbEntity
  8
0
 62
7
100
AcDbPolyline
 90
2
 70
0
 10
-4.647758
 20
27.735709
 30
0.0
 10
-4.052104
 20
27.576104
 30
0.0
  0
LWPOLYLINE
  5
2e9
100
AcDbEntity
  8
0
 62
7
100
AcDbPolyline
 90
2
 70
0
 10
-5.179775
 20
25.750196
 30
0.0
 10
-4.584121
 20
25.590590
 30
0.0
  0
LWPOLYLINE
  5
2ea
100
AcDbEntity
  8
0
 62
7
100
AcDbPolyline
 90
2
 70
0
 10
-5.445783
 20
24.757438
 30
0.0
 10
-4.850129
 20
24.597833
 30
0.0
  0
LWPOLYLINE
  5
2eb
100
AcDbEntity
  8
0
 62
7
100
AcDbPolyline
 90
2
 70
0
 10
-5.711792
 20
23.764681
 30
0.0
 10
-5.116137
 20
23.605076
 30
0.0
  0
LWPOLYLINE
  5
2ec
100
AcDbEntity
  8
0
 62
7
100
AcDbPolyline
 90
2
 70
0
 10
-5.977800
 20
22.771924
 30
0.0
 10
-5.382146
 20
22.612319
 30
0.0
  0
LWPOLYLINE
  5
2ed
100
AcDbEntity
  8
0
 62
7
100
AcDbPolyline
 90
2
 70
0
 10
-6.243809
 20
21.779167
 30
0.0
 10
-5.648154
 20
21.619562
 30
0.0
  0
LWPOLYLINE
  5
2ee
100
AcDbEntity
  8
0
 62
7
100
AcDbPolyline
 90
2
 70
0
 10
-5.899393
 20
20.625763
 30
0.0
 10
-5.809882
 20
20.984774
 30
0.0
  0
LWPOLYLINE
  5
2ef
100
AcDbEntity
  8
0
 62
7
100
AcDbPolyline
 90
2
 70
0
 10
-5.585432
 20
20.550389
 30
0.0
 10
-5.502200
 20
20.910906
 30
0.0
  0
LWPOLYLINE
  5
2f0
100
AcDbEntity
  8
0
 62
7
100
AcDbPolyline
 90
2
 70
0
 10
-5.270204
 20
20.480505
 30
0.0
 10
-5.193277
 20
20.842419
 30
0.0
  0
LWPOLYLINE
  5
2f1
100
AcDbEntity
  8
0
 62
7
100
AcDbPolyline
 90
2
 70
0
 10
-4.953804
 20
20.416132
 30
0.0
 10
-4.883205
 20
20.779333
 30
0.0
  0
LWPOLYLINE
  5
2f2
100
AcDbEntity
  8
0
 62
7
100
AcDbPolyline
 90
2
 70
0
 10
-4.636329
 20
20.357292
 30
0.0
 10
-4.507829
 20
21.086050
 30
0.0
  0
LWPOLYLINE
  5
2f3
100
AcDbEntity
  8
0
 62
7
100
AcDbPolyline
 90
2
 70
0
 10
-4.047372
 20
23.697431
 30
0.0
 10
-4.154455
 20
23.090133
 30
0.0
  0
LWPOLYLINE
  5
2f4
100
AcDbEntity
  8
0
 62
7
100
AcDbPolyline
 90
2
 70
0
 10
-2.976542
 20
29.770413
 30
0.0
 10
-3.083625
 20
29.163114
 30
0.0
  0
LWPOLYLINE
  5
2f5
100
AcDbEntity
  8
0
 62
7
100
AcDbPolyline
 90
2
 70
0
 10
-1.959253
 20
35.539745
 30
0.0
 10
-2.066336
 20
34.932447
 30
0.0
  0
LWPOLYLINE
  5
2f6
100
AcDbEntity
  8
0
 62
7
100
AcDbPolyline
 90
2
 70
0
 10
-4.317875
 20
20.304001
 30
0.0
 10
-4.259994
 20
20.669445
 30
0.0
  0
LWPOLYLINE
  5
2f7
100
AcDbEntity
  8
0
 62
7
100
AcDbPolyline
 90
2
 70
0
 10
-3.998540
 20
20.256275
 30
0.0
 10
-3.947046
 20
20.622675
 30
0.0
  0
LWPOLYLINE
  5
2f8
100
AcDbEntity
  8
0
 62
7
100
AcDbPolyline
 90
2
 70
0
 10
-3.678421
 20
20.214131
 30
0.0
 10
-3.633329
 20
20.581373
 30
0.0
  0
LWPOLYLINE
  5
2f9
100
AcDbEntity
  8
0
 62
7
100
AcDbPolyline
 90
2
 70
0
 10
-3.357614
 20
20.177580
 30
0.0
 10
-3.318939
 20
20.545553
 30
0.0
  0
LWPOLYLINE
  5
2fa
100
AcDbEntity
  8
0
 62
7
100
AcDbPolyline
 90
2
 70
0
 10
-3.036219
 20
20.146633
 30
0.0
 10
-2.993222
 20
20.638088
 30
0.0
  0
LWPOLYLINE
  5
2fb
100
AcDbEntity
  8
0
 62
7
100
AcDbPolyline
 90
2
 70
0
 10
-2.740616
 20
23.525394
 30
0.0
 10
-2.794362
 20
22.911073
 30
0.0
  0
LWPOLYLINE
  5
2fc
100
AcDbEntity
  8
0
 62
7
100
AcDbPolyline
 90
2
 70
0
 10
-2.203155
 20
29.668595
 30
0.0
 10
-2.256901
 20
29.054274
 30
0.0
  0
LWPOLYLINE
  5
2fd
100
AcDbEntity
  8
0
 62
7
100
AcDbPolyline
 90
2
 70
0
 10
-2.714332
 20
20.121300
 30
0.0
 10
-2.688523
 20
20.490399
 30
0.0
  0
LWPOLYLINE
  5
2fe
100
AcDbEntity
  8
0
 62
7
100
AcDbPolyline
 90
2
 70
0
 10
-2.392053
 20
20.101589
 30
0.0
 10
-2.372688
 20
20.471081
 30
0.0
  0
LWPOLYLINE
  5
2ff
100
AcDbEntity
  8
0
 62
7
100
AcDbPolyline
 90
2
 70
0
 10
-2.069478
 20
20.087506
 30
0.0
 10
-2.056565
 20
20.457279
 30
0.0
  0
LWPOLYLINE
  5
300
100
AcDbEntity
  8
0
 62
7
100
AcDbPolyline
 90
2
 70
0
 10
-1.746707
 20
20.079052
 30
0.0
 10
-1.740250
 20
20.448996
 30
0.0
  0
LWPOLYLINE
  5
301
100
AcDbEntity
  8
0
 62
7
100
AcDbPolyline
 90
2
 70
0
 10
-1.423838
 20
20.076235
 30
0.0
 10
-1.423838
 20
20.816235
 30
0.0
  0
LWPOLYLINE
  5
302
100
AcDbEntity
  8
0
 62
7
100
AcDbPolyline
 90
2
 70
0
 10
-1.423838
 20
20.076235
 30
0.0
 10
-1.423838
 20
22.131790
 30
0.0
  0
LWPOLYLINE
  5
303
100
AcDbEntity
  8
0
 62
7
100
AcDbPolyline
 90
2
 70
0
 10
-1.423838
 20
24.238735
 30
0.0
 10
-1.423838
 20
28.349846
 30
0.0
  0
LWPOLYLINE
  5
304
100
AcDbEntity
  8
0
 62
7
100
AcDbPolyline
 90
2
 70
0
 10
-1.423838
 20
30.251236
 30
0.0
 10
-1.423838
 20
37.651235
 30
0.0
  0
LWPOLYLINE
  5
305
100
AcDbEntity
  8
0
 62
7
100
AcDbPolyline
 90
2
 70
0
 10
-1.100968
 20
20.079052
 30
0.0
 10
-1.107425
 20
20.448996
 30
0.0
  0
LWPOLYLINE
  5
306
100
AcDbEntity
  8
0
 62
7
100
AcDbPolyline
 90
2
 70
0
 10
-0.778197
 20
20.087506
 30
0.0
 10
-0.791110
 20
20.457279
 30
0.0
  0
LWPOLYLINE
  5
307
100
AcDbEntity
  8
0
 62
7
100
AcDbPolyline
 90
2
 70
0
 10
-0.455622
 20
20.101589
 30
0.0
 10
-0.474987
 20
20.471081
 30
0.0
  0
LWPOLYLINE
  5
308
100
AcDbEntity
  8
0
 62
7
100
AcDbPolyline
 90
2
 70
0
 10
-0.133343
 20
20.121300
 30
0.0
 10
-0.159153
 20
20.490399
 30
0.0
  0
LWPOLYLINE
  5
309
100
AcDbEntity
  8
0
 62
7
100
AcDbPolyline
 90
2
 70
0
 10
0.188544
 20
20.146633
 30
0.0
 10
0.145547
 20
20.638088
 30
0.0
  0
LWPOLYLINE
  5
30a
100
AcDbEntity
  8
0
 62
7
100
AcDbPolyline
 90
2
 70
0
 10
-0.107060
 20
23.525394
 30
0.0
 10
-0.053314
 20
22.911073
 30
0.0
  0
LWPOLYLINE
  5
30b
100
AcDbEntity
  8
0
 62
7
100
AcDbPolyline
 90
2
 70
0
 10
-0.644520
 20
29.668595
 30
0.0
 10
-0.590774
 20
29.054274
 30
0.0
  0
LWPOLYLINE
  5
30c
100
AcDbEntity
  8
0
 62
7
100
AcDbPolyline
 90
2
 70
0
 10
0.509939
 20
20.177580
 30
0.0
 10
0.471264
 20
20.545553
 30
0.0
  0
LWPOLYLINE
  5
30d
100
AcDbEntity
  8
0
 62
7
100
AcDbPolyline
 90
2
 70
0
 10
0.830745
 20
20.214131
 30
0.0
 10
0.785654
 20
20.581373
 30
0.0
  0
LWPOLYLINE
  5
30e
100
AcDbEntity
  8
0
 62
7
100
AcDbPolyline
 90
2
 70
0
 10
1.150865
 20
20.256275
 30
0.0
 10
1.099371
 20
20.622675
 30
0.0
  0
LWPOLYLINE
  5
30f
100
AcDbEntity
  8
0
 62
7
100
AcDbPolyline
 90
2
 70
0
 10
1.470200
 20
20.304001
 30
0.0
 10
1.412319
 20
20.669445
 30
0.0
  0
LWPOLYLINE
  5
310
100
AcDbEntity
  8
0
 62
7
100
AcDbPolyline
 90
2
 70
0
 10
1.788654
 20
20.357292
 30
0.0
 10
1.660154
 20
21.086050
 30
0.0
  0
LWPOLYLINE
  5
311
100
AcDbEntity
  8
0
 62
7
100
AcDbPolyline
 90
2
 70
0
 10
1.199697
 20
23.697431
 30
0.0
 10
1.306780
 20
23.090133
 30
0.0
  0
LWPOLYLINE
  5
312
100
AcDbEntity
  8
0
 62
7
100
AcDbPolyline
 90
2
 70
0
 10
0.128867
 20
29.770413
 30
0.0
 10
0.235950
 20
29.163114
 30
0.0
  0
LWPOLYLINE
  5
313
100
AcDbEntity
  8
0
 62
7
100
AcDbPolyline
 90
2
 70
0
 10
-0.888422
 20
35.539745
 30
0.0
 10
-0.781339
 20
34.932447
 30
0.0
  0
LWPOLYLINE
  5
314
100
AcDbEntity
  8
0
 62
7
100
AcDbPolyline
 90
2
 70
0
 10
2.106129
 20
20.416132
 30
0.0
 10
2.035529
 20
20.779333
 30
0.0
  0
LWPOLYLINE
  5
315
100
AcDbEntity
  8
0
 62
7
100
AcDbPolyline
 90
2
 70
0
 10
2.422529
 20
20.480505
 30
0.0
 10
2.345601
 20
20.842419
 30
0.0
  0
LWPOLYLINE
  5
316
100
AcDbEntity
  8
0
 62
7
100
AcDbPolyline
 90
2
 70
0
 10
2.737757
 20
20.550389
 30
0.0
 10
2.654525
 20
20.910906
 30
0.0
  0
LWPOLYLINE
  5
317
100
AcDbEntity
  8
0
 62
7
100
AcDbPolyline
 90
2
 70
0
 10
3.051717
 20
20.625763
 30
0.0
 10
2.962206
 20
20.984774
 30
0.0
  0
LWPOLYLINE
  5
318
100
AcDbEntity
  8
0
 62
7
100
AcDbPolyline
 90
2
 70
0
 10
3.364315
 20
20.706608
 30
0.0
 10
3.236631
 20
21.183130
 30
0.0
  0
LWPOLYLINE
  5
319
100
AcDbEntity
  8
0
 62
7
100
AcDbPolyline
 90
2
 70
0
 10
2.486487
 20
23.982705
 30
0.0
 10
2.646092
 20
23.387052
 30
0.0
  0
LWPOLYLINE
  5
31a
100
AcDbEntity
  8
0
 62
7
100
AcDbPolyline
 90
2
 70
0
 10
0.890436
 20
29.939249
 30
0.0
 10
1.050041
 20
29.343594
 30
0.0
  0
LWPOLYLINE
  5
31b
100
AcDbEntity
  8
0
 62
7
100
AcDbPolyline
 90
2
 70
0
 10
-0.657631
 20
34.525405
 30
0.0
 10
-0.061977
 20
34.685010
 30
0.0
  0
LWPOLYLINE
  5
31c
100
AcDbEntity
  8
0
 62
7
100
AcDbPolyline
 90
2
 70
0
 10
-0.391622
 20
33.532647
 30
0.0
 10
0.204032
 20
33.692252
 30
0.0
  0
LWPOLYLINE
  5
31d
100
AcDbEntity
  8
0
 62
7
100
AcDbPolyline
 90
2
 70
0
 10
0.140395
 20
31.547133
 30
0.0
 10
0.736049
 20
31.706738
 30
0.0
  0
LWPOLYLINE
  5
31e
100
AcDbEntity
  8
0
 62
7
100
AcDbPolyline
 90
2
 70
0
 10
0.406403
 20
30.554376
 30
0.0
 10
1.002057
 20
30.713981
 30
0.0
  0
LWPOLYLINE
  5
31f
100
AcDbEntity
  8
0
 62
7
100
AcDbPolyline
 90
2
 70
0
 10
0.672412
 20
29.561619
 30
0.0
 10
1.268066
 20
29.721224
 30
0.0
  0
LWPOLYLINE
  5
320
100
AcDbEntity
  8
0
 62
7
100
AcDbPolyline
 90
2
 70
0
 10
0.938420
 20
28.568861
 30
0.0
 10
1.534074
 20
28.728467
 30
0.0
  0
LWPOLYLINE
  5
321
100
AcDbEntity
  8
0
 62
7
100
AcDbPolyline
 90
2
 70
0
 10
1.204428
 20
27.576104
 30
0.0
 10
1.800083
 20
27.735709
 30
0.0
  0
LWPOLYLINE
  5
322
100
AcDbEntity
  8
0
 62
7
100
AcDbPolyline
 90
2
 70
0
 10
1.736445
 20
25.590590
 30
0.0
 10
2.332100
 20
25.750196
 30
0.0
  0
LWPOLYLINE
  5
323
100
AcDbEntity
  8
0
 62
7
100
AcDbPolyline
 90
2
 70
0
 10
2.002454
 20
24.597833
 30
0.0
 10
2.598108
 20
24.757438
 30
0.0
  0
LWPOLYLINE
  5
324
100
AcDbEntity
  8
0
 62
7
100
AcDbPolyline
 90
2
 70
0
 10
2.268462
 20
23.605076
 30
0.0
 10
2.864116
 20
23.764681
 30
0.0
  0
LWPOLYLINE
  5
325
100
AcDbEntity
  8
0
 62
7
100
AcDbPolyline
 90
2
 70
0
 10
2.534471
 20
22.612319
 30
0.0
 10
3.130125
 20
22.771924
 30
0.0
  0
LWPOLYLINE
  5
326
100
AcDbEntity
  8
0
 62
7
100
AcDbPolyline
 90
2
 70
0
 10
2.800479
 20
21.619562
 30
0.0
 10
3.396134
 20
21.779167
 30
0.0
  0
LWPOLYLINE
  5
327
100
AcDbEntity
  8
0
 62
7
100
AcDbPolyline
 90
2
 70
0
 10
3.675453
 20
20.792895
 30
0.0
 10
3.573468
 20
21.148560
 30
0.0
  0
LWPOLYLINE
  5
328
100
AcDbEntity
  8
0
 62
7
100
AcDbPolyline
 90
2
 70
0
 10
3.985039
 20
20.884598
 30
0.0
 10
3.876862
 20
21.238430
 30
0.0
  0
LWPOLYLINE
  5
329
100
AcDbEntity
  8
0
 62
7
100
AcDbPolyline
 90
2
 70
0
 10
4.292977
 20
20.981690
 30
0.0
 10
4.178640
 20
21.333580
 30
0.0
  0
LWPOLYLINE
  5
32a
100
AcDbEntity
  8
0
 62
7
100
AcDbPolyline
 90
2
 70
0
 10
4.599173
 20
21.084141
 30
0.0
 10
4.478713
 20
21.433983
 30
0.0
  0
LWPOLYLINE
  5
32b
100
AcDbEntity
  8
0
 62
7
100
AcDbPolyline
 90
2
 70
0
 10
4.903535
 20
21.191921
 30
0.0
 10
4.650440
 20
21.887295
 30
0.0
  0
LWPOLYLINE
  5
32c
100
AcDbEntity
  8
0
 62
7
100
AcDbPolyline
 90
2
 70
0
 10
3.743517
 20
24.379046
 30
0.0
 10
3.954429
 20
23.799568
 30
0.0
  0
LWPOLYLINE
  5
32d
100
AcDbEntity
  8
0
 62
7
100
AcDbPolyline
 90
2
 70
0
 10
1.634393
 20
30.173817
 30
0.0
 10
1.845305
 20
29.594340
 30
0.0
  0
LWPOLYLINE
  5
32e
100
AcDbEntity
  8
0
 62
7
100
AcDbPolyline
 90
2
 70
0
 10
-0.369276
 20
35.678850
 30
0.0
 10
-0.158363
 20
35.099373
 30
0.0
  0
LWPOLYLINE
  5
32f
100
AcDbEntity
  8
0
 62
7
100
AcDbPolyline
 90
2
 70
0
 10
5.205969
 20
21.304997
 30
0.0
 10
5.073373
 20
21.650421
 30
0.0
  0
LWPOLYLINE
  5
330
100
AcDbEntity
  8
0
 62
7
100
AcDbPolyline
 90
2
 70
0
 10
5.506384
 20
21.423334
 30
0.0
 10
5.367780
 20
21.766392
 30
0.0
  0
LWPOLYLINE
  5
331
100
AcDbEntity
  8
0
 62
7
100
AcDbPolyline
 90
2
 70
0
 10
5.804689
 20
21.546896
 30
0.0
 10
5.660118
 20
21.887482
 30
0.0
  0
LWPOLYLINE
  5
332
100
AcDbEntity
  8
0
 62
7
100
AcDbPolyline
 90
2
 70
0
 10
6.100790
 20
21.675644
 30
0.0
 10
5.950298
 20
22.013657
 30
0.0
  0
LWPOLYLINE
  5
333
100
AcDbEntity
  8
0
 62
7
100
AcDbPolyline
 90
2
 70
0
 10
6.394601
 20
21.809542
 30
0.0
 10
6.186109
 20
22.256653
 30
0.0
  0
LWPOLYLINE
  5
334
100
AcDbEntity
  8
0
 62
7
100
AcDbPolyline
 90
2
 70
0
 10
4.961220
 20
24.883434
 30
0.0
 10
5.221835
 20
24.324545
 30
0.0
  0
LWPOLYLINE
  5
335
100
AcDbEntity
  8
0
 62
7
100
AcDbPolyline
 90
2
 70
0
 10
2.355074
 20
30.472334
 30
0.0
 10
2.615688
 20
29.913443
 30
0.0
  0
LWPOLYLINE
  5
336
100
AcDbEntity
  8
0
 62
7
100
AcDbPolyline
 90
2
 70
0
 10
6.686029
 20
21.948546
 30
0.0
 10
6.523831
 20
22.281100
 30
0.0
  0
LWPOLYLINE
  5
337
100
AcDbEntity
  8
0
 62
7
100
AcDbPolyline
 90
2
 70
0
 10
6.974987
 20
22.092613
 30
0.0
 10
6.807010
 20
22.422287
 30
0.0
  0
LWPOLYLINE
  5
338
100
AcDbEntity
  8
0
 62
7
100
AcDbPolyline
 90
2
 70
0
 10
7.261386
 20
22.241705
 30
0.0
 10
7.087682
 20
22.568396
 30
0.0
  0
LWPOLYLINE
  5
339
100
AcDbEntity
  8
0
 62
7
100
AcDbPolyline
 90
2
 70
0
 10
7.545140
 20
22.395771
 30
0.0
 10
7.365761
 20
22.719380
 30
0.0
  0
LWPOLYLINE
  5
33a
100
AcDbEntity
  8
0
 62
7
100
AcDbPolyline
 90
2
 70
0
 10
7.826162
 20
22.554766
 30
0.0
 10
7.456163
 20
23.195624
 30
0.0
  0
LWPOLYLINE
  5
33b
100
AcDbEntity
  8
0
 62
7
100
AcDbPolyline
 90
2
 70
0
 10
7.826162
 20
22.554766
 30
0.0
 10
6.798385
 20
24.334929
 30
0.0
  0
LWPOLYLINE
  5
33c
100
AcDbEntity
  8
0
 62
7
100
AcDbPolyline
 90
2
 70
0
 10
5.744912
 20
26.159596
 30
0.0
 10
3.689357
 20
29.719923
 30
0.0
  0
LWPOLYLINE
  5
33d
100
AcDbEntity
  8
0
 62
7
100
AcDbPolyline
 90
2
 70
0
 10
2.738662
 20
31.366574
 30
0.0
 10
-0.961338
 20
37.775162
 30
0.0
  0
LWPOLYLINE
  5
33e
100
AcDbEntity
  8
0
 62
7
100
AcDbPolyline
 90
2
 70
0
 10
8.104366
 20
22.718640
 30
0.0
 10
7.913803
 20
23.035792
 30
0.0
  0
LWPOLYLINE
  5
33f
100
AcDbEntity
  8
0
 62
7
100
AcDbPolyline
 90
2
 70
0
 10
8.379669
 20
22.887345
 30
0.0
 10
8.183599
 20
23.201123
 30
0.0
  0
LWPOLYLINE
  5
340
100
AcDbEntity
  8
0
 62
7
100
AcDbPolyline
 90
2
 70
0
 10
8.651984
 20
23.060829
 30
0.0
 10
8.450468
 20
23.371138
 30
0.0
  0
LWPOLYLINE
  5
341
100
AcDbEntity
  8
0
 62
7
100
AcDbPolyline
 90
2
 70
0
 10
8.921231
 20
23.239040
 30
0.0
 10
8.714329
 20
23.545784
 30
0.0
  0
LWPOLYLINE
  5
342
100
AcDbEntity
  8
0
 62
7
100
AcDbPolyline
 90
2
 70
0
 10
9.187326
 20
23.421922
 30
0.0
 10
8.904361
 20
23.826038
 30
0.0
  0
LWPOLYLINE
  5
343
100
AcDbEntity
  8
0
 62
7
100
AcDbPolyline
 90
2
 70
0
 10
7.241946
 20
26.200213
 30
0.0
 10
7.595652
 20
25.695069
 30
0.0
  0
LWPOLYLINE
  5
344
100
AcDbEntity
  8
0
 62
7
100
AcDbPolyline
 90
2
 70
0
 10
3.704892
 20
31.251651
 30
0.0
 10
4.058597
 20
30.746507
 30
0.0
  0
LWPOLYLINE
  5
345
100
AcDbEntity
  8
0
 62
7
100
AcDbPolyline
 90
2
 70
0
 10
9.450189
 20
23.609421
 30
0.0
 10
9.232709
 20
23.908756
 30
0.0
  0
LWPOLYLINE
  5
346
100
AcDbEntity
  8
0
 62
7
100
AcDbPolyline
 90
2
 70
0
 10
9.709740
 20
23.801478
 30
0.0
 10
9.487069
 20
24.096974
 30
0.0
  0
LWPOLYLINE
  5
347
100
AcDbEntity
  8
0
 62
7
100
AcDbPolyline
 90
2
 70
0
 10
9.965899
 20
23.998036
 30
0.0
 10
9.738104
 20
24.289600
 30
0.0
  0
LWPOLYLINE
  5
348
100
AcDbEntity
  8
0
 62
7
100
AcDbPolyline
 90
2
 70
0
 10
10.218589
 20
24.199035
 30
0.0
 10
9.985740
 20
24.486579
 30
0.0
  0
LWPOLYLINE
  5
349
100
AcDbEntity
  8
0
 62
7
100
AcDbPolyline
 90
2
 70
0
 10
10.467733
 20
24.404412
 30
0.0
 10
9.992070
 20
24.971286
 30
0.0
  0
LWPOLYLINE
  5
34a
100
AcDbEntity
  8
0
 62
7
100
AcDbPolyline
 90
2
 70
0
 10
8.287612
 20
27.002580
 30
0.0
 10
8.683997
 20
26.530186
 30
0.0
  0
LWPOLYLINE
  5
34b
100
AcDbEntity
  8
0
 62
7
100
AcDbPolyline
 90
2
 70
0
 10
4.323755
 20
31.726521
 30
0.0
 10
4.720141
 20
31.254127
 30
0.0
  0
LWPOLYLINE
  5
34c
100
AcDbEntity
  8
0
 62
7
100
AcDbPolyline
 90
2
 70
0
 10
0.558091
 20
36.214265
 30
0.0
 10
0.954477
 20
35.741871
 30
0.0
  0
LWPOLYLINE
  5
34d
100
AcDbEntity
  8
0
 62
7
100
AcDbPolyline
 90
2
 70
0
 10
10.713254
 20
24.614107
 30
0.0
 10
10.470512
 20
24.893351
 30
0.0
  0
LWPOLYLINE
  5
34e
100
AcDbEntity
  8
0
 62
7
100
AcDbPolyline
 90
2
 70
0
 10
10.955078
 20
24.828056
 30
0.0
 10
10.707500
 20
25.103019
 30
0.0
  0
LWPOLYLINE
  5
34f
100
AcDbEntity
  8
0
 62
7
100
AcDbPolyline
 90
2
 70
0
 10
11.193132
 20
25.046191
 30
0.0
 10
10.940793
 20
25.316793
 30
0.0
  0
LWPOLYLINE
  5
350
100
AcDbEntity
  8
0
 62
7
100
AcDbPolyline
 90
2
 70
0
 10
11.427342
 20
25.268449
 30
0.0
 10
11.170318
 20
25.534604
 30
0.0
  0
LWPOLYLINE
  5
351
100
AcDbEntity
  8
0
 62
7
100
AcDbPolyline
 90
2
 70
0
 10
11.657637
 20
25.494760
 30
0.0
 10
11.308798
 20
25.843599
 30
0.0
  0
LWPOLYLINE
  5
352
100
AcDbEntity
  8
0
 62
7
100
AcDbPolyline
 90
2
 70
0
 10
9.259367
 20
27.893030
 30
0.0
 10
9.695416
 20
27.456981
 30
0.0
  0
LWPOLYLINE
  5
353
100
AcDbEntity
  8
0
 62
7
100
AcDbPolyline
 90
2
 70
0
 10
4.898875
 20
32.253523
 30
0.0
 10
5.334925
 20
31.817473
 30
0.0
  0
LWPOLYLINE
  5
354
100
AcDbEntity
  8
0
 62
7
100
AcDbPolyline
 90
2
 70
0
 10
1.265132
 20
35.451216
 30
0.0
 10
1.701182
 20
35.887266
 30
0.0
  0
LWPOLYLINE
  5
355
100
AcDbEntity
  8
0
 62
7
100
AcDbPolyline
 90
2
 70
0
 10
1.991881
 20
34.724468
 30
0.0
 10
2.427930
 20
35.160517
 30
0.0
  0
LWPOLYLINE
  5
356
100
AcDbEntity
  8
0
 62
7
100
AcDbPolyline
 90
2
 70
0
 10
3.445378
 20
33.270971
 30
0.0
 10
3.881427
 20
33.707019
 30
0.0
  0
LWPOLYLINE
  5
357
100
AcDbEntity
  8
0
 62
7
100
AcDbPolyline
 90
2
 70
0
 10
4.172127
 20
32.544222
 30
0.0
 10
4.608176
 20
32.980271
 30
0.0
  0
LWPOLYLINE
  5
358
100
AcDbEntity
  8
0
 62
7
100
AcDbPolyline
 90
2
 70
0
 10
4.898875
 20
31.817473
 30
0.0
 10
5.334925
 20
32.253523
 30
0.0
  0
LWPOLYLINE
  5
359
100
AcDbEntity
  8
0
 62
7
100
AcDbPolyline
 90
2
 70
0
 10
5.625624
 20
31.090725
 30
0.0
 10
6.061673
 20
31.526774
 30
0.0
  0
LWPOLYLINE
  5
35a
100
AcDbEntity
  8
0
 62
7
100
AcDbPolyline
 90
2
 70
0
 10
6.352373
 20
30.363976
 30
0.0
 10
6.788422
 20
30.800025
 30
0.0
  0
LWPOLYLINE
  5
35b
100
AcDbEntity
  8
0
 62
7
100
AcDbPolyline
 90
2
 70
0
 10
7.805870
 20
28.910478
 30
0.0
 10
8.241920
 20
29.346528
 30
0.0
  0
LWPOLYLINE
  5
35c
100
AcDbEntity
  8
0
 62
7
100
AcDbPolyline
 90
2
 70
0
 10
8.532619
 20
28.183729
 30
0.0
 10
8.968668
 20
28.619779
 30
0.0
  0
LWPOLYLINE
  5
35d
100
AcDbEntity
  8
0
 62
7
100
AcDbPolyline
 90
2
 70
0
 10
9.259367
 20
27.456981
 30
0.0
 10
9.695416
 20
27.893030
 30
0.0
  0
LWPOLYLINE
  5
35e
100
AcDbEntity
  8
0
 62
7
100
AcDbPolyline
 90
2
 70
0
 10
9.986115
 20
26.730232
 30
0.0
 10
10.422165
 20
27.166282
 30
0.0
  0
LWPOLYLINE
  5
35f
100
AcDbEntity
  8
0
 62
7
100
AcDbPolyline
 90
2
 70
0
 10
10.712865
 20
26.003484
 30
0.0
 10
11.148913
 20
26.439532
 30
0.0
  0
LWPOLYLINE
  5
360
100
AcDbEntity
  8
0
 62
7
100
AcDbPolyline
 90
2
 70
0
 10
11.883948
 20
25.725055
 30
0.0
 10
11.617793
 20
25.982079
 30
0.0
  0
LWPOLYLINE
  5
361
100
AcDbEntity
  8
0
 62
7
100
AcDbPolyline
 90
2
 70
0
 10
12.106206
 20
25.959265
 30
0.0
 10
11.835604
 20
26.211604
 30
0.0
  0
LWPOLYLINE
  5
362
100
AcDbEntity
  8
0
 62
7
100
AcDbPolyline
 90
2
 70
0
 10
12.324341
 20
26.197319
 30
0.0
 10
12.049378
 20
26.444897
 30
0.0
  0
LWPOLYLINE
  5
363
100
AcDbEntity
  8
0
 62
7
100
AcDbPolyline
 90
2
 70
0
 10
12.538290
 20
26.439143
 30
0.0
 10
12.259046
 20
26.681885
 30
0.0
  0
LWPOLYLINE
  5
364
100
AcDbEntity
  8
0
 62
7
100
AcDbPolyline
 90
2
 70
0
 10
12.747985
 20
26.684664
 30
0.0
 10
12.181111
 20
27.160327
 30
0.0
  0
LWPOLYLINE
  5
365
100
AcDbEntity
  8
0
 62
7
100
AcDbPolyline
 90
2
 70
0
 10
10.149817
 20
28.864786
 30
0.0
 10
10.622211
 20
28.468400
 30
0.0
  0
LWPOLYLINE
  5
366
100
AcDbEntity
  8
0
 62
7
100
AcDbPolyline
 90
2
 70
0
 10
5.425877
 20
32.828643
 30
0.0
 10
5.898271
 20
32.432257
 30
0.0
  0
LWPOLYLINE
  5
367
100
AcDbEntity
  8
0
 62
7
100
AcDbPolyline
 90
2
 70
0
 10
0.938133
 20
36.594307
 30
0.0
 10
1.410527
 20
36.197921
 30
0.0
  0
LWPOLYLINE
  5
368
100
AcDbEntity
  8
0
 62
7
100
AcDbPolyline
 90
2
 70
0
 10
12.953362
 20
26.933808
 30
0.0
 10
12.665818
 20
27.166657
 30
0.0
  0
LWPOLYLINE
  5
369
100
AcDbEntity
  8
0
 62
7
100
AcDbPolyline
 90
2
 70
0
 10
13.154361
 20
27.186498
 30
0.0
 10
12.862797
 20
27.414293
 30
0.0
  0
LWPOLYLINE
  5
36a
100
AcDbEntity
  8
0
 62
7
100
AcDbPolyline
 90
2
 70
0
 10
13.350919
 20
27.442657
 30
0.0
 10
13.055423
 20
27.665328
 30
0.0
  0
LWPOLYLINE
  5
36b
100
AcDbEntity
  8
0
 62
7
100
AcDbPolyline
 90
2
 70
0
 10
13.542976
 20
27.702208
 30
0.0
 10
13.243641
 20
27.919688
 30
0.0
  0
LWPOLYLINE
  5
36c
100
AcDbEntity
  8
0
 62
7
100
AcDbPolyline
 90
2
 70
0
 10
13.730475
 20
27.965071
 30
0.0
 10
13.326359
 20
28.248036
 30
0.0
  0
LWPOLYLINE
  5
36d
100
AcDbEntity
  8
0
 62
7
100
AcDbPolyline
 90
2
 70
0
 10
10.952184
 20
29.910452
 30
0.0
 10
11.457328
 20
29.556746
 30
0.0
  0
LWPOLYLINE
  5
36e
100
AcDbEntity
  8
0
 62
7
100
AcDbPolyline
 90
2
 70
0
 10
5.900747
 20
33.447506
 30
0.0
 10
6.405891
 20
33.093801
 30
0.0
  0
LWPOLYLINE
  5
36f
100
AcDbEntity
  8
0
 62
7
100
AcDbPolyline
 90
2
 70
0
 10
13.913357
 20
28.231166
 30
0.0
 10
13.606613
 20
28.438068
 30
0.0
  0
LWPOLYLINE
  5
370
100
AcDbEntity
  8
0
 62
7
100
AcDbPolyline
 90
2
 70
0
 10
14.091568
 20
28.500413
 30
0.0
 10
13.781259
 20
28.701930
 30
0.0
  0
LWPOLYLINE
  5
371
100
AcDbEntity
  8
0
 62
7
100
AcDbPolyline
 90
2
 70
0
 10
14.265052
 20
28.772729
 30
0.0
 10
13.951274
 20
28.968799
 30
0.0
  0
LWPOLYLINE
  5
372
100
AcDbEntity
  8
0
 62
7
100
AcDbPolyline
 90
2
 70
0
 10
14.433757
 20
29.048031
 30
0.0
 10
14.116605
 20
29.238595
 30
0.0
  0
LWPOLYLINE
  5
373
100
AcDbEntity
  8
0
 62
7
100
AcDbPolyline
 90
2
 70
0
 10
14.597631
 20
29.326235
 30
0.0
 10
13.956773
 20
29.696235
 30
0.0
  0
LWPOLYLINE
  5
374
100
AcDbEntity
  8
0
 62
7
100
AcDbPolyline
 90
2
 70
0
 10
14.597631
 20
29.326235
 30
0.0
 10
12.817468
 20
30.354013
 30
0.0
  0
LWPOLYLINE
  5
375
100
AcDbEntity
  8
0
 62
7
100
AcDbPolyline
 90
2
 70
0
 10
10.992801
 20
31.407486
 30
0.0
 10
7.432475
 20
33.463041
 30
0.0
  0
LWPOLYLINE
  5
376
100
AcDbEntity
  8
0
 62
7
100
AcDbPolyline
 90
2
 70
0
 10
5.785824
 20
34.413736
 30
0.0
 10
-0.622764
 20
38.113735
 30
0.0
  0
LWPOLYLINE
  5
377
100
AcDbEntity
  8
0
 62
7
100
AcDbPolyline
 90
2
 70
0
 10
14.756626
 20
29.607258
 30
0.0
 10
14.433017
 20
29.786637
 30
0.0
  0
LWPOLYLINE
  5
378
100
AcDbEntity
  8
0
 62
7
100
AcDbPolyline
 90
2
 70
0
 10
14.910692
 20
29.891012
 30
0.0
 10
14.584001
 20
30.064716
 30
0.0
  0
LWPOLYLINE
  5
379
100
AcDbEntity
  8
0
 62
7
100
AcDbPolyline
 90
2
 70
0
 10
15.059784
 20
30.177411
 30
0.0
 10
14.730110
 20
30.345388
 30
0.0
  0
LWPOLYLINE
  5
37a
100
AcDbEntity
  8
0
 62
7
100
AcDbPolyline
 90
2
 70
0
 10
15.203851
 20
30.466369
 30
0.0
 10
14.871297
 20
30.628566
 30
0.0
  0
LWPOLYLINE
  5
37b
100
AcDbEntity
  8
0
 62
7
100
AcDbPolyline
 90
2
 70
0
 10
15.342855
 20
30.757797
 30
0.0
 10
14.895744
 20
30.966289
 30
0.0
  0
LWPOLYLINE
  5
37c
100
AcDbEntity
  8
0
 62
7
100
AcDbPolyline
 90
2
 70
0
 10
12.268963
 20
32.191178
 30
0.0
 10
12.827852
 20
31.930563
 30
0.0
  0
LWPOLYLINE
  5
37d
100
AcDbEntity
  8
0
 62
7
100
AcDbPolyline
 90
2
 70
0
 10
6.680064
 20
34.797324
 30
0.0
 10
7.238955
 20
34.536709
 30
0.0
  0
LWPOLYLINE
  5
37e
100
AcDbEntity
  8
0
 62
7
100
AcDbPolyline
 90
2
 70
0
 10
15.476753
 20
31.051608
 30
0.0
 10
15.138740
 20
31.202100
 30
0.0
  0
LWPOLYLINE
  5
37f
100
AcDbEntity
  8
0
 62
7
100
AcDbPolyline
 90
2
 70
0
 10
15.605501
 20
31.347709
 30
0.0
 10
15.264915
 20
31.492280
 30
0.0
  0
LWPOLYLINE
  5
380
100
AcDbEntity
  8
0
 62
7
100
AcDbPolyline
 90
2
 70
0
 10
15.729063
 20
31.646013
 30
0.0
 10
15.386005
 20
31.784618
 30
0.0
  0
LWPOLYLINE
  5
381
100
AcDbEntity
  8
0
 62
7
100
AcDbPolyline
 90
2
 70
0
 10
15.847400
 20
31.946428
 30
0.0
 10
15.501976
 20
32.079024
 30
0.0
  0
LWPOLYLINE
  5
382
100
AcDbEntity
  8
0
 62
7
100
AcDbPolyline
 90
2
 70
0
 10
15.960476
 20
32.248863
 30
0.0
 10
15.265102
 20
32.501958
 30
0.0
  0
LWPOLYLINE
  5
383
100
AcDbEntity
  8
0
 62
7
100
AcDbPolyline
 90
2
 70
0
 10
12.773351
 20
33.408881
 30
0.0
 10
13.352829
 20
33.197969
 30
0.0
  0
LWPOLYLINE
  5
384
100
AcDbEntity
  8
0
 62
7
100
AcDbPolyline
 90
2
 70
0
 10
6.978581
 20
35.518005
 30
0.0
 10
7.558058
 20
35.307093
 30
0.0
  0
LWPOLYLINE
  5
385
100
AcDbEntity
  8
0
 62
7
100
AcDbPolyline
 90
2
 70
0
 10
1.473548
 20
37.521673
 30
0.0
 10
2.053025
 20
37.310761
 30
0.0
  0
LWPOLYLINE
  5
386
100
AcDbEntity
  8
0
 62
7
100
AcDbPolyline
 90
2
 70
0
 10
16.068256
 20
32.553225
 30
0.0
 10
15.718414
 20
32.673685
 30
0.0
  0
LWPOLYLINE
  5
387
100
AcDbEntity
  8
0
 62
7
100
AcDbPolyline
 90
2
 70
0
 10
16.170707
 20
32.859421
 30
0.0
 10
15.818817
 20
32.973757
 30
0.0
  0
LWPOLYLINE
  5
388
100
AcDbEntity
  8
0
 62
7
100
AcDbPolyline
 90
2
 70
0
 10
16.267799
 20
33.167359
 30
0.0
 10
15.913967
 20
33.275536
 30
0.0
  0
LWPOLYLINE
  5
389
100
AcDbEntity
  8
0
 62
7
100
AcDbPolyline
 90
2
 70
0
 10
16.359502
 20
33.476945
 30
0.0
 10
16.003837
 20
33.578930
 30
0.0
  0
LWPOLYLINE
  5
38a
100
AcDbEntity
  8
0
 62
7
100
AcDbPolyline
 90
2
 70
0
 10
16.445789
 20
33.788083
 30
0.0
 10
15.969267
 20
33.915767
 30
0.0
  0
LWPOLYLINE
  5
38b
100
AcDbEntity
  8
0
 62
7
100
AcDbPolyline
 90
2
 70
0
 10
13.169692
 20
34.665911
 30
0.0
 10
13.765345
 20
34.506306
 30
0.0
  0
LWPOLYLINE
  5
38c
100
AcDbEntity
  8
0
 62
7
100
AcDbPolyline
 90
2
 70
0
 10
7.213149
 20
36.261962
 30
0.0
 10
7.808804
 20
36.102357
 30
0.0
  0
LWPOLYLINE
  5
38d
100
AcDbEntity
  8
0
 62
7
100
AcDbPolyline
 90
2
 70
0
 10
2.467388
 20
37.214374
 30
0.0
 10
2.626993
 20
37.810029
 30
0.0
  0
LWPOLYLINE
  5
38e
100
AcDbEntity
  8
0
 62
7
100
AcDbPolyline
 90
2
 70
0
 10
3.460146
 20
36.948366
 30
0.0
 10
3.619751
 20
37.544020
 30
0.0
  0
LWPOLYLINE
  5
38f
100
AcDbEntity
  8
0
 62
7
100
AcDbPolyline
 90
2
 70
0
 10
5.445660
 20
36.416349
 30
0.0
 10
5.605265
 20
37.012003
 30
0.0
  0
LWPOLYLINE
  5
390
100
AcDbEntity
  8
0
 62
7
100
AcDbPolyline
 90
2
 70
0
 10
6.438417
 20
36.150341
 30
0.0
 10
6.598022
 20
36.745995
 30
0.0
  0
LWPOLYLINE
  5
391
100
AcDbEntity
  8
0
 62
7
100
AcDbPolyline
 90
2
 70
0
 10
7.431173
 20
35.884332
 30
0.0
 10
7.590778
 20
36.479986
 30
0.0
  0
LWPOLYLINE
  5
392
100
AcDbEntity
  8
0
 62
7
100
AcDbPolyline
 90
2
 70
0
 10
8.423931
 20
35.618324
 30
0.0
 10
8.583536
 20
36.213978
 30
0.0
  0
LWPOLYLINE
  5
393
100
AcDbEntity
  8
0
 62
7
100
AcDbPolyline
 90
2
 70
0
 10
9.416688
 20
35.352315
 30
0.0
 10
9.576293
 20
35.947970
 30
0.0
  0
LWPOLYLINE
  5
394
100
AcDbEntity
  8
0
 62
7
100
AcDbPolyline
 90
2
 70
0
 10
11.402201
 20
34.820298
 30
0.0
 10
11.561807
 20
35.415953
 30
0.0
  0
LWPOLYLINE
  5
395
100
AcDbEntity
  8
0
 62
7
100
AcDbPolyline
 90
2
 70
0
 10
12.394959
 20
34.554290
 30
0.0
 10
12.554564
 20
35.149944
 30
0.0
  0
LWPOLYLINE
  5
396
100
AcDbEntity
  8
0
 62
7
100
AcDbPolyline
 90
2
 70
0
 10
13.387716
 20
34.288282
 30
0.0
 10
13.547321
 20
34.883936
 30
0.0
  0
LWPOLYLINE
  5
397
100
AcDbEntity
  8
0
 62
7
100
AcDbPolyline
 90
2
 70
0
 10
14.380473
 20
34.022273
 30
0.0
 10
14.540078
 20
34.617927
 30
0.0
  0
LWPOLYLINE
  5
398
100
AcDbEntity
  8
0
 62
7
100
AcDbPolyline
 90
2
 70
0
 10
15.373230
 20
33.756264
 30
0.0
 10
15.532835
 20
34.351919
 30
0.0
  0
LWPOLYLINE
  5
399
100
AcDbEntity
  8
0
 62
7
100
AcDbPolyline
 90
2
 70
0
 10
16.526634
 20
34.100681
 30
0.0
 10
16.167623
 20
34.190191
 30
0.0
  0
LWPOLYLINE
  5
39a
100
AcDbEntity
  8
0
 62
7
100
AcDbPolyline
 90
2
 70
0
 10
16.602008
 20
34.414641
 30
0.0
 10
16.241491
 20
34.497873
 30
0.0
  0
LWPOLYLINE
  5
39b
100
AcDbEntity
  8
0
 62
7
100
AcDbPolyline
 90
2
 70
0
 10
16.671892
 20
34.729869
 30
0.0
 10
16.309978
 20
34.806796
 30
0.0
  0
LWPOLYLINE
  5
39c
100
AcDbEntity
  8
0
 62
7
100
AcDbPolyline
 90
2
 70
0
 10
16.736265
 20
35.046269
 30
0.0
 10
16.373064
 20
35.116868
 30
0.0
  0
LWPOLYLINE
  5
39d
100
AcDbEntity
  8
0
 62
7
100
AcDbPolyline
 90
2
 70
0
 10
16.795105
 20
35.363744
 30
0.0
 10
16.066347
 20
35.492244
 30
0.0
  0
LWPOLYLINE
  5
39e
100
AcDbEntity
  8
0
 62
7
100
AcDbPolyline
 90
2
 70
0
 10
13.454966
 20
35.952701
 30
0.0
 10
14.062264
 20
35.845618
 30
0.0
  0
LWPOLYLINE
  5
39f
100
AcDbEntity
  8
0
 62
7
100
AcDbPolyline
 90
2
 70
0
 10
7.381985
 20
37.023531
 30
0.0
 10
7.989284
 20
36.916448
 30
0.0
  0
LWPOLYLINE
  5
3a0
100
AcDbEntity
  8
0
 62
7
100
AcDbPolyline
 90
2
 70
0
 10
1.612653
 20
38.040820
 30
0.0
 10
2.219951
 20
37.933737
 30
0.0
  0
LWPOLYLINE
  5
3a1
100
AcDbEntity
  8
0
 62
7
100
AcDbPolyline
 90
2
 70
0
 10
16.848396
 20
35.682198
 30
0.0
 10
16.482952
 20
35.740079
 30
0.0
  0
LWPOLYLINE
  5
3a2
100
AcDbEntity
  8
0
 62
7
100
AcDbPolyline
 90
2
 70
0
 10
16.896122
 20
36.001533
 30
0.0
 10
16.529722
 20
36.053027
 30
0.0
  0
LWPOLYLINE
  5
3a3
100
AcDbEntity
  8
0
 62
7
100
AcDbPolyline
 90
2
 70
0
 10
16.938266
 20
36.321653
 30
0.0
 10
16.571024
 20
36.366744
 30
0.0
  0
LWPOLYLINE
  5
3a4
100
AcDbEntity
  8
0
 62
7
100
AcDbPolyline
 90
2
 70
0
 10
16.974817
 20
36.642459
 30
0.0
 10
16.606844
 20
36.681134
 30
0.0
  0
LWPOLYLINE
  5
3a5
100
AcDbEntity
  8
0
 62
7
100
AcDbPolyline
 90
2
 70
0
 10
17.005764
 20
36.963854
 30
0.0
 10
16.514309
 20
37.006851
 30
0.0
  0
LWPOLYLINE
  5
3a6
100
AcDbEntity
  8
0
 62
7
100
AcDbPolyline
 90
2
 70
0
 10
13.627003
 20
37.259457
 30
0.0
 10
14.241324
 20
37.205711
 30
0.0
  0
LWPOLYLINE
  5
3a7
100
AcDbEntity
  8
0
 62
7
100
AcDbPolyline
 90
2
 70
0
 10
7.483803
 20
37.796918
 30
0.0
 10
8.098124
 20
37.743172
 30
0.0
  0
LWPOLYLINE
  5
3a8
100
AcDbEntity
  8
0
 62
7
100
AcDbPolyline
 90
2
 70
0
 10
17.031097
 20
37.285741
 30
0.0
 10
16.661998
 20
37.311551
 30
0.0
  0
LWPOLYLINE
  5
3a9
100
AcDbEntity
  8
0
 62
7
100
AcDbPolyline
 90
2
 70
0
 10
17.050808
 20
37.608020
 30
0.0
 10
16.681316
 20
37.627385
 30
0.0
  0
LWPOLYLINE
  5
3aa
100
AcDbEntity
  8
0
 62
7
100
AcDbPolyline
 90
2
 70
0
 10
17.064891
 20
37.930595
 30
0.0
 10
16.695118
 20
37.943508
 30
0.0
  0
LWPOLYLINE
  5
3ab
100
AcDbEntity
  8
0
 62
7
100
AcDbPolyline
 90
2
 70
0
 10
17.073345
 20
38.253366
 30
0.0
 10
16.703401
 20
38.259823
 30
0.0
  0
ENDSEC
  0
SECTION
  2
OBJECTS
  0
DICTIONARY
  5
C
330
0
100
AcDbDictionary
  3
ACAD_GROUP
350
D
  3
ACAD_MLINESTYLE
350
17
  0
DICTIONARY
  5
D
330
C
100
AcDbDictionary
  0
DICTIONARY
  5
1A
330
C
100
AcDbDictionary
  0
DICTIONARY
  5
17
330
C
100
AcDbDictionary
  3
STANDARD
350
18
  0
DICTIONARY
  5
19
330
C
100
AcDbDictionary
  0
ENDSEC
  0
EOF
