<?xml version="1.0" encoding="utf-8" ?>
<svg baseProfile="full" height="40mm" version="1.1" viewBox="-20 -20 40 40" width="40mm" xmlns="http://www.w3.org/2000/svg" xmlns:ev="http://www.w3.org/2001/xml-events" xmlns:xlink="http://www.w3.org/1999/xlink"><defs /><g id="elems" stroke="black" stroke-width="0.1524"><polyline fill="white" points="-18.35,2.2472268764353934e-15 -18.340945382711176,-0.5763874290836487 -18.313790466658784,-1.1522060333629 -18.26856205046652,-1.726887549394734 -18.20530476912067,-2.299864835904984 -18.12408104992078,-2.8705724334882343 -18.02497105087144,-3.4384471226480415 -17.908072581576018,-4.002928479626555 -17.773501006710383,-4.563459429475082 -17.621389132171906,-5.119486795819857 -17.45188707401607,-5.670461846780283 -17.26516211031004,-6.215840836501092 -17.061398516049415,-6.75508554176384 -16.84079738130106,-7.287663793148221 -16.60357641275146,-7.813050000219084 -16.349969718856553,-8.330725670220682 -16.0802275788049,-8.84017991976647 -15.794616195522368,-9.340909979019312 -15.49341743296198,-9.832421687864585 -15.176928537938212,-10.314229983586596 -14.845461846780289,-10.785859379566881 -14.499344477093922,-11.246844434532115 -14.138918004935734,-11.696730211888456 -13.764538127718936,-12.13507272868901 -13.376574313182903,-12.561439393791439 -12.975409434773152,-12.975409434773146 -12.561439393791444,-13.3765743131829 -12.135072728689014,-13.764538127718932 -11.696730211888454,-14.138918004935736 -11.24684443453212,-14.49934447709392 -10.785859379566885,-14.845461846780285 -10.314229983586603,-15.176928537938206 -9.832421687864597,-15.493417432961973 -9.34090997901931,-15.79461619552237 -8.840179919766475,-16.080227578804898 -8.330725670220687,-16.34996971885655 -7.813050000219089,-16.603576412751455 -7.287663793148218,-16.84079738130106 -6.7550855417638385,-17.061398516049415 -6.215840836501097,-17.265162110310037 -5.670461846780288,-17.451887074016067 -5.1194867958198635,-17.621389132171906 -4.563459429475095,-17.77350100671038 -4.0029284796265525,-17.908072581576018 -3.4384471226480473,-18.02497105087144 -2.8705724334882396,-18.12408104992078 -2.2998648359049896,-18.20530476912067 -1.7268875493947313,-18.26856205046652 -1.1522060333628974,-18.313790466658784 -0.5763874290836544,-18.340945382711176 -3.37084031465309e-15,-18.35 0.5763874290836476,-18.340945382711176 1.1522060333628905,-18.313790466658784 1.726887549394741,-18.26856205046652 2.299864835904983,-18.20530476912067 2.870572433488233,-18.12408104992078 3.438447122648056,-18.024971050871436 4.002928479626562,-17.908072581576015 4.563459429475088,-17.773501006710383 5.119486795819856,-17.621389132171906 5.670461846780282,-17.45188707401607 6.215840836501091,-17.26516211031004 6.755085541763831,-17.06139851604942 7.287663793148227,-16.84079738130105 7.813050000219083,-16.603576412751462 8.330725670220682,-16.349969718856553 8.840179919766484,-16.080227578804895 9.340909979019319,-15.794616195522362 9.832421687864592,-15.493417432961976 10.314229983586596,-15.176928537938212 10.78585937956688,-14.845461846780289 11.246844434532113,-14.499344477093924 11.69673021188845,-14.13891800493574 12.135072728689014,-13.764538127718932 12.561439393791437,-13.376574313182903 12.975409434773145,-12.975409434773152 13.376574313182909,-12.561439393791431 13.764538127718936,-12.135072728689007 14.138918004935736,-11.696730211888456 14.499344477093919,-11.24684443453212 14.845461846780285,-10.785859379566887 15.176928537938206,-10.314229983586603 15.493417432961971,-9.832421687864597 15.79461619552237,-9.340909979019312 16.080227578804898,-8.840179919766477 16.349969718856556,-8.330725670220673 16.603576412751462,-7.813050000219076 16.84079738130106,-7.28766379314822 17.061398516049415,-6.755085541763839 17.265162110310037,-6.215840836501098 17.451887074016067,-5.670461846780289 17.621389132171906,-5.119486795819864 17.77350100671038,-4.563459429475096 17.908072581576018,-4.002928479626553 18.02497105087144,-3.438447122648048 18.124081049920783,-2.870572433488225 18.20530476912067,-2.2998648359049745 18.26856205046652,-1.7268875493947327 18.313790466658784,-1.1522060333628985 18.340945382711176,-0.5763874290836555 18.35,-4.494453752870787e-15" stroke="black" stroke-width="0.1524" /><polyline fill="white" points="18.35,0.0 18.340945382711176,0.5763874290836543 18.313790466658784,1.1522060333629005 18.26856205046652,1.726887549394738 18.20530476912067,2.2998648359049834 18.12408104992078,2.8705724334882365 18.02497105087144,3.4384471226480473 17.908072581576018,4.002928479626556 17.773501006710383,4.563459429475086 17.621389132171906,5.119486795819857 17.451887074016067,5.670461846780285 17.265162110310037,6.215840836501098 17.061398516049415,6.755085541763841 16.840797381301055,7.287663793148225 16.60357641275146,7.813050000219085 16.349969718856553,8.330725670220685 16.080227578804898,8.840179919766477 15.794616195522368,9.340909979019314 15.493417432961978,9.83242168786459 15.176928537938212,10.314229983586596 14.845461846780287,10.785859379566883 14.499344477093919,11.24684443453212 14.138918004935732,11.696730211888458 13.764538127718934,12.135072728689012 13.376574313182903,12.561439393791439 12.975409434773146,12.975409434773148 12.561439393791437,13.376574313182903 12.135072728689012,13.764538127718934 11.696730211888456,14.138918004935734 11.24684443453212,14.49934447709392 10.785859379566881,14.845461846780287 10.314229983586596,15.176928537938212 9.832421687864587,15.493417432961978 9.340909979019312,15.794616195522368 8.840179919766474,16.0802275788049 8.330725670220685,16.34996971885655 7.813050000219084,16.603576412751462 7.287663793148224,16.840797381301055 6.755085541763839,17.061398516049415 6.215840836501095,17.26516211031004 5.670461846780286,17.451887074016067 5.119486795819857,17.621389132171906 4.563459429475085,17.773501006710383 4.002928479626555,17.908072581576018 3.438447122648045,18.02497105087144 2.8705724334882334,18.12408104992078 2.2998648359049834,18.20530476912067 1.7268875493947373,18.26856205046652 1.1522060333628992,18.313790466658784 0.576387429083652,18.340945382711176 -2.9509050621566283e-15,18.35 -0.5763874290836539,18.340945382711176 -1.152206033362901,18.313790466658784 -1.726887549394739,18.26856205046652 -2.299864835904985,18.20530476912067 -2.8705724334882396,18.12408104992078 -3.438447122648051,18.024971050871436 -4.002928479626556,17.908072581576018 -4.5634594294750865,17.773501006710383 -5.119486795819858,17.621389132171906 -5.670461846780288,17.451887074016067 -6.2158408365011,17.265162110310037 -6.755085541763841,17.061398516049415 -7.2876637931482255,16.840797381301055 -7.813050000219085,16.60357641275146 -8.330725670220682,16.349969718856553 -8.840179919766479,16.080227578804895 -9.340909979019314,15.794616195522368 -9.832421687864594,15.493417432961976 -10.3142299835866,15.176928537938208 -10.785859379566881,14.845461846780287 -11.246844434532122,14.499344477093919 -11.696730211888458,14.138918004935734 -12.135072728689016,13.76453812771893 -12.561439393791439,13.376574313182902 -12.975409434773146,12.975409434773148 -13.376574313182905,12.561439393791435 -13.764538127718934,12.135072728689012 -14.138918004935736,11.696730211888454 -14.49934447709392,11.246844434532118 -14.845461846780285,10.785859379566885 -15.176928537938213,10.314229983586594 -15.493417432961978,9.83242168786459 -15.79461619552237,9.34090997901931 -16.080227578804898,8.840179919766475 -16.349969718856553,8.330725670220678 -16.603576412751462,7.813050000219081 -16.840797381301055,7.287663793148225 -17.061398516049415,6.755085541763838 -17.265162110310037,6.215840836501096 -17.45188707401607,5.67046184678028 -17.621389132171906,5.119486795819855 -17.773501006710383,4.5634594294750865 -17.908072581576018,4.002928479626552 -18.02497105087144,3.438447122648046 -18.12408104992078,2.8705724334882308 -18.20530476912067,2.2998648359049803 -18.26856205046652,1.7268875493947384 -18.313790466658784,1.152206033362896 -18.340945382711176,0.5763874290836531 -18.35,-5.901810124313257e-15" stroke="black" stroke-width="0.1524" /><line stroke="black" stroke-width="0.5" x1="1.1236134382176967e-15" x2="1.0337243631602809e-15" y1="18.35" y2="16.882" /><line stroke="black" stroke-width="0.5" x1="9.174999999999999" x2="8.440999999999999" y1="15.891566159444452" y2="14.620240866688896" /><line stroke="black" stroke-width="0.5" x1="15.89156615944445" x2="14.620240866688894" y1="9.175000000000002" y2="8.441000000000003" /><line stroke="black" stroke-width="0.5" x1="18.35" x2="16.882" y1="4.074518500374325e-15" y2="3.748557020344379e-15" /><line stroke="black" stroke-width="0.5" x1="15.891566159444453" x2="14.620240866688897" y1="-9.174999999999997" y2="-8.440999999999997" /><line stroke="black" stroke-width="0.5" x1="9.175000000000006" x2="8.441000000000006" y1="-15.891566159444448" y2="-14.620240866688892" /><line stroke="black" stroke-width="0.5" x1="9.272650438966347e-15" x2="8.530838403849038e-15" y1="-18.35" y2="-16.882" /><line stroke="black" stroke-width="0.5" x1="-9.17499999999999" x2="-8.44099999999999" y1="-15.891566159444455" y2="-14.6202408666889" /><line stroke="black" stroke-width="0.5" x1="-15.891566159444443" x2="-14.620240866688889" y1="-9.175000000000015" y2="-8.441000000000013" /><line stroke="black" stroke-width="0.5" x1="-18.35" x2="-16.882" y1="-1.8545300877932693e-14" y2="-1.7061676807698077e-14" /><line stroke="black" stroke-width="0.5" x1="-15.891566159444462" x2="-14.620240866688905" y1="9.174999999999983" y2="8.440999999999985" /><line stroke="black" stroke-width="0.5" x1="-9.175000000000024" x2="-8.441000000000022" y1="15.891566159444437" y2="14.620240866688883" /><line stroke="black" stroke-width="0.5" x1="-1.9668914316150387e-14" x2="-1.8095401170858356e-14" y1="18.35" y2="16.882" /><line stroke="black" stroke-width="0.1524" x1="1.1236134382176967e-15" x2="1.0594069560338284e-15" y1="18.35" y2="17.301428571428573" /><line stroke="black" stroke-width="0.1524" x1="1.1236134382176967e-15" x2="1.0337243631602809e-15" y1="18.35" y2="16.882" /><line stroke="black" stroke-width="0.1524" x1="1.918097300961441" x2="1.7646495168845258" y1="18.249476780007818" y2="16.78951863760719" /><line stroke="black" stroke-width="0.1524" x1="3.815179526505882" x2="3.5099651643854117" y1="17.949008473465337" y2="16.51308779558811" /><line stroke="black" stroke-width="0.1524" x1="5.670461846780283" x2="5.216824899037861" y1="17.45188707401607" y2="16.055736108094784" /><line stroke="black" stroke-width="0.1524" x1="7.46361740044093" x2="6.866528008405656" y1="16.76355914774173" y2="15.422474415922391" /><line stroke="black" stroke-width="0.1524" x1="9.174999999999995" x2="8.440999999999995" y1="15.891566159444453" y2="14.620240866688897" /><line stroke="black" stroke-width="0.1524" x1="10.78585937956688" x2="9.922990629201529" y1="14.845461846780289" y2="13.657824899037866" /><line stroke="black" stroke-width="0.1524" x1="12.278546626685046" x2="11.296262896550243" y1="13.63670754751019" y2="12.545770943709375" /><line stroke="black" stroke-width="0.1524" x1="13.636707547510184" x2="12.54577094370937" y1="12.278546626685051" y2="11.296262896550248" /><line stroke="black" stroke-width="0.1524" x1="14.845461846780285" x2="13.657824899037863" y1="10.785859379566885" y2="9.922990629201534" /><line stroke="black" stroke-width="0.1524" x1="15.89156615944445" x2="14.620240866688894" y1="9.175000000000002" y2="8.441000000000003" /><line stroke="black" stroke-width="0.1524" x1="16.763559147741727" x2="15.42247441592239" y1="7.4636174004409375" y2="6.866528008405663" /><line stroke="black" stroke-width="0.1524" x1="17.451887074016067" x2="16.055736108094784" y1="5.670461846780289" y2="5.216824899037866" /><line stroke="black" stroke-width="0.1524" x1="17.949008473465334" x2="16.513087795588106" y1="3.8151795265058883" y2="3.509965164385417" /><line stroke="black" stroke-width="0.1524" x1="18.249476780007818" x2="16.78951863760719" y1="1.9180973009614457" y2="1.76464951688453" /><line stroke="black" stroke-width="0.1524" x1="18.35" x2="16.882" y1="4.583833312921115e-15" y2="4.217126647887426e-15" /><line stroke="black" stroke-width="0.1524" x1="18.249476780007818" x2="16.789518637607195" y1="-1.9180973009614368" y2="-1.7646495168845218" /><line stroke="black" stroke-width="0.1524" x1="17.949008473465337" x2="16.51308779558811" y1="-3.815179526505879" y2="-3.5099651643854086" /><line stroke="black" stroke-width="0.1524" x1="17.45188707401607" x2="16.055736108094784" y1="-5.670461846780281" y2="-5.216824899037858" /><line stroke="black" stroke-width="0.1524" x1="16.76355914774173" x2="15.422474415922391" y1="-7.4636174004409295" y2="-6.866528008405655" /><line stroke="black" stroke-width="0.1524" x1="15.891566159444453" x2="14.620240866688897" y1="-9.174999999999997" y2="-8.440999999999997" /><line stroke="black" stroke-width="0.1524" x1="14.845461846780289" x2="13.657824899037866" y1="-10.78585937956688" y2="-9.922990629201529" /><line stroke="black" stroke-width="0.1524" x1="13.636707547510188" x2="12.545770943709373" y1="-12.278546626685046" y2="-11.296262896550243" /><line stroke="black" stroke-width="0.1524" x1="12.278546626685051" x2="11.296262896550248" y1="-13.636707547510184" y2="-12.54577094370937" /><line stroke="black" stroke-width="0.1524" x1="10.785859379566885" x2="9.922990629201534" y1="-14.845461846780285" y2="-13.657824899037863" /><line stroke="black" stroke-width="0.1524" x1="9.175000000000002" x2="8.441000000000003" y1="-15.89156615944445" y2="-14.620240866688894" /><line stroke="black" stroke-width="0.1524" x1="7.4636174004409375" x2="6.866528008405663" y1="-16.763559147741727" y2="-15.42247441592239" /><line stroke="black" stroke-width="0.1524" x1="5.67046184678029" x2="5.216824899037867" y1="-17.451887074016067" y2="-16.055736108094784" /><line stroke="black" stroke-width="0.1524" x1="3.8151795265058905" x2="3.5099651643854193" y1="-17.949008473465334" y2="-16.513087795588106" /><line stroke="black" stroke-width="0.1524" x1="1.9180973009614493" x2="1.7646495168845333" y1="-18.249476780007818" y2="-16.78951863760719" /><line stroke="black" stroke-width="0.1524" x1="9.272650438966347e-15" x2="8.530838403849038e-15" y1="-18.35" y2="-16.882" /><line stroke="black" stroke-width="0.1524" x1="-1.9180973009614306" x2="-1.7646495168845162" y1="-18.249476780007818" y2="-16.789518637607195" /><line stroke="black" stroke-width="0.1524" x1="-3.815179526505872" x2="-3.5099651643854024" y1="-17.949008473465337" y2="-16.51308779558811" /><line stroke="black" stroke-width="0.1524" x1="-5.670461846780273" x2="-5.216824899037851" y1="-17.451887074016074" y2="-16.055736108094788" /><line stroke="black" stroke-width="0.1524" x1="-7.4636174004409215" x2="-6.8665280084056475" y1="-16.763559147741734" y2="-15.422474415922395" /><line stroke="black" stroke-width="0.1524" x1="-9.17499999999999" x2="-8.44099999999999" y1="-15.891566159444455" y2="-14.6202408666889" /><line stroke="black" stroke-width="0.1524" x1="-10.785859379566874" x2="-9.922990629201525" y1="-14.845461846780292" y2="-13.65782489903787" /><line stroke="black" stroke-width="0.1524" x1="-12.278546626685044" x2="-11.29626289655024" y1="-13.63670754751019" y2="-12.545770943709375" /><line stroke="black" stroke-width="0.1524" x1="-13.63670754751018" x2="-12.545770943709368" y1="-12.278546626685051" y2="-11.296262896550248" /><line stroke="black" stroke-width="0.1524" x1="-14.845461846780285" x2="-13.657824899037863" y1="-10.785859379566885" y2="-9.922990629201534" /><line stroke="black" stroke-width="0.1524" x1="-15.891566159444452" x2="-14.620240866688896" y1="-9.174999999999999" y2="-8.440999999999999" /><line stroke="black" stroke-width="0.1524" x1="-16.76355914774173" x2="-15.422474415922391" y1="-7.463617400440931" y2="-6.866528008405657" /><line stroke="black" stroke-width="0.1524" x1="-17.45188707401607" x2="-16.055736108094784" y1="-5.67046184678028" y2="-5.216824899037857" /><line stroke="black" stroke-width="0.1524" x1="-17.949008473465337" x2="-16.51308779558811" y1="-3.8151795265058754" y2="-3.5099651643854055" /><line stroke="black" stroke-width="0.1524" x1="-18.249476780007818" x2="-16.789518637607195" y1="-1.91809730096143" y2="-1.7646495168845155" /><line stroke="black" stroke-width="0.1524" x1="-18.35" x2="-16.882" y1="1.4050847125061906e-14" y2="1.2926779355056953e-14" /><line stroke="black" stroke-width="0.1524" x1="-18.249476780007818" x2="-16.78951863760719" y1="1.918097300961458" y2="1.7646495168845413" /><line stroke="black" stroke-width="0.1524" x1="-17.94900847346533" x2="-16.513087795588106" y1="3.815179526505903" y2="3.509965164385431" /><line stroke="black" stroke-width="0.1524" x1="-17.451887074016064" x2="-16.055736108094777" y1="5.670461846780307" y2="5.216824899037882" /><line stroke="black" stroke-width="0.1524" x1="-16.763559147741717" x2="-15.42247441592238" y1="7.463617400440957" y2="6.86652800840568" /><line stroke="black" stroke-width="0.1524" x1="-15.891566159444437" x2="-14.620240866688883" y1="9.175000000000026" y2="8.441000000000024" /><line stroke="black" stroke-width="0.1524" x1="-14.84546184678027" x2="-13.657824899037847" y1="10.785859379566908" y2="9.922990629201555" /><line stroke="black" stroke-width="0.1524" x1="-13.636707547510163" x2="-12.54577094370935" y1="12.278546626685074" y2="11.296262896550267" /><line stroke="black" stroke-width="0.1524" x1="-12.278546626685023" x2="-11.296262896550221" y1="13.636707547510207" y2="12.54577094370939" /><line stroke="black" stroke-width="0.1524" x1="-10.785859379566858" x2="-9.922990629201509" y1="14.845461846780303" y2="13.657824899037879" /><line stroke="black" stroke-width="0.1524" x1="-9.17499999999998" x2="-8.440999999999981" y1="15.891566159444462" y2="14.620240866688905" /><line stroke="black" stroke-width="0.1524" x1="-7.463617400440917" x2="-6.866528008405644" y1="16.763559147741734" y2="15.422474415922396" /><line stroke="black" stroke-width="0.1524" x1="-5.670461846780273" x2="-5.216824899037851" y1="17.451887074016074" y2="16.055736108094788" /><line stroke="black" stroke-width="0.1524" x1="-3.8151795265058768" x2="-3.5099651643854064" y1="17.949008473465337" y2="16.51308779558811" /><line stroke="black" stroke-width="0.1524" x1="-1.9180973009614393" x2="-1.7646495168845242" y1="18.249476780007818" y2="16.789518637607195" /><polyline fill="white" points="17.4325,0.0 17.398100943325844,1.0945957316947554 17.295039530664635,2.184871594109734 17.12372249832787,3.2665247665156447 16.88482595637486,4.335286458001331 16.579292720315266,5.386938754441271 16.208328590246943,6.417331264675649 15.773397592113886,7.42239750020813 15.276216199864653,8.398170923778153 14.718746561313878,9.34080060347136 14.103188754441272,10.246566410588539 13.431972104688946,11.111893701294035 12.707745597523758,11.933367424101867 11.933367424101865,12.707745597523758 11.111893701294033,13.431972104688947 10.246566410588537,14.103188754441272 9.340800603471358,14.718746561313878 8.39817092377815,15.276216199864654 7.422397500208129,15.773397592113888 6.4173312646756475,16.208328590246943 5.386938754441272,16.579292720315266 4.33528645800133,16.88482595637486 3.266524766515643,17.12372249832787 2.184871594109734,17.295039530664635 1.0945957316947543,17.398100943325844 -2.803359809048797e-15,17.4325 -1.0945957316947559,17.398100943325844 -2.184871594109736,17.295039530664635 -3.2665247665156483,17.123722498327865 -4.335286458001333,16.88482595637486 -5.386938754441274,16.579292720315266 -6.417331264675649,16.208328590246943 -7.42239750020813,15.773397592113886 -8.398170923778155,15.27621619986465 -9.340800603471363,14.718746561313877 -10.246566410588537,14.103188754441272 -11.111893701294035,13.431972104688947 -11.933367424101867,12.707745597523756 -12.70774559752376,11.933367424101863 -13.431972104688949,11.111893701294031 -14.10318875444127,10.24656641058854 -14.718746561313878,9.34080060347136 -15.276216199864653,8.398170923778151 -15.773397592113888,7.422397500208127 -16.208328590246943,6.417331264675645 -16.579292720315266,5.386938754441266 -16.88482595637486,4.335286458001332 -17.12372249832787,3.266524766515644 -17.295039530664635,2.1848715941097314 -17.398100943325844,1.0945957316947514 -17.4325,-5.606719618097594e-15 -17.398100943325844,-1.094595731694755 -17.295039530664635,-2.1848715941097345 -17.123722498327865,-3.2665247665156474 -16.88482595637486,-4.3352864580013355 -16.579292720315266,-5.386938754441276 -16.20832859024694,-6.417331264675655 -15.773397592113886,-7.422397500208129 -15.27621619986465,-8.398170923778153 -14.718746561313877,-9.340800603471362 -14.103188754441268,-10.246566410588542 -13.431972104688944,-11.111893701294038 -12.707745597523758,-11.933367424101867 -11.933367424101865,-12.707745597523758 -11.111893701294031,-13.431972104688949 -10.24656641058854,-14.10318875444127 -9.340800603471354,-14.718746561313882 -8.398170923778151,-15.276216199864653 -7.422397500208121,-15.773397592113891 -6.417331264675647,-16.208328590246943 -5.386938754441274,-16.579292720315266 -4.335286458001325,-16.884825956374865 -3.2665247665156447,-17.12372249832787 -2.1848715941097248,-17.295039530664635 -1.0945957316947525,-17.398100943325844 -3.202298298920435e-15,-17.4325 1.0945957316947614,-17.398100943325844 2.1848715941097336,-17.295039530664635 3.2665247665156536,-17.123722498327865 4.335286458001334,-16.88482595637486 5.3869387544412675,-16.579292720315266 6.417331264675654,-16.20832859024694 7.422397500208128,-15.773397592113888 8.39817092377816,-15.276216199864649 9.340800603471362,-14.718746561313877 10.246566410588548,-14.103188754441264 11.111893701294038,-13.431972104688944 11.933367424101865,-12.707745597523758 12.707745597523763,-11.93336742410186 13.431972104688949,-11.111893701294033 14.103188754441279,-10.246566410588528 14.718746561313882,-9.340800603471354 15.276216199864653,-8.398170923778153 15.77339759211389,-7.422397500208122 16.208328590246943,-6.4173312646756475 16.57929272031527,-5.38693875444126 16.884825956374865,-4.335286458001326 17.12372249832787,-3.2665247665156456 17.295039530664635,-2.184871594109726 17.398100943325844,-1.0945957316947534 17.4325,1.1213439236195188e-14" stroke="black" stroke-width="0.1524" /><polyline fill="white" points="17.065500000000004,0.0 17.031825133992673,1.0715516110274976 16.930933435282224,2.138874297391635 16.763223077310442,3.197755824062684 16.529355936240655,4.24401726941183 16.230254978834946,5.273529517505666 15.867100619925957,6.282229553840374 15.441326063858858,7.26613650020375 14.954611648288557,8.221367325382825 14.408878212654642,9.144152169714069 13.806279517505669,10.030849222997203 13.149193744590232,10.877959097056268 12.4402141112601,11.682138636226039 11.682138636226037,12.4402141112601 10.877959097056266,13.149193744590235 10.030849222997201,13.806279517505669 9.144152169714067,14.408878212654642 8.221367325382822,14.954611648288559 7.266136500203749,15.44132606385886 6.282229553840372,15.867100619925958 5.273529517505667,16.230254978834946 4.244017269411829,16.529355936240655 3.1977558240626824,16.763223077310442 2.138874297391635,16.930933435282224 1.0715516110274965,17.031825133992673 -2.7443417078056647e-15,17.065500000000004 -1.071551611027498,17.031825133992673 -2.1388742973916366,16.930933435282224 -3.1977558240626878,16.76322307731044 -4.244017269411831,16.529355936240655 -5.2735295175056685,16.230254978834946 -6.282229553840374,15.867100619925957 -7.26613650020375,15.441326063858858 -8.221367325382827,14.954611648288555 -9.144152169714074,14.40887821265464 -10.030849222997201,13.806279517505669 -10.877959097056268,13.149193744590235 -11.682138636226039,12.440214111260099 -12.440214111260103,11.682138636226036 -13.149193744590237,10.877959097056264 -13.806279517505667,10.030849222997205 -14.408878212654642,9.144152169714069 -14.954611648288557,8.221367325382822 -15.44132606385886,7.266136500203746 -15.867100619925958,6.282229553840369 -16.23025497883495,5.273529517505661 -16.529355936240655,4.244017269411831 -16.763223077310442,3.1977558240626833 -16.930933435282224,2.138874297391632 -17.031825133992673,1.0715516110274936 -17.065500000000004,-5.488683415611329e-15 -17.031825133992673,-1.0715516110274972 -16.930933435282224,-2.1388742973916353 -16.76322307731044,-3.197755824062687 -16.529355936240655,-4.2440172694118345 -16.230254978834946,-5.273529517505672 -15.867100619925955,-6.282229553840379 -15.441326063858858,-7.266136500203749 -14.954611648288555,-8.221367325382825 -14.40887821265464,-9.144152169714072 -13.806279517505665,-10.030849222997206 -13.14919374459023,-10.877959097056271 -12.4402141112601,-11.682138636226039 -11.682138636226037,-12.4402141112601 -10.877959097056264,-13.149193744590237 -10.030849222997205,-13.806279517505667 -9.144152169714063,-14.408878212654646 -8.221367325382824,-14.954611648288557 -7.26613650020374,-15.441326063858865 -6.28222955384037,-15.867100619925958 -5.2735295175056685,-16.230254978834946 -4.244017269411824,-16.52935593624066 -3.197755824062684,-16.763223077310442 -2.138874297391626,-16.930933435282224 -1.0715516110274947,-17.031825133992673 -3.1348814926273737e-15,-17.065500000000004 1.0715516110275036,-17.031825133992673 2.1388742973916344,-16.930933435282224 3.1977558240626927,-16.76322307731044 4.244017269411833,-16.529355936240655 5.273529517505663,-16.23025497883495 6.282229553840378,-15.867100619925955 7.266136500203748,-15.44132606385886 8.22136732538283,-14.954611648288553 9.144152169714072,-14.40887821265464 10.030849222997212,-13.806279517505661 10.877959097056271,-13.14919374459023 11.682138636226037,-12.4402141112601 12.440214111260108,-11.682138636226032 13.149193744590237,-10.877959097056266 13.806279517505674,-10.030849222997192 14.408878212654646,-9.144152169714063 14.954611648288557,-8.221367325382825 15.441326063858861,-7.266136500203741 15.867100619925958,-6.282229553840372 16.23025497883495,-5.273529517505655 16.52935593624066,-4.244017269411825 16.763223077310442,-3.197755824062685 16.930933435282224,-2.138874297391627 17.031825133992673,-1.0715516110274956 17.065500000000004,1.0977366831222659e-14" stroke="black" stroke-width="0.1524" /><polyline fill="white" points="-12.111,1.4831697384473595e-15 -12.105023952589375,-0.3804157031952082 -12.087101707994798,-0.7604559820195139 -12.057250953307902,-1.1397457826005244 -12.015501147619641,-1.5179107916972894 -11.961893492947715,-1.8945778061022345 -11.89648089357515,-2.2693751009477072 -11.81932790384017,-2.6419327965535264 -11.730510664428852,-3.011883223453554 -11.630116827233458,-3.378861285241106 -11.518245468850607,-3.7425048188749868 -11.395006992804626,-4.102454952090721 -11.260523020592615,-4.458356457564134 -11.114926271658698,-4.809858103477826 -10.958360432415962,-5.156613000144596 -10.790980014445324,-5.49827894234565 -10.612950202011234,-5.834518747045871 -10.424446689044762,-6.165000586152746 -10.225655505754906,-6.489398313990626 -10.01677283503922,-6.807391789167154 -9.79800481887499,-7.118667190514141 -9.569567354881988,-7.422917326791196 -9.331685883257585,-7.719841939846381 -9.084595164294498,-8.009148000934747 -8.828539046700715,-8.29054999990235 -8.563770226950279,-8.563770226950277 -8.290549999902352,-8.828539046700714 -8.009148000934749,-9.084595164294495 -7.719841939846379,-9.331685883257585 -7.4229173267911985,-9.569567354881988 -7.118667190514144,-9.798004818874988 -6.807391789167158,-10.016772835039216 -6.489398313990634,-10.225655505754903 -6.165000586152745,-10.424446689044764 -5.834518747045874,-10.612950202011232 -5.498278942345653,-10.790980014445323 -5.156613000144598,-10.958360432415962 -4.809858103477825,-11.114926271658698 -4.4583564575641335,-11.260523020592615 -4.102454952090724,-11.395006992804625 -3.7425048188749903,-11.518245468850605 -3.37886128524111,-11.630116827233456 -3.011883223453563,-11.73051066442885 -2.6419327965535246,-11.81932790384017 -2.269375100947711,-11.89648089357515 -1.8945778061022382,-11.961893492947713 -1.517910791697293,-12.015501147619641 -1.1397457826005226,-12.057250953307902 -0.7604559820195123,-12.087101707994798 -0.38041570319521184,-12.105023952589375 -2.2247546076710393e-15,-12.111 0.3804157031952074,-12.105023952589375 0.7604559820195077,-12.087101707994798 1.139745782600529,-12.057250953307902 1.5179107916972887,-12.015501147619641 1.8945778061022338,-11.961893492947715 2.269375100947717,-11.896480893575148 2.6419327965535313,-11.81932790384017 3.0118832234535584,-11.730510664428852 3.378861285241105,-11.630116827233458 3.7425048188749863,-11.518245468850607 4.10245495209072,-11.395006992804626 4.458356457564128,-11.260523020592615 4.80985810347783,-11.114926271658694 5.156613000144595,-10.958360432415963 5.4982789423456495,-10.790980014445324 5.8345187470458795,-10.61295020201123 6.16500058615275,-10.424446689044759 6.48939831399063,-10.225655505754904 6.807391789167154,-10.01677283503922 7.11866719051414,-9.79800481887499 7.422917326791195,-9.56956735488199 7.7198419398463765,-9.331685883257588 8.009148000934749,-9.084595164294495 8.290549999902348,-8.828539046700715 8.563770226950275,-8.563770226950279 8.828539046700719,-8.290549999902344 9.084595164294498,-8.009148000934745 9.331685883257585,-7.719841939846381 9.569567354881986,-7.4229173267911985 9.798004818874988,-7.118667190514145 10.016772835039216,-6.807391789167158 10.2256555057549,-6.489398313990634 10.424446689044764,-6.165000586152746 10.612950202011232,-5.834518747045875 10.790980014445326,-5.498278942345644 10.958360432415965,-5.15661300014459 11.114926271658698,-4.809858103477825 11.260523020592615,-4.4583564575641335 11.395006992804625,-4.102454952090724 11.518245468850605,-3.7425048188749908 11.630116827233456,-3.378861285241111 11.73051066442885,-3.0118832234535633 11.81932790384017,-2.6419327965535255 11.89648089357515,-2.2693751009477117 11.961893492947716,-1.8945778061022285 12.015501147619641,-1.5179107916972832 12.057250953307902,-1.1397457826005235 12.087101707994798,-0.7604559820195129 12.105023952589375,-0.3804157031952126 12.111,-2.966339476894719e-15" stroke="black" stroke-width="0.5" /><polyline fill="white" points="12.111,0.0 12.105023952589375,0.3804157031952118 12.087101707994798,0.7604559820195144 12.057250953307902,1.139745782600527 12.015501147619641,1.517910791697289 11.961893492947715,1.8945778061022363 11.89648089357515,2.269375100947711 11.81932790384017,2.6419327965535273 11.730510664428852,3.0118832234535566 11.630116827233458,3.378861285241106 11.518245468850605,3.742504818874988 11.395006992804625,4.102454952090724 11.260523020592613,4.458356457564135 11.114926271658696,4.809858103477828 10.958360432415962,5.156613000144596 10.790980014445324,5.498278942345651 10.612950202011232,5.834518747045875 10.424446689044762,6.165000586152748 10.225655505754904,6.489398313990629 10.01677283503922,6.807391789167154 9.79800481887499,7.1186671905141425 9.569567354881986,7.4229173267911985 9.331685883257583,7.719841939846382 9.084595164294496,8.009148000934747 8.828539046700715,8.29054999990235 8.563770226950277,8.563770226950279 8.290549999902348,8.828539046700715 8.009148000934747,9.084595164294496 7.719841939846381,9.331685883257585 7.4229173267911985,9.569567354881988 7.118667190514141,9.79800481887499 6.807391789167154,10.01677283503922 6.489398313990628,10.225655505754904 6.165000586152746,10.424446689044762 5.834518747045872,10.612950202011234 5.498278942345651,10.790980014445323 5.156613000144596,10.958360432415963 4.809858103477827,11.114926271658696 4.4583564575641335,11.260523020592615 4.1024549520907225,11.395006992804626 3.742504818874989,11.518245468850605 3.378861285241106,11.630116827233458 3.0118832234535557,11.730510664428852 2.641932796553526,11.81932790384017 2.26937510094771,11.89648089357515 1.894577806102234,11.961893492947715 1.517910791697289,12.015501147619641 1.1397457826005266,12.057250953307902 0.7604559820195135,12.087101707994798 0.38041570319521034,12.105023952589375 -1.9475973410233747e-15,12.111 -0.3804157031952116,12.105023952589375 -0.7604559820195147,12.087101707994798 -1.1397457826005277,12.057250953307902 -1.5179107916972903,12.015501147619641 -1.8945778061022382,11.961893492947713 -2.2693751009477134,11.896480893575148 -2.6419327965535273,11.81932790384017 -3.011883223453557,11.730510664428852 -3.3788612852411064,11.630116827233458 -3.7425048188749903,11.518245468850605 -4.102454952090726,11.395006992804625 -4.458356457564135,11.260523020592613 -4.809858103477829,11.114926271658696 -5.156613000144596,10.958360432415962 -5.49827894234565,10.790980014445324 -5.834518747045876,10.61295020201123 -6.165000586152748,10.424446689044762 -6.489398313990631,10.225655505754904 -6.807391789167156,10.016772835039218 -7.118667190514141,9.79800481887499 -7.4229173267912,9.569567354881986 -7.719841939846382,9.331685883257585 -8.00914800093475,9.084595164294495 -8.29054999990235,8.828539046700714 -8.563770226950277,8.563770226950279 -8.828539046700717,8.290549999902346 -9.084595164294496,8.009148000934747 -9.331685883257585,7.719841939846379 -9.569567354881988,7.422917326791198 -9.798004818874988,7.118667190514144 -10.01677283503922,6.807391789167153 -10.225655505754904,6.489398313990629 -10.424446689044764,6.165000586152745 -10.612950202011232,5.834518747045873 -10.790980014445326,5.498278942345648 -10.958360432415963,5.156613000144593 -11.114926271658696,4.809858103477828 -11.260523020592615,4.458356457564133 -11.395006992804625,4.102454952090723 -11.518245468850607,3.7425048188749845 -11.630116827233458,3.3788612852411037 -11.730510664428852,3.011883223453557 -11.81932790384017,2.641932796553524 -11.89648089357515,2.2693751009477103 -11.961893492947715,1.894577806102232 -12.015501147619641,1.517910791697287 -12.057250953307902,1.1397457826005273 -12.087101707994798,0.7604559820195115 -12.105023952589375,0.3804157031952111 -12.111,-3.895194682046749e-15" stroke="black" stroke-width="0.5" /><line stroke="black" stroke-width="0.5" x1="7.415848692236797e-16" x2="9.663075568672191e-16" y1="12.111" y2="15.781" /><line stroke="black" stroke-width="0.5" x1="12.111" x2="15.781" y1="0.0" y2="0.0" /><line stroke="black" stroke-width="0.5" x1="7.415848692236797e-16" x2="9.663075568672191e-16" y1="-12.111" y2="-15.781" /><line stroke="black" stroke-width="0.5" x1="-12.111" x2="-15.781" y1="-1.4831697384473595e-15" y2="-1.9326151137344383e-15" /><line stroke="black" stroke-width="0.5" x1="7.415848692236797e-16" x2="8.913999943193726e-16" y1="12.111" y2="14.557666666666668" /><line stroke="black" stroke-width="0.5" x1="6.0554999999999986" x2="7.278833333333332" y1="10.488433665233337" y2="12.607309153159266" /><line stroke="black" stroke-width="0.5" x1="10.488433665233336" x2="12.607309153159264" y1="6.055500000000002" y2="7.278833333333336" /><line stroke="black" stroke-width="0.5" x1="12.111" x2="14.557666666666668" y1="2.6891822102470543e-15" y2="3.2324513436302977e-15" /><line stroke="black" stroke-width="0.5" x1="10.48843366523334" x2="12.607309153159267" y1="-6.055499999999998" y2="-7.27883333333333" /><line stroke="black" stroke-width="0.5" x1="6.055500000000005" x2="7.278833333333338" y1="-10.488433665233336" y2="-12.607309153159262" /><line stroke="black" stroke-width="0.5" x1="6.119949289717789e-15" x2="7.356302681579968e-15" y1="-12.111" y2="-14.557666666666668" /><line stroke="black" stroke-width="0.5" x1="-6.055499999999993" x2="-7.278833333333325" y1="-10.488433665233341" y2="-12.607309153159267" /><line stroke="black" stroke-width="0.5" x1="-10.488433665233332" x2="-12.607309153159258" y1="-6.05550000000001" y2="-7.2788333333333455" /><line stroke="black" stroke-width="0.5" x1="-12.111" x2="-14.557666666666668" y1="-1.2239898579435577e-14" y2="-1.4712605363159936e-14" /><line stroke="black" stroke-width="0.5" x1="-10.488433665233345" x2="-12.607309153159273" y1="6.055499999999988" y2="7.27883333333332" /><line stroke="black" stroke-width="0.5" x1="-6.055500000000015" x2="-7.278833333333352" y1="10.488433665233329" y2="12.607309153159253" /><line stroke="black" stroke-width="0.5" x1="-1.2981483448659257e-14" x2="-1.5604005357479308e-14" y1="12.111" y2="14.557666666666668" /><line stroke="black" stroke-width="0.1524" x1="7.415848692236797e-16" x2="7.415848692236797e-16" y1="12.111" y2="12.111" /><polyline fill="white" points="-15.242857142857144,6.420648218386837e-16 -15.24027010934605,-0.1646821225953282 -15.232511561902509,-0.3292017238179714 -15.219589157276147,-0.4933964426842097 -15.201515648320191,-0.6571042388299954 -15.178308871405935,-0.8201635524252097 -15.14999172882041,-0.9824134636137261 -15.116592166164576,-1.1436938513218728 -15.078143144774394,-1.3038455512785947 -15.034682609191972,-1.4627105130913878 -14.986253449718877,-1.620131956222938 -14.932903460088582,-1.7759545247145976 -14.874685290299833,-1.9300244405039542 -14.811656394657444,-2.0821896551852057 -14.743878975071844,-2.232300000062595 -14.671419919673301,-2.3802073343487664 -14.594350736801399,-2.5257656913618485 -14.51274748443496,-2.6688314225769463 -14.426690695131994,-2.809263339389881 -14.336265296553774,-2.946922852453313 -14.241560527651512,-3.08167410844768 -14.142669850598264,-3.2133841241520327 -14.039690858553065,-3.3419229176824157 -13.932725179348267,-3.467163636768288 -13.821878375195116,-3.588982683940411 -13.707259838506614,-3.707259838506613 -13.588982683940412,-3.8218783751951135 -13.467163636768289,-3.932725179348266 -13.341922917682416,-4.039690858553067 -13.213384124152034,-4.142669850598263 -13.08167410844768,-4.24156052765151 -12.946922852453316,-4.336265296553773 -12.809263339389885,-4.426690695131992 -12.668831422576947,-4.512747484434962 -12.525765691361851,-4.594350736801399 -12.380207334348768,-4.6714199196732995 -12.232300000062597,-4.743878975071844 -12.082189655185205,-4.811656394657445 -11.930024440503953,-4.8746852902998326 -11.7759545247146,-4.932903460088582 -11.62013195622294,-4.986253449718876 -11.46271051309139,-5.0346826091919725 -11.303845551278599,-5.078143144774394 -11.143693851321872,-5.116592166164576 -10.982413463613728,-5.149991728820411 -10.82016355242521,-5.178308871405936 -10.657104238829996,-5.201515648320191 -10.493396442684208,-5.219589157276148 -10.32920172381797,-5.232511561902509 -10.16468212259533,-5.24027010934605 -10.000000000000002,-5.242857142857143 -9.835317877404671,-5.24027010934605 -9.670798276182031,-5.232511561902509 -9.506603557315788,-5.219589157276148 -9.342895761170006,-5.201515648320191 -9.179836447574791,-5.178308871405936 -9.01758653638627,-5.14999172882041 -8.856306148678126,-5.116592166164575 -8.696154448721403,-5.078143144774394 -8.537289486908612,-5.0346826091919725 -8.379868043777062,-4.986253449718877 -8.224045475285402,-4.932903460088583 -8.069975559496049,-4.874685290299833 -7.917810344814793,-4.811656394657444 -7.767699999937405,-4.743878975071845 -7.619792665651234,-4.6714199196733 -7.474234308638147,-4.594350736801398 -7.3311685774230515,-4.512747484434961 -7.190736660610117,-4.426690695131993 -7.053077147546687,-4.3362652965537745 -6.918325891552321,-4.241560527651511 -6.786615875847968,-4.1426698505982635 -6.658077082317586,-4.039690858553068 -6.532836363231711,-3.932725179348266 -6.41101731605959,-3.821878375195115 -6.292740161493388,-3.7072598385066144 -6.178121624804883,-3.5889826839404084 -6.067274820651733,-3.4671636367682876 -5.960309141446933,-3.3419229176824157 -5.857330149401738,-3.213384124152034 -5.75843947234849,-3.081674108447682 -5.663734703446227,-2.946922852453315 -5.573309304868008,-2.8092633393898847 -5.487252515565038,-2.6688314225769463 -5.405649263198601,-2.5257656913618503 -5.328580080326699,-2.3802073343487637 -5.256121024928154,-2.232300000062593 -5.188343605342555,-2.0821896551852057 -5.1253147097001674,-1.930024440503954 -5.067096539911418,-1.7759545247145994 -5.013746550281124,-1.6201319562229397 -4.9653173908080275,-1.4627105130913898 -4.921856855225606,-1.3038455512785987 -4.883407833835424,-1.1436938513218724 -4.850008271179589,-0.9824134636137279 -4.821691128594063,-0.8201635524252071 -4.798484351679809,-0.6571042388299927 -4.780410842723852,-0.4933964426842093 -4.767488438097491,-0.32920172381797097 -4.75972989065395,-0.16468212259533013 -4.757142857142857,-1.2841296436773675e-15" stroke="black" stroke-width="0.1524" /><polyline fill="white" points="-4.757142857142857,0.0 -4.75972989065395,0.16468212259532977 -4.767488438097491,0.3292017238179715 -4.780410842723852,0.49339644268421085 -4.798484351679809,0.6571042388299951 -4.821691128594064,0.8201635524252104 -4.850008271179589,0.9824134636137277 -4.883407833835424,1.143693851321873 -4.921856855225606,1.3038455512785958 -4.9653173908080275,1.4627105130913878 -5.013746550281124,1.6201319562229386 -5.067096539911418,1.7759545247145994 -5.125314709700168,1.9300244405039546 -5.188343605342556,2.082189655185207 -5.256121024928155,2.2323000000625957 -5.3285800803267,2.380207334348767 -5.405649263198601,2.5257656913618503 -5.4872525155650385,2.6688314225769467 -5.5733093048680065,2.8092633393898825 -5.6637347034462255,2.946922852453313 -5.75843947234849,3.0816741084476806 -5.857330149401738,3.213384124152034 -5.960309141446934,3.341922917682416 -6.067274820651733,3.467163636768289 -6.178121624804885,3.588982683940411 -6.292740161493387,3.7072598385066136 -6.41101731605959,3.821878375195115 -6.532836363231711,3.932725179348267 -6.658077082317584,4.039690858553066 -6.786615875847966,4.142669850598263 -6.918325891552319,4.24156052765151 -7.053077147546687,4.3362652965537745 -7.190736660610118,4.4266906951319935 -7.331168577423053,4.5127474844349615 -7.474234308638151,4.5943507368014 -7.619792665651233,4.6714199196732995 -7.767699999937404,4.743878975071845 -7.917810344814793,4.811656394657444 -8.069975559496045,4.8746852902998326 -8.2240454752854,4.932903460088583 -8.379868043777062,4.986253449718876 -8.537289486908612,5.0346826091919725 -8.696154448721405,5.078143144774394 -8.856306148678128,5.116592166164576 -9.017586536386272,5.149991728820411 -9.17983644757479,5.178308871405936 -9.342895761170006,5.201515648320191 -9.50660355731579,5.219589157276148 -9.67079827618203,5.232511561902509 -9.835317877404671,5.24027010934605 -10.0,5.242857142857143 -10.16468212259533,5.24027010934605 -10.329201723817972,5.232511561902509 -10.493396442684212,5.219589157276148 -10.657104238829996,5.201515648320191 -10.82016355242521,5.178308871405936 -10.982413463613728,5.14999172882041 -11.143693851321872,5.116592166164576 -11.303845551278597,5.078143144774394 -11.462710513091388,5.0346826091919725 -11.62013195622294,4.986253449718876 -11.7759545247146,4.932903460088582 -11.930024440503955,4.874685290299832 -12.082189655185207,4.811656394657444 -12.232300000062596,4.743878975071845 -12.380207334348766,4.6714199196733 -12.525765691361851,4.594350736801399 -12.668831422576947,4.5127474844349615 -12.809263339389883,4.426690695131993 -12.946922852453314,4.336265296553774 -13.08167410844768,4.24156052765151 -13.213384124152034,4.142669850598262 -13.341922917682416,4.039690858553066 -13.46716363676829,3.9327251793482656 -13.588982683940412,3.8218783751951144 -13.707259838506612,3.7072598385066136 -13.821878375195116,3.5889826839404098 -13.932725179348267,3.467163636768289 -14.039690858553067,3.3419229176824152 -14.142669850598264,3.213384124152033 -14.24156052765151,3.081674108447681 -14.336265296553774,2.9469228524533126 -14.426690695131994,2.8092633393898825 -14.512747484434962,2.668831422576946 -14.594350736801399,2.52576569136185 -14.671419919673301,2.380207334348765 -14.743878975071844,2.2323000000625943 -14.811656394657444,2.082189655185207 -14.874685290299833,1.9300244405039533 -14.932903460088582,1.7759545247145987 -14.986253449718877,1.620131956222937 -15.034682609191972,1.4627105130913869 -15.078143144774394,1.303845551278596 -15.116592166164576,1.143693851321872 -15.14999172882041,0.9824134636137274 -15.178308871405935,0.8201635524252087 -15.201515648320191,0.6571042388299944 -15.219589157276147,0.49339644268421096 -15.232511561902509,0.3292017238179703 -15.24027010934605,0.16468212259532947 -15.242857142857144,-1.6862314640895018e-15" stroke="black" stroke-width="0.1524" /><line stroke="black" stroke-width="0.1524" x1="-10.0" x2="-10.0" y1="5.242857142857143" y2="4.718571428571429" /><line stroke="black" stroke-width="0.1524" x1="-9.451972199725303" x2="-9.506774979752773" y1="5.214136222859375" y2="4.692722600573439" /><line stroke="black" stroke-width="0.1524" x1="-8.909948706712605" x2="-9.018953836041344" y1="5.12828813527581" y2="4.615459321748229" /><line stroke="black" stroke-width="0.1524" x1="-8.379868043777062" x2="-8.541881239399356" y1="4.986253449718877" y2="4.48762810474699" /><line stroke="black" stroke-width="0.1524" x1="-7.867537885588305" x2="-8.080784097029476" y1="4.789588327926208" y2="4.310629495133587" /><line stroke="black" stroke-width="0.1524" x1="-7.37857142857143" x2="-7.640714285714287" y1="4.540447474126986" y2="4.086402726714288" /><line stroke="black" stroke-width="0.1524" x1="-6.918325891552321" x2="-7.226493302397088" y1="4.241560527651511" y2="3.81740447488636" /><line stroke="black" stroke-width="0.1524" x1="-6.49184382094713" x2="-6.842659438852417" y1="3.8962021564314826" y2="3.5065819407883345" /><line stroke="black" stroke-width="0.1524" x1="-6.103797843568519" x2="-6.493418059211667" y1="3.5081561790528717" y2="3.157340561147585" /><line stroke="black" stroke-width="0.1524" x1="-5.75843947234849" x2="-6.182595525113641" y1="3.081674108447681" y2="2.773506697602913" /><line stroke="black" stroke-width="0.1524" x1="-5.459552525873015" x2="-5.913597273285713" y1="2.621428571428572" y2="2.359285714285715" /><line stroke="black" stroke-width="0.1524" x1="-5.210411672073793" x2="-5.689370504866413" y1="2.1324621144116964" y2="1.9192159029705267" /><line stroke="black" stroke-width="0.1524" x1="-5.013746550281124" x2="-5.512371895253011" y1="1.6201319562229397" y2="1.4581187606006458" /><line stroke="black" stroke-width="0.1524" x1="-4.87171186472419" x2="-5.3845406782517715" y1="1.0900512932873965" y2="0.981046163958657" /><line stroke="black" stroke-width="0.1524" x1="-4.785863777140625" x2="-5.307277399426561" y1="0.5480278002746988" y2="0.49322502024722886" /><line stroke="black" stroke-width="0.1524" x1="-4.757142857142857" x2="-5.281428571428571" y1="1.3096666608346042e-15" y2="1.178699994751144e-15" /><line stroke="black" stroke-width="0.1524" x1="-4.785863777140624" x2="-5.307277399426561" y1="-0.5480278002746962" y2="-0.4932250202472266" /><line stroke="black" stroke-width="0.1524" x1="-4.87171186472419" x2="-5.384540678251771" y1="-1.090051293287394" y2="-0.9810461639586546" /><line stroke="black" stroke-width="0.1524" x1="-5.013746550281123" x2="-5.51237189525301" y1="-1.6201319562229373" y2="-1.4581187606006436" /><line stroke="black" stroke-width="0.1524" x1="-5.210411672073792" x2="-5.689370504866413" y1="-2.1324621144116938" y2="-1.9192159029705247" /><line stroke="black" stroke-width="0.1524" x1="-5.459552525873014" x2="-5.913597273285712" y1="-2.62142857142857" y2="-2.3592857142857135" /><line stroke="black" stroke-width="0.1524" x1="-5.758439472348489" x2="-6.182595525113641" y1="-3.0816741084476793" y2="-2.7735066976029117" /><line stroke="black" stroke-width="0.1524" x1="-6.103797843568518" x2="-6.493418059211666" y1="-3.50815617905287" y2="-3.157340561147583" /><line stroke="black" stroke-width="0.1524" x1="-6.491843820947128" x2="-6.842659438852415" y1="-3.896202156431481" y2="-3.5065819407883327" /><line stroke="black" stroke-width="0.1524" x1="-6.918325891552319" x2="-7.2264933023970865" y1="-4.24156052765151" y2="-3.817404474886359" /><line stroke="black" stroke-width="0.1524" x1="-7.378571428571428" x2="-7.640714285714285" y1="-4.540447474126985" y2="-4.086402726714287" /><line stroke="black" stroke-width="0.1524" x1="-7.867537885588304" x2="-8.080784097029474" y1="-4.789588327926207" y2="-4.310629495133587" /><line stroke="black" stroke-width="0.1524" x1="-8.37986804377706" x2="-8.541881239399354" y1="-4.986253449718876" y2="-4.487628104746989" /><line stroke="black" stroke-width="0.1524" x1="-8.909948706712603" x2="-9.018953836041343" y1="-5.12828813527581" y2="-4.6154593217482285" /><line stroke="black" stroke-width="0.1524" x1="-9.4519721997253" x2="-9.50677497975277" y1="-5.214136222859375" y2="-4.692722600573439" /><line stroke="black" stroke-width="0.1524" x1="-9.999999999999998" x2="-9.999999999999998" y1="-5.242857142857143" y2="-4.718571428571429" /><line stroke="black" stroke-width="0.1524" x1="-10.548027800274694" x2="-10.493225020247225" y1="-5.214136222859376" y2="-4.692722600573439" /><line stroke="black" stroke-width="0.1524" x1="-11.090051293287392" x2="-10.981046163958652" y1="-5.1282881352758105" y2="-4.615459321748229" /><line stroke="black" stroke-width="0.1524" x1="-11.620131956222934" x2="-11.458118760600641" y1="-4.986253449718878" y2="-4.48762810474699" /><line stroke="black" stroke-width="0.1524" x1="-12.132462114411691" x2="-11.919215902970523" y1="-4.789588327926209" y2="-4.310629495133589" /><line stroke="black" stroke-width="0.1524" x1="-12.621428571428568" x2="-12.359285714285711" y1="-4.540447474126987" y2="-4.086402726714288" /><line stroke="black" stroke-width="0.1524" x1="-13.081674108447679" x2="-12.773506697602912" y1="-4.241560527651512" y2="-3.817404474886361" /><line stroke="black" stroke-width="0.1524" x1="-13.50815617905287" x2="-13.157340561147583" y1="-3.8962021564314826" y2="-3.5065819407883345" /><line stroke="black" stroke-width="0.1524" x1="-13.89620215643148" x2="-13.506581940788333" y1="-3.5081561790528717" y2="-3.157340561147585" /><line stroke="black" stroke-width="0.1524" x1="-14.24156052765151" x2="-13.81740447488636" y1="-3.081674108447681" y2="-2.773506697602913" /><line stroke="black" stroke-width="0.1524" x1="-14.540447474126985" x2="-14.086402726714287" y1="-2.621428571428571" y2="-2.359285714285714" /><line stroke="black" stroke-width="0.1524" x1="-14.789588327926207" x2="-14.310629495133586" y1="-2.1324621144116946" y2="-1.9192159029705251" /><line stroke="black" stroke-width="0.1524" x1="-14.986253449718877" x2="-14.487628104746989" y1="-1.620131956222937" y2="-1.4581187606006434" /><line stroke="black" stroke-width="0.1524" x1="-15.12828813527581" x2="-14.61545932174823" y1="-1.090051293287393" y2="-0.9810461639586537" /><line stroke="black" stroke-width="0.1524" x1="-15.214136222859377" x2="-14.69272260057344" y1="-0.5480278002746942" y2="-0.4932250202472248" /><line stroke="black" stroke-width="0.1524" x1="-15.242857142857144" x2="-14.71857142857143" y1="4.014527750017687e-15" y2="3.6130749750159185e-15" /><line stroke="black" stroke-width="0.1524" x1="-15.214136222859375" x2="-14.69272260057344" y1="0.5480278002747022" y2="0.493225020247232" /><line stroke="black" stroke-width="0.1524" x1="-15.12828813527581" x2="-14.61545932174823" y1="1.0900512932874007" y2="0.9810461639586607" /><line stroke="black" stroke-width="0.1524" x1="-14.986253449718875" x2="-14.487628104746987" y1="1.6201319562229446" y2="1.4581187606006503" /><line stroke="black" stroke-width="0.1524" x1="-14.789588327926204" x2="-14.310629495133584" y1="2.1324621144117017" y2="1.9192159029705318" /><line stroke="black" stroke-width="0.1524" x1="-14.540447474126982" x2="-14.086402726714283" y1="2.6214285714285785" y2="2.3592857142857206" /><line stroke="black" stroke-width="0.1524" x1="-14.241560527651504" x2="-13.817404474886356" y1="3.0816741084476877" y2="2.773506697602919" /><line stroke="black" stroke-width="0.1524" x1="-13.896202156431475" x2="-13.506581940788328" y1="3.508156179052878" y2="3.15734056114759" /><line stroke="black" stroke-width="0.1524" x1="-13.508156179052865" x2="-13.157340561147578" y1="3.8962021564314875" y2="3.506581940788339" /><line stroke="black" stroke-width="0.1524" x1="-13.081674108447674" x2="-12.773506697602906" y1="4.241560527651515" y2="3.817404474886364" /><line stroke="black" stroke-width="0.1524" x1="-12.621428571428565" x2="-12.35928571428571" y1="4.540447474126989" y2="4.08640272671429" /><line stroke="black" stroke-width="0.1524" x1="-12.132462114411691" x2="-11.919215902970521" y1="4.78958832792621" y2="4.310629495133589" /><line stroke="black" stroke-width="0.1524" x1="-11.620131956222934" x2="-11.458118760600641" y1="4.986253449718878" y2="4.48762810474699" /><line stroke="black" stroke-width="0.1524" x1="-11.090051293287393" x2="-10.981046163958654" y1="5.12828813527581" y2="4.615459321748229" /><line stroke="black" stroke-width="0.1524" x1="-10.548027800274697" x2="-10.493225020247227" y1="5.214136222859376" y2="4.692722600573439" /><line stroke="black" stroke-width="0.1524" x1="-10.0" x2="-10.0" y1="5.242857142857143" y2="4.718571428571429" /><polyline fill="white" points="-5.228999999999999,0.0 -5.238414478668716,0.29957356867435414 -5.2666207600286254,0.5979648573352957 -5.313507526773425,0.8939962518884923 -5.3788897382553005,1.1864994516635223 -5.4625093607558215,1.4743200801628742 -5.564036385827152,1.756322240858599 -5.6830701326846205,2.0313930000569624 -5.819140829510726,2.2984467791392844 -5.971711467429885,2.5564296388447936 -6.140179919837125,2.8043234386873896 -6.32388131871671,3.041149855090999 -6.522090678572445,3.2659742423857745 -6.734025757614226,3.477909321427555 -6.958850144909001,3.6761186812832913 -7.195676561312611,3.859820080162875 -7.443570361155206,4.028288532570115 -7.701553220860717,4.180859170489274 -7.968606999943038,4.31692986731538 -8.243677759141402,4.435963614172849 -8.525679919837126,4.5374906392441785 -8.813500548336478,4.6211102617446995 -9.106003748111508,4.686492473226575 -9.402035142664705,4.7333792399713746 -9.700426431325646,4.761585521331284 -10.0,4.771000000000001 -10.299573568674354,4.761585521331284 -10.597964857335295,4.7333792399713746 -10.893996251888494,4.686492473226574 -11.186499451663522,4.6211102617446995 -11.474320080162876,4.5374906392441785 -11.7563222408586,4.435963614172848 -12.031393000056962,4.3169298673153795 -12.298446779139285,4.180859170489273 -12.556429638844794,4.028288532570114 -12.804323438687389,3.859820080162875 -13.041149855091,3.6761186812832913 -13.265974242385774,3.4779093214275547 -13.477909321427555,3.2659742423857736 -13.676118681283292,3.0411498550909983 -13.859820080162875,2.8043234386873905 -14.028288532570116,2.5564296388447936 -14.180859170489274,2.2984467791392835 -14.31692986731538,2.031393000056961 -14.435963614172849,1.756322240858598 -14.53749063924418,1.4743200801628729 -14.6211102617447,1.1864994516635226 -14.686492473226576,0.8939962518884921 -14.733379239971374,0.5979648573352949 -14.761585521331284,0.29957356867435303 -14.771,-1.5344706323214468e-15 -14.761585521331284,-0.29957356867435403 -14.733379239971374,-0.5979648573352958 -14.686492473226574,-0.893996251888493 -14.6211102617447,-1.1864994516635234 -14.53749063924418,-1.474320080162876 -14.435963614172849,-1.7563222408586006 -14.31692986731538,-2.031393000056962 -14.180859170489274,-2.2984467791392844 -14.028288532570114,-2.556429638844794 -13.859820080162873,-2.804323438687391 -13.67611868128329,-3.0411498550910006 -13.477909321427555,-3.2659742423857745 -13.265974242385774,-3.477909321427555 -13.041149855090998,-3.676118681283292 -12.80432343868739,-3.8598200801628746 -12.556429638844792,-4.028288532570116 -12.298446779139283,-4.180859170489274 -12.03139300005696,-4.316929867315381 -11.756322240858598,-4.435963614172849 -11.474320080162876,-4.5374906392441785 -11.18649945166352,-4.6211102617447 -10.893996251888492,-4.686492473226575 -10.597964857335294,-4.7333792399713746 -10.299573568674353,-4.761585521331284 -10.0,-4.771000000000001 -9.700426431325644,-4.761585521331284 -9.402035142664705,-4.7333792399713746 -9.106003748111505,-4.686492473226574 -8.813500548336478,-4.6211102617446995 -8.525679919837126,-4.5374906392441785 -8.2436777591414,-4.435963614172848 -7.968606999943038,-4.31692986731538 -7.701553220860713,-4.180859170489272 -7.443570361155206,-4.028288532570114 -7.195676561312608,-3.859820080162873 -6.9588501449089994,-3.67611868128329 -6.734025757614226,-3.477909321427555 -6.522090678572443,-3.2659742423857723 -6.323881318716708,-3.0411498550909988 -6.140179919837124,-2.804323438687387 -5.971711467429884,-2.556429638844792 -5.819140829510726,-2.2984467791392844 -5.68307013268462,-2.0313930000569598 -5.564036385827151,-1.7563222408585983 -5.462509360755821,-1.4743200801628713 -5.3788897382553,-1.186499451663521 -5.313507526773425,-0.8939962518884926 -5.2666207600286254,-0.5979648573352935 -5.238414478668716,-0.29957356867435364 -5.228999999999999,3.0689412646428936e-15" stroke="black" stroke-width="0.1524" /></g><text fill="rgb(15%,15%,15%)" stroke="none" style="font-size:4px; font-family:GFS Artemisia; font-weight:bold" text-anchor="middle" x="8.988907505741574e-16" y="-13.180000000000001" /><text fill="rgb(15%,15%,15%)" stroke="none" style="font-size:4px; font-family:GFS Artemisia; font-weight:bold" text-anchor="middle" x="7.339999999999999" y="-11.213252927555562" /><text fill="rgb(15%,15%,15%)" stroke="none" style="font-size:4px; font-family:GFS Artemisia; font-weight:bold" text-anchor="middle" x="12.71325292755556" y="-5.8400000000000025" /><text fill="rgb(15%,15%,15%)" stroke="none" style="font-size:4px; font-family:GFS Artemisia; font-weight:bold" text-anchor="middle" x="14.680000000000001" y="1.4999999999999967" /><text fill="rgb(15%,15%,15%)" stroke="none" style="font-size:4px; font-family:GFS Artemisia; font-weight:bold" text-anchor="middle" x="12.713252927555564" y="8.839999999999996" /><text fill="rgb(15%,15%,15%)" stroke="none" style="font-size:4px; font-family:GFS Artemisia; font-weight:bold" text-anchor="middle" x="7.340000000000006" y="14.213252927555558" /><text fill="rgb(15%,15%,15%)" stroke="none" style="font-size:4px; font-family:GFS Artemisia; font-weight:bold" text-anchor="middle" x="7.418120351173078e-15" y="16.18" /><text fill="rgb(15%,15%,15%)" stroke="none" style="font-size:4px; font-family:GFS Artemisia; font-weight:bold" text-anchor="middle" x="-7.339999999999992" y="14.213252927555565" /><text fill="rgb(15%,15%,15%)" stroke="none" style="font-size:4px; font-family:GFS Artemisia; font-weight:bold" text-anchor="middle" x="-12.713252927555555" y="8.840000000000012" /><text fill="rgb(15%,15%,15%)" stroke="none" style="font-size:4px; font-family:GFS Artemisia; font-weight:bold" text-anchor="middle" x="-14.680000000000001" y="1.5000000000000149" /><text fill="rgb(15%,15%,15%)" stroke="none" style="font-size:4px; font-family:GFS Artemisia; font-weight:bold" text-anchor="middle" x="-12.713252927555569" y="-5.839999999999986" /><text fill="rgb(15%,15%,15%)" stroke="none" style="font-size:4px; font-family:GFS Artemisia; font-weight:bold" text-anchor="middle" x="-7.3400000000000185" y="-11.21325292755555" /><text fill="rgb(15%,15%,15%)" stroke="none" style="font-size:4px; font-family:GFS Artemisia; font-weight:bold" text-anchor="middle" x="5.932678953789438e-16" y="-8.1888" /><text fill="rgb(15%,15%,15%)" stroke="none" style="font-size:4px; font-family:GFS Artemisia; font-weight:bold" text-anchor="middle" x="9.6888" y="1.5" /><text fill="rgb(15%,15%,15%)" stroke="none" style="font-size:4px; font-family:GFS Artemisia; font-weight:bold" text-anchor="middle" x="5.932678953789438e-16" y="11.1888" /><text fill="rgb(15%,15%,15%)" stroke="none" style="font-size:4px; font-family:GFS Artemisia; font-weight:bold" text-anchor="middle" x="-9.6888" y="1.500000000000001" /><text fill="rgb(15%,15%,15%)" stroke="none" style="font-size:1.0px; font-family:GFS Artemisia; font-weight:bold" text-anchor="middle" x="-10.0" y="-3.107857142857143" /><text fill="rgb(15%,15%,15%)" stroke="none" style="font-size:1.0px; font-family:GFS Artemisia; font-weight:bold" text-anchor="middle" x="-9.643781929821447" y="-3.0891885448585943" /><text fill="rgb(15%,15%,15%)" stroke="none" style="font-size:1.0px; font-family:GFS Artemisia; font-weight:bold" text-anchor="middle" x="-9.291466659363193" y="-3.0333872879292767" /><text fill="rgb(15%,15%,15%)" stroke="none" style="font-size:1.0px; font-family:GFS Artemisia; font-weight:bold" text-anchor="middle" x="-8.94691422845509" y="-2.94106474231727" /><text fill="rgb(15%,15%,15%)" stroke="none" style="font-size:1.0px; font-family:GFS Artemisia; font-weight:bold" text-anchor="middle" x="-8.6138996256324" y="-2.8132324131520354" /><text fill="rgb(15%,15%,15%)" stroke="none" style="font-size:1.0px; font-family:GFS Artemisia; font-weight:bold" text-anchor="middle" x="-8.29607142857143" y="-2.6512908581825414" /><text fill="rgb(15%,15%,15%)" stroke="none" style="font-size:1.0px; font-family:GFS Artemisia; font-weight:bold" text-anchor="middle" x="-7.996911829509008" y="-2.457014342973482" /><text fill="rgb(15%,15%,15%)" stroke="none" style="font-size:1.0px; font-family:GFS Artemisia; font-weight:bold" text-anchor="middle" x="-7.719698483615634" y="-2.232531401680464" /><text fill="rgb(15%,15%,15%)" stroke="none" style="font-size:1.0px; font-family:GFS Artemisia; font-weight:bold" text-anchor="middle" x="-7.467468598319538" y="-1.9803015163843665" /><text fill="rgb(15%,15%,15%)" stroke="none" style="font-size:1.0px; font-family:GFS Artemisia; font-weight:bold" text-anchor="middle" x="-7.2429856570265185" y="-1.7030881704909928" /><text fill="rgb(15%,15%,15%)" stroke="none" style="font-size:1.0px; font-family:GFS Artemisia; font-weight:bold" text-anchor="middle" x="-7.04870914181746" y="-1.4039285714285719" /></svg>