G75*
%MOIN*%
%OFA0B0*%
%FSLAX25Y25*%
%IPPOS*%
%LPD*%
%AMOC8*
5,1,8,0,0,1.08239X$1,22.5*
%
%ADD10C,0.00000*%
%ADD11R,0.05906X0.05906*%
%ADD12R,0.03500X0.03200*%
%ADD13C,0.03500*%
%ADD14R,0.03200X0.03500*%
%ADD15R,0.05906X0.02362*%
%ADD16C,0.00600*%
%ADD17C,0.02578*%
%ADD18C,0.16000*%
D10*
X0038119Y0033019D02*
X0038121Y0033118D01*
X0038127Y0033218D01*
X0038137Y0033317D01*
X0038151Y0033415D01*
X0038168Y0033513D01*
X0038190Y0033610D01*
X0038215Y0033706D01*
X0038244Y0033801D01*
X0038277Y0033895D01*
X0038314Y0033987D01*
X0038354Y0034078D01*
X0038398Y0034167D01*
X0038446Y0034255D01*
X0038497Y0034340D01*
X0038551Y0034423D01*
X0038608Y0034505D01*
X0038669Y0034583D01*
X0038733Y0034660D01*
X0038799Y0034733D01*
X0038869Y0034804D01*
X0038941Y0034872D01*
X0039016Y0034938D01*
X0039094Y0035000D01*
X0039174Y0035059D01*
X0039256Y0035115D01*
X0039340Y0035167D01*
X0039427Y0035216D01*
X0039515Y0035262D01*
X0039605Y0035304D01*
X0039697Y0035343D01*
X0039790Y0035378D01*
X0039884Y0035409D01*
X0039980Y0035436D01*
X0040077Y0035459D01*
X0040174Y0035479D01*
X0040272Y0035495D01*
X0040371Y0035507D01*
X0040470Y0035515D01*
X0040569Y0035519D01*
X0040669Y0035519D01*
X0040768Y0035515D01*
X0040867Y0035507D01*
X0040966Y0035495D01*
X0041064Y0035479D01*
X0041161Y0035459D01*
X0041258Y0035436D01*
X0041354Y0035409D01*
X0041448Y0035378D01*
X0041541Y0035343D01*
X0041633Y0035304D01*
X0041723Y0035262D01*
X0041811Y0035216D01*
X0041898Y0035167D01*
X0041982Y0035115D01*
X0042064Y0035059D01*
X0042144Y0035000D01*
X0042222Y0034938D01*
X0042297Y0034872D01*
X0042369Y0034804D01*
X0042439Y0034733D01*
X0042505Y0034660D01*
X0042569Y0034583D01*
X0042630Y0034505D01*
X0042687Y0034423D01*
X0042741Y0034340D01*
X0042792Y0034255D01*
X0042840Y0034167D01*
X0042884Y0034078D01*
X0042924Y0033987D01*
X0042961Y0033895D01*
X0042994Y0033801D01*
X0043023Y0033706D01*
X0043048Y0033610D01*
X0043070Y0033513D01*
X0043087Y0033415D01*
X0043101Y0033317D01*
X0043111Y0033218D01*
X0043117Y0033118D01*
X0043119Y0033019D01*
X0043117Y0032920D01*
X0043111Y0032820D01*
X0043101Y0032721D01*
X0043087Y0032623D01*
X0043070Y0032525D01*
X0043048Y0032428D01*
X0043023Y0032332D01*
X0042994Y0032237D01*
X0042961Y0032143D01*
X0042924Y0032051D01*
X0042884Y0031960D01*
X0042840Y0031871D01*
X0042792Y0031783D01*
X0042741Y0031698D01*
X0042687Y0031615D01*
X0042630Y0031533D01*
X0042569Y0031455D01*
X0042505Y0031378D01*
X0042439Y0031305D01*
X0042369Y0031234D01*
X0042297Y0031166D01*
X0042222Y0031100D01*
X0042144Y0031038D01*
X0042064Y0030979D01*
X0041982Y0030923D01*
X0041898Y0030871D01*
X0041811Y0030822D01*
X0041723Y0030776D01*
X0041633Y0030734D01*
X0041541Y0030695D01*
X0041448Y0030660D01*
X0041354Y0030629D01*
X0041258Y0030602D01*
X0041161Y0030579D01*
X0041064Y0030559D01*
X0040966Y0030543D01*
X0040867Y0030531D01*
X0040768Y0030523D01*
X0040669Y0030519D01*
X0040569Y0030519D01*
X0040470Y0030523D01*
X0040371Y0030531D01*
X0040272Y0030543D01*
X0040174Y0030559D01*
X0040077Y0030579D01*
X0039980Y0030602D01*
X0039884Y0030629D01*
X0039790Y0030660D01*
X0039697Y0030695D01*
X0039605Y0030734D01*
X0039515Y0030776D01*
X0039427Y0030822D01*
X0039340Y0030871D01*
X0039256Y0030923D01*
X0039174Y0030979D01*
X0039094Y0031038D01*
X0039016Y0031100D01*
X0038941Y0031166D01*
X0038869Y0031234D01*
X0038799Y0031305D01*
X0038733Y0031378D01*
X0038669Y0031455D01*
X0038608Y0031533D01*
X0038551Y0031615D01*
X0038497Y0031698D01*
X0038446Y0031783D01*
X0038398Y0031871D01*
X0038354Y0031960D01*
X0038314Y0032051D01*
X0038277Y0032143D01*
X0038244Y0032237D01*
X0038215Y0032332D01*
X0038190Y0032428D01*
X0038168Y0032525D01*
X0038151Y0032623D01*
X0038137Y0032721D01*
X0038127Y0032820D01*
X0038121Y0032920D01*
X0038119Y0033019D01*
X0040859Y0045486D02*
X0040861Y0045570D01*
X0040867Y0045653D01*
X0040877Y0045736D01*
X0040891Y0045819D01*
X0040908Y0045901D01*
X0040930Y0045982D01*
X0040955Y0046061D01*
X0040984Y0046140D01*
X0041017Y0046217D01*
X0041053Y0046292D01*
X0041093Y0046366D01*
X0041136Y0046438D01*
X0041183Y0046507D01*
X0041233Y0046574D01*
X0041286Y0046639D01*
X0041342Y0046701D01*
X0041400Y0046761D01*
X0041462Y0046818D01*
X0041526Y0046871D01*
X0041593Y0046922D01*
X0041662Y0046969D01*
X0041733Y0047014D01*
X0041806Y0047054D01*
X0041881Y0047091D01*
X0041958Y0047125D01*
X0042036Y0047155D01*
X0042115Y0047181D01*
X0042196Y0047204D01*
X0042278Y0047222D01*
X0042360Y0047237D01*
X0042443Y0047248D01*
X0042526Y0047255D01*
X0042610Y0047258D01*
X0042694Y0047257D01*
X0042777Y0047252D01*
X0042861Y0047243D01*
X0042943Y0047230D01*
X0043025Y0047214D01*
X0043106Y0047193D01*
X0043187Y0047169D01*
X0043265Y0047141D01*
X0043343Y0047109D01*
X0043419Y0047073D01*
X0043493Y0047034D01*
X0043565Y0046992D01*
X0043635Y0046946D01*
X0043703Y0046897D01*
X0043768Y0046845D01*
X0043831Y0046790D01*
X0043891Y0046732D01*
X0043949Y0046671D01*
X0044003Y0046607D01*
X0044055Y0046541D01*
X0044103Y0046473D01*
X0044148Y0046402D01*
X0044189Y0046329D01*
X0044228Y0046255D01*
X0044262Y0046179D01*
X0044293Y0046101D01*
X0044320Y0046022D01*
X0044344Y0045941D01*
X0044363Y0045860D01*
X0044379Y0045778D01*
X0044391Y0045695D01*
X0044399Y0045611D01*
X0044403Y0045528D01*
X0044403Y0045444D01*
X0044399Y0045361D01*
X0044391Y0045277D01*
X0044379Y0045194D01*
X0044363Y0045112D01*
X0044344Y0045031D01*
X0044320Y0044950D01*
X0044293Y0044871D01*
X0044262Y0044793D01*
X0044228Y0044717D01*
X0044189Y0044643D01*
X0044148Y0044570D01*
X0044103Y0044499D01*
X0044055Y0044431D01*
X0044003Y0044365D01*
X0043949Y0044301D01*
X0043891Y0044240D01*
X0043831Y0044182D01*
X0043768Y0044127D01*
X0043703Y0044075D01*
X0043635Y0044026D01*
X0043565Y0043980D01*
X0043493Y0043938D01*
X0043419Y0043899D01*
X0043343Y0043863D01*
X0043265Y0043831D01*
X0043187Y0043803D01*
X0043106Y0043779D01*
X0043025Y0043758D01*
X0042943Y0043742D01*
X0042861Y0043729D01*
X0042777Y0043720D01*
X0042694Y0043715D01*
X0042610Y0043714D01*
X0042526Y0043717D01*
X0042443Y0043724D01*
X0042360Y0043735D01*
X0042278Y0043750D01*
X0042196Y0043768D01*
X0042115Y0043791D01*
X0042036Y0043817D01*
X0041958Y0043847D01*
X0041881Y0043881D01*
X0041806Y0043918D01*
X0041733Y0043958D01*
X0041662Y0044003D01*
X0041593Y0044050D01*
X0041526Y0044101D01*
X0041462Y0044154D01*
X0041400Y0044211D01*
X0041342Y0044271D01*
X0041286Y0044333D01*
X0041233Y0044398D01*
X0041183Y0044465D01*
X0041136Y0044534D01*
X0041093Y0044606D01*
X0041053Y0044680D01*
X0041017Y0044755D01*
X0040984Y0044832D01*
X0040955Y0044911D01*
X0040930Y0044990D01*
X0040908Y0045071D01*
X0040891Y0045153D01*
X0040877Y0045236D01*
X0040867Y0045319D01*
X0040861Y0045402D01*
X0040859Y0045486D01*
X0029556Y0068274D02*
X0029558Y0068362D01*
X0029564Y0068450D01*
X0029574Y0068538D01*
X0029588Y0068626D01*
X0029605Y0068712D01*
X0029627Y0068798D01*
X0029652Y0068882D01*
X0029682Y0068966D01*
X0029714Y0069048D01*
X0029751Y0069128D01*
X0029791Y0069207D01*
X0029835Y0069284D01*
X0029882Y0069359D01*
X0029932Y0069431D01*
X0029986Y0069502D01*
X0030042Y0069569D01*
X0030102Y0069635D01*
X0030164Y0069697D01*
X0030230Y0069757D01*
X0030297Y0069813D01*
X0030368Y0069867D01*
X0030440Y0069917D01*
X0030515Y0069964D01*
X0030592Y0070008D01*
X0030671Y0070048D01*
X0030751Y0070085D01*
X0030833Y0070117D01*
X0030917Y0070147D01*
X0031001Y0070172D01*
X0031087Y0070194D01*
X0031173Y0070211D01*
X0031261Y0070225D01*
X0031349Y0070235D01*
X0031437Y0070241D01*
X0031525Y0070243D01*
X0031613Y0070241D01*
X0031701Y0070235D01*
X0031789Y0070225D01*
X0031877Y0070211D01*
X0031963Y0070194D01*
X0032049Y0070172D01*
X0032133Y0070147D01*
X0032217Y0070117D01*
X0032299Y0070085D01*
X0032379Y0070048D01*
X0032458Y0070008D01*
X0032535Y0069964D01*
X0032610Y0069917D01*
X0032682Y0069867D01*
X0032753Y0069813D01*
X0032820Y0069757D01*
X0032886Y0069697D01*
X0032948Y0069635D01*
X0033008Y0069569D01*
X0033064Y0069502D01*
X0033118Y0069431D01*
X0033168Y0069359D01*
X0033215Y0069284D01*
X0033259Y0069207D01*
X0033299Y0069128D01*
X0033336Y0069048D01*
X0033368Y0068966D01*
X0033398Y0068882D01*
X0033423Y0068798D01*
X0033445Y0068712D01*
X0033462Y0068626D01*
X0033476Y0068538D01*
X0033486Y0068450D01*
X0033492Y0068362D01*
X0033494Y0068274D01*
X0033492Y0068186D01*
X0033486Y0068098D01*
X0033476Y0068010D01*
X0033462Y0067922D01*
X0033445Y0067836D01*
X0033423Y0067750D01*
X0033398Y0067666D01*
X0033368Y0067582D01*
X0033336Y0067500D01*
X0033299Y0067420D01*
X0033259Y0067341D01*
X0033215Y0067264D01*
X0033168Y0067189D01*
X0033118Y0067117D01*
X0033064Y0067046D01*
X0033008Y0066979D01*
X0032948Y0066913D01*
X0032886Y0066851D01*
X0032820Y0066791D01*
X0032753Y0066735D01*
X0032682Y0066681D01*
X0032610Y0066631D01*
X0032535Y0066584D01*
X0032458Y0066540D01*
X0032379Y0066500D01*
X0032299Y0066463D01*
X0032217Y0066431D01*
X0032133Y0066401D01*
X0032049Y0066376D01*
X0031963Y0066354D01*
X0031877Y0066337D01*
X0031789Y0066323D01*
X0031701Y0066313D01*
X0031613Y0066307D01*
X0031525Y0066305D01*
X0031437Y0066307D01*
X0031349Y0066313D01*
X0031261Y0066323D01*
X0031173Y0066337D01*
X0031087Y0066354D01*
X0031001Y0066376D01*
X0030917Y0066401D01*
X0030833Y0066431D01*
X0030751Y0066463D01*
X0030671Y0066500D01*
X0030592Y0066540D01*
X0030515Y0066584D01*
X0030440Y0066631D01*
X0030368Y0066681D01*
X0030297Y0066735D01*
X0030230Y0066791D01*
X0030164Y0066851D01*
X0030102Y0066913D01*
X0030042Y0066979D01*
X0029986Y0067046D01*
X0029932Y0067117D01*
X0029882Y0067189D01*
X0029835Y0067264D01*
X0029791Y0067341D01*
X0029751Y0067420D01*
X0029714Y0067500D01*
X0029682Y0067582D01*
X0029652Y0067666D01*
X0029627Y0067750D01*
X0029605Y0067836D01*
X0029588Y0067922D01*
X0029574Y0068010D01*
X0029564Y0068098D01*
X0029558Y0068186D01*
X0029556Y0068274D01*
X0048652Y0068588D02*
X0048654Y0068700D01*
X0048660Y0068811D01*
X0048670Y0068923D01*
X0048684Y0069034D01*
X0048701Y0069144D01*
X0048723Y0069254D01*
X0048749Y0069363D01*
X0048778Y0069471D01*
X0048811Y0069577D01*
X0048848Y0069683D01*
X0048889Y0069787D01*
X0048934Y0069890D01*
X0048982Y0069991D01*
X0049033Y0070090D01*
X0049088Y0070187D01*
X0049147Y0070282D01*
X0049208Y0070376D01*
X0049273Y0070467D01*
X0049342Y0070555D01*
X0049413Y0070641D01*
X0049487Y0070725D01*
X0049565Y0070805D01*
X0049645Y0070883D01*
X0049728Y0070959D01*
X0049813Y0071031D01*
X0049901Y0071100D01*
X0049991Y0071166D01*
X0050084Y0071228D01*
X0050179Y0071288D01*
X0050276Y0071344D01*
X0050374Y0071396D01*
X0050475Y0071445D01*
X0050577Y0071490D01*
X0050681Y0071532D01*
X0050786Y0071570D01*
X0050893Y0071604D01*
X0051000Y0071634D01*
X0051109Y0071661D01*
X0051218Y0071683D01*
X0051329Y0071702D01*
X0051439Y0071717D01*
X0051551Y0071728D01*
X0051662Y0071735D01*
X0051774Y0071738D01*
X0051886Y0071737D01*
X0051998Y0071732D01*
X0052109Y0071723D01*
X0052220Y0071710D01*
X0052331Y0071693D01*
X0052441Y0071673D01*
X0052550Y0071648D01*
X0052658Y0071620D01*
X0052765Y0071587D01*
X0052871Y0071551D01*
X0052975Y0071511D01*
X0053078Y0071468D01*
X0053180Y0071421D01*
X0053279Y0071370D01*
X0053377Y0071316D01*
X0053473Y0071258D01*
X0053567Y0071197D01*
X0053658Y0071133D01*
X0053747Y0071066D01*
X0053834Y0070995D01*
X0053918Y0070921D01*
X0054000Y0070845D01*
X0054078Y0070765D01*
X0054154Y0070683D01*
X0054227Y0070598D01*
X0054297Y0070511D01*
X0054363Y0070421D01*
X0054427Y0070329D01*
X0054487Y0070235D01*
X0054544Y0070139D01*
X0054597Y0070040D01*
X0054647Y0069940D01*
X0054693Y0069839D01*
X0054736Y0069735D01*
X0054775Y0069630D01*
X0054810Y0069524D01*
X0054841Y0069417D01*
X0054869Y0069308D01*
X0054892Y0069199D01*
X0054912Y0069089D01*
X0054928Y0068978D01*
X0054940Y0068867D01*
X0054948Y0068756D01*
X0054952Y0068644D01*
X0054952Y0068532D01*
X0054948Y0068420D01*
X0054940Y0068309D01*
X0054928Y0068198D01*
X0054912Y0068087D01*
X0054892Y0067977D01*
X0054869Y0067868D01*
X0054841Y0067759D01*
X0054810Y0067652D01*
X0054775Y0067546D01*
X0054736Y0067441D01*
X0054693Y0067337D01*
X0054647Y0067236D01*
X0054597Y0067136D01*
X0054544Y0067037D01*
X0054487Y0066941D01*
X0054427Y0066847D01*
X0054363Y0066755D01*
X0054297Y0066665D01*
X0054227Y0066578D01*
X0054154Y0066493D01*
X0054078Y0066411D01*
X0054000Y0066331D01*
X0053918Y0066255D01*
X0053834Y0066181D01*
X0053747Y0066110D01*
X0053658Y0066043D01*
X0053567Y0065979D01*
X0053473Y0065918D01*
X0053377Y0065860D01*
X0053279Y0065806D01*
X0053180Y0065755D01*
X0053078Y0065708D01*
X0052975Y0065665D01*
X0052871Y0065625D01*
X0052765Y0065589D01*
X0052658Y0065556D01*
X0052550Y0065528D01*
X0052441Y0065503D01*
X0052331Y0065483D01*
X0052220Y0065466D01*
X0052109Y0065453D01*
X0051998Y0065444D01*
X0051886Y0065439D01*
X0051774Y0065438D01*
X0051662Y0065441D01*
X0051551Y0065448D01*
X0051439Y0065459D01*
X0051329Y0065474D01*
X0051218Y0065493D01*
X0051109Y0065515D01*
X0051000Y0065542D01*
X0050893Y0065572D01*
X0050786Y0065606D01*
X0050681Y0065644D01*
X0050577Y0065686D01*
X0050475Y0065731D01*
X0050374Y0065780D01*
X0050276Y0065832D01*
X0050179Y0065888D01*
X0050084Y0065948D01*
X0049991Y0066010D01*
X0049901Y0066076D01*
X0049813Y0066145D01*
X0049728Y0066217D01*
X0049645Y0066293D01*
X0049565Y0066371D01*
X0049487Y0066451D01*
X0049413Y0066535D01*
X0049342Y0066621D01*
X0049273Y0066709D01*
X0049208Y0066800D01*
X0049147Y0066894D01*
X0049088Y0066989D01*
X0049033Y0067086D01*
X0048982Y0067185D01*
X0048934Y0067286D01*
X0048889Y0067389D01*
X0048848Y0067493D01*
X0048811Y0067599D01*
X0048778Y0067705D01*
X0048749Y0067813D01*
X0048723Y0067922D01*
X0048701Y0068032D01*
X0048684Y0068142D01*
X0048670Y0068253D01*
X0048660Y0068365D01*
X0048654Y0068476D01*
X0048652Y0068588D01*
X0067155Y0055278D02*
X0067157Y0055366D01*
X0067163Y0055454D01*
X0067173Y0055542D01*
X0067187Y0055630D01*
X0067204Y0055716D01*
X0067226Y0055802D01*
X0067251Y0055886D01*
X0067281Y0055970D01*
X0067313Y0056052D01*
X0067350Y0056132D01*
X0067390Y0056211D01*
X0067434Y0056288D01*
X0067481Y0056363D01*
X0067531Y0056435D01*
X0067585Y0056506D01*
X0067641Y0056573D01*
X0067701Y0056639D01*
X0067763Y0056701D01*
X0067829Y0056761D01*
X0067896Y0056817D01*
X0067967Y0056871D01*
X0068039Y0056921D01*
X0068114Y0056968D01*
X0068191Y0057012D01*
X0068270Y0057052D01*
X0068350Y0057089D01*
X0068432Y0057121D01*
X0068516Y0057151D01*
X0068600Y0057176D01*
X0068686Y0057198D01*
X0068772Y0057215D01*
X0068860Y0057229D01*
X0068948Y0057239D01*
X0069036Y0057245D01*
X0069124Y0057247D01*
X0069212Y0057245D01*
X0069300Y0057239D01*
X0069388Y0057229D01*
X0069476Y0057215D01*
X0069562Y0057198D01*
X0069648Y0057176D01*
X0069732Y0057151D01*
X0069816Y0057121D01*
X0069898Y0057089D01*
X0069978Y0057052D01*
X0070057Y0057012D01*
X0070134Y0056968D01*
X0070209Y0056921D01*
X0070281Y0056871D01*
X0070352Y0056817D01*
X0070419Y0056761D01*
X0070485Y0056701D01*
X0070547Y0056639D01*
X0070607Y0056573D01*
X0070663Y0056506D01*
X0070717Y0056435D01*
X0070767Y0056363D01*
X0070814Y0056288D01*
X0070858Y0056211D01*
X0070898Y0056132D01*
X0070935Y0056052D01*
X0070967Y0055970D01*
X0070997Y0055886D01*
X0071022Y0055802D01*
X0071044Y0055716D01*
X0071061Y0055630D01*
X0071075Y0055542D01*
X0071085Y0055454D01*
X0071091Y0055366D01*
X0071093Y0055278D01*
X0071091Y0055190D01*
X0071085Y0055102D01*
X0071075Y0055014D01*
X0071061Y0054926D01*
X0071044Y0054840D01*
X0071022Y0054754D01*
X0070997Y0054670D01*
X0070967Y0054586D01*
X0070935Y0054504D01*
X0070898Y0054424D01*
X0070858Y0054345D01*
X0070814Y0054268D01*
X0070767Y0054193D01*
X0070717Y0054121D01*
X0070663Y0054050D01*
X0070607Y0053983D01*
X0070547Y0053917D01*
X0070485Y0053855D01*
X0070419Y0053795D01*
X0070352Y0053739D01*
X0070281Y0053685D01*
X0070209Y0053635D01*
X0070134Y0053588D01*
X0070057Y0053544D01*
X0069978Y0053504D01*
X0069898Y0053467D01*
X0069816Y0053435D01*
X0069732Y0053405D01*
X0069648Y0053380D01*
X0069562Y0053358D01*
X0069476Y0053341D01*
X0069388Y0053327D01*
X0069300Y0053317D01*
X0069212Y0053311D01*
X0069124Y0053309D01*
X0069036Y0053311D01*
X0068948Y0053317D01*
X0068860Y0053327D01*
X0068772Y0053341D01*
X0068686Y0053358D01*
X0068600Y0053380D01*
X0068516Y0053405D01*
X0068432Y0053435D01*
X0068350Y0053467D01*
X0068270Y0053504D01*
X0068191Y0053544D01*
X0068114Y0053588D01*
X0068039Y0053635D01*
X0067967Y0053685D01*
X0067896Y0053739D01*
X0067829Y0053795D01*
X0067763Y0053855D01*
X0067701Y0053917D01*
X0067641Y0053983D01*
X0067585Y0054050D01*
X0067531Y0054121D01*
X0067481Y0054193D01*
X0067434Y0054268D01*
X0067390Y0054345D01*
X0067350Y0054424D01*
X0067313Y0054504D01*
X0067281Y0054586D01*
X0067251Y0054670D01*
X0067226Y0054754D01*
X0067204Y0054840D01*
X0067187Y0054926D01*
X0067173Y0055014D01*
X0067163Y0055102D01*
X0067157Y0055190D01*
X0067155Y0055278D01*
X0084218Y0064133D02*
X0084220Y0064245D01*
X0084226Y0064356D01*
X0084236Y0064468D01*
X0084250Y0064579D01*
X0084267Y0064689D01*
X0084289Y0064799D01*
X0084315Y0064908D01*
X0084344Y0065016D01*
X0084377Y0065122D01*
X0084414Y0065228D01*
X0084455Y0065332D01*
X0084500Y0065435D01*
X0084548Y0065536D01*
X0084599Y0065635D01*
X0084654Y0065732D01*
X0084713Y0065827D01*
X0084774Y0065921D01*
X0084839Y0066012D01*
X0084908Y0066100D01*
X0084979Y0066186D01*
X0085053Y0066270D01*
X0085131Y0066350D01*
X0085211Y0066428D01*
X0085294Y0066504D01*
X0085379Y0066576D01*
X0085467Y0066645D01*
X0085557Y0066711D01*
X0085650Y0066773D01*
X0085745Y0066833D01*
X0085842Y0066889D01*
X0085940Y0066941D01*
X0086041Y0066990D01*
X0086143Y0067035D01*
X0086247Y0067077D01*
X0086352Y0067115D01*
X0086459Y0067149D01*
X0086566Y0067179D01*
X0086675Y0067206D01*
X0086784Y0067228D01*
X0086895Y0067247D01*
X0087005Y0067262D01*
X0087117Y0067273D01*
X0087228Y0067280D01*
X0087340Y0067283D01*
X0087452Y0067282D01*
X0087564Y0067277D01*
X0087675Y0067268D01*
X0087786Y0067255D01*
X0087897Y0067238D01*
X0088007Y0067218D01*
X0088116Y0067193D01*
X0088224Y0067165D01*
X0088331Y0067132D01*
X0088437Y0067096D01*
X0088541Y0067056D01*
X0088644Y0067013D01*
X0088746Y0066966D01*
X0088845Y0066915D01*
X0088943Y0066861D01*
X0089039Y0066803D01*
X0089133Y0066742D01*
X0089224Y0066678D01*
X0089313Y0066611D01*
X0089400Y0066540D01*
X0089484Y0066466D01*
X0089566Y0066390D01*
X0089644Y0066310D01*
X0089720Y0066228D01*
X0089793Y0066143D01*
X0089863Y0066056D01*
X0089929Y0065966D01*
X0089993Y0065874D01*
X0090053Y0065780D01*
X0090110Y0065684D01*
X0090163Y0065585D01*
X0090213Y0065485D01*
X0090259Y0065384D01*
X0090302Y0065280D01*
X0090341Y0065175D01*
X0090376Y0065069D01*
X0090407Y0064962D01*
X0090435Y0064853D01*
X0090458Y0064744D01*
X0090478Y0064634D01*
X0090494Y0064523D01*
X0090506Y0064412D01*
X0090514Y0064301D01*
X0090518Y0064189D01*
X0090518Y0064077D01*
X0090514Y0063965D01*
X0090506Y0063854D01*
X0090494Y0063743D01*
X0090478Y0063632D01*
X0090458Y0063522D01*
X0090435Y0063413D01*
X0090407Y0063304D01*
X0090376Y0063197D01*
X0090341Y0063091D01*
X0090302Y0062986D01*
X0090259Y0062882D01*
X0090213Y0062781D01*
X0090163Y0062681D01*
X0090110Y0062582D01*
X0090053Y0062486D01*
X0089993Y0062392D01*
X0089929Y0062300D01*
X0089863Y0062210D01*
X0089793Y0062123D01*
X0089720Y0062038D01*
X0089644Y0061956D01*
X0089566Y0061876D01*
X0089484Y0061800D01*
X0089400Y0061726D01*
X0089313Y0061655D01*
X0089224Y0061588D01*
X0089133Y0061524D01*
X0089039Y0061463D01*
X0088943Y0061405D01*
X0088845Y0061351D01*
X0088746Y0061300D01*
X0088644Y0061253D01*
X0088541Y0061210D01*
X0088437Y0061170D01*
X0088331Y0061134D01*
X0088224Y0061101D01*
X0088116Y0061073D01*
X0088007Y0061048D01*
X0087897Y0061028D01*
X0087786Y0061011D01*
X0087675Y0060998D01*
X0087564Y0060989D01*
X0087452Y0060984D01*
X0087340Y0060983D01*
X0087228Y0060986D01*
X0087117Y0060993D01*
X0087005Y0061004D01*
X0086895Y0061019D01*
X0086784Y0061038D01*
X0086675Y0061060D01*
X0086566Y0061087D01*
X0086459Y0061117D01*
X0086352Y0061151D01*
X0086247Y0061189D01*
X0086143Y0061231D01*
X0086041Y0061276D01*
X0085940Y0061325D01*
X0085842Y0061377D01*
X0085745Y0061433D01*
X0085650Y0061493D01*
X0085557Y0061555D01*
X0085467Y0061621D01*
X0085379Y0061690D01*
X0085294Y0061762D01*
X0085211Y0061838D01*
X0085131Y0061916D01*
X0085053Y0061996D01*
X0084979Y0062080D01*
X0084908Y0062166D01*
X0084839Y0062254D01*
X0084774Y0062345D01*
X0084713Y0062439D01*
X0084654Y0062534D01*
X0084599Y0062631D01*
X0084548Y0062730D01*
X0084500Y0062831D01*
X0084455Y0062934D01*
X0084414Y0063038D01*
X0084377Y0063144D01*
X0084344Y0063250D01*
X0084315Y0063358D01*
X0084289Y0063467D01*
X0084267Y0063577D01*
X0084250Y0063687D01*
X0084236Y0063798D01*
X0084226Y0063910D01*
X0084220Y0064021D01*
X0084218Y0064133D01*
X0085940Y0084748D02*
X0085942Y0084860D01*
X0085948Y0084971D01*
X0085958Y0085083D01*
X0085972Y0085194D01*
X0085989Y0085304D01*
X0086011Y0085414D01*
X0086037Y0085523D01*
X0086066Y0085631D01*
X0086099Y0085737D01*
X0086136Y0085843D01*
X0086177Y0085947D01*
X0086222Y0086050D01*
X0086270Y0086151D01*
X0086321Y0086250D01*
X0086376Y0086347D01*
X0086435Y0086442D01*
X0086496Y0086536D01*
X0086561Y0086627D01*
X0086630Y0086715D01*
X0086701Y0086801D01*
X0086775Y0086885D01*
X0086853Y0086965D01*
X0086933Y0087043D01*
X0087016Y0087119D01*
X0087101Y0087191D01*
X0087189Y0087260D01*
X0087279Y0087326D01*
X0087372Y0087388D01*
X0087467Y0087448D01*
X0087564Y0087504D01*
X0087662Y0087556D01*
X0087763Y0087605D01*
X0087865Y0087650D01*
X0087969Y0087692D01*
X0088074Y0087730D01*
X0088181Y0087764D01*
X0088288Y0087794D01*
X0088397Y0087821D01*
X0088506Y0087843D01*
X0088617Y0087862D01*
X0088727Y0087877D01*
X0088839Y0087888D01*
X0088950Y0087895D01*
X0089062Y0087898D01*
X0089174Y0087897D01*
X0089286Y0087892D01*
X0089397Y0087883D01*
X0089508Y0087870D01*
X0089619Y0087853D01*
X0089729Y0087833D01*
X0089838Y0087808D01*
X0089946Y0087780D01*
X0090053Y0087747D01*
X0090159Y0087711D01*
X0090263Y0087671D01*
X0090366Y0087628D01*
X0090468Y0087581D01*
X0090567Y0087530D01*
X0090665Y0087476D01*
X0090761Y0087418D01*
X0090855Y0087357D01*
X0090946Y0087293D01*
X0091035Y0087226D01*
X0091122Y0087155D01*
X0091206Y0087081D01*
X0091288Y0087005D01*
X0091366Y0086925D01*
X0091442Y0086843D01*
X0091515Y0086758D01*
X0091585Y0086671D01*
X0091651Y0086581D01*
X0091715Y0086489D01*
X0091775Y0086395D01*
X0091832Y0086299D01*
X0091885Y0086200D01*
X0091935Y0086100D01*
X0091981Y0085999D01*
X0092024Y0085895D01*
X0092063Y0085790D01*
X0092098Y0085684D01*
X0092129Y0085577D01*
X0092157Y0085468D01*
X0092180Y0085359D01*
X0092200Y0085249D01*
X0092216Y0085138D01*
X0092228Y0085027D01*
X0092236Y0084916D01*
X0092240Y0084804D01*
X0092240Y0084692D01*
X0092236Y0084580D01*
X0092228Y0084469D01*
X0092216Y0084358D01*
X0092200Y0084247D01*
X0092180Y0084137D01*
X0092157Y0084028D01*
X0092129Y0083919D01*
X0092098Y0083812D01*
X0092063Y0083706D01*
X0092024Y0083601D01*
X0091981Y0083497D01*
X0091935Y0083396D01*
X0091885Y0083296D01*
X0091832Y0083197D01*
X0091775Y0083101D01*
X0091715Y0083007D01*
X0091651Y0082915D01*
X0091585Y0082825D01*
X0091515Y0082738D01*
X0091442Y0082653D01*
X0091366Y0082571D01*
X0091288Y0082491D01*
X0091206Y0082415D01*
X0091122Y0082341D01*
X0091035Y0082270D01*
X0090946Y0082203D01*
X0090855Y0082139D01*
X0090761Y0082078D01*
X0090665Y0082020D01*
X0090567Y0081966D01*
X0090468Y0081915D01*
X0090366Y0081868D01*
X0090263Y0081825D01*
X0090159Y0081785D01*
X0090053Y0081749D01*
X0089946Y0081716D01*
X0089838Y0081688D01*
X0089729Y0081663D01*
X0089619Y0081643D01*
X0089508Y0081626D01*
X0089397Y0081613D01*
X0089286Y0081604D01*
X0089174Y0081599D01*
X0089062Y0081598D01*
X0088950Y0081601D01*
X0088839Y0081608D01*
X0088727Y0081619D01*
X0088617Y0081634D01*
X0088506Y0081653D01*
X0088397Y0081675D01*
X0088288Y0081702D01*
X0088181Y0081732D01*
X0088074Y0081766D01*
X0087969Y0081804D01*
X0087865Y0081846D01*
X0087763Y0081891D01*
X0087662Y0081940D01*
X0087564Y0081992D01*
X0087467Y0082048D01*
X0087372Y0082108D01*
X0087279Y0082170D01*
X0087189Y0082236D01*
X0087101Y0082305D01*
X0087016Y0082377D01*
X0086933Y0082453D01*
X0086853Y0082531D01*
X0086775Y0082611D01*
X0086701Y0082695D01*
X0086630Y0082781D01*
X0086561Y0082869D01*
X0086496Y0082960D01*
X0086435Y0083054D01*
X0086376Y0083149D01*
X0086321Y0083246D01*
X0086270Y0083345D01*
X0086222Y0083446D01*
X0086177Y0083549D01*
X0086136Y0083653D01*
X0086099Y0083759D01*
X0086066Y0083865D01*
X0086037Y0083973D01*
X0086011Y0084082D01*
X0085989Y0084192D01*
X0085972Y0084302D01*
X0085958Y0084413D01*
X0085948Y0084525D01*
X0085942Y0084636D01*
X0085940Y0084748D01*
X0070056Y0095892D02*
X0070058Y0095980D01*
X0070064Y0096068D01*
X0070074Y0096156D01*
X0070088Y0096244D01*
X0070105Y0096330D01*
X0070127Y0096416D01*
X0070152Y0096500D01*
X0070182Y0096584D01*
X0070214Y0096666D01*
X0070251Y0096746D01*
X0070291Y0096825D01*
X0070335Y0096902D01*
X0070382Y0096977D01*
X0070432Y0097049D01*
X0070486Y0097120D01*
X0070542Y0097187D01*
X0070602Y0097253D01*
X0070664Y0097315D01*
X0070730Y0097375D01*
X0070797Y0097431D01*
X0070868Y0097485D01*
X0070940Y0097535D01*
X0071015Y0097582D01*
X0071092Y0097626D01*
X0071171Y0097666D01*
X0071251Y0097703D01*
X0071333Y0097735D01*
X0071417Y0097765D01*
X0071501Y0097790D01*
X0071587Y0097812D01*
X0071673Y0097829D01*
X0071761Y0097843D01*
X0071849Y0097853D01*
X0071937Y0097859D01*
X0072025Y0097861D01*
X0072113Y0097859D01*
X0072201Y0097853D01*
X0072289Y0097843D01*
X0072377Y0097829D01*
X0072463Y0097812D01*
X0072549Y0097790D01*
X0072633Y0097765D01*
X0072717Y0097735D01*
X0072799Y0097703D01*
X0072879Y0097666D01*
X0072958Y0097626D01*
X0073035Y0097582D01*
X0073110Y0097535D01*
X0073182Y0097485D01*
X0073253Y0097431D01*
X0073320Y0097375D01*
X0073386Y0097315D01*
X0073448Y0097253D01*
X0073508Y0097187D01*
X0073564Y0097120D01*
X0073618Y0097049D01*
X0073668Y0096977D01*
X0073715Y0096902D01*
X0073759Y0096825D01*
X0073799Y0096746D01*
X0073836Y0096666D01*
X0073868Y0096584D01*
X0073898Y0096500D01*
X0073923Y0096416D01*
X0073945Y0096330D01*
X0073962Y0096244D01*
X0073976Y0096156D01*
X0073986Y0096068D01*
X0073992Y0095980D01*
X0073994Y0095892D01*
X0073992Y0095804D01*
X0073986Y0095716D01*
X0073976Y0095628D01*
X0073962Y0095540D01*
X0073945Y0095454D01*
X0073923Y0095368D01*
X0073898Y0095284D01*
X0073868Y0095200D01*
X0073836Y0095118D01*
X0073799Y0095038D01*
X0073759Y0094959D01*
X0073715Y0094882D01*
X0073668Y0094807D01*
X0073618Y0094735D01*
X0073564Y0094664D01*
X0073508Y0094597D01*
X0073448Y0094531D01*
X0073386Y0094469D01*
X0073320Y0094409D01*
X0073253Y0094353D01*
X0073182Y0094299D01*
X0073110Y0094249D01*
X0073035Y0094202D01*
X0072958Y0094158D01*
X0072879Y0094118D01*
X0072799Y0094081D01*
X0072717Y0094049D01*
X0072633Y0094019D01*
X0072549Y0093994D01*
X0072463Y0093972D01*
X0072377Y0093955D01*
X0072289Y0093941D01*
X0072201Y0093931D01*
X0072113Y0093925D01*
X0072025Y0093923D01*
X0071937Y0093925D01*
X0071849Y0093931D01*
X0071761Y0093941D01*
X0071673Y0093955D01*
X0071587Y0093972D01*
X0071501Y0093994D01*
X0071417Y0094019D01*
X0071333Y0094049D01*
X0071251Y0094081D01*
X0071171Y0094118D01*
X0071092Y0094158D01*
X0071015Y0094202D01*
X0070940Y0094249D01*
X0070868Y0094299D01*
X0070797Y0094353D01*
X0070730Y0094409D01*
X0070664Y0094469D01*
X0070602Y0094531D01*
X0070542Y0094597D01*
X0070486Y0094664D01*
X0070432Y0094735D01*
X0070382Y0094807D01*
X0070335Y0094882D01*
X0070291Y0094959D01*
X0070251Y0095038D01*
X0070214Y0095118D01*
X0070182Y0095200D01*
X0070152Y0095284D01*
X0070127Y0095368D01*
X0070105Y0095454D01*
X0070088Y0095540D01*
X0070074Y0095628D01*
X0070064Y0095716D01*
X0070058Y0095804D01*
X0070056Y0095892D01*
X0091483Y0109007D02*
X0091485Y0109091D01*
X0091491Y0109174D01*
X0091501Y0109257D01*
X0091515Y0109340D01*
X0091532Y0109422D01*
X0091554Y0109503D01*
X0091579Y0109582D01*
X0091608Y0109661D01*
X0091641Y0109738D01*
X0091677Y0109813D01*
X0091717Y0109887D01*
X0091760Y0109959D01*
X0091807Y0110028D01*
X0091857Y0110095D01*
X0091910Y0110160D01*
X0091966Y0110222D01*
X0092024Y0110282D01*
X0092086Y0110339D01*
X0092150Y0110392D01*
X0092217Y0110443D01*
X0092286Y0110490D01*
X0092357Y0110535D01*
X0092430Y0110575D01*
X0092505Y0110612D01*
X0092582Y0110646D01*
X0092660Y0110676D01*
X0092739Y0110702D01*
X0092820Y0110725D01*
X0092902Y0110743D01*
X0092984Y0110758D01*
X0093067Y0110769D01*
X0093150Y0110776D01*
X0093234Y0110779D01*
X0093318Y0110778D01*
X0093401Y0110773D01*
X0093485Y0110764D01*
X0093567Y0110751D01*
X0093649Y0110735D01*
X0093730Y0110714D01*
X0093811Y0110690D01*
X0093889Y0110662D01*
X0093967Y0110630D01*
X0094043Y0110594D01*
X0094117Y0110555D01*
X0094189Y0110513D01*
X0094259Y0110467D01*
X0094327Y0110418D01*
X0094392Y0110366D01*
X0094455Y0110311D01*
X0094515Y0110253D01*
X0094573Y0110192D01*
X0094627Y0110128D01*
X0094679Y0110062D01*
X0094727Y0109994D01*
X0094772Y0109923D01*
X0094813Y0109850D01*
X0094852Y0109776D01*
X0094886Y0109700D01*
X0094917Y0109622D01*
X0094944Y0109543D01*
X0094968Y0109462D01*
X0094987Y0109381D01*
X0095003Y0109299D01*
X0095015Y0109216D01*
X0095023Y0109132D01*
X0095027Y0109049D01*
X0095027Y0108965D01*
X0095023Y0108882D01*
X0095015Y0108798D01*
X0095003Y0108715D01*
X0094987Y0108633D01*
X0094968Y0108552D01*
X0094944Y0108471D01*
X0094917Y0108392D01*
X0094886Y0108314D01*
X0094852Y0108238D01*
X0094813Y0108164D01*
X0094772Y0108091D01*
X0094727Y0108020D01*
X0094679Y0107952D01*
X0094627Y0107886D01*
X0094573Y0107822D01*
X0094515Y0107761D01*
X0094455Y0107703D01*
X0094392Y0107648D01*
X0094327Y0107596D01*
X0094259Y0107547D01*
X0094189Y0107501D01*
X0094117Y0107459D01*
X0094043Y0107420D01*
X0093967Y0107384D01*
X0093889Y0107352D01*
X0093811Y0107324D01*
X0093730Y0107300D01*
X0093649Y0107279D01*
X0093567Y0107263D01*
X0093485Y0107250D01*
X0093401Y0107241D01*
X0093318Y0107236D01*
X0093234Y0107235D01*
X0093150Y0107238D01*
X0093067Y0107245D01*
X0092984Y0107256D01*
X0092902Y0107271D01*
X0092820Y0107289D01*
X0092739Y0107312D01*
X0092660Y0107338D01*
X0092582Y0107368D01*
X0092505Y0107402D01*
X0092430Y0107439D01*
X0092357Y0107479D01*
X0092286Y0107524D01*
X0092217Y0107571D01*
X0092150Y0107622D01*
X0092086Y0107675D01*
X0092024Y0107732D01*
X0091966Y0107792D01*
X0091910Y0107854D01*
X0091857Y0107919D01*
X0091807Y0107986D01*
X0091760Y0108055D01*
X0091717Y0108127D01*
X0091677Y0108201D01*
X0091641Y0108276D01*
X0091608Y0108353D01*
X0091579Y0108432D01*
X0091554Y0108511D01*
X0091532Y0108592D01*
X0091515Y0108674D01*
X0091501Y0108757D01*
X0091491Y0108840D01*
X0091485Y0108923D01*
X0091483Y0109007D01*
X0106519Y0116619D02*
X0106521Y0116718D01*
X0106527Y0116818D01*
X0106537Y0116917D01*
X0106551Y0117015D01*
X0106568Y0117113D01*
X0106590Y0117210D01*
X0106615Y0117306D01*
X0106644Y0117401D01*
X0106677Y0117495D01*
X0106714Y0117587D01*
X0106754Y0117678D01*
X0106798Y0117767D01*
X0106846Y0117855D01*
X0106897Y0117940D01*
X0106951Y0118023D01*
X0107008Y0118105D01*
X0107069Y0118183D01*
X0107133Y0118260D01*
X0107199Y0118333D01*
X0107269Y0118404D01*
X0107341Y0118472D01*
X0107416Y0118538D01*
X0107494Y0118600D01*
X0107574Y0118659D01*
X0107656Y0118715D01*
X0107740Y0118767D01*
X0107827Y0118816D01*
X0107915Y0118862D01*
X0108005Y0118904D01*
X0108097Y0118943D01*
X0108190Y0118978D01*
X0108284Y0119009D01*
X0108380Y0119036D01*
X0108477Y0119059D01*
X0108574Y0119079D01*
X0108672Y0119095D01*
X0108771Y0119107D01*
X0108870Y0119115D01*
X0108969Y0119119D01*
X0109069Y0119119D01*
X0109168Y0119115D01*
X0109267Y0119107D01*
X0109366Y0119095D01*
X0109464Y0119079D01*
X0109561Y0119059D01*
X0109658Y0119036D01*
X0109754Y0119009D01*
X0109848Y0118978D01*
X0109941Y0118943D01*
X0110033Y0118904D01*
X0110123Y0118862D01*
X0110211Y0118816D01*
X0110298Y0118767D01*
X0110382Y0118715D01*
X0110464Y0118659D01*
X0110544Y0118600D01*
X0110622Y0118538D01*
X0110697Y0118472D01*
X0110769Y0118404D01*
X0110839Y0118333D01*
X0110905Y0118260D01*
X0110969Y0118183D01*
X0111030Y0118105D01*
X0111087Y0118023D01*
X0111141Y0117940D01*
X0111192Y0117855D01*
X0111240Y0117767D01*
X0111284Y0117678D01*
X0111324Y0117587D01*
X0111361Y0117495D01*
X0111394Y0117401D01*
X0111423Y0117306D01*
X0111448Y0117210D01*
X0111470Y0117113D01*
X0111487Y0117015D01*
X0111501Y0116917D01*
X0111511Y0116818D01*
X0111517Y0116718D01*
X0111519Y0116619D01*
X0111517Y0116520D01*
X0111511Y0116420D01*
X0111501Y0116321D01*
X0111487Y0116223D01*
X0111470Y0116125D01*
X0111448Y0116028D01*
X0111423Y0115932D01*
X0111394Y0115837D01*
X0111361Y0115743D01*
X0111324Y0115651D01*
X0111284Y0115560D01*
X0111240Y0115471D01*
X0111192Y0115383D01*
X0111141Y0115298D01*
X0111087Y0115215D01*
X0111030Y0115133D01*
X0110969Y0115055D01*
X0110905Y0114978D01*
X0110839Y0114905D01*
X0110769Y0114834D01*
X0110697Y0114766D01*
X0110622Y0114700D01*
X0110544Y0114638D01*
X0110464Y0114579D01*
X0110382Y0114523D01*
X0110298Y0114471D01*
X0110211Y0114422D01*
X0110123Y0114376D01*
X0110033Y0114334D01*
X0109941Y0114295D01*
X0109848Y0114260D01*
X0109754Y0114229D01*
X0109658Y0114202D01*
X0109561Y0114179D01*
X0109464Y0114159D01*
X0109366Y0114143D01*
X0109267Y0114131D01*
X0109168Y0114123D01*
X0109069Y0114119D01*
X0108969Y0114119D01*
X0108870Y0114123D01*
X0108771Y0114131D01*
X0108672Y0114143D01*
X0108574Y0114159D01*
X0108477Y0114179D01*
X0108380Y0114202D01*
X0108284Y0114229D01*
X0108190Y0114260D01*
X0108097Y0114295D01*
X0108005Y0114334D01*
X0107915Y0114376D01*
X0107827Y0114422D01*
X0107740Y0114471D01*
X0107656Y0114523D01*
X0107574Y0114579D01*
X0107494Y0114638D01*
X0107416Y0114700D01*
X0107341Y0114766D01*
X0107269Y0114834D01*
X0107199Y0114905D01*
X0107133Y0114978D01*
X0107069Y0115055D01*
X0107008Y0115133D01*
X0106951Y0115215D01*
X0106897Y0115298D01*
X0106846Y0115383D01*
X0106798Y0115471D01*
X0106754Y0115560D01*
X0106714Y0115651D01*
X0106677Y0115743D01*
X0106644Y0115837D01*
X0106615Y0115932D01*
X0106590Y0116028D01*
X0106568Y0116125D01*
X0106551Y0116223D01*
X0106537Y0116321D01*
X0106527Y0116420D01*
X0106521Y0116520D01*
X0106519Y0116619D01*
X0066919Y0128619D02*
X0066921Y0128718D01*
X0066927Y0128818D01*
X0066937Y0128917D01*
X0066951Y0129015D01*
X0066968Y0129113D01*
X0066990Y0129210D01*
X0067015Y0129306D01*
X0067044Y0129401D01*
X0067077Y0129495D01*
X0067114Y0129587D01*
X0067154Y0129678D01*
X0067198Y0129767D01*
X0067246Y0129855D01*
X0067297Y0129940D01*
X0067351Y0130023D01*
X0067408Y0130105D01*
X0067469Y0130183D01*
X0067533Y0130260D01*
X0067599Y0130333D01*
X0067669Y0130404D01*
X0067741Y0130472D01*
X0067816Y0130538D01*
X0067894Y0130600D01*
X0067974Y0130659D01*
X0068056Y0130715D01*
X0068140Y0130767D01*
X0068227Y0130816D01*
X0068315Y0130862D01*
X0068405Y0130904D01*
X0068497Y0130943D01*
X0068590Y0130978D01*
X0068684Y0131009D01*
X0068780Y0131036D01*
X0068877Y0131059D01*
X0068974Y0131079D01*
X0069072Y0131095D01*
X0069171Y0131107D01*
X0069270Y0131115D01*
X0069369Y0131119D01*
X0069469Y0131119D01*
X0069568Y0131115D01*
X0069667Y0131107D01*
X0069766Y0131095D01*
X0069864Y0131079D01*
X0069961Y0131059D01*
X0070058Y0131036D01*
X0070154Y0131009D01*
X0070248Y0130978D01*
X0070341Y0130943D01*
X0070433Y0130904D01*
X0070523Y0130862D01*
X0070611Y0130816D01*
X0070698Y0130767D01*
X0070782Y0130715D01*
X0070864Y0130659D01*
X0070944Y0130600D01*
X0071022Y0130538D01*
X0071097Y0130472D01*
X0071169Y0130404D01*
X0071239Y0130333D01*
X0071305Y0130260D01*
X0071369Y0130183D01*
X0071430Y0130105D01*
X0071487Y0130023D01*
X0071541Y0129940D01*
X0071592Y0129855D01*
X0071640Y0129767D01*
X0071684Y0129678D01*
X0071724Y0129587D01*
X0071761Y0129495D01*
X0071794Y0129401D01*
X0071823Y0129306D01*
X0071848Y0129210D01*
X0071870Y0129113D01*
X0071887Y0129015D01*
X0071901Y0128917D01*
X0071911Y0128818D01*
X0071917Y0128718D01*
X0071919Y0128619D01*
X0071917Y0128520D01*
X0071911Y0128420D01*
X0071901Y0128321D01*
X0071887Y0128223D01*
X0071870Y0128125D01*
X0071848Y0128028D01*
X0071823Y0127932D01*
X0071794Y0127837D01*
X0071761Y0127743D01*
X0071724Y0127651D01*
X0071684Y0127560D01*
X0071640Y0127471D01*
X0071592Y0127383D01*
X0071541Y0127298D01*
X0071487Y0127215D01*
X0071430Y0127133D01*
X0071369Y0127055D01*
X0071305Y0126978D01*
X0071239Y0126905D01*
X0071169Y0126834D01*
X0071097Y0126766D01*
X0071022Y0126700D01*
X0070944Y0126638D01*
X0070864Y0126579D01*
X0070782Y0126523D01*
X0070698Y0126471D01*
X0070611Y0126422D01*
X0070523Y0126376D01*
X0070433Y0126334D01*
X0070341Y0126295D01*
X0070248Y0126260D01*
X0070154Y0126229D01*
X0070058Y0126202D01*
X0069961Y0126179D01*
X0069864Y0126159D01*
X0069766Y0126143D01*
X0069667Y0126131D01*
X0069568Y0126123D01*
X0069469Y0126119D01*
X0069369Y0126119D01*
X0069270Y0126123D01*
X0069171Y0126131D01*
X0069072Y0126143D01*
X0068974Y0126159D01*
X0068877Y0126179D01*
X0068780Y0126202D01*
X0068684Y0126229D01*
X0068590Y0126260D01*
X0068497Y0126295D01*
X0068405Y0126334D01*
X0068315Y0126376D01*
X0068227Y0126422D01*
X0068140Y0126471D01*
X0068056Y0126523D01*
X0067974Y0126579D01*
X0067894Y0126638D01*
X0067816Y0126700D01*
X0067741Y0126766D01*
X0067669Y0126834D01*
X0067599Y0126905D01*
X0067533Y0126978D01*
X0067469Y0127055D01*
X0067408Y0127133D01*
X0067351Y0127215D01*
X0067297Y0127298D01*
X0067246Y0127383D01*
X0067198Y0127471D01*
X0067154Y0127560D01*
X0067114Y0127651D01*
X0067077Y0127743D01*
X0067044Y0127837D01*
X0067015Y0127932D01*
X0066990Y0128028D01*
X0066968Y0128125D01*
X0066951Y0128223D01*
X0066937Y0128321D01*
X0066927Y0128420D01*
X0066921Y0128520D01*
X0066919Y0128619D01*
X0030519Y0109019D02*
X0030521Y0109118D01*
X0030527Y0109218D01*
X0030537Y0109317D01*
X0030551Y0109415D01*
X0030568Y0109513D01*
X0030590Y0109610D01*
X0030615Y0109706D01*
X0030644Y0109801D01*
X0030677Y0109895D01*
X0030714Y0109987D01*
X0030754Y0110078D01*
X0030798Y0110167D01*
X0030846Y0110255D01*
X0030897Y0110340D01*
X0030951Y0110423D01*
X0031008Y0110505D01*
X0031069Y0110583D01*
X0031133Y0110660D01*
X0031199Y0110733D01*
X0031269Y0110804D01*
X0031341Y0110872D01*
X0031416Y0110938D01*
X0031494Y0111000D01*
X0031574Y0111059D01*
X0031656Y0111115D01*
X0031740Y0111167D01*
X0031827Y0111216D01*
X0031915Y0111262D01*
X0032005Y0111304D01*
X0032097Y0111343D01*
X0032190Y0111378D01*
X0032284Y0111409D01*
X0032380Y0111436D01*
X0032477Y0111459D01*
X0032574Y0111479D01*
X0032672Y0111495D01*
X0032771Y0111507D01*
X0032870Y0111515D01*
X0032969Y0111519D01*
X0033069Y0111519D01*
X0033168Y0111515D01*
X0033267Y0111507D01*
X0033366Y0111495D01*
X0033464Y0111479D01*
X0033561Y0111459D01*
X0033658Y0111436D01*
X0033754Y0111409D01*
X0033848Y0111378D01*
X0033941Y0111343D01*
X0034033Y0111304D01*
X0034123Y0111262D01*
X0034211Y0111216D01*
X0034298Y0111167D01*
X0034382Y0111115D01*
X0034464Y0111059D01*
X0034544Y0111000D01*
X0034622Y0110938D01*
X0034697Y0110872D01*
X0034769Y0110804D01*
X0034839Y0110733D01*
X0034905Y0110660D01*
X0034969Y0110583D01*
X0035030Y0110505D01*
X0035087Y0110423D01*
X0035141Y0110340D01*
X0035192Y0110255D01*
X0035240Y0110167D01*
X0035284Y0110078D01*
X0035324Y0109987D01*
X0035361Y0109895D01*
X0035394Y0109801D01*
X0035423Y0109706D01*
X0035448Y0109610D01*
X0035470Y0109513D01*
X0035487Y0109415D01*
X0035501Y0109317D01*
X0035511Y0109218D01*
X0035517Y0109118D01*
X0035519Y0109019D01*
X0035517Y0108920D01*
X0035511Y0108820D01*
X0035501Y0108721D01*
X0035487Y0108623D01*
X0035470Y0108525D01*
X0035448Y0108428D01*
X0035423Y0108332D01*
X0035394Y0108237D01*
X0035361Y0108143D01*
X0035324Y0108051D01*
X0035284Y0107960D01*
X0035240Y0107871D01*
X0035192Y0107783D01*
X0035141Y0107698D01*
X0035087Y0107615D01*
X0035030Y0107533D01*
X0034969Y0107455D01*
X0034905Y0107378D01*
X0034839Y0107305D01*
X0034769Y0107234D01*
X0034697Y0107166D01*
X0034622Y0107100D01*
X0034544Y0107038D01*
X0034464Y0106979D01*
X0034382Y0106923D01*
X0034298Y0106871D01*
X0034211Y0106822D01*
X0034123Y0106776D01*
X0034033Y0106734D01*
X0033941Y0106695D01*
X0033848Y0106660D01*
X0033754Y0106629D01*
X0033658Y0106602D01*
X0033561Y0106579D01*
X0033464Y0106559D01*
X0033366Y0106543D01*
X0033267Y0106531D01*
X0033168Y0106523D01*
X0033069Y0106519D01*
X0032969Y0106519D01*
X0032870Y0106523D01*
X0032771Y0106531D01*
X0032672Y0106543D01*
X0032574Y0106559D01*
X0032477Y0106579D01*
X0032380Y0106602D01*
X0032284Y0106629D01*
X0032190Y0106660D01*
X0032097Y0106695D01*
X0032005Y0106734D01*
X0031915Y0106776D01*
X0031827Y0106822D01*
X0031740Y0106871D01*
X0031656Y0106923D01*
X0031574Y0106979D01*
X0031494Y0107038D01*
X0031416Y0107100D01*
X0031341Y0107166D01*
X0031269Y0107234D01*
X0031199Y0107305D01*
X0031133Y0107378D01*
X0031069Y0107455D01*
X0031008Y0107533D01*
X0030951Y0107615D01*
X0030897Y0107698D01*
X0030846Y0107783D01*
X0030798Y0107871D01*
X0030754Y0107960D01*
X0030714Y0108051D01*
X0030677Y0108143D01*
X0030644Y0108237D01*
X0030615Y0108332D01*
X0030590Y0108428D01*
X0030568Y0108525D01*
X0030551Y0108623D01*
X0030537Y0108721D01*
X0030527Y0108820D01*
X0030521Y0108920D01*
X0030519Y0109019D01*
X0087047Y0039319D02*
X0087049Y0039403D01*
X0087055Y0039486D01*
X0087065Y0039569D01*
X0087079Y0039652D01*
X0087096Y0039734D01*
X0087118Y0039815D01*
X0087143Y0039894D01*
X0087172Y0039973D01*
X0087205Y0040050D01*
X0087241Y0040125D01*
X0087281Y0040199D01*
X0087324Y0040271D01*
X0087371Y0040340D01*
X0087421Y0040407D01*
X0087474Y0040472D01*
X0087530Y0040534D01*
X0087588Y0040594D01*
X0087650Y0040651D01*
X0087714Y0040704D01*
X0087781Y0040755D01*
X0087850Y0040802D01*
X0087921Y0040847D01*
X0087994Y0040887D01*
X0088069Y0040924D01*
X0088146Y0040958D01*
X0088224Y0040988D01*
X0088303Y0041014D01*
X0088384Y0041037D01*
X0088466Y0041055D01*
X0088548Y0041070D01*
X0088631Y0041081D01*
X0088714Y0041088D01*
X0088798Y0041091D01*
X0088882Y0041090D01*
X0088965Y0041085D01*
X0089049Y0041076D01*
X0089131Y0041063D01*
X0089213Y0041047D01*
X0089294Y0041026D01*
X0089375Y0041002D01*
X0089453Y0040974D01*
X0089531Y0040942D01*
X0089607Y0040906D01*
X0089681Y0040867D01*
X0089753Y0040825D01*
X0089823Y0040779D01*
X0089891Y0040730D01*
X0089956Y0040678D01*
X0090019Y0040623D01*
X0090079Y0040565D01*
X0090137Y0040504D01*
X0090191Y0040440D01*
X0090243Y0040374D01*
X0090291Y0040306D01*
X0090336Y0040235D01*
X0090377Y0040162D01*
X0090416Y0040088D01*
X0090450Y0040012D01*
X0090481Y0039934D01*
X0090508Y0039855D01*
X0090532Y0039774D01*
X0090551Y0039693D01*
X0090567Y0039611D01*
X0090579Y0039528D01*
X0090587Y0039444D01*
X0090591Y0039361D01*
X0090591Y0039277D01*
X0090587Y0039194D01*
X0090579Y0039110D01*
X0090567Y0039027D01*
X0090551Y0038945D01*
X0090532Y0038864D01*
X0090508Y0038783D01*
X0090481Y0038704D01*
X0090450Y0038626D01*
X0090416Y0038550D01*
X0090377Y0038476D01*
X0090336Y0038403D01*
X0090291Y0038332D01*
X0090243Y0038264D01*
X0090191Y0038198D01*
X0090137Y0038134D01*
X0090079Y0038073D01*
X0090019Y0038015D01*
X0089956Y0037960D01*
X0089891Y0037908D01*
X0089823Y0037859D01*
X0089753Y0037813D01*
X0089681Y0037771D01*
X0089607Y0037732D01*
X0089531Y0037696D01*
X0089453Y0037664D01*
X0089375Y0037636D01*
X0089294Y0037612D01*
X0089213Y0037591D01*
X0089131Y0037575D01*
X0089049Y0037562D01*
X0088965Y0037553D01*
X0088882Y0037548D01*
X0088798Y0037547D01*
X0088714Y0037550D01*
X0088631Y0037557D01*
X0088548Y0037568D01*
X0088466Y0037583D01*
X0088384Y0037601D01*
X0088303Y0037624D01*
X0088224Y0037650D01*
X0088146Y0037680D01*
X0088069Y0037714D01*
X0087994Y0037751D01*
X0087921Y0037791D01*
X0087850Y0037836D01*
X0087781Y0037883D01*
X0087714Y0037934D01*
X0087650Y0037987D01*
X0087588Y0038044D01*
X0087530Y0038104D01*
X0087474Y0038166D01*
X0087421Y0038231D01*
X0087371Y0038298D01*
X0087324Y0038367D01*
X0087281Y0038439D01*
X0087241Y0038513D01*
X0087205Y0038588D01*
X0087172Y0038665D01*
X0087143Y0038744D01*
X0087118Y0038823D01*
X0087096Y0038904D01*
X0087079Y0038986D01*
X0087065Y0039069D01*
X0087055Y0039152D01*
X0087049Y0039235D01*
X0087047Y0039319D01*
X0077719Y0021019D02*
X0077721Y0021118D01*
X0077727Y0021218D01*
X0077737Y0021317D01*
X0077751Y0021415D01*
X0077768Y0021513D01*
X0077790Y0021610D01*
X0077815Y0021706D01*
X0077844Y0021801D01*
X0077877Y0021895D01*
X0077914Y0021987D01*
X0077954Y0022078D01*
X0077998Y0022167D01*
X0078046Y0022255D01*
X0078097Y0022340D01*
X0078151Y0022423D01*
X0078208Y0022505D01*
X0078269Y0022583D01*
X0078333Y0022660D01*
X0078399Y0022733D01*
X0078469Y0022804D01*
X0078541Y0022872D01*
X0078616Y0022938D01*
X0078694Y0023000D01*
X0078774Y0023059D01*
X0078856Y0023115D01*
X0078940Y0023167D01*
X0079027Y0023216D01*
X0079115Y0023262D01*
X0079205Y0023304D01*
X0079297Y0023343D01*
X0079390Y0023378D01*
X0079484Y0023409D01*
X0079580Y0023436D01*
X0079677Y0023459D01*
X0079774Y0023479D01*
X0079872Y0023495D01*
X0079971Y0023507D01*
X0080070Y0023515D01*
X0080169Y0023519D01*
X0080269Y0023519D01*
X0080368Y0023515D01*
X0080467Y0023507D01*
X0080566Y0023495D01*
X0080664Y0023479D01*
X0080761Y0023459D01*
X0080858Y0023436D01*
X0080954Y0023409D01*
X0081048Y0023378D01*
X0081141Y0023343D01*
X0081233Y0023304D01*
X0081323Y0023262D01*
X0081411Y0023216D01*
X0081498Y0023167D01*
X0081582Y0023115D01*
X0081664Y0023059D01*
X0081744Y0023000D01*
X0081822Y0022938D01*
X0081897Y0022872D01*
X0081969Y0022804D01*
X0082039Y0022733D01*
X0082105Y0022660D01*
X0082169Y0022583D01*
X0082230Y0022505D01*
X0082287Y0022423D01*
X0082341Y0022340D01*
X0082392Y0022255D01*
X0082440Y0022167D01*
X0082484Y0022078D01*
X0082524Y0021987D01*
X0082561Y0021895D01*
X0082594Y0021801D01*
X0082623Y0021706D01*
X0082648Y0021610D01*
X0082670Y0021513D01*
X0082687Y0021415D01*
X0082701Y0021317D01*
X0082711Y0021218D01*
X0082717Y0021118D01*
X0082719Y0021019D01*
X0082717Y0020920D01*
X0082711Y0020820D01*
X0082701Y0020721D01*
X0082687Y0020623D01*
X0082670Y0020525D01*
X0082648Y0020428D01*
X0082623Y0020332D01*
X0082594Y0020237D01*
X0082561Y0020143D01*
X0082524Y0020051D01*
X0082484Y0019960D01*
X0082440Y0019871D01*
X0082392Y0019783D01*
X0082341Y0019698D01*
X0082287Y0019615D01*
X0082230Y0019533D01*
X0082169Y0019455D01*
X0082105Y0019378D01*
X0082039Y0019305D01*
X0081969Y0019234D01*
X0081897Y0019166D01*
X0081822Y0019100D01*
X0081744Y0019038D01*
X0081664Y0018979D01*
X0081582Y0018923D01*
X0081498Y0018871D01*
X0081411Y0018822D01*
X0081323Y0018776D01*
X0081233Y0018734D01*
X0081141Y0018695D01*
X0081048Y0018660D01*
X0080954Y0018629D01*
X0080858Y0018602D01*
X0080761Y0018579D01*
X0080664Y0018559D01*
X0080566Y0018543D01*
X0080467Y0018531D01*
X0080368Y0018523D01*
X0080269Y0018519D01*
X0080169Y0018519D01*
X0080070Y0018523D01*
X0079971Y0018531D01*
X0079872Y0018543D01*
X0079774Y0018559D01*
X0079677Y0018579D01*
X0079580Y0018602D01*
X0079484Y0018629D01*
X0079390Y0018660D01*
X0079297Y0018695D01*
X0079205Y0018734D01*
X0079115Y0018776D01*
X0079027Y0018822D01*
X0078940Y0018871D01*
X0078856Y0018923D01*
X0078774Y0018979D01*
X0078694Y0019038D01*
X0078616Y0019100D01*
X0078541Y0019166D01*
X0078469Y0019234D01*
X0078399Y0019305D01*
X0078333Y0019378D01*
X0078269Y0019455D01*
X0078208Y0019533D01*
X0078151Y0019615D01*
X0078097Y0019698D01*
X0078046Y0019783D01*
X0077998Y0019871D01*
X0077954Y0019960D01*
X0077914Y0020051D01*
X0077877Y0020143D01*
X0077844Y0020237D01*
X0077815Y0020332D01*
X0077790Y0020428D01*
X0077768Y0020525D01*
X0077751Y0020623D01*
X0077737Y0020721D01*
X0077727Y0020820D01*
X0077721Y0020920D01*
X0077719Y0021019D01*
X0114119Y0040619D02*
X0114121Y0040718D01*
X0114127Y0040818D01*
X0114137Y0040917D01*
X0114151Y0041015D01*
X0114168Y0041113D01*
X0114190Y0041210D01*
X0114215Y0041306D01*
X0114244Y0041401D01*
X0114277Y0041495D01*
X0114314Y0041587D01*
X0114354Y0041678D01*
X0114398Y0041767D01*
X0114446Y0041855D01*
X0114497Y0041940D01*
X0114551Y0042023D01*
X0114608Y0042105D01*
X0114669Y0042183D01*
X0114733Y0042260D01*
X0114799Y0042333D01*
X0114869Y0042404D01*
X0114941Y0042472D01*
X0115016Y0042538D01*
X0115094Y0042600D01*
X0115174Y0042659D01*
X0115256Y0042715D01*
X0115340Y0042767D01*
X0115427Y0042816D01*
X0115515Y0042862D01*
X0115605Y0042904D01*
X0115697Y0042943D01*
X0115790Y0042978D01*
X0115884Y0043009D01*
X0115980Y0043036D01*
X0116077Y0043059D01*
X0116174Y0043079D01*
X0116272Y0043095D01*
X0116371Y0043107D01*
X0116470Y0043115D01*
X0116569Y0043119D01*
X0116669Y0043119D01*
X0116768Y0043115D01*
X0116867Y0043107D01*
X0116966Y0043095D01*
X0117064Y0043079D01*
X0117161Y0043059D01*
X0117258Y0043036D01*
X0117354Y0043009D01*
X0117448Y0042978D01*
X0117541Y0042943D01*
X0117633Y0042904D01*
X0117723Y0042862D01*
X0117811Y0042816D01*
X0117898Y0042767D01*
X0117982Y0042715D01*
X0118064Y0042659D01*
X0118144Y0042600D01*
X0118222Y0042538D01*
X0118297Y0042472D01*
X0118369Y0042404D01*
X0118439Y0042333D01*
X0118505Y0042260D01*
X0118569Y0042183D01*
X0118630Y0042105D01*
X0118687Y0042023D01*
X0118741Y0041940D01*
X0118792Y0041855D01*
X0118840Y0041767D01*
X0118884Y0041678D01*
X0118924Y0041587D01*
X0118961Y0041495D01*
X0118994Y0041401D01*
X0119023Y0041306D01*
X0119048Y0041210D01*
X0119070Y0041113D01*
X0119087Y0041015D01*
X0119101Y0040917D01*
X0119111Y0040818D01*
X0119117Y0040718D01*
X0119119Y0040619D01*
X0119117Y0040520D01*
X0119111Y0040420D01*
X0119101Y0040321D01*
X0119087Y0040223D01*
X0119070Y0040125D01*
X0119048Y0040028D01*
X0119023Y0039932D01*
X0118994Y0039837D01*
X0118961Y0039743D01*
X0118924Y0039651D01*
X0118884Y0039560D01*
X0118840Y0039471D01*
X0118792Y0039383D01*
X0118741Y0039298D01*
X0118687Y0039215D01*
X0118630Y0039133D01*
X0118569Y0039055D01*
X0118505Y0038978D01*
X0118439Y0038905D01*
X0118369Y0038834D01*
X0118297Y0038766D01*
X0118222Y0038700D01*
X0118144Y0038638D01*
X0118064Y0038579D01*
X0117982Y0038523D01*
X0117898Y0038471D01*
X0117811Y0038422D01*
X0117723Y0038376D01*
X0117633Y0038334D01*
X0117541Y0038295D01*
X0117448Y0038260D01*
X0117354Y0038229D01*
X0117258Y0038202D01*
X0117161Y0038179D01*
X0117064Y0038159D01*
X0116966Y0038143D01*
X0116867Y0038131D01*
X0116768Y0038123D01*
X0116669Y0038119D01*
X0116569Y0038119D01*
X0116470Y0038123D01*
X0116371Y0038131D01*
X0116272Y0038143D01*
X0116174Y0038159D01*
X0116077Y0038179D01*
X0115980Y0038202D01*
X0115884Y0038229D01*
X0115790Y0038260D01*
X0115697Y0038295D01*
X0115605Y0038334D01*
X0115515Y0038376D01*
X0115427Y0038422D01*
X0115340Y0038471D01*
X0115256Y0038523D01*
X0115174Y0038579D01*
X0115094Y0038638D01*
X0115016Y0038700D01*
X0114941Y0038766D01*
X0114869Y0038834D01*
X0114799Y0038905D01*
X0114733Y0038978D01*
X0114669Y0039055D01*
X0114608Y0039133D01*
X0114551Y0039215D01*
X0114497Y0039298D01*
X0114446Y0039383D01*
X0114398Y0039471D01*
X0114354Y0039560D01*
X0114314Y0039651D01*
X0114277Y0039743D01*
X0114244Y0039837D01*
X0114215Y0039932D01*
X0114190Y0040028D01*
X0114168Y0040125D01*
X0114151Y0040223D01*
X0114137Y0040321D01*
X0114127Y0040420D01*
X0114121Y0040520D01*
X0114119Y0040619D01*
D11*
G36*
X0123289Y0046826D02*
X0118076Y0049599D01*
X0120849Y0054812D01*
X0126062Y0052039D01*
X0123289Y0046826D01*
G37*
G36*
X0089299Y0020750D02*
X0087572Y0026397D01*
X0093219Y0028124D01*
X0094946Y0022477D01*
X0089299Y0020750D01*
G37*
G36*
X0046826Y0026349D02*
X0049599Y0031562D01*
X0054812Y0028789D01*
X0052039Y0023576D01*
X0046826Y0026349D01*
G37*
G36*
X0020750Y0060338D02*
X0026397Y0062065D01*
X0028124Y0056418D01*
X0022477Y0054691D01*
X0020750Y0060338D01*
G37*
G36*
X0026349Y0102812D02*
X0031562Y0100039D01*
X0028789Y0094826D01*
X0023576Y0097599D01*
X0026349Y0102812D01*
G37*
G36*
X0060339Y0128887D02*
X0062066Y0123240D01*
X0056419Y0121513D01*
X0054692Y0127160D01*
X0060339Y0128887D01*
G37*
G36*
X0102812Y0123289D02*
X0100039Y0118076D01*
X0094826Y0120849D01*
X0097599Y0126062D01*
X0102812Y0123289D01*
G37*
G36*
X0128887Y0089299D02*
X0123240Y0087572D01*
X0121513Y0093219D01*
X0127160Y0094946D01*
X0128887Y0089299D01*
G37*
D12*
X0060319Y0081319D03*
X0060319Y0071319D03*
X0060319Y0066319D03*
D13*
X0060319Y0061319D03*
X0060319Y0076319D03*
X0078319Y0093319D03*
X0098319Y0093319D03*
D14*
X0093319Y0093319D03*
X0088319Y0093319D03*
X0083319Y0093319D03*
X0103319Y0093319D03*
D15*
X0074319Y0077469D03*
X0074319Y0071169D03*
D16*
X0095709Y0125437D02*
X0094454Y0125928D01*
X0093187Y0126389D01*
X0091910Y0126818D01*
X0090622Y0127217D01*
X0089325Y0127585D01*
X0088020Y0127922D01*
X0086707Y0128227D01*
X0085387Y0128500D01*
X0084061Y0128742D01*
X0082729Y0128951D01*
X0081393Y0129129D01*
X0080053Y0129274D01*
X0078710Y0129387D01*
X0077364Y0129467D01*
X0076017Y0129515D01*
X0074669Y0129531D01*
X0074669Y0129532D02*
X0074819Y0133569D01*
X0073647Y0131638D02*
X0073586Y0130015D01*
X0073577Y0130006D01*
X0073577Y0129995D01*
X0073569Y0129987D01*
X0073569Y0129552D01*
X0073553Y0129117D01*
X0073562Y0129108D01*
X0073500Y0125455D01*
X0072480Y0124434D01*
X0072480Y0122704D01*
X0073704Y0121480D01*
X0075434Y0121480D01*
X0076658Y0122704D01*
X0076658Y0124434D01*
X0075700Y0125393D01*
X0075750Y0128397D01*
X0078191Y0128320D01*
X0085177Y0127421D01*
X0091990Y0125635D01*
X0094136Y0124845D01*
X0092109Y0121106D01*
X0091888Y0120724D01*
X0091893Y0120708D01*
X0091885Y0120693D01*
X0092010Y0120270D01*
X0092125Y0119844D01*
X0092139Y0119835D01*
X0092144Y0119819D01*
X0092532Y0119609D01*
X0105688Y0112020D01*
X0106601Y0111355D01*
X0108924Y0110858D01*
X0111248Y0111348D01*
X0111248Y0111348D01*
X0112955Y0112582D01*
X0112959Y0112578D01*
X0112959Y0112577D01*
X0112962Y0112574D01*
X0114770Y0110710D01*
X0117279Y0107712D01*
X0117506Y0107376D01*
X0117548Y0107367D01*
X0117574Y0107334D01*
X0117989Y0107281D01*
X0118400Y0107201D01*
X0118436Y0107225D01*
X0118478Y0107220D01*
X0118809Y0107476D01*
X0119346Y0107838D01*
X0119454Y0107730D01*
X0121184Y0107730D01*
X0122408Y0108954D01*
X0122408Y0110599D01*
X0123041Y0109858D01*
X0122844Y0109383D01*
X0122844Y0105883D01*
X0123266Y0104863D01*
X0119829Y0103054D01*
X0117214Y0101827D01*
X0114633Y0100580D01*
X0114252Y0100435D01*
X0114229Y0100385D01*
X0114180Y0100361D01*
X0114046Y0099976D01*
X0113879Y0099603D01*
X0113898Y0099552D01*
X0113880Y0099501D01*
X0114058Y0099133D01*
X0120027Y0083464D01*
X0120147Y0083065D01*
X0120187Y0083044D01*
X0120203Y0083002D01*
X0120583Y0082831D01*
X0120950Y0082634D01*
X0120994Y0082647D01*
X0121035Y0082629D01*
X0121424Y0082777D01*
X0125931Y0084136D01*
X0126330Y0082108D01*
X0126948Y0075651D01*
X0126711Y0069169D01*
X0125625Y0062774D01*
X0125625Y0062774D01*
X0124980Y0060419D01*
X0101775Y0060419D01*
X0099464Y0062730D01*
X0100684Y0062730D01*
X0101908Y0063954D01*
X0101908Y0065684D01*
X0100919Y0066673D01*
X0100919Y0079613D01*
X0104525Y0083219D01*
X0105965Y0083219D01*
X0106954Y0082230D01*
X0108684Y0082230D01*
X0109908Y0083454D01*
X0109908Y0085184D01*
X0108684Y0086408D01*
X0106954Y0086408D01*
X0105965Y0085419D01*
X0103613Y0085419D01*
X0099363Y0081169D01*
X0098719Y0080525D01*
X0098719Y0066673D01*
X0097819Y0065773D01*
X0096684Y0066908D01*
X0094954Y0066908D01*
X0093730Y0065684D01*
X0093730Y0064964D01*
X0093419Y0065275D01*
X0093419Y0078575D01*
X0096676Y0085555D01*
X0100230Y0087742D01*
X0100230Y0086454D01*
X0101454Y0085230D01*
X0103184Y0085230D01*
X0104408Y0086454D01*
X0104408Y0088184D01*
X0103419Y0089173D01*
X0103419Y0089857D01*
X0103416Y0089860D01*
X0103775Y0090219D01*
X0104325Y0090769D01*
X0105250Y0090769D01*
X0105719Y0091238D01*
X0105719Y0095400D01*
X0105250Y0095869D01*
X0101388Y0095869D01*
X0100919Y0095400D01*
X0100919Y0094918D01*
X0100688Y0095263D01*
X0100263Y0095688D01*
X0099764Y0096022D01*
X0099288Y0096219D01*
X0107031Y0096219D01*
X0109732Y0097338D01*
X0109732Y0097338D01*
X0111800Y0099406D01*
X0112919Y0102107D01*
X0112919Y0105031D01*
X0111800Y0107732D01*
X0111800Y0107732D01*
X0109732Y0109800D01*
X0107031Y0110919D01*
X0101561Y0110919D01*
X0101491Y0111599D01*
X0099906Y0114551D01*
X0097318Y0116680D01*
X0094115Y0117666D01*
X0094115Y0117666D01*
X0090778Y0117360D01*
X0087807Y0115809D01*
X0087057Y0114919D01*
X0083025Y0114919D01*
X0081025Y0116919D01*
X0075863Y0116919D01*
X0075219Y0116275D01*
X0073219Y0114275D01*
X0073219Y0112673D01*
X0072908Y0112362D01*
X0072908Y0113184D01*
X0071684Y0114408D01*
X0071362Y0114408D01*
X0071408Y0114454D01*
X0071408Y0115276D01*
X0071454Y0115230D01*
X0073184Y0115230D01*
X0074408Y0116454D01*
X0074408Y0118184D01*
X0073184Y0119408D01*
X0071454Y0119408D01*
X0070965Y0118919D01*
X0069275Y0118919D01*
X0066919Y0121275D01*
X0066919Y0122275D01*
X0065699Y0123495D01*
X0065908Y0123704D01*
X0065908Y0125434D01*
X0064684Y0126658D01*
X0062954Y0126658D01*
X0062114Y0125818D01*
X0061007Y0129438D01*
X0060422Y0129749D01*
X0062816Y0130741D01*
X0065291Y0133216D01*
X0065488Y0133692D01*
X0065494Y0133693D01*
X0068850Y0133957D01*
X0069829Y0132978D01*
X0073064Y0131638D01*
X0073647Y0131638D01*
X0073635Y0131317D02*
X0072095Y0131317D01*
X0072394Y0131915D02*
X0071391Y0131915D01*
X0071572Y0131840D02*
X0070175Y0132419D01*
X0068663Y0132419D01*
X0067266Y0131840D01*
X0066198Y0130772D01*
X0065619Y0129375D01*
X0065619Y0127863D01*
X0066198Y0126466D01*
X0067266Y0125398D01*
X0068663Y0124819D01*
X0070175Y0124819D01*
X0071572Y0125398D01*
X0072640Y0126466D01*
X0073219Y0127863D01*
X0073219Y0129375D01*
X0072640Y0130772D01*
X0071572Y0131840D01*
X0070949Y0132514D02*
X0064589Y0132514D01*
X0065187Y0133112D02*
X0069695Y0133112D01*
X0069096Y0133711D02*
X0065720Y0133711D01*
X0067447Y0131915D02*
X0063990Y0131915D01*
X0063392Y0131317D02*
X0066743Y0131317D01*
X0066175Y0130718D02*
X0062762Y0130718D01*
X0061317Y0130120D02*
X0065928Y0130120D01*
X0065680Y0129521D02*
X0060851Y0129521D01*
X0061165Y0128923D02*
X0065619Y0128923D01*
X0065619Y0128324D02*
X0061348Y0128324D01*
X0061531Y0127726D02*
X0065676Y0127726D01*
X0065924Y0127127D02*
X0061714Y0127127D01*
X0061897Y0126529D02*
X0062824Y0126529D01*
X0062226Y0125930D02*
X0062080Y0125930D01*
X0063819Y0124569D02*
X0064319Y0123319D01*
X0065819Y0121819D01*
X0065819Y0120819D01*
X0068819Y0117819D01*
X0071819Y0117819D01*
X0072319Y0117319D01*
X0073844Y0118748D02*
X0094024Y0118748D01*
X0092987Y0119347D02*
X0073246Y0119347D01*
X0074408Y0118150D02*
X0095062Y0118150D01*
X0094488Y0117551D02*
X0096099Y0117551D01*
X0096434Y0116953D02*
X0097137Y0116953D01*
X0097318Y0116680D02*
X0097318Y0116680D01*
X0097715Y0116354D02*
X0098174Y0116354D01*
X0098442Y0115755D02*
X0099212Y0115755D01*
X0099170Y0115157D02*
X0100249Y0115157D01*
X0099898Y0114558D02*
X0101287Y0114558D01*
X0102324Y0113960D02*
X0100224Y0113960D01*
X0099906Y0114551D02*
X0099906Y0114551D01*
X0100545Y0113361D02*
X0103362Y0113361D01*
X0104400Y0112763D02*
X0100866Y0112763D01*
X0101188Y0112164D02*
X0105437Y0112164D01*
X0106311Y0111566D02*
X0101495Y0111566D01*
X0101491Y0111599D02*
X0101491Y0111599D01*
X0101556Y0110967D02*
X0108413Y0110967D01*
X0108924Y0110858D02*
X0108924Y0110858D01*
X0109442Y0110967D02*
X0114521Y0110967D01*
X0115056Y0110369D02*
X0108359Y0110369D01*
X0109732Y0109800D02*
X0109732Y0109800D01*
X0109762Y0109770D02*
X0115557Y0109770D01*
X0116058Y0109172D02*
X0110361Y0109172D01*
X0110959Y0108573D02*
X0116559Y0108573D01*
X0117059Y0107975D02*
X0111558Y0107975D01*
X0111948Y0107376D02*
X0117505Y0107376D01*
X0118680Y0107376D02*
X0122844Y0107376D01*
X0122844Y0106778D02*
X0112195Y0106778D01*
X0112443Y0106179D02*
X0122844Y0106179D01*
X0122969Y0105581D02*
X0112691Y0105581D01*
X0112919Y0104982D02*
X0123217Y0104982D01*
X0122355Y0104384D02*
X0112919Y0104384D01*
X0112919Y0103785D02*
X0121218Y0103785D01*
X0120081Y0103187D02*
X0112919Y0103187D01*
X0112919Y0102588D02*
X0118837Y0102588D01*
X0117562Y0101990D02*
X0112870Y0101990D01*
X0112623Y0101391D02*
X0116313Y0101391D01*
X0115074Y0100793D02*
X0112375Y0100793D01*
X0112127Y0100194D02*
X0114122Y0100194D01*
X0113882Y0099596D02*
X0111879Y0099596D01*
X0111800Y0099406D02*
X0111800Y0099406D01*
X0111392Y0098997D02*
X0114110Y0098997D01*
X0114338Y0098399D02*
X0110793Y0098399D01*
X0110195Y0097800D02*
X0114566Y0097800D01*
X0114794Y0097202D02*
X0109403Y0097202D01*
X0107958Y0096603D02*
X0115022Y0096603D01*
X0115250Y0096005D02*
X0099790Y0096005D01*
X0100545Y0095406D02*
X0100925Y0095406D01*
X0103319Y0093319D02*
X0103319Y0091319D01*
X0102319Y0090319D01*
X0101751Y0089970D01*
X0102319Y0089402D01*
X0102319Y0087319D01*
X0103784Y0085830D02*
X0106376Y0085830D01*
X0107819Y0084319D02*
X0104069Y0084319D01*
X0099819Y0080069D01*
X0099819Y0064819D01*
X0101513Y0066079D02*
X0126186Y0066079D01*
X0126085Y0065481D02*
X0101908Y0065481D01*
X0101908Y0064882D02*
X0125983Y0064882D01*
X0125881Y0064284D02*
X0101908Y0064284D01*
X0101639Y0063685D02*
X0125780Y0063685D01*
X0125678Y0063087D02*
X0101041Y0063087D01*
X0100304Y0061889D02*
X0125383Y0061889D01*
X0125219Y0061291D02*
X0100903Y0061291D01*
X0101501Y0060692D02*
X0125055Y0060692D01*
X0125819Y0059319D02*
X0101319Y0059319D01*
X0095819Y0064819D01*
X0097513Y0066079D02*
X0098125Y0066079D01*
X0098719Y0066678D02*
X0096915Y0066678D01*
X0098719Y0067276D02*
X0093419Y0067276D01*
X0093419Y0066678D02*
X0094723Y0066678D01*
X0094125Y0066079D02*
X0093419Y0066079D01*
X0093419Y0065481D02*
X0093730Y0065481D01*
X0092319Y0064819D02*
X0092319Y0069819D01*
X0089569Y0069819D01*
X0090877Y0071466D02*
X0091219Y0071466D01*
X0091219Y0071123D02*
X0090434Y0071908D01*
X0088704Y0071908D01*
X0088408Y0071612D01*
X0088408Y0072934D01*
X0087648Y0073694D01*
X0088408Y0074454D01*
X0088408Y0076184D01*
X0087184Y0077408D01*
X0085454Y0077408D01*
X0084230Y0076184D01*
X0084230Y0074786D01*
X0079719Y0070275D01*
X0079719Y0057775D01*
X0071863Y0049919D01*
X0054613Y0049919D01*
X0053969Y0049275D01*
X0053969Y0049275D01*
X0052408Y0047714D01*
X0052408Y0048934D01*
X0051184Y0050158D01*
X0049454Y0050158D01*
X0048230Y0048934D01*
X0048230Y0047204D01*
X0049454Y0045980D01*
X0050674Y0045980D01*
X0046113Y0041419D01*
X0041025Y0041419D01*
X0036919Y0045525D01*
X0036919Y0057965D01*
X0037908Y0058954D01*
X0037908Y0060684D01*
X0036684Y0061908D01*
X0034954Y0061908D01*
X0034069Y0061023D01*
X0033184Y0061908D01*
X0031454Y0061908D01*
X0030665Y0061119D01*
X0029014Y0066163D01*
X0029674Y0065503D01*
X0030875Y0065006D01*
X0032175Y0065006D01*
X0033377Y0065503D01*
X0034296Y0066423D01*
X0034794Y0067624D01*
X0034794Y0068924D01*
X0034296Y0070126D01*
X0033377Y0071045D01*
X0032175Y0071543D01*
X0030875Y0071543D01*
X0029674Y0071045D01*
X0028754Y0070126D01*
X0028257Y0068924D01*
X0028257Y0068476D01*
X0028119Y0068897D01*
X0027994Y0069319D01*
X0027978Y0069327D01*
X0027973Y0069344D01*
X0027580Y0069543D01*
X0027192Y0069753D01*
X0027176Y0069748D01*
X0027160Y0069756D01*
X0026741Y0069619D01*
X0023115Y0068541D01*
X0022813Y0070888D01*
X0022766Y0078112D01*
X0023880Y0085249D01*
X0024759Y0088356D01*
X0024784Y0088371D01*
X0024879Y0088770D01*
X0025006Y0089160D01*
X0024982Y0089207D01*
X0024995Y0089257D01*
X0024780Y0089607D01*
X0024594Y0089973D01*
X0024544Y0089989D01*
X0024517Y0090034D01*
X0024118Y0090129D01*
X0023728Y0090256D01*
X0023681Y0090232D01*
X0020235Y0091053D01*
X0020235Y0092730D01*
X0021934Y0092730D01*
X0022135Y0092931D01*
X0023730Y0092007D01*
X0023730Y0091204D01*
X0024954Y0089980D01*
X0026684Y0089980D01*
X0027908Y0091204D01*
X0027908Y0092593D01*
X0028128Y0092454D01*
X0031219Y0089363D01*
X0031219Y0075623D01*
X0030434Y0076408D01*
X0028704Y0076408D01*
X0027480Y0075184D01*
X0027480Y0073454D01*
X0028704Y0072230D01*
X0030434Y0072230D01*
X0031423Y0073219D01*
X0031863Y0073219D01*
X0046230Y0058852D01*
X0046230Y0057454D01*
X0047454Y0056230D01*
X0049184Y0056230D01*
X0050408Y0057454D01*
X0050408Y0059184D01*
X0049373Y0060219D01*
X0058015Y0060219D01*
X0058157Y0059875D01*
X0058875Y0059157D01*
X0059812Y0058769D01*
X0060826Y0058769D01*
X0061763Y0059157D01*
X0062481Y0059875D01*
X0062869Y0060812D01*
X0062869Y0061826D01*
X0062481Y0062763D01*
X0061763Y0063481D01*
X0060826Y0063869D01*
X0059812Y0063869D01*
X0058875Y0063481D01*
X0058157Y0062763D01*
X0058015Y0062419D01*
X0055475Y0062419D01*
X0057769Y0064713D01*
X0057769Y0064388D01*
X0058238Y0063919D01*
X0062400Y0063919D01*
X0062869Y0064388D01*
X0062869Y0068250D01*
X0062400Y0068719D01*
X0058238Y0068719D01*
X0057769Y0068250D01*
X0057769Y0067419D01*
X0057363Y0067419D01*
X0056719Y0066775D01*
X0053863Y0063919D01*
X0048275Y0063919D01*
X0036419Y0075775D01*
X0036419Y0083163D01*
X0045719Y0073863D01*
X0046363Y0073219D01*
X0054863Y0073219D01*
X0057219Y0070863D01*
X0057769Y0070313D01*
X0057769Y0069388D01*
X0058238Y0068919D01*
X0062400Y0068919D01*
X0062869Y0069388D01*
X0062869Y0070313D01*
X0063419Y0070863D01*
X0064419Y0071863D01*
X0064419Y0077863D01*
X0069275Y0082719D01*
X0069465Y0082719D01*
X0070454Y0081730D01*
X0072184Y0081730D01*
X0073408Y0082954D01*
X0073408Y0084684D01*
X0072184Y0085908D01*
X0070454Y0085908D01*
X0069465Y0084919D01*
X0068363Y0084919D01*
X0067719Y0084275D01*
X0062869Y0079425D01*
X0062869Y0083250D01*
X0062400Y0083719D01*
X0058238Y0083719D01*
X0057769Y0083250D01*
X0057769Y0082419D01*
X0054506Y0082419D01*
X0053517Y0083408D01*
X0051787Y0083408D01*
X0050798Y0082419D01*
X0042275Y0082419D01*
X0040419Y0084275D01*
X0040419Y0090265D01*
X0040954Y0089730D01*
X0042684Y0089730D01*
X0043569Y0090615D01*
X0044454Y0089730D01*
X0046184Y0089730D01*
X0047408Y0090954D01*
X0047408Y0092684D01*
X0046184Y0093908D01*
X0044454Y0093908D01*
X0044419Y0093873D01*
X0044419Y0099107D01*
X0044668Y0099730D01*
X0045184Y0099730D01*
X0046408Y0100954D01*
X0046408Y0102684D01*
X0045184Y0103908D01*
X0044362Y0103908D01*
X0044908Y0104454D01*
X0044908Y0106184D01*
X0044023Y0107069D01*
X0044908Y0107954D01*
X0044908Y0109352D01*
X0046275Y0110719D01*
X0047275Y0110719D01*
X0052275Y0115719D01*
X0056363Y0115719D01*
X0068863Y0103219D01*
X0077363Y0103219D01*
X0079863Y0100719D01*
X0084663Y0100719D01*
X0082863Y0098919D01*
X0082219Y0098275D01*
X0082219Y0095869D01*
X0081388Y0095869D01*
X0080919Y0095400D01*
X0080919Y0091238D01*
X0081388Y0090769D01*
X0085250Y0090769D01*
X0085719Y0091238D01*
X0085719Y0095400D01*
X0085250Y0095869D01*
X0084419Y0095869D01*
X0084419Y0097363D01*
X0086275Y0099219D01*
X0088163Y0099219D01*
X0087219Y0098275D01*
X0087219Y0095869D01*
X0086388Y0095869D01*
X0085919Y0095400D01*
X0085919Y0091238D01*
X0086388Y0090769D01*
X0090250Y0090769D01*
X0090719Y0091238D01*
X0090719Y0095400D01*
X0090250Y0095869D01*
X0089419Y0095869D01*
X0089419Y0097363D01*
X0089775Y0097719D01*
X0093163Y0097719D01*
X0092219Y0096775D01*
X0092219Y0095869D01*
X0091388Y0095869D01*
X0090919Y0095400D01*
X0090919Y0091238D01*
X0091388Y0090769D01*
X0095250Y0090769D01*
X0095719Y0091238D01*
X0095719Y0091720D01*
X0095950Y0091375D01*
X0096375Y0090950D01*
X0096874Y0090616D01*
X0097429Y0090386D01*
X0098019Y0090269D01*
X0098244Y0090269D01*
X0098244Y0093244D01*
X0098394Y0093244D01*
X0098394Y0090269D01*
X0098619Y0090269D01*
X0099209Y0090386D01*
X0099764Y0090616D01*
X0100263Y0090950D01*
X0100688Y0091375D01*
X0100919Y0091720D01*
X0100919Y0091238D01*
X0101191Y0090965D01*
X0101065Y0090839D01*
X0100787Y0090668D01*
X0095338Y0087314D01*
X0095015Y0087197D01*
X0094962Y0087083D01*
X0094854Y0087017D01*
X0094775Y0086683D01*
X0093540Y0084037D01*
X0093540Y0085633D01*
X0092863Y0087268D01*
X0091611Y0088520D01*
X0089975Y0089198D01*
X0088205Y0089198D01*
X0086570Y0088520D01*
X0085318Y0087268D01*
X0084641Y0085633D01*
X0084641Y0083863D01*
X0085318Y0082227D01*
X0086570Y0080976D01*
X0088205Y0080298D01*
X0089975Y0080298D01*
X0091611Y0080976D01*
X0092550Y0081915D01*
X0091618Y0079919D01*
X0086775Y0079919D01*
X0084275Y0082419D01*
X0083363Y0082419D01*
X0082719Y0081775D01*
X0082719Y0080863D01*
X0085219Y0078363D01*
X0085863Y0077719D01*
X0091219Y0077719D01*
X0091219Y0071123D01*
X0091219Y0072064D02*
X0088408Y0072064D01*
X0088408Y0072663D02*
X0091219Y0072663D01*
X0091219Y0073261D02*
X0088081Y0073261D01*
X0087814Y0073860D02*
X0091219Y0073860D01*
X0091219Y0074458D02*
X0088408Y0074458D01*
X0088408Y0075057D02*
X0091219Y0075057D01*
X0091219Y0075655D02*
X0088408Y0075655D01*
X0088338Y0076254D02*
X0091219Y0076254D01*
X0091219Y0076852D02*
X0087740Y0076852D01*
X0086319Y0075319D02*
X0080819Y0069819D01*
X0080819Y0057319D01*
X0072319Y0048819D01*
X0055069Y0048819D01*
X0052474Y0046224D01*
X0046569Y0040319D01*
X0040569Y0040319D01*
X0035819Y0045069D01*
X0035819Y0059819D01*
X0034337Y0061291D02*
X0033801Y0061291D01*
X0033203Y0061889D02*
X0034935Y0061889D01*
X0036703Y0061889D02*
X0043193Y0061889D01*
X0043791Y0061291D02*
X0037301Y0061291D01*
X0037900Y0060692D02*
X0044390Y0060692D01*
X0044988Y0060094D02*
X0037908Y0060094D01*
X0037908Y0059495D02*
X0045587Y0059495D01*
X0046185Y0058897D02*
X0037851Y0058897D01*
X0037253Y0058298D02*
X0046230Y0058298D01*
X0046230Y0057700D02*
X0036919Y0057700D01*
X0036919Y0057101D02*
X0046582Y0057101D01*
X0047181Y0056503D02*
X0036919Y0056503D01*
X0036919Y0055904D02*
X0065855Y0055904D01*
X0065855Y0055929D02*
X0065855Y0054628D01*
X0066353Y0053427D01*
X0067272Y0052508D01*
X0068474Y0052010D01*
X0069774Y0052010D01*
X0070975Y0052508D01*
X0071895Y0053427D01*
X0072392Y0054628D01*
X0072392Y0055929D01*
X0071895Y0057130D01*
X0070975Y0058049D01*
X0069774Y0058547D01*
X0068474Y0058547D01*
X0067272Y0058049D01*
X0066353Y0057130D01*
X0065855Y0055929D01*
X0066093Y0056503D02*
X0049457Y0056503D01*
X0050056Y0057101D02*
X0066341Y0057101D01*
X0066923Y0057700D02*
X0050408Y0057700D01*
X0050408Y0058298D02*
X0067874Y0058298D01*
X0070374Y0058298D02*
X0079719Y0058298D01*
X0079719Y0058897D02*
X0061135Y0058897D01*
X0062102Y0059495D02*
X0079719Y0059495D01*
X0079719Y0060094D02*
X0062572Y0060094D01*
X0062820Y0060692D02*
X0079719Y0060692D01*
X0079719Y0061291D02*
X0062869Y0061291D01*
X0062843Y0061889D02*
X0079719Y0061889D01*
X0079719Y0062488D02*
X0062595Y0062488D01*
X0062158Y0063087D02*
X0079719Y0063087D01*
X0079719Y0063685D02*
X0061270Y0063685D01*
X0062765Y0064284D02*
X0079719Y0064284D01*
X0079719Y0064882D02*
X0062869Y0064882D01*
X0062869Y0065481D02*
X0079719Y0065481D01*
X0079719Y0066079D02*
X0062869Y0066079D01*
X0062869Y0066678D02*
X0079719Y0066678D01*
X0079719Y0067276D02*
X0062869Y0067276D01*
X0062869Y0067875D02*
X0079719Y0067875D01*
X0079719Y0068473D02*
X0062646Y0068473D01*
X0062553Y0069072D02*
X0079719Y0069072D01*
X0079719Y0069670D02*
X0078072Y0069670D01*
X0078072Y0069657D02*
X0078072Y0072682D01*
X0077603Y0073150D01*
X0071035Y0073150D01*
X0070566Y0072682D01*
X0070566Y0069657D01*
X0071035Y0069188D01*
X0077603Y0069188D01*
X0078072Y0069657D01*
X0078072Y0070269D02*
X0079719Y0070269D01*
X0080312Y0070867D02*
X0078072Y0070867D01*
X0078072Y0071466D02*
X0080910Y0071466D01*
X0081509Y0072064D02*
X0078072Y0072064D01*
X0078072Y0072663D02*
X0082107Y0072663D01*
X0082706Y0073261D02*
X0064419Y0073261D01*
X0064419Y0072663D02*
X0070566Y0072663D01*
X0070566Y0072064D02*
X0064419Y0072064D01*
X0064021Y0071466D02*
X0070566Y0071466D01*
X0070566Y0070867D02*
X0063423Y0070867D01*
X0062869Y0070269D02*
X0070566Y0070269D01*
X0070566Y0069670D02*
X0062869Y0069670D01*
X0062319Y0071319D02*
X0060319Y0071319D01*
X0058319Y0071319D01*
X0055319Y0074319D01*
X0046819Y0074319D01*
X0036819Y0084319D01*
X0036819Y0095319D01*
X0039319Y0098319D01*
X0039319Y0094319D02*
X0039319Y0083819D01*
X0041819Y0081319D01*
X0052652Y0081319D01*
X0060319Y0081319D01*
X0058720Y0078919D02*
X0058375Y0078688D01*
X0057950Y0078263D01*
X0057616Y0077764D01*
X0057386Y0077209D01*
X0057269Y0076619D01*
X0057269Y0076394D01*
X0060244Y0076394D01*
X0060244Y0076244D01*
X0057269Y0076244D01*
X0057269Y0076019D01*
X0057386Y0075429D01*
X0057616Y0074874D01*
X0057950Y0074375D01*
X0058375Y0073950D01*
X0058720Y0073719D01*
X0058238Y0073719D01*
X0057856Y0073337D01*
X0056419Y0074775D01*
X0056419Y0074775D01*
X0055775Y0075419D01*
X0047275Y0075419D01*
X0042475Y0080219D01*
X0050798Y0080219D01*
X0051787Y0079230D01*
X0053517Y0079230D01*
X0054506Y0080219D01*
X0057769Y0080219D01*
X0057769Y0079388D01*
X0058238Y0078919D01*
X0058720Y0078919D01*
X0058334Y0078648D02*
X0044046Y0078648D01*
X0044644Y0078049D02*
X0057807Y0078049D01*
X0057487Y0077451D02*
X0045243Y0077451D01*
X0045841Y0076852D02*
X0057315Y0076852D01*
X0057341Y0075655D02*
X0047038Y0075655D01*
X0046440Y0076254D02*
X0060244Y0076254D01*
X0058510Y0073860D02*
X0057334Y0073860D01*
X0057894Y0074458D02*
X0056735Y0074458D01*
X0056137Y0075057D02*
X0057541Y0075057D01*
X0055420Y0072663D02*
X0053593Y0072663D01*
X0054323Y0072360D02*
X0052687Y0073038D01*
X0050917Y0073038D01*
X0049282Y0072360D01*
X0048030Y0071109D01*
X0047353Y0069473D01*
X0047353Y0067703D01*
X0048030Y0066068D01*
X0049282Y0064816D01*
X0050917Y0064139D01*
X0052687Y0064139D01*
X0054323Y0064816D01*
X0055574Y0066068D01*
X0056252Y0067703D01*
X0056252Y0069473D01*
X0055574Y0071109D01*
X0054323Y0072360D01*
X0054619Y0072064D02*
X0056018Y0072064D01*
X0056617Y0071466D02*
X0055218Y0071466D01*
X0055675Y0070867D02*
X0057215Y0070867D01*
X0057769Y0070269D02*
X0055922Y0070269D01*
X0056170Y0069670D02*
X0057769Y0069670D01*
X0058085Y0069072D02*
X0056252Y0069072D01*
X0056252Y0068473D02*
X0057992Y0068473D01*
X0057769Y0067875D02*
X0056252Y0067875D01*
X0056075Y0067276D02*
X0057220Y0067276D01*
X0056622Y0066678D02*
X0055827Y0066678D01*
X0056023Y0066079D02*
X0055579Y0066079D01*
X0055425Y0065481D02*
X0054987Y0065481D01*
X0054826Y0064882D02*
X0054389Y0064882D01*
X0054228Y0064284D02*
X0053037Y0064284D01*
X0054319Y0062819D02*
X0057819Y0066319D01*
X0060319Y0066319D01*
X0059368Y0063685D02*
X0056741Y0063685D01*
X0057339Y0064284D02*
X0057873Y0064284D01*
X0058480Y0063087D02*
X0056142Y0063087D01*
X0055544Y0062488D02*
X0058043Y0062488D01*
X0058066Y0060094D02*
X0049498Y0060094D01*
X0050097Y0059495D02*
X0058536Y0059495D01*
X0059503Y0058897D02*
X0050408Y0058897D01*
X0048319Y0058319D02*
X0032319Y0074319D01*
X0029569Y0074319D01*
X0027480Y0074458D02*
X0022790Y0074458D01*
X0022794Y0073860D02*
X0027480Y0073860D01*
X0027673Y0073261D02*
X0022798Y0073261D01*
X0022802Y0072663D02*
X0028271Y0072663D01*
X0029496Y0070867D02*
X0022816Y0070867D01*
X0022810Y0071466D02*
X0030689Y0071466D01*
X0030867Y0072663D02*
X0032420Y0072663D01*
X0033018Y0072064D02*
X0022806Y0072064D01*
X0022893Y0070269D02*
X0028897Y0070269D01*
X0028566Y0069670D02*
X0027346Y0069670D01*
X0026897Y0069670D02*
X0022970Y0069670D01*
X0023047Y0069072D02*
X0024899Y0069072D01*
X0027069Y0068569D02*
X0022189Y0067119D01*
X0021035Y0065310D02*
X0026069Y0066819D01*
X0029569Y0055819D01*
X0023319Y0053819D01*
X0021819Y0052319D01*
X0026359Y0053186D02*
X0031569Y0054819D01*
X0027069Y0068569D01*
X0028067Y0069072D02*
X0028318Y0069072D01*
X0029041Y0066079D02*
X0029098Y0066079D01*
X0029237Y0065481D02*
X0029729Y0065481D01*
X0029433Y0064882D02*
X0040200Y0064882D01*
X0039602Y0065481D02*
X0033322Y0065481D01*
X0033953Y0066079D02*
X0039003Y0066079D01*
X0038405Y0066678D02*
X0034402Y0066678D01*
X0034650Y0067276D02*
X0037806Y0067276D01*
X0037208Y0067875D02*
X0034794Y0067875D01*
X0034794Y0068473D02*
X0036609Y0068473D01*
X0036011Y0069072D02*
X0034733Y0069072D01*
X0034485Y0069670D02*
X0035412Y0069670D01*
X0034814Y0070269D02*
X0034153Y0070269D01*
X0034215Y0070867D02*
X0033555Y0070867D01*
X0033617Y0071466D02*
X0032361Y0071466D01*
X0032319Y0074319D02*
X0032319Y0089819D01*
X0028819Y0093319D01*
X0027569Y0098819D01*
X0031069Y0103819D02*
X0032819Y0104569D01*
X0032951Y0104565D01*
X0033084Y0104566D01*
X0033216Y0104570D01*
X0033349Y0104578D01*
X0033481Y0104590D01*
X0033612Y0104606D01*
X0033744Y0104626D01*
X0033874Y0104650D01*
X0034004Y0104677D01*
X0034133Y0104709D01*
X0034261Y0104744D01*
X0034387Y0104783D01*
X0034513Y0104825D01*
X0034637Y0104871D01*
X0034760Y0104921D01*
X0034882Y0104974D01*
X0035002Y0105031D01*
X0035120Y0105091D01*
X0035236Y0105155D01*
X0035350Y0105222D01*
X0035463Y0105293D01*
X0035573Y0105367D01*
X0035681Y0105444D01*
X0035787Y0105524D01*
X0035890Y0105607D01*
X0035991Y0105693D01*
X0036089Y0105782D01*
X0036185Y0105874D01*
X0036278Y0105969D01*
X0036368Y0106066D01*
X0036455Y0106166D01*
X0036539Y0106268D01*
X0036620Y0106373D01*
X0036698Y0106480D01*
X0036773Y0106590D01*
X0036845Y0106702D01*
X0036913Y0106815D01*
X0036978Y0106931D01*
X0037040Y0107048D01*
X0037098Y0107167D01*
X0037152Y0107288D01*
X0037204Y0107411D01*
X0037251Y0107535D01*
X0037295Y0107660D01*
X0037335Y0107786D01*
X0037371Y0107914D01*
X0037404Y0108042D01*
X0037433Y0108172D01*
X0037458Y0108302D01*
X0037479Y0108433D01*
X0037496Y0108564D01*
X0037510Y0108696D01*
X0037519Y0108829D01*
X0037525Y0108961D01*
X0037527Y0109094D01*
X0037525Y0109226D01*
X0037519Y0109359D01*
X0037509Y0109491D01*
X0037496Y0109623D01*
X0037478Y0109754D01*
X0037457Y0109885D01*
X0037432Y0110016D01*
X0037403Y0110145D01*
X0037370Y0110273D01*
X0037333Y0110401D01*
X0037293Y0110527D01*
X0037249Y0110652D01*
X0037202Y0110776D01*
X0037150Y0110899D01*
X0037096Y0111019D01*
X0037037Y0111139D01*
X0036976Y0111256D01*
X0036910Y0111371D01*
X0036842Y0111485D01*
X0036770Y0111597D01*
X0036695Y0111706D01*
X0036617Y0111813D01*
X0036536Y0111918D01*
X0036451Y0112020D01*
X0036364Y0112120D01*
X0036274Y0112217D01*
X0036181Y0112312D01*
X0036085Y0112404D01*
X0035987Y0112493D01*
X0035886Y0112579D01*
X0035782Y0112662D01*
X0035677Y0112742D01*
X0035568Y0112818D01*
X0035569Y0112819D02*
X0032819Y0116069D01*
X0038819Y0111819D02*
X0038819Y0103319D01*
X0033819Y0098319D01*
X0033819Y0074819D01*
X0047319Y0061319D01*
X0060319Y0061319D01*
X0054319Y0062819D02*
X0047819Y0062819D01*
X0035319Y0075319D01*
X0035319Y0097866D01*
X0040272Y0102819D01*
X0040319Y0102819D01*
X0040319Y0109819D01*
X0042819Y0112319D01*
X0045819Y0111819D02*
X0042819Y0108819D01*
X0044331Y0107376D02*
X0064706Y0107376D01*
X0065305Y0106778D02*
X0044314Y0106778D01*
X0044908Y0106179D02*
X0065903Y0106179D01*
X0066502Y0105581D02*
X0044908Y0105581D01*
X0044908Y0104982D02*
X0067100Y0104982D01*
X0067699Y0104384D02*
X0044838Y0104384D01*
X0045307Y0103785D02*
X0068297Y0103785D01*
X0069319Y0104319D02*
X0056819Y0116819D01*
X0051819Y0116819D01*
X0046819Y0111819D01*
X0045819Y0111819D01*
X0045925Y0110369D02*
X0061713Y0110369D01*
X0061115Y0110967D02*
X0047523Y0110967D01*
X0048122Y0111566D02*
X0060516Y0111566D01*
X0059918Y0112164D02*
X0048720Y0112164D01*
X0049319Y0112763D02*
X0059319Y0112763D01*
X0058721Y0113361D02*
X0049917Y0113361D01*
X0050516Y0113960D02*
X0058122Y0113960D01*
X0057524Y0114558D02*
X0051114Y0114558D01*
X0051713Y0115157D02*
X0056925Y0115157D01*
X0057319Y0118319D02*
X0054319Y0118319D01*
X0052319Y0120069D01*
X0054819Y0121069D02*
X0053819Y0122819D01*
X0054819Y0121069D02*
X0055569Y0120319D01*
X0057319Y0120319D01*
X0070559Y0107079D01*
X0083079Y0107079D01*
X0081819Y0109319D02*
X0080819Y0108319D01*
X0071319Y0108319D01*
X0069819Y0109819D01*
X0058379Y0121259D01*
X0058379Y0125200D01*
X0063319Y0120819D02*
X0063819Y0120819D01*
X0069319Y0115319D01*
X0071408Y0115157D02*
X0074101Y0115157D01*
X0073710Y0115755D02*
X0074700Y0115755D01*
X0074308Y0116354D02*
X0075298Y0116354D01*
X0074408Y0116953D02*
X0089997Y0116953D01*
X0090778Y0117360D02*
X0090778Y0117360D01*
X0088850Y0116354D02*
X0081590Y0116354D01*
X0082188Y0115755D02*
X0087761Y0115755D01*
X0087807Y0115809D02*
X0087807Y0115809D01*
X0087258Y0115157D02*
X0082787Y0115157D01*
X0082569Y0113819D02*
X0087569Y0113819D01*
X0088319Y0112319D02*
X0081819Y0112319D01*
X0080819Y0113319D01*
X0077319Y0113319D01*
X0077819Y0113319D01*
X0079819Y0110819D02*
X0089169Y0110819D01*
X0087568Y0113819D02*
X0087686Y0113956D01*
X0087807Y0114089D01*
X0087931Y0114219D01*
X0088058Y0114347D01*
X0088189Y0114471D01*
X0088322Y0114592D01*
X0088458Y0114710D01*
X0088597Y0114824D01*
X0088739Y0114935D01*
X0088883Y0115042D01*
X0089030Y0115146D01*
X0089180Y0115246D01*
X0089332Y0115343D01*
X0089486Y0115436D01*
X0089642Y0115525D01*
X0089801Y0115610D01*
X0089961Y0115692D01*
X0090124Y0115769D01*
X0090288Y0115842D01*
X0090454Y0115912D01*
X0090622Y0115977D01*
X0090791Y0116038D01*
X0090962Y0116095D01*
X0091134Y0116148D01*
X0091307Y0116197D01*
X0091482Y0116242D01*
X0091657Y0116282D01*
X0091833Y0116318D01*
X0092011Y0116349D01*
X0092189Y0116377D01*
X0092367Y0116400D01*
X0092546Y0116418D01*
X0092726Y0116432D01*
X0092905Y0116442D01*
X0093085Y0116448D01*
X0093265Y0116449D01*
X0093445Y0116446D01*
X0093625Y0116438D01*
X0093805Y0116426D01*
X0093984Y0116409D01*
X0094163Y0116389D01*
X0094341Y0116363D01*
X0094519Y0116334D01*
X0094695Y0116300D01*
X0094871Y0116262D01*
X0095046Y0116220D01*
X0095220Y0116173D01*
X0095393Y0116122D01*
X0095564Y0116067D01*
X0095734Y0116008D01*
X0095903Y0115945D01*
X0096069Y0115877D01*
X0096235Y0115806D01*
X0096398Y0115730D01*
X0096560Y0115651D01*
X0096719Y0115568D01*
X0096877Y0115481D01*
X0097032Y0115390D01*
X0097185Y0115295D01*
X0097336Y0115196D01*
X0097484Y0115094D01*
X0097630Y0114989D01*
X0097773Y0114879D01*
X0097913Y0114767D01*
X0098051Y0114651D01*
X0098186Y0114531D01*
X0098317Y0114409D01*
X0098446Y0114283D01*
X0098572Y0114154D01*
X0098694Y0114022D01*
X0098814Y0113887D01*
X0098929Y0113750D01*
X0099042Y0113609D01*
X0099151Y0113466D01*
X0099257Y0113320D01*
X0099359Y0113172D01*
X0099457Y0113021D01*
X0099552Y0112868D01*
X0099642Y0112713D01*
X0099729Y0112555D01*
X0099813Y0112396D01*
X0099892Y0112234D01*
X0099967Y0112070D01*
X0100039Y0111905D01*
X0100106Y0111738D01*
X0100169Y0111570D01*
X0100228Y0111400D01*
X0100283Y0111228D01*
X0100334Y0111055D01*
X0100380Y0110882D01*
X0100422Y0110707D01*
X0100460Y0110531D01*
X0100494Y0110354D01*
X0100523Y0110176D01*
X0100548Y0109998D01*
X0100569Y0109819D01*
X0105569Y0109819D01*
X0105569Y0108319D02*
X0099069Y0108319D01*
X0097069Y0106819D02*
X0105569Y0106819D01*
X0105819Y0104319D02*
X0103319Y0101819D01*
X0080319Y0101819D01*
X0077819Y0104319D01*
X0069319Y0104319D01*
X0069819Y0105819D02*
X0079819Y0105819D01*
X0080819Y0104819D01*
X0077994Y0102588D02*
X0046408Y0102588D01*
X0046408Y0101990D02*
X0078593Y0101990D01*
X0079191Y0101391D02*
X0046408Y0101391D01*
X0046247Y0100793D02*
X0079790Y0100793D01*
X0077396Y0103187D02*
X0045905Y0103187D01*
X0044319Y0101819D02*
X0043319Y0099319D01*
X0043319Y0093319D01*
X0045319Y0091819D01*
X0047408Y0091815D02*
X0076217Y0091815D01*
X0076157Y0091875D02*
X0076875Y0091157D01*
X0077812Y0090769D01*
X0078826Y0090769D01*
X0079763Y0091157D01*
X0080481Y0091875D01*
X0080869Y0092812D01*
X0080869Y0093826D01*
X0080481Y0094763D01*
X0079763Y0095481D01*
X0078826Y0095869D01*
X0077812Y0095869D01*
X0076875Y0095481D01*
X0076157Y0094763D01*
X0075769Y0093826D01*
X0075769Y0092812D01*
X0076157Y0091875D01*
X0075934Y0092414D02*
X0047408Y0092414D01*
X0047080Y0093012D02*
X0070438Y0093012D01*
X0070174Y0093122D02*
X0071375Y0092624D01*
X0072675Y0092624D01*
X0073877Y0093122D01*
X0074796Y0094041D01*
X0075294Y0095242D01*
X0075294Y0096543D01*
X0074796Y0097744D01*
X0073877Y0098663D01*
X0072675Y0099161D01*
X0071375Y0099161D01*
X0070174Y0098663D01*
X0069254Y0097744D01*
X0068757Y0096543D01*
X0068757Y0095242D01*
X0069254Y0094041D01*
X0070174Y0093122D01*
X0069685Y0093611D02*
X0046482Y0093611D01*
X0047408Y0091217D02*
X0076815Y0091217D01*
X0075769Y0093012D02*
X0073612Y0093012D01*
X0074366Y0093611D02*
X0075769Y0093611D01*
X0075928Y0094209D02*
X0074866Y0094209D01*
X0075114Y0094808D02*
X0076201Y0094808D01*
X0076800Y0095406D02*
X0075294Y0095406D01*
X0075294Y0096005D02*
X0082219Y0096005D01*
X0082219Y0096603D02*
X0075269Y0096603D01*
X0075021Y0097202D02*
X0082219Y0097202D01*
X0082219Y0097800D02*
X0074740Y0097800D01*
X0074141Y0098399D02*
X0082343Y0098399D01*
X0082863Y0098919D02*
X0082863Y0098919D01*
X0082942Y0098997D02*
X0073071Y0098997D01*
X0070980Y0098997D02*
X0044419Y0098997D01*
X0044419Y0098399D02*
X0069909Y0098399D01*
X0069311Y0097800D02*
X0044419Y0097800D01*
X0044419Y0097202D02*
X0069030Y0097202D01*
X0068782Y0096603D02*
X0044419Y0096603D01*
X0044419Y0096005D02*
X0068757Y0096005D01*
X0068757Y0095406D02*
X0044419Y0095406D01*
X0044419Y0094808D02*
X0068937Y0094808D01*
X0069185Y0094209D02*
X0044419Y0094209D01*
X0041819Y0091819D02*
X0041819Y0104319D01*
X0042819Y0105319D01*
X0044908Y0107975D02*
X0064107Y0107975D01*
X0063509Y0108573D02*
X0044908Y0108573D01*
X0044908Y0109172D02*
X0062910Y0109172D01*
X0062312Y0109770D02*
X0045326Y0109770D01*
X0043819Y0115819D02*
X0042819Y0115819D01*
X0038819Y0111819D01*
X0045648Y0100194D02*
X0084139Y0100194D01*
X0083540Y0099596D02*
X0044614Y0099596D01*
X0047072Y0090618D02*
X0096871Y0090618D01*
X0096108Y0091217D02*
X0095698Y0091217D01*
X0093319Y0093319D02*
X0093319Y0096319D01*
X0094319Y0097319D01*
X0105569Y0097319D01*
X0105569Y0098819D02*
X0089319Y0098819D01*
X0088319Y0097819D01*
X0088319Y0093319D01*
X0090719Y0093611D02*
X0090919Y0093611D01*
X0090919Y0094209D02*
X0090719Y0094209D01*
X0090719Y0094808D02*
X0090919Y0094808D01*
X0090925Y0095406D02*
X0090713Y0095406D01*
X0089419Y0096005D02*
X0092219Y0096005D01*
X0092219Y0096603D02*
X0089419Y0096603D01*
X0089419Y0097202D02*
X0092646Y0097202D01*
X0090919Y0093012D02*
X0090719Y0093012D01*
X0090719Y0092414D02*
X0090919Y0092414D01*
X0090919Y0091815D02*
X0090719Y0091815D01*
X0090698Y0091217D02*
X0090940Y0091217D01*
X0090881Y0088822D02*
X0097788Y0088822D01*
X0096816Y0088224D02*
X0091907Y0088224D01*
X0092506Y0087625D02*
X0095843Y0087625D01*
X0094871Y0087027D02*
X0092963Y0087027D01*
X0093211Y0086428D02*
X0094656Y0086428D01*
X0094377Y0085830D02*
X0093458Y0085830D01*
X0093540Y0085231D02*
X0094098Y0085231D01*
X0093818Y0084633D02*
X0093540Y0084633D01*
X0095687Y0083436D02*
X0101630Y0083436D01*
X0101032Y0082837D02*
X0095408Y0082837D01*
X0095129Y0082239D02*
X0100433Y0082239D01*
X0099835Y0081640D02*
X0094849Y0081640D01*
X0094570Y0081042D02*
X0099236Y0081042D01*
X0098719Y0080443D02*
X0094291Y0080443D01*
X0094012Y0079845D02*
X0098719Y0079845D01*
X0098719Y0079246D02*
X0093732Y0079246D01*
X0093453Y0078648D02*
X0098719Y0078648D01*
X0098719Y0078049D02*
X0093419Y0078049D01*
X0093419Y0077451D02*
X0098719Y0077451D01*
X0098719Y0076852D02*
X0093419Y0076852D01*
X0093419Y0076254D02*
X0098719Y0076254D01*
X0098719Y0075655D02*
X0093419Y0075655D01*
X0093419Y0075057D02*
X0098719Y0075057D01*
X0098719Y0074458D02*
X0093419Y0074458D01*
X0093419Y0073860D02*
X0098719Y0073860D01*
X0098719Y0073261D02*
X0093419Y0073261D01*
X0093419Y0072663D02*
X0098719Y0072663D01*
X0098719Y0072064D02*
X0093419Y0072064D01*
X0093419Y0071466D02*
X0098719Y0071466D01*
X0098719Y0070867D02*
X0093419Y0070867D01*
X0093419Y0070269D02*
X0098719Y0070269D01*
X0098719Y0069670D02*
X0093419Y0069670D01*
X0093419Y0069072D02*
X0098719Y0069072D01*
X0098719Y0068473D02*
X0093419Y0068473D01*
X0093419Y0067875D02*
X0098719Y0067875D01*
X0100919Y0067875D02*
X0126491Y0067875D01*
X0126593Y0068473D02*
X0100919Y0068473D01*
X0100919Y0069072D02*
X0126695Y0069072D01*
X0126730Y0069670D02*
X0100919Y0069670D01*
X0100919Y0070269D02*
X0126751Y0070269D01*
X0126773Y0070867D02*
X0100919Y0070867D01*
X0100919Y0071466D02*
X0126795Y0071466D01*
X0126817Y0072064D02*
X0100919Y0072064D01*
X0100919Y0072663D02*
X0126839Y0072663D01*
X0126861Y0073261D02*
X0100919Y0073261D01*
X0100919Y0073860D02*
X0126882Y0073860D01*
X0126904Y0074458D02*
X0100919Y0074458D01*
X0100919Y0075057D02*
X0126926Y0075057D01*
X0126947Y0075655D02*
X0100919Y0075655D01*
X0100919Y0076254D02*
X0126890Y0076254D01*
X0126833Y0076852D02*
X0100919Y0076852D01*
X0100919Y0077451D02*
X0126776Y0077451D01*
X0126718Y0078049D02*
X0100919Y0078049D01*
X0100919Y0078648D02*
X0126661Y0078648D01*
X0126604Y0079246D02*
X0100919Y0079246D01*
X0101150Y0079845D02*
X0126547Y0079845D01*
X0126489Y0080443D02*
X0101749Y0080443D01*
X0102347Y0081042D02*
X0126432Y0081042D01*
X0126375Y0081640D02*
X0102946Y0081640D01*
X0103545Y0082239D02*
X0106945Y0082239D01*
X0106346Y0082837D02*
X0104143Y0082837D01*
X0102827Y0084633D02*
X0096246Y0084633D01*
X0096525Y0085231D02*
X0101452Y0085231D01*
X0100854Y0085830D02*
X0097123Y0085830D01*
X0098096Y0086428D02*
X0100255Y0086428D01*
X0100230Y0087027D02*
X0099068Y0087027D01*
X0100041Y0087625D02*
X0100230Y0087625D01*
X0098761Y0089421D02*
X0040419Y0089421D01*
X0040419Y0090020D02*
X0040664Y0090020D01*
X0040419Y0088822D02*
X0087300Y0088822D01*
X0086274Y0088224D02*
X0040419Y0088224D01*
X0040419Y0087625D02*
X0085675Y0087625D01*
X0085218Y0087027D02*
X0040419Y0087027D01*
X0040419Y0086428D02*
X0084970Y0086428D01*
X0084722Y0085830D02*
X0072262Y0085830D01*
X0072861Y0085231D02*
X0084641Y0085231D01*
X0084641Y0084633D02*
X0073408Y0084633D01*
X0073408Y0084034D02*
X0084641Y0084034D01*
X0084818Y0083436D02*
X0073408Y0083436D01*
X0073292Y0082837D02*
X0085066Y0082837D01*
X0085313Y0082239D02*
X0084455Y0082239D01*
X0085053Y0081640D02*
X0085905Y0081640D01*
X0085652Y0081042D02*
X0086504Y0081042D01*
X0086250Y0080443D02*
X0087855Y0080443D01*
X0086319Y0078819D02*
X0092319Y0078819D01*
X0092319Y0069819D01*
X0092319Y0064819D02*
X0094819Y0062319D01*
X0096069Y0062319D01*
X0105819Y0052569D01*
X0105819Y0051819D01*
X0103379Y0049379D01*
X0107319Y0045439D01*
X0107319Y0045319D01*
X0116569Y0045319D01*
X0122069Y0050819D01*
X0120310Y0047504D02*
X0123207Y0045964D01*
X0123840Y0046157D01*
X0122849Y0043764D01*
X0122849Y0040264D01*
X0123046Y0039788D01*
X0123043Y0039782D01*
X0120857Y0037223D01*
X0119472Y0037223D01*
X0116237Y0035883D01*
X0115773Y0035419D01*
X0112309Y0035419D01*
X0112307Y0035420D01*
X0111397Y0035456D01*
X0111357Y0035419D01*
X0103275Y0035419D01*
X0101408Y0037286D01*
X0101408Y0038684D01*
X0100184Y0039908D01*
X0098454Y0039908D01*
X0097230Y0038684D01*
X0097230Y0036954D01*
X0098454Y0035730D01*
X0099852Y0035730D01*
X0101719Y0033863D01*
X0102363Y0033219D01*
X0108849Y0033219D01*
X0108460Y0032894D01*
X0108241Y0032830D01*
X0108128Y0032622D01*
X0107943Y0032474D01*
X0107918Y0032238D01*
X0107804Y0032031D01*
X0107871Y0031803D01*
X0107846Y0031568D01*
X0107994Y0031383D01*
X0108263Y0030467D01*
X0107730Y0029934D01*
X0107730Y0028204D01*
X0108954Y0026980D01*
X0110306Y0026980D01*
X0109858Y0026597D01*
X0109383Y0026794D01*
X0105883Y0026794D01*
X0104226Y0026108D01*
X0102854Y0028714D01*
X0102776Y0029028D01*
X0102649Y0029104D01*
X0102580Y0029235D01*
X0102271Y0029330D01*
X0101408Y0029848D01*
X0101408Y0030684D01*
X0100184Y0031908D01*
X0098454Y0031908D01*
X0098205Y0031660D01*
X0096474Y0032583D01*
X0095621Y0035142D01*
X0095504Y0035556D01*
X0095478Y0035571D01*
X0095468Y0035599D01*
X0095084Y0035791D01*
X0094709Y0036001D01*
X0094680Y0035993D01*
X0094653Y0036007D01*
X0094246Y0035871D01*
X0084751Y0033193D01*
X0084537Y0033226D01*
X0084330Y0033074D01*
X0084082Y0033004D01*
X0083976Y0032815D01*
X0082408Y0031668D01*
X0082408Y0033184D01*
X0081184Y0034408D01*
X0079454Y0034408D01*
X0078465Y0033419D01*
X0076419Y0033419D01*
X0076419Y0034275D01*
X0075908Y0034786D01*
X0075908Y0036184D01*
X0074684Y0037408D01*
X0072954Y0037408D01*
X0071730Y0036184D01*
X0071730Y0034454D01*
X0072765Y0033419D01*
X0067863Y0033419D01*
X0067219Y0032775D01*
X0067219Y0032775D01*
X0063768Y0029324D01*
X0063684Y0029408D01*
X0061954Y0029408D01*
X0060730Y0028184D01*
X0060730Y0026454D01*
X0061954Y0025230D01*
X0063684Y0025230D01*
X0064908Y0026454D01*
X0064908Y0027352D01*
X0068775Y0031219D01*
X0078465Y0031219D01*
X0079454Y0030230D01*
X0080442Y0030230D01*
X0075837Y0026862D01*
X0075780Y0026866D01*
X0075475Y0026597D01*
X0075148Y0026358D01*
X0075139Y0026301D01*
X0074356Y0025612D01*
X0073098Y0023018D01*
X0073077Y0022616D01*
X0070972Y0022712D01*
X0064783Y0023557D01*
X0061743Y0024255D01*
X0061324Y0024375D01*
X0061317Y0024371D01*
X0060600Y0024568D01*
X0058600Y0025175D01*
X0057795Y0025454D01*
X0061868Y0033463D01*
X0061918Y0033484D01*
X0062071Y0033863D01*
X0062256Y0034227D01*
X0062239Y0034278D01*
X0062260Y0034329D01*
X0062100Y0034705D01*
X0061974Y0035093D01*
X0061925Y0035118D01*
X0061904Y0035168D01*
X0061525Y0035321D01*
X0061161Y0035506D01*
X0061110Y0035489D01*
X0051868Y0039230D01*
X0052184Y0039230D01*
X0053408Y0040454D01*
X0053408Y0042184D01*
X0052824Y0042768D01*
X0056275Y0046219D01*
X0068015Y0046219D01*
X0067480Y0045684D01*
X0067480Y0043954D01*
X0068704Y0042730D01*
X0070434Y0042730D01*
X0071423Y0043719D01*
X0072775Y0043719D01*
X0081025Y0051969D01*
X0095965Y0051969D01*
X0096954Y0050980D01*
X0098684Y0050980D01*
X0099908Y0052204D01*
X0099908Y0053934D01*
X0098684Y0055158D01*
X0096954Y0055158D01*
X0095965Y0054169D01*
X0081225Y0054169D01*
X0083419Y0056363D01*
X0083419Y0062039D01*
X0083596Y0061612D01*
X0084848Y0060360D01*
X0086483Y0059683D01*
X0088253Y0059683D01*
X0089889Y0060360D01*
X0091140Y0061612D01*
X0091818Y0063247D01*
X0091818Y0063765D01*
X0091863Y0063719D01*
X0094363Y0061219D01*
X0095613Y0061219D01*
X0104638Y0052194D01*
X0102923Y0050479D01*
X0102279Y0049835D01*
X0096352Y0043908D01*
X0094954Y0043908D01*
X0093730Y0042684D01*
X0093730Y0040954D01*
X0094954Y0039730D01*
X0096684Y0039730D01*
X0097908Y0040954D01*
X0097908Y0042352D01*
X0103379Y0047823D01*
X0105230Y0045972D01*
X0105230Y0044454D01*
X0106454Y0043230D01*
X0108184Y0043230D01*
X0109173Y0044219D01*
X0115380Y0044219D01*
X0114466Y0043840D01*
X0113398Y0042772D01*
X0112819Y0041375D01*
X0112819Y0039863D01*
X0113398Y0038466D01*
X0114466Y0037398D01*
X0115863Y0036819D01*
X0117375Y0036819D01*
X0118772Y0037398D01*
X0119840Y0038466D01*
X0120419Y0039863D01*
X0120419Y0041375D01*
X0119840Y0042772D01*
X0118772Y0043840D01*
X0117375Y0044419D01*
X0117225Y0044419D01*
X0120310Y0047504D01*
X0119732Y0046927D02*
X0121396Y0046927D01*
X0122521Y0046328D02*
X0119134Y0046328D01*
X0118535Y0045730D02*
X0123663Y0045730D01*
X0123415Y0045131D02*
X0117937Y0045131D01*
X0117338Y0044533D02*
X0123167Y0044533D01*
X0122919Y0043934D02*
X0118545Y0043934D01*
X0119276Y0043336D02*
X0122849Y0043336D01*
X0122849Y0042737D02*
X0119855Y0042737D01*
X0120103Y0042139D02*
X0122849Y0042139D01*
X0122849Y0041540D02*
X0120351Y0041540D01*
X0120419Y0040942D02*
X0122849Y0040942D01*
X0122849Y0040343D02*
X0120419Y0040343D01*
X0120370Y0039745D02*
X0123011Y0039745D01*
X0122499Y0039146D02*
X0120122Y0039146D01*
X0119874Y0038548D02*
X0121988Y0038548D01*
X0121477Y0037949D02*
X0119323Y0037949D01*
X0118658Y0037351D02*
X0120966Y0037351D01*
X0118335Y0036752D02*
X0101942Y0036752D01*
X0101408Y0037351D02*
X0114580Y0037351D01*
X0113915Y0037949D02*
X0101408Y0037949D01*
X0101408Y0038548D02*
X0113364Y0038548D01*
X0113116Y0039146D02*
X0100946Y0039146D01*
X0100348Y0039745D02*
X0112868Y0039745D01*
X0112819Y0040343D02*
X0097297Y0040343D01*
X0096699Y0039745D02*
X0098290Y0039745D01*
X0097692Y0039146D02*
X0091891Y0039146D01*
X0091891Y0038708D02*
X0091423Y0037579D01*
X0090559Y0036715D01*
X0089430Y0036247D01*
X0088208Y0036247D01*
X0087079Y0036715D01*
X0086215Y0037579D01*
X0085747Y0038708D01*
X0085747Y0039930D01*
X0086215Y0041059D01*
X0087079Y0041923D01*
X0088208Y0042391D01*
X0089430Y0042391D01*
X0090559Y0041923D01*
X0091423Y0041059D01*
X0091891Y0039930D01*
X0091891Y0038708D01*
X0091824Y0038548D02*
X0097230Y0038548D01*
X0097230Y0037949D02*
X0091576Y0037949D01*
X0091194Y0037351D02*
X0097230Y0037351D01*
X0097432Y0036752D02*
X0090596Y0036752D01*
X0091004Y0034956D02*
X0075908Y0034956D01*
X0075908Y0035555D02*
X0093126Y0035555D01*
X0094569Y0034819D02*
X0095569Y0031819D01*
X0099319Y0029819D01*
X0101819Y0028319D01*
X0104319Y0023569D01*
X0103979Y0026577D02*
X0105359Y0026577D01*
X0103664Y0027176D02*
X0108758Y0027176D01*
X0108159Y0027774D02*
X0103349Y0027774D01*
X0103034Y0028373D02*
X0107730Y0028373D01*
X0107730Y0028971D02*
X0102790Y0028971D01*
X0101872Y0029570D02*
X0107730Y0029570D01*
X0107964Y0030168D02*
X0101408Y0030168D01*
X0101325Y0030767D02*
X0108175Y0030767D01*
X0107999Y0031365D02*
X0100727Y0031365D01*
X0101823Y0033759D02*
X0096082Y0033759D01*
X0096281Y0033161D02*
X0108779Y0033161D01*
X0108053Y0032562D02*
X0096513Y0032562D01*
X0097635Y0031964D02*
X0107824Y0031964D01*
X0108988Y0031903D02*
X0109819Y0029069D01*
X0116319Y0034319D02*
X0116713Y0033925D01*
X0116319Y0034319D02*
X0102819Y0034319D01*
X0099319Y0037819D01*
X0098030Y0036153D02*
X0075908Y0036153D01*
X0075340Y0036752D02*
X0087042Y0036752D01*
X0086443Y0037351D02*
X0074742Y0037351D01*
X0072896Y0037351D02*
X0056511Y0037351D01*
X0055032Y0037949D02*
X0086062Y0037949D01*
X0085814Y0038548D02*
X0053554Y0038548D01*
X0052699Y0039745D02*
X0085747Y0039745D01*
X0085747Y0039146D02*
X0052075Y0039146D01*
X0050569Y0038569D02*
X0061069Y0034319D01*
X0056243Y0024829D01*
X0058009Y0025380D02*
X0061803Y0025380D01*
X0061205Y0025979D02*
X0058062Y0025979D01*
X0058366Y0026577D02*
X0060730Y0026577D01*
X0060730Y0027176D02*
X0058671Y0027176D01*
X0058975Y0027774D02*
X0060730Y0027774D01*
X0060919Y0028373D02*
X0059279Y0028373D01*
X0059584Y0028971D02*
X0061517Y0028971D01*
X0059888Y0029570D02*
X0064014Y0029570D01*
X0064613Y0030168D02*
X0060192Y0030168D01*
X0060497Y0030767D02*
X0065211Y0030767D01*
X0065810Y0031365D02*
X0060801Y0031365D01*
X0061105Y0031964D02*
X0066408Y0031964D01*
X0067007Y0032562D02*
X0061410Y0032562D01*
X0061714Y0033161D02*
X0067605Y0033161D01*
X0068319Y0032319D02*
X0063319Y0027319D01*
X0062819Y0027319D01*
X0063835Y0025380D02*
X0074244Y0025380D01*
X0074356Y0025612D02*
X0074356Y0025612D01*
X0074356Y0025612D01*
X0074773Y0025979D02*
X0064433Y0025979D01*
X0064908Y0026577D02*
X0075448Y0026577D01*
X0076266Y0027176D02*
X0064908Y0027176D01*
X0065330Y0027774D02*
X0077084Y0027774D01*
X0077903Y0028373D02*
X0065928Y0028373D01*
X0066527Y0028971D02*
X0078721Y0028971D01*
X0079539Y0029570D02*
X0067125Y0029570D01*
X0067724Y0030168D02*
X0080357Y0030168D01*
X0078917Y0030767D02*
X0068323Y0030767D01*
X0068319Y0032319D02*
X0075319Y0032319D01*
X0080319Y0032319D01*
X0081833Y0033759D02*
X0086760Y0033759D01*
X0084449Y0033161D02*
X0082408Y0033161D01*
X0082408Y0032562D02*
X0083630Y0032562D01*
X0082812Y0031964D02*
X0082408Y0031964D01*
X0084819Y0032069D02*
X0094569Y0034819D01*
X0095683Y0034956D02*
X0100626Y0034956D01*
X0101224Y0034358D02*
X0095882Y0034358D01*
X0095504Y0035555D02*
X0100027Y0035555D01*
X0102540Y0036153D02*
X0116890Y0036153D01*
X0115909Y0035555D02*
X0103139Y0035555D01*
X0097896Y0040942D02*
X0112819Y0040942D01*
X0112887Y0041540D02*
X0097908Y0041540D01*
X0097908Y0042139D02*
X0113135Y0042139D01*
X0113383Y0042737D02*
X0098293Y0042737D01*
X0098891Y0043336D02*
X0106348Y0043336D01*
X0105750Y0043934D02*
X0099490Y0043934D01*
X0100088Y0044533D02*
X0105230Y0044533D01*
X0105230Y0045131D02*
X0100687Y0045131D01*
X0101285Y0045730D02*
X0105230Y0045730D01*
X0104874Y0046328D02*
X0101884Y0046328D01*
X0102482Y0046927D02*
X0104275Y0046927D01*
X0103677Y0047525D02*
X0103081Y0047525D01*
X0103379Y0049379D02*
X0095819Y0041819D01*
X0094341Y0040343D02*
X0091720Y0040343D01*
X0091891Y0039745D02*
X0094939Y0039745D01*
X0093742Y0040942D02*
X0091472Y0040942D01*
X0090942Y0041540D02*
X0093730Y0041540D01*
X0093730Y0042139D02*
X0090038Y0042139D01*
X0087600Y0042139D02*
X0053408Y0042139D01*
X0053408Y0041540D02*
X0086696Y0041540D01*
X0086166Y0040942D02*
X0053408Y0040942D01*
X0053297Y0040343D02*
X0085918Y0040343D01*
X0088882Y0034358D02*
X0081234Y0034358D01*
X0079404Y0034358D02*
X0076336Y0034358D01*
X0076419Y0033759D02*
X0078805Y0033759D01*
X0075319Y0033819D02*
X0075319Y0032319D01*
X0075319Y0033819D02*
X0073819Y0035319D01*
X0072298Y0036752D02*
X0057990Y0036752D01*
X0059468Y0036153D02*
X0071730Y0036153D01*
X0071730Y0035555D02*
X0060947Y0035555D01*
X0062018Y0034956D02*
X0071730Y0034956D01*
X0071826Y0034358D02*
X0062247Y0034358D01*
X0062029Y0033759D02*
X0072424Y0033759D01*
X0076165Y0025739D02*
X0084819Y0032069D01*
X0085319Y0030569D02*
X0093319Y0032819D01*
X0096819Y0021819D01*
X0091259Y0024437D02*
X0091259Y0026129D01*
X0088569Y0028819D01*
X0087258Y0027176D02*
X0082610Y0027176D01*
X0083412Y0027774D02*
X0086659Y0027774D01*
X0086480Y0027954D02*
X0087287Y0027147D01*
X0087021Y0027066D01*
X0086710Y0026480D01*
X0088630Y0020199D01*
X0089215Y0019888D01*
X0086822Y0018897D01*
X0084347Y0016422D01*
X0084150Y0015946D01*
X0084144Y0015945D01*
X0080788Y0015681D01*
X0079809Y0016660D01*
X0076574Y0018000D01*
X0076169Y0018000D01*
X0076169Y0018733D01*
X0076341Y0018737D01*
X0076455Y0018856D01*
X0076558Y0018885D01*
X0076663Y0019073D01*
X0076837Y0019255D01*
X0076998Y0018866D01*
X0078066Y0017798D01*
X0079463Y0017219D01*
X0080975Y0017219D01*
X0082372Y0017798D01*
X0083440Y0018866D01*
X0084019Y0020263D01*
X0084019Y0021775D01*
X0083440Y0023172D01*
X0082372Y0024240D01*
X0080975Y0024819D01*
X0079463Y0024819D01*
X0079433Y0024807D01*
X0085813Y0029565D01*
X0086575Y0029780D01*
X0086480Y0029684D01*
X0086480Y0027954D01*
X0086480Y0028373D02*
X0084214Y0028373D01*
X0085017Y0028971D02*
X0086480Y0028971D01*
X0086480Y0029570D02*
X0085829Y0029570D01*
X0085319Y0030569D02*
X0077166Y0024488D01*
X0080202Y0025380D02*
X0087046Y0025380D01*
X0087229Y0024782D02*
X0081065Y0024782D01*
X0081005Y0025979D02*
X0086863Y0025979D01*
X0086762Y0026577D02*
X0081807Y0026577D01*
X0082429Y0024183D02*
X0087412Y0024183D01*
X0087595Y0023585D02*
X0083027Y0023585D01*
X0083517Y0022986D02*
X0087778Y0022986D01*
X0087961Y0022388D02*
X0083765Y0022388D01*
X0084013Y0021789D02*
X0088144Y0021789D01*
X0088327Y0021191D02*
X0084019Y0021191D01*
X0084019Y0020592D02*
X0088510Y0020592D01*
X0089017Y0019994D02*
X0083907Y0019994D01*
X0083659Y0019395D02*
X0088024Y0019395D01*
X0086722Y0018797D02*
X0083371Y0018797D01*
X0082772Y0018198D02*
X0086123Y0018198D01*
X0085525Y0017600D02*
X0081894Y0017600D01*
X0082355Y0015804D02*
X0080665Y0015804D01*
X0080066Y0016403D02*
X0084339Y0016403D01*
X0084926Y0017001D02*
X0078986Y0017001D01*
X0078544Y0017600D02*
X0077541Y0017600D01*
X0077666Y0018198D02*
X0076169Y0018198D01*
X0076398Y0018797D02*
X0077067Y0018797D01*
X0075069Y0019819D02*
X0075069Y0016319D01*
X0075819Y0019819D02*
X0075784Y0019949D01*
X0075753Y0020081D01*
X0075726Y0020213D01*
X0075702Y0020345D01*
X0075683Y0020479D01*
X0075667Y0020612D01*
X0075656Y0020747D01*
X0075648Y0020881D01*
X0075644Y0021016D01*
X0075645Y0021151D01*
X0075649Y0021285D01*
X0075657Y0021420D01*
X0075669Y0021554D01*
X0075685Y0021688D01*
X0075705Y0021821D01*
X0075729Y0021954D01*
X0075757Y0022086D01*
X0075788Y0022217D01*
X0075824Y0022347D01*
X0075863Y0022476D01*
X0075906Y0022603D01*
X0075953Y0022730D01*
X0076003Y0022855D01*
X0076057Y0022978D01*
X0076115Y0023100D01*
X0076176Y0023220D01*
X0076241Y0023338D01*
X0076309Y0023454D01*
X0076381Y0023568D01*
X0076456Y0023681D01*
X0076534Y0023790D01*
X0076615Y0023898D01*
X0076700Y0024003D01*
X0076787Y0024105D01*
X0076877Y0024205D01*
X0076971Y0024302D01*
X0077067Y0024397D01*
X0077166Y0024488D01*
X0073954Y0024782D02*
X0059895Y0024782D01*
X0060302Y0023509D02*
X0061460Y0023192D01*
X0060069Y0018319D01*
X0062055Y0024183D02*
X0073664Y0024183D01*
X0073373Y0023585D02*
X0064661Y0023585D01*
X0067914Y0020232D02*
X0067569Y0017569D01*
X0068961Y0022986D02*
X0073097Y0022986D01*
X0073098Y0023018D02*
X0073098Y0023018D01*
X0074119Y0021519D02*
X0074129Y0021674D01*
X0074144Y0021829D01*
X0074162Y0021983D01*
X0074184Y0022137D01*
X0074210Y0022290D01*
X0074240Y0022442D01*
X0074274Y0022594D01*
X0074312Y0022745D01*
X0074354Y0022894D01*
X0074400Y0023043D01*
X0074449Y0023190D01*
X0074502Y0023336D01*
X0074559Y0023481D01*
X0074619Y0023624D01*
X0074684Y0023765D01*
X0074751Y0023905D01*
X0074823Y0024043D01*
X0074898Y0024179D01*
X0074976Y0024313D01*
X0075058Y0024445D01*
X0075143Y0024575D01*
X0075231Y0024703D01*
X0075323Y0024829D01*
X0075417Y0024952D01*
X0075515Y0025072D01*
X0075616Y0025190D01*
X0075720Y0025306D01*
X0075827Y0025418D01*
X0075937Y0025528D01*
X0076050Y0025635D01*
X0076165Y0025739D01*
X0070441Y0042737D02*
X0093783Y0042737D01*
X0094381Y0043336D02*
X0071040Y0043336D01*
X0072319Y0044819D02*
X0069569Y0044819D01*
X0068098Y0043336D02*
X0053391Y0043336D01*
X0052855Y0042737D02*
X0068697Y0042737D01*
X0067500Y0043934D02*
X0053990Y0043934D01*
X0054588Y0044533D02*
X0067480Y0044533D01*
X0067480Y0045131D02*
X0055187Y0045131D01*
X0055785Y0045730D02*
X0067525Y0045730D01*
X0072319Y0044819D02*
X0080569Y0053069D01*
X0097819Y0053069D01*
X0099908Y0052912D02*
X0103921Y0052912D01*
X0104519Y0052313D02*
X0099908Y0052313D01*
X0099419Y0051715D02*
X0104159Y0051715D01*
X0103561Y0051116D02*
X0098821Y0051116D01*
X0099908Y0053510D02*
X0103322Y0053510D01*
X0102724Y0054109D02*
X0099733Y0054109D01*
X0099135Y0054707D02*
X0102125Y0054707D01*
X0101526Y0055306D02*
X0082361Y0055306D01*
X0081763Y0054707D02*
X0096503Y0054707D01*
X0096219Y0051715D02*
X0080770Y0051715D01*
X0080172Y0051116D02*
X0096817Y0051116D01*
X0099970Y0047525D02*
X0076581Y0047525D01*
X0075982Y0046927D02*
X0099371Y0046927D01*
X0098773Y0046328D02*
X0075384Y0046328D01*
X0074785Y0045730D02*
X0098174Y0045730D01*
X0097576Y0045131D02*
X0074187Y0045131D01*
X0073588Y0044533D02*
X0096977Y0044533D01*
X0096379Y0043934D02*
X0072990Y0043934D01*
X0072819Y0047319D02*
X0082319Y0056819D01*
X0082319Y0069069D01*
X0085319Y0072069D01*
X0086319Y0072069D01*
X0083903Y0074458D02*
X0064419Y0074458D01*
X0064419Y0073860D02*
X0083304Y0073860D01*
X0084230Y0075057D02*
X0077701Y0075057D01*
X0077774Y0075076D02*
X0078070Y0075247D01*
X0078312Y0075489D01*
X0078483Y0075786D01*
X0078572Y0076116D01*
X0078572Y0077178D01*
X0074610Y0077178D01*
X0074610Y0077759D01*
X0078572Y0077759D01*
X0078572Y0078821D01*
X0078483Y0079151D01*
X0078312Y0079448D01*
X0078070Y0079690D01*
X0077774Y0079861D01*
X0077443Y0079950D01*
X0074610Y0079950D01*
X0074610Y0077759D01*
X0074028Y0077759D01*
X0074028Y0077178D01*
X0070066Y0077178D01*
X0070066Y0076116D01*
X0070155Y0075786D01*
X0070326Y0075489D01*
X0070568Y0075247D01*
X0070864Y0075076D01*
X0071195Y0074988D01*
X0074028Y0074988D01*
X0074028Y0077178D01*
X0074610Y0077178D01*
X0074610Y0074988D01*
X0077443Y0074988D01*
X0077774Y0075076D01*
X0078408Y0075655D02*
X0084230Y0075655D01*
X0084299Y0076254D02*
X0078572Y0076254D01*
X0078572Y0076852D02*
X0084898Y0076852D01*
X0085533Y0078049D02*
X0078572Y0078049D01*
X0078572Y0078648D02*
X0084935Y0078648D01*
X0084336Y0079246D02*
X0078428Y0079246D01*
X0077802Y0079845D02*
X0083738Y0079845D01*
X0083139Y0080443D02*
X0066999Y0080443D01*
X0066400Y0079845D02*
X0070836Y0079845D01*
X0070864Y0079861D02*
X0070568Y0079690D01*
X0070326Y0079448D01*
X0070155Y0079151D01*
X0070066Y0078821D01*
X0070066Y0077759D01*
X0074028Y0077759D01*
X0074028Y0079950D01*
X0071195Y0079950D01*
X0070864Y0079861D01*
X0070210Y0079246D02*
X0065802Y0079246D01*
X0065203Y0078648D02*
X0070066Y0078648D01*
X0070066Y0078049D02*
X0064605Y0078049D01*
X0064419Y0077451D02*
X0074028Y0077451D01*
X0074610Y0077451D02*
X0091219Y0077451D01*
X0092319Y0078819D02*
X0095819Y0086319D01*
X0101751Y0089970D01*
X0100787Y0090668D02*
X0100787Y0090668D01*
X0100706Y0090618D02*
X0099767Y0090618D01*
X0099734Y0090020D02*
X0046474Y0090020D01*
X0044164Y0090020D02*
X0042974Y0090020D01*
X0040419Y0085830D02*
X0070376Y0085830D01*
X0069777Y0085231D02*
X0040419Y0085231D01*
X0040419Y0084633D02*
X0068077Y0084633D01*
X0067479Y0084034D02*
X0040659Y0084034D01*
X0041258Y0083436D02*
X0057955Y0083436D01*
X0057769Y0082837D02*
X0054088Y0082837D01*
X0051216Y0082837D02*
X0041856Y0082837D01*
X0042849Y0079845D02*
X0051172Y0079845D01*
X0051770Y0079246D02*
X0043447Y0079246D01*
X0042132Y0077451D02*
X0036419Y0077451D01*
X0036419Y0078049D02*
X0041533Y0078049D01*
X0040935Y0078648D02*
X0036419Y0078648D01*
X0036419Y0079246D02*
X0040336Y0079246D01*
X0039738Y0079845D02*
X0036419Y0079845D01*
X0036419Y0080443D02*
X0039139Y0080443D01*
X0038541Y0081042D02*
X0036419Y0081042D01*
X0036419Y0081640D02*
X0037942Y0081640D01*
X0037343Y0082239D02*
X0036419Y0082239D01*
X0036419Y0082837D02*
X0036745Y0082837D01*
X0031219Y0082837D02*
X0023503Y0082837D01*
X0023410Y0082239D02*
X0031219Y0082239D01*
X0031219Y0081640D02*
X0023316Y0081640D01*
X0023223Y0081042D02*
X0031219Y0081042D01*
X0031219Y0080443D02*
X0023130Y0080443D01*
X0023036Y0079845D02*
X0031219Y0079845D01*
X0031219Y0079246D02*
X0022943Y0079246D01*
X0022849Y0078648D02*
X0031219Y0078648D01*
X0031219Y0078049D02*
X0022766Y0078049D01*
X0022770Y0077451D02*
X0031219Y0077451D01*
X0031219Y0076852D02*
X0022774Y0076852D01*
X0022778Y0076254D02*
X0028549Y0076254D01*
X0027951Y0075655D02*
X0022782Y0075655D01*
X0022786Y0075057D02*
X0027480Y0075057D01*
X0030588Y0076254D02*
X0031219Y0076254D01*
X0031187Y0075655D02*
X0031219Y0075655D01*
X0036419Y0076254D02*
X0043329Y0076254D01*
X0043927Y0075655D02*
X0036538Y0075655D01*
X0037137Y0075057D02*
X0044526Y0075057D01*
X0045124Y0074458D02*
X0037735Y0074458D01*
X0038334Y0073860D02*
X0045723Y0073860D01*
X0045719Y0073863D02*
X0045719Y0073863D01*
X0046321Y0073261D02*
X0038932Y0073261D01*
X0039531Y0072663D02*
X0050011Y0072663D01*
X0048985Y0072064D02*
X0040129Y0072064D01*
X0040728Y0071466D02*
X0048387Y0071466D01*
X0047930Y0070867D02*
X0041326Y0070867D01*
X0041925Y0070269D02*
X0047682Y0070269D01*
X0047434Y0069670D02*
X0042523Y0069670D01*
X0043122Y0069072D02*
X0047353Y0069072D01*
X0047353Y0068473D02*
X0043721Y0068473D01*
X0044319Y0067875D02*
X0047353Y0067875D01*
X0047530Y0067276D02*
X0044918Y0067276D01*
X0045516Y0066678D02*
X0047778Y0066678D01*
X0048025Y0066079D02*
X0046115Y0066079D01*
X0046713Y0065481D02*
X0048617Y0065481D01*
X0049216Y0064882D02*
X0047312Y0064882D01*
X0047910Y0064284D02*
X0050568Y0064284D01*
X0042594Y0062488D02*
X0030217Y0062488D01*
X0030412Y0061889D02*
X0031435Y0061889D01*
X0030837Y0061291D02*
X0030608Y0061291D01*
X0030021Y0063087D02*
X0041996Y0063087D01*
X0041397Y0063685D02*
X0029825Y0063685D01*
X0029629Y0064284D02*
X0040799Y0064284D01*
X0034319Y0057819D02*
X0034319Y0044319D01*
X0039819Y0038819D01*
X0047319Y0038819D01*
X0048819Y0040319D01*
X0050284Y0040319D01*
X0051284Y0041319D01*
X0051319Y0041319D01*
X0051319Y0042819D01*
X0055819Y0047319D01*
X0072819Y0047319D01*
X0071864Y0049919D02*
X0051423Y0049919D01*
X0052021Y0049321D02*
X0054015Y0049321D01*
X0053417Y0048722D02*
X0052408Y0048722D01*
X0052408Y0048124D02*
X0052818Y0048124D01*
X0052474Y0046224D02*
X0052164Y0046224D01*
X0050319Y0048069D01*
X0048230Y0048124D02*
X0044290Y0048124D01*
X0044370Y0048090D02*
X0043241Y0048558D01*
X0042020Y0048558D01*
X0040891Y0048090D01*
X0040026Y0047226D01*
X0039559Y0046097D01*
X0039559Y0044875D01*
X0040026Y0043746D01*
X0040891Y0042882D01*
X0042020Y0042415D01*
X0043241Y0042415D01*
X0044370Y0042882D01*
X0045235Y0043746D01*
X0045702Y0044875D01*
X0045702Y0046097D01*
X0045235Y0047226D01*
X0044370Y0048090D01*
X0044936Y0047525D02*
X0048230Y0047525D01*
X0048507Y0046927D02*
X0045359Y0046927D01*
X0045607Y0046328D02*
X0049106Y0046328D01*
X0049826Y0045131D02*
X0045702Y0045131D01*
X0045702Y0045730D02*
X0050424Y0045730D01*
X0049227Y0044533D02*
X0045560Y0044533D01*
X0045312Y0043934D02*
X0048629Y0043934D01*
X0048030Y0043336D02*
X0044824Y0043336D01*
X0044020Y0042737D02*
X0047431Y0042737D01*
X0046833Y0042139D02*
X0040305Y0042139D01*
X0039706Y0042737D02*
X0041241Y0042737D01*
X0040437Y0043336D02*
X0039108Y0043336D01*
X0038509Y0043934D02*
X0039949Y0043934D01*
X0039701Y0044533D02*
X0037911Y0044533D01*
X0037312Y0045131D02*
X0039559Y0045131D01*
X0039559Y0045730D02*
X0036919Y0045730D01*
X0036919Y0046328D02*
X0039654Y0046328D01*
X0039902Y0046927D02*
X0036919Y0046927D01*
X0036919Y0047525D02*
X0040325Y0047525D01*
X0040971Y0048124D02*
X0036919Y0048124D01*
X0036919Y0048722D02*
X0048230Y0048722D01*
X0048616Y0049321D02*
X0036919Y0049321D01*
X0036919Y0049919D02*
X0049215Y0049919D01*
X0046234Y0041540D02*
X0040904Y0041540D01*
X0036769Y0035069D02*
X0034269Y0032769D01*
X0031601Y0040843D02*
X0029069Y0039569D01*
X0024319Y0045069D02*
X0029192Y0047535D01*
X0028593Y0048575D01*
X0036919Y0050518D02*
X0072462Y0050518D01*
X0073061Y0051116D02*
X0036919Y0051116D01*
X0036919Y0051715D02*
X0073659Y0051715D01*
X0074258Y0052313D02*
X0070506Y0052313D01*
X0071379Y0052912D02*
X0074856Y0052912D01*
X0075455Y0053510D02*
X0071929Y0053510D01*
X0072177Y0054109D02*
X0076053Y0054109D01*
X0076652Y0054707D02*
X0072392Y0054707D01*
X0072392Y0055306D02*
X0077250Y0055306D01*
X0077849Y0055904D02*
X0072392Y0055904D01*
X0072154Y0056503D02*
X0078447Y0056503D01*
X0079046Y0057101D02*
X0071906Y0057101D01*
X0071325Y0057700D02*
X0079644Y0057700D01*
X0082960Y0055904D02*
X0100928Y0055904D01*
X0100329Y0056503D02*
X0083419Y0056503D01*
X0083419Y0057101D02*
X0099731Y0057101D01*
X0099132Y0057700D02*
X0083419Y0057700D01*
X0083419Y0058298D02*
X0098534Y0058298D01*
X0097935Y0058897D02*
X0083419Y0058897D01*
X0083419Y0059495D02*
X0097337Y0059495D01*
X0096738Y0060094D02*
X0089245Y0060094D01*
X0090221Y0060692D02*
X0096140Y0060692D01*
X0094291Y0061291D02*
X0090819Y0061291D01*
X0091255Y0061889D02*
X0093693Y0061889D01*
X0093094Y0062488D02*
X0091503Y0062488D01*
X0091751Y0063087D02*
X0092496Y0063087D01*
X0091897Y0063685D02*
X0091818Y0063685D01*
X0085491Y0060094D02*
X0083419Y0060094D01*
X0083419Y0060692D02*
X0084516Y0060692D01*
X0083917Y0061291D02*
X0083419Y0061291D01*
X0083419Y0061889D02*
X0083481Y0061889D01*
X0079573Y0050518D02*
X0102962Y0050518D01*
X0102364Y0049919D02*
X0078975Y0049919D01*
X0078376Y0049321D02*
X0101765Y0049321D01*
X0101167Y0048722D02*
X0077778Y0048722D01*
X0077179Y0048124D02*
X0100568Y0048124D01*
X0108290Y0043336D02*
X0113962Y0043336D01*
X0114693Y0043934D02*
X0108888Y0043934D01*
X0099706Y0062488D02*
X0125547Y0062488D01*
X0125819Y0059319D02*
X0131319Y0059319D01*
X0126288Y0066678D02*
X0100919Y0066678D01*
X0100919Y0067276D02*
X0126390Y0067276D01*
X0129719Y0074319D02*
X0133319Y0074319D01*
X0126304Y0082239D02*
X0108693Y0082239D01*
X0109292Y0082837D02*
X0120570Y0082837D01*
X0120036Y0083436D02*
X0109890Y0083436D01*
X0109908Y0084034D02*
X0119810Y0084034D01*
X0119582Y0084633D02*
X0109908Y0084633D01*
X0109861Y0085231D02*
X0119354Y0085231D01*
X0119126Y0085830D02*
X0109262Y0085830D01*
X0105698Y0091217D02*
X0117074Y0091217D01*
X0116846Y0091815D02*
X0105719Y0091815D01*
X0105719Y0092414D02*
X0116618Y0092414D01*
X0116390Y0093012D02*
X0105719Y0093012D01*
X0105719Y0093611D02*
X0116162Y0093611D01*
X0115934Y0094209D02*
X0105719Y0094209D01*
X0105719Y0094808D02*
X0115706Y0094808D01*
X0115478Y0095406D02*
X0105713Y0095406D01*
X0104174Y0090618D02*
X0117302Y0090618D01*
X0117530Y0090020D02*
X0103575Y0090020D01*
X0103419Y0089421D02*
X0117758Y0089421D01*
X0117986Y0088822D02*
X0103770Y0088822D01*
X0104368Y0088224D02*
X0118214Y0088224D01*
X0118442Y0087625D02*
X0104408Y0087625D01*
X0104408Y0087027D02*
X0118670Y0087027D01*
X0118898Y0086428D02*
X0104383Y0086428D01*
X0103426Y0085231D02*
X0103186Y0085231D01*
X0102229Y0084034D02*
X0095967Y0084034D01*
X0092422Y0081640D02*
X0092275Y0081640D01*
X0092142Y0081042D02*
X0091677Y0081042D01*
X0091863Y0080443D02*
X0090325Y0080443D01*
X0086319Y0078819D02*
X0083819Y0081319D01*
X0083183Y0082239D02*
X0072693Y0082239D01*
X0071319Y0083819D02*
X0068819Y0083819D01*
X0063319Y0078319D01*
X0063319Y0072319D01*
X0062319Y0071319D01*
X0064419Y0075057D02*
X0070937Y0075057D01*
X0070230Y0075655D02*
X0064419Y0075655D01*
X0064419Y0076254D02*
X0070066Y0076254D01*
X0070066Y0076852D02*
X0064419Y0076852D01*
X0020532Y0081576D02*
X0020381Y0080495D01*
X0020256Y0079412D01*
X0020157Y0078325D01*
X0020085Y0077237D01*
X0020039Y0076147D01*
X0020020Y0075056D01*
X0020027Y0073966D01*
X0020061Y0072875D01*
X0020121Y0071786D01*
X0020207Y0070699D01*
X0020320Y0069614D01*
X0020460Y0068532D01*
X0020625Y0067453D01*
X0020817Y0066380D01*
X0021035Y0065311D01*
X0023569Y0063319D02*
X0023569Y0058378D01*
X0024437Y0058378D01*
X0032319Y0059819D02*
X0034319Y0057819D01*
X0036919Y0055306D02*
X0065855Y0055306D01*
X0065855Y0054707D02*
X0036919Y0054707D01*
X0036919Y0054109D02*
X0066070Y0054109D01*
X0066318Y0053510D02*
X0036919Y0053510D01*
X0036919Y0052912D02*
X0066868Y0052912D01*
X0067741Y0052313D02*
X0036919Y0052313D01*
X0050569Y0038569D02*
X0045945Y0030131D01*
X0046298Y0027816D02*
X0051319Y0036819D01*
X0059069Y0033569D01*
X0052819Y0021569D01*
X0050819Y0027569D02*
X0054569Y0032819D01*
X0043319Y0029570D02*
X0043213Y0029490D01*
X0043106Y0029414D01*
X0042996Y0029341D01*
X0042884Y0029272D01*
X0042770Y0029205D01*
X0042654Y0029142D01*
X0042537Y0029083D01*
X0042417Y0029027D01*
X0042296Y0028975D01*
X0042174Y0028927D01*
X0042050Y0028882D01*
X0041924Y0028841D01*
X0041798Y0028804D01*
X0041671Y0028770D01*
X0041542Y0028740D01*
X0041413Y0028714D01*
X0041283Y0028692D01*
X0041152Y0028674D01*
X0041021Y0028660D01*
X0040890Y0028650D01*
X0040758Y0028643D01*
X0040627Y0028641D01*
X0040495Y0028643D01*
X0040363Y0028648D01*
X0040232Y0028657D01*
X0040101Y0028671D01*
X0039970Y0028688D01*
X0039840Y0028709D01*
X0039710Y0028734D01*
X0039582Y0028763D01*
X0039454Y0028796D01*
X0039327Y0028832D01*
X0039202Y0028873D01*
X0039078Y0028917D01*
X0038955Y0028964D01*
X0038834Y0029016D01*
X0038714Y0029071D01*
X0038596Y0029129D01*
X0038479Y0029191D01*
X0038365Y0029257D01*
X0038253Y0029325D01*
X0038142Y0029398D01*
X0038034Y0029473D01*
X0037928Y0029552D01*
X0037825Y0029633D01*
X0037724Y0029718D01*
X0037626Y0029806D01*
X0037530Y0029897D01*
X0037437Y0029990D01*
X0037347Y0030087D01*
X0037260Y0030185D01*
X0037176Y0030287D01*
X0037095Y0030391D01*
X0037017Y0030497D01*
X0036943Y0030606D01*
X0036871Y0030717D01*
X0036803Y0030829D01*
X0036738Y0030944D01*
X0036677Y0031061D01*
X0036619Y0031179D01*
X0036565Y0031300D01*
X0036515Y0031421D01*
X0036468Y0031545D01*
X0036425Y0031669D01*
X0036385Y0031795D01*
X0036350Y0031922D01*
X0036318Y0032050D01*
X0036290Y0032178D01*
X0036266Y0032308D01*
X0036246Y0032438D01*
X0036229Y0032569D01*
X0036217Y0032700D01*
X0036208Y0032832D01*
X0036204Y0032963D01*
X0036203Y0033095D01*
X0036207Y0033227D01*
X0036214Y0033359D01*
X0036225Y0033490D01*
X0036240Y0033621D01*
X0036259Y0033751D01*
X0036282Y0033881D01*
X0036309Y0034010D01*
X0036339Y0034138D01*
X0036374Y0034265D01*
X0036412Y0034392D01*
X0036454Y0034517D01*
X0036500Y0034640D01*
X0036549Y0034762D01*
X0036602Y0034883D01*
X0036659Y0035002D01*
X0036719Y0035119D01*
X0037919Y0036519D02*
X0038026Y0036598D01*
X0038135Y0036673D01*
X0038247Y0036745D01*
X0038360Y0036814D01*
X0038476Y0036879D01*
X0038593Y0036941D01*
X0038713Y0036999D01*
X0038833Y0037054D01*
X0038956Y0037105D01*
X0039080Y0037152D01*
X0039205Y0037195D01*
X0039332Y0037235D01*
X0039460Y0037271D01*
X0039588Y0037303D01*
X0039718Y0037331D01*
X0039848Y0037355D01*
X0039980Y0037376D01*
X0040111Y0037392D01*
X0040243Y0037404D01*
X0040376Y0037413D01*
X0040508Y0037417D01*
X0040641Y0037418D01*
X0040774Y0037414D01*
X0040906Y0037407D01*
X0041038Y0037395D01*
X0041170Y0037380D01*
X0041301Y0037361D01*
X0041432Y0037337D01*
X0041562Y0037310D01*
X0041691Y0037279D01*
X0041819Y0037244D01*
X0041946Y0037205D01*
X0042071Y0037163D01*
X0042196Y0037117D01*
X0042319Y0037067D01*
X0042440Y0037013D01*
X0042560Y0036956D01*
X0042677Y0036895D01*
X0042793Y0036830D01*
X0042907Y0036763D01*
X0043019Y0036691D01*
X0043129Y0036617D01*
X0043237Y0036539D01*
X0043342Y0036458D01*
X0043444Y0036374D01*
X0043544Y0036287D01*
X0043642Y0036197D01*
X0043736Y0036104D01*
X0043828Y0036008D01*
X0043917Y0035909D01*
X0044003Y0035808D01*
X0044086Y0035705D01*
X0044165Y0035599D01*
X0044242Y0035490D01*
X0044315Y0035380D01*
X0044385Y0035267D01*
X0044451Y0035152D01*
X0044514Y0035035D01*
X0044574Y0034916D01*
X0044629Y0034796D01*
X0044682Y0034674D01*
X0044730Y0034551D01*
X0044775Y0034426D01*
X0044816Y0034299D01*
X0044853Y0034172D01*
X0044886Y0034044D01*
X0044916Y0033914D01*
X0044941Y0033784D01*
X0044963Y0033653D01*
X0044981Y0033522D01*
X0044995Y0033390D01*
X0045004Y0033258D01*
X0045010Y0033125D01*
X0045012Y0032992D01*
X0045010Y0032860D01*
X0045004Y0032727D01*
X0044994Y0032595D01*
X0044980Y0032463D01*
X0044962Y0032331D01*
X0044940Y0032201D01*
X0044914Y0032070D01*
X0044884Y0031941D01*
X0044850Y0031813D01*
X0044813Y0031686D01*
X0044772Y0031559D01*
X0044727Y0031435D01*
X0044678Y0031311D01*
X0044626Y0031189D01*
X0044570Y0031069D01*
X0022189Y0067119D02*
X0022017Y0068217D01*
X0021871Y0069319D01*
X0021752Y0070424D01*
X0021659Y0071531D01*
X0021594Y0072641D01*
X0021555Y0073751D01*
X0021543Y0074862D01*
X0021558Y0075974D01*
X0021600Y0077084D01*
X0021669Y0078193D01*
X0021765Y0079301D01*
X0021887Y0080405D01*
X0022036Y0081506D01*
X0022212Y0082604D01*
X0022415Y0083697D01*
X0022643Y0084784D01*
X0022898Y0085866D01*
X0023179Y0086941D01*
X0023486Y0088009D01*
X0023819Y0089069D01*
X0018569Y0090319D01*
X0020235Y0091217D02*
X0023730Y0091217D01*
X0023730Y0091815D02*
X0020235Y0091815D01*
X0020235Y0092414D02*
X0023028Y0092414D01*
X0022062Y0090618D02*
X0024316Y0090618D01*
X0024526Y0090020D02*
X0024914Y0090020D01*
X0024894Y0089421D02*
X0031161Y0089421D01*
X0031219Y0088822D02*
X0024896Y0088822D01*
X0024722Y0088224D02*
X0031219Y0088224D01*
X0031219Y0087625D02*
X0024553Y0087625D01*
X0024383Y0087027D02*
X0031219Y0087027D01*
X0031219Y0086428D02*
X0024214Y0086428D01*
X0024044Y0085830D02*
X0031219Y0085830D01*
X0031219Y0085231D02*
X0023877Y0085231D01*
X0023784Y0084633D02*
X0031219Y0084633D01*
X0031219Y0084034D02*
X0023690Y0084034D01*
X0023597Y0083436D02*
X0031219Y0083436D01*
X0030563Y0090020D02*
X0026724Y0090020D01*
X0027322Y0090618D02*
X0029964Y0090618D01*
X0029366Y0091217D02*
X0027908Y0091217D01*
X0027908Y0091815D02*
X0028767Y0091815D01*
X0028169Y0092414D02*
X0027908Y0092414D01*
X0025819Y0092069D02*
X0021069Y0094819D01*
X0017819Y0082069D02*
X0020533Y0081575D01*
X0020069Y0074819D02*
X0016569Y0074819D01*
X0036419Y0076852D02*
X0042730Y0076852D01*
X0053534Y0079246D02*
X0057910Y0079246D01*
X0057769Y0079845D02*
X0054132Y0079845D01*
X0062683Y0083436D02*
X0066880Y0083436D01*
X0066282Y0082837D02*
X0062869Y0082837D01*
X0062869Y0082239D02*
X0065683Y0082239D01*
X0065085Y0081640D02*
X0062869Y0081640D01*
X0062869Y0081042D02*
X0064486Y0081042D01*
X0063888Y0080443D02*
X0062869Y0080443D01*
X0062869Y0079845D02*
X0063289Y0079845D01*
X0067597Y0081042D02*
X0082719Y0081042D01*
X0082719Y0081640D02*
X0068196Y0081640D01*
X0068795Y0082239D02*
X0069945Y0082239D01*
X0074028Y0079845D02*
X0074610Y0079845D01*
X0074610Y0079246D02*
X0074028Y0079246D01*
X0074028Y0078648D02*
X0074610Y0078648D01*
X0074610Y0078049D02*
X0074028Y0078049D01*
X0074028Y0076852D02*
X0074610Y0076852D01*
X0074610Y0076254D02*
X0074028Y0076254D01*
X0074028Y0075655D02*
X0074610Y0075655D01*
X0056244Y0024829D02*
X0057249Y0024469D01*
X0058260Y0024129D01*
X0059278Y0023809D01*
X0060303Y0023509D01*
X0067914Y0020231D02*
X0069233Y0020083D01*
X0070556Y0019968D01*
X0071880Y0019884D01*
X0073207Y0019832D01*
X0074534Y0019813D01*
X0075861Y0019826D01*
X0125820Y0059319D02*
X0126163Y0060476D01*
X0126478Y0061641D01*
X0126765Y0062813D01*
X0127024Y0063991D01*
X0127254Y0065175D01*
X0127456Y0066365D01*
X0127630Y0067559D01*
X0127775Y0068757D01*
X0127891Y0069958D01*
X0127978Y0071161D01*
X0128037Y0072366D01*
X0128066Y0073573D01*
X0128067Y0074779D01*
X0128038Y0075985D01*
X0127981Y0077191D01*
X0127895Y0078394D01*
X0127780Y0079595D01*
X0127636Y0080793D01*
X0127464Y0081987D01*
X0127263Y0083177D01*
X0127034Y0084362D01*
X0126776Y0085540D01*
X0126775Y0085540D02*
X0121069Y0083819D01*
X0115069Y0099569D01*
X0116457Y0099015D02*
X0118163Y0099833D01*
X0120402Y0100891D01*
X0120428Y0100883D01*
X0120809Y0101084D01*
X0121199Y0101267D01*
X0121209Y0101294D01*
X0124112Y0102822D01*
X0124184Y0102648D01*
X0126659Y0100173D01*
X0129047Y0099184D01*
X0129499Y0098094D01*
X0128684Y0098908D01*
X0126954Y0098908D01*
X0125730Y0097684D01*
X0125730Y0097101D01*
X0125248Y0096889D01*
X0124977Y0096889D01*
X0123049Y0098395D01*
X0122775Y0098669D01*
X0122698Y0098669D01*
X0122637Y0098716D01*
X0122251Y0098669D01*
X0120152Y0098669D01*
X0120050Y0098737D01*
X0119710Y0098669D01*
X0119363Y0098669D01*
X0119277Y0098582D01*
X0119156Y0098558D01*
X0118964Y0098270D01*
X0118719Y0098025D01*
X0118719Y0097902D01*
X0117598Y0096220D01*
X0117532Y0096195D01*
X0116457Y0099015D01*
X0116464Y0098997D02*
X0129124Y0098997D01*
X0129194Y0098399D02*
X0129372Y0098399D01*
X0128052Y0099596D02*
X0117669Y0099596D01*
X0118927Y0100194D02*
X0126638Y0100194D01*
X0126039Y0100793D02*
X0120193Y0100793D01*
X0120319Y0102069D02*
X0125069Y0104569D01*
X0124244Y0102588D02*
X0123667Y0102588D01*
X0122530Y0101990D02*
X0124842Y0101990D01*
X0125441Y0101391D02*
X0121393Y0101391D01*
X0123045Y0098399D02*
X0126444Y0098399D01*
X0125846Y0097800D02*
X0123810Y0097800D01*
X0124577Y0097202D02*
X0125730Y0097202D01*
X0125479Y0095789D02*
X0124599Y0095789D01*
X0122319Y0097569D01*
X0119819Y0097569D01*
X0118319Y0095319D01*
X0122069Y0085569D01*
X0128159Y0087535D01*
X0125951Y0084034D02*
X0125593Y0084034D01*
X0126069Y0083436D02*
X0123608Y0083436D01*
X0121624Y0082837D02*
X0126187Y0082837D01*
X0125200Y0091259D02*
X0122569Y0093890D01*
X0121069Y0095069D01*
X0118252Y0097202D02*
X0117148Y0097202D01*
X0116920Y0097800D02*
X0118651Y0097800D01*
X0119050Y0098399D02*
X0116692Y0098399D01*
X0117376Y0096603D02*
X0117853Y0096603D01*
X0125479Y0095789D02*
X0127819Y0096819D01*
X0122844Y0107975D02*
X0121429Y0107975D01*
X0122028Y0108573D02*
X0122844Y0108573D01*
X0122844Y0109172D02*
X0122408Y0109172D01*
X0122408Y0109770D02*
X0123004Y0109770D01*
X0122605Y0110369D02*
X0122408Y0110369D01*
X0120319Y0109819D02*
X0118164Y0108368D01*
X0113940Y0111566D02*
X0111550Y0111566D01*
X0112378Y0112164D02*
X0113360Y0112164D01*
X0114019Y0113119D02*
X0116319Y0115819D01*
X0112819Y0114319D02*
X0112751Y0114206D01*
X0112680Y0114095D01*
X0112606Y0113986D01*
X0112528Y0113879D01*
X0112447Y0113775D01*
X0112363Y0113673D01*
X0112277Y0113574D01*
X0112187Y0113477D01*
X0112094Y0113383D01*
X0111999Y0113291D01*
X0111902Y0113203D01*
X0111801Y0113117D01*
X0111698Y0113034D01*
X0111593Y0112955D01*
X0111486Y0112878D01*
X0111376Y0112805D01*
X0111264Y0112735D01*
X0111150Y0112668D01*
X0111035Y0112605D01*
X0110917Y0112545D01*
X0110798Y0112488D01*
X0110677Y0112435D01*
X0110554Y0112386D01*
X0110431Y0112340D01*
X0110306Y0112298D01*
X0110179Y0112259D01*
X0110052Y0112225D01*
X0109924Y0112194D01*
X0109795Y0112166D01*
X0109665Y0112143D01*
X0109534Y0112123D01*
X0109403Y0112108D01*
X0109272Y0112096D01*
X0109140Y0112088D01*
X0109008Y0112084D01*
X0108876Y0112083D01*
X0108744Y0112087D01*
X0108613Y0112094D01*
X0108481Y0112106D01*
X0108350Y0112121D01*
X0108220Y0112140D01*
X0108090Y0112163D01*
X0107960Y0112190D01*
X0107832Y0112220D01*
X0107704Y0112254D01*
X0107578Y0112292D01*
X0107453Y0112334D01*
X0107329Y0112379D01*
X0107206Y0112428D01*
X0107085Y0112480D01*
X0106966Y0112536D01*
X0106848Y0112596D01*
X0106732Y0112659D01*
X0106618Y0112725D01*
X0106506Y0112795D01*
X0106396Y0112868D01*
X0106288Y0112944D01*
X0106288Y0112943D02*
X0093069Y0120569D01*
X0095709Y0125438D01*
X0094076Y0124733D02*
X0076359Y0124733D01*
X0076658Y0124135D02*
X0093751Y0124135D01*
X0093427Y0123536D02*
X0076658Y0123536D01*
X0076658Y0122938D02*
X0093102Y0122938D01*
X0092778Y0122339D02*
X0076293Y0122339D01*
X0075695Y0121741D02*
X0092453Y0121741D01*
X0092128Y0121142D02*
X0067052Y0121142D01*
X0066919Y0121741D02*
X0073443Y0121741D01*
X0072845Y0122339D02*
X0066854Y0122339D01*
X0066256Y0122938D02*
X0072480Y0122938D01*
X0072480Y0123536D02*
X0065740Y0123536D01*
X0065908Y0124135D02*
X0072480Y0124135D01*
X0072779Y0124733D02*
X0065908Y0124733D01*
X0065908Y0125332D02*
X0067425Y0125332D01*
X0066734Y0125930D02*
X0065412Y0125930D01*
X0064814Y0126529D02*
X0066172Y0126529D01*
X0071413Y0125332D02*
X0073377Y0125332D01*
X0073508Y0125930D02*
X0072104Y0125930D01*
X0072666Y0126529D02*
X0073518Y0126529D01*
X0073529Y0127127D02*
X0072914Y0127127D01*
X0073162Y0127726D02*
X0073539Y0127726D01*
X0073549Y0128324D02*
X0073219Y0128324D01*
X0073219Y0128923D02*
X0073559Y0128923D01*
X0073568Y0129521D02*
X0073158Y0129521D01*
X0072910Y0130120D02*
X0073590Y0130120D01*
X0073612Y0130718D02*
X0072663Y0130718D01*
X0074669Y0129532D02*
X0074569Y0123569D01*
X0075761Y0125332D02*
X0092815Y0125332D01*
X0090865Y0125930D02*
X0075709Y0125930D01*
X0075719Y0126529D02*
X0088581Y0126529D01*
X0086298Y0127127D02*
X0075729Y0127127D01*
X0075739Y0127726D02*
X0082810Y0127726D01*
X0082069Y0132069D02*
X0085069Y0131819D01*
X0078060Y0128324D02*
X0075749Y0128324D01*
X0071392Y0119347D02*
X0068847Y0119347D01*
X0068249Y0119945D02*
X0092098Y0119945D01*
X0091929Y0120544D02*
X0067650Y0120544D01*
X0071408Y0114558D02*
X0073503Y0114558D01*
X0073219Y0113960D02*
X0072132Y0113960D01*
X0072731Y0113361D02*
X0073219Y0113361D01*
X0073219Y0112763D02*
X0072908Y0112763D01*
X0074319Y0113819D02*
X0074319Y0110819D01*
X0074319Y0113819D02*
X0076319Y0115819D01*
X0080569Y0115819D01*
X0082569Y0113819D01*
X0081819Y0109319D02*
X0084319Y0109319D01*
X0089319Y0104319D01*
X0102319Y0104319D01*
X0105569Y0106819D02*
X0105681Y0106817D01*
X0105793Y0106811D01*
X0105905Y0106802D01*
X0106016Y0106788D01*
X0106127Y0106771D01*
X0106237Y0106750D01*
X0106347Y0106725D01*
X0106455Y0106696D01*
X0106563Y0106663D01*
X0106669Y0106627D01*
X0106774Y0106587D01*
X0106877Y0106544D01*
X0106979Y0106497D01*
X0107079Y0106447D01*
X0107178Y0106393D01*
X0107274Y0106336D01*
X0107369Y0106275D01*
X0107461Y0106211D01*
X0107551Y0106145D01*
X0107639Y0106075D01*
X0107724Y0106002D01*
X0107807Y0105926D01*
X0107887Y0105847D01*
X0107964Y0105766D01*
X0108038Y0105682D01*
X0108110Y0105595D01*
X0108178Y0105506D01*
X0108244Y0105415D01*
X0108306Y0105322D01*
X0108365Y0105226D01*
X0108420Y0105129D01*
X0108472Y0105029D01*
X0108521Y0104928D01*
X0108566Y0104826D01*
X0108608Y0104721D01*
X0108646Y0104616D01*
X0108680Y0104509D01*
X0108711Y0104401D01*
X0108738Y0104292D01*
X0108761Y0104182D01*
X0108780Y0104072D01*
X0108795Y0103961D01*
X0108807Y0103849D01*
X0108815Y0103737D01*
X0108819Y0103625D01*
X0108819Y0103513D01*
X0108815Y0103401D01*
X0108807Y0103289D01*
X0108795Y0103177D01*
X0108780Y0103066D01*
X0108761Y0102956D01*
X0108738Y0102846D01*
X0108711Y0102737D01*
X0108680Y0102629D01*
X0108646Y0102522D01*
X0108608Y0102417D01*
X0108566Y0102312D01*
X0108521Y0102210D01*
X0108472Y0102109D01*
X0108420Y0102009D01*
X0108365Y0101912D01*
X0108306Y0101816D01*
X0108244Y0101723D01*
X0108178Y0101632D01*
X0108110Y0101543D01*
X0108038Y0101456D01*
X0107964Y0101372D01*
X0107887Y0101291D01*
X0107807Y0101212D01*
X0107724Y0101136D01*
X0107639Y0101063D01*
X0107551Y0100993D01*
X0107461Y0100927D01*
X0107369Y0100863D01*
X0107274Y0100802D01*
X0107178Y0100745D01*
X0107079Y0100691D01*
X0106979Y0100641D01*
X0106877Y0100594D01*
X0106774Y0100551D01*
X0106669Y0100511D01*
X0106563Y0100475D01*
X0106455Y0100442D01*
X0106347Y0100413D01*
X0106237Y0100388D01*
X0106127Y0100367D01*
X0106016Y0100350D01*
X0105905Y0100336D01*
X0105793Y0100327D01*
X0105681Y0100321D01*
X0105569Y0100319D01*
X0085819Y0100319D01*
X0083319Y0097819D01*
X0083319Y0093319D01*
X0080919Y0093611D02*
X0080869Y0093611D01*
X0080869Y0093012D02*
X0080919Y0093012D01*
X0080919Y0092414D02*
X0080704Y0092414D01*
X0080919Y0091815D02*
X0080421Y0091815D01*
X0080940Y0091217D02*
X0079823Y0091217D01*
X0080710Y0094209D02*
X0080919Y0094209D01*
X0080919Y0094808D02*
X0080437Y0094808D01*
X0080925Y0095406D02*
X0079838Y0095406D01*
X0084419Y0096005D02*
X0087219Y0096005D01*
X0087219Y0096603D02*
X0084419Y0096603D01*
X0084419Y0097202D02*
X0087219Y0097202D01*
X0087219Y0097800D02*
X0084856Y0097800D01*
X0085454Y0098399D02*
X0087343Y0098399D01*
X0087942Y0098997D02*
X0086053Y0098997D01*
X0044563Y0030981D02*
X0045945Y0030130D01*
X0036671Y0035197D02*
X0035772Y0036088D01*
X0034894Y0036999D01*
X0034038Y0037931D01*
X0033203Y0038883D01*
X0032391Y0039853D01*
X0031601Y0040843D01*
X0074028Y0075057D02*
X0074610Y0075057D01*
X0112793Y0114328D02*
X0113748Y0113390D01*
X0114680Y0112430D01*
X0115588Y0111446D01*
X0116472Y0110441D01*
X0117331Y0109415D01*
X0118164Y0108368D01*
X0106601Y0111355D02*
X0106601Y0111355D01*
X0102319Y0117819D02*
X0098819Y0122069D01*
X0096819Y0128069D02*
X0094069Y0129319D01*
X0093848Y0129264D01*
X0093626Y0129215D01*
X0093403Y0129171D01*
X0093179Y0129132D01*
X0092953Y0129099D01*
X0092727Y0129072D01*
X0092501Y0129050D01*
X0092274Y0129034D01*
X0092047Y0129023D01*
X0091819Y0129018D01*
X0091591Y0129018D01*
X0091364Y0129024D01*
X0091137Y0129035D01*
X0090910Y0129052D01*
X0090683Y0129075D01*
X0090457Y0129103D01*
X0090232Y0129137D01*
X0090008Y0129176D01*
X0089785Y0129221D01*
X0089563Y0129271D01*
X0089342Y0129326D01*
X0089123Y0129387D01*
X0088905Y0129453D01*
X0088689Y0129525D01*
X0088475Y0129602D01*
X0088262Y0129684D01*
X0088052Y0129771D01*
X0087844Y0129864D01*
X0087639Y0129961D01*
X0087435Y0130063D01*
X0087235Y0130171D01*
X0087037Y0130283D01*
X0086841Y0130400D01*
X0086649Y0130522D01*
X0086460Y0130648D01*
X0086274Y0130780D01*
X0086091Y0130915D01*
X0085912Y0131055D01*
X0085736Y0131200D01*
X0085563Y0131348D01*
X0085395Y0131501D01*
X0085230Y0131658D01*
X0085069Y0131819D01*
X0092860Y0117551D02*
X0074408Y0117551D01*
X0070819Y0112319D02*
X0069819Y0111319D01*
X0069819Y0109819D01*
X0069819Y0105819D02*
X0057319Y0118319D01*
X0085713Y0095406D02*
X0085925Y0095406D01*
X0085919Y0094808D02*
X0085719Y0094808D01*
X0085719Y0094209D02*
X0085919Y0094209D01*
X0085919Y0093611D02*
X0085719Y0093611D01*
X0085719Y0093012D02*
X0085919Y0093012D01*
X0085919Y0092414D02*
X0085719Y0092414D01*
X0085719Y0091815D02*
X0085919Y0091815D01*
X0085940Y0091217D02*
X0085698Y0091217D01*
X0046297Y0027816D02*
X0045338Y0028399D01*
X0044388Y0028998D01*
X0043449Y0029613D01*
X0108988Y0031903D02*
X0109947Y0032693D01*
X0110888Y0033505D01*
X0111809Y0034339D01*
X0028593Y0048575D02*
X0027994Y0049708D01*
X0027422Y0050854D01*
X0026877Y0052014D01*
X0026359Y0053186D01*
X0061460Y0023192D02*
X0062699Y0022884D01*
X0063944Y0022605D01*
X0065196Y0022357D01*
X0066454Y0022139D01*
X0067716Y0021951D01*
X0068983Y0021794D01*
X0070253Y0021667D01*
X0071526Y0021570D01*
X0072801Y0021504D01*
X0074077Y0021469D01*
X0037857Y0036517D02*
X0036952Y0037420D01*
X0036069Y0038344D01*
X0035209Y0039288D01*
X0034371Y0040254D01*
X0033557Y0041239D01*
X0032767Y0042244D01*
X0032002Y0043267D01*
X0031261Y0044308D01*
X0030546Y0045367D01*
X0029856Y0046443D01*
X0029192Y0047535D01*
X0129657Y0074311D02*
X0129653Y0075645D01*
X0129616Y0076978D01*
X0129547Y0078311D01*
X0129446Y0079641D01*
X0129312Y0080968D01*
X0129146Y0082292D01*
X0128947Y0083611D01*
X0128717Y0084926D01*
X0128454Y0086234D01*
X0128160Y0087535D01*
X0105569Y0098819D02*
X0105706Y0098821D01*
X0105843Y0098827D01*
X0105979Y0098837D01*
X0106115Y0098851D01*
X0106251Y0098868D01*
X0106386Y0098890D01*
X0106521Y0098915D01*
X0106655Y0098945D01*
X0106787Y0098978D01*
X0106919Y0099015D01*
X0107050Y0099056D01*
X0107179Y0099100D01*
X0107307Y0099149D01*
X0107434Y0099200D01*
X0107559Y0099256D01*
X0107683Y0099315D01*
X0107804Y0099378D01*
X0107924Y0099444D01*
X0108042Y0099514D01*
X0108158Y0099587D01*
X0108272Y0099663D01*
X0108383Y0099742D01*
X0108492Y0099825D01*
X0108599Y0099911D01*
X0108703Y0100000D01*
X0108805Y0100091D01*
X0108903Y0100186D01*
X0109000Y0100284D01*
X0109093Y0100384D01*
X0109183Y0100487D01*
X0109270Y0100592D01*
X0109355Y0100700D01*
X0109436Y0100810D01*
X0109514Y0100923D01*
X0109588Y0101038D01*
X0109660Y0101155D01*
X0109727Y0101273D01*
X0109792Y0101394D01*
X0109853Y0101517D01*
X0109910Y0101641D01*
X0109964Y0101767D01*
X0110014Y0101894D01*
X0110060Y0102023D01*
X0110103Y0102153D01*
X0110142Y0102285D01*
X0110177Y0102417D01*
X0110208Y0102550D01*
X0110236Y0102684D01*
X0110259Y0102819D01*
X0110279Y0102955D01*
X0110295Y0103091D01*
X0110307Y0103227D01*
X0110315Y0103364D01*
X0110319Y0103501D01*
X0110319Y0103637D01*
X0110315Y0103774D01*
X0110307Y0103911D01*
X0110295Y0104047D01*
X0110279Y0104183D01*
X0110259Y0104319D01*
X0110236Y0104454D01*
X0110208Y0104588D01*
X0110177Y0104721D01*
X0110142Y0104853D01*
X0110103Y0104985D01*
X0110060Y0105115D01*
X0110014Y0105244D01*
X0109964Y0105371D01*
X0109910Y0105497D01*
X0109853Y0105621D01*
X0109792Y0105744D01*
X0109727Y0105865D01*
X0109660Y0105983D01*
X0109588Y0106100D01*
X0109514Y0106215D01*
X0109436Y0106328D01*
X0109355Y0106438D01*
X0109270Y0106546D01*
X0109183Y0106651D01*
X0109093Y0106754D01*
X0109000Y0106854D01*
X0108903Y0106952D01*
X0108805Y0107047D01*
X0108703Y0107138D01*
X0108599Y0107227D01*
X0108492Y0107313D01*
X0108383Y0107396D01*
X0108272Y0107475D01*
X0108158Y0107551D01*
X0108042Y0107624D01*
X0107924Y0107694D01*
X0107804Y0107760D01*
X0107683Y0107823D01*
X0107559Y0107882D01*
X0107434Y0107938D01*
X0107307Y0107989D01*
X0107179Y0108038D01*
X0107050Y0108082D01*
X0106919Y0108123D01*
X0106787Y0108160D01*
X0106655Y0108193D01*
X0106521Y0108223D01*
X0106386Y0108248D01*
X0106251Y0108270D01*
X0106115Y0108287D01*
X0105979Y0108301D01*
X0105843Y0108311D01*
X0105706Y0108317D01*
X0105569Y0108319D01*
X0105569Y0109819D02*
X0105726Y0109817D01*
X0105883Y0109811D01*
X0106040Y0109801D01*
X0106196Y0109787D01*
X0106352Y0109770D01*
X0106508Y0109748D01*
X0106663Y0109723D01*
X0106817Y0109693D01*
X0106971Y0109660D01*
X0107123Y0109623D01*
X0107275Y0109582D01*
X0107426Y0109537D01*
X0107575Y0109488D01*
X0107723Y0109436D01*
X0107870Y0109380D01*
X0108015Y0109320D01*
X0108159Y0109257D01*
X0108301Y0109190D01*
X0108441Y0109120D01*
X0108580Y0109046D01*
X0108717Y0108969D01*
X0108851Y0108888D01*
X0108984Y0108804D01*
X0109114Y0108716D01*
X0109243Y0108625D01*
X0109369Y0108531D01*
X0109492Y0108434D01*
X0109613Y0108334D01*
X0109732Y0108231D01*
X0109847Y0108125D01*
X0109961Y0108016D01*
X0110071Y0107904D01*
X0110178Y0107790D01*
X0110283Y0107673D01*
X0110385Y0107553D01*
X0110483Y0107431D01*
X0110579Y0107306D01*
X0110671Y0107179D01*
X0110760Y0107049D01*
X0110846Y0106918D01*
X0110929Y0106784D01*
X0111008Y0106649D01*
X0111083Y0106511D01*
X0111156Y0106371D01*
X0111224Y0106230D01*
X0111289Y0106087D01*
X0111351Y0105943D01*
X0111409Y0105797D01*
X0111463Y0105649D01*
X0111513Y0105500D01*
X0111560Y0105350D01*
X0111603Y0105199D01*
X0111642Y0105047D01*
X0111677Y0104894D01*
X0111708Y0104740D01*
X0111736Y0104585D01*
X0111759Y0104430D01*
X0111779Y0104274D01*
X0111795Y0104118D01*
X0111807Y0103961D01*
X0111815Y0103805D01*
X0111819Y0103648D01*
X0111819Y0103490D01*
X0111815Y0103333D01*
X0111807Y0103177D01*
X0111795Y0103020D01*
X0111779Y0102864D01*
X0111759Y0102708D01*
X0111736Y0102553D01*
X0111708Y0102398D01*
X0111677Y0102244D01*
X0111642Y0102091D01*
X0111603Y0101939D01*
X0111560Y0101788D01*
X0111513Y0101638D01*
X0111463Y0101489D01*
X0111409Y0101341D01*
X0111351Y0101195D01*
X0111289Y0101051D01*
X0111224Y0100908D01*
X0111156Y0100767D01*
X0111083Y0100627D01*
X0111008Y0100489D01*
X0110929Y0100354D01*
X0110846Y0100220D01*
X0110760Y0100089D01*
X0110671Y0099959D01*
X0110579Y0099832D01*
X0110483Y0099707D01*
X0110385Y0099585D01*
X0110283Y0099465D01*
X0110178Y0099348D01*
X0110071Y0099234D01*
X0109961Y0099122D01*
X0109847Y0099013D01*
X0109732Y0098907D01*
X0109613Y0098804D01*
X0109492Y0098704D01*
X0109369Y0098607D01*
X0109243Y0098513D01*
X0109114Y0098422D01*
X0108984Y0098334D01*
X0108851Y0098250D01*
X0108717Y0098169D01*
X0108580Y0098092D01*
X0108441Y0098018D01*
X0108301Y0097948D01*
X0108159Y0097881D01*
X0108015Y0097818D01*
X0107870Y0097758D01*
X0107723Y0097702D01*
X0107575Y0097650D01*
X0107426Y0097601D01*
X0107275Y0097556D01*
X0107123Y0097515D01*
X0106971Y0097478D01*
X0106817Y0097445D01*
X0106663Y0097415D01*
X0106508Y0097390D01*
X0106352Y0097368D01*
X0106196Y0097351D01*
X0106040Y0097337D01*
X0105883Y0097327D01*
X0105726Y0097321D01*
X0105569Y0097319D01*
X0100940Y0091217D02*
X0100530Y0091217D01*
X0098394Y0091217D02*
X0098244Y0091217D01*
X0098244Y0091815D02*
X0098394Y0091815D01*
X0098394Y0092414D02*
X0098244Y0092414D01*
X0098244Y0093012D02*
X0098394Y0093012D01*
X0098394Y0090618D02*
X0098244Y0090618D01*
X0097069Y0106818D02*
X0097133Y0106934D01*
X0097194Y0107051D01*
X0097251Y0107170D01*
X0097304Y0107291D01*
X0097354Y0107413D01*
X0097401Y0107537D01*
X0097443Y0107662D01*
X0097482Y0107788D01*
X0097517Y0107916D01*
X0097548Y0108044D01*
X0097575Y0108173D01*
X0097599Y0108303D01*
X0097618Y0108434D01*
X0097634Y0108565D01*
X0097646Y0108696D01*
X0097654Y0108828D01*
X0097658Y0108960D01*
X0097658Y0109092D01*
X0097654Y0109224D01*
X0097646Y0109356D01*
X0097634Y0109488D01*
X0097618Y0109619D01*
X0097599Y0109749D01*
X0097575Y0109879D01*
X0097548Y0110009D01*
X0097517Y0110137D01*
X0097482Y0110264D01*
X0097443Y0110390D01*
X0097400Y0110516D01*
X0097354Y0110639D01*
X0097304Y0110762D01*
X0097251Y0110882D01*
X0097194Y0111001D01*
X0097133Y0111119D01*
X0097069Y0111234D01*
X0097002Y0111348D01*
X0096931Y0111459D01*
X0096857Y0111568D01*
X0096779Y0111676D01*
X0096699Y0111780D01*
X0096615Y0111882D01*
X0096529Y0111982D01*
X0096439Y0112079D01*
X0096347Y0112174D01*
X0096252Y0112265D01*
X0096154Y0112354D01*
X0096054Y0112440D01*
X0095951Y0112523D01*
X0095845Y0112602D01*
X0095738Y0112679D01*
X0095628Y0112752D01*
X0095516Y0112822D01*
X0095402Y0112888D01*
X0095286Y0112952D01*
X0095168Y0113011D01*
X0095048Y0113067D01*
X0094927Y0113120D01*
X0094804Y0113169D01*
X0094680Y0113214D01*
X0094555Y0113256D01*
X0094428Y0113293D01*
X0094301Y0113327D01*
X0094172Y0113357D01*
X0094043Y0113384D01*
X0093913Y0113406D01*
X0093782Y0113425D01*
X0093651Y0113439D01*
X0093519Y0113450D01*
X0093387Y0113457D01*
X0093255Y0113460D01*
X0093123Y0113459D01*
X0092991Y0113454D01*
X0092859Y0113445D01*
X0092728Y0113432D01*
X0092597Y0113415D01*
X0092467Y0113395D01*
X0092337Y0113370D01*
X0092208Y0113342D01*
X0092080Y0113310D01*
X0091953Y0113274D01*
X0091827Y0113234D01*
X0091702Y0113191D01*
X0091579Y0113143D01*
X0091457Y0113093D01*
X0091336Y0113038D01*
X0091218Y0112980D01*
X0091101Y0112919D01*
X0090986Y0112854D01*
X0090873Y0112785D01*
X0090762Y0112714D01*
X0090653Y0112639D01*
X0090547Y0112561D01*
X0090443Y0112479D01*
X0090341Y0112395D01*
X0090242Y0112308D01*
X0090146Y0112217D01*
X0090052Y0112124D01*
X0089961Y0112028D01*
X0089873Y0111930D01*
X0089788Y0111829D01*
X0089706Y0111725D01*
X0089628Y0111619D01*
X0089552Y0111511D01*
X0089479Y0111401D01*
X0089410Y0111288D01*
X0089345Y0111174D01*
X0089283Y0111057D01*
X0089224Y0110939D01*
X0089169Y0110819D01*
X0088319Y0112320D02*
X0088405Y0112445D01*
X0088494Y0112568D01*
X0088586Y0112689D01*
X0088681Y0112807D01*
X0088779Y0112923D01*
X0088880Y0113036D01*
X0088984Y0113147D01*
X0089091Y0113255D01*
X0089200Y0113360D01*
X0089313Y0113462D01*
X0089427Y0113562D01*
X0089545Y0113658D01*
X0089665Y0113751D01*
X0089787Y0113842D01*
X0089911Y0113929D01*
X0090038Y0114012D01*
X0090167Y0114093D01*
X0090297Y0114170D01*
X0090430Y0114244D01*
X0090565Y0114314D01*
X0090701Y0114381D01*
X0090839Y0114444D01*
X0090979Y0114504D01*
X0091120Y0114560D01*
X0091262Y0114612D01*
X0091406Y0114661D01*
X0091551Y0114706D01*
X0091697Y0114747D01*
X0091844Y0114785D01*
X0091992Y0114819D01*
X0092141Y0114848D01*
X0092291Y0114874D01*
X0092441Y0114897D01*
X0092592Y0114915D01*
X0092743Y0114929D01*
X0092894Y0114940D01*
X0093046Y0114946D01*
X0093198Y0114949D01*
X0093350Y0114948D01*
X0093501Y0114943D01*
X0093653Y0114933D01*
X0093804Y0114920D01*
X0093955Y0114904D01*
X0094105Y0114883D01*
X0094255Y0114858D01*
X0094404Y0114830D01*
X0094553Y0114797D01*
X0094700Y0114761D01*
X0094847Y0114721D01*
X0094992Y0114678D01*
X0095136Y0114630D01*
X0095279Y0114579D01*
X0095421Y0114524D01*
X0095561Y0114466D01*
X0095700Y0114404D01*
X0095837Y0114338D01*
X0095972Y0114269D01*
X0096105Y0114197D01*
X0096237Y0114121D01*
X0096366Y0114042D01*
X0096494Y0113959D01*
X0096619Y0113873D01*
X0096742Y0113784D01*
X0096862Y0113692D01*
X0096981Y0113597D01*
X0097096Y0113498D01*
X0097210Y0113397D01*
X0097320Y0113293D01*
X0097428Y0113186D01*
X0097533Y0113076D01*
X0097635Y0112964D01*
X0097734Y0112849D01*
X0097830Y0112731D01*
X0097924Y0112612D01*
X0098014Y0112489D01*
X0098100Y0112365D01*
X0098184Y0112238D01*
X0098264Y0112109D01*
X0098341Y0111978D01*
X0098415Y0111845D01*
X0098485Y0111711D01*
X0098552Y0111574D01*
X0098615Y0111436D01*
X0098674Y0111297D01*
X0098730Y0111155D01*
X0098782Y0111013D01*
X0098831Y0110869D01*
X0098876Y0110724D01*
X0098917Y0110578D01*
X0098954Y0110430D01*
X0098987Y0110282D01*
X0099017Y0110133D01*
X0099043Y0109984D01*
X0099065Y0109834D01*
X0099083Y0109683D01*
X0099097Y0109532D01*
X0099107Y0109380D01*
X0099114Y0109228D01*
X0099116Y0109077D01*
X0099114Y0108925D01*
X0099109Y0108773D01*
X0099100Y0108622D01*
X0099087Y0108470D01*
X0099070Y0108319D01*
X0115069Y0099569D02*
X0120319Y0102069D01*
D17*
X0120819Y0099819D03*
X0121069Y0095069D03*
X0127819Y0096819D03*
X0120319Y0109819D03*
X0113319Y0110319D03*
X0105819Y0104319D03*
X0102319Y0104319D03*
X0102319Y0117819D03*
X0096819Y0128069D03*
X0091069Y0124569D03*
X0082069Y0132069D03*
X0074569Y0123569D03*
X0079819Y0119819D03*
X0077319Y0113319D03*
X0079819Y0110819D03*
X0083079Y0107079D03*
X0080819Y0104819D03*
X0074319Y0110819D03*
X0070819Y0112319D03*
X0069319Y0115319D03*
X0072319Y0117319D03*
X0063319Y0120819D03*
X0063819Y0124569D03*
X0053819Y0122819D03*
X0052319Y0120069D03*
X0043819Y0115819D03*
X0042819Y0112319D03*
X0042819Y0108819D03*
X0042819Y0105319D03*
X0044319Y0101819D03*
X0039319Y0098319D03*
X0039319Y0094319D03*
X0041819Y0091819D03*
X0045319Y0091819D03*
X0049319Y0098319D03*
X0055319Y0109819D03*
X0031069Y0103819D03*
X0021069Y0094819D03*
X0025819Y0092069D03*
X0028819Y0081819D03*
X0029569Y0074319D03*
X0023569Y0063319D03*
X0032319Y0059819D03*
X0035819Y0059819D03*
X0048319Y0058319D03*
X0050319Y0048069D03*
X0051319Y0041319D03*
X0054569Y0032819D03*
X0062819Y0027319D03*
X0067569Y0017569D03*
X0080319Y0032319D03*
X0085069Y0027319D03*
X0088569Y0028819D03*
X0096819Y0021819D03*
X0099319Y0029819D03*
X0099319Y0037819D03*
X0095819Y0041819D03*
X0097819Y0053069D03*
X0095069Y0058069D03*
X0095819Y0064819D03*
X0099819Y0064819D03*
X0095569Y0069819D03*
X0089569Y0069819D03*
X0086319Y0072069D03*
X0086319Y0075319D03*
X0078819Y0083819D03*
X0071319Y0083819D03*
X0076819Y0066319D03*
X0078319Y0045569D03*
X0069569Y0044819D03*
X0073819Y0035319D03*
X0052819Y0021569D03*
X0029069Y0039569D03*
X0021819Y0052319D03*
X0017819Y0082069D03*
X0048319Y0077819D03*
X0052652Y0081319D03*
X0093819Y0088819D03*
X0096819Y0080319D03*
X0102319Y0087319D03*
X0107819Y0084319D03*
X0124819Y0068319D03*
X0107319Y0045319D03*
X0109819Y0029069D03*
D18*
X0028423Y0028416D03*
X0017994Y0042005D03*
X0011437Y0057831D03*
X0009200Y0074814D03*
X0011435Y0091798D03*
X0017989Y0107624D03*
X0028416Y0121215D03*
X0042005Y0131644D03*
X0057831Y0138201D03*
X0074814Y0140438D03*
X0091798Y0138203D03*
X0107624Y0131649D03*
X0121215Y0121222D03*
X0131644Y0107633D03*
X0138201Y0091807D03*
X0140438Y0074824D03*
X0138203Y0057840D03*
X0131649Y0042014D03*
X0121222Y0028423D03*
X0107633Y0017994D03*
X0091807Y0011437D03*
X0074824Y0009200D03*
X0057840Y0011435D03*
X0042014Y0017989D03*
M02*
