G75*
%MOIN*%
%OFA0B0*%
%FSLAX25Y25*%
%IPPOS*%
%LPD*%
%AMOC8*
5,1,8,0,0,1.08239X$1,22.5*
%
%ADD10C,0.00100*%
%ADD11C,0.00000*%
%ADD12C,0.00200*%
%ADD13C,0.00400*%
%ADD14C,0.00500*%
D10*
X0063099Y0060425D02*
X0063836Y0060000D01*
X0064687Y0061473D01*
X0063950Y0061899D01*
X0063563Y0061795D01*
X0062996Y0060812D01*
X0063099Y0060425D01*
X0064289Y0059738D02*
X0066122Y0060645D01*
X0066433Y0060137D02*
X0066150Y0059646D01*
X0066254Y0059259D01*
X0066990Y0058833D01*
X0066707Y0058342D02*
X0067558Y0059816D01*
X0066821Y0060241D01*
X0066433Y0060137D01*
X0066499Y0059117D02*
X0065724Y0058909D01*
X0065271Y0059171D02*
X0065140Y0061212D01*
X0066216Y0063626D02*
X0067066Y0065099D01*
X0067558Y0064816D02*
X0066575Y0065383D01*
X0066122Y0065645D02*
X0064289Y0064738D01*
X0063836Y0065000D02*
X0063099Y0065425D01*
X0062996Y0065812D01*
X0063563Y0066795D01*
X0063950Y0066899D01*
X0064687Y0066473D01*
X0063836Y0065000D01*
X0065271Y0064171D02*
X0065140Y0066212D01*
X0066707Y0068342D02*
X0067558Y0069816D01*
X0066821Y0070241D01*
X0066433Y0070137D01*
X0066150Y0069646D01*
X0066254Y0069259D01*
X0066990Y0068833D01*
X0066499Y0069117D02*
X0065724Y0068909D01*
X0065413Y0069417D02*
X0065026Y0069313D01*
X0064535Y0069596D01*
X0064431Y0069984D01*
X0064573Y0070229D01*
X0064960Y0070333D01*
X0065451Y0070050D01*
X0065839Y0070153D01*
X0065980Y0070399D01*
X0065877Y0070786D01*
X0065385Y0071070D01*
X0064998Y0070966D01*
X0064687Y0071473D02*
X0063704Y0072040D01*
X0064196Y0071757D02*
X0063345Y0070283D01*
X0065970Y0073768D02*
X0065866Y0074155D01*
X0066150Y0074646D01*
X0066641Y0074363D01*
X0066433Y0075137D02*
X0066821Y0075241D01*
X0067312Y0074958D01*
X0067416Y0074570D01*
X0066849Y0073588D01*
X0066461Y0073484D01*
X0065970Y0073768D01*
X0065271Y0074171D02*
X0066122Y0075645D01*
X0064289Y0074738D01*
X0065140Y0076212D01*
X0064687Y0076473D02*
X0063950Y0076899D01*
X0063563Y0076795D01*
X0062996Y0075812D01*
X0063099Y0075425D01*
X0063836Y0075000D01*
X0064687Y0076473D01*
X0066216Y0078626D02*
X0066008Y0079401D01*
X0066575Y0080383D01*
X0065980Y0080399D02*
X0065413Y0079417D01*
X0065026Y0079313D01*
X0064535Y0079596D01*
X0064431Y0079984D01*
X0063978Y0080245D02*
X0064545Y0081228D01*
X0064441Y0081615D01*
X0063950Y0081899D01*
X0063563Y0081795D01*
X0062996Y0080812D02*
X0063099Y0080425D01*
X0063591Y0080142D01*
X0063978Y0080245D01*
X0064998Y0080966D02*
X0065385Y0081070D01*
X0065877Y0080786D01*
X0065980Y0080399D01*
X0067558Y0079816D02*
X0066990Y0078833D01*
X0066216Y0078626D01*
X0077761Y0095410D02*
X0079404Y0095850D01*
X0079184Y0096672D01*
X0078837Y0096872D01*
X0078289Y0096725D01*
X0078088Y0096378D01*
X0078308Y0095556D01*
X0078162Y0096104D02*
X0077467Y0096505D01*
X0077332Y0097011D02*
X0077038Y0098106D01*
X0077177Y0098685D02*
X0076829Y0098885D01*
X0076682Y0099433D01*
X0076883Y0099781D01*
X0077157Y0099854D01*
X0077504Y0099653D01*
X0077651Y0099106D01*
X0077998Y0098905D01*
X0078272Y0098978D01*
X0078473Y0099326D01*
X0078326Y0099874D01*
X0077979Y0100074D01*
X0078117Y0100653D02*
X0076474Y0100212D01*
X0076180Y0101308D01*
X0077149Y0100980D02*
X0077295Y0100433D01*
X0078117Y0100653D02*
X0077824Y0101748D01*
X0077688Y0102254D02*
X0077395Y0103349D01*
X0077541Y0102802D02*
X0075898Y0102361D01*
X0078681Y0098547D02*
X0078975Y0097451D01*
X0077332Y0097011D01*
X0078153Y0097231D02*
X0078007Y0097779D01*
X0082039Y0098967D02*
X0082186Y0098419D01*
X0082534Y0098219D01*
X0083629Y0098512D01*
X0083830Y0098859D01*
X0083683Y0099407D01*
X0083336Y0099608D01*
X0082240Y0099314D01*
X0082039Y0098967D01*
X0082105Y0099819D02*
X0081757Y0100020D01*
X0081610Y0100568D01*
X0081811Y0100915D01*
X0082085Y0100989D01*
X0082432Y0100788D01*
X0082579Y0100240D01*
X0082926Y0100040D01*
X0083200Y0100113D01*
X0083401Y0100460D01*
X0083254Y0101008D01*
X0082907Y0101209D01*
X0083045Y0101787D02*
X0082898Y0102335D01*
X0082972Y0102061D02*
X0081328Y0101621D01*
X0081402Y0101347D02*
X0081255Y0101895D01*
X0082395Y0097640D02*
X0084038Y0098080D01*
X0083637Y0097386D01*
X0084332Y0096985D01*
X0082689Y0096544D01*
X0086900Y0099486D02*
X0086753Y0100034D01*
X0086954Y0100381D01*
X0087228Y0100455D01*
X0087575Y0100254D01*
X0087722Y0099707D01*
X0088069Y0099506D01*
X0088343Y0099579D01*
X0088544Y0099927D01*
X0088397Y0100475D01*
X0088050Y0100675D01*
X0087914Y0101180D02*
X0086819Y0100887D01*
X0086471Y0101087D01*
X0086325Y0101635D01*
X0086525Y0101982D01*
X0087621Y0102276D01*
X0087968Y0102075D01*
X0088115Y0101528D01*
X0087914Y0101180D01*
X0086900Y0099486D02*
X0087248Y0099286D01*
X0087113Y0098693D02*
X0087260Y0098145D01*
X0087186Y0098419D02*
X0088830Y0098859D01*
X0088903Y0098586D02*
X0088756Y0099133D01*
X0089038Y0098080D02*
X0087395Y0097640D01*
X0087689Y0096544D02*
X0089332Y0096985D01*
X0088637Y0097386D01*
X0089038Y0098080D01*
X0091251Y0100409D02*
X0092293Y0099807D01*
X0092093Y0099460D02*
X0092895Y0100849D01*
X0093188Y0099754D02*
X0091545Y0099313D01*
X0091954Y0098881D02*
X0091753Y0098534D01*
X0091900Y0097986D01*
X0092248Y0097786D01*
X0093343Y0098079D01*
X0093544Y0098427D01*
X0093397Y0098975D01*
X0093050Y0099175D01*
X0093479Y0097574D02*
X0093826Y0097374D01*
X0093973Y0096826D01*
X0093772Y0096478D01*
X0093498Y0096405D01*
X0093151Y0096606D01*
X0093004Y0097153D01*
X0092657Y0097354D01*
X0092383Y0097281D01*
X0092182Y0096933D01*
X0092329Y0096385D01*
X0092677Y0096185D01*
X0097182Y0097433D02*
X0097383Y0097781D01*
X0097931Y0097927D01*
X0098078Y0097380D01*
X0098479Y0098074D02*
X0098826Y0097874D01*
X0098973Y0097326D01*
X0098772Y0096978D01*
X0097677Y0096685D01*
X0097329Y0096885D01*
X0097182Y0097433D01*
X0096974Y0098212D02*
X0098617Y0098653D01*
X0096680Y0099308D01*
X0098324Y0099748D01*
X0098188Y0100254D02*
X0097968Y0101075D01*
X0097621Y0101276D01*
X0096525Y0100982D01*
X0096325Y0100635D01*
X0096545Y0099813D01*
X0098188Y0100254D01*
X0101825Y0100135D02*
X0102025Y0100482D01*
X0101825Y0100135D02*
X0101971Y0099587D01*
X0102319Y0099387D01*
X0103414Y0099680D01*
X0103615Y0100028D01*
X0103468Y0100575D01*
X0103121Y0100776D01*
X0103550Y0099175D02*
X0103897Y0098975D01*
X0104044Y0098427D01*
X0103843Y0098079D01*
X0102748Y0097786D01*
X0102400Y0097986D01*
X0102253Y0098534D01*
X0102454Y0098881D01*
X0103157Y0097354D02*
X0104253Y0097648D01*
X0104546Y0096552D02*
X0103450Y0096258D01*
X0102756Y0096659D01*
X0103157Y0097354D01*
D11*
X0091483Y0109007D02*
X0091485Y0109091D01*
X0091491Y0109174D01*
X0091501Y0109257D01*
X0091515Y0109340D01*
X0091532Y0109422D01*
X0091554Y0109503D01*
X0091579Y0109582D01*
X0091608Y0109661D01*
X0091641Y0109738D01*
X0091677Y0109813D01*
X0091717Y0109887D01*
X0091760Y0109959D01*
X0091807Y0110028D01*
X0091857Y0110095D01*
X0091910Y0110160D01*
X0091966Y0110222D01*
X0092024Y0110282D01*
X0092086Y0110339D01*
X0092150Y0110392D01*
X0092217Y0110443D01*
X0092286Y0110490D01*
X0092357Y0110535D01*
X0092430Y0110575D01*
X0092505Y0110612D01*
X0092582Y0110646D01*
X0092660Y0110676D01*
X0092739Y0110702D01*
X0092820Y0110725D01*
X0092902Y0110743D01*
X0092984Y0110758D01*
X0093067Y0110769D01*
X0093150Y0110776D01*
X0093234Y0110779D01*
X0093318Y0110778D01*
X0093401Y0110773D01*
X0093485Y0110764D01*
X0093567Y0110751D01*
X0093649Y0110735D01*
X0093730Y0110714D01*
X0093811Y0110690D01*
X0093889Y0110662D01*
X0093967Y0110630D01*
X0094043Y0110594D01*
X0094117Y0110555D01*
X0094189Y0110513D01*
X0094259Y0110467D01*
X0094327Y0110418D01*
X0094392Y0110366D01*
X0094455Y0110311D01*
X0094515Y0110253D01*
X0094573Y0110192D01*
X0094627Y0110128D01*
X0094679Y0110062D01*
X0094727Y0109994D01*
X0094772Y0109923D01*
X0094813Y0109850D01*
X0094852Y0109776D01*
X0094886Y0109700D01*
X0094917Y0109622D01*
X0094944Y0109543D01*
X0094968Y0109462D01*
X0094987Y0109381D01*
X0095003Y0109299D01*
X0095015Y0109216D01*
X0095023Y0109132D01*
X0095027Y0109049D01*
X0095027Y0108965D01*
X0095023Y0108882D01*
X0095015Y0108798D01*
X0095003Y0108715D01*
X0094987Y0108633D01*
X0094968Y0108552D01*
X0094944Y0108471D01*
X0094917Y0108392D01*
X0094886Y0108314D01*
X0094852Y0108238D01*
X0094813Y0108164D01*
X0094772Y0108091D01*
X0094727Y0108020D01*
X0094679Y0107952D01*
X0094627Y0107886D01*
X0094573Y0107822D01*
X0094515Y0107761D01*
X0094455Y0107703D01*
X0094392Y0107648D01*
X0094327Y0107596D01*
X0094259Y0107547D01*
X0094189Y0107501D01*
X0094117Y0107459D01*
X0094043Y0107420D01*
X0093967Y0107384D01*
X0093889Y0107352D01*
X0093811Y0107324D01*
X0093730Y0107300D01*
X0093649Y0107279D01*
X0093567Y0107263D01*
X0093485Y0107250D01*
X0093401Y0107241D01*
X0093318Y0107236D01*
X0093234Y0107235D01*
X0093150Y0107238D01*
X0093067Y0107245D01*
X0092984Y0107256D01*
X0092902Y0107271D01*
X0092820Y0107289D01*
X0092739Y0107312D01*
X0092660Y0107338D01*
X0092582Y0107368D01*
X0092505Y0107402D01*
X0092430Y0107439D01*
X0092357Y0107479D01*
X0092286Y0107524D01*
X0092217Y0107571D01*
X0092150Y0107622D01*
X0092086Y0107675D01*
X0092024Y0107732D01*
X0091966Y0107792D01*
X0091910Y0107854D01*
X0091857Y0107919D01*
X0091807Y0107986D01*
X0091760Y0108055D01*
X0091717Y0108127D01*
X0091677Y0108201D01*
X0091641Y0108276D01*
X0091608Y0108353D01*
X0091579Y0108432D01*
X0091554Y0108511D01*
X0091532Y0108592D01*
X0091515Y0108674D01*
X0091501Y0108757D01*
X0091491Y0108840D01*
X0091485Y0108923D01*
X0091483Y0109007D01*
X0106519Y0116619D02*
X0106521Y0116718D01*
X0106527Y0116818D01*
X0106537Y0116917D01*
X0106551Y0117015D01*
X0106568Y0117113D01*
X0106590Y0117210D01*
X0106615Y0117306D01*
X0106644Y0117401D01*
X0106677Y0117495D01*
X0106714Y0117587D01*
X0106754Y0117678D01*
X0106798Y0117767D01*
X0106846Y0117855D01*
X0106897Y0117940D01*
X0106951Y0118023D01*
X0107008Y0118105D01*
X0107069Y0118183D01*
X0107133Y0118260D01*
X0107199Y0118333D01*
X0107269Y0118404D01*
X0107341Y0118472D01*
X0107416Y0118538D01*
X0107494Y0118600D01*
X0107574Y0118659D01*
X0107656Y0118715D01*
X0107740Y0118767D01*
X0107827Y0118816D01*
X0107915Y0118862D01*
X0108005Y0118904D01*
X0108097Y0118943D01*
X0108190Y0118978D01*
X0108284Y0119009D01*
X0108380Y0119036D01*
X0108477Y0119059D01*
X0108574Y0119079D01*
X0108672Y0119095D01*
X0108771Y0119107D01*
X0108870Y0119115D01*
X0108969Y0119119D01*
X0109069Y0119119D01*
X0109168Y0119115D01*
X0109267Y0119107D01*
X0109366Y0119095D01*
X0109464Y0119079D01*
X0109561Y0119059D01*
X0109658Y0119036D01*
X0109754Y0119009D01*
X0109848Y0118978D01*
X0109941Y0118943D01*
X0110033Y0118904D01*
X0110123Y0118862D01*
X0110211Y0118816D01*
X0110298Y0118767D01*
X0110382Y0118715D01*
X0110464Y0118659D01*
X0110544Y0118600D01*
X0110622Y0118538D01*
X0110697Y0118472D01*
X0110769Y0118404D01*
X0110839Y0118333D01*
X0110905Y0118260D01*
X0110969Y0118183D01*
X0111030Y0118105D01*
X0111087Y0118023D01*
X0111141Y0117940D01*
X0111192Y0117855D01*
X0111240Y0117767D01*
X0111284Y0117678D01*
X0111324Y0117587D01*
X0111361Y0117495D01*
X0111394Y0117401D01*
X0111423Y0117306D01*
X0111448Y0117210D01*
X0111470Y0117113D01*
X0111487Y0117015D01*
X0111501Y0116917D01*
X0111511Y0116818D01*
X0111517Y0116718D01*
X0111519Y0116619D01*
X0111517Y0116520D01*
X0111511Y0116420D01*
X0111501Y0116321D01*
X0111487Y0116223D01*
X0111470Y0116125D01*
X0111448Y0116028D01*
X0111423Y0115932D01*
X0111394Y0115837D01*
X0111361Y0115743D01*
X0111324Y0115651D01*
X0111284Y0115560D01*
X0111240Y0115471D01*
X0111192Y0115383D01*
X0111141Y0115298D01*
X0111087Y0115215D01*
X0111030Y0115133D01*
X0110969Y0115055D01*
X0110905Y0114978D01*
X0110839Y0114905D01*
X0110769Y0114834D01*
X0110697Y0114766D01*
X0110622Y0114700D01*
X0110544Y0114638D01*
X0110464Y0114579D01*
X0110382Y0114523D01*
X0110298Y0114471D01*
X0110211Y0114422D01*
X0110123Y0114376D01*
X0110033Y0114334D01*
X0109941Y0114295D01*
X0109848Y0114260D01*
X0109754Y0114229D01*
X0109658Y0114202D01*
X0109561Y0114179D01*
X0109464Y0114159D01*
X0109366Y0114143D01*
X0109267Y0114131D01*
X0109168Y0114123D01*
X0109069Y0114119D01*
X0108969Y0114119D01*
X0108870Y0114123D01*
X0108771Y0114131D01*
X0108672Y0114143D01*
X0108574Y0114159D01*
X0108477Y0114179D01*
X0108380Y0114202D01*
X0108284Y0114229D01*
X0108190Y0114260D01*
X0108097Y0114295D01*
X0108005Y0114334D01*
X0107915Y0114376D01*
X0107827Y0114422D01*
X0107740Y0114471D01*
X0107656Y0114523D01*
X0107574Y0114579D01*
X0107494Y0114638D01*
X0107416Y0114700D01*
X0107341Y0114766D01*
X0107269Y0114834D01*
X0107199Y0114905D01*
X0107133Y0114978D01*
X0107069Y0115055D01*
X0107008Y0115133D01*
X0106951Y0115215D01*
X0106897Y0115298D01*
X0106846Y0115383D01*
X0106798Y0115471D01*
X0106754Y0115560D01*
X0106714Y0115651D01*
X0106677Y0115743D01*
X0106644Y0115837D01*
X0106615Y0115932D01*
X0106590Y0116028D01*
X0106568Y0116125D01*
X0106551Y0116223D01*
X0106537Y0116321D01*
X0106527Y0116420D01*
X0106521Y0116520D01*
X0106519Y0116619D01*
X0085940Y0084748D02*
X0085942Y0084860D01*
X0085948Y0084971D01*
X0085958Y0085083D01*
X0085972Y0085194D01*
X0085989Y0085304D01*
X0086011Y0085414D01*
X0086037Y0085523D01*
X0086066Y0085631D01*
X0086099Y0085737D01*
X0086136Y0085843D01*
X0086177Y0085947D01*
X0086222Y0086050D01*
X0086270Y0086151D01*
X0086321Y0086250D01*
X0086376Y0086347D01*
X0086435Y0086442D01*
X0086496Y0086536D01*
X0086561Y0086627D01*
X0086630Y0086715D01*
X0086701Y0086801D01*
X0086775Y0086885D01*
X0086853Y0086965D01*
X0086933Y0087043D01*
X0087016Y0087119D01*
X0087101Y0087191D01*
X0087189Y0087260D01*
X0087279Y0087326D01*
X0087372Y0087388D01*
X0087467Y0087448D01*
X0087564Y0087504D01*
X0087662Y0087556D01*
X0087763Y0087605D01*
X0087865Y0087650D01*
X0087969Y0087692D01*
X0088074Y0087730D01*
X0088181Y0087764D01*
X0088288Y0087794D01*
X0088397Y0087821D01*
X0088506Y0087843D01*
X0088617Y0087862D01*
X0088727Y0087877D01*
X0088839Y0087888D01*
X0088950Y0087895D01*
X0089062Y0087898D01*
X0089174Y0087897D01*
X0089286Y0087892D01*
X0089397Y0087883D01*
X0089508Y0087870D01*
X0089619Y0087853D01*
X0089729Y0087833D01*
X0089838Y0087808D01*
X0089946Y0087780D01*
X0090053Y0087747D01*
X0090159Y0087711D01*
X0090263Y0087671D01*
X0090366Y0087628D01*
X0090468Y0087581D01*
X0090567Y0087530D01*
X0090665Y0087476D01*
X0090761Y0087418D01*
X0090855Y0087357D01*
X0090946Y0087293D01*
X0091035Y0087226D01*
X0091122Y0087155D01*
X0091206Y0087081D01*
X0091288Y0087005D01*
X0091366Y0086925D01*
X0091442Y0086843D01*
X0091515Y0086758D01*
X0091585Y0086671D01*
X0091651Y0086581D01*
X0091715Y0086489D01*
X0091775Y0086395D01*
X0091832Y0086299D01*
X0091885Y0086200D01*
X0091935Y0086100D01*
X0091981Y0085999D01*
X0092024Y0085895D01*
X0092063Y0085790D01*
X0092098Y0085684D01*
X0092129Y0085577D01*
X0092157Y0085468D01*
X0092180Y0085359D01*
X0092200Y0085249D01*
X0092216Y0085138D01*
X0092228Y0085027D01*
X0092236Y0084916D01*
X0092240Y0084804D01*
X0092240Y0084692D01*
X0092236Y0084580D01*
X0092228Y0084469D01*
X0092216Y0084358D01*
X0092200Y0084247D01*
X0092180Y0084137D01*
X0092157Y0084028D01*
X0092129Y0083919D01*
X0092098Y0083812D01*
X0092063Y0083706D01*
X0092024Y0083601D01*
X0091981Y0083497D01*
X0091935Y0083396D01*
X0091885Y0083296D01*
X0091832Y0083197D01*
X0091775Y0083101D01*
X0091715Y0083007D01*
X0091651Y0082915D01*
X0091585Y0082825D01*
X0091515Y0082738D01*
X0091442Y0082653D01*
X0091366Y0082571D01*
X0091288Y0082491D01*
X0091206Y0082415D01*
X0091122Y0082341D01*
X0091035Y0082270D01*
X0090946Y0082203D01*
X0090855Y0082139D01*
X0090761Y0082078D01*
X0090665Y0082020D01*
X0090567Y0081966D01*
X0090468Y0081915D01*
X0090366Y0081868D01*
X0090263Y0081825D01*
X0090159Y0081785D01*
X0090053Y0081749D01*
X0089946Y0081716D01*
X0089838Y0081688D01*
X0089729Y0081663D01*
X0089619Y0081643D01*
X0089508Y0081626D01*
X0089397Y0081613D01*
X0089286Y0081604D01*
X0089174Y0081599D01*
X0089062Y0081598D01*
X0088950Y0081601D01*
X0088839Y0081608D01*
X0088727Y0081619D01*
X0088617Y0081634D01*
X0088506Y0081653D01*
X0088397Y0081675D01*
X0088288Y0081702D01*
X0088181Y0081732D01*
X0088074Y0081766D01*
X0087969Y0081804D01*
X0087865Y0081846D01*
X0087763Y0081891D01*
X0087662Y0081940D01*
X0087564Y0081992D01*
X0087467Y0082048D01*
X0087372Y0082108D01*
X0087279Y0082170D01*
X0087189Y0082236D01*
X0087101Y0082305D01*
X0087016Y0082377D01*
X0086933Y0082453D01*
X0086853Y0082531D01*
X0086775Y0082611D01*
X0086701Y0082695D01*
X0086630Y0082781D01*
X0086561Y0082869D01*
X0086496Y0082960D01*
X0086435Y0083054D01*
X0086376Y0083149D01*
X0086321Y0083246D01*
X0086270Y0083345D01*
X0086222Y0083446D01*
X0086177Y0083549D01*
X0086136Y0083653D01*
X0086099Y0083759D01*
X0086066Y0083865D01*
X0086037Y0083973D01*
X0086011Y0084082D01*
X0085989Y0084192D01*
X0085972Y0084302D01*
X0085958Y0084413D01*
X0085948Y0084525D01*
X0085942Y0084636D01*
X0085940Y0084748D01*
X0070056Y0095892D02*
X0070058Y0095980D01*
X0070064Y0096068D01*
X0070074Y0096156D01*
X0070088Y0096244D01*
X0070105Y0096330D01*
X0070127Y0096416D01*
X0070152Y0096500D01*
X0070182Y0096584D01*
X0070214Y0096666D01*
X0070251Y0096746D01*
X0070291Y0096825D01*
X0070335Y0096902D01*
X0070382Y0096977D01*
X0070432Y0097049D01*
X0070486Y0097120D01*
X0070542Y0097187D01*
X0070602Y0097253D01*
X0070664Y0097315D01*
X0070730Y0097375D01*
X0070797Y0097431D01*
X0070868Y0097485D01*
X0070940Y0097535D01*
X0071015Y0097582D01*
X0071092Y0097626D01*
X0071171Y0097666D01*
X0071251Y0097703D01*
X0071333Y0097735D01*
X0071417Y0097765D01*
X0071501Y0097790D01*
X0071587Y0097812D01*
X0071673Y0097829D01*
X0071761Y0097843D01*
X0071849Y0097853D01*
X0071937Y0097859D01*
X0072025Y0097861D01*
X0072113Y0097859D01*
X0072201Y0097853D01*
X0072289Y0097843D01*
X0072377Y0097829D01*
X0072463Y0097812D01*
X0072549Y0097790D01*
X0072633Y0097765D01*
X0072717Y0097735D01*
X0072799Y0097703D01*
X0072879Y0097666D01*
X0072958Y0097626D01*
X0073035Y0097582D01*
X0073110Y0097535D01*
X0073182Y0097485D01*
X0073253Y0097431D01*
X0073320Y0097375D01*
X0073386Y0097315D01*
X0073448Y0097253D01*
X0073508Y0097187D01*
X0073564Y0097120D01*
X0073618Y0097049D01*
X0073668Y0096977D01*
X0073715Y0096902D01*
X0073759Y0096825D01*
X0073799Y0096746D01*
X0073836Y0096666D01*
X0073868Y0096584D01*
X0073898Y0096500D01*
X0073923Y0096416D01*
X0073945Y0096330D01*
X0073962Y0096244D01*
X0073976Y0096156D01*
X0073986Y0096068D01*
X0073992Y0095980D01*
X0073994Y0095892D01*
X0073992Y0095804D01*
X0073986Y0095716D01*
X0073976Y0095628D01*
X0073962Y0095540D01*
X0073945Y0095454D01*
X0073923Y0095368D01*
X0073898Y0095284D01*
X0073868Y0095200D01*
X0073836Y0095118D01*
X0073799Y0095038D01*
X0073759Y0094959D01*
X0073715Y0094882D01*
X0073668Y0094807D01*
X0073618Y0094735D01*
X0073564Y0094664D01*
X0073508Y0094597D01*
X0073448Y0094531D01*
X0073386Y0094469D01*
X0073320Y0094409D01*
X0073253Y0094353D01*
X0073182Y0094299D01*
X0073110Y0094249D01*
X0073035Y0094202D01*
X0072958Y0094158D01*
X0072879Y0094118D01*
X0072799Y0094081D01*
X0072717Y0094049D01*
X0072633Y0094019D01*
X0072549Y0093994D01*
X0072463Y0093972D01*
X0072377Y0093955D01*
X0072289Y0093941D01*
X0072201Y0093931D01*
X0072113Y0093925D01*
X0072025Y0093923D01*
X0071937Y0093925D01*
X0071849Y0093931D01*
X0071761Y0093941D01*
X0071673Y0093955D01*
X0071587Y0093972D01*
X0071501Y0093994D01*
X0071417Y0094019D01*
X0071333Y0094049D01*
X0071251Y0094081D01*
X0071171Y0094118D01*
X0071092Y0094158D01*
X0071015Y0094202D01*
X0070940Y0094249D01*
X0070868Y0094299D01*
X0070797Y0094353D01*
X0070730Y0094409D01*
X0070664Y0094469D01*
X0070602Y0094531D01*
X0070542Y0094597D01*
X0070486Y0094664D01*
X0070432Y0094735D01*
X0070382Y0094807D01*
X0070335Y0094882D01*
X0070291Y0094959D01*
X0070251Y0095038D01*
X0070214Y0095118D01*
X0070182Y0095200D01*
X0070152Y0095284D01*
X0070127Y0095368D01*
X0070105Y0095454D01*
X0070088Y0095540D01*
X0070074Y0095628D01*
X0070064Y0095716D01*
X0070058Y0095804D01*
X0070056Y0095892D01*
X0048652Y0068588D02*
X0048654Y0068700D01*
X0048660Y0068811D01*
X0048670Y0068923D01*
X0048684Y0069034D01*
X0048701Y0069144D01*
X0048723Y0069254D01*
X0048749Y0069363D01*
X0048778Y0069471D01*
X0048811Y0069577D01*
X0048848Y0069683D01*
X0048889Y0069787D01*
X0048934Y0069890D01*
X0048982Y0069991D01*
X0049033Y0070090D01*
X0049088Y0070187D01*
X0049147Y0070282D01*
X0049208Y0070376D01*
X0049273Y0070467D01*
X0049342Y0070555D01*
X0049413Y0070641D01*
X0049487Y0070725D01*
X0049565Y0070805D01*
X0049645Y0070883D01*
X0049728Y0070959D01*
X0049813Y0071031D01*
X0049901Y0071100D01*
X0049991Y0071166D01*
X0050084Y0071228D01*
X0050179Y0071288D01*
X0050276Y0071344D01*
X0050374Y0071396D01*
X0050475Y0071445D01*
X0050577Y0071490D01*
X0050681Y0071532D01*
X0050786Y0071570D01*
X0050893Y0071604D01*
X0051000Y0071634D01*
X0051109Y0071661D01*
X0051218Y0071683D01*
X0051329Y0071702D01*
X0051439Y0071717D01*
X0051551Y0071728D01*
X0051662Y0071735D01*
X0051774Y0071738D01*
X0051886Y0071737D01*
X0051998Y0071732D01*
X0052109Y0071723D01*
X0052220Y0071710D01*
X0052331Y0071693D01*
X0052441Y0071673D01*
X0052550Y0071648D01*
X0052658Y0071620D01*
X0052765Y0071587D01*
X0052871Y0071551D01*
X0052975Y0071511D01*
X0053078Y0071468D01*
X0053180Y0071421D01*
X0053279Y0071370D01*
X0053377Y0071316D01*
X0053473Y0071258D01*
X0053567Y0071197D01*
X0053658Y0071133D01*
X0053747Y0071066D01*
X0053834Y0070995D01*
X0053918Y0070921D01*
X0054000Y0070845D01*
X0054078Y0070765D01*
X0054154Y0070683D01*
X0054227Y0070598D01*
X0054297Y0070511D01*
X0054363Y0070421D01*
X0054427Y0070329D01*
X0054487Y0070235D01*
X0054544Y0070139D01*
X0054597Y0070040D01*
X0054647Y0069940D01*
X0054693Y0069839D01*
X0054736Y0069735D01*
X0054775Y0069630D01*
X0054810Y0069524D01*
X0054841Y0069417D01*
X0054869Y0069308D01*
X0054892Y0069199D01*
X0054912Y0069089D01*
X0054928Y0068978D01*
X0054940Y0068867D01*
X0054948Y0068756D01*
X0054952Y0068644D01*
X0054952Y0068532D01*
X0054948Y0068420D01*
X0054940Y0068309D01*
X0054928Y0068198D01*
X0054912Y0068087D01*
X0054892Y0067977D01*
X0054869Y0067868D01*
X0054841Y0067759D01*
X0054810Y0067652D01*
X0054775Y0067546D01*
X0054736Y0067441D01*
X0054693Y0067337D01*
X0054647Y0067236D01*
X0054597Y0067136D01*
X0054544Y0067037D01*
X0054487Y0066941D01*
X0054427Y0066847D01*
X0054363Y0066755D01*
X0054297Y0066665D01*
X0054227Y0066578D01*
X0054154Y0066493D01*
X0054078Y0066411D01*
X0054000Y0066331D01*
X0053918Y0066255D01*
X0053834Y0066181D01*
X0053747Y0066110D01*
X0053658Y0066043D01*
X0053567Y0065979D01*
X0053473Y0065918D01*
X0053377Y0065860D01*
X0053279Y0065806D01*
X0053180Y0065755D01*
X0053078Y0065708D01*
X0052975Y0065665D01*
X0052871Y0065625D01*
X0052765Y0065589D01*
X0052658Y0065556D01*
X0052550Y0065528D01*
X0052441Y0065503D01*
X0052331Y0065483D01*
X0052220Y0065466D01*
X0052109Y0065453D01*
X0051998Y0065444D01*
X0051886Y0065439D01*
X0051774Y0065438D01*
X0051662Y0065441D01*
X0051551Y0065448D01*
X0051439Y0065459D01*
X0051329Y0065474D01*
X0051218Y0065493D01*
X0051109Y0065515D01*
X0051000Y0065542D01*
X0050893Y0065572D01*
X0050786Y0065606D01*
X0050681Y0065644D01*
X0050577Y0065686D01*
X0050475Y0065731D01*
X0050374Y0065780D01*
X0050276Y0065832D01*
X0050179Y0065888D01*
X0050084Y0065948D01*
X0049991Y0066010D01*
X0049901Y0066076D01*
X0049813Y0066145D01*
X0049728Y0066217D01*
X0049645Y0066293D01*
X0049565Y0066371D01*
X0049487Y0066451D01*
X0049413Y0066535D01*
X0049342Y0066621D01*
X0049273Y0066709D01*
X0049208Y0066800D01*
X0049147Y0066894D01*
X0049088Y0066989D01*
X0049033Y0067086D01*
X0048982Y0067185D01*
X0048934Y0067286D01*
X0048889Y0067389D01*
X0048848Y0067493D01*
X0048811Y0067599D01*
X0048778Y0067705D01*
X0048749Y0067813D01*
X0048723Y0067922D01*
X0048701Y0068032D01*
X0048684Y0068142D01*
X0048670Y0068253D01*
X0048660Y0068365D01*
X0048654Y0068476D01*
X0048652Y0068588D01*
X0029556Y0068274D02*
X0029558Y0068362D01*
X0029564Y0068450D01*
X0029574Y0068538D01*
X0029588Y0068626D01*
X0029605Y0068712D01*
X0029627Y0068798D01*
X0029652Y0068882D01*
X0029682Y0068966D01*
X0029714Y0069048D01*
X0029751Y0069128D01*
X0029791Y0069207D01*
X0029835Y0069284D01*
X0029882Y0069359D01*
X0029932Y0069431D01*
X0029986Y0069502D01*
X0030042Y0069569D01*
X0030102Y0069635D01*
X0030164Y0069697D01*
X0030230Y0069757D01*
X0030297Y0069813D01*
X0030368Y0069867D01*
X0030440Y0069917D01*
X0030515Y0069964D01*
X0030592Y0070008D01*
X0030671Y0070048D01*
X0030751Y0070085D01*
X0030833Y0070117D01*
X0030917Y0070147D01*
X0031001Y0070172D01*
X0031087Y0070194D01*
X0031173Y0070211D01*
X0031261Y0070225D01*
X0031349Y0070235D01*
X0031437Y0070241D01*
X0031525Y0070243D01*
X0031613Y0070241D01*
X0031701Y0070235D01*
X0031789Y0070225D01*
X0031877Y0070211D01*
X0031963Y0070194D01*
X0032049Y0070172D01*
X0032133Y0070147D01*
X0032217Y0070117D01*
X0032299Y0070085D01*
X0032379Y0070048D01*
X0032458Y0070008D01*
X0032535Y0069964D01*
X0032610Y0069917D01*
X0032682Y0069867D01*
X0032753Y0069813D01*
X0032820Y0069757D01*
X0032886Y0069697D01*
X0032948Y0069635D01*
X0033008Y0069569D01*
X0033064Y0069502D01*
X0033118Y0069431D01*
X0033168Y0069359D01*
X0033215Y0069284D01*
X0033259Y0069207D01*
X0033299Y0069128D01*
X0033336Y0069048D01*
X0033368Y0068966D01*
X0033398Y0068882D01*
X0033423Y0068798D01*
X0033445Y0068712D01*
X0033462Y0068626D01*
X0033476Y0068538D01*
X0033486Y0068450D01*
X0033492Y0068362D01*
X0033494Y0068274D01*
X0033492Y0068186D01*
X0033486Y0068098D01*
X0033476Y0068010D01*
X0033462Y0067922D01*
X0033445Y0067836D01*
X0033423Y0067750D01*
X0033398Y0067666D01*
X0033368Y0067582D01*
X0033336Y0067500D01*
X0033299Y0067420D01*
X0033259Y0067341D01*
X0033215Y0067264D01*
X0033168Y0067189D01*
X0033118Y0067117D01*
X0033064Y0067046D01*
X0033008Y0066979D01*
X0032948Y0066913D01*
X0032886Y0066851D01*
X0032820Y0066791D01*
X0032753Y0066735D01*
X0032682Y0066681D01*
X0032610Y0066631D01*
X0032535Y0066584D01*
X0032458Y0066540D01*
X0032379Y0066500D01*
X0032299Y0066463D01*
X0032217Y0066431D01*
X0032133Y0066401D01*
X0032049Y0066376D01*
X0031963Y0066354D01*
X0031877Y0066337D01*
X0031789Y0066323D01*
X0031701Y0066313D01*
X0031613Y0066307D01*
X0031525Y0066305D01*
X0031437Y0066307D01*
X0031349Y0066313D01*
X0031261Y0066323D01*
X0031173Y0066337D01*
X0031087Y0066354D01*
X0031001Y0066376D01*
X0030917Y0066401D01*
X0030833Y0066431D01*
X0030751Y0066463D01*
X0030671Y0066500D01*
X0030592Y0066540D01*
X0030515Y0066584D01*
X0030440Y0066631D01*
X0030368Y0066681D01*
X0030297Y0066735D01*
X0030230Y0066791D01*
X0030164Y0066851D01*
X0030102Y0066913D01*
X0030042Y0066979D01*
X0029986Y0067046D01*
X0029932Y0067117D01*
X0029882Y0067189D01*
X0029835Y0067264D01*
X0029791Y0067341D01*
X0029751Y0067420D01*
X0029714Y0067500D01*
X0029682Y0067582D01*
X0029652Y0067666D01*
X0029627Y0067750D01*
X0029605Y0067836D01*
X0029588Y0067922D01*
X0029574Y0068010D01*
X0029564Y0068098D01*
X0029558Y0068186D01*
X0029556Y0068274D01*
X0040859Y0045486D02*
X0040861Y0045570D01*
X0040867Y0045653D01*
X0040877Y0045736D01*
X0040891Y0045819D01*
X0040908Y0045901D01*
X0040930Y0045982D01*
X0040955Y0046061D01*
X0040984Y0046140D01*
X0041017Y0046217D01*
X0041053Y0046292D01*
X0041093Y0046366D01*
X0041136Y0046438D01*
X0041183Y0046507D01*
X0041233Y0046574D01*
X0041286Y0046639D01*
X0041342Y0046701D01*
X0041400Y0046761D01*
X0041462Y0046818D01*
X0041526Y0046871D01*
X0041593Y0046922D01*
X0041662Y0046969D01*
X0041733Y0047014D01*
X0041806Y0047054D01*
X0041881Y0047091D01*
X0041958Y0047125D01*
X0042036Y0047155D01*
X0042115Y0047181D01*
X0042196Y0047204D01*
X0042278Y0047222D01*
X0042360Y0047237D01*
X0042443Y0047248D01*
X0042526Y0047255D01*
X0042610Y0047258D01*
X0042694Y0047257D01*
X0042777Y0047252D01*
X0042861Y0047243D01*
X0042943Y0047230D01*
X0043025Y0047214D01*
X0043106Y0047193D01*
X0043187Y0047169D01*
X0043265Y0047141D01*
X0043343Y0047109D01*
X0043419Y0047073D01*
X0043493Y0047034D01*
X0043565Y0046992D01*
X0043635Y0046946D01*
X0043703Y0046897D01*
X0043768Y0046845D01*
X0043831Y0046790D01*
X0043891Y0046732D01*
X0043949Y0046671D01*
X0044003Y0046607D01*
X0044055Y0046541D01*
X0044103Y0046473D01*
X0044148Y0046402D01*
X0044189Y0046329D01*
X0044228Y0046255D01*
X0044262Y0046179D01*
X0044293Y0046101D01*
X0044320Y0046022D01*
X0044344Y0045941D01*
X0044363Y0045860D01*
X0044379Y0045778D01*
X0044391Y0045695D01*
X0044399Y0045611D01*
X0044403Y0045528D01*
X0044403Y0045444D01*
X0044399Y0045361D01*
X0044391Y0045277D01*
X0044379Y0045194D01*
X0044363Y0045112D01*
X0044344Y0045031D01*
X0044320Y0044950D01*
X0044293Y0044871D01*
X0044262Y0044793D01*
X0044228Y0044717D01*
X0044189Y0044643D01*
X0044148Y0044570D01*
X0044103Y0044499D01*
X0044055Y0044431D01*
X0044003Y0044365D01*
X0043949Y0044301D01*
X0043891Y0044240D01*
X0043831Y0044182D01*
X0043768Y0044127D01*
X0043703Y0044075D01*
X0043635Y0044026D01*
X0043565Y0043980D01*
X0043493Y0043938D01*
X0043419Y0043899D01*
X0043343Y0043863D01*
X0043265Y0043831D01*
X0043187Y0043803D01*
X0043106Y0043779D01*
X0043025Y0043758D01*
X0042943Y0043742D01*
X0042861Y0043729D01*
X0042777Y0043720D01*
X0042694Y0043715D01*
X0042610Y0043714D01*
X0042526Y0043717D01*
X0042443Y0043724D01*
X0042360Y0043735D01*
X0042278Y0043750D01*
X0042196Y0043768D01*
X0042115Y0043791D01*
X0042036Y0043817D01*
X0041958Y0043847D01*
X0041881Y0043881D01*
X0041806Y0043918D01*
X0041733Y0043958D01*
X0041662Y0044003D01*
X0041593Y0044050D01*
X0041526Y0044101D01*
X0041462Y0044154D01*
X0041400Y0044211D01*
X0041342Y0044271D01*
X0041286Y0044333D01*
X0041233Y0044398D01*
X0041183Y0044465D01*
X0041136Y0044534D01*
X0041093Y0044606D01*
X0041053Y0044680D01*
X0041017Y0044755D01*
X0040984Y0044832D01*
X0040955Y0044911D01*
X0040930Y0044990D01*
X0040908Y0045071D01*
X0040891Y0045153D01*
X0040877Y0045236D01*
X0040867Y0045319D01*
X0040861Y0045402D01*
X0040859Y0045486D01*
X0038119Y0033019D02*
X0038121Y0033118D01*
X0038127Y0033218D01*
X0038137Y0033317D01*
X0038151Y0033415D01*
X0038168Y0033513D01*
X0038190Y0033610D01*
X0038215Y0033706D01*
X0038244Y0033801D01*
X0038277Y0033895D01*
X0038314Y0033987D01*
X0038354Y0034078D01*
X0038398Y0034167D01*
X0038446Y0034255D01*
X0038497Y0034340D01*
X0038551Y0034423D01*
X0038608Y0034505D01*
X0038669Y0034583D01*
X0038733Y0034660D01*
X0038799Y0034733D01*
X0038869Y0034804D01*
X0038941Y0034872D01*
X0039016Y0034938D01*
X0039094Y0035000D01*
X0039174Y0035059D01*
X0039256Y0035115D01*
X0039340Y0035167D01*
X0039427Y0035216D01*
X0039515Y0035262D01*
X0039605Y0035304D01*
X0039697Y0035343D01*
X0039790Y0035378D01*
X0039884Y0035409D01*
X0039980Y0035436D01*
X0040077Y0035459D01*
X0040174Y0035479D01*
X0040272Y0035495D01*
X0040371Y0035507D01*
X0040470Y0035515D01*
X0040569Y0035519D01*
X0040669Y0035519D01*
X0040768Y0035515D01*
X0040867Y0035507D01*
X0040966Y0035495D01*
X0041064Y0035479D01*
X0041161Y0035459D01*
X0041258Y0035436D01*
X0041354Y0035409D01*
X0041448Y0035378D01*
X0041541Y0035343D01*
X0041633Y0035304D01*
X0041723Y0035262D01*
X0041811Y0035216D01*
X0041898Y0035167D01*
X0041982Y0035115D01*
X0042064Y0035059D01*
X0042144Y0035000D01*
X0042222Y0034938D01*
X0042297Y0034872D01*
X0042369Y0034804D01*
X0042439Y0034733D01*
X0042505Y0034660D01*
X0042569Y0034583D01*
X0042630Y0034505D01*
X0042687Y0034423D01*
X0042741Y0034340D01*
X0042792Y0034255D01*
X0042840Y0034167D01*
X0042884Y0034078D01*
X0042924Y0033987D01*
X0042961Y0033895D01*
X0042994Y0033801D01*
X0043023Y0033706D01*
X0043048Y0033610D01*
X0043070Y0033513D01*
X0043087Y0033415D01*
X0043101Y0033317D01*
X0043111Y0033218D01*
X0043117Y0033118D01*
X0043119Y0033019D01*
X0043117Y0032920D01*
X0043111Y0032820D01*
X0043101Y0032721D01*
X0043087Y0032623D01*
X0043070Y0032525D01*
X0043048Y0032428D01*
X0043023Y0032332D01*
X0042994Y0032237D01*
X0042961Y0032143D01*
X0042924Y0032051D01*
X0042884Y0031960D01*
X0042840Y0031871D01*
X0042792Y0031783D01*
X0042741Y0031698D01*
X0042687Y0031615D01*
X0042630Y0031533D01*
X0042569Y0031455D01*
X0042505Y0031378D01*
X0042439Y0031305D01*
X0042369Y0031234D01*
X0042297Y0031166D01*
X0042222Y0031100D01*
X0042144Y0031038D01*
X0042064Y0030979D01*
X0041982Y0030923D01*
X0041898Y0030871D01*
X0041811Y0030822D01*
X0041723Y0030776D01*
X0041633Y0030734D01*
X0041541Y0030695D01*
X0041448Y0030660D01*
X0041354Y0030629D01*
X0041258Y0030602D01*
X0041161Y0030579D01*
X0041064Y0030559D01*
X0040966Y0030543D01*
X0040867Y0030531D01*
X0040768Y0030523D01*
X0040669Y0030519D01*
X0040569Y0030519D01*
X0040470Y0030523D01*
X0040371Y0030531D01*
X0040272Y0030543D01*
X0040174Y0030559D01*
X0040077Y0030579D01*
X0039980Y0030602D01*
X0039884Y0030629D01*
X0039790Y0030660D01*
X0039697Y0030695D01*
X0039605Y0030734D01*
X0039515Y0030776D01*
X0039427Y0030822D01*
X0039340Y0030871D01*
X0039256Y0030923D01*
X0039174Y0030979D01*
X0039094Y0031038D01*
X0039016Y0031100D01*
X0038941Y0031166D01*
X0038869Y0031234D01*
X0038799Y0031305D01*
X0038733Y0031378D01*
X0038669Y0031455D01*
X0038608Y0031533D01*
X0038551Y0031615D01*
X0038497Y0031698D01*
X0038446Y0031783D01*
X0038398Y0031871D01*
X0038354Y0031960D01*
X0038314Y0032051D01*
X0038277Y0032143D01*
X0038244Y0032237D01*
X0038215Y0032332D01*
X0038190Y0032428D01*
X0038168Y0032525D01*
X0038151Y0032623D01*
X0038137Y0032721D01*
X0038127Y0032820D01*
X0038121Y0032920D01*
X0038119Y0033019D01*
X0067155Y0055278D02*
X0067157Y0055366D01*
X0067163Y0055454D01*
X0067173Y0055542D01*
X0067187Y0055630D01*
X0067204Y0055716D01*
X0067226Y0055802D01*
X0067251Y0055886D01*
X0067281Y0055970D01*
X0067313Y0056052D01*
X0067350Y0056132D01*
X0067390Y0056211D01*
X0067434Y0056288D01*
X0067481Y0056363D01*
X0067531Y0056435D01*
X0067585Y0056506D01*
X0067641Y0056573D01*
X0067701Y0056639D01*
X0067763Y0056701D01*
X0067829Y0056761D01*
X0067896Y0056817D01*
X0067967Y0056871D01*
X0068039Y0056921D01*
X0068114Y0056968D01*
X0068191Y0057012D01*
X0068270Y0057052D01*
X0068350Y0057089D01*
X0068432Y0057121D01*
X0068516Y0057151D01*
X0068600Y0057176D01*
X0068686Y0057198D01*
X0068772Y0057215D01*
X0068860Y0057229D01*
X0068948Y0057239D01*
X0069036Y0057245D01*
X0069124Y0057247D01*
X0069212Y0057245D01*
X0069300Y0057239D01*
X0069388Y0057229D01*
X0069476Y0057215D01*
X0069562Y0057198D01*
X0069648Y0057176D01*
X0069732Y0057151D01*
X0069816Y0057121D01*
X0069898Y0057089D01*
X0069978Y0057052D01*
X0070057Y0057012D01*
X0070134Y0056968D01*
X0070209Y0056921D01*
X0070281Y0056871D01*
X0070352Y0056817D01*
X0070419Y0056761D01*
X0070485Y0056701D01*
X0070547Y0056639D01*
X0070607Y0056573D01*
X0070663Y0056506D01*
X0070717Y0056435D01*
X0070767Y0056363D01*
X0070814Y0056288D01*
X0070858Y0056211D01*
X0070898Y0056132D01*
X0070935Y0056052D01*
X0070967Y0055970D01*
X0070997Y0055886D01*
X0071022Y0055802D01*
X0071044Y0055716D01*
X0071061Y0055630D01*
X0071075Y0055542D01*
X0071085Y0055454D01*
X0071091Y0055366D01*
X0071093Y0055278D01*
X0071091Y0055190D01*
X0071085Y0055102D01*
X0071075Y0055014D01*
X0071061Y0054926D01*
X0071044Y0054840D01*
X0071022Y0054754D01*
X0070997Y0054670D01*
X0070967Y0054586D01*
X0070935Y0054504D01*
X0070898Y0054424D01*
X0070858Y0054345D01*
X0070814Y0054268D01*
X0070767Y0054193D01*
X0070717Y0054121D01*
X0070663Y0054050D01*
X0070607Y0053983D01*
X0070547Y0053917D01*
X0070485Y0053855D01*
X0070419Y0053795D01*
X0070352Y0053739D01*
X0070281Y0053685D01*
X0070209Y0053635D01*
X0070134Y0053588D01*
X0070057Y0053544D01*
X0069978Y0053504D01*
X0069898Y0053467D01*
X0069816Y0053435D01*
X0069732Y0053405D01*
X0069648Y0053380D01*
X0069562Y0053358D01*
X0069476Y0053341D01*
X0069388Y0053327D01*
X0069300Y0053317D01*
X0069212Y0053311D01*
X0069124Y0053309D01*
X0069036Y0053311D01*
X0068948Y0053317D01*
X0068860Y0053327D01*
X0068772Y0053341D01*
X0068686Y0053358D01*
X0068600Y0053380D01*
X0068516Y0053405D01*
X0068432Y0053435D01*
X0068350Y0053467D01*
X0068270Y0053504D01*
X0068191Y0053544D01*
X0068114Y0053588D01*
X0068039Y0053635D01*
X0067967Y0053685D01*
X0067896Y0053739D01*
X0067829Y0053795D01*
X0067763Y0053855D01*
X0067701Y0053917D01*
X0067641Y0053983D01*
X0067585Y0054050D01*
X0067531Y0054121D01*
X0067481Y0054193D01*
X0067434Y0054268D01*
X0067390Y0054345D01*
X0067350Y0054424D01*
X0067313Y0054504D01*
X0067281Y0054586D01*
X0067251Y0054670D01*
X0067226Y0054754D01*
X0067204Y0054840D01*
X0067187Y0054926D01*
X0067173Y0055014D01*
X0067163Y0055102D01*
X0067157Y0055190D01*
X0067155Y0055278D01*
X0084218Y0064133D02*
X0084220Y0064245D01*
X0084226Y0064356D01*
X0084236Y0064468D01*
X0084250Y0064579D01*
X0084267Y0064689D01*
X0084289Y0064799D01*
X0084315Y0064908D01*
X0084344Y0065016D01*
X0084377Y0065122D01*
X0084414Y0065228D01*
X0084455Y0065332D01*
X0084500Y0065435D01*
X0084548Y0065536D01*
X0084599Y0065635D01*
X0084654Y0065732D01*
X0084713Y0065827D01*
X0084774Y0065921D01*
X0084839Y0066012D01*
X0084908Y0066100D01*
X0084979Y0066186D01*
X0085053Y0066270D01*
X0085131Y0066350D01*
X0085211Y0066428D01*
X0085294Y0066504D01*
X0085379Y0066576D01*
X0085467Y0066645D01*
X0085557Y0066711D01*
X0085650Y0066773D01*
X0085745Y0066833D01*
X0085842Y0066889D01*
X0085940Y0066941D01*
X0086041Y0066990D01*
X0086143Y0067035D01*
X0086247Y0067077D01*
X0086352Y0067115D01*
X0086459Y0067149D01*
X0086566Y0067179D01*
X0086675Y0067206D01*
X0086784Y0067228D01*
X0086895Y0067247D01*
X0087005Y0067262D01*
X0087117Y0067273D01*
X0087228Y0067280D01*
X0087340Y0067283D01*
X0087452Y0067282D01*
X0087564Y0067277D01*
X0087675Y0067268D01*
X0087786Y0067255D01*
X0087897Y0067238D01*
X0088007Y0067218D01*
X0088116Y0067193D01*
X0088224Y0067165D01*
X0088331Y0067132D01*
X0088437Y0067096D01*
X0088541Y0067056D01*
X0088644Y0067013D01*
X0088746Y0066966D01*
X0088845Y0066915D01*
X0088943Y0066861D01*
X0089039Y0066803D01*
X0089133Y0066742D01*
X0089224Y0066678D01*
X0089313Y0066611D01*
X0089400Y0066540D01*
X0089484Y0066466D01*
X0089566Y0066390D01*
X0089644Y0066310D01*
X0089720Y0066228D01*
X0089793Y0066143D01*
X0089863Y0066056D01*
X0089929Y0065966D01*
X0089993Y0065874D01*
X0090053Y0065780D01*
X0090110Y0065684D01*
X0090163Y0065585D01*
X0090213Y0065485D01*
X0090259Y0065384D01*
X0090302Y0065280D01*
X0090341Y0065175D01*
X0090376Y0065069D01*
X0090407Y0064962D01*
X0090435Y0064853D01*
X0090458Y0064744D01*
X0090478Y0064634D01*
X0090494Y0064523D01*
X0090506Y0064412D01*
X0090514Y0064301D01*
X0090518Y0064189D01*
X0090518Y0064077D01*
X0090514Y0063965D01*
X0090506Y0063854D01*
X0090494Y0063743D01*
X0090478Y0063632D01*
X0090458Y0063522D01*
X0090435Y0063413D01*
X0090407Y0063304D01*
X0090376Y0063197D01*
X0090341Y0063091D01*
X0090302Y0062986D01*
X0090259Y0062882D01*
X0090213Y0062781D01*
X0090163Y0062681D01*
X0090110Y0062582D01*
X0090053Y0062486D01*
X0089993Y0062392D01*
X0089929Y0062300D01*
X0089863Y0062210D01*
X0089793Y0062123D01*
X0089720Y0062038D01*
X0089644Y0061956D01*
X0089566Y0061876D01*
X0089484Y0061800D01*
X0089400Y0061726D01*
X0089313Y0061655D01*
X0089224Y0061588D01*
X0089133Y0061524D01*
X0089039Y0061463D01*
X0088943Y0061405D01*
X0088845Y0061351D01*
X0088746Y0061300D01*
X0088644Y0061253D01*
X0088541Y0061210D01*
X0088437Y0061170D01*
X0088331Y0061134D01*
X0088224Y0061101D01*
X0088116Y0061073D01*
X0088007Y0061048D01*
X0087897Y0061028D01*
X0087786Y0061011D01*
X0087675Y0060998D01*
X0087564Y0060989D01*
X0087452Y0060984D01*
X0087340Y0060983D01*
X0087228Y0060986D01*
X0087117Y0060993D01*
X0087005Y0061004D01*
X0086895Y0061019D01*
X0086784Y0061038D01*
X0086675Y0061060D01*
X0086566Y0061087D01*
X0086459Y0061117D01*
X0086352Y0061151D01*
X0086247Y0061189D01*
X0086143Y0061231D01*
X0086041Y0061276D01*
X0085940Y0061325D01*
X0085842Y0061377D01*
X0085745Y0061433D01*
X0085650Y0061493D01*
X0085557Y0061555D01*
X0085467Y0061621D01*
X0085379Y0061690D01*
X0085294Y0061762D01*
X0085211Y0061838D01*
X0085131Y0061916D01*
X0085053Y0061996D01*
X0084979Y0062080D01*
X0084908Y0062166D01*
X0084839Y0062254D01*
X0084774Y0062345D01*
X0084713Y0062439D01*
X0084654Y0062534D01*
X0084599Y0062631D01*
X0084548Y0062730D01*
X0084500Y0062831D01*
X0084455Y0062934D01*
X0084414Y0063038D01*
X0084377Y0063144D01*
X0084344Y0063250D01*
X0084315Y0063358D01*
X0084289Y0063467D01*
X0084267Y0063577D01*
X0084250Y0063687D01*
X0084236Y0063798D01*
X0084226Y0063910D01*
X0084220Y0064021D01*
X0084218Y0064133D01*
X0087047Y0039319D02*
X0087049Y0039403D01*
X0087055Y0039486D01*
X0087065Y0039569D01*
X0087079Y0039652D01*
X0087096Y0039734D01*
X0087118Y0039815D01*
X0087143Y0039894D01*
X0087172Y0039973D01*
X0087205Y0040050D01*
X0087241Y0040125D01*
X0087281Y0040199D01*
X0087324Y0040271D01*
X0087371Y0040340D01*
X0087421Y0040407D01*
X0087474Y0040472D01*
X0087530Y0040534D01*
X0087588Y0040594D01*
X0087650Y0040651D01*
X0087714Y0040704D01*
X0087781Y0040755D01*
X0087850Y0040802D01*
X0087921Y0040847D01*
X0087994Y0040887D01*
X0088069Y0040924D01*
X0088146Y0040958D01*
X0088224Y0040988D01*
X0088303Y0041014D01*
X0088384Y0041037D01*
X0088466Y0041055D01*
X0088548Y0041070D01*
X0088631Y0041081D01*
X0088714Y0041088D01*
X0088798Y0041091D01*
X0088882Y0041090D01*
X0088965Y0041085D01*
X0089049Y0041076D01*
X0089131Y0041063D01*
X0089213Y0041047D01*
X0089294Y0041026D01*
X0089375Y0041002D01*
X0089453Y0040974D01*
X0089531Y0040942D01*
X0089607Y0040906D01*
X0089681Y0040867D01*
X0089753Y0040825D01*
X0089823Y0040779D01*
X0089891Y0040730D01*
X0089956Y0040678D01*
X0090019Y0040623D01*
X0090079Y0040565D01*
X0090137Y0040504D01*
X0090191Y0040440D01*
X0090243Y0040374D01*
X0090291Y0040306D01*
X0090336Y0040235D01*
X0090377Y0040162D01*
X0090416Y0040088D01*
X0090450Y0040012D01*
X0090481Y0039934D01*
X0090508Y0039855D01*
X0090532Y0039774D01*
X0090551Y0039693D01*
X0090567Y0039611D01*
X0090579Y0039528D01*
X0090587Y0039444D01*
X0090591Y0039361D01*
X0090591Y0039277D01*
X0090587Y0039194D01*
X0090579Y0039110D01*
X0090567Y0039027D01*
X0090551Y0038945D01*
X0090532Y0038864D01*
X0090508Y0038783D01*
X0090481Y0038704D01*
X0090450Y0038626D01*
X0090416Y0038550D01*
X0090377Y0038476D01*
X0090336Y0038403D01*
X0090291Y0038332D01*
X0090243Y0038264D01*
X0090191Y0038198D01*
X0090137Y0038134D01*
X0090079Y0038073D01*
X0090019Y0038015D01*
X0089956Y0037960D01*
X0089891Y0037908D01*
X0089823Y0037859D01*
X0089753Y0037813D01*
X0089681Y0037771D01*
X0089607Y0037732D01*
X0089531Y0037696D01*
X0089453Y0037664D01*
X0089375Y0037636D01*
X0089294Y0037612D01*
X0089213Y0037591D01*
X0089131Y0037575D01*
X0089049Y0037562D01*
X0088965Y0037553D01*
X0088882Y0037548D01*
X0088798Y0037547D01*
X0088714Y0037550D01*
X0088631Y0037557D01*
X0088548Y0037568D01*
X0088466Y0037583D01*
X0088384Y0037601D01*
X0088303Y0037624D01*
X0088224Y0037650D01*
X0088146Y0037680D01*
X0088069Y0037714D01*
X0087994Y0037751D01*
X0087921Y0037791D01*
X0087850Y0037836D01*
X0087781Y0037883D01*
X0087714Y0037934D01*
X0087650Y0037987D01*
X0087588Y0038044D01*
X0087530Y0038104D01*
X0087474Y0038166D01*
X0087421Y0038231D01*
X0087371Y0038298D01*
X0087324Y0038367D01*
X0087281Y0038439D01*
X0087241Y0038513D01*
X0087205Y0038588D01*
X0087172Y0038665D01*
X0087143Y0038744D01*
X0087118Y0038823D01*
X0087096Y0038904D01*
X0087079Y0038986D01*
X0087065Y0039069D01*
X0087055Y0039152D01*
X0087049Y0039235D01*
X0087047Y0039319D01*
X0077719Y0021019D02*
X0077721Y0021118D01*
X0077727Y0021218D01*
X0077737Y0021317D01*
X0077751Y0021415D01*
X0077768Y0021513D01*
X0077790Y0021610D01*
X0077815Y0021706D01*
X0077844Y0021801D01*
X0077877Y0021895D01*
X0077914Y0021987D01*
X0077954Y0022078D01*
X0077998Y0022167D01*
X0078046Y0022255D01*
X0078097Y0022340D01*
X0078151Y0022423D01*
X0078208Y0022505D01*
X0078269Y0022583D01*
X0078333Y0022660D01*
X0078399Y0022733D01*
X0078469Y0022804D01*
X0078541Y0022872D01*
X0078616Y0022938D01*
X0078694Y0023000D01*
X0078774Y0023059D01*
X0078856Y0023115D01*
X0078940Y0023167D01*
X0079027Y0023216D01*
X0079115Y0023262D01*
X0079205Y0023304D01*
X0079297Y0023343D01*
X0079390Y0023378D01*
X0079484Y0023409D01*
X0079580Y0023436D01*
X0079677Y0023459D01*
X0079774Y0023479D01*
X0079872Y0023495D01*
X0079971Y0023507D01*
X0080070Y0023515D01*
X0080169Y0023519D01*
X0080269Y0023519D01*
X0080368Y0023515D01*
X0080467Y0023507D01*
X0080566Y0023495D01*
X0080664Y0023479D01*
X0080761Y0023459D01*
X0080858Y0023436D01*
X0080954Y0023409D01*
X0081048Y0023378D01*
X0081141Y0023343D01*
X0081233Y0023304D01*
X0081323Y0023262D01*
X0081411Y0023216D01*
X0081498Y0023167D01*
X0081582Y0023115D01*
X0081664Y0023059D01*
X0081744Y0023000D01*
X0081822Y0022938D01*
X0081897Y0022872D01*
X0081969Y0022804D01*
X0082039Y0022733D01*
X0082105Y0022660D01*
X0082169Y0022583D01*
X0082230Y0022505D01*
X0082287Y0022423D01*
X0082341Y0022340D01*
X0082392Y0022255D01*
X0082440Y0022167D01*
X0082484Y0022078D01*
X0082524Y0021987D01*
X0082561Y0021895D01*
X0082594Y0021801D01*
X0082623Y0021706D01*
X0082648Y0021610D01*
X0082670Y0021513D01*
X0082687Y0021415D01*
X0082701Y0021317D01*
X0082711Y0021218D01*
X0082717Y0021118D01*
X0082719Y0021019D01*
X0082717Y0020920D01*
X0082711Y0020820D01*
X0082701Y0020721D01*
X0082687Y0020623D01*
X0082670Y0020525D01*
X0082648Y0020428D01*
X0082623Y0020332D01*
X0082594Y0020237D01*
X0082561Y0020143D01*
X0082524Y0020051D01*
X0082484Y0019960D01*
X0082440Y0019871D01*
X0082392Y0019783D01*
X0082341Y0019698D01*
X0082287Y0019615D01*
X0082230Y0019533D01*
X0082169Y0019455D01*
X0082105Y0019378D01*
X0082039Y0019305D01*
X0081969Y0019234D01*
X0081897Y0019166D01*
X0081822Y0019100D01*
X0081744Y0019038D01*
X0081664Y0018979D01*
X0081582Y0018923D01*
X0081498Y0018871D01*
X0081411Y0018822D01*
X0081323Y0018776D01*
X0081233Y0018734D01*
X0081141Y0018695D01*
X0081048Y0018660D01*
X0080954Y0018629D01*
X0080858Y0018602D01*
X0080761Y0018579D01*
X0080664Y0018559D01*
X0080566Y0018543D01*
X0080467Y0018531D01*
X0080368Y0018523D01*
X0080269Y0018519D01*
X0080169Y0018519D01*
X0080070Y0018523D01*
X0079971Y0018531D01*
X0079872Y0018543D01*
X0079774Y0018559D01*
X0079677Y0018579D01*
X0079580Y0018602D01*
X0079484Y0018629D01*
X0079390Y0018660D01*
X0079297Y0018695D01*
X0079205Y0018734D01*
X0079115Y0018776D01*
X0079027Y0018822D01*
X0078940Y0018871D01*
X0078856Y0018923D01*
X0078774Y0018979D01*
X0078694Y0019038D01*
X0078616Y0019100D01*
X0078541Y0019166D01*
X0078469Y0019234D01*
X0078399Y0019305D01*
X0078333Y0019378D01*
X0078269Y0019455D01*
X0078208Y0019533D01*
X0078151Y0019615D01*
X0078097Y0019698D01*
X0078046Y0019783D01*
X0077998Y0019871D01*
X0077954Y0019960D01*
X0077914Y0020051D01*
X0077877Y0020143D01*
X0077844Y0020237D01*
X0077815Y0020332D01*
X0077790Y0020428D01*
X0077768Y0020525D01*
X0077751Y0020623D01*
X0077737Y0020721D01*
X0077727Y0020820D01*
X0077721Y0020920D01*
X0077719Y0021019D01*
X0114119Y0040619D02*
X0114121Y0040718D01*
X0114127Y0040818D01*
X0114137Y0040917D01*
X0114151Y0041015D01*
X0114168Y0041113D01*
X0114190Y0041210D01*
X0114215Y0041306D01*
X0114244Y0041401D01*
X0114277Y0041495D01*
X0114314Y0041587D01*
X0114354Y0041678D01*
X0114398Y0041767D01*
X0114446Y0041855D01*
X0114497Y0041940D01*
X0114551Y0042023D01*
X0114608Y0042105D01*
X0114669Y0042183D01*
X0114733Y0042260D01*
X0114799Y0042333D01*
X0114869Y0042404D01*
X0114941Y0042472D01*
X0115016Y0042538D01*
X0115094Y0042600D01*
X0115174Y0042659D01*
X0115256Y0042715D01*
X0115340Y0042767D01*
X0115427Y0042816D01*
X0115515Y0042862D01*
X0115605Y0042904D01*
X0115697Y0042943D01*
X0115790Y0042978D01*
X0115884Y0043009D01*
X0115980Y0043036D01*
X0116077Y0043059D01*
X0116174Y0043079D01*
X0116272Y0043095D01*
X0116371Y0043107D01*
X0116470Y0043115D01*
X0116569Y0043119D01*
X0116669Y0043119D01*
X0116768Y0043115D01*
X0116867Y0043107D01*
X0116966Y0043095D01*
X0117064Y0043079D01*
X0117161Y0043059D01*
X0117258Y0043036D01*
X0117354Y0043009D01*
X0117448Y0042978D01*
X0117541Y0042943D01*
X0117633Y0042904D01*
X0117723Y0042862D01*
X0117811Y0042816D01*
X0117898Y0042767D01*
X0117982Y0042715D01*
X0118064Y0042659D01*
X0118144Y0042600D01*
X0118222Y0042538D01*
X0118297Y0042472D01*
X0118369Y0042404D01*
X0118439Y0042333D01*
X0118505Y0042260D01*
X0118569Y0042183D01*
X0118630Y0042105D01*
X0118687Y0042023D01*
X0118741Y0041940D01*
X0118792Y0041855D01*
X0118840Y0041767D01*
X0118884Y0041678D01*
X0118924Y0041587D01*
X0118961Y0041495D01*
X0118994Y0041401D01*
X0119023Y0041306D01*
X0119048Y0041210D01*
X0119070Y0041113D01*
X0119087Y0041015D01*
X0119101Y0040917D01*
X0119111Y0040818D01*
X0119117Y0040718D01*
X0119119Y0040619D01*
X0119117Y0040520D01*
X0119111Y0040420D01*
X0119101Y0040321D01*
X0119087Y0040223D01*
X0119070Y0040125D01*
X0119048Y0040028D01*
X0119023Y0039932D01*
X0118994Y0039837D01*
X0118961Y0039743D01*
X0118924Y0039651D01*
X0118884Y0039560D01*
X0118840Y0039471D01*
X0118792Y0039383D01*
X0118741Y0039298D01*
X0118687Y0039215D01*
X0118630Y0039133D01*
X0118569Y0039055D01*
X0118505Y0038978D01*
X0118439Y0038905D01*
X0118369Y0038834D01*
X0118297Y0038766D01*
X0118222Y0038700D01*
X0118144Y0038638D01*
X0118064Y0038579D01*
X0117982Y0038523D01*
X0117898Y0038471D01*
X0117811Y0038422D01*
X0117723Y0038376D01*
X0117633Y0038334D01*
X0117541Y0038295D01*
X0117448Y0038260D01*
X0117354Y0038229D01*
X0117258Y0038202D01*
X0117161Y0038179D01*
X0117064Y0038159D01*
X0116966Y0038143D01*
X0116867Y0038131D01*
X0116768Y0038123D01*
X0116669Y0038119D01*
X0116569Y0038119D01*
X0116470Y0038123D01*
X0116371Y0038131D01*
X0116272Y0038143D01*
X0116174Y0038159D01*
X0116077Y0038179D01*
X0115980Y0038202D01*
X0115884Y0038229D01*
X0115790Y0038260D01*
X0115697Y0038295D01*
X0115605Y0038334D01*
X0115515Y0038376D01*
X0115427Y0038422D01*
X0115340Y0038471D01*
X0115256Y0038523D01*
X0115174Y0038579D01*
X0115094Y0038638D01*
X0115016Y0038700D01*
X0114941Y0038766D01*
X0114869Y0038834D01*
X0114799Y0038905D01*
X0114733Y0038978D01*
X0114669Y0039055D01*
X0114608Y0039133D01*
X0114551Y0039215D01*
X0114497Y0039298D01*
X0114446Y0039383D01*
X0114398Y0039471D01*
X0114354Y0039560D01*
X0114314Y0039651D01*
X0114277Y0039743D01*
X0114244Y0039837D01*
X0114215Y0039932D01*
X0114190Y0040028D01*
X0114168Y0040125D01*
X0114151Y0040223D01*
X0114137Y0040321D01*
X0114127Y0040420D01*
X0114121Y0040520D01*
X0114119Y0040619D01*
X0066919Y0128619D02*
X0066921Y0128718D01*
X0066927Y0128818D01*
X0066937Y0128917D01*
X0066951Y0129015D01*
X0066968Y0129113D01*
X0066990Y0129210D01*
X0067015Y0129306D01*
X0067044Y0129401D01*
X0067077Y0129495D01*
X0067114Y0129587D01*
X0067154Y0129678D01*
X0067198Y0129767D01*
X0067246Y0129855D01*
X0067297Y0129940D01*
X0067351Y0130023D01*
X0067408Y0130105D01*
X0067469Y0130183D01*
X0067533Y0130260D01*
X0067599Y0130333D01*
X0067669Y0130404D01*
X0067741Y0130472D01*
X0067816Y0130538D01*
X0067894Y0130600D01*
X0067974Y0130659D01*
X0068056Y0130715D01*
X0068140Y0130767D01*
X0068227Y0130816D01*
X0068315Y0130862D01*
X0068405Y0130904D01*
X0068497Y0130943D01*
X0068590Y0130978D01*
X0068684Y0131009D01*
X0068780Y0131036D01*
X0068877Y0131059D01*
X0068974Y0131079D01*
X0069072Y0131095D01*
X0069171Y0131107D01*
X0069270Y0131115D01*
X0069369Y0131119D01*
X0069469Y0131119D01*
X0069568Y0131115D01*
X0069667Y0131107D01*
X0069766Y0131095D01*
X0069864Y0131079D01*
X0069961Y0131059D01*
X0070058Y0131036D01*
X0070154Y0131009D01*
X0070248Y0130978D01*
X0070341Y0130943D01*
X0070433Y0130904D01*
X0070523Y0130862D01*
X0070611Y0130816D01*
X0070698Y0130767D01*
X0070782Y0130715D01*
X0070864Y0130659D01*
X0070944Y0130600D01*
X0071022Y0130538D01*
X0071097Y0130472D01*
X0071169Y0130404D01*
X0071239Y0130333D01*
X0071305Y0130260D01*
X0071369Y0130183D01*
X0071430Y0130105D01*
X0071487Y0130023D01*
X0071541Y0129940D01*
X0071592Y0129855D01*
X0071640Y0129767D01*
X0071684Y0129678D01*
X0071724Y0129587D01*
X0071761Y0129495D01*
X0071794Y0129401D01*
X0071823Y0129306D01*
X0071848Y0129210D01*
X0071870Y0129113D01*
X0071887Y0129015D01*
X0071901Y0128917D01*
X0071911Y0128818D01*
X0071917Y0128718D01*
X0071919Y0128619D01*
X0071917Y0128520D01*
X0071911Y0128420D01*
X0071901Y0128321D01*
X0071887Y0128223D01*
X0071870Y0128125D01*
X0071848Y0128028D01*
X0071823Y0127932D01*
X0071794Y0127837D01*
X0071761Y0127743D01*
X0071724Y0127651D01*
X0071684Y0127560D01*
X0071640Y0127471D01*
X0071592Y0127383D01*
X0071541Y0127298D01*
X0071487Y0127215D01*
X0071430Y0127133D01*
X0071369Y0127055D01*
X0071305Y0126978D01*
X0071239Y0126905D01*
X0071169Y0126834D01*
X0071097Y0126766D01*
X0071022Y0126700D01*
X0070944Y0126638D01*
X0070864Y0126579D01*
X0070782Y0126523D01*
X0070698Y0126471D01*
X0070611Y0126422D01*
X0070523Y0126376D01*
X0070433Y0126334D01*
X0070341Y0126295D01*
X0070248Y0126260D01*
X0070154Y0126229D01*
X0070058Y0126202D01*
X0069961Y0126179D01*
X0069864Y0126159D01*
X0069766Y0126143D01*
X0069667Y0126131D01*
X0069568Y0126123D01*
X0069469Y0126119D01*
X0069369Y0126119D01*
X0069270Y0126123D01*
X0069171Y0126131D01*
X0069072Y0126143D01*
X0068974Y0126159D01*
X0068877Y0126179D01*
X0068780Y0126202D01*
X0068684Y0126229D01*
X0068590Y0126260D01*
X0068497Y0126295D01*
X0068405Y0126334D01*
X0068315Y0126376D01*
X0068227Y0126422D01*
X0068140Y0126471D01*
X0068056Y0126523D01*
X0067974Y0126579D01*
X0067894Y0126638D01*
X0067816Y0126700D01*
X0067741Y0126766D01*
X0067669Y0126834D01*
X0067599Y0126905D01*
X0067533Y0126978D01*
X0067469Y0127055D01*
X0067408Y0127133D01*
X0067351Y0127215D01*
X0067297Y0127298D01*
X0067246Y0127383D01*
X0067198Y0127471D01*
X0067154Y0127560D01*
X0067114Y0127651D01*
X0067077Y0127743D01*
X0067044Y0127837D01*
X0067015Y0127932D01*
X0066990Y0128028D01*
X0066968Y0128125D01*
X0066951Y0128223D01*
X0066937Y0128321D01*
X0066927Y0128420D01*
X0066921Y0128520D01*
X0066919Y0128619D01*
X0030519Y0109019D02*
X0030521Y0109118D01*
X0030527Y0109218D01*
X0030537Y0109317D01*
X0030551Y0109415D01*
X0030568Y0109513D01*
X0030590Y0109610D01*
X0030615Y0109706D01*
X0030644Y0109801D01*
X0030677Y0109895D01*
X0030714Y0109987D01*
X0030754Y0110078D01*
X0030798Y0110167D01*
X0030846Y0110255D01*
X0030897Y0110340D01*
X0030951Y0110423D01*
X0031008Y0110505D01*
X0031069Y0110583D01*
X0031133Y0110660D01*
X0031199Y0110733D01*
X0031269Y0110804D01*
X0031341Y0110872D01*
X0031416Y0110938D01*
X0031494Y0111000D01*
X0031574Y0111059D01*
X0031656Y0111115D01*
X0031740Y0111167D01*
X0031827Y0111216D01*
X0031915Y0111262D01*
X0032005Y0111304D01*
X0032097Y0111343D01*
X0032190Y0111378D01*
X0032284Y0111409D01*
X0032380Y0111436D01*
X0032477Y0111459D01*
X0032574Y0111479D01*
X0032672Y0111495D01*
X0032771Y0111507D01*
X0032870Y0111515D01*
X0032969Y0111519D01*
X0033069Y0111519D01*
X0033168Y0111515D01*
X0033267Y0111507D01*
X0033366Y0111495D01*
X0033464Y0111479D01*
X0033561Y0111459D01*
X0033658Y0111436D01*
X0033754Y0111409D01*
X0033848Y0111378D01*
X0033941Y0111343D01*
X0034033Y0111304D01*
X0034123Y0111262D01*
X0034211Y0111216D01*
X0034298Y0111167D01*
X0034382Y0111115D01*
X0034464Y0111059D01*
X0034544Y0111000D01*
X0034622Y0110938D01*
X0034697Y0110872D01*
X0034769Y0110804D01*
X0034839Y0110733D01*
X0034905Y0110660D01*
X0034969Y0110583D01*
X0035030Y0110505D01*
X0035087Y0110423D01*
X0035141Y0110340D01*
X0035192Y0110255D01*
X0035240Y0110167D01*
X0035284Y0110078D01*
X0035324Y0109987D01*
X0035361Y0109895D01*
X0035394Y0109801D01*
X0035423Y0109706D01*
X0035448Y0109610D01*
X0035470Y0109513D01*
X0035487Y0109415D01*
X0035501Y0109317D01*
X0035511Y0109218D01*
X0035517Y0109118D01*
X0035519Y0109019D01*
X0035517Y0108920D01*
X0035511Y0108820D01*
X0035501Y0108721D01*
X0035487Y0108623D01*
X0035470Y0108525D01*
X0035448Y0108428D01*
X0035423Y0108332D01*
X0035394Y0108237D01*
X0035361Y0108143D01*
X0035324Y0108051D01*
X0035284Y0107960D01*
X0035240Y0107871D01*
X0035192Y0107783D01*
X0035141Y0107698D01*
X0035087Y0107615D01*
X0035030Y0107533D01*
X0034969Y0107455D01*
X0034905Y0107378D01*
X0034839Y0107305D01*
X0034769Y0107234D01*
X0034697Y0107166D01*
X0034622Y0107100D01*
X0034544Y0107038D01*
X0034464Y0106979D01*
X0034382Y0106923D01*
X0034298Y0106871D01*
X0034211Y0106822D01*
X0034123Y0106776D01*
X0034033Y0106734D01*
X0033941Y0106695D01*
X0033848Y0106660D01*
X0033754Y0106629D01*
X0033658Y0106602D01*
X0033561Y0106579D01*
X0033464Y0106559D01*
X0033366Y0106543D01*
X0033267Y0106531D01*
X0033168Y0106523D01*
X0033069Y0106519D01*
X0032969Y0106519D01*
X0032870Y0106523D01*
X0032771Y0106531D01*
X0032672Y0106543D01*
X0032574Y0106559D01*
X0032477Y0106579D01*
X0032380Y0106602D01*
X0032284Y0106629D01*
X0032190Y0106660D01*
X0032097Y0106695D01*
X0032005Y0106734D01*
X0031915Y0106776D01*
X0031827Y0106822D01*
X0031740Y0106871D01*
X0031656Y0106923D01*
X0031574Y0106979D01*
X0031494Y0107038D01*
X0031416Y0107100D01*
X0031341Y0107166D01*
X0031269Y0107234D01*
X0031199Y0107305D01*
X0031133Y0107378D01*
X0031069Y0107455D01*
X0031008Y0107533D01*
X0030951Y0107615D01*
X0030897Y0107698D01*
X0030846Y0107783D01*
X0030798Y0107871D01*
X0030754Y0107960D01*
X0030714Y0108051D01*
X0030677Y0108143D01*
X0030644Y0108237D01*
X0030615Y0108332D01*
X0030590Y0108428D01*
X0030568Y0108525D01*
X0030551Y0108623D01*
X0030537Y0108721D01*
X0030527Y0108820D01*
X0030521Y0108920D01*
X0030519Y0109019D01*
D12*
X0035392Y0036093D02*
X0035759Y0035726D01*
X0036493Y0035726D01*
X0036860Y0036093D01*
X0036860Y0037561D01*
X0035392Y0036093D01*
X0035392Y0037561D01*
X0035759Y0037928D01*
X0036493Y0037928D01*
X0036860Y0037561D01*
X0029506Y0047027D02*
X0028038Y0047027D01*
X0028772Y0047027D02*
X0028772Y0049229D01*
X0028038Y0048495D01*
X0024097Y0060479D02*
X0022629Y0060479D01*
X0024097Y0061947D01*
X0024097Y0062314D01*
X0023730Y0062681D01*
X0022996Y0062681D01*
X0022629Y0062314D01*
X0021884Y0074915D02*
X0021150Y0074915D01*
X0020783Y0075282D01*
X0022251Y0076750D01*
X0022251Y0075282D01*
X0021884Y0074915D01*
X0020783Y0075282D02*
X0020783Y0076750D01*
X0021150Y0077117D01*
X0021884Y0077117D01*
X0022251Y0076750D01*
X0022627Y0089351D02*
X0024095Y0089351D01*
X0023361Y0089351D02*
X0023361Y0091553D01*
X0022627Y0090819D01*
X0028034Y0102803D02*
X0029502Y0104271D01*
X0029502Y0104638D01*
X0029135Y0105005D01*
X0028401Y0105005D01*
X0028034Y0104638D01*
X0028034Y0102803D02*
X0029502Y0102803D01*
X0037004Y0114356D02*
X0036637Y0114723D01*
X0038105Y0116191D01*
X0038105Y0114723D01*
X0037738Y0114356D01*
X0037004Y0114356D01*
X0036637Y0114723D02*
X0036637Y0116191D01*
X0037004Y0116558D01*
X0037738Y0116558D01*
X0038105Y0116191D01*
X0047848Y0123220D02*
X0049316Y0123220D01*
X0048582Y0123220D02*
X0048582Y0125422D01*
X0047848Y0124688D01*
X0060904Y0127793D02*
X0062372Y0129261D01*
X0062372Y0129628D01*
X0062005Y0129995D01*
X0061271Y0129995D01*
X0060904Y0129628D01*
X0060904Y0127793D02*
X0062372Y0127793D01*
X0074915Y0129812D02*
X0076383Y0131280D01*
X0076383Y0129812D01*
X0076016Y0129445D01*
X0075282Y0129445D01*
X0074915Y0129812D01*
X0074915Y0131280D01*
X0075282Y0131647D01*
X0076016Y0131647D01*
X0076383Y0131280D01*
X0088426Y0128764D02*
X0089160Y0129498D01*
X0089160Y0127296D01*
X0088426Y0127296D02*
X0089894Y0127296D01*
X0101983Y0123560D02*
X0102350Y0123927D01*
X0103084Y0123927D01*
X0103451Y0123560D01*
X0103451Y0123193D01*
X0101983Y0121725D01*
X0103451Y0121725D01*
X0113446Y0114447D02*
X0113446Y0112979D01*
X0114914Y0114447D01*
X0114914Y0112979D01*
X0114547Y0112612D01*
X0113813Y0112612D01*
X0113446Y0112979D01*
X0113446Y0114447D02*
X0113813Y0114814D01*
X0114547Y0114814D01*
X0114914Y0114447D01*
X0122284Y0104513D02*
X0122284Y0102311D01*
X0121550Y0102311D02*
X0123018Y0102311D01*
X0121550Y0103779D02*
X0122284Y0104513D01*
X0127576Y0091561D02*
X0127209Y0091194D01*
X0127576Y0091561D02*
X0128310Y0091561D01*
X0128677Y0091194D01*
X0128677Y0090827D01*
X0127209Y0089359D01*
X0128677Y0089359D01*
X0129422Y0077125D02*
X0130156Y0077125D01*
X0130523Y0076758D01*
X0129055Y0075290D01*
X0129422Y0074923D01*
X0130156Y0074923D01*
X0130523Y0075290D01*
X0130523Y0076758D01*
X0129422Y0077125D02*
X0129055Y0076758D01*
X0129055Y0075290D01*
X0127945Y0062689D02*
X0127945Y0060487D01*
X0127211Y0060487D02*
X0128679Y0060487D01*
X0127211Y0061955D02*
X0127945Y0062689D01*
X0122905Y0049237D02*
X0122171Y0049237D01*
X0121804Y0048870D01*
X0122905Y0049237D02*
X0123272Y0048870D01*
X0123272Y0048503D01*
X0121804Y0047035D01*
X0123272Y0047035D01*
X0114302Y0037684D02*
X0114669Y0037317D01*
X0113201Y0035849D01*
X0113568Y0035482D01*
X0114302Y0035482D01*
X0114669Y0035849D01*
X0114669Y0037317D01*
X0114302Y0037684D02*
X0113568Y0037684D01*
X0113201Y0037317D01*
X0113201Y0035849D01*
X0103458Y0026618D02*
X0101990Y0026618D01*
X0102724Y0026618D02*
X0102724Y0028820D01*
X0101990Y0028086D01*
X0090402Y0022880D02*
X0090035Y0023247D01*
X0089301Y0023247D01*
X0088934Y0022880D01*
X0090402Y0022880D02*
X0090402Y0022513D01*
X0088934Y0021045D01*
X0090402Y0021045D01*
X0075641Y0020728D02*
X0075641Y0019260D01*
X0075274Y0018893D01*
X0074540Y0018893D01*
X0074173Y0019260D01*
X0075641Y0020728D01*
X0075274Y0021095D01*
X0074540Y0021095D01*
X0074173Y0020728D01*
X0074173Y0019260D01*
X0062380Y0021042D02*
X0060912Y0021042D01*
X0061646Y0021042D02*
X0061646Y0023244D01*
X0060912Y0022510D01*
X0049323Y0026613D02*
X0047855Y0026613D01*
X0049323Y0028081D01*
X0049323Y0028448D01*
X0048956Y0028815D01*
X0048222Y0028815D01*
X0047855Y0028448D01*
D13*
X0046992Y0027508D02*
X0042927Y0029669D01*
X0041847Y0027636D01*
X0042164Y0026599D01*
X0043519Y0025878D01*
X0044557Y0026196D01*
X0045637Y0028228D01*
X0043648Y0031024D02*
X0045089Y0033734D01*
X0044368Y0032379D02*
X0048433Y0030218D01*
X0042798Y0024523D02*
X0041357Y0021813D01*
X0039685Y0023571D02*
X0042798Y0024523D01*
X0043750Y0021410D02*
X0039685Y0023571D01*
X0016551Y0059470D02*
X0015084Y0059021D01*
X0014125Y0059531D01*
X0013901Y0060265D01*
X0014411Y0061223D01*
X0015144Y0061447D01*
X0014411Y0061223D02*
X0013452Y0061732D01*
X0013228Y0062466D01*
X0013737Y0063424D01*
X0015205Y0063873D01*
X0016163Y0063363D01*
X0017631Y0063812D02*
X0018079Y0062344D01*
X0019038Y0061835D01*
X0021239Y0062508D01*
X0021688Y0061040D02*
X0020342Y0065443D01*
X0018140Y0064770D01*
X0017631Y0063812D01*
X0017061Y0060428D02*
X0016551Y0059470D01*
X0021809Y0065892D02*
X0024744Y0066789D01*
X0023277Y0066341D02*
X0024623Y0061938D01*
X0052842Y0087286D02*
X0053609Y0086519D01*
X0055144Y0086519D01*
X0055911Y0087286D01*
X0057446Y0087286D02*
X0058213Y0086519D01*
X0059748Y0086519D01*
X0060515Y0087286D01*
X0062050Y0087286D02*
X0062817Y0086519D01*
X0064352Y0086519D01*
X0065119Y0087286D01*
X0065119Y0091123D01*
X0062050Y0091123D02*
X0062050Y0087286D01*
X0059748Y0088821D02*
X0060515Y0089588D01*
X0060515Y0090356D01*
X0059748Y0091123D01*
X0058213Y0091123D01*
X0057446Y0090356D01*
X0055911Y0090356D02*
X0055144Y0091123D01*
X0053609Y0091123D01*
X0052842Y0090356D01*
X0052842Y0089588D01*
X0053609Y0088821D01*
X0052842Y0088054D01*
X0052842Y0087286D01*
X0053609Y0088821D02*
X0054377Y0088821D01*
X0057446Y0088054D02*
X0058213Y0088821D01*
X0059748Y0088821D01*
X0057446Y0088054D02*
X0057446Y0087286D01*
X0058980Y0085752D02*
X0058980Y0091890D01*
X0033734Y0104549D02*
X0031024Y0105990D01*
X0032379Y0105270D02*
X0030218Y0101205D01*
X0027508Y0102646D02*
X0029669Y0106711D01*
X0027637Y0107791D01*
X0026599Y0107474D01*
X0025878Y0106119D01*
X0026196Y0105081D01*
X0028228Y0104001D01*
X0025244Y0108195D02*
X0024927Y0109232D01*
X0023571Y0109953D01*
X0022534Y0109636D01*
X0022174Y0108958D01*
X0023443Y0104807D01*
X0020733Y0106248D01*
X0059471Y0133086D02*
X0059022Y0134554D01*
X0059532Y0135512D01*
X0062467Y0136409D01*
X0063425Y0135900D01*
X0063874Y0134432D01*
X0063364Y0133474D01*
X0062630Y0133250D01*
X0061672Y0133759D01*
X0060999Y0135961D01*
X0059471Y0133086D02*
X0060429Y0132577D01*
X0062345Y0131558D02*
X0061836Y0130600D01*
X0062509Y0128398D01*
X0061041Y0127950D02*
X0065444Y0129296D01*
X0064771Y0131497D01*
X0063813Y0132006D01*
X0062345Y0131558D01*
X0065893Y0127828D02*
X0066790Y0124893D01*
X0066341Y0126361D02*
X0061939Y0125014D01*
X0101374Y0119747D02*
X0101691Y0118709D01*
X0102369Y0118349D01*
X0103406Y0118666D01*
X0104127Y0120021D01*
X0103810Y0121059D01*
X0103132Y0121419D01*
X0102094Y0121102D01*
X0101374Y0119747D01*
X0103406Y0118666D02*
X0103724Y0117628D01*
X0104401Y0117268D01*
X0105439Y0117585D01*
X0106159Y0118940D01*
X0105842Y0119978D01*
X0105165Y0120338D01*
X0104127Y0120021D01*
X0105208Y0122053D02*
X0106245Y0122371D01*
X0107326Y0124403D01*
X0108681Y0123683D02*
X0104616Y0125844D01*
X0103535Y0123812D01*
X0103853Y0122774D01*
X0105208Y0122053D01*
X0105336Y0127199D02*
X0106777Y0129909D01*
X0106057Y0128554D02*
X0110122Y0126393D01*
X0110821Y0100796D02*
X0110821Y0097727D01*
X0113123Y0100029D01*
X0108519Y0100029D01*
X0109286Y0096192D02*
X0110054Y0096192D01*
X0110821Y0095425D01*
X0110821Y0093890D01*
X0111588Y0093123D01*
X0112356Y0093123D01*
X0113123Y0093890D01*
X0113123Y0095425D01*
X0112356Y0096192D01*
X0113890Y0094658D02*
X0107752Y0094658D01*
X0108519Y0095425D02*
X0109286Y0096192D01*
X0108519Y0095425D02*
X0108519Y0093890D01*
X0109286Y0093123D01*
X0109286Y0091588D02*
X0108519Y0090821D01*
X0108519Y0089286D01*
X0109286Y0088519D01*
X0113123Y0088519D01*
X0113123Y0091588D02*
X0109286Y0091588D01*
X0124631Y0087586D02*
X0124855Y0086852D01*
X0128687Y0084814D01*
X0128912Y0084080D01*
X0130664Y0086221D02*
X0129706Y0086731D01*
X0129258Y0088198D01*
X0129767Y0089156D01*
X0131968Y0089829D01*
X0133315Y0085427D01*
X0132866Y0086894D02*
X0130664Y0086221D01*
X0127566Y0088483D02*
X0124631Y0087586D01*
X0133436Y0090278D02*
X0136371Y0091175D01*
X0134904Y0090727D02*
X0136250Y0086324D01*
X0119069Y0048624D02*
X0120064Y0047226D01*
X0120698Y0045151D01*
X0118666Y0046232D01*
X0117628Y0045914D01*
X0117268Y0045237D01*
X0117585Y0044199D01*
X0118940Y0043479D01*
X0119978Y0043796D01*
X0120698Y0045151D01*
X0122053Y0044430D02*
X0122371Y0043393D01*
X0124403Y0042312D01*
X0123683Y0040957D02*
X0125844Y0045022D01*
X0123812Y0046103D01*
X0122774Y0045785D01*
X0122053Y0044430D01*
X0126393Y0039516D02*
X0128554Y0043581D01*
X0129909Y0042861D02*
X0127199Y0044302D01*
X0089156Y0019870D02*
X0089829Y0017669D01*
X0085427Y0016322D01*
X0086894Y0016771D02*
X0086221Y0018973D01*
X0086731Y0019931D01*
X0088198Y0020379D01*
X0089156Y0019870D01*
X0088483Y0022071D02*
X0086282Y0021398D01*
X0086567Y0023090D01*
X0086343Y0023824D01*
X0085385Y0024333D01*
X0083917Y0023885D01*
X0083408Y0022927D01*
X0083856Y0021459D01*
X0084814Y0020950D01*
X0088483Y0022071D02*
X0087586Y0025006D01*
X0090278Y0016201D02*
X0091175Y0013266D01*
X0090727Y0014733D02*
X0086324Y0013387D01*
D14*
X0062819Y0058819D02*
X0057819Y0058819D01*
X0057819Y0083819D01*
X0062819Y0083819D01*
X0062819Y0073819D01*
X0057819Y0073819D01*
X0057819Y0083819D01*
X0062819Y0083819D01*
X0062819Y0058819D01*
X0070382Y0066445D02*
X0070382Y0082193D01*
X0086130Y0082193D01*
X0086130Y0066445D01*
X0070382Y0066445D01*
X0062819Y0074127D02*
X0057819Y0074127D01*
X0057819Y0074625D02*
X0062819Y0074625D01*
X0062819Y0075124D02*
X0057819Y0075124D01*
X0057819Y0075622D02*
X0062819Y0075622D01*
X0062819Y0076121D02*
X0057819Y0076121D01*
X0057819Y0076620D02*
X0062819Y0076620D01*
X0062819Y0077118D02*
X0057819Y0077118D01*
X0057819Y0077617D02*
X0062819Y0077617D01*
X0062819Y0078115D02*
X0057819Y0078115D01*
X0057819Y0078614D02*
X0062819Y0078614D01*
X0062819Y0079112D02*
X0057819Y0079112D01*
X0057819Y0079611D02*
X0062819Y0079611D01*
X0062819Y0080109D02*
X0057819Y0080109D01*
X0057819Y0080608D02*
X0062819Y0080608D01*
X0062819Y0081106D02*
X0057819Y0081106D01*
X0057819Y0081605D02*
X0062819Y0081605D01*
X0062819Y0082103D02*
X0057819Y0082103D01*
X0057819Y0082602D02*
X0062819Y0082602D01*
X0062819Y0083100D02*
X0057819Y0083100D01*
X0057819Y0083599D02*
X0062819Y0083599D01*
X0075819Y0090819D02*
X0105819Y0090819D01*
X0095819Y0090819D01*
X0095819Y0095819D01*
X0105819Y0095819D01*
X0105819Y0090819D01*
X0105819Y0095819D01*
X0075819Y0095819D01*
X0075819Y0090819D01*
X0095819Y0091076D02*
X0105819Y0091076D01*
X0105819Y0091575D02*
X0095819Y0091575D01*
X0095819Y0092073D02*
X0105819Y0092073D01*
X0105819Y0092572D02*
X0095819Y0092572D01*
X0095819Y0093070D02*
X0105819Y0093070D01*
X0105819Y0093569D02*
X0095819Y0093569D01*
X0095819Y0094067D02*
X0105819Y0094067D01*
X0105819Y0094566D02*
X0095819Y0094566D01*
X0095819Y0095064D02*
X0105819Y0095064D01*
X0105819Y0095563D02*
X0095819Y0095563D01*
M02*
