G75*
%MOIN*%
%OFA0B0*%
%FSLAX25Y25*%
%IPPOS*%
%LPD*%
%AMOC8*
5,1,8,0,0,1.08239X$1,22.5*
%
%ADD10C,0.00000*%
%ADD11C,0.05400*%
%ADD12C,0.00791*%
%ADD13R,0.12998X0.12998*%
%ADD14R,0.03156X0.03943*%
%ADD15R,0.04731X0.04337*%
%ADD16C,0.03943*%
%ADD17C,0.06699*%
%ADD18C,0.04337*%
%ADD19R,0.01600X0.01000*%
%ADD20C,0.00100*%
%ADD21R,0.01384X0.02349*%
%ADD22R,0.01384X0.02762*%
%ADD23R,0.00409X0.01783*%
%ADD24R,0.02762X0.04140*%
%ADD25R,0.02369X0.03550*%
%ADD26R,0.03943X0.03156*%
%ADD27R,0.03746X0.03943*%
%ADD28C,0.03900*%
%ADD29C,0.16400*%
D10*
X0038119Y0033019D02*
X0038121Y0033118D01*
X0038127Y0033218D01*
X0038137Y0033317D01*
X0038151Y0033415D01*
X0038168Y0033513D01*
X0038190Y0033610D01*
X0038215Y0033706D01*
X0038244Y0033801D01*
X0038277Y0033895D01*
X0038314Y0033987D01*
X0038354Y0034078D01*
X0038398Y0034167D01*
X0038446Y0034255D01*
X0038497Y0034340D01*
X0038551Y0034423D01*
X0038608Y0034505D01*
X0038669Y0034583D01*
X0038733Y0034660D01*
X0038799Y0034733D01*
X0038869Y0034804D01*
X0038941Y0034872D01*
X0039016Y0034938D01*
X0039094Y0035000D01*
X0039174Y0035059D01*
X0039256Y0035115D01*
X0039340Y0035167D01*
X0039427Y0035216D01*
X0039515Y0035262D01*
X0039605Y0035304D01*
X0039697Y0035343D01*
X0039790Y0035378D01*
X0039884Y0035409D01*
X0039980Y0035436D01*
X0040077Y0035459D01*
X0040174Y0035479D01*
X0040272Y0035495D01*
X0040371Y0035507D01*
X0040470Y0035515D01*
X0040569Y0035519D01*
X0040669Y0035519D01*
X0040768Y0035515D01*
X0040867Y0035507D01*
X0040966Y0035495D01*
X0041064Y0035479D01*
X0041161Y0035459D01*
X0041258Y0035436D01*
X0041354Y0035409D01*
X0041448Y0035378D01*
X0041541Y0035343D01*
X0041633Y0035304D01*
X0041723Y0035262D01*
X0041811Y0035216D01*
X0041898Y0035167D01*
X0041982Y0035115D01*
X0042064Y0035059D01*
X0042144Y0035000D01*
X0042222Y0034938D01*
X0042297Y0034872D01*
X0042369Y0034804D01*
X0042439Y0034733D01*
X0042505Y0034660D01*
X0042569Y0034583D01*
X0042630Y0034505D01*
X0042687Y0034423D01*
X0042741Y0034340D01*
X0042792Y0034255D01*
X0042840Y0034167D01*
X0042884Y0034078D01*
X0042924Y0033987D01*
X0042961Y0033895D01*
X0042994Y0033801D01*
X0043023Y0033706D01*
X0043048Y0033610D01*
X0043070Y0033513D01*
X0043087Y0033415D01*
X0043101Y0033317D01*
X0043111Y0033218D01*
X0043117Y0033118D01*
X0043119Y0033019D01*
X0043117Y0032920D01*
X0043111Y0032820D01*
X0043101Y0032721D01*
X0043087Y0032623D01*
X0043070Y0032525D01*
X0043048Y0032428D01*
X0043023Y0032332D01*
X0042994Y0032237D01*
X0042961Y0032143D01*
X0042924Y0032051D01*
X0042884Y0031960D01*
X0042840Y0031871D01*
X0042792Y0031783D01*
X0042741Y0031698D01*
X0042687Y0031615D01*
X0042630Y0031533D01*
X0042569Y0031455D01*
X0042505Y0031378D01*
X0042439Y0031305D01*
X0042369Y0031234D01*
X0042297Y0031166D01*
X0042222Y0031100D01*
X0042144Y0031038D01*
X0042064Y0030979D01*
X0041982Y0030923D01*
X0041898Y0030871D01*
X0041811Y0030822D01*
X0041723Y0030776D01*
X0041633Y0030734D01*
X0041541Y0030695D01*
X0041448Y0030660D01*
X0041354Y0030629D01*
X0041258Y0030602D01*
X0041161Y0030579D01*
X0041064Y0030559D01*
X0040966Y0030543D01*
X0040867Y0030531D01*
X0040768Y0030523D01*
X0040669Y0030519D01*
X0040569Y0030519D01*
X0040470Y0030523D01*
X0040371Y0030531D01*
X0040272Y0030543D01*
X0040174Y0030559D01*
X0040077Y0030579D01*
X0039980Y0030602D01*
X0039884Y0030629D01*
X0039790Y0030660D01*
X0039697Y0030695D01*
X0039605Y0030734D01*
X0039515Y0030776D01*
X0039427Y0030822D01*
X0039340Y0030871D01*
X0039256Y0030923D01*
X0039174Y0030979D01*
X0039094Y0031038D01*
X0039016Y0031100D01*
X0038941Y0031166D01*
X0038869Y0031234D01*
X0038799Y0031305D01*
X0038733Y0031378D01*
X0038669Y0031455D01*
X0038608Y0031533D01*
X0038551Y0031615D01*
X0038497Y0031698D01*
X0038446Y0031783D01*
X0038398Y0031871D01*
X0038354Y0031960D01*
X0038314Y0032051D01*
X0038277Y0032143D01*
X0038244Y0032237D01*
X0038215Y0032332D01*
X0038190Y0032428D01*
X0038168Y0032525D01*
X0038151Y0032623D01*
X0038137Y0032721D01*
X0038127Y0032820D01*
X0038121Y0032920D01*
X0038119Y0033019D01*
X0040859Y0045486D02*
X0040861Y0045570D01*
X0040867Y0045653D01*
X0040877Y0045736D01*
X0040891Y0045819D01*
X0040908Y0045901D01*
X0040930Y0045982D01*
X0040955Y0046061D01*
X0040984Y0046140D01*
X0041017Y0046217D01*
X0041053Y0046292D01*
X0041093Y0046366D01*
X0041136Y0046438D01*
X0041183Y0046507D01*
X0041233Y0046574D01*
X0041286Y0046639D01*
X0041342Y0046701D01*
X0041400Y0046761D01*
X0041462Y0046818D01*
X0041526Y0046871D01*
X0041593Y0046922D01*
X0041662Y0046969D01*
X0041733Y0047014D01*
X0041806Y0047054D01*
X0041881Y0047091D01*
X0041958Y0047125D01*
X0042036Y0047155D01*
X0042115Y0047181D01*
X0042196Y0047204D01*
X0042278Y0047222D01*
X0042360Y0047237D01*
X0042443Y0047248D01*
X0042526Y0047255D01*
X0042610Y0047258D01*
X0042694Y0047257D01*
X0042777Y0047252D01*
X0042861Y0047243D01*
X0042943Y0047230D01*
X0043025Y0047214D01*
X0043106Y0047193D01*
X0043187Y0047169D01*
X0043265Y0047141D01*
X0043343Y0047109D01*
X0043419Y0047073D01*
X0043493Y0047034D01*
X0043565Y0046992D01*
X0043635Y0046946D01*
X0043703Y0046897D01*
X0043768Y0046845D01*
X0043831Y0046790D01*
X0043891Y0046732D01*
X0043949Y0046671D01*
X0044003Y0046607D01*
X0044055Y0046541D01*
X0044103Y0046473D01*
X0044148Y0046402D01*
X0044189Y0046329D01*
X0044228Y0046255D01*
X0044262Y0046179D01*
X0044293Y0046101D01*
X0044320Y0046022D01*
X0044344Y0045941D01*
X0044363Y0045860D01*
X0044379Y0045778D01*
X0044391Y0045695D01*
X0044399Y0045611D01*
X0044403Y0045528D01*
X0044403Y0045444D01*
X0044399Y0045361D01*
X0044391Y0045277D01*
X0044379Y0045194D01*
X0044363Y0045112D01*
X0044344Y0045031D01*
X0044320Y0044950D01*
X0044293Y0044871D01*
X0044262Y0044793D01*
X0044228Y0044717D01*
X0044189Y0044643D01*
X0044148Y0044570D01*
X0044103Y0044499D01*
X0044055Y0044431D01*
X0044003Y0044365D01*
X0043949Y0044301D01*
X0043891Y0044240D01*
X0043831Y0044182D01*
X0043768Y0044127D01*
X0043703Y0044075D01*
X0043635Y0044026D01*
X0043565Y0043980D01*
X0043493Y0043938D01*
X0043419Y0043899D01*
X0043343Y0043863D01*
X0043265Y0043831D01*
X0043187Y0043803D01*
X0043106Y0043779D01*
X0043025Y0043758D01*
X0042943Y0043742D01*
X0042861Y0043729D01*
X0042777Y0043720D01*
X0042694Y0043715D01*
X0042610Y0043714D01*
X0042526Y0043717D01*
X0042443Y0043724D01*
X0042360Y0043735D01*
X0042278Y0043750D01*
X0042196Y0043768D01*
X0042115Y0043791D01*
X0042036Y0043817D01*
X0041958Y0043847D01*
X0041881Y0043881D01*
X0041806Y0043918D01*
X0041733Y0043958D01*
X0041662Y0044003D01*
X0041593Y0044050D01*
X0041526Y0044101D01*
X0041462Y0044154D01*
X0041400Y0044211D01*
X0041342Y0044271D01*
X0041286Y0044333D01*
X0041233Y0044398D01*
X0041183Y0044465D01*
X0041136Y0044534D01*
X0041093Y0044606D01*
X0041053Y0044680D01*
X0041017Y0044755D01*
X0040984Y0044832D01*
X0040955Y0044911D01*
X0040930Y0044990D01*
X0040908Y0045071D01*
X0040891Y0045153D01*
X0040877Y0045236D01*
X0040867Y0045319D01*
X0040861Y0045402D01*
X0040859Y0045486D01*
X0029556Y0068274D02*
X0029558Y0068362D01*
X0029564Y0068450D01*
X0029574Y0068538D01*
X0029588Y0068626D01*
X0029605Y0068712D01*
X0029627Y0068798D01*
X0029652Y0068882D01*
X0029682Y0068966D01*
X0029714Y0069048D01*
X0029751Y0069128D01*
X0029791Y0069207D01*
X0029835Y0069284D01*
X0029882Y0069359D01*
X0029932Y0069431D01*
X0029986Y0069502D01*
X0030042Y0069569D01*
X0030102Y0069635D01*
X0030164Y0069697D01*
X0030230Y0069757D01*
X0030297Y0069813D01*
X0030368Y0069867D01*
X0030440Y0069917D01*
X0030515Y0069964D01*
X0030592Y0070008D01*
X0030671Y0070048D01*
X0030751Y0070085D01*
X0030833Y0070117D01*
X0030917Y0070147D01*
X0031001Y0070172D01*
X0031087Y0070194D01*
X0031173Y0070211D01*
X0031261Y0070225D01*
X0031349Y0070235D01*
X0031437Y0070241D01*
X0031525Y0070243D01*
X0031613Y0070241D01*
X0031701Y0070235D01*
X0031789Y0070225D01*
X0031877Y0070211D01*
X0031963Y0070194D01*
X0032049Y0070172D01*
X0032133Y0070147D01*
X0032217Y0070117D01*
X0032299Y0070085D01*
X0032379Y0070048D01*
X0032458Y0070008D01*
X0032535Y0069964D01*
X0032610Y0069917D01*
X0032682Y0069867D01*
X0032753Y0069813D01*
X0032820Y0069757D01*
X0032886Y0069697D01*
X0032948Y0069635D01*
X0033008Y0069569D01*
X0033064Y0069502D01*
X0033118Y0069431D01*
X0033168Y0069359D01*
X0033215Y0069284D01*
X0033259Y0069207D01*
X0033299Y0069128D01*
X0033336Y0069048D01*
X0033368Y0068966D01*
X0033398Y0068882D01*
X0033423Y0068798D01*
X0033445Y0068712D01*
X0033462Y0068626D01*
X0033476Y0068538D01*
X0033486Y0068450D01*
X0033492Y0068362D01*
X0033494Y0068274D01*
X0033492Y0068186D01*
X0033486Y0068098D01*
X0033476Y0068010D01*
X0033462Y0067922D01*
X0033445Y0067836D01*
X0033423Y0067750D01*
X0033398Y0067666D01*
X0033368Y0067582D01*
X0033336Y0067500D01*
X0033299Y0067420D01*
X0033259Y0067341D01*
X0033215Y0067264D01*
X0033168Y0067189D01*
X0033118Y0067117D01*
X0033064Y0067046D01*
X0033008Y0066979D01*
X0032948Y0066913D01*
X0032886Y0066851D01*
X0032820Y0066791D01*
X0032753Y0066735D01*
X0032682Y0066681D01*
X0032610Y0066631D01*
X0032535Y0066584D01*
X0032458Y0066540D01*
X0032379Y0066500D01*
X0032299Y0066463D01*
X0032217Y0066431D01*
X0032133Y0066401D01*
X0032049Y0066376D01*
X0031963Y0066354D01*
X0031877Y0066337D01*
X0031789Y0066323D01*
X0031701Y0066313D01*
X0031613Y0066307D01*
X0031525Y0066305D01*
X0031437Y0066307D01*
X0031349Y0066313D01*
X0031261Y0066323D01*
X0031173Y0066337D01*
X0031087Y0066354D01*
X0031001Y0066376D01*
X0030917Y0066401D01*
X0030833Y0066431D01*
X0030751Y0066463D01*
X0030671Y0066500D01*
X0030592Y0066540D01*
X0030515Y0066584D01*
X0030440Y0066631D01*
X0030368Y0066681D01*
X0030297Y0066735D01*
X0030230Y0066791D01*
X0030164Y0066851D01*
X0030102Y0066913D01*
X0030042Y0066979D01*
X0029986Y0067046D01*
X0029932Y0067117D01*
X0029882Y0067189D01*
X0029835Y0067264D01*
X0029791Y0067341D01*
X0029751Y0067420D01*
X0029714Y0067500D01*
X0029682Y0067582D01*
X0029652Y0067666D01*
X0029627Y0067750D01*
X0029605Y0067836D01*
X0029588Y0067922D01*
X0029574Y0068010D01*
X0029564Y0068098D01*
X0029558Y0068186D01*
X0029556Y0068274D01*
X0048652Y0068588D02*
X0048654Y0068700D01*
X0048660Y0068811D01*
X0048670Y0068923D01*
X0048684Y0069034D01*
X0048701Y0069144D01*
X0048723Y0069254D01*
X0048749Y0069363D01*
X0048778Y0069471D01*
X0048811Y0069577D01*
X0048848Y0069683D01*
X0048889Y0069787D01*
X0048934Y0069890D01*
X0048982Y0069991D01*
X0049033Y0070090D01*
X0049088Y0070187D01*
X0049147Y0070282D01*
X0049208Y0070376D01*
X0049273Y0070467D01*
X0049342Y0070555D01*
X0049413Y0070641D01*
X0049487Y0070725D01*
X0049565Y0070805D01*
X0049645Y0070883D01*
X0049728Y0070959D01*
X0049813Y0071031D01*
X0049901Y0071100D01*
X0049991Y0071166D01*
X0050084Y0071228D01*
X0050179Y0071288D01*
X0050276Y0071344D01*
X0050374Y0071396D01*
X0050475Y0071445D01*
X0050577Y0071490D01*
X0050681Y0071532D01*
X0050786Y0071570D01*
X0050893Y0071604D01*
X0051000Y0071634D01*
X0051109Y0071661D01*
X0051218Y0071683D01*
X0051329Y0071702D01*
X0051439Y0071717D01*
X0051551Y0071728D01*
X0051662Y0071735D01*
X0051774Y0071738D01*
X0051886Y0071737D01*
X0051998Y0071732D01*
X0052109Y0071723D01*
X0052220Y0071710D01*
X0052331Y0071693D01*
X0052441Y0071673D01*
X0052550Y0071648D01*
X0052658Y0071620D01*
X0052765Y0071587D01*
X0052871Y0071551D01*
X0052975Y0071511D01*
X0053078Y0071468D01*
X0053180Y0071421D01*
X0053279Y0071370D01*
X0053377Y0071316D01*
X0053473Y0071258D01*
X0053567Y0071197D01*
X0053658Y0071133D01*
X0053747Y0071066D01*
X0053834Y0070995D01*
X0053918Y0070921D01*
X0054000Y0070845D01*
X0054078Y0070765D01*
X0054154Y0070683D01*
X0054227Y0070598D01*
X0054297Y0070511D01*
X0054363Y0070421D01*
X0054427Y0070329D01*
X0054487Y0070235D01*
X0054544Y0070139D01*
X0054597Y0070040D01*
X0054647Y0069940D01*
X0054693Y0069839D01*
X0054736Y0069735D01*
X0054775Y0069630D01*
X0054810Y0069524D01*
X0054841Y0069417D01*
X0054869Y0069308D01*
X0054892Y0069199D01*
X0054912Y0069089D01*
X0054928Y0068978D01*
X0054940Y0068867D01*
X0054948Y0068756D01*
X0054952Y0068644D01*
X0054952Y0068532D01*
X0054948Y0068420D01*
X0054940Y0068309D01*
X0054928Y0068198D01*
X0054912Y0068087D01*
X0054892Y0067977D01*
X0054869Y0067868D01*
X0054841Y0067759D01*
X0054810Y0067652D01*
X0054775Y0067546D01*
X0054736Y0067441D01*
X0054693Y0067337D01*
X0054647Y0067236D01*
X0054597Y0067136D01*
X0054544Y0067037D01*
X0054487Y0066941D01*
X0054427Y0066847D01*
X0054363Y0066755D01*
X0054297Y0066665D01*
X0054227Y0066578D01*
X0054154Y0066493D01*
X0054078Y0066411D01*
X0054000Y0066331D01*
X0053918Y0066255D01*
X0053834Y0066181D01*
X0053747Y0066110D01*
X0053658Y0066043D01*
X0053567Y0065979D01*
X0053473Y0065918D01*
X0053377Y0065860D01*
X0053279Y0065806D01*
X0053180Y0065755D01*
X0053078Y0065708D01*
X0052975Y0065665D01*
X0052871Y0065625D01*
X0052765Y0065589D01*
X0052658Y0065556D01*
X0052550Y0065528D01*
X0052441Y0065503D01*
X0052331Y0065483D01*
X0052220Y0065466D01*
X0052109Y0065453D01*
X0051998Y0065444D01*
X0051886Y0065439D01*
X0051774Y0065438D01*
X0051662Y0065441D01*
X0051551Y0065448D01*
X0051439Y0065459D01*
X0051329Y0065474D01*
X0051218Y0065493D01*
X0051109Y0065515D01*
X0051000Y0065542D01*
X0050893Y0065572D01*
X0050786Y0065606D01*
X0050681Y0065644D01*
X0050577Y0065686D01*
X0050475Y0065731D01*
X0050374Y0065780D01*
X0050276Y0065832D01*
X0050179Y0065888D01*
X0050084Y0065948D01*
X0049991Y0066010D01*
X0049901Y0066076D01*
X0049813Y0066145D01*
X0049728Y0066217D01*
X0049645Y0066293D01*
X0049565Y0066371D01*
X0049487Y0066451D01*
X0049413Y0066535D01*
X0049342Y0066621D01*
X0049273Y0066709D01*
X0049208Y0066800D01*
X0049147Y0066894D01*
X0049088Y0066989D01*
X0049033Y0067086D01*
X0048982Y0067185D01*
X0048934Y0067286D01*
X0048889Y0067389D01*
X0048848Y0067493D01*
X0048811Y0067599D01*
X0048778Y0067705D01*
X0048749Y0067813D01*
X0048723Y0067922D01*
X0048701Y0068032D01*
X0048684Y0068142D01*
X0048670Y0068253D01*
X0048660Y0068365D01*
X0048654Y0068476D01*
X0048652Y0068588D01*
X0067155Y0055278D02*
X0067157Y0055366D01*
X0067163Y0055454D01*
X0067173Y0055542D01*
X0067187Y0055630D01*
X0067204Y0055716D01*
X0067226Y0055802D01*
X0067251Y0055886D01*
X0067281Y0055970D01*
X0067313Y0056052D01*
X0067350Y0056132D01*
X0067390Y0056211D01*
X0067434Y0056288D01*
X0067481Y0056363D01*
X0067531Y0056435D01*
X0067585Y0056506D01*
X0067641Y0056573D01*
X0067701Y0056639D01*
X0067763Y0056701D01*
X0067829Y0056761D01*
X0067896Y0056817D01*
X0067967Y0056871D01*
X0068039Y0056921D01*
X0068114Y0056968D01*
X0068191Y0057012D01*
X0068270Y0057052D01*
X0068350Y0057089D01*
X0068432Y0057121D01*
X0068516Y0057151D01*
X0068600Y0057176D01*
X0068686Y0057198D01*
X0068772Y0057215D01*
X0068860Y0057229D01*
X0068948Y0057239D01*
X0069036Y0057245D01*
X0069124Y0057247D01*
X0069212Y0057245D01*
X0069300Y0057239D01*
X0069388Y0057229D01*
X0069476Y0057215D01*
X0069562Y0057198D01*
X0069648Y0057176D01*
X0069732Y0057151D01*
X0069816Y0057121D01*
X0069898Y0057089D01*
X0069978Y0057052D01*
X0070057Y0057012D01*
X0070134Y0056968D01*
X0070209Y0056921D01*
X0070281Y0056871D01*
X0070352Y0056817D01*
X0070419Y0056761D01*
X0070485Y0056701D01*
X0070547Y0056639D01*
X0070607Y0056573D01*
X0070663Y0056506D01*
X0070717Y0056435D01*
X0070767Y0056363D01*
X0070814Y0056288D01*
X0070858Y0056211D01*
X0070898Y0056132D01*
X0070935Y0056052D01*
X0070967Y0055970D01*
X0070997Y0055886D01*
X0071022Y0055802D01*
X0071044Y0055716D01*
X0071061Y0055630D01*
X0071075Y0055542D01*
X0071085Y0055454D01*
X0071091Y0055366D01*
X0071093Y0055278D01*
X0071091Y0055190D01*
X0071085Y0055102D01*
X0071075Y0055014D01*
X0071061Y0054926D01*
X0071044Y0054840D01*
X0071022Y0054754D01*
X0070997Y0054670D01*
X0070967Y0054586D01*
X0070935Y0054504D01*
X0070898Y0054424D01*
X0070858Y0054345D01*
X0070814Y0054268D01*
X0070767Y0054193D01*
X0070717Y0054121D01*
X0070663Y0054050D01*
X0070607Y0053983D01*
X0070547Y0053917D01*
X0070485Y0053855D01*
X0070419Y0053795D01*
X0070352Y0053739D01*
X0070281Y0053685D01*
X0070209Y0053635D01*
X0070134Y0053588D01*
X0070057Y0053544D01*
X0069978Y0053504D01*
X0069898Y0053467D01*
X0069816Y0053435D01*
X0069732Y0053405D01*
X0069648Y0053380D01*
X0069562Y0053358D01*
X0069476Y0053341D01*
X0069388Y0053327D01*
X0069300Y0053317D01*
X0069212Y0053311D01*
X0069124Y0053309D01*
X0069036Y0053311D01*
X0068948Y0053317D01*
X0068860Y0053327D01*
X0068772Y0053341D01*
X0068686Y0053358D01*
X0068600Y0053380D01*
X0068516Y0053405D01*
X0068432Y0053435D01*
X0068350Y0053467D01*
X0068270Y0053504D01*
X0068191Y0053544D01*
X0068114Y0053588D01*
X0068039Y0053635D01*
X0067967Y0053685D01*
X0067896Y0053739D01*
X0067829Y0053795D01*
X0067763Y0053855D01*
X0067701Y0053917D01*
X0067641Y0053983D01*
X0067585Y0054050D01*
X0067531Y0054121D01*
X0067481Y0054193D01*
X0067434Y0054268D01*
X0067390Y0054345D01*
X0067350Y0054424D01*
X0067313Y0054504D01*
X0067281Y0054586D01*
X0067251Y0054670D01*
X0067226Y0054754D01*
X0067204Y0054840D01*
X0067187Y0054926D01*
X0067173Y0055014D01*
X0067163Y0055102D01*
X0067157Y0055190D01*
X0067155Y0055278D01*
X0084218Y0064133D02*
X0084220Y0064245D01*
X0084226Y0064356D01*
X0084236Y0064468D01*
X0084250Y0064579D01*
X0084267Y0064689D01*
X0084289Y0064799D01*
X0084315Y0064908D01*
X0084344Y0065016D01*
X0084377Y0065122D01*
X0084414Y0065228D01*
X0084455Y0065332D01*
X0084500Y0065435D01*
X0084548Y0065536D01*
X0084599Y0065635D01*
X0084654Y0065732D01*
X0084713Y0065827D01*
X0084774Y0065921D01*
X0084839Y0066012D01*
X0084908Y0066100D01*
X0084979Y0066186D01*
X0085053Y0066270D01*
X0085131Y0066350D01*
X0085211Y0066428D01*
X0085294Y0066504D01*
X0085379Y0066576D01*
X0085467Y0066645D01*
X0085557Y0066711D01*
X0085650Y0066773D01*
X0085745Y0066833D01*
X0085842Y0066889D01*
X0085940Y0066941D01*
X0086041Y0066990D01*
X0086143Y0067035D01*
X0086247Y0067077D01*
X0086352Y0067115D01*
X0086459Y0067149D01*
X0086566Y0067179D01*
X0086675Y0067206D01*
X0086784Y0067228D01*
X0086895Y0067247D01*
X0087005Y0067262D01*
X0087117Y0067273D01*
X0087228Y0067280D01*
X0087340Y0067283D01*
X0087452Y0067282D01*
X0087564Y0067277D01*
X0087675Y0067268D01*
X0087786Y0067255D01*
X0087897Y0067238D01*
X0088007Y0067218D01*
X0088116Y0067193D01*
X0088224Y0067165D01*
X0088331Y0067132D01*
X0088437Y0067096D01*
X0088541Y0067056D01*
X0088644Y0067013D01*
X0088746Y0066966D01*
X0088845Y0066915D01*
X0088943Y0066861D01*
X0089039Y0066803D01*
X0089133Y0066742D01*
X0089224Y0066678D01*
X0089313Y0066611D01*
X0089400Y0066540D01*
X0089484Y0066466D01*
X0089566Y0066390D01*
X0089644Y0066310D01*
X0089720Y0066228D01*
X0089793Y0066143D01*
X0089863Y0066056D01*
X0089929Y0065966D01*
X0089993Y0065874D01*
X0090053Y0065780D01*
X0090110Y0065684D01*
X0090163Y0065585D01*
X0090213Y0065485D01*
X0090259Y0065384D01*
X0090302Y0065280D01*
X0090341Y0065175D01*
X0090376Y0065069D01*
X0090407Y0064962D01*
X0090435Y0064853D01*
X0090458Y0064744D01*
X0090478Y0064634D01*
X0090494Y0064523D01*
X0090506Y0064412D01*
X0090514Y0064301D01*
X0090518Y0064189D01*
X0090518Y0064077D01*
X0090514Y0063965D01*
X0090506Y0063854D01*
X0090494Y0063743D01*
X0090478Y0063632D01*
X0090458Y0063522D01*
X0090435Y0063413D01*
X0090407Y0063304D01*
X0090376Y0063197D01*
X0090341Y0063091D01*
X0090302Y0062986D01*
X0090259Y0062882D01*
X0090213Y0062781D01*
X0090163Y0062681D01*
X0090110Y0062582D01*
X0090053Y0062486D01*
X0089993Y0062392D01*
X0089929Y0062300D01*
X0089863Y0062210D01*
X0089793Y0062123D01*
X0089720Y0062038D01*
X0089644Y0061956D01*
X0089566Y0061876D01*
X0089484Y0061800D01*
X0089400Y0061726D01*
X0089313Y0061655D01*
X0089224Y0061588D01*
X0089133Y0061524D01*
X0089039Y0061463D01*
X0088943Y0061405D01*
X0088845Y0061351D01*
X0088746Y0061300D01*
X0088644Y0061253D01*
X0088541Y0061210D01*
X0088437Y0061170D01*
X0088331Y0061134D01*
X0088224Y0061101D01*
X0088116Y0061073D01*
X0088007Y0061048D01*
X0087897Y0061028D01*
X0087786Y0061011D01*
X0087675Y0060998D01*
X0087564Y0060989D01*
X0087452Y0060984D01*
X0087340Y0060983D01*
X0087228Y0060986D01*
X0087117Y0060993D01*
X0087005Y0061004D01*
X0086895Y0061019D01*
X0086784Y0061038D01*
X0086675Y0061060D01*
X0086566Y0061087D01*
X0086459Y0061117D01*
X0086352Y0061151D01*
X0086247Y0061189D01*
X0086143Y0061231D01*
X0086041Y0061276D01*
X0085940Y0061325D01*
X0085842Y0061377D01*
X0085745Y0061433D01*
X0085650Y0061493D01*
X0085557Y0061555D01*
X0085467Y0061621D01*
X0085379Y0061690D01*
X0085294Y0061762D01*
X0085211Y0061838D01*
X0085131Y0061916D01*
X0085053Y0061996D01*
X0084979Y0062080D01*
X0084908Y0062166D01*
X0084839Y0062254D01*
X0084774Y0062345D01*
X0084713Y0062439D01*
X0084654Y0062534D01*
X0084599Y0062631D01*
X0084548Y0062730D01*
X0084500Y0062831D01*
X0084455Y0062934D01*
X0084414Y0063038D01*
X0084377Y0063144D01*
X0084344Y0063250D01*
X0084315Y0063358D01*
X0084289Y0063467D01*
X0084267Y0063577D01*
X0084250Y0063687D01*
X0084236Y0063798D01*
X0084226Y0063910D01*
X0084220Y0064021D01*
X0084218Y0064133D01*
X0085940Y0084748D02*
X0085942Y0084860D01*
X0085948Y0084971D01*
X0085958Y0085083D01*
X0085972Y0085194D01*
X0085989Y0085304D01*
X0086011Y0085414D01*
X0086037Y0085523D01*
X0086066Y0085631D01*
X0086099Y0085737D01*
X0086136Y0085843D01*
X0086177Y0085947D01*
X0086222Y0086050D01*
X0086270Y0086151D01*
X0086321Y0086250D01*
X0086376Y0086347D01*
X0086435Y0086442D01*
X0086496Y0086536D01*
X0086561Y0086627D01*
X0086630Y0086715D01*
X0086701Y0086801D01*
X0086775Y0086885D01*
X0086853Y0086965D01*
X0086933Y0087043D01*
X0087016Y0087119D01*
X0087101Y0087191D01*
X0087189Y0087260D01*
X0087279Y0087326D01*
X0087372Y0087388D01*
X0087467Y0087448D01*
X0087564Y0087504D01*
X0087662Y0087556D01*
X0087763Y0087605D01*
X0087865Y0087650D01*
X0087969Y0087692D01*
X0088074Y0087730D01*
X0088181Y0087764D01*
X0088288Y0087794D01*
X0088397Y0087821D01*
X0088506Y0087843D01*
X0088617Y0087862D01*
X0088727Y0087877D01*
X0088839Y0087888D01*
X0088950Y0087895D01*
X0089062Y0087898D01*
X0089174Y0087897D01*
X0089286Y0087892D01*
X0089397Y0087883D01*
X0089508Y0087870D01*
X0089619Y0087853D01*
X0089729Y0087833D01*
X0089838Y0087808D01*
X0089946Y0087780D01*
X0090053Y0087747D01*
X0090159Y0087711D01*
X0090263Y0087671D01*
X0090366Y0087628D01*
X0090468Y0087581D01*
X0090567Y0087530D01*
X0090665Y0087476D01*
X0090761Y0087418D01*
X0090855Y0087357D01*
X0090946Y0087293D01*
X0091035Y0087226D01*
X0091122Y0087155D01*
X0091206Y0087081D01*
X0091288Y0087005D01*
X0091366Y0086925D01*
X0091442Y0086843D01*
X0091515Y0086758D01*
X0091585Y0086671D01*
X0091651Y0086581D01*
X0091715Y0086489D01*
X0091775Y0086395D01*
X0091832Y0086299D01*
X0091885Y0086200D01*
X0091935Y0086100D01*
X0091981Y0085999D01*
X0092024Y0085895D01*
X0092063Y0085790D01*
X0092098Y0085684D01*
X0092129Y0085577D01*
X0092157Y0085468D01*
X0092180Y0085359D01*
X0092200Y0085249D01*
X0092216Y0085138D01*
X0092228Y0085027D01*
X0092236Y0084916D01*
X0092240Y0084804D01*
X0092240Y0084692D01*
X0092236Y0084580D01*
X0092228Y0084469D01*
X0092216Y0084358D01*
X0092200Y0084247D01*
X0092180Y0084137D01*
X0092157Y0084028D01*
X0092129Y0083919D01*
X0092098Y0083812D01*
X0092063Y0083706D01*
X0092024Y0083601D01*
X0091981Y0083497D01*
X0091935Y0083396D01*
X0091885Y0083296D01*
X0091832Y0083197D01*
X0091775Y0083101D01*
X0091715Y0083007D01*
X0091651Y0082915D01*
X0091585Y0082825D01*
X0091515Y0082738D01*
X0091442Y0082653D01*
X0091366Y0082571D01*
X0091288Y0082491D01*
X0091206Y0082415D01*
X0091122Y0082341D01*
X0091035Y0082270D01*
X0090946Y0082203D01*
X0090855Y0082139D01*
X0090761Y0082078D01*
X0090665Y0082020D01*
X0090567Y0081966D01*
X0090468Y0081915D01*
X0090366Y0081868D01*
X0090263Y0081825D01*
X0090159Y0081785D01*
X0090053Y0081749D01*
X0089946Y0081716D01*
X0089838Y0081688D01*
X0089729Y0081663D01*
X0089619Y0081643D01*
X0089508Y0081626D01*
X0089397Y0081613D01*
X0089286Y0081604D01*
X0089174Y0081599D01*
X0089062Y0081598D01*
X0088950Y0081601D01*
X0088839Y0081608D01*
X0088727Y0081619D01*
X0088617Y0081634D01*
X0088506Y0081653D01*
X0088397Y0081675D01*
X0088288Y0081702D01*
X0088181Y0081732D01*
X0088074Y0081766D01*
X0087969Y0081804D01*
X0087865Y0081846D01*
X0087763Y0081891D01*
X0087662Y0081940D01*
X0087564Y0081992D01*
X0087467Y0082048D01*
X0087372Y0082108D01*
X0087279Y0082170D01*
X0087189Y0082236D01*
X0087101Y0082305D01*
X0087016Y0082377D01*
X0086933Y0082453D01*
X0086853Y0082531D01*
X0086775Y0082611D01*
X0086701Y0082695D01*
X0086630Y0082781D01*
X0086561Y0082869D01*
X0086496Y0082960D01*
X0086435Y0083054D01*
X0086376Y0083149D01*
X0086321Y0083246D01*
X0086270Y0083345D01*
X0086222Y0083446D01*
X0086177Y0083549D01*
X0086136Y0083653D01*
X0086099Y0083759D01*
X0086066Y0083865D01*
X0086037Y0083973D01*
X0086011Y0084082D01*
X0085989Y0084192D01*
X0085972Y0084302D01*
X0085958Y0084413D01*
X0085948Y0084525D01*
X0085942Y0084636D01*
X0085940Y0084748D01*
X0070056Y0095892D02*
X0070058Y0095980D01*
X0070064Y0096068D01*
X0070074Y0096156D01*
X0070088Y0096244D01*
X0070105Y0096330D01*
X0070127Y0096416D01*
X0070152Y0096500D01*
X0070182Y0096584D01*
X0070214Y0096666D01*
X0070251Y0096746D01*
X0070291Y0096825D01*
X0070335Y0096902D01*
X0070382Y0096977D01*
X0070432Y0097049D01*
X0070486Y0097120D01*
X0070542Y0097187D01*
X0070602Y0097253D01*
X0070664Y0097315D01*
X0070730Y0097375D01*
X0070797Y0097431D01*
X0070868Y0097485D01*
X0070940Y0097535D01*
X0071015Y0097582D01*
X0071092Y0097626D01*
X0071171Y0097666D01*
X0071251Y0097703D01*
X0071333Y0097735D01*
X0071417Y0097765D01*
X0071501Y0097790D01*
X0071587Y0097812D01*
X0071673Y0097829D01*
X0071761Y0097843D01*
X0071849Y0097853D01*
X0071937Y0097859D01*
X0072025Y0097861D01*
X0072113Y0097859D01*
X0072201Y0097853D01*
X0072289Y0097843D01*
X0072377Y0097829D01*
X0072463Y0097812D01*
X0072549Y0097790D01*
X0072633Y0097765D01*
X0072717Y0097735D01*
X0072799Y0097703D01*
X0072879Y0097666D01*
X0072958Y0097626D01*
X0073035Y0097582D01*
X0073110Y0097535D01*
X0073182Y0097485D01*
X0073253Y0097431D01*
X0073320Y0097375D01*
X0073386Y0097315D01*
X0073448Y0097253D01*
X0073508Y0097187D01*
X0073564Y0097120D01*
X0073618Y0097049D01*
X0073668Y0096977D01*
X0073715Y0096902D01*
X0073759Y0096825D01*
X0073799Y0096746D01*
X0073836Y0096666D01*
X0073868Y0096584D01*
X0073898Y0096500D01*
X0073923Y0096416D01*
X0073945Y0096330D01*
X0073962Y0096244D01*
X0073976Y0096156D01*
X0073986Y0096068D01*
X0073992Y0095980D01*
X0073994Y0095892D01*
X0073992Y0095804D01*
X0073986Y0095716D01*
X0073976Y0095628D01*
X0073962Y0095540D01*
X0073945Y0095454D01*
X0073923Y0095368D01*
X0073898Y0095284D01*
X0073868Y0095200D01*
X0073836Y0095118D01*
X0073799Y0095038D01*
X0073759Y0094959D01*
X0073715Y0094882D01*
X0073668Y0094807D01*
X0073618Y0094735D01*
X0073564Y0094664D01*
X0073508Y0094597D01*
X0073448Y0094531D01*
X0073386Y0094469D01*
X0073320Y0094409D01*
X0073253Y0094353D01*
X0073182Y0094299D01*
X0073110Y0094249D01*
X0073035Y0094202D01*
X0072958Y0094158D01*
X0072879Y0094118D01*
X0072799Y0094081D01*
X0072717Y0094049D01*
X0072633Y0094019D01*
X0072549Y0093994D01*
X0072463Y0093972D01*
X0072377Y0093955D01*
X0072289Y0093941D01*
X0072201Y0093931D01*
X0072113Y0093925D01*
X0072025Y0093923D01*
X0071937Y0093925D01*
X0071849Y0093931D01*
X0071761Y0093941D01*
X0071673Y0093955D01*
X0071587Y0093972D01*
X0071501Y0093994D01*
X0071417Y0094019D01*
X0071333Y0094049D01*
X0071251Y0094081D01*
X0071171Y0094118D01*
X0071092Y0094158D01*
X0071015Y0094202D01*
X0070940Y0094249D01*
X0070868Y0094299D01*
X0070797Y0094353D01*
X0070730Y0094409D01*
X0070664Y0094469D01*
X0070602Y0094531D01*
X0070542Y0094597D01*
X0070486Y0094664D01*
X0070432Y0094735D01*
X0070382Y0094807D01*
X0070335Y0094882D01*
X0070291Y0094959D01*
X0070251Y0095038D01*
X0070214Y0095118D01*
X0070182Y0095200D01*
X0070152Y0095284D01*
X0070127Y0095368D01*
X0070105Y0095454D01*
X0070088Y0095540D01*
X0070074Y0095628D01*
X0070064Y0095716D01*
X0070058Y0095804D01*
X0070056Y0095892D01*
X0091483Y0109007D02*
X0091485Y0109091D01*
X0091491Y0109174D01*
X0091501Y0109257D01*
X0091515Y0109340D01*
X0091532Y0109422D01*
X0091554Y0109503D01*
X0091579Y0109582D01*
X0091608Y0109661D01*
X0091641Y0109738D01*
X0091677Y0109813D01*
X0091717Y0109887D01*
X0091760Y0109959D01*
X0091807Y0110028D01*
X0091857Y0110095D01*
X0091910Y0110160D01*
X0091966Y0110222D01*
X0092024Y0110282D01*
X0092086Y0110339D01*
X0092150Y0110392D01*
X0092217Y0110443D01*
X0092286Y0110490D01*
X0092357Y0110535D01*
X0092430Y0110575D01*
X0092505Y0110612D01*
X0092582Y0110646D01*
X0092660Y0110676D01*
X0092739Y0110702D01*
X0092820Y0110725D01*
X0092902Y0110743D01*
X0092984Y0110758D01*
X0093067Y0110769D01*
X0093150Y0110776D01*
X0093234Y0110779D01*
X0093318Y0110778D01*
X0093401Y0110773D01*
X0093485Y0110764D01*
X0093567Y0110751D01*
X0093649Y0110735D01*
X0093730Y0110714D01*
X0093811Y0110690D01*
X0093889Y0110662D01*
X0093967Y0110630D01*
X0094043Y0110594D01*
X0094117Y0110555D01*
X0094189Y0110513D01*
X0094259Y0110467D01*
X0094327Y0110418D01*
X0094392Y0110366D01*
X0094455Y0110311D01*
X0094515Y0110253D01*
X0094573Y0110192D01*
X0094627Y0110128D01*
X0094679Y0110062D01*
X0094727Y0109994D01*
X0094772Y0109923D01*
X0094813Y0109850D01*
X0094852Y0109776D01*
X0094886Y0109700D01*
X0094917Y0109622D01*
X0094944Y0109543D01*
X0094968Y0109462D01*
X0094987Y0109381D01*
X0095003Y0109299D01*
X0095015Y0109216D01*
X0095023Y0109132D01*
X0095027Y0109049D01*
X0095027Y0108965D01*
X0095023Y0108882D01*
X0095015Y0108798D01*
X0095003Y0108715D01*
X0094987Y0108633D01*
X0094968Y0108552D01*
X0094944Y0108471D01*
X0094917Y0108392D01*
X0094886Y0108314D01*
X0094852Y0108238D01*
X0094813Y0108164D01*
X0094772Y0108091D01*
X0094727Y0108020D01*
X0094679Y0107952D01*
X0094627Y0107886D01*
X0094573Y0107822D01*
X0094515Y0107761D01*
X0094455Y0107703D01*
X0094392Y0107648D01*
X0094327Y0107596D01*
X0094259Y0107547D01*
X0094189Y0107501D01*
X0094117Y0107459D01*
X0094043Y0107420D01*
X0093967Y0107384D01*
X0093889Y0107352D01*
X0093811Y0107324D01*
X0093730Y0107300D01*
X0093649Y0107279D01*
X0093567Y0107263D01*
X0093485Y0107250D01*
X0093401Y0107241D01*
X0093318Y0107236D01*
X0093234Y0107235D01*
X0093150Y0107238D01*
X0093067Y0107245D01*
X0092984Y0107256D01*
X0092902Y0107271D01*
X0092820Y0107289D01*
X0092739Y0107312D01*
X0092660Y0107338D01*
X0092582Y0107368D01*
X0092505Y0107402D01*
X0092430Y0107439D01*
X0092357Y0107479D01*
X0092286Y0107524D01*
X0092217Y0107571D01*
X0092150Y0107622D01*
X0092086Y0107675D01*
X0092024Y0107732D01*
X0091966Y0107792D01*
X0091910Y0107854D01*
X0091857Y0107919D01*
X0091807Y0107986D01*
X0091760Y0108055D01*
X0091717Y0108127D01*
X0091677Y0108201D01*
X0091641Y0108276D01*
X0091608Y0108353D01*
X0091579Y0108432D01*
X0091554Y0108511D01*
X0091532Y0108592D01*
X0091515Y0108674D01*
X0091501Y0108757D01*
X0091491Y0108840D01*
X0091485Y0108923D01*
X0091483Y0109007D01*
X0106519Y0116619D02*
X0106521Y0116718D01*
X0106527Y0116818D01*
X0106537Y0116917D01*
X0106551Y0117015D01*
X0106568Y0117113D01*
X0106590Y0117210D01*
X0106615Y0117306D01*
X0106644Y0117401D01*
X0106677Y0117495D01*
X0106714Y0117587D01*
X0106754Y0117678D01*
X0106798Y0117767D01*
X0106846Y0117855D01*
X0106897Y0117940D01*
X0106951Y0118023D01*
X0107008Y0118105D01*
X0107069Y0118183D01*
X0107133Y0118260D01*
X0107199Y0118333D01*
X0107269Y0118404D01*
X0107341Y0118472D01*
X0107416Y0118538D01*
X0107494Y0118600D01*
X0107574Y0118659D01*
X0107656Y0118715D01*
X0107740Y0118767D01*
X0107827Y0118816D01*
X0107915Y0118862D01*
X0108005Y0118904D01*
X0108097Y0118943D01*
X0108190Y0118978D01*
X0108284Y0119009D01*
X0108380Y0119036D01*
X0108477Y0119059D01*
X0108574Y0119079D01*
X0108672Y0119095D01*
X0108771Y0119107D01*
X0108870Y0119115D01*
X0108969Y0119119D01*
X0109069Y0119119D01*
X0109168Y0119115D01*
X0109267Y0119107D01*
X0109366Y0119095D01*
X0109464Y0119079D01*
X0109561Y0119059D01*
X0109658Y0119036D01*
X0109754Y0119009D01*
X0109848Y0118978D01*
X0109941Y0118943D01*
X0110033Y0118904D01*
X0110123Y0118862D01*
X0110211Y0118816D01*
X0110298Y0118767D01*
X0110382Y0118715D01*
X0110464Y0118659D01*
X0110544Y0118600D01*
X0110622Y0118538D01*
X0110697Y0118472D01*
X0110769Y0118404D01*
X0110839Y0118333D01*
X0110905Y0118260D01*
X0110969Y0118183D01*
X0111030Y0118105D01*
X0111087Y0118023D01*
X0111141Y0117940D01*
X0111192Y0117855D01*
X0111240Y0117767D01*
X0111284Y0117678D01*
X0111324Y0117587D01*
X0111361Y0117495D01*
X0111394Y0117401D01*
X0111423Y0117306D01*
X0111448Y0117210D01*
X0111470Y0117113D01*
X0111487Y0117015D01*
X0111501Y0116917D01*
X0111511Y0116818D01*
X0111517Y0116718D01*
X0111519Y0116619D01*
X0111517Y0116520D01*
X0111511Y0116420D01*
X0111501Y0116321D01*
X0111487Y0116223D01*
X0111470Y0116125D01*
X0111448Y0116028D01*
X0111423Y0115932D01*
X0111394Y0115837D01*
X0111361Y0115743D01*
X0111324Y0115651D01*
X0111284Y0115560D01*
X0111240Y0115471D01*
X0111192Y0115383D01*
X0111141Y0115298D01*
X0111087Y0115215D01*
X0111030Y0115133D01*
X0110969Y0115055D01*
X0110905Y0114978D01*
X0110839Y0114905D01*
X0110769Y0114834D01*
X0110697Y0114766D01*
X0110622Y0114700D01*
X0110544Y0114638D01*
X0110464Y0114579D01*
X0110382Y0114523D01*
X0110298Y0114471D01*
X0110211Y0114422D01*
X0110123Y0114376D01*
X0110033Y0114334D01*
X0109941Y0114295D01*
X0109848Y0114260D01*
X0109754Y0114229D01*
X0109658Y0114202D01*
X0109561Y0114179D01*
X0109464Y0114159D01*
X0109366Y0114143D01*
X0109267Y0114131D01*
X0109168Y0114123D01*
X0109069Y0114119D01*
X0108969Y0114119D01*
X0108870Y0114123D01*
X0108771Y0114131D01*
X0108672Y0114143D01*
X0108574Y0114159D01*
X0108477Y0114179D01*
X0108380Y0114202D01*
X0108284Y0114229D01*
X0108190Y0114260D01*
X0108097Y0114295D01*
X0108005Y0114334D01*
X0107915Y0114376D01*
X0107827Y0114422D01*
X0107740Y0114471D01*
X0107656Y0114523D01*
X0107574Y0114579D01*
X0107494Y0114638D01*
X0107416Y0114700D01*
X0107341Y0114766D01*
X0107269Y0114834D01*
X0107199Y0114905D01*
X0107133Y0114978D01*
X0107069Y0115055D01*
X0107008Y0115133D01*
X0106951Y0115215D01*
X0106897Y0115298D01*
X0106846Y0115383D01*
X0106798Y0115471D01*
X0106754Y0115560D01*
X0106714Y0115651D01*
X0106677Y0115743D01*
X0106644Y0115837D01*
X0106615Y0115932D01*
X0106590Y0116028D01*
X0106568Y0116125D01*
X0106551Y0116223D01*
X0106537Y0116321D01*
X0106527Y0116420D01*
X0106521Y0116520D01*
X0106519Y0116619D01*
X0066919Y0128619D02*
X0066921Y0128718D01*
X0066927Y0128818D01*
X0066937Y0128917D01*
X0066951Y0129015D01*
X0066968Y0129113D01*
X0066990Y0129210D01*
X0067015Y0129306D01*
X0067044Y0129401D01*
X0067077Y0129495D01*
X0067114Y0129587D01*
X0067154Y0129678D01*
X0067198Y0129767D01*
X0067246Y0129855D01*
X0067297Y0129940D01*
X0067351Y0130023D01*
X0067408Y0130105D01*
X0067469Y0130183D01*
X0067533Y0130260D01*
X0067599Y0130333D01*
X0067669Y0130404D01*
X0067741Y0130472D01*
X0067816Y0130538D01*
X0067894Y0130600D01*
X0067974Y0130659D01*
X0068056Y0130715D01*
X0068140Y0130767D01*
X0068227Y0130816D01*
X0068315Y0130862D01*
X0068405Y0130904D01*
X0068497Y0130943D01*
X0068590Y0130978D01*
X0068684Y0131009D01*
X0068780Y0131036D01*
X0068877Y0131059D01*
X0068974Y0131079D01*
X0069072Y0131095D01*
X0069171Y0131107D01*
X0069270Y0131115D01*
X0069369Y0131119D01*
X0069469Y0131119D01*
X0069568Y0131115D01*
X0069667Y0131107D01*
X0069766Y0131095D01*
X0069864Y0131079D01*
X0069961Y0131059D01*
X0070058Y0131036D01*
X0070154Y0131009D01*
X0070248Y0130978D01*
X0070341Y0130943D01*
X0070433Y0130904D01*
X0070523Y0130862D01*
X0070611Y0130816D01*
X0070698Y0130767D01*
X0070782Y0130715D01*
X0070864Y0130659D01*
X0070944Y0130600D01*
X0071022Y0130538D01*
X0071097Y0130472D01*
X0071169Y0130404D01*
X0071239Y0130333D01*
X0071305Y0130260D01*
X0071369Y0130183D01*
X0071430Y0130105D01*
X0071487Y0130023D01*
X0071541Y0129940D01*
X0071592Y0129855D01*
X0071640Y0129767D01*
X0071684Y0129678D01*
X0071724Y0129587D01*
X0071761Y0129495D01*
X0071794Y0129401D01*
X0071823Y0129306D01*
X0071848Y0129210D01*
X0071870Y0129113D01*
X0071887Y0129015D01*
X0071901Y0128917D01*
X0071911Y0128818D01*
X0071917Y0128718D01*
X0071919Y0128619D01*
X0071917Y0128520D01*
X0071911Y0128420D01*
X0071901Y0128321D01*
X0071887Y0128223D01*
X0071870Y0128125D01*
X0071848Y0128028D01*
X0071823Y0127932D01*
X0071794Y0127837D01*
X0071761Y0127743D01*
X0071724Y0127651D01*
X0071684Y0127560D01*
X0071640Y0127471D01*
X0071592Y0127383D01*
X0071541Y0127298D01*
X0071487Y0127215D01*
X0071430Y0127133D01*
X0071369Y0127055D01*
X0071305Y0126978D01*
X0071239Y0126905D01*
X0071169Y0126834D01*
X0071097Y0126766D01*
X0071022Y0126700D01*
X0070944Y0126638D01*
X0070864Y0126579D01*
X0070782Y0126523D01*
X0070698Y0126471D01*
X0070611Y0126422D01*
X0070523Y0126376D01*
X0070433Y0126334D01*
X0070341Y0126295D01*
X0070248Y0126260D01*
X0070154Y0126229D01*
X0070058Y0126202D01*
X0069961Y0126179D01*
X0069864Y0126159D01*
X0069766Y0126143D01*
X0069667Y0126131D01*
X0069568Y0126123D01*
X0069469Y0126119D01*
X0069369Y0126119D01*
X0069270Y0126123D01*
X0069171Y0126131D01*
X0069072Y0126143D01*
X0068974Y0126159D01*
X0068877Y0126179D01*
X0068780Y0126202D01*
X0068684Y0126229D01*
X0068590Y0126260D01*
X0068497Y0126295D01*
X0068405Y0126334D01*
X0068315Y0126376D01*
X0068227Y0126422D01*
X0068140Y0126471D01*
X0068056Y0126523D01*
X0067974Y0126579D01*
X0067894Y0126638D01*
X0067816Y0126700D01*
X0067741Y0126766D01*
X0067669Y0126834D01*
X0067599Y0126905D01*
X0067533Y0126978D01*
X0067469Y0127055D01*
X0067408Y0127133D01*
X0067351Y0127215D01*
X0067297Y0127298D01*
X0067246Y0127383D01*
X0067198Y0127471D01*
X0067154Y0127560D01*
X0067114Y0127651D01*
X0067077Y0127743D01*
X0067044Y0127837D01*
X0067015Y0127932D01*
X0066990Y0128028D01*
X0066968Y0128125D01*
X0066951Y0128223D01*
X0066937Y0128321D01*
X0066927Y0128420D01*
X0066921Y0128520D01*
X0066919Y0128619D01*
X0030519Y0109019D02*
X0030521Y0109118D01*
X0030527Y0109218D01*
X0030537Y0109317D01*
X0030551Y0109415D01*
X0030568Y0109513D01*
X0030590Y0109610D01*
X0030615Y0109706D01*
X0030644Y0109801D01*
X0030677Y0109895D01*
X0030714Y0109987D01*
X0030754Y0110078D01*
X0030798Y0110167D01*
X0030846Y0110255D01*
X0030897Y0110340D01*
X0030951Y0110423D01*
X0031008Y0110505D01*
X0031069Y0110583D01*
X0031133Y0110660D01*
X0031199Y0110733D01*
X0031269Y0110804D01*
X0031341Y0110872D01*
X0031416Y0110938D01*
X0031494Y0111000D01*
X0031574Y0111059D01*
X0031656Y0111115D01*
X0031740Y0111167D01*
X0031827Y0111216D01*
X0031915Y0111262D01*
X0032005Y0111304D01*
X0032097Y0111343D01*
X0032190Y0111378D01*
X0032284Y0111409D01*
X0032380Y0111436D01*
X0032477Y0111459D01*
X0032574Y0111479D01*
X0032672Y0111495D01*
X0032771Y0111507D01*
X0032870Y0111515D01*
X0032969Y0111519D01*
X0033069Y0111519D01*
X0033168Y0111515D01*
X0033267Y0111507D01*
X0033366Y0111495D01*
X0033464Y0111479D01*
X0033561Y0111459D01*
X0033658Y0111436D01*
X0033754Y0111409D01*
X0033848Y0111378D01*
X0033941Y0111343D01*
X0034033Y0111304D01*
X0034123Y0111262D01*
X0034211Y0111216D01*
X0034298Y0111167D01*
X0034382Y0111115D01*
X0034464Y0111059D01*
X0034544Y0111000D01*
X0034622Y0110938D01*
X0034697Y0110872D01*
X0034769Y0110804D01*
X0034839Y0110733D01*
X0034905Y0110660D01*
X0034969Y0110583D01*
X0035030Y0110505D01*
X0035087Y0110423D01*
X0035141Y0110340D01*
X0035192Y0110255D01*
X0035240Y0110167D01*
X0035284Y0110078D01*
X0035324Y0109987D01*
X0035361Y0109895D01*
X0035394Y0109801D01*
X0035423Y0109706D01*
X0035448Y0109610D01*
X0035470Y0109513D01*
X0035487Y0109415D01*
X0035501Y0109317D01*
X0035511Y0109218D01*
X0035517Y0109118D01*
X0035519Y0109019D01*
X0035517Y0108920D01*
X0035511Y0108820D01*
X0035501Y0108721D01*
X0035487Y0108623D01*
X0035470Y0108525D01*
X0035448Y0108428D01*
X0035423Y0108332D01*
X0035394Y0108237D01*
X0035361Y0108143D01*
X0035324Y0108051D01*
X0035284Y0107960D01*
X0035240Y0107871D01*
X0035192Y0107783D01*
X0035141Y0107698D01*
X0035087Y0107615D01*
X0035030Y0107533D01*
X0034969Y0107455D01*
X0034905Y0107378D01*
X0034839Y0107305D01*
X0034769Y0107234D01*
X0034697Y0107166D01*
X0034622Y0107100D01*
X0034544Y0107038D01*
X0034464Y0106979D01*
X0034382Y0106923D01*
X0034298Y0106871D01*
X0034211Y0106822D01*
X0034123Y0106776D01*
X0034033Y0106734D01*
X0033941Y0106695D01*
X0033848Y0106660D01*
X0033754Y0106629D01*
X0033658Y0106602D01*
X0033561Y0106579D01*
X0033464Y0106559D01*
X0033366Y0106543D01*
X0033267Y0106531D01*
X0033168Y0106523D01*
X0033069Y0106519D01*
X0032969Y0106519D01*
X0032870Y0106523D01*
X0032771Y0106531D01*
X0032672Y0106543D01*
X0032574Y0106559D01*
X0032477Y0106579D01*
X0032380Y0106602D01*
X0032284Y0106629D01*
X0032190Y0106660D01*
X0032097Y0106695D01*
X0032005Y0106734D01*
X0031915Y0106776D01*
X0031827Y0106822D01*
X0031740Y0106871D01*
X0031656Y0106923D01*
X0031574Y0106979D01*
X0031494Y0107038D01*
X0031416Y0107100D01*
X0031341Y0107166D01*
X0031269Y0107234D01*
X0031199Y0107305D01*
X0031133Y0107378D01*
X0031069Y0107455D01*
X0031008Y0107533D01*
X0030951Y0107615D01*
X0030897Y0107698D01*
X0030846Y0107783D01*
X0030798Y0107871D01*
X0030754Y0107960D01*
X0030714Y0108051D01*
X0030677Y0108143D01*
X0030644Y0108237D01*
X0030615Y0108332D01*
X0030590Y0108428D01*
X0030568Y0108525D01*
X0030551Y0108623D01*
X0030537Y0108721D01*
X0030527Y0108820D01*
X0030521Y0108920D01*
X0030519Y0109019D01*
X0087047Y0039319D02*
X0087049Y0039403D01*
X0087055Y0039486D01*
X0087065Y0039569D01*
X0087079Y0039652D01*
X0087096Y0039734D01*
X0087118Y0039815D01*
X0087143Y0039894D01*
X0087172Y0039973D01*
X0087205Y0040050D01*
X0087241Y0040125D01*
X0087281Y0040199D01*
X0087324Y0040271D01*
X0087371Y0040340D01*
X0087421Y0040407D01*
X0087474Y0040472D01*
X0087530Y0040534D01*
X0087588Y0040594D01*
X0087650Y0040651D01*
X0087714Y0040704D01*
X0087781Y0040755D01*
X0087850Y0040802D01*
X0087921Y0040847D01*
X0087994Y0040887D01*
X0088069Y0040924D01*
X0088146Y0040958D01*
X0088224Y0040988D01*
X0088303Y0041014D01*
X0088384Y0041037D01*
X0088466Y0041055D01*
X0088548Y0041070D01*
X0088631Y0041081D01*
X0088714Y0041088D01*
X0088798Y0041091D01*
X0088882Y0041090D01*
X0088965Y0041085D01*
X0089049Y0041076D01*
X0089131Y0041063D01*
X0089213Y0041047D01*
X0089294Y0041026D01*
X0089375Y0041002D01*
X0089453Y0040974D01*
X0089531Y0040942D01*
X0089607Y0040906D01*
X0089681Y0040867D01*
X0089753Y0040825D01*
X0089823Y0040779D01*
X0089891Y0040730D01*
X0089956Y0040678D01*
X0090019Y0040623D01*
X0090079Y0040565D01*
X0090137Y0040504D01*
X0090191Y0040440D01*
X0090243Y0040374D01*
X0090291Y0040306D01*
X0090336Y0040235D01*
X0090377Y0040162D01*
X0090416Y0040088D01*
X0090450Y0040012D01*
X0090481Y0039934D01*
X0090508Y0039855D01*
X0090532Y0039774D01*
X0090551Y0039693D01*
X0090567Y0039611D01*
X0090579Y0039528D01*
X0090587Y0039444D01*
X0090591Y0039361D01*
X0090591Y0039277D01*
X0090587Y0039194D01*
X0090579Y0039110D01*
X0090567Y0039027D01*
X0090551Y0038945D01*
X0090532Y0038864D01*
X0090508Y0038783D01*
X0090481Y0038704D01*
X0090450Y0038626D01*
X0090416Y0038550D01*
X0090377Y0038476D01*
X0090336Y0038403D01*
X0090291Y0038332D01*
X0090243Y0038264D01*
X0090191Y0038198D01*
X0090137Y0038134D01*
X0090079Y0038073D01*
X0090019Y0038015D01*
X0089956Y0037960D01*
X0089891Y0037908D01*
X0089823Y0037859D01*
X0089753Y0037813D01*
X0089681Y0037771D01*
X0089607Y0037732D01*
X0089531Y0037696D01*
X0089453Y0037664D01*
X0089375Y0037636D01*
X0089294Y0037612D01*
X0089213Y0037591D01*
X0089131Y0037575D01*
X0089049Y0037562D01*
X0088965Y0037553D01*
X0088882Y0037548D01*
X0088798Y0037547D01*
X0088714Y0037550D01*
X0088631Y0037557D01*
X0088548Y0037568D01*
X0088466Y0037583D01*
X0088384Y0037601D01*
X0088303Y0037624D01*
X0088224Y0037650D01*
X0088146Y0037680D01*
X0088069Y0037714D01*
X0087994Y0037751D01*
X0087921Y0037791D01*
X0087850Y0037836D01*
X0087781Y0037883D01*
X0087714Y0037934D01*
X0087650Y0037987D01*
X0087588Y0038044D01*
X0087530Y0038104D01*
X0087474Y0038166D01*
X0087421Y0038231D01*
X0087371Y0038298D01*
X0087324Y0038367D01*
X0087281Y0038439D01*
X0087241Y0038513D01*
X0087205Y0038588D01*
X0087172Y0038665D01*
X0087143Y0038744D01*
X0087118Y0038823D01*
X0087096Y0038904D01*
X0087079Y0038986D01*
X0087065Y0039069D01*
X0087055Y0039152D01*
X0087049Y0039235D01*
X0087047Y0039319D01*
X0077719Y0021019D02*
X0077721Y0021118D01*
X0077727Y0021218D01*
X0077737Y0021317D01*
X0077751Y0021415D01*
X0077768Y0021513D01*
X0077790Y0021610D01*
X0077815Y0021706D01*
X0077844Y0021801D01*
X0077877Y0021895D01*
X0077914Y0021987D01*
X0077954Y0022078D01*
X0077998Y0022167D01*
X0078046Y0022255D01*
X0078097Y0022340D01*
X0078151Y0022423D01*
X0078208Y0022505D01*
X0078269Y0022583D01*
X0078333Y0022660D01*
X0078399Y0022733D01*
X0078469Y0022804D01*
X0078541Y0022872D01*
X0078616Y0022938D01*
X0078694Y0023000D01*
X0078774Y0023059D01*
X0078856Y0023115D01*
X0078940Y0023167D01*
X0079027Y0023216D01*
X0079115Y0023262D01*
X0079205Y0023304D01*
X0079297Y0023343D01*
X0079390Y0023378D01*
X0079484Y0023409D01*
X0079580Y0023436D01*
X0079677Y0023459D01*
X0079774Y0023479D01*
X0079872Y0023495D01*
X0079971Y0023507D01*
X0080070Y0023515D01*
X0080169Y0023519D01*
X0080269Y0023519D01*
X0080368Y0023515D01*
X0080467Y0023507D01*
X0080566Y0023495D01*
X0080664Y0023479D01*
X0080761Y0023459D01*
X0080858Y0023436D01*
X0080954Y0023409D01*
X0081048Y0023378D01*
X0081141Y0023343D01*
X0081233Y0023304D01*
X0081323Y0023262D01*
X0081411Y0023216D01*
X0081498Y0023167D01*
X0081582Y0023115D01*
X0081664Y0023059D01*
X0081744Y0023000D01*
X0081822Y0022938D01*
X0081897Y0022872D01*
X0081969Y0022804D01*
X0082039Y0022733D01*
X0082105Y0022660D01*
X0082169Y0022583D01*
X0082230Y0022505D01*
X0082287Y0022423D01*
X0082341Y0022340D01*
X0082392Y0022255D01*
X0082440Y0022167D01*
X0082484Y0022078D01*
X0082524Y0021987D01*
X0082561Y0021895D01*
X0082594Y0021801D01*
X0082623Y0021706D01*
X0082648Y0021610D01*
X0082670Y0021513D01*
X0082687Y0021415D01*
X0082701Y0021317D01*
X0082711Y0021218D01*
X0082717Y0021118D01*
X0082719Y0021019D01*
X0082717Y0020920D01*
X0082711Y0020820D01*
X0082701Y0020721D01*
X0082687Y0020623D01*
X0082670Y0020525D01*
X0082648Y0020428D01*
X0082623Y0020332D01*
X0082594Y0020237D01*
X0082561Y0020143D01*
X0082524Y0020051D01*
X0082484Y0019960D01*
X0082440Y0019871D01*
X0082392Y0019783D01*
X0082341Y0019698D01*
X0082287Y0019615D01*
X0082230Y0019533D01*
X0082169Y0019455D01*
X0082105Y0019378D01*
X0082039Y0019305D01*
X0081969Y0019234D01*
X0081897Y0019166D01*
X0081822Y0019100D01*
X0081744Y0019038D01*
X0081664Y0018979D01*
X0081582Y0018923D01*
X0081498Y0018871D01*
X0081411Y0018822D01*
X0081323Y0018776D01*
X0081233Y0018734D01*
X0081141Y0018695D01*
X0081048Y0018660D01*
X0080954Y0018629D01*
X0080858Y0018602D01*
X0080761Y0018579D01*
X0080664Y0018559D01*
X0080566Y0018543D01*
X0080467Y0018531D01*
X0080368Y0018523D01*
X0080269Y0018519D01*
X0080169Y0018519D01*
X0080070Y0018523D01*
X0079971Y0018531D01*
X0079872Y0018543D01*
X0079774Y0018559D01*
X0079677Y0018579D01*
X0079580Y0018602D01*
X0079484Y0018629D01*
X0079390Y0018660D01*
X0079297Y0018695D01*
X0079205Y0018734D01*
X0079115Y0018776D01*
X0079027Y0018822D01*
X0078940Y0018871D01*
X0078856Y0018923D01*
X0078774Y0018979D01*
X0078694Y0019038D01*
X0078616Y0019100D01*
X0078541Y0019166D01*
X0078469Y0019234D01*
X0078399Y0019305D01*
X0078333Y0019378D01*
X0078269Y0019455D01*
X0078208Y0019533D01*
X0078151Y0019615D01*
X0078097Y0019698D01*
X0078046Y0019783D01*
X0077998Y0019871D01*
X0077954Y0019960D01*
X0077914Y0020051D01*
X0077877Y0020143D01*
X0077844Y0020237D01*
X0077815Y0020332D01*
X0077790Y0020428D01*
X0077768Y0020525D01*
X0077751Y0020623D01*
X0077737Y0020721D01*
X0077727Y0020820D01*
X0077721Y0020920D01*
X0077719Y0021019D01*
X0114119Y0040619D02*
X0114121Y0040718D01*
X0114127Y0040818D01*
X0114137Y0040917D01*
X0114151Y0041015D01*
X0114168Y0041113D01*
X0114190Y0041210D01*
X0114215Y0041306D01*
X0114244Y0041401D01*
X0114277Y0041495D01*
X0114314Y0041587D01*
X0114354Y0041678D01*
X0114398Y0041767D01*
X0114446Y0041855D01*
X0114497Y0041940D01*
X0114551Y0042023D01*
X0114608Y0042105D01*
X0114669Y0042183D01*
X0114733Y0042260D01*
X0114799Y0042333D01*
X0114869Y0042404D01*
X0114941Y0042472D01*
X0115016Y0042538D01*
X0115094Y0042600D01*
X0115174Y0042659D01*
X0115256Y0042715D01*
X0115340Y0042767D01*
X0115427Y0042816D01*
X0115515Y0042862D01*
X0115605Y0042904D01*
X0115697Y0042943D01*
X0115790Y0042978D01*
X0115884Y0043009D01*
X0115980Y0043036D01*
X0116077Y0043059D01*
X0116174Y0043079D01*
X0116272Y0043095D01*
X0116371Y0043107D01*
X0116470Y0043115D01*
X0116569Y0043119D01*
X0116669Y0043119D01*
X0116768Y0043115D01*
X0116867Y0043107D01*
X0116966Y0043095D01*
X0117064Y0043079D01*
X0117161Y0043059D01*
X0117258Y0043036D01*
X0117354Y0043009D01*
X0117448Y0042978D01*
X0117541Y0042943D01*
X0117633Y0042904D01*
X0117723Y0042862D01*
X0117811Y0042816D01*
X0117898Y0042767D01*
X0117982Y0042715D01*
X0118064Y0042659D01*
X0118144Y0042600D01*
X0118222Y0042538D01*
X0118297Y0042472D01*
X0118369Y0042404D01*
X0118439Y0042333D01*
X0118505Y0042260D01*
X0118569Y0042183D01*
X0118630Y0042105D01*
X0118687Y0042023D01*
X0118741Y0041940D01*
X0118792Y0041855D01*
X0118840Y0041767D01*
X0118884Y0041678D01*
X0118924Y0041587D01*
X0118961Y0041495D01*
X0118994Y0041401D01*
X0119023Y0041306D01*
X0119048Y0041210D01*
X0119070Y0041113D01*
X0119087Y0041015D01*
X0119101Y0040917D01*
X0119111Y0040818D01*
X0119117Y0040718D01*
X0119119Y0040619D01*
X0119117Y0040520D01*
X0119111Y0040420D01*
X0119101Y0040321D01*
X0119087Y0040223D01*
X0119070Y0040125D01*
X0119048Y0040028D01*
X0119023Y0039932D01*
X0118994Y0039837D01*
X0118961Y0039743D01*
X0118924Y0039651D01*
X0118884Y0039560D01*
X0118840Y0039471D01*
X0118792Y0039383D01*
X0118741Y0039298D01*
X0118687Y0039215D01*
X0118630Y0039133D01*
X0118569Y0039055D01*
X0118505Y0038978D01*
X0118439Y0038905D01*
X0118369Y0038834D01*
X0118297Y0038766D01*
X0118222Y0038700D01*
X0118144Y0038638D01*
X0118064Y0038579D01*
X0117982Y0038523D01*
X0117898Y0038471D01*
X0117811Y0038422D01*
X0117723Y0038376D01*
X0117633Y0038334D01*
X0117541Y0038295D01*
X0117448Y0038260D01*
X0117354Y0038229D01*
X0117258Y0038202D01*
X0117161Y0038179D01*
X0117064Y0038159D01*
X0116966Y0038143D01*
X0116867Y0038131D01*
X0116768Y0038123D01*
X0116669Y0038119D01*
X0116569Y0038119D01*
X0116470Y0038123D01*
X0116371Y0038131D01*
X0116272Y0038143D01*
X0116174Y0038159D01*
X0116077Y0038179D01*
X0115980Y0038202D01*
X0115884Y0038229D01*
X0115790Y0038260D01*
X0115697Y0038295D01*
X0115605Y0038334D01*
X0115515Y0038376D01*
X0115427Y0038422D01*
X0115340Y0038471D01*
X0115256Y0038523D01*
X0115174Y0038579D01*
X0115094Y0038638D01*
X0115016Y0038700D01*
X0114941Y0038766D01*
X0114869Y0038834D01*
X0114799Y0038905D01*
X0114733Y0038978D01*
X0114669Y0039055D01*
X0114608Y0039133D01*
X0114551Y0039215D01*
X0114497Y0039298D01*
X0114446Y0039383D01*
X0114398Y0039471D01*
X0114354Y0039560D01*
X0114314Y0039651D01*
X0114277Y0039743D01*
X0114244Y0039837D01*
X0114215Y0039932D01*
X0114190Y0040028D01*
X0114168Y0040125D01*
X0114151Y0040223D01*
X0114137Y0040321D01*
X0114127Y0040420D01*
X0114121Y0040520D01*
X0114119Y0040619D01*
D11*
X0116619Y0040619D03*
X0080219Y0021019D03*
X0040619Y0033019D03*
X0033019Y0109019D03*
X0069419Y0128619D03*
X0109019Y0116619D03*
D12*
X0069848Y0110046D02*
X0068176Y0108374D01*
X0067618Y0108932D01*
X0069290Y0110604D01*
X0069848Y0110046D01*
X0068966Y0109164D02*
X0067850Y0109164D01*
X0068640Y0109954D02*
X0069756Y0109954D01*
X0068456Y0111438D02*
X0066784Y0109766D01*
X0066226Y0110324D01*
X0067898Y0111996D01*
X0068456Y0111438D01*
X0067574Y0110556D02*
X0066458Y0110556D01*
X0067248Y0111346D02*
X0068364Y0111346D01*
X0067064Y0112830D02*
X0065392Y0111158D01*
X0064834Y0111716D01*
X0066506Y0113388D01*
X0067064Y0112830D01*
X0066182Y0111948D02*
X0065066Y0111948D01*
X0065856Y0112738D02*
X0066972Y0112738D01*
X0065672Y0114222D02*
X0064000Y0112550D01*
X0063442Y0113108D01*
X0065114Y0114780D01*
X0065672Y0114222D01*
X0064790Y0113340D02*
X0063674Y0113340D01*
X0064464Y0114130D02*
X0065580Y0114130D01*
X0064280Y0115614D02*
X0062608Y0113942D01*
X0062050Y0114500D01*
X0063722Y0116172D01*
X0064280Y0115614D01*
X0063398Y0114732D02*
X0062282Y0114732D01*
X0063072Y0115522D02*
X0064188Y0115522D01*
X0062888Y0117006D02*
X0061216Y0115334D01*
X0060658Y0115892D01*
X0062330Y0117564D01*
X0062888Y0117006D01*
X0062006Y0116124D02*
X0060890Y0116124D01*
X0061680Y0116914D02*
X0062796Y0116914D01*
X0061496Y0118398D02*
X0059824Y0116726D01*
X0059266Y0117284D01*
X0060938Y0118956D01*
X0061496Y0118398D01*
X0060614Y0117516D02*
X0059498Y0117516D01*
X0060288Y0118306D02*
X0061404Y0118306D01*
X0060104Y0119790D02*
X0058432Y0118118D01*
X0057874Y0118676D01*
X0059546Y0120348D01*
X0060104Y0119790D01*
X0059222Y0118908D02*
X0058106Y0118908D01*
X0058896Y0119698D02*
X0060012Y0119698D01*
X0056764Y0118676D02*
X0056206Y0118118D01*
X0054534Y0119790D01*
X0055092Y0120348D01*
X0056764Y0118676D01*
X0056532Y0118908D02*
X0055416Y0118908D01*
X0055742Y0119698D02*
X0054626Y0119698D01*
X0055372Y0117284D02*
X0054814Y0116726D01*
X0053142Y0118398D01*
X0053700Y0118956D01*
X0055372Y0117284D01*
X0055140Y0117516D02*
X0054024Y0117516D01*
X0054350Y0118306D02*
X0053234Y0118306D01*
X0053980Y0115892D02*
X0053422Y0115334D01*
X0051750Y0117006D01*
X0052308Y0117564D01*
X0053980Y0115892D01*
X0053748Y0116124D02*
X0052632Y0116124D01*
X0052958Y0116914D02*
X0051842Y0116914D01*
X0052588Y0114500D02*
X0052030Y0113942D01*
X0050358Y0115614D01*
X0050916Y0116172D01*
X0052588Y0114500D01*
X0052356Y0114732D02*
X0051240Y0114732D01*
X0051566Y0115522D02*
X0050450Y0115522D01*
X0051196Y0113108D02*
X0050638Y0112550D01*
X0048966Y0114222D01*
X0049524Y0114780D01*
X0051196Y0113108D01*
X0050964Y0113340D02*
X0049848Y0113340D01*
X0050174Y0114130D02*
X0049058Y0114130D01*
X0049804Y0111716D02*
X0049246Y0111158D01*
X0047574Y0112830D01*
X0048132Y0113388D01*
X0049804Y0111716D01*
X0049572Y0111948D02*
X0048456Y0111948D01*
X0048782Y0112738D02*
X0047666Y0112738D01*
X0048412Y0110324D02*
X0047854Y0109766D01*
X0046182Y0111438D01*
X0046740Y0111996D01*
X0048412Y0110324D01*
X0048180Y0110556D02*
X0047064Y0110556D01*
X0047390Y0111346D02*
X0046274Y0111346D01*
X0047020Y0108932D02*
X0046462Y0108374D01*
X0044790Y0110046D01*
X0045348Y0110604D01*
X0047020Y0108932D01*
X0046788Y0109164D02*
X0045672Y0109164D01*
X0045998Y0109954D02*
X0044882Y0109954D01*
X0047020Y0106706D02*
X0045348Y0105034D01*
X0044790Y0105592D01*
X0046462Y0107264D01*
X0047020Y0106706D01*
X0046138Y0105824D02*
X0045022Y0105824D01*
X0045812Y0106614D02*
X0046928Y0106614D01*
X0048412Y0105314D02*
X0046740Y0103642D01*
X0046182Y0104200D01*
X0047854Y0105872D01*
X0048412Y0105314D01*
X0047530Y0104432D02*
X0046414Y0104432D01*
X0047204Y0105222D02*
X0048320Y0105222D01*
X0049804Y0103922D02*
X0048132Y0102250D01*
X0047574Y0102808D01*
X0049246Y0104480D01*
X0049804Y0103922D01*
X0048922Y0103040D02*
X0047806Y0103040D01*
X0048596Y0103830D02*
X0049712Y0103830D01*
X0051196Y0102530D02*
X0049524Y0100858D01*
X0048966Y0101416D01*
X0050638Y0103088D01*
X0051196Y0102530D01*
X0050314Y0101648D02*
X0049198Y0101648D01*
X0049988Y0102438D02*
X0051104Y0102438D01*
X0052588Y0101138D02*
X0050916Y0099466D01*
X0050358Y0100024D01*
X0052030Y0101696D01*
X0052588Y0101138D01*
X0051706Y0100256D02*
X0050590Y0100256D01*
X0051380Y0101046D02*
X0052496Y0101046D01*
X0053980Y0099746D02*
X0052308Y0098074D01*
X0051750Y0098632D01*
X0053422Y0100304D01*
X0053980Y0099746D01*
X0053098Y0098864D02*
X0051982Y0098864D01*
X0052772Y0099654D02*
X0053888Y0099654D01*
X0055372Y0098354D02*
X0053700Y0096682D01*
X0053142Y0097240D01*
X0054814Y0098912D01*
X0055372Y0098354D01*
X0054490Y0097472D02*
X0053374Y0097472D01*
X0054164Y0098262D02*
X0055280Y0098262D01*
X0056764Y0096962D02*
X0055092Y0095290D01*
X0054534Y0095848D01*
X0056206Y0097520D01*
X0056764Y0096962D01*
X0055882Y0096080D02*
X0054766Y0096080D01*
X0055556Y0096870D02*
X0056672Y0096870D01*
X0059546Y0095290D02*
X0060104Y0095848D01*
X0059546Y0095290D02*
X0057874Y0096962D01*
X0058432Y0097520D01*
X0060104Y0095848D01*
X0059872Y0096080D02*
X0058756Y0096080D01*
X0059082Y0096870D02*
X0057966Y0096870D01*
X0060938Y0096682D02*
X0061496Y0097240D01*
X0060938Y0096682D02*
X0059266Y0098354D01*
X0059824Y0098912D01*
X0061496Y0097240D01*
X0061264Y0097472D02*
X0060148Y0097472D01*
X0060474Y0098262D02*
X0059358Y0098262D01*
X0062330Y0098074D02*
X0062888Y0098632D01*
X0062330Y0098074D02*
X0060658Y0099746D01*
X0061216Y0100304D01*
X0062888Y0098632D01*
X0062656Y0098864D02*
X0061540Y0098864D01*
X0061866Y0099654D02*
X0060750Y0099654D01*
X0063722Y0099466D02*
X0064280Y0100024D01*
X0063722Y0099466D02*
X0062050Y0101138D01*
X0062608Y0101696D01*
X0064280Y0100024D01*
X0064048Y0100256D02*
X0062932Y0100256D01*
X0063258Y0101046D02*
X0062142Y0101046D01*
X0065114Y0100858D02*
X0065672Y0101416D01*
X0065114Y0100858D02*
X0063442Y0102530D01*
X0064000Y0103088D01*
X0065672Y0101416D01*
X0065440Y0101648D02*
X0064324Y0101648D01*
X0064650Y0102438D02*
X0063534Y0102438D01*
X0066506Y0102250D02*
X0067064Y0102808D01*
X0066506Y0102250D02*
X0064834Y0103922D01*
X0065392Y0104480D01*
X0067064Y0102808D01*
X0066832Y0103040D02*
X0065716Y0103040D01*
X0066042Y0103830D02*
X0064926Y0103830D01*
X0067898Y0103642D02*
X0068456Y0104200D01*
X0067898Y0103642D02*
X0066226Y0105314D01*
X0066784Y0105872D01*
X0068456Y0104200D01*
X0068224Y0104432D02*
X0067108Y0104432D01*
X0067434Y0105222D02*
X0066318Y0105222D01*
X0069290Y0105034D02*
X0069848Y0105592D01*
X0069290Y0105034D02*
X0067618Y0106706D01*
X0068176Y0107264D01*
X0069848Y0105592D01*
X0069616Y0105824D02*
X0068500Y0105824D01*
X0068826Y0106614D02*
X0067710Y0106614D01*
D13*
G36*
X0066509Y0107819D02*
X0057319Y0098629D01*
X0048129Y0107819D01*
X0057319Y0117009D01*
X0066509Y0107819D01*
G37*
D14*
G36*
X0081010Y0122048D02*
X0077903Y0122596D01*
X0078588Y0126478D01*
X0081695Y0125930D01*
X0081010Y0122048D01*
G37*
G36*
X0086050Y0121160D02*
X0082943Y0121708D01*
X0083628Y0125590D01*
X0086735Y0125042D01*
X0086050Y0121160D01*
G37*
G36*
X0092403Y0123853D02*
X0095263Y0122519D01*
X0093597Y0118947D01*
X0090737Y0120281D01*
X0092403Y0123853D01*
G37*
G36*
X0097041Y0121690D02*
X0099901Y0120356D01*
X0098235Y0116784D01*
X0095375Y0118118D01*
X0097041Y0121690D01*
G37*
G36*
X0113142Y0103492D02*
X0111332Y0106077D01*
X0114560Y0108338D01*
X0116370Y0105753D01*
X0113142Y0103492D01*
G37*
X0110878Y0099819D03*
X0105760Y0099819D03*
G36*
X0116078Y0099300D02*
X0114268Y0101885D01*
X0117496Y0104146D01*
X0119306Y0101561D01*
X0116078Y0099300D01*
G37*
X0113760Y0059569D03*
X0118878Y0059569D03*
G36*
X0094170Y0033904D02*
X0096755Y0035714D01*
X0099016Y0032486D01*
X0096431Y0030676D01*
X0094170Y0033904D01*
G37*
G36*
X0089978Y0030968D02*
X0092563Y0032778D01*
X0094824Y0029550D01*
X0092239Y0027740D01*
X0089978Y0030968D01*
G37*
G36*
X0073766Y0029552D02*
X0075998Y0031784D01*
X0078784Y0028998D01*
X0076552Y0026766D01*
X0073766Y0029552D01*
G37*
G36*
X0068973Y0030759D02*
X0071205Y0032991D01*
X0073991Y0030205D01*
X0071759Y0027973D01*
X0068973Y0030759D01*
G37*
G36*
X0065354Y0027140D02*
X0067586Y0029372D01*
X0070372Y0026586D01*
X0068140Y0024354D01*
X0065354Y0027140D01*
G37*
G36*
X0059532Y0024553D02*
X0056568Y0025632D01*
X0057916Y0029335D01*
X0060880Y0028256D01*
X0059532Y0024553D01*
G37*
G36*
X0054722Y0026303D02*
X0051758Y0027382D01*
X0053106Y0031085D01*
X0056070Y0030006D01*
X0054722Y0026303D01*
G37*
G36*
X0048467Y0030777D02*
X0048191Y0033920D01*
X0052117Y0034263D01*
X0052393Y0031120D01*
X0048467Y0030777D01*
G37*
G36*
X0048021Y0035875D02*
X0047745Y0039018D01*
X0051671Y0039361D01*
X0051947Y0036218D01*
X0048021Y0035875D01*
G37*
X0058170Y0049032D03*
X0063288Y0049032D03*
G36*
X0070147Y0025933D02*
X0072379Y0028165D01*
X0075165Y0025379D01*
X0072933Y0023147D01*
X0070147Y0025933D01*
G37*
D15*
X0111473Y0049819D03*
X0118165Y0049819D03*
X0115665Y0094819D03*
X0108973Y0094819D03*
D16*
X0093255Y0109007D03*
X0042631Y0045486D03*
X0088819Y0039319D03*
D17*
X0087368Y0064133D03*
X0089090Y0084748D03*
X0051802Y0068588D03*
D18*
X0069124Y0055278D03*
X0031525Y0068274D03*
X0072025Y0095892D03*
D19*
G36*
X0045280Y0047798D02*
X0043682Y0047742D01*
X0043648Y0048740D01*
X0045246Y0048796D01*
X0045280Y0047798D01*
G37*
G36*
X0041502Y0047666D02*
X0039904Y0047610D01*
X0039870Y0048608D01*
X0041468Y0048664D01*
X0041502Y0047666D01*
G37*
G36*
X0041254Y0042378D02*
X0039656Y0042322D01*
X0039622Y0043320D01*
X0041220Y0043376D01*
X0041254Y0042378D01*
G37*
G36*
X0045936Y0042542D02*
X0044338Y0042486D01*
X0044304Y0043484D01*
X0045902Y0043540D01*
X0045936Y0042542D01*
G37*
G36*
X0086876Y0040817D02*
X0085452Y0040091D01*
X0084998Y0040981D01*
X0086422Y0041707D01*
X0086876Y0040817D01*
G37*
G36*
X0090244Y0042533D02*
X0088820Y0041807D01*
X0088366Y0042697D01*
X0089790Y0043423D01*
X0090244Y0042533D01*
G37*
G36*
X0093060Y0038047D02*
X0091636Y0037321D01*
X0091182Y0038211D01*
X0092606Y0038937D01*
X0093060Y0038047D01*
G37*
G36*
X0088885Y0035920D02*
X0087461Y0035194D01*
X0087007Y0036084D01*
X0088431Y0036810D01*
X0088885Y0035920D01*
G37*
D20*
X0089069Y0035333D02*
X0085520Y0035333D01*
X0085509Y0035352D02*
X0085559Y0035267D01*
X0085636Y0035207D01*
X0085794Y0035119D01*
X0085857Y0035096D01*
X0085923Y0035094D01*
X0085987Y0035114D01*
X0086040Y0035154D01*
X0086117Y0035215D01*
X0086207Y0035251D01*
X0086268Y0035253D01*
X0086324Y0035230D01*
X0086367Y0035186D01*
X0086622Y0034991D01*
X0086908Y0034821D01*
X0087226Y0034722D01*
X0087558Y0034699D01*
X0087886Y0034754D01*
X0088193Y0034882D01*
X0089724Y0035671D01*
X0089849Y0035757D01*
X0089949Y0035872D01*
X0090017Y0036009D01*
X0090048Y0036158D01*
X0090041Y0036310D01*
X0089979Y0036520D01*
X0089874Y0036711D01*
X0089730Y0036875D01*
X0089554Y0037003D01*
X0089474Y0037039D01*
X0089388Y0037060D01*
X0088268Y0037135D01*
X0088061Y0037178D01*
X0087873Y0037276D01*
X0087080Y0037913D01*
X0086968Y0037983D01*
X0086842Y0038026D01*
X0086710Y0038038D01*
X0086553Y0037994D01*
X0086486Y0037961D01*
X0086435Y0037907D01*
X0086408Y0037837D01*
X0086344Y0037641D01*
X0086279Y0037234D01*
X0086236Y0037080D01*
X0086160Y0036940D01*
X0086055Y0036820D01*
X0085819Y0036649D01*
X0085729Y0036580D01*
X0085663Y0036487D01*
X0085627Y0036380D01*
X0085624Y0036276D01*
X0085652Y0036175D01*
X0085716Y0035994D01*
X0085728Y0035926D01*
X0085719Y0035858D01*
X0085690Y0035795D01*
X0085643Y0035745D01*
X0085564Y0035663D01*
X0085513Y0035561D01*
X0085493Y0035449D01*
X0085509Y0035352D01*
X0085496Y0035432D02*
X0089260Y0035432D01*
X0089451Y0035530D02*
X0085508Y0035530D01*
X0085547Y0035629D02*
X0089642Y0035629D01*
X0089806Y0035727D02*
X0085626Y0035727D01*
X0085704Y0035826D02*
X0089909Y0035826D01*
X0089975Y0035924D02*
X0085728Y0035924D01*
X0085706Y0036023D02*
X0090019Y0036023D01*
X0090040Y0036122D02*
X0085671Y0036122D01*
X0085640Y0036220D02*
X0090045Y0036220D01*
X0090038Y0036319D02*
X0085625Y0036319D01*
X0085639Y0036417D02*
X0090009Y0036417D01*
X0089981Y0036516D02*
X0085683Y0036516D01*
X0085773Y0036614D02*
X0089928Y0036614D01*
X0089873Y0036713D02*
X0085907Y0036713D01*
X0086043Y0036811D02*
X0089786Y0036811D01*
X0089682Y0036910D02*
X0086133Y0036910D01*
X0086197Y0037008D02*
X0089543Y0037008D01*
X0090301Y0037156D02*
X0090297Y0037374D01*
X0090313Y0037460D01*
X0090346Y0037541D01*
X0090927Y0038502D01*
X0091011Y0038697D01*
X0091038Y0038907D01*
X0090971Y0039922D01*
X0090978Y0040054D01*
X0091015Y0040182D01*
X0091081Y0040297D01*
X0091207Y0040400D01*
X0091272Y0040436D01*
X0091346Y0040446D01*
X0091418Y0040429D01*
X0091616Y0040369D01*
X0091987Y0040189D01*
X0092137Y0040136D01*
X0092296Y0040117D01*
X0092454Y0040135D01*
X0092730Y0040230D01*
X0092838Y0040264D01*
X0092952Y0040265D01*
X0093060Y0040233D01*
X0093147Y0040175D01*
X0093213Y0040095D01*
X0093325Y0039939D01*
X0093374Y0039890D01*
X0093435Y0039858D01*
X0093503Y0039846D01*
X0093571Y0039856D01*
X0093684Y0039873D01*
X0093796Y0039857D01*
X0093899Y0039808D01*
X0093970Y0039740D01*
X0094011Y0039650D01*
X0094016Y0039552D01*
X0093997Y0039373D01*
X0093980Y0039308D01*
X0093943Y0039253D01*
X0093890Y0039212D01*
X0093827Y0039191D01*
X0093734Y0039163D01*
X0093652Y0039110D01*
X0093616Y0039062D01*
X0093602Y0039002D01*
X0093614Y0038942D01*
X0093627Y0038621D01*
X0093602Y0038289D01*
X0093501Y0037972D01*
X0093329Y0037687D01*
X0093097Y0037449D01*
X0092815Y0037272D01*
X0091291Y0036470D01*
X0091148Y0036417D01*
X0090997Y0036402D01*
X0090846Y0036424D01*
X0090706Y0036484D01*
X0090586Y0036578D01*
X0090449Y0036748D01*
X0090353Y0036944D01*
X0090301Y0037156D01*
X0090300Y0037205D02*
X0092688Y0037205D01*
X0092866Y0037304D02*
X0090298Y0037304D01*
X0090302Y0037402D02*
X0093022Y0037402D01*
X0093147Y0037501D02*
X0090330Y0037501D01*
X0090381Y0037599D02*
X0093243Y0037599D01*
X0093336Y0037698D02*
X0090440Y0037698D01*
X0090500Y0037796D02*
X0093395Y0037796D01*
X0093454Y0037895D02*
X0090560Y0037895D01*
X0090619Y0037993D02*
X0093507Y0037993D01*
X0093539Y0038092D02*
X0090679Y0038092D01*
X0090738Y0038190D02*
X0093570Y0038190D01*
X0093602Y0038289D02*
X0090798Y0038289D01*
X0090857Y0038387D02*
X0093609Y0038387D01*
X0093617Y0038486D02*
X0090917Y0038486D01*
X0090962Y0038584D02*
X0093624Y0038584D01*
X0093624Y0038683D02*
X0091005Y0038683D01*
X0091022Y0038781D02*
X0093620Y0038781D01*
X0093616Y0038880D02*
X0091035Y0038880D01*
X0091034Y0038978D02*
X0093607Y0038978D01*
X0093627Y0039077D02*
X0091027Y0039077D01*
X0091021Y0039175D02*
X0093774Y0039175D01*
X0093957Y0039274D02*
X0091014Y0039274D01*
X0091008Y0039372D02*
X0093997Y0039372D01*
X0094007Y0039471D02*
X0091001Y0039471D01*
X0090995Y0039569D02*
X0094015Y0039569D01*
X0094003Y0039668D02*
X0090988Y0039668D01*
X0090982Y0039766D02*
X0093943Y0039766D01*
X0093738Y0039865D02*
X0093632Y0039865D01*
X0093421Y0039865D02*
X0090975Y0039865D01*
X0090973Y0039963D02*
X0093308Y0039963D01*
X0093237Y0040062D02*
X0090980Y0040062D01*
X0091009Y0040160D02*
X0092068Y0040160D01*
X0091842Y0040259D02*
X0091060Y0040259D01*
X0091155Y0040358D02*
X0091639Y0040358D01*
X0092529Y0040160D02*
X0093160Y0040160D01*
X0092972Y0040259D02*
X0092822Y0040259D01*
X0091007Y0041567D02*
X0090791Y0041263D01*
X0090678Y0041165D01*
X0090540Y0041103D01*
X0090391Y0041084D01*
X0090091Y0041090D01*
X0089881Y0041122D01*
X0089687Y0041211D01*
X0089083Y0041523D01*
X0088820Y0041630D01*
X0088543Y0041688D01*
X0088260Y0041696D01*
X0088127Y0041707D01*
X0088001Y0041754D01*
X0087894Y0041834D01*
X0087813Y0041940D01*
X0086792Y0043866D01*
X0086684Y0044147D01*
X0086645Y0044446D01*
X0086677Y0044745D01*
X0086780Y0045029D01*
X0086946Y0045280D01*
X0087051Y0045377D01*
X0087175Y0045448D01*
X0087604Y0045606D01*
X0087737Y0045632D01*
X0087873Y0045628D01*
X0088004Y0045595D01*
X0088220Y0045504D01*
X0088356Y0045426D01*
X0088470Y0045320D01*
X0088683Y0044979D01*
X0089069Y0044317D01*
X0089244Y0044068D01*
X0089458Y0043851D01*
X0089706Y0043673D01*
X0089758Y0043654D01*
X0089814Y0043654D01*
X0089866Y0043675D01*
X0089961Y0043716D01*
X0090063Y0043728D01*
X0090164Y0043711D01*
X0090256Y0043664D01*
X0090335Y0043589D01*
X0090387Y0043493D01*
X0090408Y0043385D01*
X0090396Y0043277D01*
X0090360Y0043168D01*
X0090349Y0043097D01*
X0090361Y0043026D01*
X0090395Y0042963D01*
X0090447Y0042913D01*
X0091032Y0042412D01*
X0091122Y0042307D01*
X0091178Y0042179D01*
X0091192Y0042041D01*
X0091165Y0041904D01*
X0091007Y0041567D01*
X0090988Y0041540D02*
X0089041Y0041540D01*
X0089241Y0041441D02*
X0090918Y0041441D01*
X0090848Y0041343D02*
X0089432Y0041343D01*
X0089623Y0041244D02*
X0090769Y0041244D01*
X0090636Y0041146D02*
X0089830Y0041146D01*
X0088780Y0041638D02*
X0091041Y0041638D01*
X0091087Y0041737D02*
X0088047Y0041737D01*
X0087893Y0041835D02*
X0091133Y0041835D01*
X0091171Y0041934D02*
X0087817Y0041934D01*
X0087764Y0042032D02*
X0091191Y0042032D01*
X0091183Y0042131D02*
X0087711Y0042131D01*
X0087659Y0042229D02*
X0091156Y0042229D01*
X0091104Y0042328D02*
X0087607Y0042328D01*
X0087555Y0042426D02*
X0091015Y0042426D01*
X0090900Y0042525D02*
X0087503Y0042525D01*
X0087450Y0042623D02*
X0090785Y0042623D01*
X0090671Y0042722D02*
X0087398Y0042722D01*
X0087346Y0042820D02*
X0090556Y0042820D01*
X0090441Y0042919D02*
X0087294Y0042919D01*
X0087242Y0043017D02*
X0090366Y0043017D01*
X0090352Y0043116D02*
X0087189Y0043116D01*
X0087137Y0043214D02*
X0090376Y0043214D01*
X0090400Y0043313D02*
X0087085Y0043313D01*
X0087033Y0043411D02*
X0090403Y0043411D01*
X0090378Y0043510D02*
X0086981Y0043510D01*
X0086928Y0043608D02*
X0090314Y0043608D01*
X0090172Y0043707D02*
X0089939Y0043707D01*
X0089659Y0043707D02*
X0086876Y0043707D01*
X0086824Y0043805D02*
X0089522Y0043805D01*
X0089406Y0043904D02*
X0086777Y0043904D01*
X0086739Y0044002D02*
X0089309Y0044002D01*
X0089221Y0044101D02*
X0086701Y0044101D01*
X0086677Y0044199D02*
X0089152Y0044199D01*
X0089082Y0044298D02*
X0086664Y0044298D01*
X0086651Y0044396D02*
X0089023Y0044396D01*
X0088965Y0044495D02*
X0086650Y0044495D01*
X0086661Y0044593D02*
X0088908Y0044593D01*
X0088850Y0044692D02*
X0086671Y0044692D01*
X0086694Y0044791D02*
X0088793Y0044791D01*
X0088735Y0044889D02*
X0086729Y0044889D01*
X0086765Y0044988D02*
X0088677Y0044988D01*
X0088616Y0045086D02*
X0086818Y0045086D01*
X0086883Y0045185D02*
X0088555Y0045185D01*
X0088493Y0045283D02*
X0086950Y0045283D01*
X0087058Y0045382D02*
X0088404Y0045382D01*
X0088261Y0045480D02*
X0087262Y0045480D01*
X0087530Y0045579D02*
X0088043Y0045579D01*
X0086139Y0043652D02*
X0085924Y0043863D01*
X0085665Y0044017D01*
X0085377Y0044106D01*
X0085076Y0044124D01*
X0084935Y0044099D01*
X0084804Y0044043D01*
X0084420Y0043795D01*
X0084319Y0043705D01*
X0084240Y0043594D01*
X0084188Y0043469D01*
X0084131Y0043242D01*
X0084111Y0043087D01*
X0084127Y0042931D01*
X0084272Y0042556D01*
X0084567Y0041850D01*
X0084661Y0041560D01*
X0084705Y0041258D01*
X0084699Y0040954D01*
X0084683Y0040900D01*
X0084648Y0040856D01*
X0084601Y0040827D01*
X0084511Y0040776D01*
X0084440Y0040702D01*
X0084393Y0040610D01*
X0084374Y0040509D01*
X0084388Y0040400D01*
X0084433Y0040301D01*
X0084506Y0040219D01*
X0084600Y0040164D01*
X0084708Y0040127D01*
X0084771Y0040093D01*
X0084821Y0040041D01*
X0084851Y0039976D01*
X0084859Y0039904D01*
X0084908Y0039136D01*
X0084937Y0039000D01*
X0085006Y0038879D01*
X0085108Y0038784D01*
X0085233Y0038724D01*
X0085598Y0038647D01*
X0085970Y0038636D01*
X0086117Y0038668D01*
X0086249Y0038740D01*
X0086354Y0038848D01*
X0086530Y0039091D01*
X0086630Y0039279D01*
X0086676Y0039487D01*
X0086791Y0040157D01*
X0086863Y0040431D01*
X0086984Y0040687D01*
X0087147Y0040918D01*
X0087219Y0041031D01*
X0087257Y0041160D01*
X0087258Y0041293D01*
X0087222Y0041422D01*
X0086298Y0043397D01*
X0086139Y0043652D01*
X0086166Y0043608D02*
X0084251Y0043608D01*
X0084205Y0043510D02*
X0086228Y0043510D01*
X0086289Y0043411D02*
X0084174Y0043411D01*
X0084149Y0043313D02*
X0086337Y0043313D01*
X0086383Y0043214D02*
X0084128Y0043214D01*
X0084115Y0043116D02*
X0086430Y0043116D01*
X0086476Y0043017D02*
X0084118Y0043017D01*
X0084132Y0042919D02*
X0086522Y0042919D01*
X0086568Y0042820D02*
X0084170Y0042820D01*
X0084208Y0042722D02*
X0086614Y0042722D01*
X0086660Y0042623D02*
X0084246Y0042623D01*
X0084285Y0042525D02*
X0086706Y0042525D01*
X0086752Y0042426D02*
X0084326Y0042426D01*
X0084367Y0042328D02*
X0086798Y0042328D01*
X0086844Y0042229D02*
X0084409Y0042229D01*
X0084450Y0042131D02*
X0086891Y0042131D01*
X0086937Y0042032D02*
X0084491Y0042032D01*
X0084532Y0041934D02*
X0086983Y0041934D01*
X0087029Y0041835D02*
X0084572Y0041835D01*
X0084604Y0041737D02*
X0087075Y0041737D01*
X0087121Y0041638D02*
X0084636Y0041638D01*
X0084664Y0041540D02*
X0087167Y0041540D01*
X0087213Y0041441D02*
X0084679Y0041441D01*
X0084693Y0041343D02*
X0087244Y0041343D01*
X0087258Y0041244D02*
X0084705Y0041244D01*
X0084703Y0041146D02*
X0087253Y0041146D01*
X0087224Y0041047D02*
X0084701Y0041047D01*
X0084697Y0040949D02*
X0087167Y0040949D01*
X0087099Y0040850D02*
X0084639Y0040850D01*
X0084487Y0040752D02*
X0087029Y0040752D01*
X0086967Y0040653D02*
X0084415Y0040653D01*
X0084383Y0040555D02*
X0086921Y0040555D01*
X0086875Y0040456D02*
X0084381Y0040456D01*
X0084407Y0040358D02*
X0086844Y0040358D01*
X0086818Y0040259D02*
X0084470Y0040259D01*
X0084609Y0040160D02*
X0086792Y0040160D01*
X0086775Y0040062D02*
X0084801Y0040062D01*
X0084853Y0039963D02*
X0086758Y0039963D01*
X0086741Y0039865D02*
X0084862Y0039865D01*
X0084868Y0039766D02*
X0086724Y0039766D01*
X0086707Y0039668D02*
X0084874Y0039668D01*
X0084880Y0039569D02*
X0086691Y0039569D01*
X0086673Y0039471D02*
X0084887Y0039471D01*
X0084893Y0039372D02*
X0086651Y0039372D01*
X0086628Y0039274D02*
X0084899Y0039274D01*
X0084905Y0039175D02*
X0086575Y0039175D01*
X0086520Y0039077D02*
X0084921Y0039077D01*
X0084950Y0038978D02*
X0086449Y0038978D01*
X0086377Y0038880D02*
X0085006Y0038880D01*
X0085113Y0038781D02*
X0086289Y0038781D01*
X0086145Y0038683D02*
X0085426Y0038683D01*
X0086431Y0037895D02*
X0087102Y0037895D01*
X0087225Y0037796D02*
X0086394Y0037796D01*
X0086362Y0037698D02*
X0087347Y0037698D01*
X0087470Y0037599D02*
X0086337Y0037599D01*
X0086321Y0037501D02*
X0087593Y0037501D01*
X0087715Y0037402D02*
X0086306Y0037402D01*
X0086290Y0037304D02*
X0087838Y0037304D01*
X0088008Y0037205D02*
X0086270Y0037205D01*
X0086243Y0037107D02*
X0088687Y0037107D01*
X0090313Y0037107D02*
X0092501Y0037107D01*
X0092314Y0037008D02*
X0090337Y0037008D01*
X0090370Y0036910D02*
X0092126Y0036910D01*
X0091939Y0036811D02*
X0090418Y0036811D01*
X0090477Y0036713D02*
X0091752Y0036713D01*
X0091564Y0036614D02*
X0090556Y0036614D01*
X0090666Y0036516D02*
X0091377Y0036516D01*
X0091147Y0036417D02*
X0090895Y0036417D01*
X0088877Y0035235D02*
X0086312Y0035235D01*
X0086167Y0035235D02*
X0085600Y0035235D01*
X0085764Y0035136D02*
X0086016Y0035136D01*
X0086432Y0035136D02*
X0088686Y0035136D01*
X0088495Y0035038D02*
X0086561Y0035038D01*
X0086710Y0034939D02*
X0088304Y0034939D01*
X0088094Y0034841D02*
X0086876Y0034841D01*
X0087162Y0034742D02*
X0087818Y0034742D01*
X0086937Y0037993D02*
X0086551Y0037993D01*
X0086083Y0043707D02*
X0084322Y0043707D01*
X0084436Y0043805D02*
X0085983Y0043805D01*
X0085855Y0043904D02*
X0084589Y0043904D01*
X0084742Y0044002D02*
X0085690Y0044002D01*
X0085394Y0044101D02*
X0084944Y0044101D01*
X0047477Y0043691D02*
X0047476Y0043593D01*
X0047439Y0043501D01*
X0047346Y0043347D01*
X0047304Y0043295D01*
X0047247Y0043261D01*
X0047182Y0043246D01*
X0047115Y0043254D01*
X0047019Y0043268D01*
X0046923Y0043255D01*
X0046869Y0043226D01*
X0046832Y0043178D01*
X0046817Y0043119D01*
X0046693Y0042822D01*
X0046530Y0042532D01*
X0046305Y0042287D01*
X0046029Y0042101D01*
X0045717Y0041984D01*
X0045387Y0041942D01*
X0043667Y0041860D01*
X0043515Y0041872D01*
X0043371Y0041922D01*
X0043245Y0042006D01*
X0043143Y0042120D01*
X0043073Y0042255D01*
X0043021Y0042467D01*
X0043017Y0042685D01*
X0043060Y0042899D01*
X0043148Y0043099D01*
X0043199Y0043170D01*
X0043263Y0043230D01*
X0044196Y0043855D01*
X0044354Y0043996D01*
X0044468Y0044175D01*
X0044836Y0045123D01*
X0044898Y0045240D01*
X0044986Y0045340D01*
X0045094Y0045416D01*
X0045251Y0045457D01*
X0045326Y0045462D01*
X0045397Y0045440D01*
X0045456Y0045394D01*
X0045609Y0045256D01*
X0045869Y0044936D01*
X0045983Y0044825D01*
X0046119Y0044741D01*
X0046270Y0044689D01*
X0046560Y0044660D01*
X0046673Y0044644D01*
X0046776Y0044597D01*
X0046861Y0044522D01*
X0046915Y0044433D01*
X0046941Y0044332D01*
X0046977Y0044144D01*
X0047000Y0044079D01*
X0047042Y0044024D01*
X0047098Y0043984D01*
X0047164Y0043964D01*
X0047274Y0043932D01*
X0047369Y0043870D01*
X0047442Y0043783D01*
X0047477Y0043691D01*
X0047471Y0043707D02*
X0043974Y0043707D01*
X0043827Y0043608D02*
X0047476Y0043608D01*
X0047443Y0043510D02*
X0043680Y0043510D01*
X0043533Y0043411D02*
X0047385Y0043411D01*
X0047318Y0043313D02*
X0043387Y0043313D01*
X0043246Y0043214D02*
X0046860Y0043214D01*
X0046816Y0043116D02*
X0043160Y0043116D01*
X0043112Y0043017D02*
X0046774Y0043017D01*
X0046733Y0042919D02*
X0043068Y0042919D01*
X0043044Y0042820D02*
X0046692Y0042820D01*
X0046637Y0042722D02*
X0043024Y0042722D01*
X0043018Y0042623D02*
X0046581Y0042623D01*
X0046523Y0042525D02*
X0043020Y0042525D01*
X0043031Y0042426D02*
X0046433Y0042426D01*
X0046342Y0042328D02*
X0043055Y0042328D01*
X0043087Y0042229D02*
X0046218Y0042229D01*
X0046072Y0042131D02*
X0043137Y0042131D01*
X0043221Y0042032D02*
X0045845Y0042032D01*
X0045209Y0041934D02*
X0043354Y0041934D01*
X0042466Y0042243D02*
X0042499Y0042459D01*
X0042485Y0042677D01*
X0042423Y0042886D01*
X0042318Y0043077D01*
X0042261Y0043144D01*
X0042192Y0043198D01*
X0041208Y0043740D01*
X0041038Y0043866D01*
X0040909Y0044034D01*
X0040460Y0044947D01*
X0040388Y0045058D01*
X0040292Y0045150D01*
X0040178Y0045217D01*
X0040017Y0045243D01*
X0039942Y0045242D01*
X0039873Y0045214D01*
X0039819Y0045163D01*
X0039678Y0045012D01*
X0039447Y0044671D01*
X0039343Y0044549D01*
X0039215Y0044454D01*
X0039069Y0044390D01*
X0038783Y0044335D01*
X0038672Y0044310D01*
X0038573Y0044254D01*
X0038495Y0044172D01*
X0038449Y0044078D01*
X0038432Y0043976D01*
X0038413Y0043784D01*
X0038395Y0043718D01*
X0038358Y0043659D01*
X0038305Y0043615D01*
X0038241Y0043590D01*
X0038135Y0043548D01*
X0038046Y0043478D01*
X0037981Y0043385D01*
X0037954Y0043290D01*
X0037964Y0043192D01*
X0038008Y0043104D01*
X0038114Y0042959D01*
X0038161Y0042911D01*
X0038221Y0042881D01*
X0038287Y0042873D01*
X0038352Y0042886D01*
X0038447Y0042909D01*
X0038544Y0042904D01*
X0038600Y0042880D01*
X0038641Y0042835D01*
X0038661Y0042777D01*
X0038811Y0042493D01*
X0038998Y0042218D01*
X0039244Y0041994D01*
X0039535Y0041833D01*
X0039856Y0041743D01*
X0040188Y0041730D01*
X0041909Y0041798D01*
X0042059Y0041823D01*
X0042198Y0041885D01*
X0042317Y0041980D01*
X0042408Y0042102D01*
X0042466Y0042243D01*
X0042460Y0042229D02*
X0038990Y0042229D01*
X0038923Y0042328D02*
X0042479Y0042328D01*
X0042494Y0042426D02*
X0038856Y0042426D01*
X0038794Y0042525D02*
X0042495Y0042525D01*
X0042488Y0042623D02*
X0038742Y0042623D01*
X0038690Y0042722D02*
X0042471Y0042722D01*
X0042443Y0042820D02*
X0038646Y0042820D01*
X0038153Y0042919D02*
X0042405Y0042919D01*
X0042351Y0043017D02*
X0038072Y0043017D01*
X0038002Y0043116D02*
X0042285Y0043116D01*
X0042162Y0043214D02*
X0037961Y0043214D01*
X0037961Y0043313D02*
X0041983Y0043313D01*
X0041804Y0043411D02*
X0038000Y0043411D01*
X0038087Y0043510D02*
X0041625Y0043510D01*
X0041447Y0043608D02*
X0038288Y0043608D01*
X0038389Y0043707D02*
X0041268Y0043707D01*
X0041120Y0043805D02*
X0038415Y0043805D01*
X0038425Y0043904D02*
X0041010Y0043904D01*
X0040934Y0044002D02*
X0038436Y0044002D01*
X0038460Y0044101D02*
X0040877Y0044101D01*
X0040828Y0044199D02*
X0038522Y0044199D01*
X0038651Y0044298D02*
X0040780Y0044298D01*
X0040731Y0044396D02*
X0039085Y0044396D01*
X0039270Y0044495D02*
X0040683Y0044495D01*
X0040634Y0044593D02*
X0039381Y0044593D01*
X0039462Y0044692D02*
X0040586Y0044692D01*
X0040537Y0044791D02*
X0039528Y0044791D01*
X0039595Y0044889D02*
X0040488Y0044889D01*
X0040434Y0044988D02*
X0039662Y0044988D01*
X0039748Y0045086D02*
X0040359Y0045086D01*
X0040232Y0045185D02*
X0039842Y0045185D01*
X0039907Y0046038D02*
X0040057Y0046048D01*
X0040197Y0046101D01*
X0040460Y0046247D01*
X0040630Y0046375D01*
X0040760Y0046544D01*
X0041147Y0047103D01*
X0041328Y0047321D01*
X0041545Y0047502D01*
X0041791Y0047642D01*
X0041904Y0047714D01*
X0041993Y0047815D01*
X0042050Y0047936D01*
X0042072Y0048068D01*
X0042069Y0050247D01*
X0042033Y0050546D01*
X0041927Y0050829D01*
X0041758Y0051078D01*
X0041534Y0051280D01*
X0041269Y0051423D01*
X0041131Y0051460D01*
X0040988Y0051464D01*
X0040535Y0051402D01*
X0040406Y0051363D01*
X0040288Y0051296D01*
X0040187Y0051205D01*
X0040040Y0051023D01*
X0039956Y0050891D01*
X0039905Y0050743D01*
X0039877Y0050342D01*
X0039847Y0049577D01*
X0039809Y0049275D01*
X0039722Y0048983D01*
X0039587Y0048709D01*
X0039550Y0048667D01*
X0039500Y0048642D01*
X0039445Y0048635D01*
X0039342Y0048628D01*
X0039246Y0048591D01*
X0039165Y0048527D01*
X0039105Y0048443D01*
X0039071Y0048339D01*
X0039070Y0048230D01*
X0039102Y0048125D01*
X0039164Y0048035D01*
X0039246Y0047956D01*
X0039289Y0047899D01*
X0039312Y0047830D01*
X0039312Y0047759D01*
X0039289Y0047690D01*
X0039008Y0046973D01*
X0038978Y0046838D01*
X0038989Y0046699D01*
X0039041Y0046570D01*
X0039129Y0046462D01*
X0039427Y0046238D01*
X0039760Y0046072D01*
X0039907Y0046038D01*
X0039763Y0046071D02*
X0040118Y0046071D01*
X0040321Y0046170D02*
X0039564Y0046170D01*
X0039387Y0046268D02*
X0040488Y0046268D01*
X0040619Y0046367D02*
X0039256Y0046367D01*
X0039126Y0046465D02*
X0040699Y0046465D01*
X0040773Y0046564D02*
X0039046Y0046564D01*
X0039004Y0046662D02*
X0040841Y0046662D01*
X0040910Y0046761D02*
X0038984Y0046761D01*
X0038983Y0046859D02*
X0040978Y0046859D01*
X0041046Y0046958D02*
X0039005Y0046958D01*
X0039041Y0047056D02*
X0041114Y0047056D01*
X0041190Y0047155D02*
X0039079Y0047155D01*
X0039118Y0047253D02*
X0041272Y0047253D01*
X0041365Y0047352D02*
X0039157Y0047352D01*
X0039195Y0047450D02*
X0041483Y0047450D01*
X0041627Y0047549D02*
X0039234Y0047549D01*
X0039272Y0047647D02*
X0041799Y0047647D01*
X0041932Y0047746D02*
X0039308Y0047746D01*
X0039308Y0047844D02*
X0042007Y0047844D01*
X0042052Y0047943D02*
X0039256Y0047943D01*
X0039159Y0048041D02*
X0042068Y0048041D01*
X0042072Y0048140D02*
X0039097Y0048140D01*
X0039070Y0048238D02*
X0042072Y0048238D01*
X0042072Y0048337D02*
X0039071Y0048337D01*
X0039103Y0048435D02*
X0042072Y0048435D01*
X0042072Y0048534D02*
X0039173Y0048534D01*
X0039405Y0048632D02*
X0042071Y0048632D01*
X0042071Y0048731D02*
X0039598Y0048731D01*
X0039646Y0048829D02*
X0042071Y0048829D01*
X0042071Y0048928D02*
X0039695Y0048928D01*
X0039735Y0049027D02*
X0042071Y0049027D01*
X0042071Y0049125D02*
X0039765Y0049125D01*
X0039794Y0049224D02*
X0042071Y0049224D01*
X0042070Y0049322D02*
X0039815Y0049322D01*
X0039828Y0049421D02*
X0042070Y0049421D01*
X0042070Y0049519D02*
X0039840Y0049519D01*
X0039849Y0049618D02*
X0042070Y0049618D01*
X0042070Y0049716D02*
X0039853Y0049716D01*
X0039856Y0049815D02*
X0042070Y0049815D01*
X0042070Y0049913D02*
X0039860Y0049913D01*
X0039864Y0050012D02*
X0042069Y0050012D01*
X0042069Y0050110D02*
X0039868Y0050110D01*
X0039872Y0050209D02*
X0042069Y0050209D01*
X0042062Y0050307D02*
X0039876Y0050307D01*
X0039882Y0050406D02*
X0042050Y0050406D01*
X0042038Y0050504D02*
X0039888Y0050504D01*
X0039895Y0050603D02*
X0042012Y0050603D01*
X0041975Y0050701D02*
X0039902Y0050701D01*
X0039924Y0050800D02*
X0041938Y0050800D01*
X0041880Y0050898D02*
X0039961Y0050898D01*
X0040023Y0050997D02*
X0041813Y0050997D01*
X0041738Y0051095D02*
X0040098Y0051095D01*
X0040178Y0051194D02*
X0041629Y0051194D01*
X0041511Y0051292D02*
X0040283Y0051292D01*
X0040497Y0051391D02*
X0041329Y0051391D01*
X0042778Y0050898D02*
X0044872Y0050898D01*
X0044884Y0050800D02*
X0042747Y0050800D01*
X0042736Y0050765D02*
X0042827Y0051052D01*
X0042983Y0051310D01*
X0043195Y0051523D01*
X0043452Y0051680D01*
X0043588Y0051724D01*
X0043731Y0051736D01*
X0044186Y0051698D01*
X0044318Y0051665D01*
X0044439Y0051605D01*
X0044544Y0051519D01*
X0044701Y0051345D01*
X0044792Y0051217D01*
X0044851Y0051073D01*
X0044899Y0050673D01*
X0044969Y0049911D01*
X0045023Y0049611D01*
X0045125Y0049324D01*
X0045275Y0049058D01*
X0045314Y0049018D01*
X0045365Y0048995D01*
X0045420Y0048992D01*
X0045523Y0048989D01*
X0045621Y0048957D01*
X0045706Y0048898D01*
X0045770Y0048817D01*
X0045809Y0048715D01*
X0045816Y0048606D01*
X0045789Y0048500D01*
X0045732Y0048407D01*
X0045654Y0048324D01*
X0045614Y0048264D01*
X0045595Y0048195D01*
X0045599Y0048123D01*
X0045625Y0048056D01*
X0045943Y0047355D01*
X0045981Y0047221D01*
X0045977Y0047082D01*
X0045932Y0046950D01*
X0045850Y0046838D01*
X0045564Y0046599D01*
X0045240Y0046415D01*
X0045095Y0046374D01*
X0044945Y0046376D01*
X0044801Y0046421D01*
X0044532Y0046553D01*
X0044355Y0046672D01*
X0044217Y0046834D01*
X0043801Y0047372D01*
X0043608Y0047580D01*
X0043382Y0047750D01*
X0043129Y0047877D01*
X0043012Y0047943D01*
X0042919Y0048039D01*
X0042855Y0048156D01*
X0042826Y0048287D01*
X0042715Y0050464D01*
X0042736Y0050765D01*
X0042731Y0050701D02*
X0044896Y0050701D01*
X0044905Y0050603D02*
X0042725Y0050603D01*
X0042718Y0050504D02*
X0044915Y0050504D01*
X0044924Y0050406D02*
X0042718Y0050406D01*
X0042723Y0050307D02*
X0044933Y0050307D01*
X0044942Y0050209D02*
X0042728Y0050209D01*
X0042733Y0050110D02*
X0044951Y0050110D01*
X0044960Y0050012D02*
X0042738Y0050012D01*
X0042743Y0049913D02*
X0044969Y0049913D01*
X0044986Y0049815D02*
X0042748Y0049815D01*
X0042753Y0049716D02*
X0045004Y0049716D01*
X0045021Y0049618D02*
X0042758Y0049618D01*
X0042763Y0049519D02*
X0045055Y0049519D01*
X0045091Y0049421D02*
X0042768Y0049421D01*
X0042773Y0049322D02*
X0045126Y0049322D01*
X0045182Y0049224D02*
X0042778Y0049224D01*
X0042783Y0049125D02*
X0045237Y0049125D01*
X0045305Y0049027D02*
X0042788Y0049027D01*
X0042793Y0048928D02*
X0045663Y0048928D01*
X0045760Y0048829D02*
X0042798Y0048829D01*
X0042803Y0048731D02*
X0045803Y0048731D01*
X0045814Y0048632D02*
X0042808Y0048632D01*
X0042813Y0048534D02*
X0045798Y0048534D01*
X0045750Y0048435D02*
X0042818Y0048435D01*
X0042824Y0048337D02*
X0045667Y0048337D01*
X0045607Y0048238D02*
X0042837Y0048238D01*
X0042864Y0048140D02*
X0045598Y0048140D01*
X0045632Y0048041D02*
X0042917Y0048041D01*
X0043012Y0047943D02*
X0045676Y0047943D01*
X0045721Y0047844D02*
X0043194Y0047844D01*
X0043387Y0047746D02*
X0045766Y0047746D01*
X0045810Y0047647D02*
X0043519Y0047647D01*
X0043637Y0047549D02*
X0045855Y0047549D01*
X0045900Y0047450D02*
X0043729Y0047450D01*
X0043817Y0047352D02*
X0045944Y0047352D01*
X0045972Y0047253D02*
X0043893Y0047253D01*
X0043969Y0047155D02*
X0045979Y0047155D01*
X0045968Y0047056D02*
X0044045Y0047056D01*
X0044121Y0046958D02*
X0045934Y0046958D01*
X0045865Y0046859D02*
X0044197Y0046859D01*
X0044279Y0046761D02*
X0045757Y0046761D01*
X0045640Y0046662D02*
X0044370Y0046662D01*
X0044516Y0046564D02*
X0045502Y0046564D01*
X0045328Y0046465D02*
X0044712Y0046465D01*
X0045044Y0045382D02*
X0045469Y0045382D01*
X0045579Y0045283D02*
X0044936Y0045283D01*
X0044868Y0045185D02*
X0045667Y0045185D01*
X0045747Y0045086D02*
X0044822Y0045086D01*
X0044783Y0044988D02*
X0045827Y0044988D01*
X0045917Y0044889D02*
X0044745Y0044889D01*
X0044707Y0044791D02*
X0046038Y0044791D01*
X0046262Y0044692D02*
X0044668Y0044692D01*
X0044630Y0044593D02*
X0046780Y0044593D01*
X0046878Y0044495D02*
X0044592Y0044495D01*
X0044554Y0044396D02*
X0046925Y0044396D01*
X0046948Y0044298D02*
X0044515Y0044298D01*
X0044477Y0044199D02*
X0046966Y0044199D01*
X0046992Y0044101D02*
X0044421Y0044101D01*
X0044358Y0044002D02*
X0047072Y0044002D01*
X0047317Y0043904D02*
X0044250Y0043904D01*
X0044121Y0043805D02*
X0047423Y0043805D01*
X0042420Y0042131D02*
X0039094Y0042131D01*
X0039202Y0042032D02*
X0042356Y0042032D01*
X0042259Y0041934D02*
X0039353Y0041934D01*
X0039531Y0041835D02*
X0042086Y0041835D01*
X0040359Y0041737D02*
X0040017Y0041737D01*
X0042809Y0050997D02*
X0044860Y0050997D01*
X0044842Y0051095D02*
X0042853Y0051095D01*
X0042913Y0051194D02*
X0044801Y0051194D01*
X0044738Y0051292D02*
X0042972Y0051292D01*
X0043064Y0051391D02*
X0044660Y0051391D01*
X0044571Y0051489D02*
X0043162Y0051489D01*
X0043301Y0051588D02*
X0044460Y0051588D01*
X0044232Y0051686D02*
X0043471Y0051686D01*
X0091005Y0103321D02*
X0091120Y0103236D01*
X0091526Y0103027D01*
X0091655Y0102984D01*
X0091790Y0102972D01*
X0091925Y0102989D01*
X0092150Y0103053D01*
X0092294Y0103113D01*
X0092421Y0103205D01*
X0092673Y0103518D01*
X0093137Y0104127D01*
X0093341Y0104353D01*
X0093581Y0104542D01*
X0093848Y0104689D01*
X0093902Y0104702D01*
X0093958Y0104694D01*
X0094007Y0104668D01*
X0094095Y0104615D01*
X0094195Y0104590D01*
X0094298Y0104596D01*
X0094395Y0104630D01*
X0094483Y0104696D01*
X0094546Y0104785D01*
X0094580Y0104889D01*
X0094581Y0104998D01*
X0094559Y0105110D01*
X0094557Y0105182D01*
X0094577Y0105251D01*
X0094618Y0105310D01*
X0094676Y0105353D01*
X0095318Y0105779D01*
X0095420Y0105872D01*
X0095491Y0105992D01*
X0095522Y0106128D01*
X0095512Y0106266D01*
X0095396Y0106621D01*
X0095219Y0106949D01*
X0095118Y0107060D01*
X0094990Y0107138D01*
X0094844Y0107175D01*
X0094545Y0107206D01*
X0094332Y0107199D01*
X0094129Y0107135D01*
X0093491Y0106899D01*
X0093218Y0106825D01*
X0092936Y0106801D01*
X0092654Y0106827D01*
X0092520Y0106833D01*
X0092390Y0106802D01*
X0092274Y0106735D01*
X0092180Y0106640D01*
X0090932Y0104852D01*
X0090790Y0104587D01*
X0090715Y0104295D01*
X0090711Y0103994D01*
X0090778Y0103700D01*
X0092812Y0103700D01*
X0092737Y0103602D02*
X0090827Y0103602D01*
X0090778Y0103700D02*
X0090913Y0103430D01*
X0091005Y0103321D01*
X0091025Y0103306D02*
X0092503Y0103306D01*
X0092423Y0103208D02*
X0091174Y0103208D01*
X0091366Y0103109D02*
X0092284Y0103109D01*
X0092001Y0103011D02*
X0091575Y0103011D01*
X0090935Y0103405D02*
X0092582Y0103405D01*
X0092662Y0103503D02*
X0090877Y0103503D01*
X0090756Y0103799D02*
X0092887Y0103799D01*
X0092962Y0103897D02*
X0090733Y0103897D01*
X0090711Y0103996D02*
X0093037Y0103996D01*
X0093112Y0104094D02*
X0090713Y0104094D01*
X0090714Y0104193D02*
X0093197Y0104193D01*
X0093285Y0104291D02*
X0090715Y0104291D01*
X0090740Y0104390D02*
X0093388Y0104390D01*
X0093512Y0104488D02*
X0090765Y0104488D01*
X0090791Y0104587D02*
X0093662Y0104587D01*
X0093842Y0104685D02*
X0090843Y0104685D01*
X0090896Y0104784D02*
X0094546Y0104784D01*
X0094578Y0104882D02*
X0090953Y0104882D01*
X0091022Y0104981D02*
X0094581Y0104981D01*
X0094565Y0105079D02*
X0091091Y0105079D01*
X0091160Y0105178D02*
X0094557Y0105178D01*
X0094595Y0105276D02*
X0091228Y0105276D01*
X0091297Y0105375D02*
X0094710Y0105375D01*
X0094858Y0105473D02*
X0091366Y0105473D01*
X0091435Y0105572D02*
X0095006Y0105572D01*
X0095155Y0105671D02*
X0091503Y0105671D01*
X0091572Y0105769D02*
X0095303Y0105769D01*
X0095415Y0105868D02*
X0091641Y0105868D01*
X0091710Y0105966D02*
X0095475Y0105966D01*
X0095508Y0106065D02*
X0091778Y0106065D01*
X0091847Y0106163D02*
X0095520Y0106163D01*
X0095512Y0106262D02*
X0091916Y0106262D01*
X0091985Y0106360D02*
X0095481Y0106360D01*
X0095449Y0106459D02*
X0092054Y0106459D01*
X0092122Y0106557D02*
X0095417Y0106557D01*
X0095378Y0106656D02*
X0092196Y0106656D01*
X0092307Y0106754D02*
X0095324Y0106754D01*
X0095271Y0106853D02*
X0093320Y0106853D01*
X0093632Y0106951D02*
X0095217Y0106951D01*
X0095128Y0107050D02*
X0093899Y0107050D01*
X0094171Y0107148D02*
X0094950Y0107148D01*
X0095484Y0107774D02*
X0095545Y0107733D01*
X0095618Y0107716D01*
X0095692Y0107727D01*
X0095894Y0107770D01*
X0096279Y0107917D01*
X0096434Y0107957D01*
X0096593Y0107961D01*
X0096750Y0107930D01*
X0097016Y0107811D01*
X0097121Y0107768D01*
X0097234Y0107757D01*
X0097345Y0107780D01*
X0097437Y0107829D01*
X0097509Y0107904D01*
X0097635Y0108049D01*
X0097687Y0108094D01*
X0097751Y0108121D01*
X0097820Y0108126D01*
X0097887Y0108111D01*
X0097997Y0108084D01*
X0098111Y0108090D01*
X0098218Y0108129D01*
X0098294Y0108191D01*
X0098342Y0108277D01*
X0098356Y0108374D01*
X0098353Y0108555D01*
X0098342Y0108621D01*
X0098310Y0108679D01*
X0098261Y0108724D01*
X0098199Y0108750D01*
X0098109Y0108786D01*
X0098033Y0108846D01*
X0098000Y0108898D01*
X0097992Y0108958D01*
X0098009Y0109017D01*
X0098050Y0109336D01*
X0098054Y0109669D01*
X0097981Y0109993D01*
X0097835Y0110292D01*
X0097623Y0110549D01*
X0097359Y0110751D01*
X0095910Y0111682D01*
X0095773Y0111747D01*
X0095623Y0111776D01*
X0095471Y0111767D01*
X0095326Y0111719D01*
X0095198Y0111637D01*
X0095047Y0111479D01*
X0094934Y0111292D01*
X0094865Y0111086D01*
X0094841Y0110869D01*
X0094850Y0110781D01*
X0094875Y0110697D01*
X0095370Y0109689D01*
X0095437Y0109488D01*
X0095446Y0109277D01*
X0095291Y0108271D01*
X0095286Y0108139D01*
X0095312Y0108009D01*
X0095368Y0107889D01*
X0095484Y0107774D01*
X0095536Y0107739D02*
X0095749Y0107739D01*
X0096072Y0107838D02*
X0095419Y0107838D01*
X0095346Y0107936D02*
X0096355Y0107936D01*
X0096720Y0107936D02*
X0097537Y0107936D01*
X0097622Y0108035D02*
X0095307Y0108035D01*
X0095287Y0108133D02*
X0098223Y0108133D01*
X0098317Y0108232D02*
X0095289Y0108232D01*
X0095300Y0108330D02*
X0098350Y0108330D01*
X0098355Y0108429D02*
X0095315Y0108429D01*
X0095330Y0108527D02*
X0098353Y0108527D01*
X0098339Y0108626D02*
X0095346Y0108626D01*
X0095361Y0108724D02*
X0098260Y0108724D01*
X0098062Y0108823D02*
X0095376Y0108823D01*
X0095391Y0108921D02*
X0097997Y0108921D01*
X0098009Y0109020D02*
X0095406Y0109020D01*
X0095422Y0109118D02*
X0098022Y0109118D01*
X0098034Y0109217D02*
X0095437Y0109217D01*
X0095444Y0109315D02*
X0098047Y0109315D01*
X0098051Y0109414D02*
X0095440Y0109414D01*
X0095429Y0109512D02*
X0098052Y0109512D01*
X0098053Y0109611D02*
X0095396Y0109611D01*
X0095361Y0109709D02*
X0098044Y0109709D01*
X0098022Y0109808D02*
X0095312Y0109808D01*
X0095264Y0109906D02*
X0098000Y0109906D01*
X0097975Y0110005D02*
X0095215Y0110005D01*
X0095167Y0110104D02*
X0097927Y0110104D01*
X0097879Y0110202D02*
X0095119Y0110202D01*
X0095070Y0110301D02*
X0097828Y0110301D01*
X0097747Y0110399D02*
X0095022Y0110399D01*
X0094973Y0110498D02*
X0097666Y0110498D01*
X0097562Y0110596D02*
X0094925Y0110596D01*
X0094877Y0110695D02*
X0097433Y0110695D01*
X0097293Y0110793D02*
X0094849Y0110793D01*
X0094844Y0110892D02*
X0097140Y0110892D01*
X0096986Y0110990D02*
X0094854Y0110990D01*
X0094866Y0111089D02*
X0096833Y0111089D01*
X0096680Y0111187D02*
X0094899Y0111187D01*
X0094932Y0111286D02*
X0096527Y0111286D01*
X0096373Y0111384D02*
X0094990Y0111384D01*
X0095051Y0111483D02*
X0096220Y0111483D01*
X0096067Y0111581D02*
X0095145Y0111581D01*
X0095265Y0111680D02*
X0095914Y0111680D01*
X0094694Y0111975D02*
X0090494Y0111975D01*
X0090459Y0112006D02*
X0090375Y0112083D01*
X0090318Y0112180D01*
X0090291Y0112291D01*
X0090297Y0112395D01*
X0090334Y0112492D01*
X0090413Y0112667D01*
X0090432Y0112734D01*
X0090429Y0112803D01*
X0090405Y0112868D01*
X0090362Y0112922D01*
X0090291Y0113011D01*
X0090249Y0113116D01*
X0090239Y0113229D01*
X0090263Y0113325D01*
X0090320Y0113405D01*
X0090403Y0113459D01*
X0090568Y0113532D01*
X0090632Y0113550D01*
X0090699Y0113546D01*
X0090760Y0113520D01*
X0090810Y0113475D01*
X0090880Y0113409D01*
X0090967Y0113365D01*
X0091028Y0113357D01*
X0091086Y0113375D01*
X0091132Y0113415D01*
X0091404Y0113587D01*
X0091704Y0113731D01*
X0092029Y0113802D01*
X0092361Y0113796D01*
X0092684Y0113714D01*
X0092978Y0113559D01*
X0094434Y0112640D01*
X0094552Y0112543D01*
X0094641Y0112419D01*
X0094696Y0112277D01*
X0094715Y0112126D01*
X0094694Y0111975D01*
X0094615Y0111772D01*
X0094494Y0111591D01*
X0094336Y0111440D01*
X0094149Y0111327D01*
X0094066Y0111298D01*
X0093979Y0111286D01*
X0092857Y0111308D01*
X0092646Y0111284D01*
X0092450Y0111202D01*
X0091605Y0110637D01*
X0091487Y0110577D01*
X0091358Y0110545D01*
X0091226Y0110545D01*
X0091073Y0110602D01*
X0091009Y0110640D01*
X0090963Y0110699D01*
X0090942Y0110771D01*
X0090896Y0110972D01*
X0090866Y0111383D01*
X0090837Y0111540D01*
X0090773Y0111686D01*
X0090679Y0111815D01*
X0090459Y0112006D01*
X0090385Y0112074D02*
X0094707Y0112074D01*
X0094709Y0112172D02*
X0090322Y0112172D01*
X0090296Y0112271D02*
X0094697Y0112271D01*
X0094661Y0112369D02*
X0090296Y0112369D01*
X0090325Y0112468D02*
X0094606Y0112468D01*
X0094523Y0112566D02*
X0090368Y0112566D01*
X0090412Y0112665D02*
X0094394Y0112665D01*
X0094238Y0112763D02*
X0090430Y0112763D01*
X0090407Y0112862D02*
X0094082Y0112862D01*
X0093926Y0112960D02*
X0090331Y0112960D01*
X0090272Y0113059D02*
X0093770Y0113059D01*
X0093614Y0113157D02*
X0090245Y0113157D01*
X0090246Y0113256D02*
X0093458Y0113256D01*
X0093302Y0113354D02*
X0090284Y0113354D01*
X0090394Y0113453D02*
X0090834Y0113453D01*
X0091192Y0113453D02*
X0093146Y0113453D01*
X0092990Y0113551D02*
X0091347Y0113551D01*
X0091534Y0113650D02*
X0092805Y0113650D01*
X0092548Y0113748D02*
X0091782Y0113748D01*
X0090608Y0111877D02*
X0094656Y0111877D01*
X0094617Y0111778D02*
X0090706Y0111778D01*
X0090776Y0111680D02*
X0094553Y0111680D01*
X0094484Y0111581D02*
X0090819Y0111581D01*
X0090847Y0111483D02*
X0094380Y0111483D01*
X0094243Y0111384D02*
X0090866Y0111384D01*
X0090873Y0111286D02*
X0092664Y0111286D01*
X0092428Y0111187D02*
X0090880Y0111187D01*
X0090887Y0111089D02*
X0092280Y0111089D01*
X0092133Y0110990D02*
X0090894Y0110990D01*
X0090914Y0110892D02*
X0091986Y0110892D01*
X0091838Y0110793D02*
X0090937Y0110793D01*
X0090967Y0110695D02*
X0091691Y0110695D01*
X0091525Y0110596D02*
X0091088Y0110596D01*
X0090676Y0109761D02*
X0090797Y0109673D01*
X0090889Y0109554D01*
X0091034Y0109291D01*
X0091110Y0109092D01*
X0091131Y0108880D01*
X0091163Y0108201D01*
X0091201Y0107920D01*
X0091289Y0107651D01*
X0091424Y0107402D01*
X0091481Y0107281D01*
X0091503Y0107149D01*
X0091488Y0107016D01*
X0091437Y0106892D01*
X0090279Y0105046D01*
X0090090Y0104811D01*
X0089850Y0104628D01*
X0089575Y0104506D01*
X0089278Y0104454D01*
X0088977Y0104472D01*
X0088841Y0104514D01*
X0088717Y0104586D01*
X0088366Y0104879D01*
X0088277Y0104981D01*
X0090227Y0104981D01*
X0090300Y0105079D02*
X0088224Y0105079D01*
X0088212Y0105100D02*
X0088176Y0105231D01*
X0088147Y0105463D01*
X0088146Y0105620D01*
X0088180Y0105772D01*
X0088370Y0106127D01*
X0088750Y0106792D01*
X0088878Y0107068D01*
X0088959Y0107362D01*
X0088989Y0107665D01*
X0088980Y0107721D01*
X0088951Y0107769D01*
X0088907Y0107803D01*
X0088824Y0107864D01*
X0088763Y0107947D01*
X0088727Y0108044D01*
X0088721Y0108146D01*
X0088748Y0108253D01*
X0088805Y0108346D01*
X0088887Y0108418D01*
X0088987Y0108461D01*
X0089099Y0108485D01*
X0089166Y0108510D01*
X0089222Y0108556D01*
X0089260Y0108617D01*
X0089276Y0108687D01*
X0089418Y0109444D01*
X0089464Y0109575D01*
X0089547Y0109687D01*
X0089659Y0109769D01*
X0089791Y0109814D01*
X0090162Y0109846D01*
X0090533Y0109810D01*
X0090676Y0109761D01*
X0090747Y0109709D02*
X0089578Y0109709D01*
X0089490Y0109611D02*
X0090845Y0109611D01*
X0090911Y0109512D02*
X0089442Y0109512D01*
X0089412Y0109414D02*
X0090966Y0109414D01*
X0091020Y0109315D02*
X0089394Y0109315D01*
X0089376Y0109217D02*
X0091062Y0109217D01*
X0091100Y0109118D02*
X0089357Y0109118D01*
X0089339Y0109020D02*
X0091117Y0109020D01*
X0091127Y0108921D02*
X0089320Y0108921D01*
X0089302Y0108823D02*
X0091134Y0108823D01*
X0091138Y0108724D02*
X0089283Y0108724D01*
X0089262Y0108626D02*
X0091143Y0108626D01*
X0091147Y0108527D02*
X0089186Y0108527D01*
X0088912Y0108429D02*
X0091152Y0108429D01*
X0091157Y0108330D02*
X0088795Y0108330D01*
X0088742Y0108232D02*
X0091161Y0108232D01*
X0091172Y0108133D02*
X0088722Y0108133D01*
X0088730Y0108035D02*
X0091186Y0108035D01*
X0091199Y0107936D02*
X0088771Y0107936D01*
X0088861Y0107838D02*
X0091228Y0107838D01*
X0091261Y0107739D02*
X0088969Y0107739D01*
X0088986Y0107641D02*
X0091295Y0107641D01*
X0091348Y0107542D02*
X0088977Y0107542D01*
X0088967Y0107444D02*
X0091401Y0107444D01*
X0091451Y0107345D02*
X0088954Y0107345D01*
X0088927Y0107247D02*
X0091487Y0107247D01*
X0091503Y0107148D02*
X0088900Y0107148D01*
X0088869Y0107050D02*
X0091492Y0107050D01*
X0091461Y0106951D02*
X0088824Y0106951D01*
X0088778Y0106853D02*
X0091412Y0106853D01*
X0091350Y0106754D02*
X0088728Y0106754D01*
X0088672Y0106656D02*
X0091288Y0106656D01*
X0091226Y0106557D02*
X0088616Y0106557D01*
X0088559Y0106459D02*
X0091165Y0106459D01*
X0091103Y0106360D02*
X0088503Y0106360D01*
X0088447Y0106262D02*
X0091041Y0106262D01*
X0090979Y0106163D02*
X0088391Y0106163D01*
X0088337Y0106065D02*
X0090918Y0106065D01*
X0090856Y0105966D02*
X0088284Y0105966D01*
X0088231Y0105868D02*
X0090794Y0105868D01*
X0090732Y0105769D02*
X0088180Y0105769D01*
X0088157Y0105671D02*
X0090671Y0105671D01*
X0090609Y0105572D02*
X0088146Y0105572D01*
X0088147Y0105473D02*
X0090547Y0105473D01*
X0090485Y0105375D02*
X0088158Y0105375D01*
X0088170Y0105276D02*
X0090424Y0105276D01*
X0090362Y0105178D02*
X0088190Y0105178D01*
X0088212Y0105100D02*
X0088277Y0104981D01*
X0088363Y0104882D02*
X0090147Y0104882D01*
X0090054Y0104784D02*
X0088480Y0104784D01*
X0088598Y0104685D02*
X0089925Y0104685D01*
X0089757Y0104587D02*
X0088717Y0104587D01*
X0088924Y0104488D02*
X0089473Y0104488D01*
X0093974Y0104685D02*
X0094468Y0104685D01*
X0096956Y0107838D02*
X0097445Y0107838D01*
X0093980Y0111286D02*
X0093977Y0111286D01*
X0090541Y0109808D02*
X0089774Y0109808D01*
D21*
G36*
X0064017Y0043606D02*
X0063038Y0044585D01*
X0064697Y0046244D01*
X0065676Y0045265D01*
X0064017Y0043606D01*
G37*
G36*
X0062600Y0044585D02*
X0061621Y0043606D01*
X0059962Y0045265D01*
X0060941Y0046244D01*
X0062600Y0044585D01*
G37*
G36*
X0057032Y0039017D02*
X0056053Y0038038D01*
X0054394Y0039697D01*
X0055373Y0040676D01*
X0057032Y0039017D01*
G37*
G36*
X0056053Y0037600D02*
X0057032Y0036621D01*
X0055373Y0034962D01*
X0054394Y0035941D01*
X0056053Y0037600D01*
G37*
G36*
X0061621Y0032032D02*
X0062600Y0031053D01*
X0060941Y0029394D01*
X0059962Y0030373D01*
X0061621Y0032032D01*
G37*
G36*
X0063038Y0031053D02*
X0064017Y0032032D01*
X0065676Y0030373D01*
X0064697Y0029394D01*
X0063038Y0031053D01*
G37*
G36*
X0068606Y0036621D02*
X0069585Y0037600D01*
X0071244Y0035941D01*
X0070265Y0034962D01*
X0068606Y0036621D01*
G37*
G36*
X0069585Y0038038D02*
X0068606Y0039017D01*
X0070265Y0040676D01*
X0071244Y0039697D01*
X0069585Y0038038D01*
G37*
D22*
G36*
X0067200Y0035800D02*
X0068178Y0036778D01*
X0070130Y0034826D01*
X0069152Y0033848D01*
X0067200Y0035800D01*
G37*
G36*
X0066087Y0034687D02*
X0067065Y0035665D01*
X0069017Y0033713D01*
X0068039Y0032735D01*
X0066087Y0034687D01*
G37*
G36*
X0064973Y0033573D02*
X0065951Y0034551D01*
X0067903Y0032599D01*
X0066925Y0031621D01*
X0064973Y0033573D01*
G37*
G36*
X0063859Y0032460D02*
X0064837Y0033438D01*
X0066789Y0031486D01*
X0065811Y0030508D01*
X0063859Y0032460D01*
G37*
G36*
X0060800Y0033438D02*
X0061778Y0032460D01*
X0059826Y0030508D01*
X0058848Y0031486D01*
X0060800Y0033438D01*
G37*
G36*
X0059687Y0034551D02*
X0060665Y0033573D01*
X0058713Y0031621D01*
X0057735Y0032599D01*
X0059687Y0034551D01*
G37*
G36*
X0058573Y0035665D02*
X0059551Y0034687D01*
X0057599Y0032735D01*
X0056621Y0033713D01*
X0058573Y0035665D01*
G37*
G36*
X0057460Y0036778D02*
X0058438Y0035800D01*
X0056486Y0033848D01*
X0055508Y0034826D01*
X0057460Y0036778D01*
G37*
G36*
X0058438Y0039837D02*
X0057460Y0038859D01*
X0055508Y0040811D01*
X0056486Y0041789D01*
X0058438Y0039837D01*
G37*
G36*
X0059551Y0040951D02*
X0058573Y0039973D01*
X0056621Y0041925D01*
X0057599Y0042903D01*
X0059551Y0040951D01*
G37*
G36*
X0060665Y0042065D02*
X0059687Y0041087D01*
X0057735Y0043039D01*
X0058713Y0044017D01*
X0060665Y0042065D01*
G37*
G36*
X0061778Y0043178D02*
X0060800Y0042200D01*
X0058848Y0044152D01*
X0059826Y0045130D01*
X0061778Y0043178D01*
G37*
G36*
X0064837Y0042200D02*
X0063859Y0043178D01*
X0065811Y0045130D01*
X0066789Y0044152D01*
X0064837Y0042200D01*
G37*
G36*
X0065951Y0041087D02*
X0064973Y0042065D01*
X0066925Y0044017D01*
X0067903Y0043039D01*
X0065951Y0041087D01*
G37*
G36*
X0067065Y0039973D02*
X0066087Y0040951D01*
X0068039Y0042903D01*
X0069017Y0041925D01*
X0067065Y0039973D01*
G37*
G36*
X0068178Y0038859D02*
X0067200Y0039837D01*
X0069152Y0041789D01*
X0070130Y0040811D01*
X0068178Y0038859D01*
G37*
D23*
G36*
X0068032Y0038726D02*
X0068321Y0039015D01*
X0069580Y0037756D01*
X0069291Y0037467D01*
X0068032Y0038726D01*
G37*
G36*
X0069291Y0038171D02*
X0069580Y0037882D01*
X0068321Y0036623D01*
X0068032Y0036912D01*
X0069291Y0038171D01*
G37*
G36*
X0062467Y0044291D02*
X0062756Y0044580D01*
X0064015Y0043321D01*
X0063726Y0043032D01*
X0062467Y0044291D01*
G37*
G36*
X0061912Y0043032D02*
X0061623Y0043321D01*
X0062882Y0044580D01*
X0063171Y0044291D01*
X0061912Y0043032D01*
G37*
G36*
X0056347Y0037467D02*
X0056058Y0037756D01*
X0057317Y0039015D01*
X0057606Y0038726D01*
X0056347Y0037467D01*
G37*
G36*
X0057606Y0036912D02*
X0057317Y0036623D01*
X0056058Y0037882D01*
X0056347Y0038171D01*
X0057606Y0036912D01*
G37*
G36*
X0063171Y0031347D02*
X0062882Y0031058D01*
X0061623Y0032317D01*
X0061912Y0032606D01*
X0063171Y0031347D01*
G37*
G36*
X0063726Y0032606D02*
X0064015Y0032317D01*
X0062756Y0031058D01*
X0062467Y0031347D01*
X0063726Y0032606D01*
G37*
D24*
X0104687Y0065382D03*
X0109608Y0065382D03*
X0114530Y0065382D03*
X0119451Y0065382D03*
X0119451Y0073256D03*
X0114530Y0073256D03*
X0109608Y0073256D03*
X0104687Y0073256D03*
D25*
X0106520Y0079988D03*
X0109669Y0079988D03*
X0112819Y0079988D03*
X0115969Y0079988D03*
X0119118Y0079988D03*
X0119118Y0088650D03*
X0115969Y0088650D03*
X0112819Y0088650D03*
X0109669Y0088650D03*
X0106520Y0088650D03*
D26*
X0125569Y0078628D03*
X0125569Y0073510D03*
X0106069Y0055878D03*
X0106069Y0050760D03*
D27*
X0114036Y0054819D03*
X0118602Y0054819D03*
D28*
X0098319Y0093319D03*
X0078319Y0093319D03*
X0060319Y0076319D03*
X0060319Y0061319D03*
D29*
X0028423Y0028416D03*
X0017994Y0042005D03*
X0011437Y0057831D03*
X0009200Y0074814D03*
X0011435Y0091798D03*
X0017989Y0107624D03*
X0028416Y0121215D03*
X0042005Y0131644D03*
X0057831Y0138201D03*
X0074814Y0140438D03*
X0091798Y0138203D03*
X0107624Y0131649D03*
X0121215Y0121222D03*
X0131644Y0107633D03*
X0138201Y0091807D03*
X0140438Y0074824D03*
X0138203Y0057840D03*
X0131649Y0042014D03*
X0121222Y0028423D03*
X0107633Y0017994D03*
X0091807Y0011437D03*
X0074824Y0009200D03*
X0057840Y0011435D03*
X0042014Y0017989D03*
M02*
