%
M48
M72
T01C0.0138
T02C0.0150
T03C0.0354
T04C0.0394
T05C0.0500
T06C0.0630
T07C0.1200
%
T01
X2957Y7432
X2882Y8182
X2582Y9207
X2107Y9482
X3107Y10382
X3932Y9832
X3932Y9432
X4182Y9182
X4532Y9182
X4932Y9832
X4432Y10182
X4282Y10532
X4282Y10882
X4282Y11232
X4382Y11582
X5232Y12007
X5382Y12282
X6332Y12082
X6382Y12457
X7457Y12357
X7982Y11982
X7732Y11332
X7982Y11082
X8308Y10708
X8082Y10482
X7432Y11082
X7082Y11232
X6932Y11532
X7232Y11732
X8207Y13207
X9107Y12457
X9682Y12807
X10232Y11782
X11332Y11032
X12032Y10982
X12082Y9982
X12107Y9507
X12782Y9682
X10782Y8432
X10232Y8732
X9682Y8032
X7882Y8382
X7132Y8382
X5532Y10982
X5265Y8132
X4832Y7782
X4832Y5832
X5032Y4807
X5132Y4132
X5457Y3282
X6282Y2732
X6757Y1757
X8507Y2732
X8857Y2882
X9682Y2182
X9932Y2982
X9932Y3782
X9582Y4182
X8032Y3232
X7382Y3532
X6957Y4482
X7832Y4557
X7682Y6632
X8632Y7207
X8632Y7532
X8957Y6982
X9507Y5807
X9782Y5307
X10732Y4532
X10982Y2907
X9982Y6482
X9582Y6482
X9557Y6982
X9382Y8882
X10232Y10432
X10582Y10432
X12482Y6832
X5282Y2157
X2907Y3957
X2182Y5232
X2357Y6332
X3232Y5982
X3582Y5982
X1782Y8207
T02
X6032Y6132
X6032Y7632
X7832Y9332
X9832Y9332
T03
X8882Y3932
X4263Y4549
X9326Y10901
T04
X3153Y6827
X6912Y5528
X7203Y9589
T05
X8022Y2102
X4062Y3302
X10902Y11662
X6942Y12862
X3302Y10902
X11662Y4062
T06
X5180Y6859
X8737Y6413
X8909Y8475
T07
X2842Y2842
X1144Y5783
X1799Y4200
X4201Y1799
X5784Y1143
X7482Y920
X9181Y1144
X10763Y1799
X12122Y2842
X13165Y4201
X13820Y5784
X14044Y7482
X13820Y9181
X13164Y10763
X12121Y12122
X10762Y13165
X9180Y13820
X7481Y14044
X5783Y13820
X4200Y13164
X2842Y12121
X1799Y10762
X1143Y9180
X920Y7481
M30
