<?xml version="1.0" encoding="utf-8" ?>
<svg baseProfile="full" height="40mm" version="1.1" viewBox="-20 -20 40 40" width="40mm" xmlns="http://www.w3.org/2000/svg" xmlns:ev="http://www.w3.org/2001/xml-events" xmlns:xlink="http://www.w3.org/1999/xlink"><defs /><g id="elems" stroke="black" stroke-width="0.3048"><polyline fill="white" points="-18.35,2.2472268764353934e-15 -18.249476780007818,-1.918097300961442 -17.949008473465337,-3.815179526505879 -17.45188707401607,-5.670461846780283 -16.763559147741727,-7.463617400440935 -15.891566159444453,-9.174999999999995 -14.845461846780289,-10.785859379566881 -13.636707547510191,-12.278546626685044 -12.278546626685054,-13.63670754751018 -10.785859379566885,-14.845461846780285 -9.17500000000001,-15.891566159444446 -7.463617400440946,-16.76355914774172 -5.670461846780288,-17.451887074016067 -3.8151795265058923,-17.949008473465334 -1.9180973009614553,-18.249476780007818 -3.37084031465309e-15,-18.35 1.9180973009614324,-18.249476780007818 3.81517952650587,-17.949008473465337 5.670461846780282,-17.45188707401607 7.463617400440926,-16.76355914774173 9.174999999999988,-15.891566159444457 10.78585937956688,-14.845461846780289 12.278546626685042,-13.636707547510191 13.636707547510175,-12.27854662668506 14.845461846780285,-10.785859379566887 15.891566159444446,-9.17500000000001 16.76355914774172,-7.463617400440947 17.451887074016067,-5.670461846780289 17.949008473465334,-3.815179526505894 18.249476780007818,-1.9180973009614566 18.35,-4.494453752870787e-15" stroke="black" stroke-width="0.5" /><polyline fill="white" points="18.35,0.0 18.249476780007818,1.918097300961441 17.949008473465337,3.815179526505884 17.451887074016067,5.670461846780285 16.763559147741727,7.463617400440933 15.891566159444452,9.174999999999999 14.845461846780287,10.785859379566883 13.636707547510188,12.278546626685047 12.27854662668505,13.636707547510184 10.785859379566883,14.845461846780287 9.175000000000002,15.89156615944445 7.4636174004409375,16.763559147741727 5.670461846780286,17.451887074016067 3.815179526505886,17.949008473465334 1.9180973009614453,18.249476780007818 1.1236134382176967e-15,18.35 -1.9180973009614388,18.249476780007818 -3.8151795265058803,17.949008473465337 -5.6704618467802845,17.45188707401607 -7.463617400440931,16.76355914774173 -9.174999999999997,15.891566159444452 -10.785859379566881,14.845461846780287 -12.278546626685044,13.63670754751019 -13.63670754751018,12.278546626685051 -14.845461846780285,10.785859379566885 -15.891566159444448,9.175000000000006 -16.763559147741724,7.463617400440938 -17.451887074016067,5.670461846780287 -17.949008473465334,3.8151795265058914 -18.249476780007818,1.9180973009614461 -18.35,2.2472268764353934e-15" stroke="black" stroke-width="0.5" /><line stroke="black" stroke-width="0.5" x1="1.1236134382176967e-15" x2="1.0337243631602809e-15" y1="18.35" y2="16.882" /><line stroke="black" stroke-width="0.5" x1="9.174999999999999" x2="8.440999999999999" y1="15.891566159444452" y2="14.620240866688896" /><line stroke="black" stroke-width="0.5" x1="15.89156615944445" x2="14.620240866688894" y1="9.175000000000002" y2="8.441000000000003" /><line stroke="black" stroke-width="0.5" x1="18.35" x2="16.882" y1="4.074518500374325e-15" y2="3.748557020344379e-15" /><line stroke="black" stroke-width="0.5" x1="15.891566159444453" x2="14.620240866688897" y1="-9.174999999999997" y2="-8.440999999999997" /><line stroke="black" stroke-width="0.5" x1="9.175000000000006" x2="8.441000000000006" y1="-15.891566159444448" y2="-14.620240866688892" /><line stroke="black" stroke-width="0.5" x1="9.272650438966347e-15" x2="8.530838403849038e-15" y1="-18.35" y2="-16.882" /><line stroke="black" stroke-width="0.5" x1="-9.17499999999999" x2="-8.44099999999999" y1="-15.891566159444455" y2="-14.6202408666889" /><line stroke="black" stroke-width="0.5" x1="-15.891566159444443" x2="-14.620240866688889" y1="-9.175000000000015" y2="-8.441000000000013" /><line stroke="black" stroke-width="0.5" x1="-18.35" x2="-16.882" y1="-1.8545300877932693e-14" y2="-1.7061676807698077e-14" /><line stroke="black" stroke-width="0.5" x1="-15.891566159444462" x2="-14.620240866688905" y1="9.174999999999983" y2="8.440999999999985" /><line stroke="black" stroke-width="0.5" x1="-9.175000000000024" x2="-8.441000000000022" y1="15.891566159444437" y2="14.620240866688883" /><line stroke="black" stroke-width="0.5" x1="-1.9668914316150387e-14" x2="-1.8095401170858356e-14" y1="18.35" y2="16.882" /><line stroke="black" stroke-width="0.5" x1="1.1236134382176967e-15" x2="1.0594069560338284e-15" y1="18.35" y2="17.301428571428573" /><line stroke="black" stroke-width="0.5" x1="1.1236134382176967e-15" x2="1.093650413198558e-15" y1="18.35" y2="17.860666666666667" /><line stroke="black" stroke-width="0.5" x1="1.918097300961441" x2="1.8669480396024691" y1="18.249476780007818" y2="17.762824065874273" /><line stroke="black" stroke-width="0.5" x1="3.815179526505882" x2="3.7134414057990583" y1="17.949008473465337" y2="17.470368247506258" /><line stroke="black" stroke-width="0.5" x1="5.670461846780283" x2="5.519249530866142" y1="17.45188707401607" y2="16.986503418708974" /><line stroke="black" stroke-width="0.5" x1="7.46361740044093" x2="7.264587603095839" y1="16.76355914774173" y2="16.316530903801947" /><line stroke="black" stroke-width="0.5" x1="9.174999999999995" x2="8.930333333333328" y1="15.891566159444453" y2="15.467791061859268" /><line stroke="black" stroke-width="0.5" x1="10.78585937956688" x2="10.498236462778427" y1="14.845461846780289" y2="14.44958286419948" /><line stroke="black" stroke-width="0.5" x1="12.278546626685046" x2="11.95111871664011" y1="13.63670754751019" y2="13.273062012909916" /><line stroke="black" stroke-width="0.5" x1="13.636707547510184" x2="13.27306201290991" y1="12.278546626685051" y2="11.951118716640115" /><line stroke="black" stroke-width="0.5" x1="14.845461846780285" x2="14.449582864199476" y1="10.785859379566885" y2="10.498236462778435" /><line stroke="black" stroke-width="0.5" x1="15.89156615944445" x2="15.467791061859263" y1="9.175000000000002" y2="8.930333333333335" /><line stroke="black" stroke-width="0.5" x1="16.763559147741727" x2="16.316530903801947" y1="7.4636174004409375" y2="7.264587603095845" /><line stroke="black" stroke-width="0.5" x1="17.451887074016067" x2="16.986503418708974" y1="5.670461846780289" y2="5.519249530866148" /><line stroke="black" stroke-width="0.5" x1="17.949008473465334" x2="17.470368247506258" y1="3.8151795265058883" y2="3.7134414057990646" /><line stroke="black" stroke-width="0.5" x1="18.249476780007818" x2="17.762824065874273" y1="1.9180973009614457" y2="1.8669480396024736" /><line stroke="black" stroke-width="0.5" x1="18.35" x2="17.860666666666667" y1="4.583833312921115e-15" y2="4.4615977579098856e-15" /><line stroke="black" stroke-width="0.5" x1="18.249476780007818" x2="17.762824065874277" y1="-1.9180973009614368" y2="-1.866948039602465" /><line stroke="black" stroke-width="0.5" x1="17.949008473465337" x2="17.470368247506258" y1="-3.815179526505879" y2="-3.7134414057990552" /><line stroke="black" stroke-width="0.5" x1="17.45188707401607" x2="16.986503418708974" y1="-5.670461846780281" y2="-5.51924953086614" /><line stroke="black" stroke-width="0.5" x1="16.76355914774173" x2="16.316530903801947" y1="-7.4636174004409295" y2="-7.264587603095837" /><line stroke="black" stroke-width="0.5" x1="15.891566159444453" x2="15.467791061859268" y1="-9.174999999999997" y2="-8.93033333333333" /><line stroke="black" stroke-width="0.5" x1="14.845461846780289" x2="14.44958286419948" y1="-10.78585937956688" y2="-10.498236462778427" /><line stroke="black" stroke-width="0.5" x1="13.636707547510188" x2="13.273062012909914" y1="-12.278546626685046" y2="-11.95111871664011" /><line stroke="black" stroke-width="0.5" x1="12.278546626685051" x2="11.951118716640115" y1="-13.636707547510184" y2="-13.27306201290991" /><line stroke="black" stroke-width="0.5" x1="10.785859379566885" x2="10.498236462778435" y1="-14.845461846780285" y2="-14.449582864199476" /><line stroke="black" stroke-width="0.5" x1="9.175000000000002" x2="8.930333333333335" y1="-15.89156615944445" y2="-15.467791061859263" /><line stroke="black" stroke-width="0.5" x1="7.4636174004409375" x2="7.264587603095845" y1="-16.763559147741727" y2="-16.316530903801947" /><line stroke="black" stroke-width="0.5" x1="5.67046184678029" x2="5.519249530866149" y1="-17.451887074016067" y2="-16.986503418708974" /><line stroke="black" stroke-width="0.5" x1="3.8151795265058905" x2="3.7134414057990663" y1="-17.949008473465334" y2="-17.470368247506258" /><line stroke="black" stroke-width="0.5" x1="1.9180973009614493" x2="1.8669480396024771" y1="-18.249476780007818" y2="-17.762824065874273" /><line stroke="black" stroke-width="0.5" x1="9.272650438966347e-15" x2="9.02537976059391e-15" y1="-18.35" y2="-17.860666666666667" /><line stroke="black" stroke-width="0.5" x1="-1.9180973009614306" x2="-1.8669480396024591" y1="-18.249476780007818" y2="-17.762824065874277" /><line stroke="black" stroke-width="0.5" x1="-3.815179526505872" x2="-3.7134414057990486" y1="-17.949008473465337" y2="-17.47036824750626" /><line stroke="black" stroke-width="0.5" x1="-5.670461846780273" x2="-5.519249530866132" y1="-17.451887074016074" y2="-16.986503418708978" /><line stroke="black" stroke-width="0.5" x1="-7.4636174004409215" x2="-7.26458760309583" y1="-16.763559147741734" y2="-16.316530903801954" /><line stroke="black" stroke-width="0.5" x1="-9.17499999999999" x2="-8.930333333333323" y1="-15.891566159444455" y2="-15.46779106185927" /><line stroke="black" stroke-width="0.5" x1="-10.785859379566874" x2="-10.498236462778424" y1="-14.845461846780292" y2="-14.449582864199485" /><line stroke="black" stroke-width="0.5" x1="-12.278546626685044" x2="-11.951118716640108" y1="-13.63670754751019" y2="-13.273062012909916" /><line stroke="black" stroke-width="0.5" x1="-13.63670754751018" x2="-13.273062012909909" y1="-12.278546626685051" y2="-11.951118716640115" /><line stroke="black" stroke-width="0.5" x1="-14.845461846780285" x2="-14.449582864199476" y1="-10.785859379566885" y2="-10.498236462778435" /><line stroke="black" stroke-width="0.5" x1="-15.891566159444452" x2="-15.467791061859264" y1="-9.174999999999999" y2="-8.930333333333332" /><line stroke="black" stroke-width="0.5" x1="-16.76355914774173" x2="-16.316530903801947" y1="-7.463617400440931" y2="-7.26458760309584" /><line stroke="black" stroke-width="0.5" x1="-17.45188707401607" x2="-16.986503418708974" y1="-5.67046184678028" y2="-5.519249530866139" /><line stroke="black" stroke-width="0.5" x1="-17.949008473465337" x2="-17.470368247506258" y1="-3.8151795265058754" y2="-3.713441405799052" /><line stroke="black" stroke-width="0.5" x1="-18.249476780007818" x2="-17.762824065874277" y1="-1.91809730096143" y2="-1.8669480396024583" /><line stroke="black" stroke-width="0.5" x1="-18.35" x2="-17.860666666666667" y1="1.4050847125061906e-14" y2="1.3676157868393588e-14" /><line stroke="black" stroke-width="0.5" x1="-18.249476780007818" x2="-17.762824065874273" y1="1.918097300961458" y2="1.8669480396024856" /><line stroke="black" stroke-width="0.5" x1="-17.94900847346533" x2="-17.470368247506254" y1="3.815179526505903" y2="3.7134414057990788" /><line stroke="black" stroke-width="0.5" x1="-17.451887074016064" x2="-16.986503418708967" y1="5.670461846780307" y2="5.519249530866165" /><line stroke="black" stroke-width="0.5" x1="-16.763559147741717" x2="-16.316530903801937" y1="7.463617400440957" y2="7.2645876030958645" /><line stroke="black" stroke-width="0.5" x1="-15.891566159444437" x2="-15.467791061859252" y1="9.175000000000026" y2="8.930333333333357" /><line stroke="black" stroke-width="0.5" x1="-14.84546184678027" x2="-14.44958286419946" y1="10.785859379566908" y2="10.498236462778456" /><line stroke="black" stroke-width="0.5" x1="-13.636707547510163" x2="-13.273062012909891" y1="12.278546626685074" y2="11.951118716640138" /><line stroke="black" stroke-width="0.5" x1="-12.278546626685023" x2="-11.951118716640089" y1="13.636707547510207" y2="13.273062012909934" /><line stroke="black" stroke-width="0.5" x1="-10.785859379566858" x2="-10.498236462778408" y1="14.845461846780303" y2="14.449582864199494" /><line stroke="black" stroke-width="0.5" x1="-9.17499999999998" x2="-8.930333333333312" y1="15.891566159444462" y2="15.467791061859275" /><line stroke="black" stroke-width="0.5" x1="-7.463617400440917" x2="-7.264587603095825" y1="16.763559147741734" y2="16.316530903801954" /><line stroke="black" stroke-width="0.5" x1="-5.670461846780273" x2="-5.519249530866132" y1="17.451887074016074" y2="16.986503418708978" /><line stroke="black" stroke-width="0.5" x1="-3.8151795265058768" x2="-3.713441405799053" y1="17.949008473465337" y2="17.470368247506258" /><line stroke="black" stroke-width="0.5" x1="-1.9180973009614393" x2="-1.8669480396024674" y1="18.249476780007818" y2="17.762824065874277" /><polyline fill="white" points="-12.233333333333334,1.4981512509569288e-15 -12.166317853338544,-1.2787315339742946 -11.966005648976891,-2.5434530176705863 -11.63459138267738,-3.7803078978535223 -11.175706098494485,-4.97574493362729 -10.594377439629636,-6.116666666666664 -9.896974564520193,-7.190572919711254 -9.091138365006794,-8.185697751123362 -8.185697751123369,-9.091138365006788 -7.190572919711257,-9.89697456452019 -6.1166666666666725,-10.59437743962963 -4.975744933627298,-11.17570609849448 -3.7803078978535254,-11.63459138267738 -2.5434530176705947,-11.96600564897689 -1.2787315339743035,-12.166317853338544 -2.247226876435393e-15,-12.233333333333334 1.2787315339742882,-12.166317853338546 2.54345301767058,-11.966005648976893 3.7803078978535214,-11.63459138267738 4.9757449336272845,-11.175706098494487 6.116666666666659,-10.594377439629639 7.1905729197112525,-9.896974564520193 8.18569775112336,-9.091138365006794 9.091138365006783,-8.185697751123373 9.89697456452019,-7.190572919711258 10.59437743962963,-6.1166666666666725 11.17570609849448,-4.975744933627299 11.63459138267738,-3.7803078978535263 11.96600564897689,-2.543453017670596 12.166317853338544,-1.2787315339743044 12.233333333333334,-2.9963025019138576e-15" stroke="black" stroke-width="0.3048" /><polyline fill="white" points="12.233333333333334,0.0 12.166317853338544,1.278731533974294 11.966005648976891,2.543453017670589 11.63459138267738,3.7803078978535236 11.175706098494485,4.975744933627289 10.594377439629634,6.116666666666666 9.89697456452019,7.190572919711255 9.091138365006792,8.185697751123366 8.185697751123367,9.091138365006788 7.190572919711255,9.89697456452019 6.116666666666669,10.594377439629634 4.975744933627292,11.175706098494485 3.780307897853524,11.63459138267738 2.5434530176705907,11.96600564897689 1.2787315339742968,12.166317853338544 7.490756254784644e-16,12.233333333333334 -1.2787315339742926,12.166317853338546 -2.5434530176705867,11.966005648976891 -3.7803078978535227,11.63459138267738 -4.975744933627287,11.175706098494485 -6.1166666666666645,10.594377439629634 -7.190572919711254,9.89697456452019 -8.185697751123362,9.091138365006794 -9.091138365006788,8.185697751123367 -9.89697456452019,7.190572919711257 -10.594377439629632,6.116666666666672 -11.175706098494484,4.9757449336272925 -11.63459138267738,3.780307897853525 -11.96600564897689,2.5434530176705943 -12.166317853338544,1.2787315339742975 -12.233333333333334,1.4981512509569288e-15" stroke="black" stroke-width="0.3048" /><line stroke="black" stroke-width="0.3048" x1="7.490756254784644e-16" x2="6.591865504210487e-16" y1="12.233333333333334" y2="10.765333333333334" /><line stroke="black" stroke-width="0.3048" x1="6.116666666666665" x2="5.382666666666666" y1="10.594377439629634" y2="9.323052146874078" /><line stroke="black" stroke-width="0.3048" x1="10.594377439629634" x2="9.323052146874078" y1="6.116666666666669" y2="5.382666666666668" /><line stroke="black" stroke-width="0.3048" x1="12.233333333333334" x2="10.765333333333334" y1="2.7163456669162165e-15" y2="2.3903841868862706e-15" /><line stroke="black" stroke-width="0.3048" x1="10.594377439629636" x2="9.32305214687408" y1="-6.1166666666666645" y2="-5.3826666666666645" /><line stroke="black" stroke-width="0.3048" x1="6.116666666666672" x2="5.382666666666671" y1="-10.594377439629632" y2="-9.323052146874076" /><line stroke="black" stroke-width="0.3048" x1="6.181766959310898e-15" x2="5.43995492419359e-15" y1="-12.233333333333334" y2="-10.765333333333334" /><line stroke="black" stroke-width="0.3048" x1="-6.11666666666666" x2="-5.382666666666661" y1="-10.594377439629637" y2="-9.323052146874081" /><line stroke="black" stroke-width="0.3048" x1="-10.594377439629628" x2="-9.323052146874074" y1="-6.116666666666677" y2="-5.382666666666675" /><line stroke="black" stroke-width="0.3048" x1="-12.233333333333334" x2="-10.765333333333334" y1="-1.2363533918621795e-14" y2="-1.087990984838718e-14" /><line stroke="black" stroke-width="0.3048" x1="-10.59437743962964" x2="-9.323052146874085" y1="6.116666666666655" y2="5.3826666666666565" /><line stroke="black" stroke-width="0.3048" x1="-6.116666666666682" x2="-5.3826666666666805" y1="10.594377439629625" y2="9.32305214687407" /><line stroke="black" stroke-width="0.3048" x1="-1.3112609544100258e-14" x2="-1.1539096398808228e-14" y1="12.233333333333334" y2="10.765333333333334" /><line stroke="black" stroke-width="0.3048" x1="7.490756254784644e-16" x2="6.848691432945961e-16" y1="12.233333333333334" y2="11.184761904761906" /><line stroke="black" stroke-width="0.3048" x1="2.124296040125449" x2="1.9422135224004105" y1="12.047481511849346" y2="11.014840239405117" /><line stroke="black" stroke-width="0.3048" x1="4.184046420017349" x2="3.8254138697301476" y1="11.495573060947613" y2="10.510238227152104" /><line stroke="black" stroke-width="0.3048" x1="6.116666666666669" x2="5.592380952380954" y1="10.594377439629634" y2="9.686287944804237" /><line stroke="black" stroke-width="0.3048" x1="7.863435091832" x2="7.189426369674972" y1="9.371277020822165" y2="8.568024704751693" /><line stroke="black" stroke-width="0.3048" x1="9.371277020822166" x2="8.568024704751695" y1="7.863435091831997" y2="7.18942636967497" /><line stroke="black" stroke-width="0.3048" x1="10.594377439629634" x2="9.686287944804238" y1="6.116666666666665" y2="5.592380952380951" /><line stroke="black" stroke-width="0.3048" x1="11.495573060947613" x2="10.510238227152104" y1="4.184046420017346" y2="3.8254138697301445" /><line stroke="black" stroke-width="0.3048" x1="12.047481511849346" x2="11.014840239405117" y1="2.124296040125446" y2="1.9422135224004078" /><line stroke="black" stroke-width="0.3048" x1="12.233333333333334" x2="11.184761904761906" y1="-2.0372592501871624e-15" y2="-1.8626370287425486e-15" /><line stroke="black" stroke-width="0.3048" x1="12.047481511849346" x2="11.014840239405117" y1="-2.12429604012545" y2="-1.9422135224004116" /><line stroke="black" stroke-width="0.3048" x1="11.495573060947613" x2="10.510238227152104" y1="-4.184046420017349" y2="-3.8254138697301485" /><line stroke="black" stroke-width="0.3048" x1="10.594377439629634" x2="9.686287944804237" y1="-6.116666666666669" y2="-5.592380952380954" /><line stroke="black" stroke-width="0.3048" x1="9.371277020822165" x2="8.568024704751693" y1="-7.863435091832" y2="-7.189426369674972" /><line stroke="black" stroke-width="0.3048" x1="7.863435091831996" x2="7.189426369674968" y1="-9.371277020822166" y2="-8.568024704751695" /><line stroke="black" stroke-width="0.3048" x1="6.116666666666665" x2="5.592380952380952" y1="-10.594377439629634" y2="-9.686287944804238" /><line stroke="black" stroke-width="0.3048" x1="4.184046420017347" x2="3.8254138697301454" y1="-11.495573060947613" y2="-10.510238227152104" /><line stroke="black" stroke-width="0.3048" x1="2.1242960401254467" x2="1.9422135224004085" y1="-12.047481511849346" y2="-11.014840239405117" /><line stroke="black" stroke-width="0.3048" x1="-1.9672700414377524e-15" x2="-1.798646895028802e-15" y1="-12.233333333333334" y2="-11.184761904761906" /><line stroke="black" stroke-width="0.3048" x1="-2.1242960401254503" x2="-1.9422135224004118" y1="-12.047481511849346" y2="-11.014840239405117" /><line stroke="black" stroke-width="0.3048" x1="-4.18404642001735" x2="-3.825413869730149" y1="-11.495573060947613" y2="-10.510238227152104" /><line stroke="black" stroke-width="0.3048" x1="-6.11666666666667" x2="-5.592380952380956" y1="-10.594377439629632" y2="-9.686287944804235" /><line stroke="black" stroke-width="0.3048" x1="-7.863435091831999" x2="-7.189426369674971" y1="-9.371277020822165" y2="-8.568024704751695" /><line stroke="black" stroke-width="0.3048" x1="-9.371277020822165" x2="-8.568024704751693" y1="-7.863435091832" y2="-7.189426369674972" /><line stroke="black" stroke-width="0.3048" x1="-10.594377439629632" x2="-9.686287944804235" y1="-6.116666666666672" y2="-5.592380952380957" /><line stroke="black" stroke-width="0.3048" x1="-11.495573060947612" x2="-10.510238227152103" y1="-4.184046420017355" y2="-3.8254138697301534" /><line stroke="black" stroke-width="0.3048" x1="-12.047481511849345" x2="-11.014840239405116" y1="-2.124296040125458" y2="-1.9422135224004187" /><line stroke="black" stroke-width="0.3048" x1="-12.233333333333334" x2="-11.184761904761906" y1="-1.2363533918621795e-14" y2="-1.1303802439882785e-14" /><line stroke="black" stroke-width="0.3048" x1="-12.047481511849348" x2="-11.01484023940512" y1="2.124296040125434" y2="1.9422135224003965" /><line stroke="black" stroke-width="0.3048" x1="-11.495573060947619" x2="-10.51023822715211" y1="4.1840464200173315" y2="3.8254138697301316" /><line stroke="black" stroke-width="0.3048" x1="-10.594377439629644" x2="-9.686287944804246" y1="6.11666666666665" y2="5.592380952380938" /><line stroke="black" stroke-width="0.3048" x1="-9.37127702082218" x2="-8.568024704751707" y1="7.863435091831981" y2="7.189426369674955" /><line stroke="black" stroke-width="0.3048" x1="-7.8634350918320175" x2="-7.1894263696749885" y1="9.371277020822149" y2="8.568024704751679" /><line stroke="black" stroke-width="0.3048" x1="-6.11666666666669" x2="-5.592380952380974" y1="10.59437743962962" y2="9.686287944804224" /><line stroke="black" stroke-width="0.3048" x1="-4.184046420017376" x2="-3.8254138697301725" y1="11.495573060947603" y2="10.510238227152096" /><line stroke="black" stroke-width="0.3048" x1="-2.12429604012548" x2="-1.9422135224004389" y1="12.047481511849341" y2="11.014840239405112" /><line stroke="black" stroke-width="0.3048" x1="-3.484337487942999e-14" x2="-3.185679988976457e-14" y1="12.233333333333334" y2="11.184761904761906" /><polyline fill="white" points="-5.242857142857143,10.0 -5.214136222859375,9.451972199725303 -5.12828813527581,8.909948706712607 -4.986253449718877,8.379868043777062 -4.789588327926207,7.8675378855883045 -4.540447474126986,7.37857142857143 -4.241560527651511,6.918325891552319 -3.896202156431483,6.49184382094713 -3.508156179052872,6.10379784356852 -3.081674108447681,5.75843947234849 -2.6214285714285737,5.459552525873016 -2.132462114411699,5.2104116720737945 -1.6201319562229393,5.013746550281124 -1.0900512932873978,4.87171186472419 -0.5480278002747014,4.785863777140625 -9.630972327580255e-16,4.757142857142857 0.5480278002746949,4.785863777140624 1.0900512932873914,4.8717118647241895 1.6201319562229377,5.013746550281123 2.132462114411693,5.210411672073792 2.621428571428568,5.459552525873012 3.0816741084476793,5.758439472348489 3.5081561790528686,6.1037978435685165 3.896202156431478,6.4918438209471265 4.24156052765151,6.918325891552318 4.540447474126984,7.378571428571426 4.7895883279262055,7.867537885588301 4.986253449718876,8.37986804377706 5.12828813527581,8.909948706712601 5.214136222859375,9.451972199725297 5.242857142857143,9.999999999999998" stroke="black" stroke-width="0.5" /><polyline fill="white" points="5.242857142857143,10.0 5.214136222859375,10.548027800274697 5.12828813527581,11.090051293287395 4.986253449718876,11.620131956222938 4.789588327926207,12.132462114411695 4.540447474126986,12.62142857142857 4.24156052765151,13.08167410844768 3.8962021564314817,13.50815617905287 3.5081561790528712,13.896202156431482 3.0816741084476806,14.24156052765151 2.621428571428572,14.540447474126985 2.1324621144116964,14.789588327926207 1.6201319562229388,14.986253449718877 1.090051293287396,15.12828813527581 0.5480278002746986,15.214136222859375 3.2103241091934187e-16,15.242857142857144 -0.5480278002746968,15.214136222859377 -1.0900512932873943,15.12828813527581 -1.6201319562229382,14.986253449718877 -2.1324621144116946,14.789588327926207 -2.62142857142857,14.540447474126985 -3.08167410844768,14.24156052765151 -3.5081561790528695,13.896202156431482 -3.89620215643148,13.508156179052872 -4.24156052765151,13.08167410844768 -4.540447474126984,12.621428571428574 -4.789588327926207,12.132462114411696 -4.986253449718876,11.62013195622294 -5.12828813527581,11.090051293287397 -5.214136222859375,10.5480278002747 -5.242857142857143,10.0" stroke="black" stroke-width="0.5" /><line stroke="black" stroke-width="0.5" x1="3.2103241091934187e-16" x2="2.568259287354735e-16" y1="15.242857142857144" y2="14.194285714285714" /><line stroke="black" stroke-width="0.5" x1="3.0816741084476806" x2="2.465339286758144" y1="14.24156052765151" y2="13.393248422121207" /><line stroke="black" stroke-width="0.5" x1="4.986253449718876" x2="3.9890027597751008" y1="11.620131956222938" y2="11.296105564978351" /><line stroke="black" stroke-width="0.5" x1="4.986253449718876" x2="3.9890027597751008" y1="8.379868043777062" y2="8.703894435021649" /><line stroke="black" stroke-width="0.5" x1="3.0816741084476806" x2="2.465339286758144" y1="5.75843947234849" y2="6.606751577878792" /><line stroke="black" stroke-width="0.5" x1="3.2103241091934187e-16" x2="2.568259287354735e-16" y1="4.757142857142857" y2="5.805714285714286" /><line stroke="black" stroke-width="0.5" x1="-3.08167410844768" x2="-2.4653392867581436" y1="5.75843947234849" y2="6.606751577878792" /><line stroke="black" stroke-width="0.5" x1="-4.986253449718876" x2="-3.9890027597751008" y1="8.37986804377706" y2="8.703894435021649" /><line stroke="black" stroke-width="0.5" x1="-4.986253449718877" x2="-3.989002759775101" y1="11.620131956222938" y2="11.296105564978351" /><line stroke="black" stroke-width="0.5" x1="-3.081674108447681" x2="-2.465339286758145" y1="14.24156052765151" y2="13.393248422121207" /></g><text fill="rgb(15%,15%,15%)" stroke="none" style="font-size:3px; font-family:Comfortaa; font-weight:bold" text-anchor="middle" x="9.269810865295996e-16" y="-13.88875">12</text><text fill="rgb(15%,15%,15%)" stroke="none" style="font-size:3px; font-family:Comfortaa; font-weight:bold" text-anchor="middle" x="7.569374999999998" y="-11.860542081541672">1</text><text fill="rgb(15%,15%,15%)" stroke="none" style="font-size:3px; font-family:Comfortaa; font-weight:bold" text-anchor="middle" x="13.11054208154167" y="-6.319375000000002">2</text><text fill="rgb(15%,15%,15%)" stroke="none" style="font-size:3px; font-family:Comfortaa; font-weight:bold" text-anchor="middle" x="15.13875" y="1.2499999999999967">3</text><text fill="rgb(15%,15%,15%)" stroke="none" style="font-size:3px; font-family:Comfortaa; font-weight:bold" text-anchor="middle" x="13.110542081541674" y="8.819374999999997">4</text><text fill="rgb(15%,15%,15%)" stroke="none" style="font-size:3px; font-family:Comfortaa; font-weight:bold" text-anchor="middle" x="7.569375000000005" y="14.360542081541668">5</text><text fill="rgb(15%,15%,15%)" stroke="none" style="font-size:3px; font-family:Comfortaa; font-weight:bold" text-anchor="middle" x="7.649936612147235e-15" y="16.38875" /><text fill="rgb(15%,15%,15%)" stroke="none" style="font-size:3px; font-family:Comfortaa; font-weight:bold" text-anchor="middle" x="-7.569374999999991" y="14.360542081541675">7</text><text fill="rgb(15%,15%,15%)" stroke="none" style="font-size:3px; font-family:Comfortaa; font-weight:bold" text-anchor="middle" x="-13.110542081541665" y="8.819375000000012">8</text><text fill="rgb(15%,15%,15%)" stroke="none" style="font-size:3px; font-family:Comfortaa; font-weight:bold" text-anchor="middle" x="-15.13875" y="1.2500000000000153">9</text><text fill="rgb(15%,15%,15%)" stroke="none" style="font-size:3px; font-family:Comfortaa; font-weight:bold" text-anchor="middle" x="-13.11054208154168" y="-6.319374999999985">10</text><text fill="rgb(15%,15%,15%)" stroke="none" style="font-size:3px; font-family:Comfortaa; font-weight:bold" text-anchor="middle" x="-7.569375000000019" y="-11.86054208154166">11</text><text fill="rgb(15%,15%,15%)" stroke="none" style="font-size:2px; font-family:Comfortaa; font-weight:bold" text-anchor="middle" x="5.618067191088483e-16" y="-8.425">N</text><text fill="rgb(15%,15%,15%)" stroke="none" style="font-size:2px; font-family:Comfortaa; font-weight:bold" text-anchor="middle" x="4.5874999999999995" y="-7.195783079722226" /><text fill="rgb(15%,15%,15%)" stroke="none" style="font-size:2px; font-family:Comfortaa; font-weight:bold" text-anchor="middle" x="7.945783079722225" y="-3.8375000000000012" /><text fill="rgb(15%,15%,15%)" stroke="none" style="font-size:2px; font-family:Comfortaa; font-weight:bold" text-anchor="middle" x="9.175" y="0.749999999999998">E</text><text fill="rgb(15%,15%,15%)" stroke="none" style="font-size:2px; font-family:Comfortaa; font-weight:bold" text-anchor="middle" x="7.945783079722227" y="5.337499999999999" /><text fill="rgb(15%,15%,15%)" stroke="none" style="font-size:2px; font-family:Comfortaa; font-weight:bold" text-anchor="middle" x="4.587500000000003" y="8.695783079722224" /><text fill="rgb(15%,15%,15%)" stroke="none" style="font-size:2px; font-family:Comfortaa; font-weight:bold" text-anchor="middle" x="4.636325219483173e-15" y="9.925" /><text fill="rgb(15%,15%,15%)" stroke="none" style="font-size:2px; font-family:Comfortaa; font-weight:bold" text-anchor="middle" x="-4.587499999999995" y="8.695783079722228" /><text fill="rgb(15%,15%,15%)" stroke="none" style="font-size:2px; font-family:Comfortaa; font-weight:bold" text-anchor="middle" x="-7.945783079722221" y="5.3375000000000075" /><text fill="rgb(15%,15%,15%)" stroke="none" style="font-size:2px; font-family:Comfortaa; font-weight:bold" text-anchor="middle" x="-9.175" y="0.7500000000000093">W</text><text fill="rgb(15%,15%,15%)" stroke="none" style="font-size:2px; font-family:Comfortaa; font-weight:bold" text-anchor="middle" x="-7.945783079722231" y="-3.8374999999999915" /><text fill="rgb(15%,15%,15%)" stroke="none" style="font-size:2px; font-family:Comfortaa; font-weight:bold" text-anchor="middle" x="-4.587500000000012" y="-7.195783079722219" /><text fill="rgb(15%,15%,15%)" stroke="none" style="font-size:1.5px; font-family:Comfortaa; font-weight:bold" text-anchor="middle" x="3.6918727255724314e-16" y="4.570714285714286">0</text><text fill="rgb(15%,15%,15%)" stroke="none" style="font-size:1.5px; font-family:Comfortaa; font-weight:bold" text-anchor="middle" x="3.5439252247148323" y="5.722205393200763">1</text><text fill="rgb(15%,15%,15%)" stroke="none" style="font-size:1.5px; font-family:Comfortaa; font-weight:bold" text-anchor="middle" x="5.734191467176707" y="8.73684825034362">2</text><text fill="rgb(15%,15%,15%)" stroke="none" style="font-size:1.5px; font-family:Comfortaa; font-weight:bold" text-anchor="middle" x="5.734191467176707" y="12.46315174965638">3</text><text fill="rgb(15%,15%,15%)" stroke="none" style="font-size:1.5px; font-family:Comfortaa; font-weight:bold" text-anchor="middle" x="3.5439252247148323" y="15.477794606799236">4</text><text fill="rgb(15%,15%,15%)" stroke="none" style="font-size:1.5px; font-family:Comfortaa; font-weight:bold" text-anchor="middle" x="3.6918727255724314e-16" y="16.629285714285714">5</text><text fill="rgb(15%,15%,15%)" stroke="none" style="font-size:1.5px; font-family:Comfortaa; font-weight:bold" text-anchor="middle" x="-3.543925224714832" y="15.477794606799236">6</text><text fill="rgb(15%,15%,15%)" stroke="none" style="font-size:1.5px; font-family:Comfortaa; font-weight:bold" text-anchor="middle" x="-5.734191467176707" y="12.46315174965638">7</text><text fill="rgb(15%,15%,15%)" stroke="none" style="font-size:1.5px; font-family:Comfortaa; font-weight:bold" text-anchor="middle" x="-5.734191467176708" y="8.736848250343622">8</text><text fill="rgb(15%,15%,15%)" stroke="none" style="font-size:1.5px; font-family:Comfortaa; font-weight:bold" text-anchor="middle" x="-3.543925224714833" y="5.722205393200764">9</text></svg>