G75*
%MOIN*%
%OFA0B0*%
%FSLAX25Y25*%
%IPPOS*%
%LPD*%
%AMOC8*
5,1,8,0,0,1.08239X$1,22.5*
%
%ADD10C,0.00100*%
%ADD11R,0.02756X0.34252*%
%ADD12R,0.02756X0.28346*%
%ADD13R,0.09350X0.07480*%
%ADD14R,0.04626X0.07480*%
%ADD15R,0.05807X0.08268*%
%ADD16R,0.01772X0.05433*%
%ADD17R,0.02559X0.02165*%
%ADD18R,0.04356X0.04356*%
%ADD19C,0.04356*%
%ADD20R,0.04331X0.03937*%
%ADD21R,0.02362X0.02559*%
%ADD22R,0.02559X0.02362*%
%ADD23R,0.02165X0.02559*%
%ADD24R,0.03937X0.02165*%
%ADD25R,0.02756X0.00984*%
%ADD26R,0.00984X0.02756*%
%ADD27R,0.10630X0.10630*%
%ADD28C,0.01000*%
%ADD29C,0.00800*%
%ADD30C,0.02500*%
%ADD31C,0.02378*%
%ADD32C,0.01200*%
D10*
X0062274Y0028622D02*
X0062274Y0123110D01*
X0097707Y0123110D01*
X0097707Y0028622D01*
X0062274Y0028622D01*
D11*
X0069951Y0047717D03*
X0079951Y0047717D03*
X0084951Y0047717D03*
D12*
X0089951Y0044764D03*
X0074951Y0044764D03*
D13*
X0068524Y0117205D03*
X0091457Y0117205D03*
D14*
X0083287Y0117205D03*
X0076693Y0117205D03*
D15*
X0070295Y0108150D03*
X0089685Y0108150D03*
D16*
X0085108Y0106732D03*
X0082549Y0106732D03*
X0079990Y0106732D03*
X0077431Y0106732D03*
X0074872Y0106732D03*
D17*
X0075266Y0100472D03*
X0078809Y0100472D03*
X0077628Y0097323D03*
X0072904Y0097323D03*
X0070541Y0100472D03*
X0081368Y0097323D03*
X0083533Y0100472D03*
X0086093Y0097323D03*
X0069360Y0073504D03*
X0064636Y0073504D03*
D18*
X0069990Y0067992D03*
D19*
X0074990Y0067992D03*
X0079990Y0067992D03*
X0084990Y0067992D03*
X0089990Y0067992D03*
D20*
X0088014Y0101056D03*
X0094707Y0101056D03*
D21*
X0065970Y0100526D03*
X0065970Y0095408D03*
D22*
X0079596Y0073504D03*
X0084715Y0073504D03*
X0088652Y0073504D03*
X0093770Y0073504D03*
D23*
X0091211Y0080787D03*
X0091211Y0085512D03*
X0091211Y0089055D03*
X0091211Y0093780D03*
X0065817Y0091220D03*
X0065817Y0086496D03*
X0065817Y0086496D03*
X0065817Y0081772D03*
D24*
X0094951Y0078622D03*
X0094951Y0085709D03*
X0094951Y0089252D03*
X0094951Y0096339D03*
D25*
X0086486Y0088661D03*
X0086486Y0086693D03*
X0086486Y0084724D03*
X0086486Y0082756D03*
X0086486Y0080787D03*
X0070738Y0080787D03*
X0070738Y0082756D03*
X0070738Y0084724D03*
X0070738Y0086693D03*
X0070738Y0088661D03*
D26*
X0074675Y0092598D03*
X0076644Y0092598D03*
X0078612Y0092598D03*
X0080581Y0092598D03*
X0082549Y0092598D03*
X0082549Y0076850D03*
X0080581Y0076850D03*
X0078612Y0076850D03*
X0076644Y0076850D03*
X0074675Y0076850D03*
D27*
X0078612Y0084724D03*
D28*
X0070738Y0086693D02*
X0068179Y0086693D01*
X0068179Y0084528D01*
X0065817Y0081943D01*
X0065817Y0081772D01*
X0063455Y0079409D02*
X0069360Y0073504D01*
X0069360Y0068622D01*
X0069990Y0067992D01*
X0063455Y0079409D02*
X0063455Y0084698D01*
X0065252Y0086496D01*
X0065817Y0086496D01*
X0068179Y0087480D02*
X0068179Y0091417D01*
X0065817Y0091220D02*
X0065729Y0091220D01*
X0065576Y0091068D01*
X0068179Y0087480D02*
X0068573Y0087087D01*
X0065020Y0107913D02*
X0064980Y0107953D01*
X0064833Y0107953D01*
X0064833Y0110906D02*
X0064833Y0111053D01*
X0064872Y0111093D01*
X0064872Y0110906D02*
X0064833Y0110906D01*
X0068524Y0117205D02*
X0076693Y0117205D01*
X0083287Y0117205D01*
X0091457Y0117205D01*
X0094990Y0110896D02*
X0094951Y0110856D01*
X0094951Y0110512D01*
X0094951Y0110679D01*
X0094911Y0110719D01*
X0094961Y0107598D02*
X0094951Y0107589D01*
X0094951Y0107559D01*
X0091801Y0107598D02*
X0091250Y0108150D01*
X0089685Y0108150D01*
D29*
X0094707Y0103128D01*
X0094707Y0101056D01*
X0093139Y0099488D01*
X0092195Y0099488D01*
X0090620Y0097913D01*
X0087077Y0097913D01*
X0086486Y0097323D01*
X0086093Y0097323D01*
X0088061Y0095157D02*
X0089242Y0096339D01*
X0094951Y0096339D01*
X0091211Y0093780D02*
X0091014Y0093386D01*
X0094951Y0089252D01*
X0094951Y0085709D02*
X0095148Y0082559D01*
X0094951Y0078622D02*
X0093179Y0078622D01*
X0091211Y0080787D01*
X0086486Y0080787D02*
X0086486Y0080591D01*
X0091211Y0075866D01*
X0091211Y0071732D01*
X0093770Y0069173D01*
X0093770Y0062480D01*
X0089833Y0057362D02*
X0089833Y0067992D01*
X0085108Y0067992D02*
X0085108Y0062480D01*
X0079990Y0062874D02*
X0079990Y0067598D01*
X0079990Y0067992D02*
X0084715Y0073504D01*
X0086683Y0076850D02*
X0088652Y0074882D01*
X0088652Y0073504D01*
X0086683Y0076850D02*
X0082549Y0076850D01*
X0078612Y0076850D02*
X0078612Y0074882D01*
X0079596Y0073504D01*
X0076644Y0073701D02*
X0076447Y0073504D01*
X0076644Y0073701D02*
X0076644Y0076850D01*
X0071329Y0077047D02*
X0069360Y0077835D01*
X0068179Y0079016D01*
X0068179Y0082165D01*
X0068770Y0082756D01*
X0070738Y0082756D01*
X0070738Y0084724D02*
X0078612Y0084724D01*
X0078612Y0087874D01*
X0078612Y0084724D02*
X0086486Y0084724D01*
X0091211Y0085512D02*
X0091014Y0088071D01*
X0091014Y0089646D01*
X0088061Y0092598D01*
X0088061Y0092795D01*
X0091211Y0089055D02*
X0091211Y0085512D01*
X0080581Y0092598D02*
X0080581Y0094567D01*
X0081171Y0095157D01*
X0088061Y0095157D01*
X0083533Y0100472D02*
X0082549Y0101457D01*
X0082549Y0106732D01*
X0079990Y0106732D02*
X0079990Y0104016D01*
X0078809Y0102835D01*
X0073494Y0102835D01*
X0072904Y0102244D01*
X0072904Y0097323D01*
X0075266Y0095551D02*
X0075266Y0100472D01*
X0078809Y0100472D01*
X0077628Y0097520D02*
X0077628Y0097323D01*
X0081368Y0097323D01*
X0078612Y0094961D02*
X0078612Y0092598D01*
X0076644Y0092598D02*
X0076644Y0094173D01*
X0075266Y0095551D01*
X0077628Y0095945D02*
X0078612Y0094961D01*
X0077628Y0095945D02*
X0077628Y0097323D01*
X0071919Y0093976D02*
X0069557Y0096339D01*
X0069557Y0097323D01*
X0068967Y0097913D01*
X0063848Y0097913D01*
X0063455Y0097520D01*
X0063455Y0093189D01*
X0065576Y0091068D01*
X0065970Y0095408D02*
X0066855Y0095408D01*
X0071919Y0093976D02*
X0071919Y0092598D01*
X0074675Y0092598D01*
X0071919Y0092598D02*
X0070738Y0091417D01*
X0070738Y0088661D01*
X0068573Y0087087D02*
X0068179Y0086693D01*
X0070541Y0100472D02*
X0070541Y0101654D01*
X0070295Y0101900D01*
X0070295Y0108150D01*
X0065970Y0103824D01*
X0065970Y0100526D01*
X0071713Y0106732D02*
X0074872Y0106732D01*
X0071713Y0106732D02*
X0070295Y0108150D01*
X0070295Y0115433D01*
X0068524Y0117205D01*
X0064872Y0114252D02*
X0064872Y0111093D01*
X0064872Y0110906D02*
X0064872Y0107746D01*
X0065020Y0107913D02*
X0068179Y0107913D01*
X0089685Y0108150D02*
X0089685Y0117205D01*
X0091457Y0117205D01*
X0094990Y0114055D02*
X0094990Y0110896D01*
X0094911Y0110719D02*
X0094911Y0107559D01*
X0094961Y0107598D02*
X0091801Y0107598D01*
X0093770Y0074291D02*
X0093770Y0073504D01*
X0093770Y0072520D01*
X0095738Y0070551D01*
X0074872Y0067992D02*
X0074872Y0056575D01*
X0070148Y0058543D02*
X0070148Y0067992D01*
X0064636Y0064449D02*
X0066604Y0062480D01*
X0064636Y0064449D02*
X0064636Y0073504D01*
D30*
X0071329Y0077047D03*
X0076447Y0073504D03*
X0078612Y0081575D03*
X0075463Y0084724D03*
X0078612Y0087874D03*
X0081762Y0084724D03*
X0088061Y0092795D03*
X0095148Y0082559D03*
X0086683Y0076850D03*
X0095738Y0070551D03*
X0069163Y0093189D03*
X0069557Y0097323D03*
X0064833Y0107953D03*
X0064833Y0110906D03*
X0084518Y0111496D03*
X0094951Y0110512D03*
X0094951Y0107559D03*
D31*
X0093770Y0062480D03*
X0066604Y0062480D03*
D32*
X0068179Y0091417D02*
X0069163Y0093189D01*
X0066855Y0095408D01*
X0085108Y0103961D02*
X0088014Y0101056D01*
X0085108Y0103961D02*
X0085108Y0106732D01*
X0085108Y0110906D01*
X0084518Y0111496D01*
M02*
