%
M48
M72
T01C0.0138
T02C0.0150
T03C0.0276
%
T01
X6660Y6248
X9377Y6248
T02
X9574Y7055
X8668Y7685
X7861Y8157
X7546Y8472
X7861Y8787
X8176Y8472
X8806Y9280
X9515Y8256
X7645Y7350
X7133Y7705
X6916Y9319
X6956Y9732
X6483Y10795
X6483Y11091
X8452Y11150
X9495Y11051
X9495Y10756
T03
X6999Y6799
X7499Y6799
X7999Y6799
X8499Y6799
X8999Y6799
M30
