G75*
%MOIN*%
%OFA0B0*%
%FSLAX25Y25*%
%IPPOS*%
%LPD*%
%AMOC8*
5,1,8,0,0,1.08239X$1,22.5*
%
%ADD10C,0.00100*%
%ADD11R,0.03543X0.35039*%
%ADD12R,0.03543X0.29134*%
%ADD13R,0.03937X0.29134*%
%ADD14R,0.03937X0.35039*%
%ADD15R,0.10150X0.08280*%
%ADD16R,0.05426X0.08280*%
%ADD17R,0.06607X0.09068*%
%ADD18R,0.02572X0.06233*%
%ADD19R,0.03359X0.02965*%
%ADD20R,0.05156X0.05156*%
%ADD21C,0.05156*%
%ADD22R,0.05131X0.04737*%
%ADD23R,0.03162X0.03359*%
%ADD24R,0.03359X0.03162*%
%ADD25R,0.02965X0.03359*%
%ADD26R,0.04737X0.02965*%
%ADD27R,0.03556X0.01784*%
%ADD28R,0.01784X0.03556*%
%ADD29R,0.11430X0.11430*%
D10*
X0062274Y0028622D02*
X0062274Y0123110D01*
X0097707Y0123110D01*
X0097707Y0028622D01*
X0062274Y0028622D01*
D11*
X0069951Y0047717D03*
X0084911Y0047717D03*
D12*
X0090030Y0044764D03*
D13*
X0074872Y0044764D03*
D14*
X0079990Y0047717D03*
D15*
X0068524Y0117205D03*
X0091457Y0117205D03*
D16*
X0083287Y0117205D03*
X0076693Y0117205D03*
D17*
X0070295Y0108150D03*
X0089685Y0108150D03*
D18*
X0085108Y0106732D03*
X0082549Y0106732D03*
X0079990Y0106732D03*
X0077431Y0106732D03*
X0074872Y0106732D03*
D19*
X0075266Y0100472D03*
X0078809Y0100472D03*
X0077628Y0097323D03*
X0072904Y0097323D03*
X0070541Y0100472D03*
X0081368Y0097323D03*
X0083533Y0100472D03*
X0086093Y0097323D03*
X0069360Y0073504D03*
X0064636Y0073504D03*
D20*
X0069990Y0067992D03*
D21*
X0074990Y0067992D03*
X0079990Y0067992D03*
X0084990Y0067992D03*
X0089990Y0067992D03*
D22*
X0088014Y0101056D03*
X0094707Y0101056D03*
D23*
X0065970Y0100526D03*
X0065970Y0095408D03*
D24*
X0079596Y0073504D03*
X0084715Y0073504D03*
X0088652Y0073504D03*
X0093770Y0073504D03*
D25*
X0091211Y0080787D03*
X0091211Y0085512D03*
X0091211Y0089055D03*
X0091211Y0093780D03*
X0065817Y0091220D03*
X0065817Y0086496D03*
X0065817Y0086496D03*
X0065817Y0081772D03*
D26*
X0094951Y0078622D03*
X0094951Y0085709D03*
X0094951Y0089252D03*
X0094951Y0096339D03*
D27*
X0086486Y0088661D03*
X0086486Y0086693D03*
X0086486Y0084724D03*
X0086486Y0082756D03*
X0086486Y0080787D03*
X0070738Y0080787D03*
X0070738Y0082756D03*
X0070738Y0084724D03*
X0070738Y0086693D03*
X0070738Y0088661D03*
D28*
X0074675Y0092598D03*
X0076644Y0092598D03*
X0078612Y0092598D03*
X0080581Y0092598D03*
X0082549Y0092598D03*
X0082549Y0076850D03*
X0080581Y0076850D03*
X0078612Y0076850D03*
X0076644Y0076850D03*
X0074675Y0076850D03*
D29*
X0078612Y0084724D03*
M02*
